<svg width="1308" height="462" viewBox="0 0 1308 462" fill="none" xmlns="http://www.w3.org/2000/svg">
<g filter="url(#filter0_d_930_6875)">
<rect x="12" y="12" width="1282" height="438" rx="20" fill="#F88D2A"/>
</g>
<mask id="mask0_930_6875" style="mask-type:alpha" maskUnits="userSpaceOnUse" x="12" y="12" width="1282" height="438">
<rect x="12" y="12" width="1282" height="438" rx="20" fill="#F88D2A"/>
</mask>
<g mask="url(#mask0_930_6875)">
<path opacity="0.1" d="M1011.29 175.689C1027.89 125.121 1056.31 78.9328 1102.8 50.5157C1164.34 12.8627 1235.18 36.4528 1264.27 77.3436C1278.1 96.8014 1285.18 119.459 1288.77 143.343C1291.49 161.4 1321.69 165.573 1337.56 150.902C1393.61 99.0961 1480.35 48.3753 1536.07 76.3657C1552.77 84.7719 1556.86 103.487 1557.67 121.044C1562.43 226.833 1487.13 324.946 1392.97 408.163C1376 423.17 1176.99 563.518 1131.4 606.793C1126.42 611.492 1118.68 610.609 1116.57 605.771C1075.91 512.008 1098.65 521.336 1026.12 388.517C1001.92 344.167 987.756 247.44 1011.29 175.689Z" fill="white"/>
<path opacity="0.1" d="M508.152 28.4564C510.119 25.2652 512.758 22.8005 516.225 22.2674C520.816 21.5637 524.887 25.7132 525.998 29.734C526.802 32.6515 532.03 36.461 535.039 36.1437C538.245 35.8057 541.411 36.4295 543.283 38.8787C544.191 40.0686 544.116 41.597 543.847 42.9266C542.237 50.9338 535.683 55.6622 528.197 58.6444C527.986 58.7283 527.435 58.889 526.642 59.1068C523.257 60.0366 505.87 48.2228 505.247 44.7485C504.512 40.6372 505.36 32.9784 508.152 28.4564Z" fill="white"/>
<path opacity="0.1" d="M550.349 55.3341C554.322 55.4694 558.017 56.4773 560.435 59.0311C563.638 62.411 562.176 67.5861 559.176 70.3108C557.042 72.2471 556.767 78.4458 558.721 80.831C560.654 83.1912 561.714 85.8983 560.606 88.4108C560.042 89.686 558.623 90.3179 557.276 90.7091C549.162 93.0576 541.239 89.9212 534.368 85.2419C533.129 84.3986 521.34 73.8269 517.784 71.6182C517.397 71.3766 517.427 70.8435 517.788 70.6098C524.799 66.0991 524.194 67.7941 534.05 60.4092C537.342 57.9442 544.712 55.1427 550.349 55.3341Z" fill="white"/>
<path opacity="0.1" d="M369.105 278.555C365.559 276.421 363.024 273.887 363 271.048C362.972 267.29 368.783 264.821 373.901 264.671C377.2 264.576 382.642 257.877 384.542 255.178C385.312 254.083 386.499 253.191 388.216 252.657C389.835 252.154 391.691 252.49 393.267 252.944C402.766 255.669 407.36 261.71 409.65 268.172C410.372 270.227 397.627 284.225 395.452 284.1C393.604 283.994 391.348 283.895 388.499 283.806C383.339 283.642 374.128 281.583 369.105 278.555Z" fill="white"/>
<path opacity="0.1" d="M409.619 250.05C410.504 246.932 412.406 244.192 415.967 242.743C420.681 240.822 426.743 242.916 429.531 245.783C431.849 248.169 437.381 250.127 440.426 248.786C444.135 247.152 448.481 246.336 451.922 247.932C453.379 248.609 453.894 249.846 454.129 250.982C455.53 257.826 450.259 263.525 443.292 268.111C442.036 268.939 426.973 276.347 423.628 278.76C423.262 279.021 422.616 278.902 422.395 278.573C418.151 272.211 420.114 272.996 412.87 263.862C410.453 260.812 408.363 254.474 409.619 250.05Z" fill="white"/>
<path opacity="0.1" d="M33.2209 50.6047C31.0473 47.7958 30.0019 44.8487 31.4019 42.2072C33.2532 38.7078 39.8063 37.7707 44.5634 38.8279C48.1073 39.6154 55.3172 35.7602 58.0002 33.3145C59.4135 32.0262 61.2852 31.1322 63.6702 31.0084C65.4063 30.918 66.9307 31.6656 68.1464 32.454C75.4732 37.2038 76.6429 43.8892 75.5008 50.4263C75.0996 52.7016 55.3291 62.149 53.1245 61.458C51.7721 61.0341 50.1948 60.5573 48.3258 60.0109C43.6884 58.6543 36.3017 54.5918 33.2209 50.6047Z" fill="white"/>
<path opacity="0.1" d="M31.7279 105.34C29.4285 102.314 28.1917 99.1796 29.3102 96.4352C30.792 92.7993 36.9617 91.9994 41.5796 93.251C44.8485 94.1368 51.3592 92.0451 52.603 89.7125C53.8265 87.418 55.9315 85.6508 59.1574 85.563C60.802 85.5177 62.3183 86.3485 63.542 87.2155C70.9098 92.4335 72.571 99.5133 72.0136 106.371C72.0049 106.478 71.9706 106.669 71.9151 106.933C71.2956 109.878 50.6147 116.974 46.8964 115.691C42.3641 114.127 34.9883 109.629 31.7279 105.34Z" fill="white"/>
<path opacity="0.1" d="M-95.959 364.382C-108.467 348.712 -114.904 331.723 -107.971 315.432C-98.7748 293.857 -63.4511 285.344 -37.374 289.45C-19.4013 292.286 19.7285 269.806 31.024 254.576C38.5912 244.374 49.5083 236.55 64.3739 234.464C73.7549 233.156 82.2402 236.881 89.0323 241.013C129.974 265.845 138.039 304.929 133.488 344.188C131.709 359.226 19.5201 420.782 4.0476 417.009C-0.717142 415.847 -5.90857 414.611 -11.5884 413.29C-37.1003 407.346 -78.2502 386.61 -95.959 364.382Z" fill="white"/>
<path opacity="0.1" d="M720.073 139.521C724.936 154.15 733.155 165.372 746.462 167.6C764.09 170.542 784.163 151.065 792.324 132.387C797.924 119.561 828.986 103.498 843.565 102.239C853.03 101.422 862.325 97.5322 869.662 88.8963C874.382 83.3293 875.507 76.2631 875.671 70.1305C876.706 33.1963 855.005 11.7701 827.969 -1.51421C817.724 -6.51846 731.975 40.237 728.099 51.5943C726.78 55.4594 725.307 59.6903 723.658 64.3463C716.907 83.4169 713.161 118.791 720.073 139.521Z" fill="white"/>
<path opacity="0.1" d="M395.041 469.811C382.533 454.142 376.096 437.153 383.029 420.861C392.225 399.287 427.549 390.774 453.626 394.88C471.599 397.716 510.729 375.235 522.024 360.006C529.591 349.803 540.508 341.98 555.374 339.893C564.755 338.586 573.24 342.311 580.032 346.443C620.974 371.275 629.039 410.358 624.488 449.618C622.709 464.656 510.52 526.212 495.048 522.439C490.283 521.277 485.091 520.041 479.412 518.719C453.9 512.776 412.75 492.04 395.041 469.811Z" fill="white"/>
</g>
<defs>
<filter id="filter0_d_930_6875" x="0" y="0" width="1306" height="462" filterUnits="userSpaceOnUse" color-interpolation-filters="sRGB">
<feFlood flood-opacity="0" result="BackgroundImageFix"/>
<feColorMatrix in="SourceAlpha" type="matrix" values="0 0 0 0 0 0 0 0 0 0 0 0 0 0 0 0 0 0 127 0" result="hardAlpha"/>
<feOffset/>
<feGaussianBlur stdDeviation="6"/>
<feComposite in2="hardAlpha" operator="out"/>
<feColorMatrix type="matrix" values="0 0 0 0 0 0 0 0 0 0 0 0 0 0 0 0 0 0 0.25 0"/>
<feBlend mode="normal" in2="BackgroundImageFix" result="effect1_dropShadow_930_6875"/>
<feBlend mode="normal" in="SourceGraphic" in2="effect1_dropShadow_930_6875" result="shape"/>
</filter>
</defs>
</svg>
