<svg width="759" height="959" viewBox="0 0 759 959" fill="none" xmlns="http://www.w3.org/2000/svg">
<path d="M11.9801 683.776C11.2417 683.197 11.0348 682.153 11.5363 681.331C13.4382 678.174 15.5867 675.066 17.9124 672.098L18.0743 671.891C18.7107 671.079 19.8959 670.935 20.7081 671.572C21.5203 672.208 21.6642 673.393 21.0278 674.206L20.8543 674.427C18.6443 677.248 16.5883 680.237 14.7643 683.264C14.2313 684.157 13.0768 684.445 12.1836 683.912C12.1245 683.865 12.0655 683.819 12.0064 683.773L11.9801 683.776ZM34.2485 658.61C34.1304 658.517 34.027 658.436 33.9436 658.299C33.285 657.497 33.4225 656.318 34.2245 655.659C40.5198 650.606 47.5387 646.119 55.0685 642.319C55.9867 641.847 57.1157 642.231 57.588 643.149C58.0487 644.082 57.6761 645.196 56.7579 645.668C49.4523 649.335 42.6693 653.672 36.5834 658.58C35.8887 659.132 34.9246 659.116 34.2601 658.595L34.2485 658.61ZM63.28 641.603C63.029 641.406 62.8242 641.15 62.7069 640.844C62.3104 639.89 62.7652 638.792 63.7193 638.396C69.5609 635.99 75.6412 634.009 81.8022 632.473C82.8134 632.216 83.8247 632.842 84.0663 633.842C84.3227 634.853 83.6971 635.864 82.6975 636.106C76.7177 637.593 70.8185 639.525 65.1549 641.856C64.5073 642.135 63.7969 642.008 63.28 641.603ZM92.1267 633.531C91.7722 633.254 91.5072 632.832 91.4349 632.346C91.2839 631.322 91.9685 630.357 92.9925 630.206C100.297 629.065 107.918 628.434 115.67 628.335C116.698 628.331 117.559 629.148 117.578 630.188C117.598 631.228 116.765 632.078 115.725 632.097C108.146 632.188 100.699 632.812 93.5781 633.93C93.0398 634.009 92.5286 633.87 92.1299 633.558L92.1267 633.531Z" fill="url(#paint0_linear_930_6654)"/>
<path d="M244.056 664.203C243.421 663.705 243.154 662.829 243.46 662.043C243.837 661.076 244.928 660.596 245.884 660.987L246.278 661.153C250.279 662.739 254.292 664.31 258.29 665.869C259.257 666.246 259.737 667.337 259.36 668.305C258.983 669.273 257.892 669.753 256.924 669.376C252.912 667.805 248.899 666.234 244.899 664.648L244.493 664.497C244.31 664.426 244.166 664.336 244.018 664.221L244.056 664.203ZM265.224 672.471C264.589 671.973 264.337 671.108 264.617 670.326C264.994 669.358 266.07 668.867 267.038 669.244C273.512 671.719 279.261 673.841 284.596 675.732C285.572 676.068 286.09 677.141 285.742 678.132C285.406 679.108 284.333 679.626 283.342 679.278C277.982 677.39 272.217 675.257 265.702 672.774C265.52 672.702 265.36 672.601 265.213 672.486L265.224 672.471ZM293.488 682.604C292.882 682.129 292.61 681.321 292.863 680.541C293.184 679.554 294.243 679.024 295.23 679.345C300.978 681.227 306.347 682.86 311.63 684.33C313.317 684.794 315.004 685.257 316.702 685.706C317.695 685.96 318.314 686.994 318.034 687.99C317.769 688.997 316.759 689.588 315.751 689.323C314.026 688.877 312.313 688.417 310.612 687.942C305.273 686.452 299.862 684.81 294.059 682.909C293.85 682.84 293.65 682.731 293.488 682.604Z" fill="url(#paint1_linear_930_6654)"/>
<path d="M440.151 696.03C439.782 695.741 439.517 695.319 439.456 694.818C439.305 693.794 440.02 692.853 441.044 692.701C443.776 692.316 446.503 691.879 449.226 691.414C450.247 691.237 451.212 691.922 451.389 692.942C451.566 693.963 450.882 694.928 449.861 695.106C447.111 695.573 444.359 696.014 441.588 696.417C441.05 696.496 440.55 696.343 440.166 696.042L440.151 696.03ZM466.761 690.997C466.436 690.742 466.192 690.384 466.1 689.954C465.87 688.94 466.484 687.943 467.495 687.687C471.12 686.833 474.776 685.908 478.332 684.928C479.328 684.661 480.374 685.242 480.642 686.238C480.91 687.235 480.329 688.281 479.332 688.549C475.724 689.535 472.03 690.477 468.367 691.349C467.783 691.487 467.204 691.344 466.776 691.008L466.761 690.997ZM499.111 681.404C498.845 681.196 498.623 680.902 498.502 680.569C498.143 679.597 498.654 678.52 499.626 678.161C507.231 675.421 514.78 672.326 522.03 668.974C522.966 668.54 524.098 668.95 524.521 669.901C524.956 670.837 524.557 671.955 523.594 672.392C516.242 675.784 508.591 678.917 500.884 681.697C500.256 681.92 499.587 681.801 499.085 681.407L499.111 681.404ZM530.114 668.087C529.907 667.925 529.72 667.707 529.598 667.468C529.137 666.535 529.51 665.421 530.428 664.948C535.97 662.164 541.471 659.158 546.754 656.005C547.651 655.468 548.797 655.77 549.319 656.655C549.841 657.541 549.553 658.698 548.668 659.22C543.294 662.398 537.732 665.452 532.102 668.286C531.435 668.621 530.66 668.515 530.099 668.075L530.114 668.087ZM556.119 653.117C555.956 652.99 555.832 652.845 555.704 652.673C555.144 651.806 555.39 650.64 556.243 650.069C559.797 647.753 563.324 645.321 566.739 642.848C569.292 640.988 571.875 639.031 574.401 637.054C575.218 636.407 576.397 636.545 577.044 637.362C577.691 638.178 577.553 639.358 576.737 640.005C574.176 642.026 571.556 644.001 568.953 645.894C565.488 648.399 561.912 650.864 558.323 653.224C557.631 653.682 556.754 653.615 556.134 653.129L556.119 653.117Z" fill="url(#paint2_linear_930_6654)"/>
<path d="M586.774 629.593C586.685 629.523 586.597 629.454 586.534 629.381C585.853 628.609 585.896 627.427 586.68 626.731C589.439 624.245 592.173 621.668 594.825 619.074C595.564 618.343 596.754 618.346 597.474 619.1C598.205 619.84 598.187 621.018 597.448 621.749C594.773 624.372 592.004 626.993 589.196 629.512C588.511 630.143 587.483 630.148 586.789 629.604L586.774 629.593ZM610.297 605.41C610.297 605.41 610.253 605.375 610.238 605.364C609.449 604.698 609.358 603.506 610.024 602.717C612.341 600.004 614.633 597.2 616.831 594.394C619.585 590.88 622.297 587.237 624.847 583.586C625.439 582.739 626.618 582.543 627.465 583.135C628.323 583.712 628.52 584.891 627.916 585.753C625.305 589.451 622.573 593.15 619.773 596.723C617.54 599.573 615.225 602.407 612.873 605.164C612.219 605.939 611.083 606.05 610.286 605.425L610.297 605.41ZM630.481 578.372C629.728 577.782 629.53 576.697 630.057 575.871C633.424 570.692 636.66 565.315 639.653 559.914C640.156 558.998 641.293 558.673 642.209 559.176C643.111 559.668 643.451 560.816 642.947 561.732C639.911 567.219 636.644 572.667 633.219 577.92C632.657 578.79 631.484 579.039 630.626 578.462C630.581 578.427 630.537 578.392 630.493 578.358L630.481 578.372ZM645.375 552.337C644.695 551.805 644.457 550.832 644.853 550.022C648.173 543.352 651.241 536.485 653.949 529.622C654.326 528.654 655.417 528.174 656.374 528.566C657.341 528.943 657.81 530.049 657.43 530.99C654.682 537.965 651.585 544.929 648.21 551.699C647.748 552.624 646.618 553.002 645.693 552.539C645.578 552.473 645.463 552.407 645.375 552.337ZM662.381 508.701C661.805 508.25 661.522 507.456 661.725 506.709C662.58 503.733 663.387 500.695 664.122 497.719C664.361 496.715 665.395 496.095 666.388 496.348C667.407 496.599 668.012 497.621 667.758 498.614C667.015 501.631 666.2 504.71 665.325 507.742C665.045 508.738 664.005 509.306 663.009 509.026C662.774 508.961 662.558 508.84 662.367 508.689L662.381 508.701ZM668.579 481.263C668.062 480.858 667.765 480.172 667.881 479.477C668.491 475.808 669.016 472.096 669.439 468.423C669.555 467.394 670.494 466.652 671.512 466.782C672.541 466.898 673.283 467.837 673.168 468.866C672.725 472.595 672.195 476.374 671.579 480.11C671.423 481.131 670.451 481.824 669.415 481.656C669.101 481.6 668.804 481.463 668.567 481.278L668.579 481.263ZM671.69 447.665C671.247 447.318 670.966 446.764 670.972 446.148C671.127 438.072 670.849 429.941 670.123 421.984C670.025 420.954 670.795 420.032 671.814 419.948C672.844 419.85 673.766 420.62 673.85 421.639C674.576 429.715 674.871 437.978 674.72 446.201C674.698 447.233 673.836 448.059 672.804 448.037C672.377 448.036 671.997 447.881 671.687 447.638L671.69 447.665ZM669.793 413.98C669.424 413.69 669.159 413.268 669.084 412.756L668.84 410.968C668.073 405.529 667.076 399.957 665.883 394.423C665.668 393.42 666.308 392.42 667.322 392.19C668.325 391.975 669.325 392.615 669.555 393.63C670.757 399.243 671.764 404.894 672.555 410.424L672.802 412.238C672.942 413.277 672.213 414.207 671.2 414.343C670.674 414.407 670.174 414.254 669.79 413.953L669.793 413.98ZM663.975 384.539C663.665 384.296 663.436 383.949 663.317 383.523C661.509 376.553 659.338 369.347 656.868 362.096C656.536 361.121 657.061 360.055 658.036 359.723C659.012 359.391 660.078 359.916 660.41 360.891C662.916 368.217 665.111 375.514 666.944 382.575C667.2 383.586 666.601 384.594 665.604 384.862C665.008 385.015 664.43 384.871 663.986 384.524L663.975 384.539Z" fill="url(#paint3_linear_930_6654)"/>
<path d="M604.822 232.847C604.586 232.662 604.41 232.43 604.27 232.153C602.987 229.288 601.704 226.424 600.47 223.527C600.074 222.573 600.502 221.479 601.453 221.056C602.392 220.648 603.502 221.088 603.924 222.039C605.155 224.909 606.408 227.751 607.688 230.589C608.111 231.54 607.697 232.645 606.746 233.068C606.087 233.362 605.339 233.252 604.807 232.836L604.822 232.847ZM593.999 206.874C593.733 206.665 593.525 206.383 593.405 206.051C592.062 202.472 590.771 198.887 589.573 195.398C589.241 194.422 589.766 193.356 590.741 193.024C591.716 192.692 592.782 193.217 593.115 194.193C594.295 197.644 595.568 201.191 596.919 204.729C597.278 205.701 596.793 206.775 595.836 207.145C595.197 207.383 594.513 207.252 594.011 206.859L593.999 206.874ZM583.632 174.751C583.322 174.508 583.093 174.162 582.978 173.761C580.83 165.644 579.087 157.557 577.806 149.761C577.629 148.74 578.34 147.772 579.349 147.609C580.37 147.432 581.35 148.128 581.501 149.152C582.768 156.843 584.481 164.786 586.604 172.814C586.872 173.81 586.276 174.844 585.265 175.101C584.669 175.253 584.064 175.113 583.621 174.766L583.632 174.751ZM577.156 141.649C576.772 141.348 576.518 140.911 576.443 140.399C575.658 134.04 575.169 127.698 574.969 121.535C574.938 120.51 575.74 119.638 576.777 119.592C577.802 119.561 578.675 120.364 578.721 121.401C578.92 127.443 579.411 133.691 580.18 139.918C580.304 140.946 579.575 141.876 578.548 142.001C578.022 142.065 577.548 141.908 577.164 141.607L577.156 141.649ZM575.645 111.698C575.188 111.34 574.907 110.786 574.927 110.182C575.122 102.541 575.801 94.9222 576.936 87.5416C577.093 86.5203 578.05 85.8162 579.071 85.9729C580.092 86.1296 580.796 87.0864 580.64 88.1077C579.538 95.3238 578.881 102.793 578.681 110.287C578.66 111.319 577.798 112.145 576.751 112.112C576.335 112.096 575.944 111.956 575.634 111.713L575.645 111.698Z" fill="url(#paint4_linear_930_6654)"/>
<path d="M191.928 552.879C190.112 551.456 188.666 549.56 187.844 547.415C185.428 541.16 187.67 533.98 193.548 529.124C194.202 528.563 198.434 526.66 202.891 527.816C205.485 528.49 209.009 530.441 211.069 535.964C213.665 542.931 210.913 550.976 204.79 554.258C201.891 555.799 198.546 555.991 195.37 554.813C194.138 554.348 192.962 553.689 191.928 552.879ZM195.861 532.103C192.369 535.04 189.159 540.414 191.355 546.067C192.285 548.439 194.259 550.391 196.694 551.299C198.861 552.091 201.119 551.977 203.04 550.956C207.557 548.537 209.541 542.537 207.581 537.282C206.472 534.317 204.801 532.435 202.607 531.645C199.646 530.588 196.525 531.742 195.872 532.089L195.861 532.103Z" fill="url(#paint5_linear_930_6654)"/>
<path d="M218.939 558.1C217.226 556.758 214.163 553.762 212.881 548.706C211.945 545.065 212.13 541.087 213.439 537.226C213.717 535.776 214.097 534.501 214.61 533.329C216.638 528.459 220.846 525.583 225.592 525.823C229.652 526.025 233.551 528.531 235.787 532.309C237.778 535.729 238.618 539.89 238.374 545.037C238.142 549.956 236.304 554.188 233.209 556.983L232.765 557.397C230.579 559.427 226.913 562.798 220.134 558.917C220.134 558.917 220.119 558.905 220.105 558.894C219.96 558.805 219.527 558.536 218.951 558.085L218.939 558.1ZM230.111 531.461C228.708 530.362 227.049 529.681 225.381 529.59C221.655 529.387 219.145 532.164 218.05 534.809C217.632 535.769 217.32 536.835 217.081 538.054C217.064 538.136 217.036 538.233 217.019 538.315C215.912 541.523 215.745 544.777 216.508 547.758C217.899 553.162 221.811 555.56 222.012 555.669C226.391 558.171 228.171 556.539 230.211 554.634L230.693 554.201C233.707 551.51 234.494 547.646 234.613 544.879C234.826 540.47 234.149 536.984 232.53 534.214C231.904 533.128 231.056 532.202 230.111 531.461Z" fill="url(#paint6_linear_930_6654)"/>
<path d="M242.857 569.191C239.032 566.195 237.641 561.339 237.148 558.379C236.328 553.494 236.988 548.697 239.009 544.87C239.314 544.298 239.66 543.735 240.021 543.184C240.529 542.2 241.272 541.161 242.151 540.253C245.741 536.583 251.266 534.763 256.924 535.359C262.485 535.927 266.969 539.178 268.304 543.68C269.702 548.374 268.014 553.296 266.677 557.253C264.746 563.033 262.029 566.958 258.366 569.26C254.22 571.875 249.438 572.442 245.522 570.779C244.521 570.352 243.628 569.819 242.845 569.206L242.857 569.191ZM262.282 541.297C260.598 539.978 258.403 539.282 256.537 539.108C252.003 538.629 247.619 540.057 244.838 542.906C244.22 543.543 243.694 544.275 243.26 545.102C242.868 545.725 242.577 546.188 242.327 546.659C240.705 549.702 240.169 553.763 240.857 557.782C241.331 560.584 242.761 565.542 247.016 567.35C249.78 568.538 253.291 568.072 256.38 566.107C259.274 564.299 261.482 561.024 263.129 556.094C264.373 552.469 265.758 548.358 264.711 544.797C264.28 543.34 263.381 542.206 262.288 541.35L262.282 541.297Z" fill="url(#paint7_linear_930_6654)"/>
<path d="M167.87 554.598C166.157 553.255 164.855 551.449 164.196 549.431C163.177 546.321 163.393 543.034 164.796 540.392C164.917 540.177 165.006 540.032 165.11 539.899L165.18 539.811C165.707 538.317 166.552 537.025 167.672 535.9C170.056 533.526 173.307 532.45 176.573 532.936C179.906 533.426 182.747 535.58 184.33 538.823C187.405 545.117 185.097 552.961 179.27 555.927C176.626 557.263 173.468 557.339 170.555 556.129C169.584 555.726 168.691 555.193 167.878 554.557L167.87 554.598ZM178.903 537.931C178.061 537.272 177.072 536.83 175.998 536.68C173.915 536.358 171.836 537.065 170.298 538.601C169.535 539.362 168.973 540.232 168.628 541.249C168.589 541.361 168.537 541.488 168.471 541.603C168.382 541.747 168.292 541.892 168.203 542.036L168.052 542.228C167.188 543.91 167.058 546.144 167.771 548.276C168.406 550.203 169.969 551.857 171.997 552.707C173.883 553.494 175.91 553.461 177.572 552.618C182.026 550.341 182.922 544.512 180.965 540.5C180.447 539.427 179.741 538.564 178.929 537.928L178.903 537.931Z" fill="url(#paint8_linear_930_6654)"/>
<path d="M267.586 597.98C266.227 596.916 264.99 595.636 263.888 594.153C259.655 588.453 258.04 580.324 259.685 572.962C262.216 561.55 271.696 552.796 283.283 551.149C286.94 550.344 290.706 550.435 294.206 551.413C299.586 552.912 303.731 556.351 306.193 561.33C309.05 567.144 309.215 574.447 306.602 580.884C302.103 592.04 290.674 602.795 277.549 601.782C273.813 601.501 270.448 600.199 267.612 597.977L267.586 597.98ZM298.58 557.724C297.029 556.509 295.221 555.593 293.187 555.025C290.27 554.216 287.093 554.134 284.023 554.827C283.971 554.834 283.918 554.84 283.88 554.858C273.812 556.24 265.567 563.842 263.365 573.771C261.983 580.006 263.368 587.12 266.93 591.913C268.831 594.475 272.259 597.614 277.856 598.043C289.067 598.914 299.238 589.128 303.131 579.475C305.34 574.008 305.222 567.862 302.826 562.982C301.779 560.85 300.349 559.086 298.591 557.709L298.58 557.724Z" fill="url(#paint9_linear_930_6654)"/>
<path d="M95.5617 769.833C87.5873 763.585 81.3448 754.761 78.0245 744.58C73.2609 729.885 74.6242 712.601 81.7874 697.193C86.6907 686.616 93.9654 677.3 101.012 668.307C108.556 658.679 116.325 648.702 120.963 637.369C123.559 631.014 125.232 624.102 126.852 617.411C129.279 607.348 131.796 596.927 137.513 587.988C146.039 574.673 161.872 565.295 179.891 562.92C194.621 560.972 211.223 563.327 229.263 569.93C238.901 573.477 252.727 579.496 261.52 591.057C272.014 604.857 273.104 624.729 264.14 639.394C259.747 646.582 252.848 652.497 244.682 656.014C244.633 656.047 244.569 656.068 244.516 656.074C244.516 656.074 244.364 656.146 244.262 656.185C240.821 657.779 237.138 658.921 233.414 659.506C225.694 660.751 217.651 659.883 209.851 659.039C198.502 657.797 187.778 656.64 178.577 661.752C169.74 666.674 163.615 677.533 162.197 690.841C161.33 699.004 162.037 707.47 162.735 715.644C163.043 719.388 163.378 723.25 163.548 727.078C164.278 742.998 161.76 754.515 155.652 763.314C146.518 776.463 127.986 782.654 111.564 778.033C105.781 776.41 100.346 773.582 95.5469 769.821L95.5617 769.833ZM250.456 585.224C244.726 580.735 237.365 576.898 227.965 573.442C210.499 567.049 194.493 564.756 180.368 566.631C163.44 568.859 148.6 577.609 140.657 589.999C135.262 598.404 132.934 608.067 130.486 618.28C128.829 625.109 127.134 632.17 124.435 638.778C119.588 650.591 111.642 660.763 103.962 670.595C97.0429 679.426 89.9218 688.575 85.1845 698.758C78.4258 713.316 77.1139 729.591 81.596 743.399C86.4411 758.325 98.6214 770.49 112.593 774.407C127.535 778.607 144.338 773.04 152.598 761.159C158.218 753.074 160.517 742.292 159.826 727.235C159.653 723.501 159.333 719.652 159.017 715.948C158.311 707.602 157.582 698.951 158.486 690.436C160.051 675.694 166.722 664.047 176.774 658.457C187.016 652.777 198.837 654.055 210.265 655.287C217.794 656.111 225.594 656.954 232.828 655.782C236.21 655.238 239.572 654.202 242.797 652.702C242.937 652.645 243.013 652.609 243.077 652.587C243.089 652.573 243.115 652.57 243.141 652.566C250.621 649.347 256.931 643.971 260.92 637.42C269.091 624.04 268.093 605.908 258.519 593.306C256.306 590.38 253.616 587.7 250.456 585.224Z" fill="url(#paint10_linear_930_6654)"/>
<path d="M233.507 644.542C233.359 644.426 233.22 644.269 233.107 644.109C232.536 643.257 232.767 642.079 233.62 641.508C240.057 637.186 246.719 632.729 251.45 626.569C256.537 619.925 258.307 612.16 256.197 605.788C255.877 604.798 256.402 603.732 257.392 603.411C258.367 603.079 259.433 603.604 259.769 604.606C262.289 612.158 260.289 621.22 254.453 628.85C249.355 635.509 242.126 640.356 235.734 644.619C235.042 645.077 234.153 645.025 233.533 644.539L233.507 644.542Z" fill="url(#paint11_linear_930_6654)"/>
<path d="M227.338 640.83C227.043 640.599 226.832 640.291 226.705 639.905C226.399 638.927 226.95 637.857 227.944 637.563C232.696 636.091 237.032 633.173 240.19 629.355C240.841 628.554 242.018 628.452 242.819 629.103C243.619 629.754 243.737 630.942 243.06 631.746C239.447 636.113 234.468 639.457 229.047 641.144C228.442 641.338 227.796 641.189 227.338 640.83Z" fill="url(#paint12_linear_930_6654)"/>
<path d="M86.0037 744.283C85.7969 744.121 85.6397 743.926 85.5171 743.687C79.8391 733.018 80.0176 719.406 85.9569 708.997C86.4752 708.092 87.6149 707.794 88.5049 708.3C89.4064 708.792 89.7083 709.958 89.2017 710.848C83.8784 720.167 83.7295 732.372 88.8044 741.925C89.2882 742.829 88.9452 743.966 88.0302 744.465C87.351 744.814 86.5533 744.738 85.9773 744.286L86.0037 744.283Z" fill="url(#paint13_linear_930_6654)"/>
<path d="M92.5528 741.979C92.3756 741.84 92.2215 741.672 92.1021 741.459C88.6149 735.629 87.7789 728.3 89.8997 721.883C90.2208 720.895 91.2791 720.365 92.2668 720.687C93.2546 721.008 93.7839 722.066 93.4628 723.054C91.6862 728.454 92.3816 734.624 95.3291 739.531C95.8656 740.428 95.5637 741.574 94.6782 742.095C93.9939 742.513 93.155 742.427 92.5643 741.964L92.5528 741.979Z" fill="url(#paint14_linear_930_6654)"/>
<path d="M317.771 447.33C298.632 432.335 289.591 404.969 296.644 381.823C300.095 370.513 306.808 360.638 313.277 351.074C318.719 343.064 324.328 334.779 327.888 325.795C330.917 318.158 332.541 309.849 334.115 301.787C335.828 293 337.611 283.911 341.223 275.468C349.481 256.198 367.379 241.598 387.964 237.349C390.505 236.814 393.199 236.447 395.966 236.231C404.691 235.56 413.824 236.71 422.347 239.55C426.966 240.834 431.707 242.57 436.425 244.67C454.895 252.945 468.524 265.603 474.803 280.342C482.385 298.103 477.938 319.382 464.466 329.824C455.66 336.652 444.37 338.65 433.473 340.574C421.791 342.647 410.75 344.602 402.72 351.99C391.407 362.384 390.318 380.168 390.768 396.203L390.787 396.909C391.22 413.026 391.727 431.298 381.388 444.433C374.816 452.821 363.991 458.21 352.445 458.863C341.958 459.441 330.861 456.204 321.18 449.763C320.003 448.983 318.846 448.148 317.738 447.281L317.771 447.33ZM300.239 382.924C293.243 405.875 303.145 433.297 323.279 446.688C332.291 452.677 342.585 455.69 352.249 455.159C362.735 454.581 372.528 449.717 378.452 442.156C387.958 430.085 387.51 413.289 387.05 397.055L387.031 396.349C386.573 379.474 387.78 360.686 400.199 349.276C409.048 341.147 421.147 338.997 432.829 336.924C443.294 335.066 454.113 333.151 462.186 326.893C474.365 317.464 478.294 298.092 471.364 281.842C465.446 267.981 452.499 256.002 434.907 248.128C430.33 246.092 425.745 244.43 421.291 243.18C421.235 243.16 421.179 243.14 421.138 243.131C413.088 240.447 404.472 239.368 396.251 240.005C393.642 240.202 391.12 240.561 388.734 241.051C369.337 245.062 352.458 258.817 344.681 276.986C341.223 285.049 339.497 293.945 337.814 302.541C336.218 310.753 334.549 319.24 331.386 327.201C327.672 336.565 321.936 345.012 316.393 353.181C310.067 362.501 303.528 372.155 300.25 382.909L300.239 382.924Z" fill="url(#paint15_linear_930_6654)"/>
<path d="M379.46 231.469C378.633 230.821 377.887 230.07 377.289 229.22C375.135 226.221 374.613 222.142 375.916 218.563C377.256 214.966 380.587 212.237 384.622 211.466C384.988 211.395 385.386 211.374 385.82 211.428C387.92 211.333 390.049 211.81 391.841 212.808C395.15 214.638 397.334 217.661 397.817 221.09C398.263 224.323 397.205 227.832 395.041 230.26C392.605 232.974 389.289 234.285 385.667 233.95C383.438 233.753 381.243 232.843 379.457 231.443L379.46 231.469ZM391.255 216.902C390.871 216.601 390.464 216.33 390.034 216.088C388.802 215.409 387.334 215.093 385.861 215.178C385.715 215.182 385.568 215.187 385.419 215.165C382.582 215.683 380.314 217.481 379.442 219.872C378.546 222.293 378.894 225.044 380.338 227.033C381.625 228.828 383.805 230.06 386.02 230.246C388.424 230.461 390.631 229.592 392.256 227.791C393.679 226.189 394.413 223.761 394.116 221.646C393.854 219.82 392.838 218.166 391.258 216.928L391.255 216.902Z" fill="url(#paint16_linear_930_6654)"/>
<path d="M405.028 232.056C402.133 229.788 400.128 226.143 399.777 222.484C399.319 218.05 401.079 213.613 404.482 210.608C406.386 208.452 408.974 207.096 411.772 206.81C415.346 206.416 418.732 207.782 421.087 210.557C423.664 213.625 424.094 217.608 424.121 219.703C424.2 223.435 423.298 226.685 421.441 229.329C419.607 231.944 416.727 233.763 413.522 234.326C410.617 234.839 407.638 234.078 405.149 232.175C405.105 232.14 405.061 232.105 405.016 232.071L405.028 232.056ZM417.154 211.956C415.751 210.857 413.991 210.336 412.159 210.545C410.259 210.748 408.502 211.683 407.213 213.176C407.155 213.25 407.109 213.309 407.021 213.36C404.483 215.565 403.156 218.84 403.485 222.101C403.747 224.808 405.296 227.547 407.416 229.16C408.579 230.048 410.488 231.019 412.883 230.608C415.068 230.223 417.118 228.945 418.357 227.151C419.746 225.165 420.418 222.665 420.356 219.732C420.305 216.999 419.524 214.528 418.195 212.939C417.869 212.564 417.52 212.219 417.136 211.918L417.154 211.956Z" fill="url(#paint17_linear_930_6654)"/>
<path d="M431.288 235.134C429.117 233.433 427.54 231.005 426.878 228.199C426.689 227.407 426.578 226.605 426.543 225.767C426.458 225.176 426.431 224.511 426.474 223.878C426.612 220.387 428.423 216.706 431.816 212.954C432.88 211.809 433.917 210.881 434.976 210.138C435.453 209.773 436.931 208.738 438.133 208.512C439.569 208.017 440.95 207.836 442.34 207.948C446.129 208.223 449.6 211.062 450.977 215.024C452.35 218.96 451.481 222.928 450.551 225.94C449.186 230.329 447.207 233.402 444.487 235.322C441.168 237.703 436.947 238.162 433.5 236.509C432.705 236.124 431.967 235.666 431.288 235.134ZM438.806 212.185C438.435 212.324 437.526 212.875 437.271 213.08C437.247 213.11 437.16 213.16 437.125 213.205C436.287 213.787 435.445 214.558 434.582 215.478C431.788 218.556 430.323 221.46 430.209 224.04C430.209 224.04 430.209 224.04 430.197 224.054C430.166 224.459 430.194 224.91 430.258 225.437C430.295 226.181 430.362 226.734 430.508 227.277C431.129 229.861 432.803 231.983 435.129 233.09C437.329 234.146 440.083 233.826 442.308 232.233C444.324 230.785 445.846 228.355 446.965 224.799C447.77 222.189 448.439 219.114 447.435 216.229C446.553 213.704 444.334 211.822 442.056 211.657C441.138 211.582 440.208 211.735 439.221 212.082C439.092 212.124 438.949 212.155 438.806 212.185Z" fill="url(#paint18_linear_930_6654)"/>
<path d="M455.429 246.116C454.839 245.653 454.283 245.146 453.747 244.583C451.196 241.846 449.928 238.111 450.171 234.059C450.617 225.399 460.678 217.577 466.99 216.731C467.069 216.721 467.148 216.711 467.215 216.717C471.299 216.675 474.974 218.434 477.05 221.443C479.485 224.996 479.354 229.087 478.799 231.894C477.412 239.292 472.943 247.612 464.583 248.76C461.377 249.203 458.135 248.26 455.418 246.131L455.429 246.116ZM467.376 220.465C462.482 221.206 454.246 227.885 453.909 234.247C453.728 237.276 454.65 240.023 456.481 242.006C458.628 244.284 461.397 245.405 464.077 245.026C470.479 244.156 473.975 237.29 475.118 231.178C475.515 229.059 475.654 226.022 473.965 223.554C472.621 221.619 470.154 220.449 467.376 220.465Z" fill="url(#paint19_linear_930_6654)"/>
<path d="M479.604 277.5C477.388 275.764 475.599 273.576 474.269 270.984C470.691 263.962 471.708 256.155 472.095 254.504C472.358 252.922 472.77 251.362 473.335 249.851C475.886 243.127 481.551 238.056 488.896 235.922C493.883 233.967 499.383 233.7 504.67 235.197C510.746 236.931 515.611 241.005 518.358 246.684C521.422 252.994 521.595 260.804 518.81 267.583C513.782 279.779 500.227 285.46 486.564 281.118C483.895 280.266 481.571 279.065 479.592 277.514L479.604 277.5ZM476.861 251.16C476.379 252.474 476.021 253.814 475.8 255.191C475.786 255.299 475.77 255.381 475.715 255.482C475.69 255.605 472.499 272.696 487.705 277.532C499.463 281.263 511.082 276.472 515.346 266.132C517.717 260.339 517.602 253.671 514.987 248.31C513.38 244.977 510.087 240.633 503.637 238.796C499.152 237.523 494.464 237.758 490.101 239.464C483.738 241.318 478.976 245.571 476.849 251.175L476.861 251.16Z" fill="url(#paint20_linear_930_6654)"/>
<path d="M270.505 460.201C270.195 459.958 269.87 459.703 269.542 459.422C261.319 452.336 256.735 441.213 257.58 430.339C257.309 422.929 259.036 415.798 262.61 409.684C264.686 406.092 267.02 403.63 269.715 402.167C273.337 400.191 277.645 400.229 280.672 402.267C285.127 405.281 285.661 411.443 285.955 414.748C286.982 426.517 287.995 438.274 289.023 450.042C289.354 453.877 289.468 457.899 286.868 460.914C284.748 463.376 281.175 464.438 277.558 463.701C275.23 463.235 272.901 462.101 270.479 460.204L270.505 460.201ZM278.883 405.585C278.794 405.515 278.691 405.434 278.587 405.353C276.449 403.916 273.497 404.367 271.515 405.437C269.435 406.571 267.591 408.559 265.855 411.536C262.638 417.071 261.071 423.542 261.338 430.257C261.348 430.336 261.343 430.404 261.326 430.486C260.543 440.216 264.614 450.198 271.971 456.535C274.223 458.466 276.297 459.591 278.282 459.978C280.554 460.424 282.793 459.818 284.012 458.414C285.651 456.505 285.526 453.38 285.275 450.323C284.248 438.555 283.22 426.786 282.207 415.03C281.893 411.446 281.346 407.491 278.865 405.547L278.883 405.585Z" fill="url(#paint21_linear_930_6654)"/>
<path d="M269.185 485.547C267.797 484.46 266.754 483.023 266.199 481.42C265.414 479.136 265.668 476.5 266.925 474.196C267.961 472.266 269.587 470.799 271.483 470.021C271.749 469.682 272.134 469.434 272.563 469.342C276.858 468.393 281.602 470.704 283.385 474.603C284.389 476.82 284.43 479.474 283.456 481.904C282.489 484.293 280.66 486.172 278.442 487.056C276.212 487.955 273.565 487.835 271.19 486.761C270.469 486.434 269.791 486.022 269.185 485.547ZM274.278 472.902C274.061 473.089 273.798 473.241 273.512 473.303C272.176 473.639 270.985 474.612 270.231 475.999C269.489 477.372 269.314 478.904 269.767 480.212C270.223 481.546 271.31 482.684 272.767 483.349C274.209 484.002 275.772 484.106 277.044 483.578C278.319 483.076 279.386 481.957 279.972 480.51C280.555 479.036 280.551 477.46 279.966 476.168C279.037 474.129 276.615 472.779 274.29 472.888L274.278 472.902Z" fill="url(#paint22_linear_930_6654)"/>
<path d="M293.081 485.132C289.876 482.621 287.728 478.793 287.563 474.684C287.422 471.427 288.51 468.061 290.623 465.212C291.307 464.127 292.237 463.092 293.347 462.223C293.347 462.223 293.557 462.077 293.568 462.062C293.667 461.997 293.778 461.916 293.877 461.851C298.779 458.423 306.083 458.926 310.822 463.068C315.516 467.175 317.043 474.473 314.419 480.044C311.74 485.714 305.102 489.045 298.954 487.827C296.805 487.406 294.791 486.448 293.092 485.118L293.081 485.132ZM307.946 465.582C304.52 462.898 299.366 462.601 295.965 464.965C295.732 465.14 295.633 465.206 295.523 465.286C294.889 465.79 294.228 466.512 293.701 467.338C292.004 469.655 291.179 472.107 291.286 474.526C291.487 479.045 295.154 483.277 299.632 484.164C304.056 485.056 309.044 482.553 310.981 478.47C312.925 474.345 311.778 468.965 308.307 465.912C308.174 465.808 308.041 465.704 307.908 465.6L307.946 465.582Z" fill="url(#paint23_linear_930_6654)"/>
<path d="M447.448 328.329C447.271 328.19 447.117 328.022 447.001 327.836C446.453 326.953 446.74 325.796 447.637 325.259C453.982 321.389 459.027 315.498 461.855 308.634C464.684 301.77 465.249 293.99 463.488 286.748C463.247 285.748 463.858 284.725 464.857 284.483C465.857 284.242 466.88 284.853 467.121 285.852C469.084 293.872 468.456 302.461 465.315 310.058C462.201 317.652 456.607 324.184 449.589 328.457C448.904 328.874 448.054 328.804 447.448 328.329Z" fill="url(#paint24_linear_930_6654)"/>
<path d="M440.904 322.659C440.579 322.405 440.336 322.047 440.243 321.617C440.002 320.617 440.627 319.606 441.638 319.35C445.561 318.419 449.099 315.972 451.313 312.63C451.89 311.771 453.051 311.537 453.909 312.114C454.78 312.677 455.002 313.852 454.425 314.711C451.681 318.853 447.316 321.868 442.484 323.015C441.9 323.153 441.321 323.01 440.893 322.674L440.904 322.659Z" fill="url(#paint25_linear_930_6654)"/>
<path d="M494.747 275.3C494.408 275.034 494.175 274.661 494.068 274.22C493.853 273.217 494.493 272.217 495.508 271.987C504.22 270.114 511.294 262.334 512.332 253.495C512.448 252.465 513.387 251.723 514.405 251.854C515.435 251.969 516.177 252.908 516.046 253.926C514.821 264.311 506.522 273.443 496.301 275.659C495.728 275.782 495.176 275.635 494.747 275.3Z" fill="url(#paint26_linear_930_6654)"/>
<path d="M493.85 270.57C493.687 270.442 493.548 270.286 493.432 270.099C492.872 269.232 493.118 268.066 493.986 267.506L502.166 262.237C503.033 261.678 504.199 261.924 504.759 262.791C505.318 263.659 505.072 264.824 504.205 265.384L496.025 270.653C495.344 271.097 494.467 271.029 493.862 270.555L493.85 270.57Z" fill="url(#paint27_linear_930_6654)"/>
<path d="M314.072 428.507C313.954 428.414 313.833 428.295 313.738 428.173C302.812 413.798 299.778 393.641 305.983 376.838C306.346 375.859 307.422 375.368 308.401 375.73C309.366 376.08 309.872 377.168 309.51 378.148C303.723 393.776 306.547 412.529 316.724 425.913C317.345 426.733 317.181 427.916 316.361 428.536C315.663 429.062 314.725 429.042 314.06 428.522L314.072 428.507Z" fill="url(#paint28_linear_930_6654)"/>
<path d="M319.454 427.295C319.277 427.156 319.108 426.976 318.989 426.763C315.896 421.433 313.945 415.376 313.361 409.246C313.263 408.216 314.007 407.297 315.037 407.199C316.067 407.1 316.975 407.859 317.073 408.889C317.604 414.477 319.398 420.006 322.222 424.888C322.732 425.788 322.43 426.934 321.545 427.455C320.857 427.846 320.033 427.773 319.442 427.31L319.454 427.295Z" fill="url(#paint29_linear_930_6654)"/>
<path d="M471.815 604.94C469.201 602.892 467.468 600.176 466.854 597.097C466.187 593.69 467.235 589.888 469.669 586.933C472.659 583.27 477.11 581.3 482.883 581.08C487.355 580.27 491.872 581.593 494.989 584.702C497.738 587.428 499.205 591.032 499.112 594.892C499.016 598.725 497.399 602.249 494.542 604.801C488.999 609.777 479.776 609.533 474.077 606.403C473.261 605.954 472.521 605.469 471.827 604.925L471.815 604.94ZM491.54 586.671C489.324 584.935 486.367 584.239 483.443 584.807C483.352 584.832 483.247 584.844 483.153 584.842C478.44 584.987 474.884 586.514 472.58 589.333C470.858 591.439 470.096 594.084 470.551 596.394C471.1 599.161 473.008 601.561 475.887 603.15C480.339 605.589 487.802 605.859 492.056 602.042C494.129 600.187 495.313 597.612 495.376 594.824C495.45 592.023 494.38 589.373 492.361 587.386C492.104 587.137 491.835 586.902 491.554 586.682L491.54 586.671Z" fill="url(#paint30_linear_930_6654)"/>
<path d="M252.145 775.739C244.835 770.012 239.11 762.261 236.248 753.321C229.522 732.369 239.442 707.967 258.824 697.77C271.059 691.341 285.146 690.7 298.538 690.611L301.582 690.589C313.653 690.514 326.111 690.432 337.321 686.345C345.862 683.17 352.203 675.96 354.407 667.033C355.581 662.28 356.18 657.197 356.205 651.902C356.229 642.411 354.608 632.799 353.037 623.489C352.19 618.487 351.32 613.301 350.711 608.177C348.479 589.459 350.709 575.023 357.557 564.063C367.799 547.706 389.443 539.306 410.203 543.655C428.358 547.465 445.533 560.708 456.13 579.092C466.318 596.751 470.199 617.5 467.082 637.509C463.956 657.558 453.955 676.011 438.918 689.515C426.025 701.102 410.065 708.545 394.623 715.751C381.546 721.855 368.027 728.159 356.556 736.928C349.709 742.169 343.449 748.394 337.419 754.418C333.543 758.269 329.549 762.242 325.405 765.979C312.054 777.969 299.513 784.515 287.052 786.001C274.567 787.516 261.912 783.44 252.121 775.769L252.145 775.739ZM434.137 559.191C426.591 553.278 418.126 549.148 409.431 547.317C390.495 543.348 370.003 551.22 360.736 566.029C354.373 576.249 352.313 589.889 354.436 607.711C355.035 612.756 355.899 617.89 356.729 622.854C358.319 632.322 359.959 642.092 359.932 651.89C359.915 657.478 359.273 662.861 358.04 667.902C355.529 678.042 348.331 686.225 338.754 689.779C326.791 694.158 313.984 694.229 301.594 694.316L298.55 694.338C285.626 694.437 272.054 695.029 260.559 701.061C243.037 710.283 233.738 733.194 239.819 752.139C245.889 771.1 266.89 784.6 286.632 782.217C298.303 780.827 310.186 774.574 322.947 763.123C327.021 759.475 330.978 755.52 334.819 751.713C340.96 745.61 347.289 739.296 354.331 733.898C366.118 724.877 379.828 718.482 393.082 712.303C408.258 705.223 423.965 697.891 436.448 686.675C450.836 673.757 460.422 656.077 463.398 636.887C466.378 617.723 462.654 597.837 452.905 580.927C447.945 572.321 441.485 564.901 434.161 559.162L434.137 559.191Z" fill="url(#paint31_linear_930_6654)"/>
<path d="M445.8 556.411C445.608 556.26 445.416 556.11 445.224 555.959C441.704 552.939 439.81 548.786 439.917 544.27C440.155 535.114 448.105 529.044 455.899 527.096C456.379 526.971 456.867 526.925 457.348 526.92C459.121 526.665 460.87 526.653 462.531 526.906C471.167 528.143 477.571 536.211 476.498 544.547C475.272 554.263 465.864 559.762 457.648 559.997C453.108 560.134 448.919 558.878 445.789 556.425L445.8 556.411ZM468.08 533.208C466.367 531.865 464.289 530.928 462.003 530.591C460.641 530.382 459.226 530.394 457.758 530.625C457.626 530.641 457.506 530.642 457.386 530.644C457.183 530.628 456.999 530.651 456.818 530.699C450.411 532.305 443.865 537.162 443.68 544.334C443.594 547.699 445.04 550.81 447.683 553.095C450.134 555.23 453.649 556.34 457.536 556.216C464.314 556.021 471.865 551.403 472.79 544.048C473.325 539.867 471.373 535.788 468.065 533.196L468.08 533.208Z" fill="url(#paint32_linear_930_6654)"/>
<path d="M461.909 578.469C460.993 577.751 460.226 576.936 459.63 575.993C457.526 572.747 457.179 568.566 458.703 564.827C460.504 560.399 464.157 557.47 469.861 555.909C473.245 554.175 476.935 553.634 480.315 554.4C484.367 555.311 487.51 557.749 489.162 561.237C490.627 564.386 490.603 568.371 489.118 571.879C485.917 579.524 477.54 581.85 470.785 581.467C467.232 581.257 464.15 580.201 461.92 578.454L461.909 578.469ZM462.178 566.262C461.117 568.863 461.345 571.735 462.792 573.965C464.798 577.062 469.184 577.639 470.987 577.741C476.464 578.052 483.185 576.287 485.654 570.429C486.733 567.866 486.778 565.041 485.762 562.839C484.627 560.424 482.392 558.744 479.479 558.082C476.936 557.496 474.077 557.949 471.44 559.339C471.315 559.407 471.186 559.45 471.058 559.492C466.449 560.719 463.565 562.94 462.204 566.259L462.178 566.262Z" fill="url(#paint33_linear_930_6654)"/>
<path d="M477.821 628.331C477.821 628.331 477.718 628.25 477.659 628.204C475.139 626.158 473.841 623.282 473.976 620.098C474.048 617.724 475.148 615.226 476.879 613.412C479.648 610.577 483.618 609.373 488.014 610.029C490.286 610.141 492.318 610.923 493.926 612.278C496.211 614.259 497.509 617.135 497.478 620.186C497.486 623.218 496.085 626.101 493.52 628.31C489.331 631.892 482.328 631.886 477.78 628.323L477.821 628.331ZM491.328 614.985C490.147 614.06 488.767 613.813 487.788 613.785C487.721 613.78 487.653 613.775 487.571 613.758C485.693 613.478 482.167 613.385 479.589 616.036C478.496 617.158 477.786 618.794 477.736 620.257C477.645 622.259 478.445 624.006 480.032 625.296C480.061 625.32 480.106 625.354 480.135 625.377C483.281 627.842 488.271 627.891 491.103 625.463C492.808 623.986 493.756 622.107 493.751 620.197C493.751 620.197 493.751 620.197 493.763 620.182C493.781 618.242 492.957 616.405 491.509 615.151C491.45 615.104 491.39 615.058 491.331 615.012L491.328 614.985Z" fill="url(#paint34_linear_930_6654)"/>
<path d="M404.105 535.95C398.804 531.796 395.664 525.308 395.622 518.244C395.534 506.95 402.158 497.34 414.749 490.426C417.052 488.703 419.354 487.408 421.802 486.443C429.177 483.57 436.803 484.302 442.758 488.443C448.524 492.46 452.362 499.424 452.819 506.598C453.741 521.025 442.479 536.129 427.692 540.249C419.987 542.387 412.208 541.273 405.761 537.152C405.195 536.779 404.64 536.392 404.108 535.976L404.105 535.95ZM441.338 492.05C441.102 491.864 440.865 491.679 440.603 491.497C435.71 488.069 429.361 487.503 423.174 489.925C421.005 490.776 418.954 491.933 416.898 493.493C416.826 493.555 416.75 493.591 416.663 493.641C408.716 497.973 399.29 505.746 399.372 518.203C399.415 524.719 402.574 530.603 407.78 533.967C413.315 537.518 420.017 538.455 426.676 536.618C439.836 532.962 449.865 519.585 449.05 506.815C448.697 501.152 445.694 495.463 441.323 492.038L441.338 492.05Z" fill="url(#paint35_linear_930_6654)"/>
<path d="M273.66 777.537C273.203 777.178 272.918 776.598 272.935 775.968C272.984 774.933 273.875 774.13 274.898 774.193C291.048 775.026 307.499 767.109 316.816 754.032C317.423 753.196 318.587 752.988 319.423 753.595C320.27 754.187 320.466 755.366 319.859 756.201C309.811 770.303 292.083 778.815 274.696 777.919C274.306 777.9 273.926 777.745 273.646 777.525L273.66 777.537Z" fill="url(#paint36_linear_930_6654)"/>
<path d="M272.214 771.352C271.8 771.028 271.529 770.553 271.5 769.982C271.428 768.948 272.227 768.049 273.264 768.004C280.163 767.594 286.961 765.579 292.936 762.182C293.836 761.672 294.97 761.988 295.495 762.9C296.006 763.8 295.689 764.934 294.777 765.459C288.301 769.132 280.948 771.307 273.478 771.746C273 771.777 272.553 771.618 272.214 771.352Z" fill="url(#paint37_linear_930_6654)"/>
<path d="M363.788 577.31C363.213 576.859 362.935 576.118 363.124 575.36C366.582 562.125 377.38 551.447 390.69 548.148C391.701 547.891 392.712 548.517 392.954 549.517C393.21 550.528 392.585 551.539 391.585 551.781C379.78 554.71 369.818 564.565 366.752 576.296C366.487 577.304 365.465 577.909 364.457 577.643C364.196 577.582 363.98 577.461 363.774 577.299L363.788 577.31Z" fill="url(#paint38_linear_930_6654)"/>
<path d="M362.326 600.497C362.03 600.266 361.804 599.946 361.692 599.572C360.259 594.922 360.195 589.771 361.487 585.111C361.767 584.115 362.793 583.536 363.8 583.801C364.796 584.081 365.375 585.107 365.11 586.115C364.005 590.111 364.07 594.499 365.288 598.481C365.582 599.474 365.027 600.517 364.049 600.823C363.444 601.016 362.813 600.879 362.34 600.509L362.326 600.497Z" fill="url(#paint39_linear_930_6654)"/>
<path d="M410.238 508.719C410.238 508.719 410.12 508.627 410.061 508.581C409.33 507.841 409.333 506.651 410.061 505.935C413.779 502.223 417.643 498.386 422.531 495.829C428.25 492.85 434.316 492.407 439.22 494.605C440.168 495.038 440.584 496.15 440.162 497.083C439.729 498.031 438.632 498.458 437.684 498.025C433.911 496.332 428.896 496.74 424.285 499.157C419.898 501.44 416.237 505.078 412.722 508.592C412.043 509.275 410.98 509.324 410.242 508.746L410.238 508.719Z" fill="url(#paint40_linear_930_6654)"/>
<path d="M403.661 524.63C403.351 524.387 403.125 524.067 403.009 523.667C401.882 519.661 402.721 515.123 405.178 511.804C405.799 510.981 406.966 510.799 407.802 511.406L407.846 511.44C408.644 512.065 408.796 513.209 408.201 514.03C406.408 516.439 405.806 519.733 406.626 522.64C406.909 523.648 406.325 524.667 405.331 524.962C404.724 525.129 404.119 524.989 403.661 524.63Z" fill="url(#paint41_linear_930_6654)"/>
<path d="M338.108 798.885C336.676 797.763 335.417 796.419 334.376 794.888C333.954 794.271 333.566 793.61 333.166 792.844C332.277 791.361 331.571 789.616 331.125 787.813C329.681 781.748 331.535 775.335 336.126 770.662C340.702 765.978 347.087 763.973 353.206 765.289C359.711 766.691 365.195 771.25 367.479 777.187C369.7 782.93 368.895 789.736 365.37 794.935C362.031 799.897 356.271 802.868 349.951 802.873C345.541 802.874 341.372 801.442 338.108 798.885ZM359.153 772.117C357.219 770.601 354.908 769.505 352.423 768.965C347.566 767.924 342.485 769.543 338.825 773.301C335.165 777.06 333.658 782.147 334.802 786.952C335.151 788.393 335.719 789.768 336.461 791.04C336.844 791.769 337.163 792.305 337.487 792.773C340.187 796.749 344.832 799.125 349.948 799.105C355.011 799.092 359.616 796.742 362.266 792.813C365.11 788.606 365.77 783.14 363.979 778.52C363.004 775.992 361.321 773.792 359.15 772.091L359.153 772.117Z" fill="url(#paint42_linear_930_6654)"/>
<path d="M282.255 822.901C278.8 820.194 276.546 816.712 275.682 812.674C274.282 806.096 278.002 799.858 284.965 797.116L285.529 796.914L288.288 795.643C291.661 794.045 295.039 792.472 298.427 790.885L299.553 790.361C300.489 789.926 301.445 789.436 302.428 788.943C307.223 786.503 312.659 783.732 318.296 784.812C324.793 786.041 329.979 792.107 330.631 799.243C331.899 813.107 319.991 824.869 308.242 827.818C300.436 829.781 290.802 828.358 284.241 824.29C283.534 823.855 282.875 823.387 282.255 822.901ZM322.052 790.543C320.782 789.548 319.277 788.822 317.58 788.493C313.203 787.662 308.37 790.119 304.102 792.281C303.082 792.792 302.088 793.3 301.114 793.753L299.988 794.277C296.611 795.849 293.222 797.436 289.86 799.02L286.284 800.604C282.318 802.168 278.085 806.049 279.339 811.87C280.16 815.659 282.474 818.759 286.23 821.082C291.883 824.606 300.56 825.851 307.332 824.174C317.587 821.579 327.983 811.445 326.901 799.562C326.599 796.298 324.913 792.761 322.063 790.528L322.052 790.543Z" fill="url(#paint43_linear_930_6654)"/>
<path d="M333.795 820.456C331.638 818.767 330.25 816.249 330.179 813.572C330.146 811.759 330.656 810.013 331.657 808.462C332.561 806 334.519 804.079 336.961 803.275C341.122 801.888 345.637 803.304 347.925 806.741C350.21 810.152 350.255 814.597 348.019 818.088C345.839 821.48 341.455 823.241 337.628 822.316C336.209 821.967 334.902 821.324 333.809 820.468L333.795 820.456ZM343.75 807.689C342.274 806.532 340.131 806.164 338.154 806.831C336.741 807.297 335.624 808.448 335.132 809.898C335.072 810.065 334.998 810.221 334.908 810.366C334.262 811.313 333.927 812.409 333.953 813.502C334.008 815.833 335.962 818.055 338.508 818.668C340.767 819.222 343.554 818.069 344.861 816.066C346.289 813.849 346.251 811.007 344.799 808.844C344.52 808.411 344.152 808.028 343.754 807.715L343.75 807.689Z" fill="url(#paint44_linear_930_6654)"/>
<path d="M513.272 411.105C508.738 407.553 504.857 403.32 501.888 398.562C493.226 384.674 492.645 366.343 500.453 352.941C508.857 338.505 525.022 331.318 537.109 327.846C544.506 325.706 552.192 324.292 559.629 322.921C566.478 321.662 573.562 320.348 580.337 318.484C597.071 313.887 608.899 306.304 615.498 295.935C623.816 282.886 623.469 266.264 623.122 250.191L623.067 247.645C622.755 230.431 624.048 211.138 636.18 198.574C650.391 183.874 674.544 184.47 691.067 192.674C702.19 198.22 712.123 206.836 722.334 219.841C722.334 219.841 722.399 219.94 722.432 219.99C722.432 219.99 722.432 219.99 722.447 220.001C730.289 231.771 734.999 245.137 736.041 258.681C737.999 283.953 727.235 309.768 707.95 326.046C695.452 336.583 680.084 342.965 665.212 349.14C650.81 355.111 635.938 361.285 623.978 371.196C617.591 376.488 611.969 382.903 606.547 389.093C600.209 396.33 593.66 403.806 585.756 409.697C572.745 419.427 556.554 424.092 541.381 422.499C531.08 421.411 521.202 417.318 513.272 411.105ZM505.067 396.573C512.644 408.682 526.692 417.186 541.783 418.762C556.035 420.253 571.23 415.856 583.519 406.681C591.103 401.017 597.537 393.688 603.732 386.602C609.273 380.29 614.988 373.757 621.593 368.278C633.991 358.02 649.144 351.731 663.8 345.65C678.406 339.601 693.505 333.318 705.557 323.17C723.932 307.656 734.19 283.066 732.32 258.959C731.316 246.065 726.815 233.315 719.347 222.101C709.516 209.584 699.998 201.292 689.417 196.028C674.118 188.451 651.855 187.786 638.902 201.184C627.756 212.733 626.522 230.308 626.84 247.574L626.895 250.12C627.257 266.753 627.607 283.949 618.672 297.969C611.542 309.137 598.978 317.264 581.338 322.104C574.407 324.014 567.245 325.338 560.317 326.606C552.985 327.964 545.39 329.353 538.174 331.445C526.747 334.743 511.489 341.473 503.716 354.83C496.593 367.053 497.132 383.825 505.093 396.57L505.067 396.573Z" fill="url(#paint45_linear_930_6654)"/>
<path d="M744.676 286.227C742.638 284.63 741.143 282.554 740.378 280.214C739.311 276.923 739.492 273.467 740.874 270.76C742.601 267.37 745.915 265.057 749.769 264.549C750.063 264.446 750.256 264.383 750.452 264.346C754.097 263.436 757.977 264.141 761.302 266.316C764.074 268.131 766 271.118 766.6 274.519C767.19 277.842 766.428 281.248 764.508 283.82C760.557 289.137 752.498 290.783 746.552 287.483C745.892 287.109 745.267 286.69 744.676 286.227ZM759.238 269.466C756.799 267.865 753.984 267.351 751.313 268.023C751.169 268.054 751.067 268.093 750.977 268.117L750.758 268.184C750.629 268.226 750.512 268.254 750.381 268.27C747.691 268.569 745.383 270.146 744.208 272.467C743.269 274.304 743.173 276.708 743.941 279.074C744.815 281.76 746.838 283.346 748.374 284.215C752.658 286.595 758.662 285.412 761.486 281.594C762.795 279.832 763.313 277.497 762.886 275.184C762.463 272.803 761.129 270.733 759.212 269.47L759.238 269.466Z" fill="url(#paint46_linear_930_6654)"/>
<path d="M726.582 208.177C725.785 207.552 725.045 206.853 724.367 206.107C720.961 202.271 719.692 196.987 721.086 192.287C722.36 187.923 725.999 184.101 730.827 182.045C734.012 180.322 737.845 179.202 741.467 178.989C746.867 178.668 751.968 180.401 755.441 183.694C759.175 187.263 760.885 192.321 759.989 197.267C758.126 207.796 747.591 212.816 738.166 212.343C733.81 212.124 729.739 210.627 726.594 208.162L726.582 208.177ZM751.981 185.678C749.293 183.572 745.611 182.522 741.696 182.743C738.618 182.93 735.34 183.889 732.467 185.427C728.502 187.111 725.652 190.049 724.7 193.332C723.678 196.797 724.634 200.716 727.175 203.588C729.818 206.541 733.889 208.373 738.35 208.579C746.137 208.984 754.804 204.979 756.299 196.592C756.973 192.903 755.681 189.077 752.87 186.398C752.598 186.137 752.299 185.88 752.004 185.648L751.981 185.678Z" fill="url(#paint47_linear_930_6654)"/>
<path d="M746.682 257.844C745.516 256.93 744.514 255.835 743.752 254.618C741.465 250.967 741.182 246.765 743.002 243.377C744.843 239.934 748.351 237.463 752.614 236.585C754.48 236.211 756.507 236.179 758.974 236.468C763.364 236.523 767.032 237.895 769.568 240.407C772.661 243.426 773.976 247.435 773.14 251.118C771.213 259.356 761.591 262.542 753.423 260.861C750.818 260.322 748.513 259.279 746.668 257.832L746.682 257.844ZM766.234 242.442C763.945 240.648 761.008 240.23 758.854 240.211C758.786 240.205 758.719 240.2 758.652 240.195C756.536 239.944 754.855 239.961 753.366 240.249C750.223 240.884 747.645 242.654 746.328 245.125C745.152 247.326 745.397 250.116 746.943 252.614C748.852 255.683 752.3 256.788 754.191 257.173C759.453 258.245 767.95 256.799 769.492 250.238C770.057 247.844 769.104 245.167 766.949 243.05C766.721 242.824 766.482 242.612 766.231 242.416L766.234 242.442Z" fill="url(#paint48_linear_930_6654)"/>
<path d="M739.783 233.156C739.605 233.018 739.428 232.879 739.251 232.74C735.792 229.672 734.445 225.399 735.642 221.285C736.679 217.711 739.785 214.568 743.693 213.078C743.693 213.078 743.693 213.078 743.705 213.064C745.267 212.5 746.986 212.131 748.941 211.947C752.521 211.272 755.834 211.484 758.749 212.601C763.052 214.256 766.248 217.904 767.07 222.147C767.933 226.613 765.942 231.131 762.1 233.388C759.205 235.075 755.323 236.014 750.52 236.183C746.197 236.347 742.474 235.289 739.742 233.148L739.783 233.156ZM745.041 216.59C742.207 217.682 739.988 219.875 739.272 222.341C738.487 225.015 739.418 227.842 741.754 229.911C743.844 231.715 746.742 232.579 750.426 232.439C754.524 232.289 757.929 231.502 760.251 230.151C762.683 228.72 764.003 225.727 763.43 222.87C762.854 219.893 760.549 217.3 757.451 216.112C755.154 215.242 752.515 215.081 749.591 215.65C749.527 215.671 749.459 215.666 749.407 215.672C747.741 215.821 746.32 216.114 745.027 216.578L745.041 216.59Z" fill="url(#paint49_linear_930_6654)"/>
<path d="M682.393 185.495C680.148 183.737 678.26 181.614 676.855 179.179C673.119 172.723 673.389 165.261 677.645 158.156C677.734 158.012 677.87 157.808 677.994 157.619L679.652 158.514L678.005 157.605C679.196 155.416 680.839 153.319 682.911 151.343C688.047 146.096 694.737 142.425 702.207 140.77C707.182 139.257 711.797 138.75 716.174 139.248C724.343 140.168 731.208 144.76 734.54 151.518C737.721 158.014 737.473 166.209 733.905 172.922C730.394 179.562 724.134 184.906 716.298 187.941C708.707 190.907 700.749 191.846 693.927 190.576C689.565 189.756 685.609 187.991 682.404 185.481L682.393 185.495ZM726.234 147.154C723.354 144.898 719.741 143.426 715.731 142.977C711.882 142.535 707.756 142.996 703.155 144.396C696.258 145.928 690.221 149.253 685.546 154.004C683.726 155.748 682.303 157.564 681.311 159.408C681.276 159.453 681.242 159.497 681.222 159.553L681.048 159.774C681.005 159.86 680.947 159.934 680.904 160.019C677.375 165.953 677.088 172.068 680.127 177.285C682.98 182.19 688.258 185.706 694.628 186.883C700.766 188.023 707.998 187.158 714.964 184.442C722.059 181.683 727.463 177.099 730.617 171.157C733.645 165.497 733.877 158.601 731.199 153.166C730.044 150.807 728.354 148.768 726.271 147.136L726.234 147.154Z" fill="url(#paint50_linear_930_6654)"/>
<path d="M524.611 478.881C521.923 476.775 520.454 473.145 521.234 469.777C521.398 469.142 521.617 468.527 521.922 467.956C522.667 465.393 524.726 463.313 527.299 462.493C530.118 461.603 533.462 462.292 535.814 464.279C539.148 467.081 540.158 472.21 538.127 475.958C536.08 479.788 531.112 481.687 527.033 480.231C526.154 479.923 525.349 479.46 524.626 478.893L524.611 478.881ZM525.311 469.562C525.112 469.907 524.969 470.272 524.879 470.63C524.326 473.009 525.925 475.835 528.287 476.684C530.648 477.534 533.622 476.384 534.81 474.169C536.012 471.965 535.377 468.822 533.397 467.151C532.014 465.996 530.038 465.568 528.44 466.056C527.038 466.506 525.895 467.661 525.517 469.056C525.472 469.236 525.412 469.403 525.311 469.562Z" fill="url(#paint51_linear_930_6654)"/>
<path d="M505.147 460.437C502.341 458.239 500.273 455.069 499.675 451.573C498.904 447.204 500.32 442.689 503.368 439.833C504.964 438.343 507.035 437.344 509.234 436.97C512.526 435.688 516.148 435.69 519.243 436.971C525.249 439.436 528.922 446.58 527.43 452.895C525.912 459.213 519.61 463.88 513.098 463.521C510.219 463.363 507.448 462.216 505.159 460.422L505.147 460.437ZM519.921 441.673C519.271 441.164 518.552 440.743 517.819 440.431C515.568 439.502 512.873 439.535 510.454 440.523C510.314 440.581 510.171 440.611 510.027 440.642C508.491 440.869 507.051 441.551 505.945 442.567C503.858 444.531 502.839 447.808 503.389 450.909C504.202 455.621 508.563 459.515 513.312 459.78C518.021 460.037 522.718 456.567 523.797 452.026C524.667 448.299 522.975 444.042 519.947 441.67L519.921 441.673Z" fill="url(#paint52_linear_930_6654)"/>
<path d="M544.625 464.013C541.82 461.814 539.599 458.93 538.36 455.766C536.732 451.608 536.817 447.241 538.63 443.132C539.363 441.466 540.359 439.982 541.601 438.763C546.591 433.854 552.74 434.311 558.147 434.71C559.481 434.802 560.803 434.909 562.116 434.936C562.96 434.954 563.836 434.901 564.731 434.793C567.546 434.424 569.872 433.434 571.275 432.007C573.776 429.486 576.688 428.05 579.698 427.858C581.329 427.754 582.893 427.978 584.361 428.508C590.413 430.7 592.982 437.885 591.961 443.568C591.104 448.282 588.226 452.868 583.169 457.557C578.177 462.225 572.956 465.451 567.685 467.16C561.26 469.276 554.651 469.103 549.106 466.689C547.511 465.987 545.984 465.077 544.611 464.001L544.625 464.013ZM584.955 433.073C584.394 432.633 583.778 432.294 583.093 432.043C582.098 431.669 581.08 431.539 579.953 431.609C577.326 431.767 575.248 433.356 573.974 434.646C571.988 436.665 568.893 438.029 565.25 438.512C564.17 438.643 563.095 438.706 562.064 438.684C560.683 438.652 559.282 438.554 557.88 438.457C552.593 438.057 548.022 437.716 544.25 441.434C543.369 442.317 542.606 443.411 542.074 444.639C540.682 447.814 540.61 451.19 541.868 454.392C543.359 458.206 546.634 461.51 550.627 463.257C555.339 465.305 560.992 465.42 566.544 463.597C571.301 462.058 576.033 459.091 580.63 454.805C585.147 450.622 587.573 446.827 588.298 442.89C588.902 439.503 587.772 435.257 584.966 433.058L584.955 433.073Z" fill="url(#paint53_linear_930_6654)"/>
<path d="M505.711 377.437C505.239 377.067 504.951 376.46 504.995 375.827C506.209 359.737 516.976 344.627 531.796 338.244C532.736 337.836 533.845 338.276 534.267 339.227C534.675 340.167 534.235 341.276 533.284 341.698C519.722 347.541 509.856 361.379 508.745 376.12C508.671 377.158 507.761 377.923 506.723 377.849C506.345 377.814 505.995 377.683 505.715 377.463L505.711 377.437Z" fill="url(#paint54_linear_930_6654)"/>
<path d="M508.955 394.804C508.822 394.7 508.701 394.581 508.603 394.432C505.655 390.407 504.255 385.258 504.791 380.316C504.907 379.286 505.831 378.533 506.861 378.648C507.89 378.764 508.629 379.676 508.528 380.718C508.094 384.739 509.218 388.932 511.633 392.207C512.242 393.042 512.064 394.213 511.229 394.822C510.543 395.333 509.602 395.287 508.967 394.789L508.955 394.804Z" fill="url(#paint55_linear_930_6654)"/>
<path d="M512.988 386.643C512.693 386.411 512.467 386.091 512.354 385.717C510.954 381.117 510.87 376.236 512.112 371.609C512.377 370.601 513.414 370.007 514.41 370.287C515.418 370.553 516.012 371.59 515.732 372.586C514.693 376.467 514.771 380.747 515.95 384.626C516.245 385.619 515.69 386.662 514.711 386.968C514.092 387.15 513.475 387.025 513.003 386.654L512.988 386.643Z" fill="url(#paint56_linear_930_6654)"/>
<path d="M681.026 332.64C680.76 332.432 680.537 332.138 680.416 331.806C680.058 330.834 680.569 329.756 681.555 329.409C702.067 322.029 718.135 303.468 722.466 282.123C722.664 281.11 723.654 280.455 724.681 280.665C725.709 280.874 726.349 281.852 726.14 282.88C721.534 305.488 704.542 325.136 682.813 332.945C682.185 333.168 681.516 333.049 681.014 332.655L681.026 332.64Z" fill="url(#paint57_linear_930_6654)"/>
<path d="M658.939 344.033C658.703 343.848 658.513 343.604 658.384 343.312C657.961 342.361 658.401 341.252 659.341 340.844L674.194 334.297C675.145 333.875 676.254 334.315 676.662 335.254C677.085 336.205 676.645 337.314 675.706 337.722L660.852 344.269C660.193 344.563 659.456 344.438 658.939 344.033Z" fill="url(#paint58_linear_930_6654)"/>
<defs>
<linearGradient id="paint0_linear_930_6654" x1="901.318" y1="233.927" x2="6.87601" y2="676.845" gradientUnits="userSpaceOnUse">
<stop offset="0.27" stop-color="white"/>
<stop offset="0.66" stop-color="#F88D2A"/>
<stop offset="0.99" stop-color="#F88D2A"/>
</linearGradient>
<linearGradient id="paint1_linear_930_6654" x1="954.562" y1="341.453" x2="60.1054" y2="784.36" gradientUnits="userSpaceOnUse">
<stop offset="0.27" stop-color="white"/>
<stop offset="0.66" stop-color="#F88D2A"/>
<stop offset="0.99" stop-color="#F88D2A"/>
</linearGradient>
<linearGradient id="paint2_linear_930_6654" x1="997.224" y1="427.57" x2="102.771" y2="870.503" gradientUnits="userSpaceOnUse">
<stop offset="0.27" stop-color="white"/>
<stop offset="0.66" stop-color="#F88D2A"/>
<stop offset="0.99" stop-color="#F88D2A"/>
</linearGradient>
<linearGradient id="paint3_linear_930_6654" x1="950.315" y1="332.88" x2="55.8735" y2="775.798" gradientUnits="userSpaceOnUse">
<stop offset="0.27" stop-color="white"/>
<stop offset="0.66" stop-color="#F88D2A"/>
<stop offset="0.99" stop-color="#F88D2A"/>
</linearGradient>
<linearGradient id="paint4_linear_930_6654" x1="810.93" y1="51.3769" x2="-83.5266" y2="494.284" gradientUnits="userSpaceOnUse">
<stop offset="0.27" stop-color="white"/>
<stop offset="0.66" stop-color="#F88D2A"/>
<stop offset="0.99" stop-color="#F88D2A"/>
</linearGradient>
<linearGradient id="paint5_linear_930_6654" x1="885.438" y1="201.845" x2="-9.00471" y2="644.763" gradientUnits="userSpaceOnUse">
<stop offset="0.27" stop-color="white"/>
<stop offset="0.66" stop-color="#F88D2A"/>
<stop offset="0.99" stop-color="#F88D2A"/>
</linearGradient>
<linearGradient id="paint6_linear_930_6654" x1="891.189" y1="213.455" x2="-3.25352" y2="656.373" gradientUnits="userSpaceOnUse">
<stop offset="0.27" stop-color="white"/>
<stop offset="0.66" stop-color="#F88D2A"/>
<stop offset="0.99" stop-color="#F88D2A"/>
</linearGradient>
<linearGradient id="paint7_linear_930_6654" x1="900.522" y1="232.33" x2="6.0815" y2="675.249" gradientUnits="userSpaceOnUse">
<stop offset="0.27" stop-color="white"/>
<stop offset="0.66" stop-color="#F88D2A"/>
<stop offset="0.99" stop-color="#F88D2A"/>
</linearGradient>
<linearGradient id="paint8_linear_930_6654" x1="881.95" y1="194.8" x2="-12.4908" y2="637.719" gradientUnits="userSpaceOnUse">
<stop offset="0.27" stop-color="white"/>
<stop offset="0.66" stop-color="#F88D2A"/>
<stop offset="0.99" stop-color="#F88D2A"/>
</linearGradient>
<linearGradient id="paint9_linear_930_6654" x1="915.689" y1="262.921" x2="21.2327" y2="705.828" gradientUnits="userSpaceOnUse">
<stop offset="0.27" stop-color="white"/>
<stop offset="0.66" stop-color="#F88D2A"/>
<stop offset="0.99" stop-color="#F88D2A"/>
</linearGradient>
<linearGradient id="paint10_linear_930_6654" x1="927.713" y1="287.237" x2="33.2714" y2="730.155" gradientUnits="userSpaceOnUse">
<stop offset="0.27" stop-color="white"/>
<stop offset="0.66" stop-color="#F88D2A"/>
<stop offset="0.99" stop-color="#F88D2A"/>
</linearGradient>
<linearGradient id="paint11_linear_930_6654" x1="927.514" y1="286.82" x2="33.0726" y2="729.738" gradientUnits="userSpaceOnUse">
<stop offset="0.27" stop-color="white"/>
<stop offset="0.66" stop-color="#F88D2A"/>
<stop offset="0.99" stop-color="#F88D2A"/>
</linearGradient>
<linearGradient id="paint12_linear_930_6654" x1="929.674" y1="291.185" x2="35.2198" y2="734.092" gradientUnits="userSpaceOnUse">
<stop offset="0.27" stop-color="white"/>
<stop offset="0.66" stop-color="#F88D2A"/>
<stop offset="0.99" stop-color="#F88D2A"/>
</linearGradient>
<linearGradient id="paint13_linear_930_6654" x1="936.861" y1="305.706" x2="42.4195" y2="748.625" gradientUnits="userSpaceOnUse">
<stop offset="0.27" stop-color="white"/>
<stop offset="0.66" stop-color="#F88D2A"/>
<stop offset="0.99" stop-color="#F88D2A"/>
</linearGradient>
<linearGradient id="paint14_linear_930_6654" x1="939.942" y1="311.935" x2="45.5007" y2="754.853" gradientUnits="userSpaceOnUse">
<stop offset="0.27" stop-color="white"/>
<stop offset="0.66" stop-color="#F88D2A"/>
<stop offset="0.99" stop-color="#F88D2A"/>
</linearGradient>
<linearGradient id="paint15_linear_930_6654" x1="842.456" y1="115.05" x2="-52.0003" y2="557.957" gradientUnits="userSpaceOnUse">
<stop offset="0.27" stop-color="white"/>
<stop offset="0.66" stop-color="#F88D2A"/>
<stop offset="0.99" stop-color="#F88D2A"/>
</linearGradient>
<linearGradient id="paint16_linear_930_6654" x1="795.494" y1="20.2161" x2="-98.9628" y2="463.123" gradientUnits="userSpaceOnUse">
<stop offset="0.27" stop-color="white"/>
<stop offset="0.66" stop-color="#F88D2A"/>
<stop offset="0.99" stop-color="#F88D2A"/>
</linearGradient>
<linearGradient id="paint17_linear_930_6654" x1="799.742" y1="28.7895" x2="-94.7143" y2="471.696" gradientUnits="userSpaceOnUse">
<stop offset="0.27" stop-color="white"/>
<stop offset="0.66" stop-color="#F88D2A"/>
<stop offset="0.99" stop-color="#F88D2A"/>
</linearGradient>
<linearGradient id="paint18_linear_930_6654" x1="805.96" y1="41.3552" x2="-88.4819" y2="484.273" gradientUnits="userSpaceOnUse">
<stop offset="0.27" stop-color="white"/>
<stop offset="0.66" stop-color="#F88D2A"/>
<stop offset="0.99" stop-color="#F88D2A"/>
</linearGradient>
<linearGradient id="paint19_linear_930_6654" x1="815.09" y1="59.7854" x2="-79.3516" y2="502.704" gradientUnits="userSpaceOnUse">
<stop offset="0.27" stop-color="white"/>
<stop offset="0.66" stop-color="#F88D2A"/>
<stop offset="0.99" stop-color="#F88D2A"/>
</linearGradient>
<linearGradient id="paint20_linear_930_6654" x1="831.359" y1="92.6497" x2="-63.0824" y2="535.568" gradientUnits="userSpaceOnUse">
<stop offset="0.27" stop-color="white"/>
<stop offset="0.66" stop-color="#F88D2A"/>
<stop offset="0.99" stop-color="#F88D2A"/>
</linearGradient>
<linearGradient id="paint21_linear_930_6654" x1="857.362" y1="145.15" x2="-37.0795" y2="588.068" gradientUnits="userSpaceOnUse">
<stop offset="0.27" stop-color="white"/>
<stop offset="0.66" stop-color="#F88D2A"/>
<stop offset="0.99" stop-color="#F88D2A"/>
</linearGradient>
<linearGradient id="paint22_linear_930_6654" x1="875.225" y1="181.238" x2="-19.2304" y2="624.145" gradientUnits="userSpaceOnUse">
<stop offset="0.27" stop-color="white"/>
<stop offset="0.66" stop-color="#F88D2A"/>
<stop offset="0.99" stop-color="#F88D2A"/>
</linearGradient>
<linearGradient id="paint23_linear_930_6654" x1="878.619" y1="188.068" x2="-15.8366" y2="630.974" gradientUnits="userSpaceOnUse">
<stop offset="0.27" stop-color="white"/>
<stop offset="0.66" stop-color="#F88D2A"/>
<stop offset="0.99" stop-color="#F88D2A"/>
</linearGradient>
<linearGradient id="paint24_linear_930_6654" x1="842.705" y1="115.549" x2="-51.7366" y2="558.467" gradientUnits="userSpaceOnUse">
<stop offset="0.27" stop-color="white"/>
<stop offset="0.66" stop-color="#F88D2A"/>
<stop offset="0.99" stop-color="#F88D2A"/>
</linearGradient>
<linearGradient id="paint25_linear_930_6654" x1="845.25" y1="120.696" x2="-49.1902" y2="563.614" gradientUnits="userSpaceOnUse">
<stop offset="0.27" stop-color="white"/>
<stop offset="0.66" stop-color="#F88D2A"/>
<stop offset="0.99" stop-color="#F88D2A"/>
</linearGradient>
<linearGradient id="paint26_linear_930_6654" x1="835.293" y1="100.59" x2="-59.1486" y2="543.509" gradientUnits="userSpaceOnUse">
<stop offset="0.27" stop-color="white"/>
<stop offset="0.66" stop-color="#F88D2A"/>
<stop offset="0.99" stop-color="#F88D2A"/>
</linearGradient>
<linearGradient id="paint27_linear_930_6654" x1="835.056" y1="100.096" x2="-59.3845" y2="543.014" gradientUnits="userSpaceOnUse">
<stop offset="0.27" stop-color="white"/>
<stop offset="0.66" stop-color="#F88D2A"/>
<stop offset="0.99" stop-color="#F88D2A"/>
</linearGradient>
<linearGradient id="paint28_linear_930_6654" x1="852.108" y1="134.549" x2="-42.3334" y2="577.467" gradientUnits="userSpaceOnUse">
<stop offset="0.27" stop-color="white"/>
<stop offset="0.66" stop-color="#F88D2A"/>
<stop offset="0.99" stop-color="#F88D2A"/>
</linearGradient>
<linearGradient id="paint29_linear_930_6654" x1="859.412" y1="149.286" x2="-35.0293" y2="592.204" gradientUnits="userSpaceOnUse">
<stop offset="0.27" stop-color="white"/>
<stop offset="0.66" stop-color="#F88D2A"/>
<stop offset="0.99" stop-color="#F88D2A"/>
</linearGradient>
<linearGradient id="paint30_linear_930_6654" x1="962.527" y1="357.509" x2="68.0702" y2="800.416" gradientUnits="userSpaceOnUse">
<stop offset="0.27" stop-color="white"/>
<stop offset="0.66" stop-color="#F88D2A"/>
<stop offset="0.99" stop-color="#F88D2A"/>
</linearGradient>
<linearGradient id="paint31_linear_930_6654" x1="961.944" y1="356.341" x2="67.488" y2="799.247" gradientUnits="userSpaceOnUse">
<stop offset="0.27" stop-color="white"/>
<stop offset="0.66" stop-color="#F88D2A"/>
<stop offset="0.99" stop-color="#F88D2A"/>
</linearGradient>
<linearGradient id="paint32_linear_930_6654" x1="937.202" y1="306.397" x2="42.7593" y2="749.316" gradientUnits="userSpaceOnUse">
<stop offset="0.27" stop-color="white"/>
<stop offset="0.66" stop-color="#F88D2A"/>
<stop offset="0.99" stop-color="#F88D2A"/>
</linearGradient>
<linearGradient id="paint33_linear_930_6654" x1="950.157" y1="332.54" x2="55.7159" y2="775.458" gradientUnits="userSpaceOnUse">
<stop offset="0.27" stop-color="white"/>
<stop offset="0.66" stop-color="#F88D2A"/>
<stop offset="0.99" stop-color="#F88D2A"/>
</linearGradient>
<linearGradient id="paint34_linear_930_6654" x1="973.185" y1="379.039" x2="78.743" y2="821.958" gradientUnits="userSpaceOnUse">
<stop offset="0.27" stop-color="white"/>
<stop offset="0.66" stop-color="#F88D2A"/>
<stop offset="0.99" stop-color="#F88D2A"/>
</linearGradient>
<linearGradient id="paint35_linear_930_6654" x1="918.678" y1="268.986" x2="24.2364" y2="711.904" gradientUnits="userSpaceOnUse">
<stop offset="0.27" stop-color="white"/>
<stop offset="0.66" stop-color="#F88D2A"/>
<stop offset="0.99" stop-color="#F88D2A"/>
</linearGradient>
<linearGradient id="paint36_linear_930_6654" x1="994.94" y1="422.999" x2="100.484" y2="865.906" gradientUnits="userSpaceOnUse">
<stop offset="0.27" stop-color="white"/>
<stop offset="0.66" stop-color="#F88D2A"/>
<stop offset="0.99" stop-color="#F88D2A"/>
</linearGradient>
<linearGradient id="paint37_linear_930_6654" x1="991.614" y1="416.293" x2="97.1714" y2="859.211" gradientUnits="userSpaceOnUse">
<stop offset="0.27" stop-color="white"/>
<stop offset="0.66" stop-color="#F88D2A"/>
<stop offset="0.99" stop-color="#F88D2A"/>
</linearGradient>
<linearGradient id="paint38_linear_930_6654" x1="928.93" y1="289.67" x2="34.4733" y2="732.576" gradientUnits="userSpaceOnUse">
<stop offset="0.27" stop-color="white"/>
<stop offset="0.66" stop-color="#F88D2A"/>
<stop offset="0.99" stop-color="#F88D2A"/>
</linearGradient>
<linearGradient id="paint39_linear_930_6654" x1="937.921" y1="307.819" x2="43.4623" y2="750.725" gradientUnits="userSpaceOnUse">
<stop offset="0.27" stop-color="white"/>
<stop offset="0.66" stop-color="#F88D2A"/>
<stop offset="0.99" stop-color="#F88D2A"/>
</linearGradient>
<linearGradient id="paint40_linear_930_6654" x1="913.265" y1="258.044" x2="18.8232" y2="700.962" gradientUnits="userSpaceOnUse">
<stop offset="0.27" stop-color="white"/>
<stop offset="0.66" stop-color="#F88D2A"/>
<stop offset="0.99" stop-color="#F88D2A"/>
</linearGradient>
<linearGradient id="paint41_linear_930_6654" x1="916.72" y1="265.012" x2="22.2634" y2="707.919" gradientUnits="userSpaceOnUse">
<stop offset="0.27" stop-color="white"/>
<stop offset="0.66" stop-color="#F88D2A"/>
<stop offset="0.99" stop-color="#F88D2A"/>
</linearGradient>
<linearGradient id="paint42_linear_930_6654" x1="1011.44" y1="456.301" x2="116.995" y2="899.219" gradientUnits="userSpaceOnUse">
<stop offset="0.27" stop-color="white"/>
<stop offset="0.66" stop-color="#F88D2A"/>
<stop offset="0.99" stop-color="#F88D2A"/>
</linearGradient>
<linearGradient id="paint43_linear_930_6654" x1="1012.43" y1="458.317" x2="117.99" y2="901.235" gradientUnits="userSpaceOnUse">
<stop offset="0.27" stop-color="white"/>
<stop offset="0.66" stop-color="#F88D2A"/>
<stop offset="0.99" stop-color="#F88D2A"/>
</linearGradient>
<linearGradient id="paint44_linear_930_6654" x1="1020.91" y1="475.424" x2="126.468" y2="918.342" gradientUnits="userSpaceOnUse">
<stop offset="0.27" stop-color="white"/>
<stop offset="0.66" stop-color="#F88D2A"/>
<stop offset="0.99" stop-color="#F88D2A"/>
</linearGradient>
<linearGradient id="paint45_linear_930_6654" x1="871.845" y1="174.421" x2="-22.5962" y2="617.339" gradientUnits="userSpaceOnUse">
<stop offset="0.27" stop-color="white"/>
<stop offset="0.66" stop-color="#F88D2A"/>
<stop offset="0.99" stop-color="#F88D2A"/>
</linearGradient>
<linearGradient id="paint46_linear_930_6654" x1="889.115" y1="209.257" x2="-5.34092" y2="652.164" gradientUnits="userSpaceOnUse">
<stop offset="0.27" stop-color="white"/>
<stop offset="0.66" stop-color="#F88D2A"/>
<stop offset="0.99" stop-color="#F88D2A"/>
</linearGradient>
<linearGradient id="paint47_linear_930_6654" x1="854.548" y1="139.487" x2="-39.8935" y2="582.406" gradientUnits="userSpaceOnUse">
<stop offset="0.27" stop-color="white"/>
<stop offset="0.66" stop-color="#F88D2A"/>
<stop offset="0.99" stop-color="#F88D2A"/>
</linearGradient>
<linearGradient id="paint48_linear_930_6654" x1="878.853" y1="188.564" x2="-15.5891" y2="631.482" gradientUnits="userSpaceOnUse">
<stop offset="0.27" stop-color="white"/>
<stop offset="0.66" stop-color="#F88D2A"/>
<stop offset="0.99" stop-color="#F88D2A"/>
</linearGradient>
<linearGradient id="paint49_linear_930_6654" x1="867.841" y1="166.326" x2="-26.6157" y2="609.233" gradientUnits="userSpaceOnUse">
<stop offset="0.27" stop-color="white"/>
<stop offset="0.66" stop-color="#F88D2A"/>
<stop offset="0.99" stop-color="#F88D2A"/>
</linearGradient>
<linearGradient id="paint50_linear_930_6654" x1="835.607" y1="101.22" x2="-58.8345" y2="544.138" gradientUnits="userSpaceOnUse">
<stop offset="0.27" stop-color="white"/>
<stop offset="0.66" stop-color="#F88D2A"/>
<stop offset="0.99" stop-color="#F88D2A"/>
</linearGradient>
<linearGradient id="paint51_linear_930_6654" x1="922.644" y1="276.976" x2="28.1879" y2="719.883" gradientUnits="userSpaceOnUse">
<stop offset="0.27" stop-color="white"/>
<stop offset="0.66" stop-color="#F88D2A"/>
<stop offset="0.99" stop-color="#F88D2A"/>
</linearGradient>
<linearGradient id="paint52_linear_930_6654" x1="910.787" y1="253.051" x2="16.3446" y2="695.97" gradientUnits="userSpaceOnUse">
<stop offset="0.27" stop-color="white"/>
<stop offset="0.66" stop-color="#F88D2A"/>
<stop offset="0.99" stop-color="#F88D2A"/>
</linearGradient>
<linearGradient id="paint53_linear_930_6654" x1="920.06" y1="271.785" x2="25.6188" y2="714.704" gradientUnits="userSpaceOnUse">
<stop offset="0.27" stop-color="white"/>
<stop offset="0.66" stop-color="#F88D2A"/>
<stop offset="0.99" stop-color="#F88D2A"/>
</linearGradient>
<linearGradient id="paint54_linear_930_6654" x1="875.488" y1="181.754" x2="-18.9534" y2="624.672" gradientUnits="userSpaceOnUse">
<stop offset="0.27" stop-color="white"/>
<stop offset="0.66" stop-color="#F88D2A"/>
<stop offset="0.99" stop-color="#F88D2A"/>
</linearGradient>
<linearGradient id="paint55_linear_930_6654" x1="884.782" y1="200.525" x2="-9.65887" y2="643.443" gradientUnits="userSpaceOnUse">
<stop offset="0.27" stop-color="white"/>
<stop offset="0.66" stop-color="#F88D2A"/>
<stop offset="0.99" stop-color="#F88D2A"/>
</linearGradient>
<linearGradient id="paint56_linear_930_6654" x1="882.603" y1="196.124" x2="-11.8384" y2="639.042" gradientUnits="userSpaceOnUse">
<stop offset="0.27" stop-color="white"/>
<stop offset="0.66" stop-color="#F88D2A"/>
<stop offset="0.99" stop-color="#F88D2A"/>
</linearGradient>
<linearGradient id="paint57_linear_930_6654" x1="891.39" y1="213.874" x2="-3.05154" y2="656.792" gradientUnits="userSpaceOnUse">
<stop offset="0.27" stop-color="white"/>
<stop offset="0.66" stop-color="#F88D2A"/>
<stop offset="0.99" stop-color="#F88D2A"/>
</linearGradient>
<linearGradient id="paint58_linear_930_6654" x1="897.174" y1="225.559" x2="2.73245" y2="668.477" gradientUnits="userSpaceOnUse">
<stop offset="0.27" stop-color="white"/>
<stop offset="0.66" stop-color="#F88D2A"/>
<stop offset="0.99" stop-color="#F88D2A"/>
</linearGradient>
</defs>
</svg>
