<svg width="1285" height="439" viewBox="0 0 1285 439" fill="none" xmlns="http://www.w3.org/2000/svg">
<rect width="1284" height="438" rx="20" fill="#F88D2A"/>
<mask id="mask0_3123_784" style="mask-type:alpha" maskUnits="userSpaceOnUse" x="1" y="1" width="1284" height="438">
<path d="M1285 1H1.00164V438.286H1285V1Z" fill="#C10230"/>
</mask>
<g mask="url(#mask0_3123_784)">
<path d="M156.768 366.535C161.318 357.996 163.538 349.018 160.695 340.932C156.936 330.22 143.404 327.253 133.546 330.402C125.062 333.112 118.356 339.252 112.211 345.454C114.941 334.139 110.352 307.588 94.1899 306.222C90.6016 305.918 87.4347 308.175 84.9051 310.561C69.6604 324.941 67.1095 345.328 69.3419 365.301C69.8103 369.45 82.4937 418.249 79.6526 418.73C101.607 407.918 95.2565 407.713 125.347 395C134.963 390.935 150.318 378.655 156.768 366.535Z" fill="white" fill-opacity="0.11"/>
<path d="M291.559 220.168C300.988 218.53 309.307 214.772 313.811 207.515C319.778 197.9 313.707 185.258 305.175 179.329C297.827 174.224 288.924 172.653 280.321 171.569C290.771 166.773 308.481 146.731 299.542 132.978C297.562 129.929 293.855 128.784 290.44 128.236C269.881 124.93 252.519 135.461 238.438 149.565C235.514 152.493 205.569 192.726 203.449 190.748C225.396 201.618 221.621 196.419 250.076 212.616C259.176 217.792 278.192 222.488 291.559 220.168Z" fill="white" fill-opacity="0.11"/>
<path d="M467.14 393.52C472.684 401.441 479.635 407.441 488.032 408.429C499.154 409.733 507.73 398.71 509.288 388.339C510.63 379.405 508.157 370.578 505.384 362.228C514.174 369.726 539.653 377.288 547.976 363.157C549.823 360.028 549.227 356.138 548.229 352.776C542.238 332.524 525.351 321.175 506.725 314.378C502.854 312.964 454.159 302.938 454.987 300.136C454.874 324.931 457.849 319.234 455.83 352.281C455.191 362.844 459.274 382.28 467.14 393.52Z" fill="white" fill-opacity="0.11"/>
<path d="M552.184 128.205C554.343 137.673 558.527 145.899 565.925 150.059C575.721 155.572 587.789 148.703 593.118 139.72C597.707 131.978 598.73 122.864 599.293 114.076C604.616 124.401 625.351 141.241 638.349 131.409C641.232 129.226 642.137 125.403 642.476 121.913C644.521 100.871 633.155 83.8527 618.474 70.3684C615.419 67.568 574.13 39.4608 575.945 37.1922C566.545 60.0632 571.434 55.9518 557.183 85.7106C552.624 95.2319 549.119 114.773 552.184 128.205Z" fill="white" fill-opacity="0.11"/>
<path d="M772.12 86.2584C793.198 41.5798 823.009 5.27317 864.334 -7.13353C919.097 -23.5587 971.626 24.1529 988.324 74.8461C1002.7 118.513 997.813 164.996 991.033 209.394C1028.8 163.938 1150.33 103.349 1204.24 166.887C1216.18 180.963 1216.52 201.014 1214.4 218.784C1201.6 325.765 1126.48 397.727 1038.7 448.406C1020.46 458.949 784.383 552.52 790.928 565.864C769.149 441.502 788.973 467.458 750.569 303.334C738.305 250.864 742.214 149.675 772.12 86.2584Z" fill="white" fill-opacity="0.11"/>
<path d="M106.941 -5.52854C96.6468 -19.0072 84.0234 -29.0234 69.2359 -30.1249C49.6363 -31.6039 35.3809 -11.6286 33.3902 6.66058C31.6665 22.4388 36.6327 37.7433 42.0892 52.1857C26.1385 39.6813 -19.0743 28.2874 -32.6626 53.6849C-35.6747 59.3156 -34.3644 66.0843 -32.3794 71.9072C-20.4198 106.998 10.0017 125.645 43.1669 136.213C50.057 138.39 136.176 152.399 134.924 157.381C133.35 113.882 128.536 124.1 129.715 65.9857C130.086 47.3951 121.528 13.6045 106.941 -5.52854Z" fill="white" fill-opacity="0.11"/>
<path d="M404.341 226.161C409.439 234.382 416.045 240.767 424.378 242.226C435.413 244.165 444.585 233.646 446.709 223.383C448.537 214.536 446.557 205.583 444.251 197.091C452.608 205.079 477.637 214.069 486.724 200.434C488.741 197.413 488.361 193.502 487.55 190.09C482.679 169.525 466.447 157.238 448.226 149.394C444.437 147.768 396.36 134.988 397.349 132.239C395.865 156.981 399.148 151.464 395.317 184.342C394.096 194.857 397.102 214.489 404.341 226.161Z" fill="white" fill-opacity="0.11"/>
</g>
</svg>
