<svg width="86" height="83" viewBox="0 0 86 83" fill="none" xmlns="http://www.w3.org/2000/svg">
<path d="M32.9128 51.5807C32.607 51.3086 32.3648 51.0918 32.1756 50.9429C30.8366 49.8839 28.6875 49.4049 27.5262 49.2128L27.3032 49.1757L27.2529 48.9993C26.6587 47.5616 28.5045 47.4748 28.5045 47.4748L28.7783 47.0193L28.3832 43.998L28.552 43.5155C28.5866 43.422 28.6369 43.3354 28.688 43.2517C28.7781 43.1026 28.8331 42.9986 28.7995 42.9303C28.7494 42.8304 28.4781 42.5681 27.0162 42.2826C26.352 42.1525 25.7265 42.0892 25.1542 42.0936C23.8083 42.1062 23.1997 42.4952 23.1938 42.4993C22.7857 42.77 22.5642 43.1624 22.5199 43.7004C22.3785 45.391 24.0563 47.8602 24.6624 48.4071C25.0718 48.7771 24.3208 49.031 24.3208 49.031L22.4296 48.9723C17.6602 48.8662 15.9038 49.3215 10.9493 44.4285C10.7943 44.2755 10.6773 44.1606 10.6038 44.0926C10.3648 43.8791 10.1455 43.7666 9.96807 43.7682C9.87669 43.7682 9.81023 43.8005 9.77441 43.823C10.2623 48.8108 17.9022 50.8796 19.5428 52.0105C21.1473 53.1165 22.1099 60.4126 22.0358 60.6514C21.7769 61.4895 20.1853 78.2209 22.0818 81.7513C22.225 82.0176 22.4876 82.1037 22.7158 82.1056C22.7798 82.1062 22.8518 82.098 22.9456 82.0762C22.9692 82.0714 23.1952 80.2745 23.6588 75.1206C24.4075 66.7923 24.8132 64.5337 25.6137 64.41L25.7111 64.4035C25.7195 64.4035 25.7233 64.4017 25.7305 64.401C25.7377 64.4017 25.7414 64.4035 25.7499 64.4035L25.8472 64.41C26.6478 64.5337 27.0535 66.7923 27.8023 75.1206C28.2658 80.2745 28.4918 82.0714 28.5154 82.0762C28.6095 82.098 28.6812 82.1062 28.7454 82.1056C28.9737 82.1037 29.2363 82.0176 29.3792 81.7513C31.2757 78.2209 29.6841 61.4895 29.4252 60.6514C29.3513 60.4126 29.4407 59.6994 29.5948 58.8395H29.6114C29.9156 57.0978 30.4822 54.7439 30.5339 54.4344C30.8772 52.3794 34.4576 61.2725 35.5427 62.3612L35.9529 60.5617C34.2737 55.9792 33.8433 52.4124 32.9128 51.5807Z" fill="#535050"/>
<path d="M48.593 51.5776C47.9685 50.4367 45.7698 50.3089 44.0181 49.8919H43.8837C43.7533 49.7861 43.6716 49.6376 43.8687 49.4594C44.456 48.9294 46.0812 46.5373 45.9442 44.8995C45.9015 44.3785 45.6866 43.9982 45.2913 43.7361C45.2856 43.732 44.6959 43.3551 43.3921 43.3429C42.8377 43.3388 42.2319 43.4003 41.5884 43.5262C40.172 43.8026 39.9091 44.0569 39.8606 44.1535C39.8283 44.2198 39.8815 44.3206 39.9687 44.4649C40.0184 44.546 40.067 44.6299 40.1006 44.7204L40.2641 45.1878L39.8813 48.1149L40.235 48.5814C40.235 48.5814 41.9347 48.6403 41.3591 50.0331L41.3557 50.045C39.7635 50.3605 38.0363 50.5875 37.4941 51.5776C35.6173 55.0058 35.2382 61.1705 35.2068 61.187C35.1757 62.8204 36.1726 62.6557 36.482 61.2702C37.801 55.3678 38.4587 54.5771 38.6874 54.5194C39.1903 57.3888 39.4297 61.1939 39.3902 61.3217C39.1395 62.1335 37.5974 78.3424 39.4347 81.7623C39.5734 82.0206 39.8278 82.1037 40.0488 82.1056C40.1108 82.1062 40.1805 82.098 40.2716 82.0774C40.2945 82.0721 40.5136 80.3313 40.9624 75.3387C41.6879 67.2704 42.0807 65.082 42.8566 64.963L42.9507 64.9566C42.959 64.9566 42.9627 64.9541 42.9697 64.9536C42.9764 64.9541 42.9801 64.9566 42.9883 64.9566L43.0824 64.963C43.8583 65.082 44.2511 67.2704 44.9767 75.3387C45.4258 80.3313 45.6445 82.0721 45.6675 82.0774C45.7585 82.098 45.828 82.1062 45.8903 82.1056C46.1113 82.1037 46.3657 82.0206 46.5043 81.7623C48.3416 78.3424 46.7995 62.1335 46.5489 61.3217C46.4772 61.0901 46.5638 60.3991 46.7129 59.5658H46.7294C46.9706 58.1859 47.1336 55.3121 47.3026 54.5469C47.3026 54.5469 47.9043 53.6583 49.6052 61.2702C49.9148 62.6557 50.9115 62.8204 50.8803 61.187C50.8492 61.1705 50.4699 55.0058 48.593 51.5776Z" fill="#535050"/>
<path d="M60.1643 79.8426C60.1643 79.8685 60.0754 82.3754 61.4455 82.7079C61.6646 82.6075 62.6931 75.4331 62.7922 68.6447L59.7063 68.8823C60.1315 71.4277 60.3326 75.1533 60.1643 79.8426Z" fill="#535050"/>
<path d="M55.8837 69.6576C55.889 69.7497 55.8962 69.8312 55.9026 69.9163C56.0483 76.1862 57.0268 82.6153 57.2396 82.7079C58.6099 82.3929 58.521 80.0163 58.521 79.9917C58.3518 75.5187 58.6129 71.6442 59.0913 68.9695L60.3006 68.8687L55.874 69.1918C55.8783 69.3462 55.8757 69.5086 55.8837 69.6576Z" fill="#535050"/>
<path d="M55.441 45.2757C55.441 45.2757 54.6621 44.288 55.672 43.8546C56.6821 43.4213 58.2364 43.8546 58.2364 43.8546L58.6468 45.5897L56.9006 45.7427L55.441 45.2757Z" fill="#535050"/>
<path d="M73.5437 44.9671C73.3767 44.9655 73.1715 45.0711 72.9472 45.2711C72.8784 45.3348 72.7688 45.4425 72.6235 45.5859C68.6567 49.5038 66.9922 49.685 63.1384 50.3359C63.0064 50.2133 62.884 50.0848 62.7663 49.9537C62.0588 48.969 61.7176 46.8563 61.667 46.0666C61.6083 45.1488 61.1311 44.4284 61.1311 44.4284L61.1216 44.4321C61.0106 44.1704 60.8403 43.9532 60.5917 43.7883C60.5857 43.784 59.9815 43.3981 58.6456 43.3853C58.0776 43.3811 57.4567 43.444 56.7974 43.5732C55.3461 43.8566 55.7215 43.7553 55.6715 43.8545C55.6384 43.9226 55.2749 44.3533 55.3643 44.5011C55.4153 44.5842 55.2386 44.7038 55.273 44.7968L55.4405 45.2757L55.4104 48.2576L55.8311 48.7928L57.0042 48.9548C57.1424 49.0678 57.5715 48.9028 57.0147 50.2507C57.0147 50.2507 55.7235 50.9559 54.349 51.8043C52.9553 52.6642 52.6145 53.3746 52.2374 53.9692C52.0347 54.2886 50.8872 57.2148 50.124 60.5692L50.7416 62.0995C51.9633 60.3475 52.7484 56.7094 53.9253 55.202C53.9253 55.202 55.0726 54.0207 55.5383 54.8655C55.5383 54.8657 55.5383 54.8657 55.5383 54.8657C55.5446 54.8751 55.5498 54.8889 55.556 54.8987C55.5836 54.9539 55.609 55.0149 55.6309 55.0866C55.682 55.2543 55.8661 56.3492 56.0097 57.4769C56.0616 58.5084 56.0404 59.4313 56.0404 59.432C55.9597 59.741 55.9092 59.8526 55.3745 61.7375C54.9066 63.2444 54.6927 65.2526 54.6394 67.4159C54.6026 68.0667 54.5974 68.6909 54.6153 69.288L59.0419 68.9905L61.1152 68.8318C61.1161 68.8382 61.1171 68.8451 61.1184 68.8517L64.2043 68.6446C64.2534 65.7273 64.0769 62.8913 63.4627 60.9182C63.4368 60.734 60.6009 55.4907 64.9894 52.6437C66.6889 51.5411 73.4022 49.3913 73.7253 45.0184C73.6915 44.9973 73.6291 44.9671 73.5437 44.9671Z" fill="#535050"/>
<path d="M12.0676 33.7189C12.6023 34.0424 13.1791 34.2255 13.726 34.0932C14.4503 33.918 14.7216 33.103 14.571 32.4819C14.4411 31.9469 14.0762 31.5036 13.704 31.0939C14.4309 31.3207 16.1997 31.1773 16.3812 30.1923C16.4213 29.9742 16.2913 29.7678 16.1489 29.6001C15.2917 28.5899 13.9681 28.3269 12.6446 28.3599C12.3695 28.3668 9.09451 28.891 9.07935 28.7141C9.66427 30.1177 9.71384 29.7291 10.3777 31.6417C10.5898 32.2532 11.3089 33.26 12.0676 33.7189Z" fill="#C10230"/>
<path d="M79.8346 35.6605C79.5338 35.1406 79.3892 34.5952 79.5829 34.1062C79.8391 33.4585 80.7459 33.2851 81.4041 33.4808C81.9706 33.6492 82.4167 34.0247 82.8252 34.4036C82.6474 33.7163 82.966 32.1086 84.048 32.0334C84.2883 32.0167 84.4992 32.1551 84.6674 32.301C85.6813 33.1802 85.8431 34.4176 85.6851 35.6275C85.652 35.8789 84.7821 38.8317 84.972 38.8622C83.5077 38.1961 83.9327 38.1867 81.9248 37.4015C81.2831 37.1504 80.2609 36.3985 79.8346 35.6605Z" fill="#C10230"/>
<path d="M73.4091 31.2469C72.7789 31.1431 72.2238 30.9112 71.9256 30.469C71.5305 29.8832 71.9422 29.1195 72.5157 28.7642C73.0096 28.4581 73.606 28.3671 74.1821 28.3055C73.4849 28.0097 72.3086 26.786 72.9127 25.9564C73.0465 25.7724 73.295 25.7048 73.5238 25.6732C74.9009 25.4826 76.0581 26.1294 76.9942 26.9913C77.1886 27.1703 79.1748 29.6241 79.3176 29.5051C77.8443 30.1538 78.0992 29.8403 76.1881 30.8088C75.577 31.1183 74.3025 31.3939 73.4091 31.2469Z" fill="#C10230"/>
<path d="M63.0665 34.6362C62.6921 35.1139 62.2244 35.4743 61.6621 35.5302C60.9172 35.604 60.3482 34.9315 60.2484 34.3019C60.1625 33.7596 60.3318 33.2255 60.5209 32.7206C59.9295 33.171 58.2214 33.6173 57.6706 32.7565C57.5484 32.5659 57.5899 32.3304 57.6582 32.127C58.0678 30.9019 59.2027 30.2219 60.452 29.8186C60.7116 29.7347 63.9743 29.1501 63.9201 28.9798C63.9169 30.4833 63.7203 30.1364 63.8411 32.1412C63.8793 32.7819 63.5977 33.9585 63.0665 34.6362Z" fill="#C10230"/>
<path d="M4.91844 37.1275C5.5492 37.2263 6.15732 37.1811 6.60064 36.8581C7.18786 36.4301 7.08106 35.5833 6.67259 35.0701C6.32061 34.6281 5.7929 34.3566 5.2734 34.1188C6.03808 34.0581 7.59582 33.2736 7.33296 32.3047C7.27446 32.0898 7.06564 31.9486 6.86204 31.8476C5.63632 31.2389 4.30933 31.4866 3.11151 32.0055C2.8626 32.1134 0.0911053 33.8027 0 33.6464C1.14753 34.7161 1.02356 34.3417 2.46507 35.8489C2.92607 36.3304 4.02331 36.9874 4.91844 37.1275Z" fill="#C10230"/>
<path d="M22.6142 34.6362C22.9886 35.1139 23.4563 35.4743 24.0186 35.5302C24.7634 35.604 25.3324 34.9315 25.4323 34.3019C25.5181 33.7596 25.3486 33.2255 25.1597 32.7206C25.7511 33.171 27.4592 33.6173 28.0101 32.7565C28.1323 32.5659 28.0908 32.3304 28.0225 32.127C27.6128 30.9019 26.478 30.2219 25.2286 29.8186C24.969 29.7347 21.7061 29.1501 21.7604 28.9798C21.7634 30.4833 21.96 30.1364 21.8396 32.1412C21.801 32.7819 22.083 33.9585 22.6142 34.6362Z" fill="#C10230"/>
<path d="M29.9509 39.7547C30.0786 40.3319 30.3437 40.8378 30.8311 41.1015C31.4768 41.4511 32.2962 41.0538 32.6686 40.5177C32.9895 40.056 33.0739 39.5052 33.1274 38.9735C33.4652 39.6079 34.8223 40.6618 35.7092 40.0861C35.9056 39.9584 35.973 39.7282 36.0019 39.5172C36.1764 38.2451 35.4464 37.1955 34.488 36.3547C34.2889 36.1799 31.5769 34.4109 31.7023 34.2764C31.0327 35.6477 31.3673 35.406 30.3609 37.1873C30.039 37.7569 29.77 38.9359 29.9509 39.7547Z" fill="#C10230"/>
<path d="M15.731 14.7589C16.0757 15.2551 16.5211 15.6387 17.0789 15.7238C17.8179 15.8358 18.4271 15.1935 18.5649 14.5701C18.6837 14.0328 18.547 13.4908 18.3889 12.977C18.952 13.4574 20.6302 13.9906 21.2326 13.16C21.3663 12.9759 21.3389 12.7383 21.2834 12.5319C20.9486 11.2878 19.8568 10.55 18.6342 10.0831C18.38 9.98631 15.1577 9.23438 15.2224 9.06722C15.1338 10.5687 15.3514 10.2321 15.1091 12.2274C15.0318 12.8656 15.2418 14.0545 15.731 14.7589Z" fill="#C10230"/>
<path d="M27.2142 19.5039C27.3628 20.0769 27.6463 20.5737 28.1429 20.8224C28.8011 21.152 29.6056 20.7297 29.958 20.1825C30.262 19.7109 30.3264 19.1578 30.3603 18.6246C30.721 19.2481 32.1157 20.2593 32.9812 19.6569C33.1728 19.5232 33.2319 19.2909 33.2533 19.0792C33.381 17.8023 32.613 16.7759 31.6246 15.9653C31.4192 15.797 28.644 14.1125 28.7647 13.974C28.1457 15.3653 28.471 15.1137 27.5301 16.9249C27.2294 17.5044 27.0034 18.6909 27.2142 19.5039Z" fill="#C10230"/>
<path d="M39.9078 4.79429C39.8523 5.3814 39.9509 5.93508 40.3373 6.31574C40.8488 6.81899 41.7569 6.65183 42.2791 6.23539C42.7292 5.87585 42.9795 5.36967 43.1946 4.87405C43.3231 5.57026 44.2998 6.93513 45.3276 6.61429C45.5556 6.54332 45.691 6.34038 45.7839 6.14507C46.3427 4.97083 45.9659 3.77372 45.306 2.71738C45.1688 2.49801 43.1127 0.0938221 43.2745 -0.00236902C42.2101 1.13785 42.6054 0.993561 41.0915 2.43936C40.6076 2.90155 39.9865 3.962 39.9078 4.79429Z" fill="#C10230"/>
<path d="M39.524 26.3179C39.4687 26.9047 39.5673 27.4587 39.9534 27.839C40.4649 28.3426 41.3732 28.1754 41.8952 27.7586C42.3453 27.3994 42.5959 26.8933 42.811 26.3972C42.9394 27.0937 43.9162 28.4586 44.944 28.1381C45.1717 28.0668 45.3074 27.8636 45.4002 27.6686C45.9591 26.4944 45.5822 25.2975 44.9221 24.2413C44.7852 24.0214 42.7288 21.6172 42.8909 21.521C41.8262 22.6612 42.2215 22.5169 40.7078 23.9627C40.224 24.4248 39.6027 25.4854 39.524 26.3179Z" fill="#C10230"/>
<path d="M55.7285 39.7547C55.6008 40.3319 55.3357 40.8378 54.8483 41.1015C54.2026 41.4511 53.3832 41.0538 53.0108 40.5177C52.6899 40.056 52.6053 39.5052 52.552 38.9735C52.2142 39.6079 50.8571 40.6618 49.9702 40.0861C49.7738 39.9584 49.7063 39.7282 49.6772 39.5172C49.503 38.2451 50.233 37.1955 51.1911 36.3547C51.3903 36.1799 54.1025 34.4109 53.9771 34.2764C54.6467 35.6477 54.3121 35.406 55.3185 37.1873C55.6403 37.7569 55.9094 38.9359 55.7285 39.7547Z" fill="#C10230"/>
<path d="M58.466 19.5039C58.3174 20.0769 58.0339 20.5737 57.5371 20.8224C56.8792 21.152 56.0747 20.7297 55.722 20.1825C55.4183 19.7109 55.3538 19.1578 55.3199 18.6246C54.9593 19.2481 53.5645 20.2593 52.699 19.6569C52.5071 19.5232 52.4482 19.2909 52.427 19.0792C52.2993 17.8023 53.0672 16.7759 54.0554 15.9653C54.261 15.797 57.036 14.1125 56.9155 13.974C57.5346 15.3653 57.2092 15.1137 58.1499 16.9249C58.4509 17.5044 58.6769 18.6909 58.466 19.5039Z" fill="#C10230"/>
<path d="M19.9453 82.6943H19.9521L19.9756 82.6474C19.9674 82.621 19.9595 82.5958 19.9515 82.5706C19.9496 82.6123 19.9473 82.6533 19.9453 82.6943Z" fill="#F88D2A"/>
<path d="M20.1422 80.1132C20.0685 80.7501 20.0202 81.3983 19.9834 82.0082C20.0225 82.0141 20.0571 82.0357 20.0765 82.0702C20.1094 82.1278 20.1439 82.183 20.1795 82.2386C20.309 81.9848 20.4437 81.7284 20.5818 81.4702C20.5116 81.0017 20.3984 80.4545 20.1422 80.1132Z" fill="#F88D2A"/>
<path d="M27.786 82.6943C27.79 82.6199 27.7952 82.5454 27.8002 82.471C27.8079 82.3559 27.8159 82.2409 27.8203 82.1254C27.8203 82.1149 27.8211 82.1037 27.8215 82.0927C27.7242 82.2714 27.6216 82.4785 27.5168 82.6943H27.786Z" fill="#F88D2A"/>
<path d="M34.3169 82.6943C34.3318 81.6663 34.3766 80.7817 34.456 79.9711C34.1488 80.9817 33.9151 81.8622 33.7327 82.6943H34.3169Z" fill="#F88D2A"/>
<path d="M35.3901 82.2311C35.3333 82.3859 35.2689 82.5395 35.2012 82.6943H35.3914L35.3901 82.2838C35.3901 82.2661 35.3901 82.2487 35.3901 82.2311Z" fill="#F88D2A"/>
<path d="M31.7773 82.1101L31.7413 82.1236V81.9781C31.7413 81.9465 31.7413 81.9142 31.7413 81.8826C31.6379 82.1002 31.5294 82.3119 31.4236 82.5195L31.3347 82.6943H31.8336L31.8331 82.6902C31.8135 82.495 31.7939 82.3014 31.7773 82.1101Z" fill="#F88D2A"/>
<path d="M32.4408 82.6943H32.8767C32.7326 82.1706 32.5695 81.6152 32.376 80.9877C32.4197 81.5025 32.4403 82.0604 32.4408 82.6943Z" fill="#F88D2A"/>
<path d="M36.915 80.038C37.2391 80.5024 37.3364 81.2333 37.4114 81.7946C37.4348 81.9735 37.4562 82.136 37.4821 82.268C37.504 82.3777 37.5211 82.4886 37.5378 82.5988L37.5528 82.6943H38.8633C38.651 82.0886 38.4011 81.5969 38.083 81.1577C37.8682 80.8614 37.3962 80.32 36.915 80.038Z" fill="#F88D2A"/>
<path d="M36.8409 81.607C36.78 81.763 36.7192 81.919 36.6579 82.0744L36.6005 82.2205C36.5568 82.3326 36.5138 82.4446 36.4713 82.5566L36.4189 82.6943H36.8009C36.7992 82.6909 36.7974 82.6886 36.7952 82.6856L36.7227 82.5766L36.7262 82.5436C36.7602 82.2153 36.7979 81.9037 36.8409 81.607Z" fill="#F88D2A"/>
<path d="M15.0158 80.606L15.0127 80.6216C15.0174 80.6207 15.0263 80.6216 15.0343 80.6192L15.0158 80.606Z" fill="#F88D2A"/>
<path d="M14.7119 81.6897C14.6716 81.8649 14.64 82.004 14.6153 82.0728C14.5578 82.2334 14.5026 82.4063 14.4421 82.6158L14.4197 82.6943H15.1505C15.154 82.6281 15.158 82.5578 15.1627 82.4838C15.197 81.9195 15.2439 81.1623 15.0079 80.6944C14.9053 80.8491 14.7719 81.4292 14.7119 81.6897Z" fill="#F88D2A"/>
<path d="M22.6201 80.8046C22.7281 81.3359 22.7667 81.9408 22.7443 82.6943H23.3527L23.2444 82.353C23.0734 81.8141 22.8605 81.2867 22.6201 80.8046Z" fill="#F88D2A"/>
<path d="M25.1093 82.3408L24.9975 82.2439C24.833 82.0996 24.6862 81.9887 24.548 81.9062L24.4952 81.8739L24.4847 81.7928C24.3264 80.5512 24.0611 79.4379 23.6773 78.4069C23.7482 79.2469 23.6509 80.1441 23.5565 81.0175C23.5207 81.3513 23.4851 81.6784 23.4609 81.9923L23.4102 82.6943H25.5576C25.5882 81.7156 25.6283 80.8122 25.6796 79.9612C25.5339 80.6133 25.3769 81.2544 25.2226 81.8796L25.1093 82.3408Z" fill="#F88D2A"/>
<path d="M30.2256 82.6943H30.9838C30.9462 81.7048 30.9273 80.5945 31.0781 79.5078C30.7287 80.5212 30.4484 81.5701 30.2256 82.6943Z" fill="#F88D2A"/>
<path d="M18.2556 80.8076C18.0976 81.1588 17.9336 81.5213 17.838 81.8915C17.7854 82.0954 17.7401 82.3014 17.6963 82.5074L17.656 82.6943H18.5678C18.5688 81.8228 18.5666 80.9517 18.5613 80.0838C18.4717 80.3306 18.363 80.5718 18.2556 80.8076Z" fill="#F88D2A"/>
<path d="M16.6258 81.9976L16.534 82.5871L16.417 82.0017C16.2046 80.9396 15.887 79.9124 15.5457 78.8367C15.6655 80.1993 15.6147 81.533 15.541 82.6943H17.4893L17.4863 82.4891C17.4644 80.9971 17.4687 79.4127 17.6245 77.8303C17.1284 79.4602 16.824 80.737 16.6258 81.9976Z" fill="#F88D2A"/>
<path d="M42.0484 81.1306L42.1084 81.417L41.855 81.1769C41.7931 81.1183 41.7395 81.0674 41.68 81.0181C41.3624 80.7494 40.6627 80.3448 39.9908 80.1241L39.9685 80.1147C39.6767 79.947 39.3417 79.8052 38.97 79.692C39.5154 80.2609 39.7539 80.841 39.9 81.2903L40.0444 81.7307L39.7031 81.3366C39.3008 80.8708 38.7731 80.5294 38.2539 80.3917C38.3226 80.4584 38.3818 80.5283 38.4314 80.5993C38.5752 80.8145 38.689 81.0374 38.7719 81.2621C38.9451 81.6762 39.0395 82.1025 39.1311 82.5149C39.1437 82.5747 39.153 82.6327 39.1627 82.6914V82.6943H42.8547C42.4883 81.2656 41.9857 79.6984 41.0523 78.4573C41.5103 79.2368 41.8326 80.106 42.0484 81.1306Z" fill="#F88D2A"/>
<path d="M61.4016 81.1888L61.1903 81.1923C61.0337 79.956 60.7161 78.8615 60.2431 77.9324C60.3086 78.5717 60.2401 79.2533 60.1739 79.9159L60.1209 80.4825C60.1077 80.6438 60.0962 80.8035 60.0901 80.9588C60.0722 81.425 60.041 81.8979 60.0111 82.3559L59.9893 82.6943H61.8557C61.6991 81.916 61.5525 81.1513 61.4631 80.3917C61.4437 80.6731 61.4218 80.9441 61.4016 81.1888Z" fill="#F88D2A"/>
<path d="M59.0505 81.2246L58.9953 81.0626C58.6799 80.1395 58.2834 79.2849 57.7917 78.4731C58.1873 79.3969 58.4825 80.3945 58.7046 81.5465L58.7132 81.5905L58.6829 81.6251C58.5614 81.7618 58.444 81.9002 58.3322 82.0416L58.2585 82.1342L58.1711 82.0528C58.0128 81.9048 57.8339 81.7559 57.6531 81.6216L57.6118 81.5912L57.614 81.5419C57.6447 80.9066 57.6854 80.3219 57.7373 79.7692C57.5874 80.2004 57.4246 80.6234 57.2658 81.0362L57.1662 81.2949L57.0547 81.2317C56.8934 81.1419 56.7421 81.069 56.6056 81.0163L56.5526 80.9952L56.5424 80.9437C56.3836 80.1482 56.1183 79.4361 55.7349 78.777C55.8051 79.3147 55.7085 79.8891 55.614 80.4479C55.5784 80.6614 55.5427 80.8704 55.5184 81.0708L55.4524 81.6544L55.3015 81.1787C55.1301 80.638 54.9165 80.1095 54.676 79.6281C54.8473 80.4726 54.8244 81.373 54.7738 82.1653L54.7397 82.6943H59.4274C59.4108 82.6164 59.3953 82.5383 59.3792 82.4609C59.3331 82.2393 59.2861 82.0104 59.2243 81.7946L59.2151 81.7623L59.229 81.7318C59.4366 81.2814 59.6699 80.8426 59.9225 80.4275L59.9604 80.3659C59.6641 80.6264 59.4062 80.8678 59.1747 81.0997L59.0505 81.2246Z" fill="#F88D2A"/>
<path d="M62.0732 82.6943H63.0879L63.0712 82.3113C63.0132 80.9945 62.9527 79.6391 63.1356 78.3348C62.6636 79.7001 62.3149 81.1329 62.0732 82.6943Z" fill="#F88D2A"/>
<path d="M52.2354 81.2779L52.1943 81.2912C52.1953 81.2935 52.1963 81.2967 52.1971 81.2991L52.2354 81.2779Z" fill="#F88D2A"/>
<path d="M53.5688 79.9835C53.3553 79.6895 52.8815 79.1458 52.3994 78.8638C52.6653 79.2402 52.778 79.7905 52.8522 80.2996L52.8562 80.3283L52.8499 80.3407L52.943 80.9501C52.9513 81.0005 52.96 81.0491 52.9685 81.0931C53.0715 81.6134 53.1457 82.13 53.1987 82.5214L53.2223 82.6943H54.694L54.5638 82.1818C54.3457 81.3272 54.0206 80.608 53.5688 79.9835Z" fill="#F88D2A"/>
<path d="M47.0697 80.7359C47.0057 81.1565 46.9057 81.5712 46.8084 81.9754C46.7508 82.2146 46.6934 82.4533 46.6426 82.6943H47.3132L47.308 82.6579C47.2136 82.0127 47.125 81.3769 47.0697 80.7359Z" fill="#F88D2A"/>
<path d="M52.6646 82.0563L52.6457 82.0292L52.6636 81.7758C52.6825 81.5061 52.7022 81.2275 52.733 80.9535L52.7896 80.4538C52.636 80.743 52.4869 81.0291 52.343 81.313L52.2589 81.4791L52.2496 81.4656L52.2571 81.4885L52.157 81.689C52.0908 81.821 52.0246 81.9525 51.9631 82.0837L51.7334 82.5747L51.76 82.0409C51.8188 80.8497 51.878 79.7759 52.0144 78.6954L52.0378 78.5059L52.0391 78.5066C52.0495 78.4314 52.0597 78.3581 52.0702 78.2866C51.9977 78.4713 51.9251 78.6555 51.8526 78.8397C51.4895 79.7605 51.1143 80.7132 50.8333 81.6686L50.624 82.3818L50.6249 81.6434C50.6262 80.7313 50.624 79.8192 50.6182 78.9101C50.5284 79.157 50.4196 79.3974 50.3131 79.6334C50.1543 79.9846 49.9902 80.3477 49.8946 80.7171C49.8423 80.9212 49.7973 81.1272 49.7537 81.3336L49.5573 82.251L49.5436 81.3155C49.5217 79.8233 49.5257 78.2385 49.6817 76.6561C49.1856 78.2871 48.8812 79.5628 48.6831 80.8238L48.591 81.4129L48.4742 80.8275C48.2619 79.7647 47.9441 78.7382 47.6027 77.6619C47.7531 79.3781 47.6403 81.1242 47.5189 82.6522L47.5154 82.6943H53.0641L52.9991 82.5789C52.8966 82.3958 52.7776 82.2205 52.6646 82.0563Z" fill="#F88D2A"/>
<path d="M68.6865 82.6943H69.6647C69.9839 81.8375 70.358 81.0573 70.7798 80.3704C69.8412 81.1987 69.1817 81.9307 68.6865 82.6943Z" fill="#F88D2A"/>
<path d="M29.3439 82.363L29.1329 82.3672C28.9768 81.1295 28.6586 80.0346 28.1855 79.106C28.2512 79.7424 28.1832 80.4227 28.117 81.085L28.064 81.6569C28.0503 81.8182 28.0386 81.9777 28.0329 82.1325C28.0284 82.2492 28.0209 82.3665 28.0127 82.4833C28.0078 82.5537 28.003 82.624 27.999 82.6943H28H29.5799C29.5179 82.3424 29.455 81.9554 29.4067 81.5559C29.3865 81.8409 29.3646 82.1154 29.3439 82.363Z" fill="#F88D2A"/>
<path d="M26.9929 82.2315L26.9377 81.9788C26.6223 80.5365 26.2265 79.201 25.7354 77.9324C26.1274 79.3658 26.4209 80.9125 26.6425 82.6943H27.2814C27.3392 82.5055 27.3927 82.3477 27.4479 82.1781C27.4895 82.0503 27.5331 81.9073 27.5737 81.7889C27.672 81.5002 27.7686 81.2344 27.8654 80.9863L27.9035 80.8885C27.6083 81.2949 27.3499 81.6727 27.1174 82.0368L26.9929 82.2315Z" fill="#F88D2A"/>
<path d="M20.3428 80.0368C20.3557 80.0549 20.3642 80.0785 20.3766 80.0978C20.4008 80.1354 20.4209 80.1764 20.4426 80.2169C20.4862 80.299 20.526 80.384 20.5601 80.4756C20.5775 80.5219 20.5944 80.567 20.6096 80.6151C20.6409 80.7143 20.6681 80.8151 20.6917 80.9182C20.7015 80.9606 20.7126 81.001 20.7214 81.0438C20.7507 81.187 20.7759 81.3313 20.7968 81.4732L20.8008 81.5032L20.7933 81.5171L20.8872 82.1243C20.8951 82.1747 20.9038 82.2235 20.9123 82.2675C20.9337 82.3736 20.9491 82.4797 20.9653 82.5864C20.9705 82.6222 20.9757 82.6579 20.9815 82.6943H22.3062C22.1026 82.1167 21.8425 81.6129 21.5127 81.1577C21.2991 80.8637 20.8254 80.3196 20.3428 80.0368Z" fill="#F88D2A"/>
<path d="M20.0139 79.4597C19.9444 79.6386 19.8739 79.8174 19.8038 79.9951C19.4572 80.8749 19.1001 81.7829 18.8232 82.6943H19.733C19.7455 82.4526 19.7642 82.1852 19.7799 81.9273C19.7918 81.7318 19.8005 81.5501 19.8152 81.349C19.851 80.861 19.8964 80.3613 19.9581 79.8691L19.9817 79.6801L19.9835 79.6813C19.9931 79.6057 20.0036 79.5323 20.0139 79.4597Z" fill="#F88D2A"/>
<path d="M20.2032 82.6526L20.1928 82.6368L20.1923 82.6364L20.1997 82.6627L20.1848 82.6943H20.6292L20.6316 82.6604C20.6436 82.4826 20.6562 82.3048 20.6764 82.1277L20.7332 81.631L20.7334 81.6287C20.5791 81.9167 20.43 82.204 20.2868 82.4879L20.2032 82.6526Z" fill="#F88D2A"/>
<path d="M68.7006 80.9384L68.6579 81.0463C68.4298 81.6239 68.2278 82.1646 68.0398 82.6943H68.6783L68.684 82.6041C68.6974 82.3747 68.7121 82.1454 68.7318 81.9172L68.7873 81.2686L68.7924 81.289C68.8242 80.99 68.8599 80.7054 68.8994 80.4321C68.8338 80.6012 68.7669 80.77 68.7006 80.9384Z" fill="#F88D2A"/>
<path d="M45.2401 81.231L45.1486 81.6386L45.0305 81.234C44.8722 80.6914 44.7231 80.1576 44.6328 79.6281C44.6133 79.8222 44.5915 80.0091 44.5713 80.1782L44.3602 80.1805C44.2037 79.3277 43.8858 78.5728 43.4128 77.9324C43.4785 78.3716 43.4098 78.842 43.3436 79.2989C43.3068 79.5511 43.2725 79.7887 43.2597 80.0185C43.251 80.1729 43.2418 80.3636 43.2321 80.5734C43.1992 81.2456 43.155 82.1555 43.0945 82.6943H46.2946L46.2968 82.5537C46.3123 82.0274 46.2767 81.4784 46.2421 80.9471C46.1833 80.041 46.1236 79.1078 46.3053 78.2097C45.8311 79.1571 45.4814 80.1493 45.2401 81.231Z" fill="#F88D2A"/>
<path d="M64.4798 82.6943H65.2381C65.0284 81.7284 64.7417 80.7877 64.4326 79.808C64.5084 80.6685 64.5237 81.604 64.4798 82.6943Z" fill="#F88D2A"/>
<path d="M67.1444 81.7799C67.01 82.0773 66.8723 82.3834 66.7761 82.6943H67.4516V82.5342C67.451 82.0409 67.4503 81.5476 67.4484 81.0557C67.3586 81.302 67.2502 81.543 67.1444 81.7799Z" fill="#F88D2A"/>
<path d="M66.368 82.6943C66.361 81.5236 66.3763 80.1805 66.512 78.7987C66.0602 80.2884 65.7613 81.5167 65.5625 82.6943H66.368Z" fill="#F88D2A"/>
<path d="M39.5298 38.666C39.4746 39.2528 39.5731 39.8068 39.9592 40.1871C40.4708 40.6907 41.3791 40.5237 41.901 40.1067C42.3511 39.7474 42.6017 39.2413 42.8168 38.7453C42.9453 39.4418 43.922 40.8066 44.9498 40.4861C45.1776 40.4148 45.3133 40.2116 45.4061 40.0166C45.965 38.8427 45.5881 37.6455 44.9279 36.5891C44.791 36.3696 42.7347 33.9655 42.8967 33.8691C41.8321 35.0093 42.2274 34.865 40.7137 36.3107C40.2298 36.773 39.6085 37.8334 39.5298 38.666Z" fill="#F88D2A"/>
<path d="M16.8543 41.441C17.3658 41.7989 17.9294 42.0196 18.4867 41.9231C19.225 41.7955 19.5571 40.9998 19.4521 40.3701C19.3617 39.8276 19.0291 39.3611 18.6869 38.9279C19.3978 39.2017 21.1791 39.174 21.4337 38.203C21.4902 37.9876 21.3752 37.7732 21.245 37.5965C20.4617 36.5321 19.1561 36.1831 17.8286 36.1298C17.5528 36.1185 14.2354 36.4278 14.2332 36.2502C14.7151 37.6895 14.7932 37.3049 15.3162 39.2574C15.4835 39.8815 16.1287 40.9333 16.8543 41.441Z" fill="#F88D2A"/>
<path d="M8.29251 25.4114C8.82741 25.7349 9.40392 25.918 9.9508 25.7858C10.6751 25.6105 10.9467 24.7955 10.7962 24.1745C10.6662 23.6396 10.3013 23.1962 9.92888 22.7862C10.656 23.0132 12.4246 22.87 12.606 21.8847C12.6464 21.6665 12.5164 21.4606 12.3741 21.2929C11.5165 20.2823 10.193 20.0195 8.86947 20.0524C8.59469 20.0594 5.31963 20.5837 5.30444 20.4066C5.88941 21.8102 5.93894 21.4213 6.60256 23.334C6.81488 23.9457 7.53375 24.9525 8.29251 25.4114Z" fill="#F88D2A"/>
<path d="M18.3279 24.5162C18.6726 25.0123 19.118 25.3963 19.6758 25.4808C20.4149 25.593 21.024 24.9509 21.1619 24.3275C21.2806 23.7903 21.144 23.2483 20.9859 22.7345C21.549 23.2149 23.2274 23.7481 23.8296 22.9169C23.9633 22.7328 23.9361 22.4958 23.8804 22.2894C23.5455 21.0447 22.454 20.3075 21.2311 19.8406C20.9769 19.7438 17.7549 18.9919 17.8194 18.8247C17.731 20.3257 17.9483 19.9896 17.7061 21.9849C17.6287 22.6231 17.8388 23.812 18.3279 24.5162Z" fill="#F88D2A"/>
<path d="M30.2093 30.0324C30.3579 30.6052 30.6415 31.1026 31.1381 31.3512C31.7962 31.6804 32.6007 31.2581 32.9534 30.7108C33.2571 30.2393 33.3213 29.6864 33.3555 29.153C33.7161 29.7769 35.1108 30.7882 35.9763 30.1854C36.168 30.0519 36.227 29.8196 36.2484 29.6076C36.3761 28.3312 35.6082 27.3048 34.6197 26.4939C34.4144 26.3253 31.6394 24.6414 31.7598 24.5027C31.1408 25.8939 31.4661 25.6421 30.5252 27.4537C30.2245 28.0329 29.9985 29.2195 30.2093 30.0324Z" fill="#F88D2A"/>
<path d="M39.5757 14.8093C39.5205 15.3958 39.619 15.9501 40.0051 16.3302C40.5167 16.834 41.425 16.6668 41.9472 16.2498C42.397 15.8909 42.6476 15.3847 42.8627 14.8885C42.9912 15.5853 43.9679 16.9501 44.9957 16.6293C45.2235 16.5583 45.3592 16.3548 45.452 16.1601C46.0108 14.9858 45.6339 13.7887 44.9741 12.7324C44.8369 12.513 42.7808 10.1088 42.9426 10.0126C41.8782 11.1529 42.2733 11.0086 40.7596 12.4544C40.2756 12.9166 39.6543 13.977 39.5757 14.8093Z" fill="#F88D2A"/>
<path d="M26.5482 7.86125C26.6968 8.4337 26.9803 8.93108 27.4769 9.17977C28.1351 9.50881 28.9396 9.08651 29.292 8.53927C29.596 8.06829 29.6602 7.51519 29.6943 6.98203C30.055 7.60551 31.4497 8.6167 32.3152 8.01433C32.5068 7.8806 32.5658 7.64834 32.5873 7.43601C32.715 6.15972 31.947 5.13329 30.9586 4.3227C30.7532 4.15378 27.978 2.46986 28.0987 2.33143C27.4797 3.72269 27.805 3.47047 26.8641 5.28227C26.5634 5.86176 26.3373 7.04832 26.5482 7.86125Z" fill="#F88D2A"/>
<path d="M55.4709 30.0324C55.3223 30.6052 55.0388 31.1026 54.542 31.3512C53.8841 31.6804 53.0796 31.2581 52.7269 30.7108C52.4231 30.2393 52.3587 29.6864 52.3248 29.153C51.9641 29.7769 50.5694 30.7882 49.7039 30.1854C49.512 30.0519 49.453 29.8196 49.4319 29.6076C49.3042 28.3312 50.0721 27.3048 51.0603 26.4939C51.2657 26.3253 54.0409 24.6414 53.9204 24.5027C54.5395 25.8939 54.2142 25.6421 55.155 27.4537C55.4558 28.0329 55.6818 29.2195 55.4709 30.0324Z" fill="#F88D2A"/>
<path d="M68.8259 41.441C68.3142 41.7989 67.7502 42.0196 67.1933 41.9231C66.4547 41.7955 66.1227 40.9998 66.2278 40.3701C66.3183 39.8276 66.651 39.3611 66.9932 38.9279C66.282 39.2017 64.5009 39.174 64.246 38.203C64.19 37.9876 64.3047 37.7732 64.4347 37.5965C65.2185 36.5321 66.5242 36.1831 67.8515 36.1298C68.1275 36.1185 71.4449 36.4278 71.4468 36.2502C70.9651 37.6895 70.8867 37.3049 70.3635 39.2574C70.1966 39.8815 69.551 40.9333 68.8259 41.441Z" fill="#F88D2A"/>
<path d="M67.352 24.5162C67.0073 25.0123 66.5625 25.3963 66.0043 25.4808C65.2651 25.593 64.6559 24.9509 64.5182 24.3275C64.3997 23.7903 64.5361 23.2483 64.6941 22.7345C64.1314 23.2149 62.4528 23.7481 61.8506 22.9169C61.7169 22.7328 61.7441 22.4958 61.7998 22.2894C62.1346 21.0447 63.2262 20.3075 64.4488 19.8406C64.703 19.7438 67.9255 18.9919 67.8605 18.8247C67.9491 20.3257 67.7318 19.9896 67.974 21.9849C68.0511 22.6231 67.8414 23.812 67.352 24.5162Z" fill="#F88D2A"/>
<path d="M59.1321 7.86125C58.9835 8.4337 58.7 8.93108 58.2034 9.17977C57.5452 9.50881 56.7407 9.08651 56.388 8.53927C56.0843 8.06829 56.0198 7.51519 55.9857 6.98203C55.6253 7.60551 54.2305 8.6167 53.365 8.01433C53.1731 7.8806 53.1142 7.64834 53.093 7.43601C52.9653 6.15972 53.7332 5.13329 54.7214 4.3227C54.927 4.15378 57.702 2.46986 57.5815 2.33143C58.2006 3.72269 57.8752 3.47047 58.8159 5.28227C59.1169 5.86176 59.3429 7.04832 59.1321 7.86125Z" fill="#F88D2A"/>
<path d="M60.4348 82.6943H60.4296L60.4111 82.6737C60.4174 82.6622 60.4238 82.6507 60.43 82.6398C60.4315 82.6581 60.4333 82.676 60.4348 82.6943Z" fill="#F88D2A"/>
<path d="M60.2455 81.2381C60.3192 81.5976 60.3675 81.963 60.4043 82.3074C60.3652 82.3108 60.3306 82.3232 60.311 82.3424C60.2784 82.3747 60.2438 82.4059 60.2079 82.4375C60.0785 82.2938 59.9438 82.1495 59.8057 82.004C59.8758 81.7396 59.9894 81.431 60.2455 81.2381Z" fill="#F88D2A"/>
<path d="M52.599 82.6943C52.595 82.6522 52.5898 82.6105 52.5846 82.5683C52.5771 82.5033 52.5692 82.4386 52.5645 82.3736C52.5645 82.3676 52.564 82.3612 52.5635 82.3548C52.6606 82.4556 52.7634 82.5729 52.868 82.6943H52.599Z" fill="#F88D2A"/>
<path d="M46.0701 82.6943C46.0551 82.1142 46.0101 81.6152 45.9307 81.1584C46.2381 81.7284 46.4719 82.2251 46.6543 82.6943H46.0701Z" fill="#F88D2A"/>
<path d="M44.9963 82.4327C45.0532 82.5202 45.1175 82.607 45.1851 82.6943H44.9951L44.9963 82.4627C44.9963 82.4526 44.9963 82.4428 44.9963 82.4327Z" fill="#F88D2A"/>
<path d="M48.6079 82.3646L48.6441 82.3724V82.2902C48.6441 82.2728 48.6441 82.2544 48.6441 82.2363C48.7475 82.3589 48.856 82.4785 48.9615 82.5958L49.0507 82.6943H48.5518L48.5523 82.692C48.5719 82.5818 48.5912 82.4728 48.6079 82.3646Z" fill="#F88D2A"/>
<path d="M47.9456 82.6943H47.5098C47.654 82.3988 47.817 82.0856 48.0107 81.7314C47.967 82.0221 47.9464 82.3367 47.9456 82.6943Z" fill="#F88D2A"/>
<path d="M43.4715 81.1957C43.1477 81.458 43.0503 81.8702 42.9754 82.1871C42.9518 82.2874 42.9307 82.3793 42.9047 82.454C42.8829 82.5154 42.8657 82.5782 42.849 82.6405L42.834 82.6943H41.5234C41.7358 82.3525 41.9854 82.0755 42.3039 81.8276C42.5184 81.6603 42.9904 81.3547 43.4715 81.1957Z" fill="#F88D2A"/>
<path d="M43.5449 82.0808C43.6058 82.1687 43.6669 82.2567 43.7282 82.3447L43.7856 82.427C43.8293 82.4902 43.8722 82.553 43.9147 82.6164L43.9672 82.6943H43.5852C43.5869 82.6927 43.5887 82.6909 43.5909 82.6898L43.6631 82.6281L43.6599 82.6093C43.6259 82.424 43.5882 82.2487 43.5449 82.0808Z" fill="#F88D2A"/>
<path d="M65.3651 81.5161L65.3686 81.5249C65.3641 81.5244 65.3546 81.5249 65.3467 81.5238L65.3651 81.5161Z" fill="#F88D2A"/>
<path d="M65.6742 82.1277C65.7143 82.2269 65.7462 82.3048 65.771 82.3436C65.8284 82.4345 65.8838 82.5319 65.9444 82.6499L65.9667 82.6943H65.2357C65.2319 82.6568 65.2281 82.6169 65.2236 82.5759C65.1892 82.2574 65.1427 81.8303 65.3785 81.566C65.4811 81.6532 65.6143 81.9806 65.6742 82.1277Z" fill="#F88D2A"/>
<path d="M57.7668 81.6287C57.6585 81.9284 57.6202 82.2691 57.6426 82.6943H57.0342L57.1425 82.5019C57.3132 82.1976 57.5263 81.9002 57.7668 81.6287Z" fill="#F88D2A"/>
<path d="M55.2775 82.5665L55.3891 82.5319C55.5538 82.4797 55.7005 82.4398 55.8386 82.41L55.8916 82.3981L55.9021 82.3688C56.0601 81.9209 56.3255 81.519 56.7096 81.1471C56.6387 81.4498 56.736 81.7742 56.8303 82.089C56.8659 82.21 56.9017 82.3278 56.9259 82.4409L56.9764 82.6943H54.8292C54.7987 82.3413 54.7583 82.0152 54.7073 81.7078C54.8529 81.9435 55.01 82.1747 55.1643 82.4006L55.2775 82.5665Z" fill="#F88D2A"/>
<path d="M50.1609 82.6943H49.403C49.4405 82.136 49.4594 81.5096 49.3086 80.8967C49.6581 81.4686 49.9384 82.0604 50.1609 82.6943Z" fill="#F88D2A"/>
<path d="M62.1306 81.6299C62.2889 81.8281 62.4529 82.0329 62.5485 82.2416C62.6008 82.3566 62.6463 82.4728 62.6901 82.5887L62.7302 82.6943H61.8187C61.8174 82.2029 61.8199 81.7114 61.8249 81.2216C61.9147 81.3611 62.0236 81.4968 62.1306 81.6299Z" fill="#F88D2A"/>
<path d="M63.7601 82.3014L63.8525 82.6334L63.9692 82.3037C64.1814 81.7043 64.4993 81.1254 64.8403 80.5184C64.7205 81.2867 64.7714 82.0393 64.8454 82.6943H62.8969L62.8999 82.5789C62.9215 81.7371 62.9176 80.8433 62.7617 79.9507C63.2579 80.8704 63.5623 81.59 63.7601 82.3014Z" fill="#F88D2A"/>
<path d="M38.3385 81.4152L38.2788 81.6491L38.5319 81.4532C38.5941 81.4051 38.6476 81.3636 38.7068 81.3224C39.0248 81.1031 39.7245 80.7723 40.396 80.5918L40.4187 80.584C40.7105 80.4467 41.0453 80.3306 41.4172 80.238C40.8715 80.7031 40.6333 81.1783 40.4872 81.546L40.3425 81.9055L40.6838 81.5836C41.0863 81.2024 41.614 80.9231 42.133 80.8103C42.0646 80.8651 42.0053 80.9224 41.9558 80.9806C41.8119 81.1565 41.6979 81.3389 41.6153 81.5224C41.4418 81.8615 41.3474 82.2105 41.2561 82.5477C41.2434 82.5965 41.2342 82.6439 41.2242 82.692V82.6943H37.5322C37.8989 81.5254 38.4014 80.2433 39.3349 79.2281C38.8766 79.8655 38.5545 80.5764 38.3385 81.4152Z" fill="#F88D2A"/>
<path d="M18.9855 81.845L19.1966 81.8475C19.3532 81.1494 19.6708 80.5317 20.144 80.008C20.0785 80.3688 20.147 80.7531 20.2129 81.1272L20.2659 81.4468C20.2791 81.5378 20.2908 81.628 20.2971 81.7156C20.315 81.9781 20.3461 82.245 20.376 82.5033L20.3979 82.6943H18.5315C18.6878 82.2551 18.8346 81.8239 18.9238 81.3953C18.9434 81.5543 18.9653 81.7073 18.9855 81.845Z" fill="#F88D2A"/>
<path d="M21.337 81.8649L21.3923 81.7742C21.7077 81.2532 22.1042 80.7712 22.5956 80.3132C22.2003 80.8339 21.9051 81.3969 21.6828 82.0469L21.6743 82.0714L21.7047 82.0913C21.8262 82.1683 21.9437 82.2462 22.0552 82.3261L22.1289 82.3782L22.2165 82.3326C22.3745 82.2492 22.5538 82.1653 22.7345 82.089L22.7758 82.0721L22.7736 82.0439C22.743 81.6855 22.7021 81.3559 22.6504 81.0445C22.8 81.2873 22.963 81.5261 23.1218 81.7589L23.2214 81.9048L23.3329 81.8691C23.4942 81.8187 23.6456 81.7777 23.7819 81.7476L23.8347 81.736L23.8452 81.7066C24.004 81.258 24.2694 80.8562 24.6527 80.4843C24.5825 80.7876 24.679 81.1118 24.7734 81.4276C24.8092 81.5476 24.8448 81.6656 24.869 81.7781L24.9352 82.1078L25.086 81.8393C25.2576 81.5343 25.4711 81.2363 25.7116 80.9648C25.5401 81.4409 25.5632 81.9488 25.6137 82.3958L25.6479 82.6943H20.9599C20.9766 82.6503 20.9923 82.6064 21.0085 82.5624C21.0546 82.4375 21.1016 82.3085 21.1633 82.1871L21.1723 82.1687L21.1586 82.1513C20.9507 81.8972 20.7177 81.6498 20.4651 81.4157L20.427 81.3806C20.7234 81.5277 20.9813 81.6638 21.2126 81.7946L21.337 81.8649Z" fill="#F88D2A"/>
<path d="M18.3134 82.6943H17.2985L17.3152 82.4785C17.3735 81.7355 17.4339 80.9712 17.2507 80.235C17.7227 81.0051 18.0714 81.8134 18.3134 82.6943Z" fill="#F88D2A"/>
<path d="M28.1399 81.8953L28.1807 81.9027C28.18 81.9041 28.179 81.9059 28.178 81.9073L28.1399 81.8953Z" fill="#F88D2A"/>
<path d="M26.8172 81.1652C27.0308 80.9994 27.5045 80.6926 27.9867 80.5336C27.7209 80.746 27.6081 81.0562 27.5336 81.3437L27.5297 81.36L27.5361 81.3664L27.4428 81.7103C27.4348 81.7389 27.4261 81.766 27.4177 81.7912C27.3146 82.0849 27.2402 82.3759 27.1874 82.597L27.1637 82.6943H25.6921L25.8221 82.4052C26.0404 81.9231 26.3654 81.5178 26.8172 81.1652Z" fill="#F88D2A"/>
<path d="M33.3176 81.5893C33.3814 81.8269 33.4817 82.0608 33.5788 82.289C33.6365 82.4233 33.694 82.5582 33.7445 82.6943H33.0742L33.0794 82.6739C33.1738 82.3097 33.2624 81.9513 33.3176 81.5893Z" fill="#F88D2A"/>
<path d="M27.7213 82.3342L27.7404 82.3195L27.7225 82.1759C27.7036 82.024 27.684 81.8668 27.6528 81.7126L27.5965 81.4303C27.7502 81.5934 27.8992 81.7554 28.0431 81.9153L28.127 82.0088L28.1362 82.001L28.1288 82.0141L28.2291 82.1273C28.295 82.2017 28.3612 82.2762 28.423 82.35L28.6525 82.627L28.6261 82.3261C28.5674 81.6539 28.5081 81.0479 28.3717 80.4385L28.348 80.3317L28.3471 80.3324C28.3366 80.2896 28.3262 80.2485 28.3159 80.208C28.3884 80.3118 28.4608 80.4163 28.5335 80.52C28.8967 81.0392 29.2718 81.5765 29.5529 82.1161L29.7622 82.5179L29.7609 82.1014C29.76 81.587 29.7622 81.0727 29.7679 80.5595C29.8578 80.699 29.9666 80.8344 30.0731 80.9677C30.2319 81.1659 30.3959 81.3705 30.4913 81.5795C30.5438 81.6943 30.5886 81.8104 30.6324 81.9266L30.8286 82.4439L30.8425 81.9167C30.8644 81.075 30.8604 80.1812 30.7044 79.2879C31.2004 80.208 31.5049 80.9276 31.703 81.6393L31.7949 81.9713L31.9119 81.6416C32.1242 81.0422 32.4418 80.4625 32.7831 79.8556C32.633 80.8238 32.7457 81.8088 32.8672 82.6703L32.8707 82.6943H27.322L27.387 82.6293C27.4896 82.5259 27.6085 82.427 27.7213 82.3342Z" fill="#F88D2A"/>
<path d="M51.0431 82.5074L51.2545 82.5097C51.4105 81.8116 51.7286 81.1941 52.2018 80.6703C52.1361 81.0291 52.2041 81.4129 52.2703 81.7864L52.3233 82.109C52.337 82.1999 52.3484 82.2902 52.3541 82.377C52.3589 82.4435 52.3664 82.5097 52.3743 82.5752C52.3796 82.6146 52.3843 82.6545 52.3882 82.6943H52.3873H50.8074C50.8694 82.4962 50.9321 82.2773 50.9804 82.0521C51.0005 82.2127 51.0224 82.3676 51.0431 82.5074Z" fill="#F88D2A"/>
<path d="M53.3938 82.5273L53.449 82.4364C53.7646 81.9153 54.1604 81.4333 54.6513 80.9758C54.2595 81.4931 53.966 82.0514 53.7442 82.6943H53.1055C53.0475 82.6263 52.994 82.5695 52.939 82.5078C52.8974 82.462 52.8536 82.4105 52.8132 82.3676C52.7147 82.2634 52.6184 82.1676 52.5213 82.078L52.4834 82.0427C52.7786 82.1894 53.037 82.3255 53.2695 82.4567L53.3938 82.5273Z" fill="#F88D2A"/>
<path d="M60.0441 81.1952C60.0312 81.2058 60.0227 81.2186 60.0102 81.2298C59.9861 81.2509 59.9657 81.2738 59.9442 81.2967C59.9007 81.343 59.8609 81.3911 59.8268 81.4427C59.8093 81.4686 59.7925 81.4942 59.7772 81.5213C59.7459 81.5776 59.7187 81.634 59.6948 81.6926C59.6851 81.7167 59.6739 81.7389 59.6652 81.763C59.6361 81.8439 59.611 81.9254 59.5901 82.0059L59.5861 82.0221L59.5935 82.0304L59.4997 82.3729C59.4917 82.4011 59.483 82.4286 59.4743 82.4533C59.4531 82.5131 59.4374 82.5736 59.4213 82.6334C59.4163 82.654 59.4111 82.6739 59.4053 82.6943H58.0803C58.2842 82.3683 58.5444 82.0844 58.8741 81.8276C59.0877 81.6615 59.5612 81.3547 60.0441 81.1952Z" fill="#F88D2A"/>
<path d="M60.373 80.8697C60.4425 80.9705 60.5127 81.0715 60.5829 81.1716C60.9294 81.6679 61.2868 82.18 61.5636 82.6943H60.6538C60.6411 82.5578 60.6227 82.407 60.607 82.2615C60.5951 82.1513 60.5864 82.0487 60.5717 81.9355C60.5359 81.6597 60.4906 81.3783 60.4288 81.1009L60.4052 80.9941L60.4034 80.9945C60.3937 80.9524 60.3832 80.9107 60.373 80.8697Z" fill="#F88D2A"/>
<path d="M60.1823 82.671L60.193 82.662L60.1932 82.6616L60.1858 82.6762L60.2008 82.6943H59.7567L59.7542 82.6751C59.7422 82.5747 59.7295 82.4744 59.7094 82.3747L59.6526 82.0943L59.6523 82.0931C59.8067 82.2556 59.9558 82.4176 60.0989 82.5777L60.1823 82.671Z" fill="#F88D2A"/>
<path d="M12.1156 81.7036L12.1582 81.7648C12.3862 82.0902 12.5888 82.3953 12.7762 82.6943H12.138L12.1323 82.6432C12.1186 82.5143 12.1041 82.3846 12.0845 82.2556L12.0288 81.8897L12.0242 81.9014C11.9919 81.7325 11.9563 81.5724 11.9172 81.4182C11.9827 81.5137 12.0494 81.6088 12.1156 81.7036Z" fill="#F88D2A"/>
<path d="M35.1465 81.4968L35.238 81.831L35.3558 81.4995C35.5141 81.0557 35.6632 80.6193 35.7536 80.1858C35.7732 80.3448 35.7952 80.4971 35.815 80.6358L36.0264 80.638C36.183 79.9399 36.5006 79.3225 36.9738 78.7987C36.9081 79.1582 36.9765 79.5429 37.0427 79.9166C37.0796 80.1225 37.1142 80.3173 37.1269 80.5054C37.1356 80.6316 37.1448 80.787 37.1545 80.9595C37.1873 81.5089 37.2317 82.2533 37.2922 82.6943H34.092L34.0898 82.5789C34.0741 82.1488 34.1099 81.6995 34.1443 81.2649C34.203 80.5237 34.263 79.7601 34.0811 79.0255C34.5553 79.8004 34.9053 80.6122 35.1465 81.4968Z" fill="#F88D2A"/>
<path d="M15.9059 82.6943H15.1475C15.3576 82.1495 15.6441 81.6186 15.9532 81.0663C15.877 81.5517 15.8621 82.0792 15.9059 82.6943Z" fill="#F88D2A"/>
<path d="M13.2418 82.1788C13.3759 82.3461 13.5133 82.5191 13.6102 82.6943H12.9346V82.6041C12.9351 82.3261 12.9356 82.0475 12.9378 81.7701C13.0277 81.9089 13.136 82.045 13.2418 82.1788Z" fill="#F88D2A"/>
<path d="M14.0182 82.6943C14.0256 82.034 14.0102 81.2761 13.8743 80.4967C14.3261 81.3371 14.6256 82.0299 14.8239 82.6943H14.0182Z" fill="#F88D2A"/>
</svg>
