<svg width="786" height="500" viewBox="0 0 786 500" fill="none" xmlns="http://www.w3.org/2000/svg">
<g clip-path="url(#clip0_2014_804)">
<path d="M485.778 0.502106C480.445 1.22937 472.445 4.62332 466.696 8.53674C455.025 16.4328 442.523 30.3896 433.103 46.0779L430.575 50.303H349.293C298.523 50.303 266.176 50.4415 263.025 50.6493C215.094 53.974 172.046 76.4848 142.298 113.784C124.878 135.671 114.003 159.775 108.393 189.004C107.7 192.606 106.696 197.385 106.142 199.567C105.588 201.749 104.895 204.554 104.618 205.801C98.6265 231.255 92.6352 252.658 88.3754 263.809C83.5962 276.416 82.4534 279.082 77.9166 288.052C73.3451 297.022 70.3322 302.078 65.172 309.247C63.5096 311.602 62.9555 312.121 62.1936 312.121C54.9209 312.156 36.5313 315.169 26.3148 318.009C13.8819 321.437 8.5486 322.649 2.1763 323.411C1.06808 323.515 0.236909 323.758 0.340806 323.896C0.652494 324.381 10.3495 330.753 13.8127 332.727C26.2456 339.861 36.4274 342.978 47.2672 342.978C57.0681 342.978 63.9945 340.416 69.778 334.632C72.791 331.619 74.4534 329.022 75.3538 325.974C75.6309 325.074 76.9815 322.822 78.6092 320.606C80.1676 318.493 82.3148 315.377 83.4231 313.68C84.5313 311.948 85.8127 310.009 86.2629 309.351C88.133 306.476 92.185 299.1 94.5399 294.286C99.8733 283.411 103.579 274.164 107.458 262.251C108.601 258.719 109.743 255.255 109.951 254.528C110.159 253.835 110.471 253.247 110.644 253.247C110.782 253.247 111.025 253.974 111.163 254.874C111.475 257.056 114.072 268.277 115.839 275.238C119.44 289.333 126.401 310.944 131.25 323.03C133.259 328.052 133.986 330.719 135.406 338.615C137.691 351.013 139.839 370.719 140.982 390.182C141.709 402.303 141.847 431.359 141.189 439.567C140.531 447.879 139.111 460.589 138.349 465.195C137.033 473.16 136.93 474.338 137.484 476.173C138.107 478.286 139.077 479.602 141.501 481.576C147.25 486.251 155.839 490.372 164.843 492.727C169.761 494.009 177.622 495.29 183.96 495.81C190.921 496.398 209.899 496.502 217.137 496.017C222.609 495.636 236.323 494.216 240.341 493.593C248.514 492.346 252.531 491.688 257.761 490.649C264.375 489.333 265.83 488.675 267.596 486.147C269.12 483.896 269.328 482.164 268.67 476.45C268.358 473.68 268.185 471.359 268.289 471.255C268.358 471.186 270.124 471.325 272.237 471.602C282.696 472.952 298.28 473.126 307.25 471.948C317.778 470.597 329.276 467.307 332.462 464.675C335.752 462.009 336.237 458.719 334.263 452.381C328.722 434.649 325.57 412.139 324.808 384.537L324.566 376.121L325.57 376.329C328.064 376.814 334.99 377.61 339.735 377.922C346.453 378.372 364.981 378.372 371.423 377.922C384.826 376.987 400.583 374.078 408.237 371.134C408.93 370.892 409.726 370.649 409.969 370.649C410.246 370.649 410.73 371.861 411.181 373.662C411.596 375.359 412.427 378.338 412.981 380.346C418.003 397.801 419.146 413.732 416.93 435.065C415.821 445.905 412.358 463.671 409.726 472.121C407.44 479.463 407.336 480.641 408.93 483.792C410.419 486.84 412.012 487.636 424.237 491.515C436.046 495.29 450.488 498.476 460.462 499.515C466.661 500.173 480.41 499.723 488.445 498.649C502.99 496.675 521.761 492.554 533.293 488.848C537.899 487.359 540.427 484.346 540.427 480.329C540.427 478.805 540.081 477.524 538.869 474.545C538.003 472.433 537.31 470.493 537.31 470.216C537.31 469.766 538.523 469.697 545.414 469.697C563.943 469.697 577.691 468.035 586.384 464.779C592.999 462.286 594.73 458.164 592.41 450.649C587.181 433.887 583.51 402.338 582.332 363.758C581.778 345.022 581.986 328.156 583.025 312.641C583.475 306.13 584.618 296.294 585.276 293.074C588.67 277.039 599.995 260.589 616.791 247.186C620.531 244.208 625.414 240.779 625.899 240.779C626.072 240.779 627.319 241.437 628.601 242.234C633.311 245.108 641.761 249.091 647.856 251.307C649.414 251.896 649.726 252.208 653.259 257.506C672.895 286.771 681.934 313.091 675.562 322.338C674.384 324.035 671.856 325.801 670.124 326.113C666.592 326.771 660.947 321.645 655.648 312.987C652.497 307.792 648.064 298.511 646.748 294.286C645.57 290.615 643.562 288.052 640.895 286.944C637.847 285.662 629.605 285.766 623.717 287.186C614.644 289.333 604.012 294.459 595.215 300.935C590.852 304.156 589.709 307.03 590.782 312.052C592.098 318.216 594.938 327.29 597.466 333.385C605.224 352.294 617.241 367.983 631.683 378.13C640.791 384.537 651.458 388.9 661.466 390.39C665.865 391.048 674.453 391.117 678.956 390.528C700.254 387.827 722.142 373.558 733.259 355.169C736.895 349.108 739.873 340.9 741.362 332.693C742.055 328.814 742.159 327.117 742.159 319.567C742.159 311.151 742.09 310.147 740.739 302.147C739.008 291.654 734.886 279.221 729.276 267.446C727.648 264.087 723.215 256.017 721.622 253.662C720.964 252.623 720.549 251.688 720.722 251.55C720.895 251.411 722.765 250.684 724.843 249.957C747.804 242.026 764.393 230.355 774.956 214.771C780.323 206.805 783.96 197.489 785.414 187.792C786.142 183.117 785.969 172.97 785.137 170.753C783.891 167.463 780.531 165.143 776.964 165.177C774.401 165.212 773.12 165.801 769.103 168.848C753.137 180.97 734.782 190.182 717.051 195.065C713.622 196 707.666 197.247 707.527 197.074C707.492 197.004 707.077 195.861 706.592 194.545C706.107 193.195 705.241 190.944 704.687 189.524C702.54 184.121 692.358 158.736 691.008 155.411C690.211 153.506 689.172 150.84 688.653 149.524C687.198 145.784 682.072 132.97 681.726 132.208C681.553 131.827 680.306 128.71 678.956 125.281C677.605 121.853 676.22 118.355 675.839 117.489C675.492 116.623 674.453 114.13 673.553 111.948C669.57 102.355 663.371 91.8961 656.583 83.3766C652.497 78.2857 644.462 70.3203 639.059 65.9913C622.921 53.0735 604.566 44.9004 584.064 41.5064C578.488 40.606 572.393 40.0865 562.592 39.7402C559.44 39.6017 556.774 39.4285 556.67 39.29C556.566 39.1515 554.592 36.935 552.306 34.3722C550.02 31.8095 547.388 29.0043 546.453 28.1731C545.518 27.3419 543.891 25.8528 542.852 24.8484C535.44 17.9567 523.423 9.99127 515.111 6.4588C502.782 1.22937 493.605 -0.640747 485.778 0.502106ZM494.436 18.0952C503.994 20.0692 514.142 24.7792 523.25 31.5324C532.566 38.4588 541.466 47.6709 548.531 57.7142C549.951 59.6883 550.54 60.2424 552.341 61.0735C556.22 62.909 559.994 62.0779 562.8 58.8224L564.185 57.1948L569.691 57.5757C587.804 58.7878 601.865 63.0129 616.618 71.7056C629.328 79.1515 640.999 90.4069 649.241 103.117C652.982 108.9 655.821 114.684 659.596 124.208C660.739 127.082 661.813 129.749 661.986 130.13C662.159 130.511 663.233 133.143 664.375 136.017C665.518 138.857 668.185 145.576 670.298 150.909C672.445 156.242 675.111 162.926 676.254 165.801C677.397 168.641 680.514 176.433 683.181 183.117C685.847 189.766 688.341 196 688.722 196.935L689.38 198.632L685.813 198.39C677.12 197.801 668.323 195.55 659.7 191.636C657.103 190.459 656.133 190.216 654.401 190.216C649.345 190.216 645.709 193.68 645.709 198.493C645.709 204.381 648.549 206.701 661.293 211.169C671.995 214.909 682.107 216.398 694.505 216.087C709.016 215.706 722.28 212.831 737.83 206.736C744.237 204.208 755.735 198.528 761.726 194.961C764.116 193.541 766.124 192.502 766.159 192.675C766.332 193.125 765.051 196.346 763.354 199.74C759.302 207.879 751.821 215.983 742.713 222.043C731.042 229.835 714.349 236.069 698.003 238.771C691.562 239.809 676.843 239.913 670.471 238.909C651.181 235.931 633.137 226.788 619.319 213.004C616.86 210.58 614.263 208.26 613.501 207.879C610.592 206.39 607.787 206.632 604.739 208.571C603.423 209.403 602.869 210.061 602.072 211.792C599.856 216.398 600.826 219.203 606.782 225.195C608.93 227.411 610.73 229.281 610.73 229.385C610.73 229.489 609.449 230.597 607.891 231.809C602.384 236.035 598.505 239.532 593.207 245.004C578.419 260.208 569.518 277.42 567.129 295.325C564.427 315.342 563.908 356.138 565.882 387.273C567.406 410.961 569.518 428.797 572.497 443.203C573.189 446.424 573.743 449.333 573.778 449.61C573.847 449.991 573.016 450.268 570.384 450.719C565.362 451.584 557.501 452 543.648 452.139L531.492 452.277L530.419 447.913C526.263 430.667 524.843 416.71 524.843 392.26C524.843 376.26 525.397 365.385 527.129 349.004C528.652 334.147 531.769 316.796 534.02 310.424C534.817 308.173 534.678 305.333 533.709 303.255C530.765 296.918 521.969 296.537 518.401 302.597C515.181 308.104 510.471 334.736 508.739 357.316C507.665 371.342 507.492 374.909 507.285 387.446C507.077 400.502 507.423 410.649 508.393 421.939C509.743 437.281 512.999 452.97 518.02 468.416L519.925 474.234L519.025 474.58C515.631 475.896 498.038 479.532 488.479 480.918C472.722 483.238 461.917 482.857 446.99 479.532C439.752 477.905 427.527 474.407 427.527 473.957C427.527 473.853 428.15 471.255 428.912 468.208C431.614 457.126 433.691 444.762 434.869 432.814C435.458 426.857 435.458 405.697 434.869 400.606C433.726 390.771 432.652 385.576 428.981 372.381C423.129 351.082 420.289 329.957 420.046 305.749C419.977 297.506 419.804 292.9 419.527 292.069C417.969 287.255 411.7 284.935 407.198 287.532C405.051 288.745 403.735 290.372 403.077 292.589C402.419 294.84 402.419 314.303 403.111 323.931C403.769 333.316 405.466 347.169 406.575 352.156C406.713 352.779 406.471 353.022 405.085 353.61C387.769 360.883 350.852 363.1 324.497 358.39C309.536 355.758 294.609 350.805 281.484 344.121C277.051 341.905 270.401 338.095 268.843 336.918C268.254 336.502 268.254 336.156 269.085 330.788C269.536 327.671 270.471 321.957 271.163 318.078C271.821 314.199 272.375 310.251 272.375 309.247C272.375 307.203 271.233 304.433 269.917 303.255C268.774 302.216 266.557 301.074 265.172 300.831C263.51 300.519 260.566 301.247 258.8 302.424C256.306 304.121 255.579 305.645 254.401 312.121C250.973 330.926 248.272 351.255 246.575 371.03C245.293 386.026 245.085 391.429 245.189 406.84C245.259 419.203 245.397 421.905 246.367 431.948C247.233 441.126 249.311 461.212 250.523 472.052C250.661 473.229 250.661 474.199 250.557 474.199C250.419 474.199 248.618 474.511 246.54 474.857C224.895 478.701 200.826 479.879 182.298 477.974C173.882 477.143 165.224 474.961 159.683 472.294C154.834 469.974 155.215 470.805 156.185 464.156C157.051 458.268 158.09 448.052 158.817 438.355C159.302 431.498 159.302 404.069 158.782 394.892C157.051 363.273 153.865 337.16 150.228 324.416C149.743 322.684 148.358 318.701 147.146 315.55C137.865 291.1 130.834 266.026 126.748 243.1C123.873 226.753 123.077 217.61 123.769 207.844C124.323 199.498 124.912 196.138 127.787 184.779C129.207 179.169 130.384 174.147 130.384 173.593C130.384 172.312 132.704 165.662 135.267 159.636C138.661 151.706 141.605 146.061 147.042 137.195C152.652 128.052 163.285 115.411 172.081 107.446C194.003 87.6017 219.735 74.9264 247.96 70.0779C259.631 68.0692 253.674 68.1731 341.259 68.0692C406.471 67.9653 421.674 68.0346 421.536 68.3809C416.687 79.4978 412.635 92.3809 410.384 103.636C408.098 115.134 407.059 128.398 407.752 138.061C409.276 160.294 414.748 175.325 429.085 196.97C436.393 208.017 443.839 216.987 454.678 227.827C469.536 242.684 483.527 253.628 502.678 265.368C511.787 270.944 524.462 277.558 528.964 279.048C532.185 280.121 535.648 279.255 538.349 276.693C539.007 276.069 543.475 272.052 548.22 267.758C552.999 263.463 562.038 255.29 568.306 249.61C574.609 243.931 581.051 238.112 582.644 236.658C584.272 235.203 586.938 232.779 588.635 231.255C592.445 227.827 593.414 226.061 593.414 222.805C593.414 220 592.653 218.199 590.748 216.502C588.046 214.078 583.96 213.42 580.947 214.978C579.977 215.498 576.445 218.511 571.077 223.498C570.142 224.364 565.189 228.831 560.133 233.368C555.077 237.939 547.077 245.143 542.332 249.437C537.588 253.732 532.982 257.887 532.081 258.684C531.181 259.515 530.28 260.173 530.072 260.173C529.518 260.173 525.605 258.199 519.994 255.048C488.756 237.697 460.981 213.074 443.804 187.48C435.007 174.355 429.362 162.268 427.25 151.948C425.553 143.809 425.31 140.9 425.31 131.169C425.31 121.714 425.726 117.212 427.354 108.416C428.981 99.6883 433.172 85.9047 436.912 76.9696C442.038 64.7099 450.349 50.4761 457.83 41.1255C468.947 27.1688 480.029 18.9264 489.345 17.645C489.934 17.5757 490.523 17.4718 490.661 17.4372C490.834 17.4372 492.531 17.7142 494.436 18.0952ZM703.891 257.61C704.202 258.545 705.553 261.143 706.904 263.394C714.661 276.208 720.583 290.996 723.285 304.398C728.272 329.229 721.795 348.312 703.821 361.576C693.917 368.883 685.051 372.45 674.315 373.455C663.475 374.459 650.557 370.442 640.445 362.857C627.111 352.848 617.241 338.234 610.904 319.151C609.865 316 608.999 313.264 608.999 313.022C609.033 312.537 611.908 310.771 616.514 308.45C620.635 306.372 626.696 304.294 629.536 303.948L631.544 303.706L632.306 305.576C633.795 309.212 639.094 319.602 640.93 322.511C648.202 334.009 655.717 340.693 663.752 342.944C674.003 345.784 685.917 340.138 691.527 329.784C699.111 315.792 694.124 292.138 677.466 263.186C675.596 260 674.107 257.299 674.107 257.229C674.107 257.16 677.12 257.195 680.791 257.299C687.129 257.472 695.648 256.952 700.947 256.052C701.917 255.879 702.817 255.775 702.99 255.809C703.163 255.844 703.579 256.641 703.891 257.61ZM272.202 359.221C273.172 359.879 283.215 364.381 287.614 366.147C291.873 367.809 298.973 370.234 305.276 372.104L306.834 372.554L306.904 375.325C307.769 406.978 310.02 428 314.488 446.701C315.111 449.403 315.7 451.792 315.735 452.035C315.873 452.623 313.484 453.247 307.7 454.113C301.362 455.082 295.371 455.463 289.345 455.29C280.445 455.082 267.077 453.524 266.28 452.623C265.969 452.277 264.652 440.19 263.336 425.299C262.401 414.459 262.401 395.515 263.371 381.039C263.787 374.874 265.38 357.835 265.657 356.519C265.795 355.758 265.865 355.758 268.843 357.351C270.505 358.251 272.029 359.082 272.202 359.221Z" fill="#F88D2A"/>
<path d="M603.977 119.706C600.825 121.195 598.99 124.069 598.955 127.533C598.955 132.416 602.868 136.329 607.786 136.329C614.228 136.294 618.488 129.403 615.578 123.723C613.362 119.394 608.306 117.662 603.977 119.706Z" fill="#F88D2A"/>
</g>
<defs>
<clipPath id="clip0_2014_804">
<rect width="785.714" height="500" fill="white" transform="translate(0.167969)"/>
</clipPath>
</defs>
</svg>
