<svg width="564" height="500" viewBox="0 0 564 500" fill="none" xmlns="http://www.w3.org/2000/svg">
<path d="M184.441 14.758C184.969 14.7592 185.495 14.8015 186.016 14.886C192.021 15.8591 195.721 22.1649 197.392 25.8333C201.161 35.0974 202.206 45.2456 200.402 55.0841C197.136 75.2685 184.966 88.8279 175.652 88.8279C175.125 88.831 174.597 88.7872 174.077 88.6997C168.071 87.7331 164.371 81.4279 162.701 77.7529C158.932 68.4883 157.888 58.3403 159.691 48.5028C162.957 28.3172 175.127 14.758 184.441 14.758ZM184.441 1.9541C167.47 1.9541 151.184 20.9038 147.055 46.4539C142.625 73.8216 153.808 98.3924 172.021 101.343C173.22 101.535 174.432 101.631 175.645 101.632C192.617 101.632 208.896 82.682 213.033 57.132C217.462 29.764 206.279 5.19347 188.065 2.24868C186.867 2.05212 185.656 1.9541 184.441 1.9541Z" fill="#F88D2A"/>
<path d="M241.259 99.1288C243.192 99.1205 245.109 99.4944 246.899 100.23C251.789 102.607 255.359 107.049 256.63 112.336C258.542 119.861 257.899 127.809 254.799 134.928C249.908 146.688 239.819 154.895 230.266 154.895C228.329 154.905 226.41 154.528 224.621 153.788C219.738 151.419 216.17 146.993 214.889 141.72C212.976 134.193 213.621 126.243 216.721 119.122C221.611 107.368 231.701 99.1538 241.259 99.1538M241.259 86.3507C226.867 86.3507 211.996 97.1444 204.902 114.205C196.035 135.524 202.661 158.551 219.704 165.638C223.052 167.026 226.642 167.735 230.266 167.725C244.658 167.725 259.524 156.932 266.623 139.87C275.489 118.552 268.857 95.5246 251.815 88.4371C248.47 87.0507 244.881 86.3413 241.259 86.3507Z" fill="#F88D2A"/>
<path d="M87.2226 14.7325C96.5372 14.7325 108.707 28.2917 111.972 48.4769C113.776 58.3144 112.732 68.4634 108.963 77.7269C107.292 81.4019 103.592 87.7082 97.5872 88.6749C97.0664 88.7592 96.5393 88.8019 96.0122 88.803C86.6976 88.803 74.5268 75.2436 71.2623 55.0644C69.457 45.2248 70.5011 35.0739 74.2716 25.8078C75.9424 22.1331 79.6424 15.8272 85.6476 14.8605C86.1674 14.776 86.6945 14.7338 87.2226 14.7325ZM87.2226 1.92871C86.008 1.92934 84.7976 2.026 83.5986 2.21673C65.379 5.16808 54.1948 29.745 58.6314 57.1071C62.767 82.6571 79.0466 101.606 96.0184 101.606C97.232 101.606 98.4434 101.509 99.6424 101.319C117.862 98.3665 129.046 73.7905 124.609 46.428C120.474 20.8783 104.193 1.92871 87.2226 1.92871Z" fill="#F88D2A"/>
<path d="M30.3987 99.1226C39.9503 99.1226 50.0398 107.336 54.9309 119.09C58.0307 126.211 58.6747 134.161 56.7618 141.688C55.491 146.974 51.9207 151.413 47.0309 153.788C45.2396 154.525 43.321 154.902 41.3844 154.896C31.8327 154.896 21.7434 146.682 16.8523 134.922C13.7523 127.803 13.1082 119.855 15.0214 112.33C16.2922 107.045 19.8623 102.605 24.7522 100.23C26.5423 99.4893 28.4618 99.1132 30.3987 99.1226ZM30.3987 86.3185C26.7743 86.3091 23.184 87.0185 19.8356 88.406C2.79368 95.4924 -3.85153 118.494 5.03441 139.838C12.1276 156.9 26.9929 167.7 41.3844 167.7C45.0098 167.71 48.6007 166.999 51.9475 165.606C68.9894 158.519 75.6349 135.517 66.7551 114.174C59.6554 97.1122 44.7902 86.3185 30.3987 86.3185Z" fill="#F88D2A"/>
<path d="M135.441 125.837C143.84 125.81 151.816 129.52 157.208 135.959L157.316 136.094L157.438 136.228C161.815 141.205 164.845 147.22 166.241 153.699C169.254 166 174.997 177.465 183.045 187.245L187.675 193.006C192.031 198.232 196.97 202.939 202.399 207.039C207.437 211.005 211.51 216.061 214.313 221.828C218.717 230.799 219.705 241.066 217.091 250.713C216.686 252.314 216.144 253.878 215.471 255.386C209.1 269.691 192.338 276.122 178.034 269.75C177.922 269.7 177.811 269.65 177.701 269.599C175.762 268.791 173.89 267.83 172.105 266.725C162.241 260.218 150.683 256.753 138.866 256.763H138.028L129.705 257.026C118.579 257.569 107.786 261.005 98.3933 266.994C96.8266 267.98 95.1725 268.823 93.4516 269.509L93.2787 269.58L93.1058 269.65C89.4235 271.246 85.4537 272.068 81.4412 272.063C68.3455 272.208 56.8866 263.285 53.8169 250.553C51.2575 240.905 52.3304 230.654 56.8322 221.745C59.5383 216.089 63.4992 211.125 68.4133 207.231C73.9141 203.091 78.9235 198.336 83.3422 193.058L83.4516 192.93L83.5537 192.796L87.7985 187.436C95.9495 177.557 101.753 165.955 104.769 153.507C106.255 146.999 109.344 140.966 113.758 135.959C119.134 129.547 127.072 125.84 135.441 125.837ZM135.441 113.034C125.802 113.035 116.471 116.435 109.091 122.636C107.222 124.203 105.495 125.932 103.931 127.803C98.2016 134.355 94.1954 142.232 92.2735 150.722C89.7183 161.203 84.8141 170.965 77.9329 179.275L73.5156 184.844C69.7283 189.376 65.4319 193.457 60.7118 197.007C54.1582 202.137 48.8766 208.709 45.2768 216.213C39.4523 227.876 38.0862 241.264 41.4357 253.863C44.5739 265.586 52.5641 275.414 63.4006 280.879C74.3672 286.056 87.0308 286.266 98.1631 281.455C100.616 280.481 102.973 279.28 105.205 277.871C112.73 273.061 121.381 270.303 130.301 269.868L138.431 269.611H138.866C148.233 269.612 157.391 272.374 165.197 277.55C167.606 279.054 170.132 280.36 172.752 281.455C193.522 290.724 217.875 281.398 227.142 260.626C228.116 258.445 228.897 256.181 229.479 253.863C232.842 241.278 231.523 227.9 225.766 216.213C222.123 208.721 216.826 202.154 210.274 197.007C205.551 193.46 201.254 189.379 197.469 184.844L192.988 179.275C186.111 170.962 181.209 161.201 178.647 150.722C176.776 142.215 172.766 134.328 166.996 127.803C159.185 118.454 147.623 113.059 135.441 113.079V113.034Z" fill="#F88D2A"/>
<path d="M472.584 226.014C473.114 226.015 473.643 226.058 474.166 226.142C480.165 227.115 483.865 233.421 485.535 237.09C489.304 246.354 490.349 256.503 488.545 266.34C485.279 286.532 473.109 300.085 463.795 300.085C463.267 300.086 462.741 300.044 462.22 299.963C456.215 298.99 452.515 292.684 450.844 289.009C447.075 279.745 446.03 269.596 447.834 259.759C451.1 239.573 463.27 226.014 472.584 226.014ZM472.584 213.211C455.614 213.211 439.333 232.166 435.197 257.716C430.768 285.079 441.951 309.656 460.165 312.601C461.363 312.794 462.574 312.891 463.789 312.888C480.759 312.888 497.078 293.939 501.175 268.389C505.605 241.027 494.422 216.449 476.208 213.505C475.01 213.309 473.798 213.21 472.584 213.211Z" fill="#F88D2A"/>
<path d="M529.376 310.405C531.309 310.397 533.226 310.77 535.016 311.506C539.904 313.882 543.474 318.32 544.747 323.605C546.659 331.133 546.016 339.083 542.916 346.204C538.025 357.958 527.935 366.172 518.383 366.172C516.447 366.181 514.527 365.804 512.738 365.064C507.848 362.689 504.277 358.25 503.006 352.964C501.094 345.439 501.738 337.491 504.838 330.372C509.728 318.612 519.818 310.405 529.376 310.405ZM529.376 297.601C514.984 297.601 500.113 308.394 493.02 325.455C484.153 346.774 490.779 369.802 507.827 376.888C511.173 378.277 514.762 378.986 518.383 378.976C532.775 378.976 547.641 368.176 554.741 351.12C563.607 329.802 556.974 306.775 539.932 299.688C536.587 298.301 532.998 297.591 529.376 297.601Z" fill="#F88D2A"/>
<path d="M375.365 226.002C384.681 226.002 396.851 239.562 400.115 259.741C401.921 269.581 400.877 279.731 397.107 288.997C395.436 292.666 391.735 298.971 385.731 299.944C385.21 300.028 384.683 300.071 384.156 300.072C374.842 300.072 362.671 286.513 359.406 266.328C357.602 256.49 358.646 246.342 362.414 237.077C364.086 233.403 367.786 227.097 373.784 226.124C374.308 226.041 374.836 226.001 375.365 226.002ZM375.365 213.198C374.152 213.198 372.94 213.295 371.743 213.487C353.523 216.438 342.338 241.015 346.775 268.37C350.904 293.926 367.184 312.876 384.162 312.876C385.376 312.876 386.587 312.778 387.785 312.582C406.005 309.637 417.189 285.053 412.753 257.698C408.618 232.148 392.337 213.192 375.365 213.198Z" fill="#F88D2A"/>
<path d="M318.465 310.405C328.024 310.405 338.113 318.612 342.998 330.372C346.101 337.49 346.745 345.439 344.829 352.964C343.562 358.252 339.99 362.692 335.098 365.064C333.31 365.804 331.392 366.181 329.458 366.172C319.9 366.172 309.816 357.958 304.926 346.204C301.826 339.085 301.182 331.137 303.095 323.611C304.362 318.323 307.933 313.881 312.826 311.506C314.615 310.77 316.532 310.397 318.465 310.405ZM318.465 297.601C314.843 297.591 311.255 298.301 307.909 299.688C290.867 306.775 284.222 329.777 293.102 351.12C300.195 368.182 315.066 378.976 329.458 378.976C333.08 378.985 336.668 378.277 340.014 376.888C357.063 369.802 363.702 346.8 354.822 325.455C347.729 308.394 332.857 297.601 318.465 297.601Z" fill="#F88D2A"/>
<path d="M423.573 337.108C431.976 337.087 439.952 340.805 445.338 347.254L445.448 347.389L445.57 347.523C449.946 352.501 452.976 358.516 454.372 364.994C457.382 377.297 463.126 388.763 471.177 398.54L475.812 404.302C480.168 409.525 485.108 414.231 490.536 418.328C495.574 422.297 499.648 427.355 502.45 433.123C506.854 442.091 507.842 452.354 505.229 461.996C504.824 463.601 504.282 465.169 503.609 466.682C497.242 480.977 480.492 487.403 466.197 481.036C466.087 480.987 465.979 480.938 465.87 480.888C463.931 480.077 462.057 479.117 460.269 478.014C450.405 471.504 438.846 468.041 427.029 468.052H426.152L418.073 468.321C406.924 468.867 396.11 472.316 386.704 478.327C372.812 487.24 354.327 483.204 345.413 469.314C343.919 466.983 342.754 464.454 341.954 461.803C339.395 452.156 340.468 441.904 344.97 432.995C347.677 427.342 351.637 422.38 356.551 418.489C362.052 414.347 367.06 409.589 371.48 404.309L371.588 404.18L371.692 404.046L375.935 398.688C384.087 388.807 389.889 377.205 392.907 364.758C394.388 358.259 397.469 352.234 401.87 347.228C407.243 340.804 415.184 337.09 423.559 337.081M423.559 324.278C413.921 324.279 404.59 327.68 397.209 333.88C395.338 335.445 393.609 337.172 392.043 339.041C386.318 345.596 382.314 353.472 380.392 361.96C377.837 372.441 372.934 382.205 366.051 390.512L361.634 396.088C357.846 400.619 353.549 404.7 348.83 408.252C342.276 413.381 336.994 419.953 333.395 427.458C327.571 439.118 326.204 452.504 329.554 465.101C336.161 487.743 359.873 500.742 382.514 494.135C386.422 492.995 390.146 491.302 393.573 489.108C401.101 484.3 409.754 481.542 418.675 481.105L426.549 480.849H426.978C436.347 480.849 445.508 483.611 453.316 488.788C455.724 490.292 458.25 491.598 460.87 492.693C481.641 501.961 505.993 492.636 515.26 471.865C516.234 469.682 517.016 467.419 517.597 465.101C520.959 452.517 519.639 439.142 513.884 427.458C510.242 419.964 504.945 413.397 498.392 408.252C493.67 404.703 489.374 400.621 485.587 396.088L481.106 390.512C474.224 382.205 469.32 372.441 466.767 361.96C464.895 353.453 460.884 345.566 455.115 339.041C447.304 329.692 435.743 324.297 423.559 324.317V324.278Z" fill="#F88D2A"/>
</svg>
