<svg width="501" height="500" viewBox="0 0 501 500" fill="none" xmlns="http://www.w3.org/2000/svg">
<path d="M268.656 212.763C271.38 215.219 271.598 219.418 269.143 222.142C268.798 222.52 236.975 258.008 227.014 328.592M268.656 212.763L227.014 328.592M268.656 212.763C265.979 210.349 261.865 210.513 259.388 213.13L268.656 212.763ZM227.014 328.592L228.499 328.801C228.559 328.375 228.62 327.949 228.682 327.525C228.273 327.407 227.865 327.285 227.457 327.159L227.014 328.592ZM191.463 308.842C186.798 304.336 182.73 299.249 179.361 293.706L179.353 293.694L179.346 293.682C168.214 276.127 164.641 254.821 169.435 234.595C174.437 215.265 187.132 198.823 204.57 189.093L204.593 189.08L204.616 189.066C236.014 170.054 264.722 146.927 289.979 120.3C326.02 183.124 340.963 233.912 314.006 285.768L311.1 291.029L191.463 308.842ZM191.463 308.842C191.46 308.839 191.457 308.836 191.454 308.833L190.431 309.93L191.473 308.851C191.47 308.848 191.467 308.845 191.463 308.842ZM219.654 404.459L226.755 343.878C233.277 345.533 239.977 346.389 246.708 346.427H246.716C249.303 346.428 251.888 346.29 254.461 346.013L254.463 346.013C284.343 342.753 310.774 325.174 325.335 298.879C365.38 228.913 335.253 162.851 293.678 94.6447L292.605 92.8828L291.26 94.4479C264.042 126.129 232.011 153.329 196.34 175.055C148.836 203.084 138.916 258.61 165.456 302.177C169.553 308.912 174.497 315.094 180.165 320.572L180.174 320.58L180.184 320.589C188.685 328.53 198.779 334.568 209.796 338.303C209.799 338.304 209.802 338.305 209.805 338.306L210.944 338.711C210.899 339.103 210.853 339.498 210.807 339.896C210.665 341.112 210.52 342.351 210.408 343.597L203.478 402.625L203.477 402.635L203.476 402.644C201.692 419.68 191.136 434.544 175.641 441.845L175.634 441.848L175.628 441.851C160.446 449.184 142.536 448.057 128.394 438.876L128.39 438.873C24.2189 371.759 -5.82143 232.905 61.292 128.735C128.406 24.5639 267.259 -5.47661 371.43 61.6376L372.243 60.3766L371.43 61.6376C464.234 121.427 499.672 239.756 455.289 340.607C447.666 333.423 438.494 328.069 428.47 324.966L428.457 324.962L428.443 324.958C401.527 317.176 372.51 324.641 352.69 344.443L352.69 344.443L317.15 379.978L316.089 381.039L317.15 382.1L334.915 399.866L334.92 399.87L341.44 406.441L310.641 437.241C310.637 437.245 310.634 437.248 310.63 437.251C307.406 440.377 307.32 445.521 310.44 448.752C313.563 451.987 318.718 452.076 321.951 448.953L321.957 448.947C322.016 448.89 322.079 448.827 322.143 448.76C322.147 448.756 322.152 448.751 322.156 448.746L352.946 417.957L387.92 452.93L357.125 483.726C357.121 483.729 357.118 483.733 357.114 483.736C353.889 486.86 353.804 492.006 356.924 495.237L356.924 495.238C360.047 498.47 365.199 498.561 368.433 495.439C368.501 495.374 368.563 495.311 368.621 495.252C368.624 495.249 368.627 495.246 368.629 495.244L399.431 464.442L405.981 470.991L405.981 470.991L423.744 488.761L424.805 489.822L425.866 488.761L461.407 453.222C481.167 433.48 488.659 404.571 480.972 377.718L480.969 377.707L480.966 377.696C478.231 368.646 473.61 360.281 467.412 353.151C524.07 233.581 473.43 90.5933 353.978 33.3977L353.33 34.7506L353.978 33.3977C326.701 20.3376 297.207 12.5407 267.04 10.4168C200.34 5.43665 134.613 28.6846 85.879 74.4951C-11.2722 165.152 -16.5371 317.401 74.1198 414.552C87.6382 429.041 102.895 441.802 119.543 452.549C129.968 459.322 142.131 462.933 154.564 462.943H154.57C187.977 462.834 215.983 437.67 219.653 404.464C219.653 404.462 219.653 404.461 219.654 404.459ZM213.023 322.182C212.945 322.684 212.868 323.189 212.791 323.696C213.269 323.872 213.749 324.043 214.231 324.208C214.307 323.704 214.383 323.201 214.46 322.7C213.979 322.533 213.5 322.36 213.023 322.182ZM246.757 330.179C246.755 330.179 246.752 330.179 246.75 330.179V331.679L246.766 330.179C246.763 330.179 246.76 330.179 246.757 330.179ZM339.105 381.058L364.188 355.975L364.192 355.971C375.522 344.57 390.943 338.176 407.017 338.219H407.022C412.729 338.218 418.408 339.019 423.893 340.599C432.467 343.315 440.221 348.145 446.439 354.644L446.449 354.655L446.46 354.665L451.327 359.553L451.339 359.564L451.35 359.575C457.833 365.811 462.638 373.58 465.323 382.165C471.35 403.334 465.447 426.108 449.895 441.683L424.812 466.747L417.492 459.426L416.431 460.487L417.492 459.426L346.437 388.372L346.436 388.371L339.105 381.058ZM311.1 291.03C299.108 312.682 277.347 327.16 252.744 329.855L311.1 291.03Z" fill="#F88D2A" stroke="#F88D2A" stroke-width="3"/>
</svg>
