<svg width="610" height="500" viewBox="0 0 610 500" fill="none" xmlns="http://www.w3.org/2000/svg">
<path d="M20.9048 487.698C25.109 489.924 29.8769 491.096 34.7305 491.098H575.151C590.422 491.084 602.79 479.71 602.774 465.694C602.769 461.247 601.491 456.881 599.07 453.03L328.915 21.5909C321.317 9.43185 304.42 5.22685 291.173 12.1988C286.913 14.4404 283.381 17.6819 280.939 21.5909L10.7843 453.03C3.14886 465.168 7.6799 480.689 20.9048 487.698ZM22.7712 459.374L292.933 27.9356C294.152 25.9801 295.918 24.359 298.049 23.2405C300.134 22.1156 302.508 21.5217 304.927 21.521C309.889 21.5369 314.463 23.9822 316.928 27.9356L587.096 459.374C590.914 465.444 588.648 473.205 582.036 476.709C579.942 477.818 577.568 478.404 575.151 478.409H34.7166C27.0809 478.395 20.9035 472.702 20.9189 465.694C20.9238 463.475 21.5625 461.296 22.7712 459.374Z" fill="#F88D2A"/>
<path d="M305.024 398.067C322.548 398.094 336.778 385.078 336.808 368.994C336.833 355.366 326.558 343.545 312.074 340.54H311.839V199.243H298.014V340.552C280.929 344.13 270.238 359.741 274.137 375.422C277.426 388.654 290.237 398.046 305.024 398.067Z" fill="#F88D2A"/>
<path d="M304.927 423.02H310.111C342.638 420.263 366.572 393.825 363.567 363.972C362.026 348.655 353.476 334.656 340.044 325.457V168.388C340.1 167.335 340.1 166.282 340.044 165.215C339.13 148.027 323.677 134.523 304.927 134.526C304.346 134.526 303.759 134.526 303.171 134.565C283.893 135.428 268.974 150.389 269.74 168.09V325.127C243.515 343.026 238.064 377.047 257.565 401.117C268.705 414.865 286.259 422.985 304.927 423.02ZM277.966 335.311L283.545 331.504V167.766V167.449C283.3 162.355 285.293 157.384 289.076 153.649C292.87 149.774 298.198 147.456 303.869 147.216C304.222 147.216 304.56 147.216 304.913 147.216C316.298 147.211 325.679 155.414 326.226 165.85C326.226 166.485 326.226 167.157 326.226 167.805V168.103V331.846L331.818 335.654C351.862 349.419 355.952 375.491 340.954 393.887C333.405 403.146 321.997 409.104 309.468 410.331H304.927C279.881 410.28 259.623 391.604 259.68 368.617C259.712 355.489 266.49 343.145 277.966 335.311Z" fill="#F88D2A"/>
</svg>
