<svg width="637" height="500" viewBox="0 0 637 500" fill="none" xmlns="http://www.w3.org/2000/svg">
<path d="M589.367 325.994V275.568C589.367 241.477 530.123 218.75 458.567 209.517V169.034C458.567 157.67 451.643 142.045 420.097 127.131V76.7044C420.097 30.5396 313.149 5.68164 212.356 5.68164C111.563 5.68164 4.61523 30.5396 4.61523 76.7044V133.523C4.61523 150.568 19.234 164.773 43.0858 176.136V225.852C43.0858 225.852 43.0858 225.852 43.0858 226.562C11.5399 241.477 4.61523 257.812 4.61523 268.466V325.284C4.61523 371.449 111.563 396.307 212.356 396.307V424.716C212.356 470.88 319.304 495.738 420.097 495.738C520.89 495.738 627.838 470.88 627.838 424.716V367.898C627.838 357.244 620.913 340.909 589.367 325.994ZM612.45 368.608C612.45 395.596 533.2 425.426 420.097 425.426C330.076 425.426 261.598 406.25 236.977 384.943C283.911 398.437 332.384 404.829 380.857 404.119C474.725 404.119 574.748 382.102 587.059 342.329C603.986 350.142 612.45 359.375 612.45 368.608ZM481.65 436.079V478.693C471.647 479.403 461.645 480.824 450.873 480.824V438.21C461.645 438.21 471.647 437.5 481.65 436.079ZM497.038 434.659C507.81 433.238 517.812 431.818 527.814 429.687V471.591C518.581 473.721 507.81 475.142 497.038 476.562V434.659ZM543.203 426.136C553.974 424.005 563.977 420.454 573.979 416.903V458.096C563.977 462.358 553.974 465.199 543.203 468.04V426.136ZM296.991 468.04C286.219 465.199 276.217 462.358 266.215 458.096V416.903C276.217 420.454 286.219 423.295 296.991 426.136V468.04ZM312.379 429.687C322.382 431.818 332.384 433.238 343.156 434.659V477.273C332.384 475.852 321.612 473.721 312.379 472.301V429.687ZM358.544 436.079C368.546 436.79 379.318 438.21 389.32 438.21V480.824C378.549 480.113 368.546 479.403 358.544 478.693V436.079ZM173.886 276.278V278.409C163.114 276.988 152.342 274.858 143.109 273.437V231.534C153.111 233.665 163.114 235.085 173.886 236.505V276.278ZM189.274 333.096V304.687C196.198 310.369 203.893 315.341 212.356 318.892V359.375C197.737 350.142 189.274 341.619 189.274 333.096ZM573.979 333.096C573.979 341.619 565.516 350.852 550.897 358.665V318.182C559.36 314.63 567.054 309.659 573.979 303.977V333.096ZM535.508 365.767C525.506 370.028 515.504 372.869 504.732 375.71V333.807C515.504 331.676 525.506 328.125 535.508 324.574V365.767ZM489.344 379.261C480.111 381.392 469.339 382.812 458.567 384.233V341.619C469.339 340.199 479.342 338.778 489.344 336.648V379.261ZM443.179 386.363C433.177 387.074 423.175 388.494 412.403 388.494V345.88C422.405 345.17 433.177 344.46 443.179 343.75V386.363ZM397.015 389.204C391.629 389.204 387.012 389.204 381.626 389.204C376.241 389.204 371.624 389.204 366.238 389.204V346.591C371.624 346.591 376.241 346.591 381.626 346.591C387.012 346.591 391.629 346.591 397.015 346.591V389.204ZM350.85 389.204C340.078 388.494 330.076 387.784 320.074 387.074V344.46C330.076 345.17 340.848 346.591 350.85 346.591V389.204ZM304.685 384.943C293.914 383.523 283.142 381.392 273.909 379.971V338.068C283.911 340.199 293.914 341.619 304.685 343.04V384.943ZM258.521 375.71C247.749 372.869 237.747 370.028 227.744 365.767V324.574C237.747 328.125 247.749 330.966 258.521 333.807V375.71ZM573.979 276.278C573.979 303.267 494.73 333.096 381.626 333.096C268.523 333.096 189.274 303.267 189.274 276.278C189.274 249.29 268.523 219.46 381.626 219.46C494.73 219.46 573.979 249.29 573.979 276.278ZM189.274 247.869V237.216C193.89 237.926 198.507 237.926 203.123 238.636C198.507 241.477 193.89 244.318 189.274 247.869ZM430.099 206.676C434.716 203.835 439.332 200.994 443.949 197.443V208.096C438.563 207.386 434.716 207.386 430.099 206.676ZM418.558 142.755C434.716 151.278 443.179 160.511 443.179 169.034C443.179 181.108 426.252 194.602 397.784 204.545C392.398 204.545 387.012 204.545 381.626 204.545C327.768 204.545 271.601 211.648 231.591 225.852C150.803 223.721 90.7892 205.966 68.4763 186.079C115.41 199.574 163.883 205.966 212.356 205.255C306.224 205.255 406.248 183.238 418.558 142.755ZM127.721 227.273V269.176C116.949 266.335 106.947 263.494 96.9445 259.233V218.04C106.947 221.591 117.719 225.142 127.721 227.273ZM81.5563 211.648V252.13C66.9375 243.608 58.474 235.085 58.474 226.562V198.153C65.3987 203.125 73.0928 208.096 81.5563 211.648ZM58.474 166.903V125.71C68.4763 129.261 78.4786 132.102 89.2504 134.943V176.846C79.2481 174.005 68.4763 171.165 58.474 166.903ZM104.639 180.398V138.494C114.641 140.625 124.643 142.045 135.415 143.466V186.079C124.643 184.659 114.641 182.528 104.639 180.398ZM150.803 187.5V144.886C160.806 145.596 171.577 147.017 181.58 147.017V189.63C170.808 189.63 160.806 188.92 150.803 187.5ZM196.968 190.341V147.727C202.354 147.727 206.97 147.727 212.356 147.727C217.742 147.727 222.358 147.727 227.744 147.727V190.341C222.358 190.341 217.742 190.341 212.356 190.341C206.97 190.341 202.354 191.051 196.968 190.341ZM243.133 190.341V147.727C253.135 147.017 263.907 146.307 273.909 145.596V188.21C263.907 188.92 253.904 189.63 243.133 190.341ZM289.297 186.079V143.466C300.069 142.045 310.071 140.625 320.074 138.494V180.398C310.841 182.528 300.069 184.659 289.297 186.079ZM335.462 176.846V134.943C346.234 132.812 356.236 129.261 366.238 125.71V166.903C356.236 171.165 346.234 174.005 335.462 176.846ZM381.626 159.801V119.318C390.09 115.767 397.784 110.795 404.709 105.113V133.523C404.709 142.755 397.015 151.278 381.626 159.801ZM43.0858 159.801C28.467 151.278 20.0034 142.755 20.0034 134.233V105.824C26.9281 111.506 34.6222 116.477 43.0858 120.028V159.801ZM20.0034 77.4146C20.0034 50.426 99.2527 20.5964 212.356 20.5964C325.459 20.5964 404.709 50.426 404.709 77.4146C404.709 104.403 325.459 134.233 212.356 134.233C99.2527 134.233 20.0034 103.693 20.0034 77.4146ZM46.9328 240.767C60.7822 267.045 113.102 284.091 173.886 291.903V323.863C81.5563 318.182 20.0034 291.903 20.0034 268.466C20.0034 259.233 30.0058 250 46.9328 240.767ZM43.0858 351.562C28.467 343.04 20.0034 334.517 20.0034 325.994V297.585C26.9281 303.267 34.6222 308.238 43.0858 311.79V351.562ZM89.2504 368.608C78.4786 365.767 68.4763 362.926 58.474 358.665V317.471C68.4763 321.023 78.4786 323.863 89.2504 326.704V368.608ZM135.415 377.841C124.643 376.42 113.872 374.29 104.639 372.869V330.966C114.641 333.096 124.643 334.517 135.415 335.937V377.841ZM150.803 336.648C158.497 337.358 166.191 338.068 174.655 338.778C175.424 343.75 178.502 348.721 181.58 353.693V382.102C170.808 381.392 160.806 380.682 150.803 379.971V336.648ZM196.968 366.477C201.584 369.318 206.97 372.159 212.356 375V382.102C206.97 382.102 202.354 382.102 196.968 382.102V366.477ZM227.744 425.426V397.017C234.669 402.699 242.363 407.67 250.827 411.221V451.704C236.208 442.471 227.744 433.949 227.744 425.426ZM404.709 438.92C410.095 438.92 414.711 438.92 420.097 438.92C425.483 438.92 430.099 438.92 435.485 438.92V481.534C430.099 481.534 425.483 481.534 420.097 481.534C414.711 481.534 410.095 481.534 404.709 481.534V438.92ZM589.367 410.511C597.831 406.96 605.525 401.988 612.45 396.307V424.716C612.45 433.238 603.986 442.471 589.367 450.284V410.511Z" fill="#F88D2A"/>
</svg>
