<svg width="610" height="500" viewBox="0 0 610 500" fill="none" xmlns="http://www.w3.org/2000/svg">
<path d="M242.417 6.1857C215.613 14.4331 196.369 26.117 142.073 67.3541C72.6575 119.588 40.3551 175.258 26.6094 265.98C23.8603 281.787 17.6747 296.22 12.1764 298.282C1.17987 302.406 -0.881985 338.144 9.42729 358.076C19.0493 375.258 45.1661 388.316 178.499 441.925C347.572 510.653 353.07 511.34 500.149 476.289C588.121 455.67 607.365 441.925 607.365 400C607.365 373.196 581.249 325.086 552.383 298.969C544.823 292.096 538.637 282.474 538.637 277.663C538.637 254.983 500.149 153.952 480.905 125.086C458.225 91.4091 399.805 45.361 342.761 17.1823C308.396 0.00012207 275.407 -3.43628 242.417 6.1857ZM327.64 26.8043C336.575 30.2407 362.692 48.7974 385.372 67.3541C415.613 92.7836 430.733 111.34 443.792 141.581C463.036 184.88 483.654 272.852 483.654 312.028C483.654 340.206 489.152 357.388 498.774 357.388C503.585 357.388 504.273 338.832 500.836 303.78C496.713 257.732 488.465 221.993 466.472 144.33C461.661 127.835 461.661 127.835 471.283 140.894C482.28 155.327 493.963 187.629 515.269 257.732C522.142 281.787 536.575 309.278 549.633 323.024C577.125 353.265 594.994 388.316 592.245 406.873C588.809 430.928 559.255 446.048 478.843 463.918C351.008 492.784 340.012 490.722 135.2 405.498C43.1043 367.698 30.0459 359.45 22.4857 341.581C14.2383 323.024 14.9256 319.588 28.6713 310.653C38.9806 303.78 43.7916 293.471 43.7916 278.351C43.7916 243.986 68.5338 170.447 91.2142 139.519C151.008 57.0448 214.238 61.1685 260.286 151.203C285.716 200.687 293.276 239.175 293.963 312.028C294.651 353.952 297.4 381.443 302.211 382.818C307.022 384.193 309.084 358.763 308.396 301.031C307.022 232.303 304.273 208.935 291.902 178.007C274.719 133.333 243.104 86.5981 222.486 75.6015C201.18 63.9177 205.991 54.9829 230.046 63.2304C281.592 81.0998 323.517 189.691 342.761 351.89C344.823 373.883 350.321 391.753 353.757 391.753C364.066 391.753 360.63 342.268 345.51 263.918C321.455 136.77 290.527 72.8524 241.042 48.7974C213.551 35.0517 213.551 35.0517 230.046 28.1788C251.352 19.2441 306.335 18.5568 327.64 26.8043Z" fill="#F88D2A"/>
<path d="M30.0459 323.024C30.0459 341.581 135.888 397.938 205.304 415.808C287.778 437.114 463.036 424.743 509.771 394.502C528.328 382.818 553.07 343.643 548.259 335.396C542.761 327.148 531.764 328.523 531.764 338.145C531.077 349.828 510.458 373.883 493.276 383.505C470.596 395.877 376.438 412.371 331.077 412.371C237.606 412.371 162.692 391.753 82.9669 343.643C34.8569 314.09 30.0459 312.715 30.0459 323.024Z" fill="#F88D2A"/>
</svg>
