<svg width="480" height="500" viewBox="0 0 480 500" fill="none" xmlns="http://www.w3.org/2000/svg">
<g clip-path="url(#clip0_2014_842)">
<path d="M256.259 24.5316L256.267 24.5316C266.043 24.4912 275.122 29.5938 280.169 37.9663L280.174 37.9737L382.25 205.666L326.606 191.392L324.672 190.896L324.173 192.829L321.172 204.46L320.671 206.399L322.611 206.897L403.624 227.672L405.562 228.169L406.059 226.232L426.839 145.219L427.335 143.284L425.401 142.785L413.772 139.785L411.832 139.285L411.335 141.225L396.654 198.531L293.85 29.6348C293.849 29.6338 293.848 29.6328 293.848 29.6318C285.901 16.4762 271.628 8.46299 256.258 8.52971C240.885 8.4721 226.612 16.4942 218.668 29.6564C218.668 29.6574 218.667 29.6584 218.667 29.6595L152.103 139.008L151.063 140.716L152.772 141.756L163.027 147.996L164.736 149.036L165.775 147.328L232.337 37.9737C237.418 29.6282 246.486 24.5332 256.259 24.5316Z" fill="#F88D2A" stroke="#F88D2A" stroke-width="4"/>
<path d="M21.249 384.76L131.359 203.892L145.617 258.137L146.126 260.071L148.06 259.563L159.666 256.514L161.601 256.006L161.092 254.071L140.089 174.259L139.58 172.325L137.646 172.834L57.8335 193.837L55.9003 194.346L56.4081 196.279L59.4566 207.885L59.9648 209.82L61.8994 209.311L118.391 194.464L7.58341 376.428C7.58241 376.43 7.58141 376.431 7.58041 376.433C-0.6991 389.845 -1.07815 406.687 6.58958 420.458L6.59693 420.472L6.60449 420.485C14.8751 434.825 30.2673 443.557 46.8191 443.298H186.234H188.234V441.298V429.296V427.296H186.234H46.4127H46.3935L46.3743 427.297C36.2783 427.491 26.7989 422.456 21.3065 413.983C15.7347 405.05 15.7095 393.729 21.2423 384.771L21.249 384.76Z" fill="#F88D2A" stroke="#F88D2A" stroke-width="4"/>
<path d="M351.047 273.26L351.004 273.259L350.96 273.26C297.882 274.332 255.717 318.218 256.767 371.294C256.777 381.659 258.383 391.957 261.529 401.832L261.534 401.845L261.538 401.857C264.606 411.06 269.228 419.669 275.203 427.313C275.206 427.316 275.209 427.32 275.212 427.324L276.335 428.805L272.679 432.373L272.662 432.389L272.646 432.405C250.649 454.882 240.324 472.243 240.324 488.442C240.324 492.861 243.907 496.442 248.325 496.442C252.744 496.442 256.326 492.861 256.326 488.442C256.326 481.786 258.832 469.404 283.942 443.724L286.418 441.326C299.009 455.154 315.711 464.605 334.089 468.26L334.102 468.263L334.115 468.265C339.604 469.284 345.176 469.798 350.76 469.799H350.76H351.324C367.705 469.798 383.776 465.323 397.8 456.858C469.432 415.366 478.233 338.955 478.233 254.527H478.048C477.452 253.103 475.967 252.545 475.871 252.56C475.837 252.566 475.788 252.577 475.771 252.581C475.745 252.587 475.722 252.593 475.715 252.595C475.695 252.6 475.673 252.606 475.654 252.611C475.614 252.622 475.558 252.638 475.489 252.657L475.278 252.715C475.169 252.746 475.041 252.781 474.872 252.828C474.331 252.978 473.531 253.199 472.495 253.481C470.424 254.045 467.408 254.853 463.636 255.824C456.092 257.766 445.528 260.358 433.452 262.95C409.263 268.144 379.151 273.307 355.105 273.307C353.729 273.307 352.376 273.291 351.047 273.26ZM389.586 443.102L389.57 443.112L389.553 443.122C378.023 450.098 364.805 453.789 351.33 453.796H350.767C350.767 453.796 350.767 453.796 350.767 453.796C346.168 453.795 341.579 453.374 337.056 452.537C321.924 449.49 308.202 441.628 297.929 430.151L381.32 349.38C384.581 346.426 384.846 341.389 381.906 338.109L381.905 338.109C378.955 334.819 373.896 334.544 370.606 337.495L370.601 337.5C370.467 337.62 370.332 337.749 370.198 337.887L287.908 417.589C283.051 411.397 279.286 404.423 276.774 396.965C274.107 388.581 272.754 379.834 272.762 371.036L272.762 371.017L272.762 370.997C271.937 326.881 306.878 290.376 350.982 289.262C352.344 289.298 353.726 289.31 355.111 289.31C390.526 289.31 436.97 279.024 462.055 272.739C460.331 354.066 445.778 410.58 389.586 443.102Z" fill="#F88D2A" stroke="#F88D2A" stroke-width="4"/>
</g>
<defs>
<clipPath id="clip0_2014_842">
<rect width="478.261" height="500" fill="white" transform="translate(0.801758)"/>
</clipPath>
</defs>
</svg>
