<svg width="518" height="500" viewBox="0 0 518 500" fill="none" xmlns="http://www.w3.org/2000/svg">
<g clip-path="url(#clip0_2014_847)">
<path d="M388.529 156.872C396.103 164.028 408.384 164.027 415.959 156.875C415.958 156.876 415.961 156.873 415.959 156.875L443.395 130.963L310.813 5.74707L283.38 31.6561C275.808 38.8097 275.808 50.4059 283.38 57.5594L132.508 200.05C124.934 192.899 112.655 192.899 105.081 200.05L77.6484 225.959L210.229 351.176L237.663 325.266C245.239 318.113 245.239 306.514 237.665 299.359C237.664 299.359 237.666 299.359 237.665 299.359L294.811 245.39L468.992 409.894C478.838 419.195 494.803 419.197 504.651 409.897C504.65 409.899 504.652 409.896 504.651 409.897L505.567 409.033C515.415 399.734 515.418 384.655 505.571 375.354C505.57 375.352 505.572 375.355 505.571 375.354L331.38 210.846L388.529 156.872ZM292.522 40.2905L310.813 23.0157L425.104 130.963L406.819 148.232C404.296 150.618 400.202 150.62 397.676 148.237C397.674 148.235 397.679 148.239 397.676 148.237L388.529 139.597L297.093 53.2422L292.522 48.9249C289.998 46.5404 289.998 42.675 292.522 40.2905ZM228.514 316.632L210.229 333.901L95.9322 225.959L114.223 208.684C116.748 206.301 120.841 206.301 123.366 208.684L132.508 217.319L219.378 299.358L228.52 308.01C231.036 310.393 231.029 314.249 228.514 316.632ZM228.514 290.723L141.657 208.684L292.522 66.1999L379.387 148.232L228.514 290.723ZM496.425 383.991C501.224 388.52 501.227 395.866 496.431 400.398C496.429 400.401 496.426 400.402 496.425 400.405L495.52 401.259C490.722 405.79 482.944 405.79 478.147 401.259L303.94 236.749L322.238 219.468L496.425 383.991Z" fill="#F88D2A"/>
<path d="M25.2779 494.253H233.467C247.386 494.235 258.664 483.584 258.682 470.438V469.217C258.664 456.071 247.386 445.419 233.467 445.402H219.889V414.871H38.8555V445.402H25.2779C11.3592 445.419 0.0802079 456.071 0.0625 469.217V470.438C0.0802079 483.584 11.3592 494.235 25.2779 494.253ZM51.7861 427.084H206.958V445.402H51.7861V427.084ZM12.9934 469.217C12.9934 462.809 18.4936 457.615 25.2779 457.615H233.467C240.252 457.615 245.751 462.809 245.751 469.217V470.438C245.751 476.846 240.252 482.04 233.467 482.04H25.2779C18.4936 482.04 12.9934 476.846 12.9934 470.438V469.217Z" fill="#F88D2A"/>
</g>
<defs>
<clipPath id="clip0_2014_847">
<rect width="517.242" height="500" fill="white" transform="translate(0.0625)"/>
</clipPath>
</defs>
</svg>
