<svg width="424" height="500" viewBox="0 0 424 500" fill="none" xmlns="http://www.w3.org/2000/svg">
<g clip-path="url(#clip0_2014_851)">
<path d="M204.589 7.23663C188.997 21.8875 185.971 24.482 177.272 30.7391C141.56 56.4036 96.8443 72.4789 48.9491 76.8538C40.0466 77.6678 35.9515 77.8967 23.895 78.151C5.63226 78.558 4.30961 78.5834 4.20787 78.6852C4.08069 78.8378 1.56257 105.494 1.25734 110.073C0.163609 126.072 0.214481 146.725 1.38452 165.268C5.47965 229.773 22.8267 291.378 51.747 344.08C84.101 403.014 130.775 451.189 190.956 487.689C197.289 491.556 211.864 499.873 212.246 499.873C212.627 499.873 227.202 491.556 233.535 487.689C243.252 481.814 251.976 476.065 260.446 469.986C311.75 433.181 351.276 387.168 379.205 331.744C404.157 282.272 419.291 224.889 423.081 165.395C424.124 149.116 424.277 124.724 423.386 111.98C422.954 105.952 420.436 78.8632 420.283 78.6852C420.181 78.5834 418.859 78.558 400.596 78.151C388.54 77.8967 384.444 77.6678 375.542 76.8538C340.034 73.6235 306.179 63.958 276.598 48.6458C260.751 40.4555 246.507 31.0443 234.909 21.099C233.23 19.6492 227.888 14.7401 223.056 10.1872C218.223 5.65961 213.823 1.51361 213.238 1.00491L212.195 0.0892334L204.589 7.23663ZM215.425 33.2572C222.216 39.5907 231.984 47.2214 241.242 53.3768C278.098 77.9475 321.924 93.387 368.802 98.3469C377.831 99.3134 392.838 100.255 399.477 100.28H400.265L400.571 103.256C403.267 130.497 402.097 166.54 397.518 198.334C392.609 232.418 384.037 264.518 371.701 294.964C364.986 311.548 355.804 329.989 346.673 345.225C316.15 396.147 273.189 438.497 219.876 470.164C213.594 473.903 212.627 474.437 212.246 474.437C211.432 474.437 196.119 465.153 187.955 459.685C141.229 428.501 104.856 390.525 76.9791 343.826C71.0271 333.88 62.2773 316.889 57.3937 305.8C39.8686 266.145 28.6515 222.244 24.4292 176.587C22.0382 150.897 21.8602 124.189 23.9204 103.256L24.2257 100.28H25.0142C27.7358 100.255 39.6396 99.695 44.2435 99.3643C86.1105 96.3629 124.773 85.6291 159.594 67.3918C178.849 57.2939 195.712 45.6189 209.626 32.7231L212.22 30.3321L212.856 30.8917C213.212 31.2224 214.382 32.2907 215.425 33.2572Z" fill="#F88D2A"/>
<path d="M210.847 74.2338C208.863 76.2686 201.156 82.7292 196.908 85.9087C193.017 88.8338 184.343 94.6585 181.8 96.0829C181.545 96.2101 180.452 96.8714 179.383 97.5073C171.6 102.162 161.451 107.198 151.455 111.395C150.616 111.726 149.598 112.184 149.166 112.362C148.759 112.54 146.978 113.227 145.223 113.862C143.468 114.524 141.484 115.261 140.772 115.516C138.686 116.304 129.606 119.229 129.199 119.255C128.995 119.28 128.08 119.509 127.164 119.789C124.29 120.705 122.026 121.315 119.533 121.9C118.211 122.205 116.252 122.663 115.209 122.943C114.166 123.197 112.895 123.477 112.411 123.579C111.928 123.655 110.605 123.909 109.486 124.189C105.086 125.207 91.2235 127.369 86.7214 127.75C85.2461 127.877 82.2701 128.157 80.1081 128.361C77.9461 128.59 74.614 128.819 72.7318 128.869C70.8496 128.946 67.3394 129.073 64.9485 129.175L60.599 129.353L60.2938 132.303C60.1412 133.931 59.9631 136.678 59.8868 138.433C59.836 140.188 59.6579 143.673 59.5053 146.191C59.2001 151.99 59.2001 163.564 59.5053 169.846C59.6579 172.491 59.8105 176.459 59.8868 178.621C60.0649 184.446 61.4638 198.716 62.583 205.965C62.8373 207.771 63.0917 209.602 63.0917 210.034C63.1171 210.441 63.3461 211.967 63.6259 213.417C63.9056 214.842 64.16 216.495 64.2109 217.029C64.2617 217.589 64.5415 219.166 64.8213 220.539C65.4827 223.871 66.1694 227.331 66.3983 228.73C66.6781 230.459 67.8482 235.699 68.128 236.386C68.2551 236.716 68.4077 237.53 68.5095 238.166C68.5858 238.777 68.8401 239.997 69.0691 240.811C69.298 241.651 69.5269 242.617 69.5778 242.973C69.6541 243.33 69.8321 243.991 69.9593 244.449C70.2391 245.314 71.2057 248.824 71.8415 251.367C72.4774 253.936 72.9353 255.564 73.3168 256.709C73.5457 257.345 73.9527 258.642 74.2325 259.634C75.6823 264.492 79.4977 275.658 80.1335 276.828C80.3116 277.159 80.4133 277.439 80.3625 277.439C80.2607 277.439 80.8712 279.372 81.1001 279.728C81.1764 279.855 81.2527 280.084 81.3036 280.237C81.4562 280.974 85.7039 291.276 86.3653 292.547C86.5688 292.904 86.7214 293.387 86.7214 293.616C86.7214 293.819 86.8231 294.099 86.9503 294.252C87.0775 294.379 87.7134 295.676 88.3747 297.151C90.0534 300.967 91.7576 304.553 93.1057 307.198C95.3695 311.624 97.3534 315.363 98.6761 317.754C99.4137 319.077 100.228 320.577 100.482 321.061C100.762 321.544 101.067 322.129 101.194 322.332C101.321 322.536 101.906 323.503 102.466 324.444C103.051 325.41 103.509 326.25 103.509 326.326C103.509 326.377 103.763 326.809 104.094 327.242C104.399 327.699 104.882 328.462 105.162 328.946C106.18 330.726 106.714 331.566 108.469 334.262C111.597 339.069 113.912 342.503 115.311 344.461C116.074 345.504 117.244 347.158 117.905 348.15C118.567 349.116 119.381 350.21 119.711 350.566C120.017 350.922 120.881 352.016 121.619 353.033C124.544 356.976 125.994 358.883 126.808 359.723C127.266 360.206 128.588 361.783 129.758 363.207C137.516 372.72 147.589 383.149 157.432 391.899C159.315 393.552 161.375 395.409 162.011 395.994C162.647 396.579 164.122 397.825 165.317 398.792C166.513 399.733 167.937 400.928 168.497 401.437C169.056 401.92 170.379 402.989 171.422 403.803C172.465 404.617 174.067 405.837 174.983 406.524C175.899 407.236 177.145 408.203 177.781 408.712C179.994 410.441 184.954 414.053 186.912 415.3C187.548 415.707 188.743 416.546 189.532 417.131C190.346 417.741 191.033 418.225 191.109 418.225C191.262 418.225 195.128 420.794 195.331 421.023C195.408 421.099 196.044 421.506 196.73 421.887C197.442 422.294 198.18 422.778 198.409 422.981C198.791 423.286 200.647 424.456 202.58 425.601C203.013 425.855 204.208 426.568 205.251 427.203C207.744 428.73 212.093 431.197 212.271 431.197C212.424 431.197 216.112 429.136 217.46 428.272C218.529 427.61 220.843 426.211 221.912 425.601C223.717 424.533 225.701 423.312 226.083 422.981C226.312 422.803 227.075 422.32 227.762 421.913C228.474 421.506 229.161 421.073 229.313 420.921C229.466 420.768 230.432 420.132 231.45 419.496C232.442 418.861 233.993 417.843 234.858 417.207C235.698 416.571 236.868 415.783 237.427 415.427C237.987 415.096 238.902 414.46 239.488 414.028C240.047 413.621 241.065 412.858 241.751 412.374C243.048 411.433 245.338 409.729 248.034 407.745C249.789 406.423 252.739 404.082 255.156 402.073C256.021 401.361 257.75 399.962 259.022 398.919C260.294 397.902 261.795 396.63 262.354 396.121C262.914 395.587 264.516 394.163 265.915 392.916C271.358 388.134 277.565 382.208 280.973 378.621C286.925 372.313 292.19 366.412 294.886 363.055C295.827 361.859 297.048 360.41 297.557 359.85C298.473 358.858 300.228 356.594 302.873 353.033C303.611 352.016 304.475 350.922 304.781 350.566C305.086 350.21 305.925 349.116 306.612 348.124C307.324 347.107 308.52 345.403 309.283 344.309C311.19 341.613 313.81 337.746 315.438 335.177C315.616 334.898 316.227 333.982 316.786 333.117C317.346 332.252 318.033 331.159 318.312 330.701C319.152 329.251 320.042 327.776 321.568 325.283C322.357 323.96 323.018 322.765 323.018 322.638C323.018 322.485 323.12 322.332 323.247 322.282C323.374 322.231 323.679 321.747 323.959 321.188C324.239 320.628 325.155 318.975 325.969 317.5C327.647 314.447 330.496 309.004 331.691 306.562C332.124 305.647 332.887 304.095 333.37 303.129C333.854 302.137 334.947 299.797 335.787 297.914C336.626 296.032 337.415 294.379 337.542 294.252C337.669 294.099 337.771 293.819 337.771 293.616C337.771 293.387 337.923 292.904 338.127 292.547C338.788 291.276 343.036 280.974 343.188 280.237C343.239 280.084 343.316 279.855 343.392 279.728C343.57 279.448 344.13 277.795 344.13 277.515C344.155 277.413 344.435 276.676 344.765 275.913C345.121 275.124 345.401 274.386 345.401 274.234C345.401 274.081 345.579 273.598 345.757 273.165C346.393 271.817 350.514 259.176 350.666 258.108C350.717 257.828 350.921 257.141 351.15 256.581C351.557 255.615 351.887 254.47 352.65 251.367C352.854 250.604 353.312 248.874 353.668 247.552C354.965 242.77 355.855 239.26 355.982 238.395C356.033 237.912 356.262 236.92 356.44 236.233C356.644 235.521 356.873 234.503 356.974 233.944C357.051 233.384 357.331 232.011 357.61 230.892C357.89 229.772 358.323 227.661 358.602 226.186C358.882 224.711 359.34 222.193 359.671 220.59C359.976 218.988 360.23 217.487 360.23 217.284C360.23 217.08 360.485 215.579 360.79 213.977C361.095 212.374 361.375 210.696 361.375 210.289C361.375 209.856 361.604 208.025 361.884 206.219C362.163 204.388 362.392 202.683 362.392 202.404C362.392 202.124 362.596 200.572 362.825 198.97C363.054 197.367 363.333 194.722 363.461 193.12C363.588 191.517 363.868 188.541 364.071 186.506C364.275 184.472 364.529 180.987 364.605 178.749C364.681 176.51 364.834 172.568 364.987 169.973C365.292 163.869 365.292 151.965 364.987 146.318C364.834 143.876 364.681 140.366 364.605 138.56C364.529 136.729 364.351 133.931 364.198 132.303L363.893 129.353L359.543 129.175C357.153 129.073 353.642 128.946 351.76 128.869C349.878 128.819 346.546 128.59 344.384 128.361C342.222 128.157 339.246 127.877 337.771 127.75C334.769 127.496 330.954 126.962 326.528 126.199C324.9 125.893 323.196 125.639 322.713 125.614C321.721 125.537 318.211 124.876 315.006 124.164C313.759 123.884 312.386 123.604 311.953 123.553C311.547 123.477 310.326 123.197 309.283 122.943C308.24 122.663 306.281 122.205 304.959 121.9C302.491 121.315 300.228 120.705 297.353 119.814C296.463 119.535 295.497 119.28 295.191 119.229C294.403 119.128 281.278 114.702 279.014 113.786C277.972 113.354 277.03 112.998 276.903 112.998C276.802 112.998 276.242 112.769 275.631 112.514C275.046 112.235 272.452 111.141 269.858 110.047C262.558 106.969 248.568 99.7965 242.896 96.1847C242.54 95.9557 241.471 95.2944 240.479 94.684C235.342 91.4791 229.618 87.5111 224.913 83.8739C222.09 81.6864 214.993 75.6327 213.645 74.2338C213.035 73.5979 212.399 73.0637 212.246 73.0637C212.093 73.0637 211.457 73.5979 210.847 74.2338ZM216.29 97.6345C217.689 98.7282 219.622 100.229 220.614 100.941C221.606 101.679 222.598 102.416 222.827 102.62C224.15 103.815 231.679 108.902 235.901 111.446C237.3 112.285 238.572 113.099 238.75 113.227C238.902 113.379 239.818 113.913 240.785 114.422C241.726 114.931 242.82 115.567 243.201 115.846C243.583 116.101 244.371 116.559 244.982 116.838C245.592 117.118 246.762 117.754 247.601 118.212C248.441 118.67 249.763 119.357 250.527 119.738C251.29 120.12 252.104 120.527 252.307 120.654C252.689 120.857 254.189 121.595 256.758 122.79C261.769 125.156 263.015 125.715 263.143 125.715C263.219 125.715 263.651 125.868 264.084 126.072C266.068 126.962 270.519 128.768 270.748 128.768C270.9 128.768 271.536 128.997 272.121 129.302C272.732 129.582 273.419 129.861 273.647 129.912C273.876 129.963 274.868 130.294 275.835 130.675C279.269 131.998 288.833 135.05 289.952 135.203C290.155 135.254 291.147 135.508 292.114 135.813C294.199 136.449 297.099 137.187 300.126 137.899C301.321 138.153 303.331 138.637 304.577 138.942C305.849 139.222 307.222 139.527 307.629 139.578C308.062 139.629 309.181 139.858 310.173 140.086C311.14 140.29 312.411 140.519 312.996 140.595C313.581 140.646 315.311 140.926 316.812 141.206C323.298 142.401 334.108 143.571 342.425 144.004C345.071 144.131 347.284 144.309 347.385 144.411C347.64 144.665 347.894 148.226 348.199 156.62C348.606 166.692 348.072 181.826 346.902 192.865C346.648 195.46 346.419 198.029 346.419 198.588C346.419 199.784 345.63 206.041 344.842 210.797C344.562 212.603 344.282 214.511 344.231 214.994C344.18 215.478 343.926 216.978 343.646 218.301C343.366 219.624 343.188 220.768 343.265 220.87C343.316 220.972 343.112 222.116 342.807 223.413C342.527 224.736 342.247 226.135 342.222 226.517C342.171 226.924 341.917 228.221 341.637 229.442C341.357 230.663 340.874 232.799 340.569 234.198C340.263 235.597 339.805 237.657 339.5 238.777C339.22 239.896 338.966 241.04 338.915 241.32C338.89 241.6 338.661 242.465 338.406 243.228C338.178 243.991 337.949 244.856 337.898 245.135C337.694 246.484 336.372 251.138 335.202 254.75C334.922 255.539 334.718 256.353 334.718 256.531C334.718 256.734 334.26 258.235 333.675 259.914C333.116 261.567 332.607 263.195 332.556 263.475C332.48 263.78 332.251 264.467 332.022 265.001C331.793 265.535 331.564 266.222 331.513 266.501C331.463 266.781 331.005 268.104 330.496 269.426C330.013 270.749 329.275 272.759 328.868 273.878C328.461 274.997 327.825 276.65 327.469 277.566C327.088 278.482 326.325 280.364 325.79 281.763C324.773 284.332 324.341 285.298 323.476 287.002C323.221 287.511 323.018 288.071 323.018 288.223C323.018 288.808 317.295 300.712 314.243 306.435C313.429 307.987 310.148 313.888 309.41 315.16C307.477 318.492 306.587 319.967 306.409 320.17C306.23 320.399 305.238 322.027 303.941 324.24C302.619 326.504 294.047 338.942 293.513 339.374C293.411 339.451 293.004 340.01 292.572 340.646C291.63 342.02 287.968 346.7 285.882 349.167C285.068 350.134 283.491 352.041 282.397 353.364C281.304 354.687 279.752 356.467 278.989 357.306C278.2 358.146 276.267 360.257 274.665 362.012C271.079 365.929 266.119 370.889 261.947 374.704C260.218 376.307 258.106 378.265 257.267 379.054C256.428 379.842 254.393 381.623 252.739 382.971C251.086 384.319 249.484 385.667 249.178 385.947C248.873 386.252 247.78 387.117 246.737 387.905C245.694 388.668 244.651 389.508 244.397 389.762C244.142 390.017 243.099 390.831 242.082 391.543C241.065 392.28 240.123 392.993 239.971 393.171C239.844 393.323 238.75 394.137 237.605 394.977C236.435 395.79 234.706 397.011 233.79 397.698C231.628 399.224 228.983 401.056 227.151 402.251C226.363 402.76 225.6 403.294 225.472 403.421C225.32 403.548 224.862 403.854 224.455 404.108C224.023 404.362 223.132 404.947 222.42 405.38C219.521 407.236 217.587 408.457 217.155 408.686C216.901 408.813 215.756 409.5 214.611 410.187C213.441 410.874 212.424 411.484 212.322 411.535C212.246 411.586 211.152 410.975 209.906 410.212C208.685 409.449 207.49 408.737 207.286 408.635C206.93 408.483 205.734 407.745 202.072 405.38C201.385 404.947 200.469 404.362 200.037 404.108C199.63 403.854 199.172 403.548 199.019 403.421C198.892 403.294 198.129 402.76 197.341 402.251C195.509 401.056 192.864 399.224 190.702 397.698C189.786 397.011 188.057 395.79 186.887 394.977C185.742 394.137 184.674 393.323 184.521 393.171C184.394 392.993 183.427 392.28 182.41 391.543C181.393 390.831 180.35 390.017 180.095 389.762C179.841 389.508 178.798 388.668 177.755 387.905C176.712 387.142 175.593 386.227 175.237 385.896C174.881 385.54 173.355 384.243 171.854 383.022C170.328 381.775 168.268 379.995 167.276 379.054C166.258 378.138 164.122 376.18 162.519 374.704C158.628 371.169 152.167 364.657 148.682 360.74C147.131 358.985 145.478 357.205 145.045 356.747C144.587 356.314 143.29 354.814 142.171 353.44C141.026 352.067 139.424 350.134 138.61 349.167C136.016 346.089 132.48 341.485 128.817 336.449C127.571 334.72 123.552 328.895 122.967 327.954C122.84 327.725 122.306 326.911 121.797 326.148C119.813 323.096 119.075 321.9 118.643 321.061C118.389 320.577 118.109 320.12 118.033 320.043C117.931 319.967 117.295 318.95 116.608 317.754C115.896 316.584 115.235 315.414 115.082 315.16C114.141 313.557 111.012 307.936 111.012 307.834C111.012 307.758 110.86 307.478 110.682 307.198C109.13 304.655 101.474 288.885 101.474 288.223C101.474 288.071 101.245 287.511 100.991 287.002C100.431 285.96 99.5409 283.874 98.4726 281.127C98.0402 280.084 97.4043 278.482 97.0228 277.566C96.6667 276.65 96.0308 274.997 95.6238 273.878C95.2169 272.759 94.4792 270.749 93.9959 269.426C93.4872 268.104 93.0294 266.781 92.9785 266.501C92.9277 266.222 92.6987 265.535 92.4698 265.001C92.2409 264.467 92.012 263.78 91.9611 263.475C91.9102 263.195 91.6304 262.304 91.3506 261.541C90.7911 259.99 90.1297 257.853 89.2649 254.801C88.9343 253.682 88.4764 252.13 88.2221 251.367C87.7388 249.866 86.7214 245.975 86.5942 245.135C86.5433 244.856 86.3144 243.991 86.0855 243.228C85.8311 242.465 85.6022 241.6 85.5768 241.32C85.5259 241.04 85.2715 239.896 84.9917 238.777C84.6865 237.657 84.2287 235.597 83.9235 234.198C83.6182 232.799 83.1604 230.688 82.8806 229.493C82.6008 228.297 82.321 226.974 82.2701 226.567C82.2193 226.135 81.9903 224.94 81.7614 223.897C81.5579 222.854 81.3036 221.48 81.2527 220.844C81.2018 220.209 80.9729 218.835 80.744 217.792C80.5151 216.749 80.3116 215.427 80.2353 214.867C80.1844 214.308 79.9046 212.425 79.6248 210.67C78.8618 206.016 78.0733 199.758 78.0733 198.588C78.0733 198.029 77.8443 195.46 77.59 192.865C76.6234 183.734 75.9367 167.735 76.1656 159.926C76.3182 153.923 76.7506 145.708 76.9287 144.868C77.0813 144.207 77.6154 144.131 84.9409 143.775C91.8085 143.469 100.355 142.503 107.706 141.18C109.384 140.875 111.165 140.595 111.648 140.544C112.132 140.493 113.352 140.29 114.319 140.061C115.311 139.858 116.456 139.629 116.863 139.578C117.295 139.527 118.668 139.222 119.915 138.942C121.187 138.637 123.171 138.153 124.366 137.899C127.393 137.187 130.293 136.449 132.378 135.813C133.37 135.508 134.337 135.254 134.54 135.228C135.303 135.177 145.681 131.82 148.784 130.624C149.7 130.294 150.616 129.963 150.844 129.912C151.073 129.861 151.76 129.582 152.371 129.302C152.956 128.997 153.592 128.768 153.744 128.768C154.075 128.768 159.315 126.606 160.281 126.097C160.637 125.893 161.07 125.715 161.222 125.715C161.375 125.715 162.621 125.181 163.995 124.545C165.343 123.909 167.047 123.121 167.734 122.816C168.446 122.485 169.184 122.129 169.387 122.053C169.591 121.976 169.947 121.798 170.15 121.671C170.354 121.544 171.625 120.908 172.948 120.247C174.271 119.585 176.051 118.67 176.891 118.212C177.73 117.754 179.002 117.067 179.688 116.711C180.401 116.355 181.545 115.719 182.232 115.287C182.944 114.88 183.911 114.32 184.419 114.066C184.928 113.786 185.513 113.455 185.691 113.277C185.895 113.099 187.09 112.362 188.337 111.624C190.422 110.378 192.177 109.284 194.187 107.91C197.468 105.672 201.283 102.976 201.639 102.645C201.868 102.442 202.86 101.704 203.852 100.992C204.819 100.305 205.684 99.6439 205.76 99.5422C205.836 99.4404 207.159 98.3721 208.71 97.1767C210.237 95.9812 211.661 94.7857 211.864 94.5568C212.17 94.2007 212.271 94.2261 212.984 94.8875C213.416 95.2944 214.917 96.5408 216.29 97.6345Z" fill="#F88D2A"/>
</g>
<defs>
<clipPath id="clip0_2014_851">
<rect width="423.693" height="500" fill="white" transform="translate(0.303711)"/>
</clipPath>
</defs>
</svg>
