<svg width="503" height="507" viewBox="0 0 503 507" fill="none" xmlns="http://www.w3.org/2000/svg">
<g clip-path="url(#clip0_2014_874)" filter="url(#filter0_d_2014_874)">
<path d="M193.896 5.0504C121.169 23.9056 58.5425 75.7575 25.5459 145.118C6.01727 185.522 3.99707 196.97 3.99707 250.842C3.99707 306.061 6.01727 316.162 26.2193 356.566C71.3371 448.148 151.472 497.98 254.502 498.653C306.354 499.326 313.761 497.306 362.246 473.064C423.526 441.414 462.583 398.316 485.479 337.037C497.6 304.714 499.62 287.879 497.6 237.374C495.58 184.175 492.213 171.38 472.011 134.343C443.728 81.1447 395.916 37.3736 345.411 17.845C302.314 1.6834 232.28 -4.37721 193.896 5.0504ZM350.798 29.2928C397.936 50.1682 451.809 104.04 474.031 151.178C486.152 177.441 488.846 195.623 488.846 250.842C488.846 312.121 486.825 321.549 469.317 356.566C430.933 433.333 447.768 441.414 251.135 246.801C129.923 127.609 115.782 114.141 203.324 203.704C272.684 273.737 349.452 352.525 374.367 378.788L419.485 425.926L397.263 444.781C345.411 487.205 244.401 505.387 179.081 483.165C71.3371 447.475 -0.716735 339.057 9.38428 229.293C25.5459 60.9427 197.263 -40.0674 350.798 29.2928Z" fill="#F88D2A"/>
<path d="M340.024 110.101C348.778 126.262 347.431 150.505 337.33 156.565C334.637 157.912 323.862 150.505 313.761 139.73C294.906 120.202 278.071 112.121 287.499 126.936C289.519 130.976 275.378 150.505 255.849 170.707C236.32 190.909 224.199 207.07 229.586 207.07C234.3 207.07 244.401 211.784 251.135 218.518C267.97 233.333 275.378 223.905 259.889 207.07C253.155 199.663 249.115 192.256 251.135 190.235C253.155 188.215 259.889 192.929 266.623 200.336C273.357 207.744 282.112 213.804 285.479 213.804C289.519 213.804 285.479 206.397 276.724 196.969C255.849 175.421 265.277 165.993 286.825 186.868C296.253 195.623 303.66 199.663 303.66 195.623C303.66 191.582 298.947 184.848 293.559 180.134C280.765 169.36 280.765 153.872 294.233 148.485C305.007 144.444 350.798 182.828 350.798 196.296C350.798 200.336 336.657 217.845 319.149 235.353C276.051 279.124 288.172 285.858 332.617 242.761C353.492 222.559 371.674 209.764 377.735 211.784C383.122 213.804 377.735 205.05 364.94 191.582C352.819 178.788 344.738 164.646 346.758 160.606C352.819 150.505 386.489 151.178 396.59 161.279C401.304 165.993 404.671 166.666 404.671 162.626C404.671 155.219 342.718 92.5923 335.984 92.5923C333.29 92.5923 335.31 100.673 340.024 110.101ZM367.634 132.996C369.654 136.363 368.307 139.73 364.94 139.73C360.9 139.73 357.533 136.363 357.533 132.996C357.533 128.956 358.879 126.262 360.226 126.262C362.246 126.262 365.613 128.956 367.634 132.996Z" fill="#F88D2A"/>
<path d="M179.754 246.801C155.512 271.717 154.839 273.738 161.573 298.653C168.98 324.243 168.307 324.916 133.963 359.933C114.435 379.461 101.64 395.623 105.68 395.623C109.047 395.623 125.882 382.155 142.044 365.32C171 336.364 173.02 335.017 202.65 339.057C230.933 342.424 234.3 341.078 255.849 318.855C286.825 287.206 276.724 278.451 244.401 309.428C222.179 330.977 217.465 332.323 197.936 326.936C180.428 322.222 175.714 316.835 171.674 297.307C168.307 279.798 170.327 270.371 178.408 262.29C187.835 252.189 190.529 252.862 206.017 267.677C224.872 285.185 228.913 279.125 211.404 259.596C196.589 242.761 206.017 235.354 222.852 250.842C243.727 269.697 245.074 258.923 224.199 238.721L205.344 220.539L179.754 246.801Z" fill="#F88D2A"/>
</g>
<defs>
<filter id="filter0_d_2014_874" x="-0.00292969" y="0" width="502.949" height="508" filterUnits="userSpaceOnUse" color-interpolation-filters="sRGB">
<feFlood flood-opacity="0" result="BackgroundImageFix"/>
<feColorMatrix in="SourceAlpha" type="matrix" values="0 0 0 0 0 0 0 0 0 0 0 0 0 0 0 0 0 0 127 0" result="hardAlpha"/>
<feOffset dy="4"/>
<feGaussianBlur stdDeviation="2"/>
<feComposite in2="hardAlpha" operator="out"/>
<feColorMatrix type="matrix" values="0 0 0 0 0 0 0 0 0 0 0 0 0 0 0 0 0 0 0.25 0"/>
<feBlend mode="normal" in2="BackgroundImageFix" result="effect1_dropShadow_2014_874"/>
<feBlend mode="normal" in="SourceGraphic" in2="effect1_dropShadow_2014_874" result="shape"/>
</filter>
<clipPath id="clip0_2014_874">
<rect width="494.949" height="500" fill="white" transform="translate(3.99707)"/>
</clipPath>
</defs>
</svg>
