<svg width="532" height="500" viewBox="0 0 532 500" fill="none" xmlns="http://www.w3.org/2000/svg">
<g clip-path="url(#clip0_2014_855)">
<path d="M280.765 269.592C296.886 261.909 302.147 239.317 292.566 219.246C282.967 199.108 262.106 188.971 245.985 196.653C229.865 204.336 224.603 226.928 234.202 247.066C243.8 267.171 264.661 277.307 280.765 269.592Z" fill="#F88D2A"/>
<path d="M329.077 149.417C344.576 246.427 275.537 319.147 275.537 319.147C275.537 319.147 218.619 222.843 122.903 193.779C309.09 329.922 203.12 499.652 203.12 499.652H257.013C257.013 499.652 382.297 283.46 329.077 149.417Z" fill="#F88D2A"/>
<path d="M223.998 160.495C222.955 158.949 221.896 157.302 220.837 155.486C215.912 146.98 213.66 139.08 213.66 139.08C213.66 139.08 219.341 145.03 224.267 153.486C225.292 155.284 226.183 157.049 227.007 158.73C227.78 154.679 228.688 146.358 224.754 139.5C219.324 130.103 206.818 127.178 206.818 127.178C206.818 127.178 203.086 139.483 208.516 148.897C212.449 155.755 220.115 159.134 223.998 160.495Z" fill="#F88D2A"/>
<path d="M347.602 231.853C350.728 234.543 357.486 239.485 365.37 239.485C376.229 239.485 385.004 230.088 385.004 230.088C385.004 230.088 376.246 220.708 365.37 220.708C357.486 220.708 350.728 225.651 347.602 228.34C349.467 228.206 351.417 228.105 353.519 228.105C363.336 228.105 371.354 230.055 371.354 230.055C371.354 230.055 363.336 232.038 353.519 232.022C351.401 232.106 349.467 231.988 347.602 231.853Z" fill="#F88D2A"/>
<path d="M308.166 153.519C313.057 145.014 318.773 139.08 318.773 139.08C318.773 139.08 316.503 147.014 311.578 155.52C310.536 157.302 309.477 158.983 308.401 160.529C312.334 159.168 319.983 155.772 323.9 148.964C329.346 139.534 325.648 127.212 325.648 127.212C325.648 127.212 313.108 130.187 307.695 139.55C303.761 146.375 304.636 154.679 305.426 158.781C306.199 157.083 307.107 155.318 308.166 153.519Z" fill="#F88D2A"/>
<path d="M261.82 102.316C261.82 80.4464 266.208 62.7455 266.208 62.7455C266.208 62.7455 270.612 80.48 270.612 102.316C270.612 106.939 270.393 111.309 270.057 115.445C276.075 108.502 287.052 93.4573 287.052 75.9077C287.052 51.7687 266.208 32.2188 266.208 32.2188C266.208 32.2188 245.363 51.7687 245.363 75.9077C245.363 93.4573 256.34 108.485 262.341 115.445C262.039 111.309 261.82 106.956 261.82 102.316Z" fill="#F88D2A"/>
<path d="M122.264 171.069C137.477 179.844 155.968 177.843 164.995 176.112C161.263 174.364 157.347 172.313 153.363 170.027C134.435 159.117 121.289 146.459 121.289 146.459C121.289 146.459 138.822 151.502 157.75 162.428C161.751 164.748 165.432 167.102 168.861 169.472C165.869 160.764 158.355 143.753 143.125 134.978C122.247 122.892 94.8809 131.162 94.8809 131.162C94.8809 131.162 101.369 159.016 122.264 171.069Z" fill="#F88D2A"/>
<path d="M410.134 289.125C394.938 280.367 376.447 282.334 367.42 284.065C371.168 285.83 375.068 287.881 379.069 290.167C397.98 301.093 411.142 313.734 411.142 313.734C411.142 313.734 393.61 308.708 374.665 297.782C370.664 295.445 366.983 293.092 363.57 290.722C366.562 299.429 374.076 316.424 389.273 325.199C410.151 337.285 437.534 329.015 437.534 329.015C437.534 329.015 431.012 301.177 410.134 289.125Z" fill="#F88D2A"/>
<path d="M168.828 290.772C165.399 293.109 161.734 295.462 157.734 297.799C138.806 308.691 121.256 313.785 121.256 313.785C121.256 313.785 134.402 301.11 153.33 290.184C157.347 287.847 161.247 285.88 164.979 284.082C155.969 282.333 137.444 280.333 122.248 289.141C101.353 301.194 94.8311 329.031 94.8311 329.031C94.8311 329.031 122.198 337.302 143.092 325.249C158.322 316.441 165.836 299.446 168.828 290.772Z" fill="#F88D2A"/>
<path d="M363.588 169.405C367 167.068 370.682 164.715 374.716 162.395C393.627 151.469 411.16 146.426 411.16 146.426C411.16 146.426 398.031 159.083 379.087 169.993C375.086 172.313 371.169 174.33 367.471 176.078C376.464 177.826 394.989 179.844 410.151 171.035C431.063 158.966 437.568 131.129 437.568 131.129C437.568 131.129 410.219 122.875 389.341 134.944C374.094 143.719 366.563 160.731 363.588 169.405Z" fill="#F88D2A"/>
<path d="M184.865 99.5764C181.738 94.9873 178.561 90.0452 175.451 84.666C160.793 59.3167 154.019 35.7828 154.019 35.7828C154.019 35.7828 170.997 53.3996 185.638 78.8162C188.748 84.1617 191.421 89.3896 193.808 94.4158C196.161 82.3295 198.834 57.5348 187.067 37.1612C170.896 9.1391 133.578 0.397949 133.578 0.397949C133.578 0.397949 122.5 37.0772 138.671 65.0825C150.438 85.4729 173.266 95.542 184.865 99.5764Z" fill="#F88D2A"/>
<path d="M347.567 360.634C350.694 365.223 353.905 370.149 356.998 375.511C371.673 400.961 378.43 424.428 378.43 424.428C378.43 424.428 361.452 406.794 346.777 381.411C343.684 376.032 340.995 370.804 338.608 365.812C336.305 377.898 333.615 402.642 345.365 423.033C361.553 451.038 398.854 459.813 398.854 459.813C398.854 459.813 409.982 423.1 393.794 395.095C381.994 374.721 359.183 364.652 347.567 360.634Z" fill="#F88D2A"/>
<path d="M94.881 236.005C65.5814 236.005 41.829 230.088 41.829 230.088C41.829 230.088 65.5814 224.171 94.881 224.171C101.101 224.171 106.967 224.508 112.498 224.911C103.202 216.842 83.0637 202.117 59.4962 202.117C27.1707 202.134 0.947266 230.088 0.947266 230.088C0.947266 230.088 27.1875 258.06 59.4962 258.043C83.0469 258.043 103.185 243.335 112.481 235.283C106.951 235.703 101.067 236.005 94.881 236.005Z" fill="#F88D2A"/>
<path d="M472.919 202.184C449.386 202.184 429.247 216.842 419.935 224.945C425.482 224.524 431.365 224.205 437.535 224.222C466.851 224.222 490.587 230.122 490.587 230.122C490.587 230.122 466.851 236.039 437.568 236.039C431.365 236.039 425.482 235.72 419.935 235.316C429.23 243.368 449.386 258.077 472.919 258.077C505.262 258.077 531.452 230.156 531.452 230.156C531.452 230.156 505.228 202.15 472.919 202.184Z" fill="#F88D2A"/>
<path d="M185.654 381.428C170.996 406.811 154.018 424.444 154.018 424.444C154.018 424.444 160.776 400.911 175.434 375.528C178.561 370.182 181.738 365.257 184.881 360.617C173.249 364.652 150.421 374.738 138.654 395.128C122.466 423.133 133.56 459.846 133.56 459.846C133.56 459.846 170.895 451.105 187.066 423.1C198.85 402.709 196.177 377.898 193.841 365.845C191.403 370.821 188.731 375.998 185.654 381.428Z" fill="#F88D2A"/>
<path d="M346.777 78.7656C361.419 53.3826 378.397 35.7659 378.397 35.7659C378.397 35.7659 371.639 59.2829 356.964 84.6491C353.871 89.9778 350.694 94.9536 347.567 99.5427C359.183 95.5251 382.011 85.4391 393.761 65.0655C409.949 37.0602 398.854 0.330566 398.854 0.330566C398.854 0.330566 361.553 9.08853 345.365 37.0938C333.548 57.4843 336.237 82.2789 338.574 94.3484C340.995 89.3895 343.651 84.1616 346.777 78.7656Z" fill="#F88D2A"/>
</g>
<defs>
<clipPath id="clip0_2014_855">
<rect width="530.504" height="500" fill="white" transform="translate(0.947266)"/>
</clipPath>
</defs>
</svg>
