<svg width="305" height="500" viewBox="0 0 305 500" fill="none" xmlns="http://www.w3.org/2000/svg">
<path d="M269.126 255.818C271.756 242.463 264.342 229.157 251.483 224.161L208.821 207.439L178.592 138.767C171.086 118.96 151.861 105.831 130.381 105.841C119.633 105.882 109.154 109.157 100.352 115.229L35.0609 158.401C29.2989 162.575 25.1119 168.517 23.1604 175.291L7.16452 251.24C3.4874 266.22 12.8467 281.297 28.0687 284.915C28.2637 284.961 28.4597 285.006 28.6566 285.048C31.8048 285.784 34.9638 283.87 35.7123 280.772C36.4608 277.673 34.5157 274.565 31.3675 273.828C31.3312 273.82 31.2949 273.812 31.2586 273.804C22.2867 271.947 16.5438 263.284 18.4309 254.455C18.4853 254.198 18.5461 253.944 18.6132 253.69L34.5102 178.123C35.7631 173.994 38.3361 170.374 41.8463 167.8L106.956 124.755C113.818 119.996 121.998 117.42 130.393 117.373C147.074 117.385 161.977 127.634 167.723 143.046L199.03 214.248C199.646 215.649 200.8 216.753 202.241 217.316L247.153 234.898C255.958 238.345 260.254 248.163 256.752 256.827C256.664 257.044 256.572 257.26 256.475 257.473C256.422 257.6 256.334 257.698 256.276 257.819C250.716 259.777 245.744 263.076 241.815 267.415C239.292 267.573 236.765 267.18 234.415 266.261L179.823 244.718C176.845 243.473 173.403 244.838 172.138 247.769C170.871 250.699 172.259 254.085 175.237 255.331C175.312 255.363 175.388 255.392 175.464 255.421L230.049 276.97C231.682 277.599 233.368 278.083 235.089 278.417C230.28 291.069 233.441 305.319 243.169 314.848C245.497 317.061 249.206 316.998 251.454 314.707C253.647 312.473 253.647 308.93 251.454 306.695C243.639 299.035 242.348 287.033 248.36 277.932C254.5 276.314 259.918 272.729 263.758 267.743C276.353 265.313 288.564 273.39 291.034 285.785C291.334 287.294 291.479 288.828 291.468 290.365V493.658C291.468 496.843 294.091 499.424 297.327 499.424C300.563 499.424 303.186 496.843 303.186 493.658V290.365C303.167 271.69 288.093 256.4 269.126 255.818Z" fill="#F88D2A"/>
<path d="M190.521 328.007L152.184 286.489V180.625C152.184 177.44 149.56 174.858 146.324 174.858C143.088 174.858 140.465 177.44 140.465 180.625V288.727C140.466 290.16 141.008 291.541 141.988 292.602L181.733 335.636C184.386 338.541 185.908 342.278 186.028 346.183L191.722 458.258C192.218 467.363 185.183 475.168 175.938 475.77H174.766C165.791 475.68 158.414 468.776 157.873 459.959L152.747 355.709C152.68 354.378 152.149 353.111 151.241 352.122L124.287 322.754C117.145 314.958 108.604 308.525 99.0922 303.777L97.3339 302.894C81.6819 295.044 72.0577 278.991 72.6428 261.711L73.1056 252.728C74.3539 233.029 76.3345 208.24 79.1933 189.072C79.7494 185.935 77.6164 182.948 74.4283 182.401C71.2402 181.853 68.2054 183.953 67.6493 187.091C67.6311 187.192 67.6157 187.293 67.6039 187.395C64.2816 209.636 62.1368 239.125 60.9238 259.941C60.9238 260.333 60.9238 260.72 60.9238 261.095L55.6562 364.751L33.5609 463.448C30.1069 478.401 39.4027 493.335 54.5077 497.1C56.7694 497.766 59.1283 498.054 61.4863 497.953C74.7921 497.796 86.2926 488.772 89.4117 476.042L112.188 375.13C112.315 374.628 112.399 374.113 112.433 373.596C112.703 372.69 112.855 371.754 112.885 370.811L114.168 346.079L106.896 338.225C105.666 336.882 104.372 335.607 103.035 334.385L101.172 370.286C101.172 370.385 101.055 370.765 101.055 370.863C100.846 371.619 100.703 372.39 100.627 373.17L77.9685 473.562C76.1113 481.055 69.3223 486.351 61.4863 486.421C60.2152 486.488 58.9405 486.352 57.713 486.018C48.6223 483.873 42.961 474.946 44.9978 465.968L67.2047 366.786C67.2764 366.474 67.32 366.154 67.3336 365.835L70.9844 294.822C76.339 302.592 83.5916 308.911 92.0781 313.199L93.8364 314.081C102.06 318.197 109.444 323.766 115.622 330.51L141.156 358.35L146.154 460.512C147.057 475.461 159.567 487.169 174.783 487.303H176.189C192.001 486.514 204.179 473.278 203.412 457.716L197.717 345.895C197.566 339.278 195.013 332.933 190.521 328.007Z" fill="#F88D2A"/>
<path d="M165.491 100.109C191.379 100.109 212.366 79.4554 212.366 53.9781C212.366 28.5006 191.379 7.84717 165.491 7.84717C139.603 7.84717 118.616 28.5006 118.616 53.9781C118.616 79.4554 139.603 100.109 165.491 100.109ZM165.491 19.3798C184.907 19.3798 200.648 34.87 200.648 53.9781C200.648 73.0857 184.907 88.5759 165.491 88.5759C146.074 88.5759 130.335 73.0857 130.335 53.9781C130.344 34.8683 146.074 19.3739 165.491 19.3453V19.3798Z" fill="#F88D2A"/>
</svg>
