<svg width="567" height="500" viewBox="0 0 567 500" fill="none" xmlns="http://www.w3.org/2000/svg">
<path d="M550.868 99.2028C533.653 51.0938 485.889 10.2166 431.012 5.26867C427.278 4.91855 423.585 4.75098 419.965 4.75098C356.374 4.75098 310.049 56.8258 283.175 106.837C283.175 106.914 283.079 106.914 283.047 106.837C257.095 58.4707 214.196 8.64085 152.264 4.96418C150.011 4.83252 147.762 4.76624 145.515 4.76624C93.0712 4.76624 45.0147 40.0861 22.3045 83.522C-7.35644 140.385 16.8088 204.327 48.0052 255.405C81.4875 307.935 122.077 356.143 168.75 398.818C204.555 433.323 242.76 465.543 283.111 495.264L285.374 493.59C320.812 467.239 354.622 439.001 386.642 409.018C433.055 367.368 474.099 320.714 508.923 270.021C541.251 220.998 572.124 157.36 550.868 99.2028ZM375.246 398.225C345.999 425.598 315.246 451.505 283.111 475.839C246.971 448.589 212.621 419.296 180.251 388.123C137.568 348.945 99.971 305.136 68.2514 257.613H165.526C168.926 257.462 171.914 255.448 173.163 252.467L209.29 153.082C209.339 152.93 209.411 152.937 209.444 153.082L255.366 378.175C256.054 381.526 259.027 384.037 262.639 384.317C262.873 384.328 263.109 384.328 263.343 384.317C266.695 384.316 269.698 382.366 270.891 379.414L342.232 203.307C342.279 203.193 342.345 203.193 342.385 203.307L375.602 311.073C376.86 315.107 381.352 317.416 385.634 316.231C387.025 315.846 388.28 315.117 389.269 314.118L445.431 257.613H497.963L498.045 257.757C463.268 309.067 422.036 356.231 375.246 398.225ZM507.403 242.387H441.94C439.73 242.505 437.638 243.36 436.039 244.801L387.249 293.93C387.191 293.984 387.136 293.968 387.111 293.93L351.081 177.084C349.831 173.048 345.343 170.731 341.058 171.908C338.633 172.575 336.677 174.273 335.774 176.498L265.985 348.776C265.929 348.913 265.856 348.913 265.833 348.776L219.531 121.818C218.836 118.432 215.812 115.909 212.16 115.668C208.478 115.328 205.048 117.466 203.94 120.791L159.739 242.387H58.8347C23.2016 181.841 15.7257 130.657 36.804 90.2515C58.7789 48.2246 102.462 19.99 145.515 19.99C147.43 19.99 149.345 20.0515 151.254 20.1579C208.636 23.5374 246.783 72.9643 268.686 113.826L283.039 140.613C283.039 140.689 283.144 140.689 283.175 140.613L297.537 113.834C312.667 85.6156 354.921 19.9758 419.965 19.9758C423.076 19.9758 426.26 20.1271 429.468 20.4246C475.803 24.6041 519.422 58.9951 535.586 104.158C549.293 141.671 539.99 187.116 507.403 242.387Z" fill="#F88D2A"/>
</svg>
