<svg width="823" height="330" viewBox="0 0 823 330" fill="none" xmlns="http://www.w3.org/2000/svg">
<g clip-path="url(#clip0_2014_884)">
<path d="M63.6095 15.3833C41.6895 41.2333 80.8324 80.4 106.667 58.4666C112.93 52.9833 117.627 39.6666 116.061 28.7C114.495 13.0333 109.015 7.54996 93.3581 5.9833C82.3981 4.41663 69.0895 9.11663 63.6095 15.3833Z" fill="#F88D2A"/>
<path d="M24.4671 73.3502C11.1585 97.6335 6.46134 163.433 15.0728 199.467C21.3356 228.45 20.5528 236.283 10.3756 243.333C4.11277 248.033 0.19848 259 1.76419 267.617C4.11277 279.367 10.3756 281.717 33.0785 280.15C58.9128 278.583 60.4785 279.367 57.3471 297.383C51.0842 330.283 71.4385 331.067 98.8385 298.95L123.89 269.967L129.37 293.467C133.284 310.7 139.547 317.75 149.724 317.75C161.467 317.75 164.598 312.267 164.598 287.983V258.217L249.147 244.9C295.336 237.067 340.741 229.233 350.918 226.883C367.358 222.183 368.141 223.75 368.141 273.883V325.583H399.456H429.987L432.336 268.4L434.684 212L571.684 187.717C646.839 173.617 734.519 158.733 765.833 153.25C817.501 144.633 822.199 142.283 822.199 125.833C822.199 115.65 819.85 105.467 816.719 103.9C812.804 101.55 783.839 104.683 751.741 110.167C719.644 115.65 693.027 119.567 692.244 119.567C692.244 118.783 688.33 109.383 683.633 98.4168L674.239 78.8335V99.9835C673.456 125.05 680.501 122.7 538.021 148.55L437.033 166.567L429.987 147.767C425.29 134.45 417.461 129.75 400.238 129.75C378.318 129.75 363.444 146.983 372.056 161.083C379.101 172.833 360.313 179.1 261.673 196.333C170.078 212.783 165.381 212.783 148.158 199.467C137.981 191.633 126.238 187.717 121.541 190.85C107.45 199.467 91.0099 199.467 80.0499 190.067C71.4385 183.017 69.8728 168.917 74.5699 128.183C79.2671 75.7002 79.2671 74.9168 58.9128 67.0835C32.2956 56.9002 33.0785 56.9002 24.4671 73.3502ZM812.804 123.483C810.456 129.75 747.044 144.633 645.273 162.65C555.244 178.317 469.913 193.983 456.604 196.333C437.033 199.467 430.77 197.9 430.77 189.283C430.77 176.75 424.507 178.317 614.741 145.417C692.244 132.1 761.136 119.567 767.399 118.783C795.581 112.517 815.153 114.867 812.804 123.483ZM421.376 229.233L423.724 317.75H403.37H383.798V226.883C383.798 137.583 383.798 136.8 401.804 139.15C418.244 141.5 419.027 144.633 421.376 229.233ZM368.141 202.6C368.141 210.433 342.307 217.483 284.376 226.883C237.404 234.717 188.084 244.117 174.776 247.25C147.376 254.3 134.85 246.467 151.29 233.15C160.684 226.1 314.124 194.767 350.918 193.2C360.313 192.417 368.141 197.117 368.141 202.6ZM89.4442 250.383C83.9642 265.267 25.2499 275.45 13.5071 263.7C4.89562 255.083 10.3756 251.95 43.2556 244.9C77.7013 237.067 93.3585 239.417 89.4442 250.383Z" fill="#F88D2A"/>
<path d="M391.627 191.633C391.627 196.333 394.758 201.033 397.89 203.383C401.804 205.733 404.936 202.6 404.936 196.333C404.936 190.067 401.804 184.583 397.89 184.583C394.758 184.583 391.627 187.717 391.627 191.633Z" fill="#F88D2A"/>
</g>
<defs>
<clipPath id="clip0_2014_884">
<rect width="822" height="329" fill="white" transform="translate(0.198242 0.5)"/>
</clipPath>
</defs>
</svg>
