<svg width="509" height="500" viewBox="0 0 509 500" fill="none" xmlns="http://www.w3.org/2000/svg">
<path d="M358.623 4.48189C307.083 21.2886 276.271 64.9861 276.271 123.249C276.271 183.753 304.842 225.21 358.623 242.017C383.273 249.86 392.237 250.42 418.007 244.258C452.741 236.975 483.553 213.445 496.999 185.434C511.004 155.182 509.324 84.5939 493.077 56.0225C468.987 14.0057 405.682 -10.6442 358.623 4.48189ZM434.814 26.8908C444.898 31.3726 456.102 38.6555 460.024 43.1373C466.186 50.9805 457.223 54.902 392.797 77.311C351.901 91.3166 313.806 104.202 308.763 106.443C300.36 109.804 298.679 107.563 298.679 94.6779C298.679 56.5827 344.058 19.6079 389.996 19.6079C404.562 19.6079 424.73 22.9693 434.814 26.8908ZM480.752 74.5099C477.391 77.311 444.338 90.1961 406.242 103.641C368.707 116.527 336.214 129.972 334.534 132.773C326.13 146.218 343.497 143.417 409.604 121.569C448.819 108.684 482.993 98.0393 485.234 98.0393C493.077 98.0393 488.595 123.81 477.391 142.297C461.144 169.188 445.458 180.392 415.766 187.675C396.158 192.717 383.833 192.717 365.346 187.675C340.136 180.952 304.282 150.14 304.282 135.574C304.282 129.972 321.649 121.008 359.184 108.684C388.875 98.5995 424.73 85.7143 438.735 80.6723C466.747 70.5883 488.595 67.2269 480.752 74.5099ZM390.556 210.084C417.447 209.524 452.181 198.319 467.307 184.314C472.909 179.272 477.951 177.031 477.951 180.392C477.951 187.115 451.06 212.325 434.254 220.728C419.688 228.571 379.352 230.252 359.744 224.09C341.256 218.487 316.607 200.56 309.884 187.675C304.842 178.711 309.324 179.832 335.654 193.277C356.383 204.482 374.87 210.084 390.556 210.084Z" fill="#F88D2A"/>
<path d="M62.2649 147.899C23.0492 160.224 1.76074 189.356 1.76074 230.252C1.76074 276.751 27.531 304.762 92.517 327.171L109.324 333.333L92.517 352.941C53.8616 396.078 67.3069 460.504 119.968 487.395C141.817 499.159 379.912 499.72 406.803 487.955C480.752 456.582 472.909 350.7 395.038 327.171C373.749 321.008 371.508 318.767 371.508 302.521C371.508 277.871 350.22 248.739 323.889 235.854C277.951 214.006 111.004 148.459 94.7579 146.218C85.2341 144.538 70.6683 145.658 62.2649 147.899ZM140.136 180.392C161.425 188.235 179.352 196.078 180.472 196.639C181.593 197.759 175.99 206.162 167.587 216.246C147.419 239.776 135.654 269.468 134.534 298.039C133.974 311.485 132.853 322.129 132.293 322.129C131.172 322.129 113.806 315.406 93.0772 307.563C26.9708 281.793 4.00164 243.697 26.9708 198.88C45.4582 163.025 81.8727 157.423 140.136 180.392ZM266.747 230.252C326.13 253.221 354.702 277.311 354.702 305.322V322.129H253.861H153.021V299.72C153.021 260.504 182.713 210.084 206.242 210.084C210.724 210.084 238.175 219.048 266.747 230.252ZM279.632 358.543C298.679 387.675 294.758 448.739 272.349 470.588C260.024 483.473 151.34 482.353 125.01 468.907C96.9988 454.902 82.433 423.529 90.8363 394.958C94.1977 383.193 104.842 366.947 114.366 359.104C130.612 345.098 134.534 344.538 201.2 344.538C268.988 344.538 270.668 345.098 279.632 358.543ZM419.688 363.585C435.934 379.832 438.735 386.554 438.735 408.403C438.735 430.252 435.374 437.535 419.688 454.902C401.2 475.07 400.64 475.63 349.1 477.871L296.999 480.672L302.041 464.426C308.203 443.697 308.763 373.669 302.601 356.863C298.119 344.538 298.679 344.538 349.1 344.538C400.08 344.538 400.64 344.538 419.688 363.585Z" fill="#F88D2A"/>
<path d="M85.7939 184.314C85.7939 192.157 126.13 210.084 143.497 210.084C161.424 210.084 153.021 198.319 127.251 187.675C96.9984 174.79 85.7939 173.669 85.7939 184.314Z" fill="#F88D2A"/>
<path d="M207.363 224.65C198.96 233.053 205.122 236.975 258.904 259.944C299.8 277.311 315.486 287.395 320.528 297.479C327.251 312.605 337.895 310.924 337.895 294.678C337.895 278.991 316.046 263.305 267.867 243.697C243.217 234.173 220.248 224.65 216.887 223.529C214.086 221.849 209.604 222.969 207.363 224.65Z" fill="#F88D2A"/>
<path d="M122.769 368.067C107.083 382.073 100.92 406.162 112.125 410.084C116.046 411.764 121.649 406.722 124.45 399.439C132.853 376.47 142.937 373.109 202.321 371.428C280.752 369.187 279.072 359.103 199.52 356.862C141.257 355.742 136.214 356.302 122.769 368.067Z" fill="#F88D2A"/>
<path d="M322.208 362.465C323.889 366.947 337.334 370.308 356.382 371.429C382.152 372.549 388.315 371.429 388.315 364.146C388.315 357.423 381.032 355.742 354.141 355.742C329.491 355.742 320.528 357.423 322.208 362.465Z" fill="#F88D2A"/>
</svg>
