<svg width="493" height="500" viewBox="0 0 493 500" fill="none" xmlns="http://www.w3.org/2000/svg">
<path d="M315.902 140.086H288.556V132.095L276.073 108.438C273.774 104.047 269.038 101.275 263.864 101.293H247.608V62.5002H309.03C316.568 62.5002 322.68 56.7114 322.68 49.5692V36.6382C322.68 29.4959 316.568 23.7071 309.03 23.7071H258.09L248.488 10.0713C245.963 6.46677 241.697 4.30324 237.131 4.31057H203.492C198.925 4.30324 194.66 6.46677 192.136 10.0713L182.533 23.7071H131.586C124.048 23.7071 117.937 29.4959 117.937 36.6382V49.5692C117.937 56.7114 124.048 62.5002 131.586 62.5002H193.01V101.293H176.759C171.585 101.275 166.85 104.047 164.55 108.438L152.06 132.095V140.086H70.1634V131.151C70.1843 126.248 67.2588 121.761 62.6225 119.584L37.6504 107.759H8.74121V275.862H37.6504L62.6225 264.037C67.2588 261.86 70.1843 257.373 70.1634 252.47V243.535H315.902C349.809 243.57 377.288 269.602 377.325 301.724V314.655H486.521V301.724C486.416 212.496 410.088 140.186 315.902 140.086ZM309.03 49.5692H261.257V36.6382H309.03V49.5692ZM203.492 17.2416H237.131L247.608 32.1123V49.5692H193.01V32.1123L203.492 17.2416ZM131.586 36.6382H179.36V49.5692H131.586V36.6382ZM206.659 62.5002H233.958V101.293H206.659V62.5002ZM165.711 135.147L176.759 114.224H263.864L274.907 135.147V140.086H165.711V135.147ZM56.5139 252.47L34.4364 262.931H22.3907V120.69H34.4291L56.5139 131.151V252.47ZM390.974 301.724C390.866 262.488 357.318 230.706 315.902 230.604H70.1634V153.017H315.855C402.445 153.249 472.58 219.692 472.824 301.724H390.974Z" fill="#F88D2A"/>
<path d="M386.538 451.078C386.243 475.424 406.825 495.392 432.523 495.69H433.103C458.59 495.681 479.334 476.262 479.649 452.119V451.078C479.649 422.687 433.097 360.018 433.097 360.018C433.097 360.018 386.538 422.837 386.538 451.078ZM465.999 451.24V451.989C465.702 469.018 451.081 482.694 433.103 482.759H432.694C414.485 482.511 399.933 468.329 400.188 451.078C400.188 437.054 417.468 406.712 433.11 383.345C448.739 406.621 465.999 436.931 465.999 451.207V451.24Z" fill="#F88D2A"/>
</svg>
