<svg width="468" height="500" viewBox="0 0 468 500" fill="none" xmlns="http://www.w3.org/2000/svg">
<path d="M371.729 73.0399L207.367 5.91886C186.585 -3.12458 161.963 5.42853 152.371 25.0226C142.78 44.6166 151.851 67.8326 172.632 76.8752C172.882 76.9834 173.131 77.0899 173.383 77.1932L205.873 90.4588L158.483 209.616C156.928 213.515 155.494 217.505 154.072 221.45C156.529 221.416 158.298 221.45 159.021 221.518L166.563 221.918C167.603 219.134 168.584 216.322 169.677 213.572L216.858 94.9448L338.857 144.76L343.686 134.453C328.82 128.187 322.156 111.746 328.802 97.7301C335.33 83.9612 352.311 77.6121 367.073 83.4203L368.005 83.7981C394.728 97.3227 386.336 126.181 370.265 168.18C368.579 172.581 366.912 176.932 365.393 181.091L330.644 270.077C312.57 316.353 303.319 365.278 303.319 414.592V478.733L226.989 449.621C226.552 450.601 226.17 451.616 225.716 452.585C224.521 455.099 223.289 457.522 222.01 459.883L309.361 493.193L463.419 431.076V250.748C463.419 195.9 455.894 119.374 391.697 82.4399C389.019 80.9014 386.205 79.5489 383.377 78.2694L371.729 73.0399ZM318.021 93.0506C313.619 102.194 313.144 112.589 316.695 122.056C316.742 122.179 317.095 123.115 317.292 123.577C317.322 123.645 317.292 123.678 317.214 123.651L178.218 66.8866C163.364 60.5883 156.738 44.1292 163.418 30.1246C170.098 16.1197 187.555 9.8723 202.409 16.1706C202.451 16.1889 202.495 16.2072 202.537 16.2257L340.835 72.7022C330.692 76.3924 322.502 83.7039 318.039 93.0506H318.021ZM451.465 423.632L315.272 478.552V414.604C315.237 366.615 324.234 319.001 341.845 273.976L376.666 184.872C378.208 180.656 379.857 176.351 381.519 172.006C390.831 147.668 401.529 119.599 394.925 98.2244C433.368 125.487 451.465 174.435 451.465 250.759V423.632Z" fill="#F88D2A"/>
<path d="M211.862 323.611C202.663 313.116 188.995 307.014 174.555 306.954C160.438 306.954 146.685 312.234 134.277 316.151C128.872 317.841 123.235 318.778 117.542 318.934C116.847 315.142 115.878 311.399 114.644 307.732C126.454 305.806 137.379 300.578 145.998 292.724C165.285 274.546 163.737 244.955 163.659 243.698L163.354 238.671L158.029 238.39C156.69 238.322 124.953 236.857 106.031 255.042C100.606 260.342 96.4254 266.659 93.7608 273.582C85.5915 264.491 75.7748 256.842 64.7671 250.99L59.424 261.077C67.6238 264.943 97.8842 285.483 105.326 318.556C101.204 318.102 97.1444 317.247 93.2105 316.004C80.7666 312.06 66.8109 306.678 52.5683 306.678C38.1779 306.705 24.5557 312.801 15.4344 323.296C-13.547 353.383 4.75392 492.623 80.0616 492.623C91.8943 492.348 103.498 489.489 113.962 484.273C124.425 489.547 136.05 492.442 147.91 492.725C222.746 492.725 240.766 353.675 211.862 323.611ZM114.554 262.982C125.456 252.506 142.74 250.201 151.658 249.733C151.149 258.091 148.669 274.292 137.505 284.819C129.969 291.492 120.404 295.773 110.155 297.058C107.983 292.706 105.471 288.511 102.642 284.509C104.485 276.453 108.601 269.015 114.554 262.982ZM147.91 481.455C137.908 481.151 128.118 478.668 119.305 474.196L113.985 471.689L108.655 474.174C99.8333 478.601 90.0504 481.057 80.0616 481.353C53.6446 481.353 37.6861 459.212 28.954 440.638C8.96759 398.115 11.7946 343.797 24.2263 330.869C31.1134 322.772 41.4997 318.026 52.5083 317.948C63.2918 318.648 73.8831 320.995 83.8685 324.896C85.7272 325.505 87.5563 326.108 89.3497 326.683C96.3306 328.908 103.635 330.102 111.004 330.222L114.38 330.273H115.576C123.221 330.278 130.816 329.115 138.067 326.829C139.913 326.265 141.796 325.628 143.703 325.009C153.53 321.193 163.946 318.897 174.549 318.213C185.607 318.324 196.038 323.075 203.005 331.174C215.49 344.135 218.389 398.611 198.384 441.173C189.754 459.556 173.987 481.455 147.91 481.455Z" fill="#F88D2A"/>
</svg>
