<svg width="394" height="500" viewBox="0 0 394 500" fill="none" xmlns="http://www.w3.org/2000/svg">
<g clip-path="url(#clip0_2014_908)">
<path d="M295.149 138.206L295.149 138.202C294.502 94.8454 294.501 67.6184 295.717 49.6894C296.932 31.7887 299.368 22.9826 303.727 16.6026C307.675 10.3558 311.7 6.2968 317.696 3.84755C323.634 1.42216 331.409 0.617966 342.751 0.617966C354.535 0.617966 363.74 1.01236 370.794 3.67596C377.963 6.38297 382.847 11.4013 386.086 20.3722C389.298 29.2669 390.918 42.104 391.626 60.5602C392.335 79.0381 392.132 103.256 391.647 134.967L391.647 134.969L389.705 244.354L389.688 245.336H388.705H343.398H298.091H297.109L297.091 244.355L295.149 138.206ZM377.997 132.362C377.997 96.7697 377.349 70.5851 376.058 52.6607C375.411 43.6957 374.606 36.824 373.646 31.8856C373.166 29.4157 372.652 27.4539 372.111 25.9666C371.561 24.4582 371.015 23.5297 370.523 23.037C368.113 20.6276 364.183 18.7458 359.364 17.4715C354.567 16.2028 348.991 15.563 343.398 15.563C337.805 15.563 332.229 16.2028 327.432 17.4715C322.613 18.7458 318.683 20.6276 316.273 23.037C315.781 23.5297 315.235 24.4582 314.686 25.9666C314.144 27.4539 313.63 29.4157 313.15 31.8856C312.19 36.824 311.385 43.6957 310.738 52.6607C309.447 70.5851 308.799 96.7697 308.799 132.362V233.628H343.398H377.997V132.362Z" fill="#F88D2A" stroke="#F88D2A" stroke-width="2"/>
<path d="M280.916 237.533L280.903 237.572L280.887 237.611C279.777 240.2 277.695 242.14 273.522 243.601C269.406 245.043 263.146 246.061 253.506 246.79C234.204 248.25 200.988 248.573 143.398 248.573C90.3297 248.573 57.124 248.088 36.8578 246.71C26.7333 246.021 19.7777 245.106 15.1711 243.898C12.8677 243.294 11.097 242.603 9.79705 241.794C8.49808 240.986 7.61884 240.028 7.19326 238.88C6.11702 236.347 6.15434 233.043 6.9087 229.942C7.66861 226.817 9.19726 223.725 11.2995 221.623C11.7303 221.192 12.4036 220.876 13.1282 220.62C13.8893 220.35 14.8526 220.097 15.9889 219.858C18.2643 219.379 21.3256 218.933 25.0459 218.52C32.4918 217.692 42.6644 216.983 54.6559 216.396C78.6438 215.222 109.97 214.534 141.451 214.372C172.933 214.21 204.582 214.574 229.217 215.506C241.532 215.971 252.107 216.579 260.036 217.335C263.999 217.713 267.317 218.129 269.868 218.587C271.143 218.815 272.241 219.057 273.139 219.314C274.021 219.566 274.773 219.849 275.316 220.185L275.32 220.188C280.957 223.711 282.977 231.35 280.916 237.533ZM145.987 231.744C124.722 231.744 107.307 231.866 94.3761 232.054C125.191 232.858 166.783 232.858 197.598 232.054C184.668 231.866 167.252 231.744 145.987 231.744Z" fill="#F88D2A" stroke="#F88D2A" stroke-width="2"/>
<path d="M2.8008 275.44L2.82525 275.409L2.85215 275.379C4.70659 273.339 8.19449 271.838 14.3138 270.651C20.4833 269.454 29.5411 268.541 42.7797 267.852C69.2664 266.475 112.658 265.99 183.527 265.99H355.048H356.229L356.035 267.155L351.505 294.334C351.505 294.334 351.505 294.335 351.505 294.335C345.001 334.654 329.365 363.398 302.564 383.008L302.556 383.014L302.547 383.02C296.091 387.539 289.631 392.384 284.293 396.428C283.301 397.18 282.346 397.905 281.436 398.596C277.556 401.543 274.494 403.868 272.859 404.969C272.746 405.116 272.637 405.397 272.67 405.951C272.709 406.586 272.932 407.448 273.387 408.547C274.295 410.739 276.024 413.64 278.516 417.138C283.491 424.119 291.38 433.3 301.394 443.637C314.161 456.566 323.536 466.584 328.706 474.323C331.288 478.188 332.893 481.588 333.289 484.572C333.695 487.634 332.818 490.227 330.567 492.318C328.38 494.351 324.952 495.859 320.346 497.011C315.719 498.168 309.789 498.992 302.489 499.581C287.89 500.758 267.664 501 241.133 501C209.736 501 187.368 500.353 172.271 498.973C164.726 498.284 158.961 497.408 154.778 496.326C152.686 495.785 150.963 495.186 149.6 494.518C148.251 493.857 147.197 493.1 146.503 492.213C144.686 490.024 143.699 486.45 143.332 481.897C142.96 477.294 143.21 471.517 144.023 464.767C145.65 451.262 149.549 433.729 155.383 413.637L155.385 413.629C156.321 410.51 156.263 408.035 155.515 406.404C154.808 404.862 153.414 403.913 151.165 403.913H151.146L151.128 403.912C146.584 403.744 139.087 401.666 130.123 398.422C121.117 395.163 110.509 390.68 99.6891 385.614C78.0699 375.493 55.4928 362.994 43.1019 353.212L43.0988 353.21C27.1438 340.511 14.2664 324.872 6.75226 310.579C2.9962 303.434 0.557724 296.583 -0.231124 290.573C-1.01884 284.572 -0.173617 279.29 2.8008 275.44ZM125.561 379.948L125.571 379.951L125.582 379.954C135.617 383.192 145.341 386.433 152.884 389.19C156.654 390.569 159.893 391.831 162.358 392.916C163.591 393.458 164.643 393.961 165.478 394.417C166.262 394.846 166.927 395.271 167.36 395.687C167.937 396.156 168.242 396.934 168.43 397.688C168.638 398.52 168.758 399.571 168.81 400.787C168.915 403.224 168.747 406.475 168.341 410.3C167.526 417.958 165.737 428.035 163.14 438.747C160.554 449.415 158.29 459.601 156.592 467.445C155.854 470.852 155.221 473.827 154.715 476.208C154.159 478.822 153.755 480.72 153.532 481.689C153.718 481.798 154.021 481.931 154.472 482.078C155.51 482.414 157.093 482.746 159.202 483.062C163.404 483.693 169.517 484.237 177.113 484.681C192.297 485.57 213.311 486.055 236.602 486.055C259.896 486.055 280.918 485.731 296.112 485.166C303.711 484.883 309.838 484.54 314.058 484.148C316.173 483.951 317.78 483.745 318.846 483.534C319.038 483.496 319.206 483.459 319.352 483.424C319.33 483.395 319.307 483.366 319.283 483.335C318.864 482.8 318.233 482.067 317.404 481.153C315.75 479.328 313.355 476.832 310.404 473.841C304.508 467.865 296.427 459.945 287.695 451.536C278.6 443.09 270.473 434.151 264.611 426.498C261.68 422.672 259.302 419.15 257.652 416.159C256.029 413.217 255.019 410.633 255.019 408.738C255.019 406.842 255.904 404.626 257.33 402.29C258.773 399.927 260.844 397.324 263.381 394.623C268.458 389.219 275.477 383.345 283.296 378.132C297.704 368.527 312.175 351.984 322.644 334.993C327.873 326.505 332.085 317.935 334.787 310.101C337.494 302.249 338.653 295.227 337.878 289.792C337.638 288.275 337.364 287.058 336.823 286.015C336.296 284.999 335.488 284.095 334.086 283.277C331.195 281.592 325.883 280.325 315.718 279.394C295.463 277.538 256.685 277.052 181.577 276.405C138.867 276.081 98.9119 276.405 69.0723 277.213C54.1507 277.618 41.7681 278.143 32.8388 278.769C28.372 279.082 24.7844 279.419 22.1809 279.776C20.8776 279.954 19.839 280.136 19.0678 280.317C18.2466 280.511 17.8705 280.674 17.7656 280.749L17.728 280.776L17.6882 280.799C15.7969 281.902 14.5388 282.94 13.7948 284.081C13.0754 285.186 12.78 286.477 12.9986 288.225C13.2218 290.011 13.9782 292.244 15.3579 295.163C16.733 298.073 18.696 301.601 21.2809 305.963L21.2843 305.969C39.2451 336.759 82.3644 367.053 125.561 379.948ZM153.369 481.578C153.362 481.57 153.358 481.565 153.357 481.566C153.357 481.566 153.36 481.57 153.369 481.578Z" fill="#F88D2A" stroke="#F88D2A" stroke-width="2"/>
</g>
<defs>
<clipPath id="clip0_2014_908">
<rect width="393.204" height="500" fill="white" transform="translate(0.355469)"/>
</clipPath>
</defs>
</svg>
