<svg width="654" height="500" viewBox="0 0 654 500" fill="none" xmlns="http://www.w3.org/2000/svg">
<g clip-path="url(#clip0_2014_917)">
<mask id="path-1-outside-1_2014_917" maskUnits="userSpaceOnUse" x="-0.438477" y="-1.40918" width="658" height="504" fill="black">
<rect fill="white" x="-0.438477" y="-1.40918" width="658" height="504"/>
<path d="M77.172 5.37646C77.172 13.9786 163.731 101.613 183.624 113.441C194.376 120.43 204.591 126.344 205.129 126.882C206.204 127.419 197.064 140.86 185.236 155.914C161.043 186.559 158.355 198.387 172.871 211.29C193.301 229.57 213.731 225.269 265.882 190.323C304.054 165.054 313.731 160.753 329.86 162.903C357.817 166.667 450.828 223.656 486.849 259.678C520.183 292.473 526.097 306.452 506.204 306.452C487.387 305.914 472.333 295.161 454.591 270.968C437.925 248.387 379.86 195.699 375.559 200C373.946 201.075 390.075 217.204 410.505 235.484C440.613 262.366 451.903 277.957 469.645 313.441C482.548 339.247 492.763 368.817 494.914 385.484C497.602 411.828 497.064 413.979 486.849 413.979C472.333 413.979 461.043 396.774 456.204 368.28C454.591 356.452 449.753 341.936 446.527 335.484C436.849 318.817 373.409 250.538 370.183 253.764C368.57 255.377 382.548 273.118 401.366 293.549C420.183 313.979 438.462 336.022 441.688 342.473C454.054 365.054 447.064 446.237 433.624 446.237C430.935 446.237 428.785 432.258 428.247 415.592C427.172 398.387 422.871 379.57 417.495 371.506C400.828 345.699 362.118 300.538 362.118 306.989C362.118 310.215 371.796 324.731 383.624 338.71C414.269 375.269 421.258 391.398 421.258 425.807C421.258 452.151 419.645 457.527 407.279 467.205C392.226 479.032 372.871 482.258 372.871 473.118C372.871 469.893 376.634 467.742 380.935 467.742C389 467.742 405.129 441.936 405.129 428.495C405.129 424.194 400.29 416.667 394.376 411.291C386.849 404.301 385.236 399.463 389 395.699C406.742 377.957 380.935 338.71 351.366 338.71C342.763 338.71 335.236 336.559 335.236 333.871C335.236 331.183 328.247 326.344 319.107 322.581C305.667 316.667 300.828 317.204 285.236 326.344C267.495 337.097 266.957 337.097 255.129 327.42C234.161 310.215 211.581 317.204 211.581 340.86C211.581 359.678 231.473 387.097 244.914 387.097C251.903 387.097 262.118 390.86 267.495 395.161C273.409 399.463 282.548 403.226 287.387 403.226C292.763 403.226 298.677 408.065 300.29 413.979C302.441 419.893 310.505 428.495 318.57 432.258C347.602 447.312 355.129 485.484 329.86 488.172C320.183 489.248 307.28 481.721 284.699 461.828C266.957 447.312 235.774 426.344 214.806 415.592C160.505 388.71 134.161 358.602 91.1505 273.118C53.5161 200 13.7311 134.409 5.66661 134.409C0.827902 134.409 2.97844 138.71 26.6344 172.043C35.7741 185.484 61.043 230.645 82.5483 273.118C129.323 363.979 154.054 393.549 209.968 421.506C230.935 431.721 262.118 452.151 279.86 466.667C297.064 480.645 315.344 494.086 320.72 496.237C333.624 501.075 349.753 492.473 354.054 477.957L357.817 466.667L368.032 477.957C381.473 491.936 399.215 486.022 430.935 456.989C448.14 440.86 453.516 431.721 453.516 419.355V402.688L468.57 413.979C492.763 431.721 502.978 424.194 501.366 389.248C499.753 361.291 500.828 360.215 521.258 345.161C558.355 318.28 580.398 286.559 604.054 227.957C616.419 197.312 633.624 162.366 642.226 150.538C650.828 138.71 655.129 129.032 652.441 129.032C643.839 129.032 616.419 175.269 600.828 217.204C592.763 238.172 581.473 263.979 575.559 274.194C561.043 298.925 529.86 332.258 511.043 341.936C496.527 350 495.989 349.463 488.462 331.183C478.247 306.452 478.247 305.914 492.763 311.291C508.355 317.204 523.409 309.678 523.409 294.624C523.409 278.495 467.495 226.882 419.107 198.925C379.323 175.807 378.247 174.731 391.15 169.893C412.118 161.828 407.817 158.602 375.559 158.065C359.43 157.527 336.849 156.452 325.559 155.914C308.892 154.839 298.14 159.678 261.043 184.946C214.269 216.667 192.763 222.043 177.172 206.452C165.344 194.624 165.882 192.473 189 162.903C241.688 96.7743 279.323 77.4195 391.688 59.1399C426.634 53.226 464.269 45.6991 475.021 42.4732C497.064 35.484 528.785 12.9034 528.785 4.30121C528.785 1.07538 523.409 3.22592 516.419 9.67755C497.064 27.9571 459.43 41.9356 410.505 48.3872C319.107 60.2152 275.559 74.7313 234.699 106.452C208.355 126.344 194.914 119.893 132.548 56.4518C101.903 25.8066 77.172 2.68829 77.172 5.37646ZM251.366 333.871C269.645 347.85 270.72 373.656 253.516 379.57C244.914 382.258 239 380.108 232.011 370.968C218.032 353.764 213.731 333.334 222.871 327.42C233.624 320.968 235.236 320.968 251.366 333.871ZM325.559 334.409C342.226 348.387 341.688 360.215 322.333 379.57C302.441 399.463 289.538 402.151 273.409 390.323C264.806 383.871 264.269 381.721 270.183 374.194C273.946 369.355 276.097 360.753 274.484 354.839C269.107 334.409 306.742 319.355 325.559 334.409ZM380.935 362.366C389 374.194 389 376.882 381.473 391.398C371.258 411.291 348.14 430.108 334.699 430.108C328.785 430.108 319.645 425.269 313.731 419.355L302.978 408.602L324.484 387.635C336.312 376.344 345.989 363.441 345.989 358.602C345.989 344.086 371.258 347.312 380.935 362.366ZM395.989 423.656C397.064 429.032 394.376 439.248 390.613 447.312C382.011 464.516 365.344 467.205 350.29 453.226C340.075 444.086 340.613 443.549 360.505 426.882C381.473 409.14 392.226 408.602 395.989 423.656Z"/>
</mask>
<path d="M77.172 5.37646C77.172 13.9786 163.731 101.613 183.624 113.441C194.376 120.43 204.591 126.344 205.129 126.882C206.204 127.419 197.064 140.86 185.236 155.914C161.043 186.559 158.355 198.387 172.871 211.29C193.301 229.57 213.731 225.269 265.882 190.323C304.054 165.054 313.731 160.753 329.86 162.903C357.817 166.667 450.828 223.656 486.849 259.678C520.183 292.473 526.097 306.452 506.204 306.452C487.387 305.914 472.333 295.161 454.591 270.968C437.925 248.387 379.86 195.699 375.559 200C373.946 201.075 390.075 217.204 410.505 235.484C440.613 262.366 451.903 277.957 469.645 313.441C482.548 339.247 492.763 368.817 494.914 385.484C497.602 411.828 497.064 413.979 486.849 413.979C472.333 413.979 461.043 396.774 456.204 368.28C454.591 356.452 449.753 341.936 446.527 335.484C436.849 318.817 373.409 250.538 370.183 253.764C368.57 255.377 382.548 273.118 401.366 293.549C420.183 313.979 438.462 336.022 441.688 342.473C454.054 365.054 447.064 446.237 433.624 446.237C430.935 446.237 428.785 432.258 428.247 415.592C427.172 398.387 422.871 379.57 417.495 371.506C400.828 345.699 362.118 300.538 362.118 306.989C362.118 310.215 371.796 324.731 383.624 338.71C414.269 375.269 421.258 391.398 421.258 425.807C421.258 452.151 419.645 457.527 407.279 467.205C392.226 479.032 372.871 482.258 372.871 473.118C372.871 469.893 376.634 467.742 380.935 467.742C389 467.742 405.129 441.936 405.129 428.495C405.129 424.194 400.29 416.667 394.376 411.291C386.849 404.301 385.236 399.463 389 395.699C406.742 377.957 380.935 338.71 351.366 338.71C342.763 338.71 335.236 336.559 335.236 333.871C335.236 331.183 328.247 326.344 319.107 322.581C305.667 316.667 300.828 317.204 285.236 326.344C267.495 337.097 266.957 337.097 255.129 327.42C234.161 310.215 211.581 317.204 211.581 340.86C211.581 359.678 231.473 387.097 244.914 387.097C251.903 387.097 262.118 390.86 267.495 395.161C273.409 399.463 282.548 403.226 287.387 403.226C292.763 403.226 298.677 408.065 300.29 413.979C302.441 419.893 310.505 428.495 318.57 432.258C347.602 447.312 355.129 485.484 329.86 488.172C320.183 489.248 307.28 481.721 284.699 461.828C266.957 447.312 235.774 426.344 214.806 415.592C160.505 388.71 134.161 358.602 91.1505 273.118C53.5161 200 13.7311 134.409 5.66661 134.409C0.827902 134.409 2.97844 138.71 26.6344 172.043C35.7741 185.484 61.043 230.645 82.5483 273.118C129.323 363.979 154.054 393.549 209.968 421.506C230.935 431.721 262.118 452.151 279.86 466.667C297.064 480.645 315.344 494.086 320.72 496.237C333.624 501.075 349.753 492.473 354.054 477.957L357.817 466.667L368.032 477.957C381.473 491.936 399.215 486.022 430.935 456.989C448.14 440.86 453.516 431.721 453.516 419.355V402.688L468.57 413.979C492.763 431.721 502.978 424.194 501.366 389.248C499.753 361.291 500.828 360.215 521.258 345.161C558.355 318.28 580.398 286.559 604.054 227.957C616.419 197.312 633.624 162.366 642.226 150.538C650.828 138.71 655.129 129.032 652.441 129.032C643.839 129.032 616.419 175.269 600.828 217.204C592.763 238.172 581.473 263.979 575.559 274.194C561.043 298.925 529.86 332.258 511.043 341.936C496.527 350 495.989 349.463 488.462 331.183C478.247 306.452 478.247 305.914 492.763 311.291C508.355 317.204 523.409 309.678 523.409 294.624C523.409 278.495 467.495 226.882 419.107 198.925C379.323 175.807 378.247 174.731 391.15 169.893C412.118 161.828 407.817 158.602 375.559 158.065C359.43 157.527 336.849 156.452 325.559 155.914C308.892 154.839 298.14 159.678 261.043 184.946C214.269 216.667 192.763 222.043 177.172 206.452C165.344 194.624 165.882 192.473 189 162.903C241.688 96.7743 279.323 77.4195 391.688 59.1399C426.634 53.226 464.269 45.6991 475.021 42.4732C497.064 35.484 528.785 12.9034 528.785 4.30121C528.785 1.07538 523.409 3.22592 516.419 9.67755C497.064 27.9571 459.43 41.9356 410.505 48.3872C319.107 60.2152 275.559 74.7313 234.699 106.452C208.355 126.344 194.914 119.893 132.548 56.4518C101.903 25.8066 77.172 2.68829 77.172 5.37646ZM251.366 333.871C269.645 347.85 270.72 373.656 253.516 379.57C244.914 382.258 239 380.108 232.011 370.968C218.032 353.764 213.731 333.334 222.871 327.42C233.624 320.968 235.236 320.968 251.366 333.871ZM325.559 334.409C342.226 348.387 341.688 360.215 322.333 379.57C302.441 399.463 289.538 402.151 273.409 390.323C264.806 383.871 264.269 381.721 270.183 374.194C273.946 369.355 276.097 360.753 274.484 354.839C269.107 334.409 306.742 319.355 325.559 334.409ZM380.935 362.366C389 374.194 389 376.882 381.473 391.398C371.258 411.291 348.14 430.108 334.699 430.108C328.785 430.108 319.645 425.269 313.731 419.355L302.978 408.602L324.484 387.635C336.312 376.344 345.989 363.441 345.989 358.602C345.989 344.086 371.258 347.312 380.935 362.366ZM395.989 423.656C397.064 429.032 394.376 439.248 390.613 447.312C382.011 464.516 365.344 467.205 350.29 453.226C340.075 444.086 340.613 443.549 360.505 426.882C381.473 409.14 392.226 408.602 395.989 423.656Z" fill="#F88D2A"/>
<path d="M77.172 5.37646C77.172 13.9786 163.731 101.613 183.624 113.441C194.376 120.43 204.591 126.344 205.129 126.882C206.204 127.419 197.064 140.86 185.236 155.914C161.043 186.559 158.355 198.387 172.871 211.29C193.301 229.57 213.731 225.269 265.882 190.323C304.054 165.054 313.731 160.753 329.86 162.903C357.817 166.667 450.828 223.656 486.849 259.678C520.183 292.473 526.097 306.452 506.204 306.452C487.387 305.914 472.333 295.161 454.591 270.968C437.925 248.387 379.86 195.699 375.559 200C373.946 201.075 390.075 217.204 410.505 235.484C440.613 262.366 451.903 277.957 469.645 313.441C482.548 339.247 492.763 368.817 494.914 385.484C497.602 411.828 497.064 413.979 486.849 413.979C472.333 413.979 461.043 396.774 456.204 368.28C454.591 356.452 449.753 341.936 446.527 335.484C436.849 318.817 373.409 250.538 370.183 253.764C368.57 255.377 382.548 273.118 401.366 293.549C420.183 313.979 438.462 336.022 441.688 342.473C454.054 365.054 447.064 446.237 433.624 446.237C430.935 446.237 428.785 432.258 428.247 415.592C427.172 398.387 422.871 379.57 417.495 371.506C400.828 345.699 362.118 300.538 362.118 306.989C362.118 310.215 371.796 324.731 383.624 338.71C414.269 375.269 421.258 391.398 421.258 425.807C421.258 452.151 419.645 457.527 407.279 467.205C392.226 479.032 372.871 482.258 372.871 473.118C372.871 469.893 376.634 467.742 380.935 467.742C389 467.742 405.129 441.936 405.129 428.495C405.129 424.194 400.29 416.667 394.376 411.291C386.849 404.301 385.236 399.463 389 395.699C406.742 377.957 380.935 338.71 351.366 338.71C342.763 338.71 335.236 336.559 335.236 333.871C335.236 331.183 328.247 326.344 319.107 322.581C305.667 316.667 300.828 317.204 285.236 326.344C267.495 337.097 266.957 337.097 255.129 327.42C234.161 310.215 211.581 317.204 211.581 340.86C211.581 359.678 231.473 387.097 244.914 387.097C251.903 387.097 262.118 390.86 267.495 395.161C273.409 399.463 282.548 403.226 287.387 403.226C292.763 403.226 298.677 408.065 300.29 413.979C302.441 419.893 310.505 428.495 318.57 432.258C347.602 447.312 355.129 485.484 329.86 488.172C320.183 489.248 307.28 481.721 284.699 461.828C266.957 447.312 235.774 426.344 214.806 415.592C160.505 388.71 134.161 358.602 91.1505 273.118C53.5161 200 13.7311 134.409 5.66661 134.409C0.827902 134.409 2.97844 138.71 26.6344 172.043C35.7741 185.484 61.043 230.645 82.5483 273.118C129.323 363.979 154.054 393.549 209.968 421.506C230.935 431.721 262.118 452.151 279.86 466.667C297.064 480.645 315.344 494.086 320.72 496.237C333.624 501.075 349.753 492.473 354.054 477.957L357.817 466.667L368.032 477.957C381.473 491.936 399.215 486.022 430.935 456.989C448.14 440.86 453.516 431.721 453.516 419.355V402.688L468.57 413.979C492.763 431.721 502.978 424.194 501.366 389.248C499.753 361.291 500.828 360.215 521.258 345.161C558.355 318.28 580.398 286.559 604.054 227.957C616.419 197.312 633.624 162.366 642.226 150.538C650.828 138.71 655.129 129.032 652.441 129.032C643.839 129.032 616.419 175.269 600.828 217.204C592.763 238.172 581.473 263.979 575.559 274.194C561.043 298.925 529.86 332.258 511.043 341.936C496.527 350 495.989 349.463 488.462 331.183C478.247 306.452 478.247 305.914 492.763 311.291C508.355 317.204 523.409 309.678 523.409 294.624C523.409 278.495 467.495 226.882 419.107 198.925C379.323 175.807 378.247 174.731 391.15 169.893C412.118 161.828 407.817 158.602 375.559 158.065C359.43 157.527 336.849 156.452 325.559 155.914C308.892 154.839 298.14 159.678 261.043 184.946C214.269 216.667 192.763 222.043 177.172 206.452C165.344 194.624 165.882 192.473 189 162.903C241.688 96.7743 279.323 77.4195 391.688 59.1399C426.634 53.226 464.269 45.6991 475.021 42.4732C497.064 35.484 528.785 12.9034 528.785 4.30121C528.785 1.07538 523.409 3.22592 516.419 9.67755C497.064 27.9571 459.43 41.9356 410.505 48.3872C319.107 60.2152 275.559 74.7313 234.699 106.452C208.355 126.344 194.914 119.893 132.548 56.4518C101.903 25.8066 77.172 2.68829 77.172 5.37646ZM251.366 333.871C269.645 347.85 270.72 373.656 253.516 379.57C244.914 382.258 239 380.108 232.011 370.968C218.032 353.764 213.731 333.334 222.871 327.42C233.624 320.968 235.236 320.968 251.366 333.871ZM325.559 334.409C342.226 348.387 341.688 360.215 322.333 379.57C302.441 399.463 289.538 402.151 273.409 390.323C264.806 383.871 264.269 381.721 270.183 374.194C273.946 369.355 276.097 360.753 274.484 354.839C269.107 334.409 306.742 319.355 325.559 334.409ZM380.935 362.366C389 374.194 389 376.882 381.473 391.398C371.258 411.291 348.14 430.108 334.699 430.108C328.785 430.108 319.645 425.269 313.731 419.355L302.978 408.602L324.484 387.635C336.312 376.344 345.989 363.441 345.989 358.602C345.989 344.086 371.258 347.312 380.935 362.366ZM395.989 423.656C397.064 429.032 394.376 439.248 390.613 447.312C382.011 464.516 365.344 467.205 350.29 453.226C340.075 444.086 340.613 443.549 360.505 426.882C381.473 409.14 392.226 408.602 395.989 423.656Z" stroke="#F88D2A" stroke-width="8" mask="url(#path-1-outside-1_2014_917)"/>
</g>
<defs>
<clipPath id="clip0_2014_917">
<rect width="653.226" height="500" fill="white" transform="translate(0.55957)"/>
</clipPath>
</defs>
</svg>
