<svg width="461" height="500" viewBox="0 0 461 500" fill="none" xmlns="http://www.w3.org/2000/svg">
<path d="M428.522 8.02933C427.062 11.9223 427.062 17.2751 428.522 19.7082C429.982 22.1413 417.816 36.7398 402.245 52.3116C374.994 79.5622 372.561 80.5354 360.395 74.696C347.743 69.3432 345.797 70.3164 319.033 96.5938C303.461 112.166 286.916 125.304 282.05 125.791C269.884 127.737 110.274 293.674 111.734 303.406C113.68 318.005 89.8358 361.314 77.6703 364.234C67.938 367.153 3.21777 444.526 3.21777 454.258C3.21777 456.205 19.7628 467.883 40.2007 480.535C70.8577 499.027 78.6436 501.947 83.5098 496.594C86.4295 493.188 102.001 460.584 117.573 424.574C133.145 388.565 147.257 356.934 149.203 354.988C155.043 348.175 172.074 368.127 181.32 391.971C185.7 405.11 192.512 416.788 195.919 418.248C204.678 421.655 242.634 400.73 240.201 393.917C239.228 390.511 234.361 374.939 229.982 359.368L221.709 330.657L237.768 314.112L254.313 297.567L277.184 307.786C308.814 321.898 352.123 328.224 379.86 322.871C392.512 320.438 403.704 317.518 405.164 316.059C406.624 315.085 405.164 299.514 402.245 282.482L396.892 251.338H359.422C326.819 251.825 319.033 249.878 299.082 238.2C285.943 230.9 275.724 222.628 275.724 219.708C275.724 217.275 285.456 204.136 297.622 191.484C309.787 178.832 319.52 166.18 319.52 163.747C319.52 161.314 351.15 127.737 390.079 88.8079C457.719 21.6546 470.858 3.64978 452.366 7.05609C447.5 7.54272 440.687 6.56949 437.281 4.62302C433.875 2.18991 430.468 3.64978 428.522 8.02933ZM333.631 120.925C319.52 135.037 305.894 145.256 303.461 143.796C301.028 142.336 310.76 129.684 324.872 115.085C338.984 100.973 352.61 90.7544 355.043 92.2143C357.476 93.6741 347.743 106.326 333.631 120.925ZM291.782 155.961C299.568 164.234 299.082 165.694 285.456 178.832C273.777 190.024 269.884 191.484 263.558 186.132C253.826 177.859 254.313 172.02 266.965 158.394C279.617 144.769 281.563 144.769 291.782 155.961ZM252.366 199.27C257.232 203.65 261.125 209.489 261.125 212.409C261.125 215.329 235.821 243.066 205.164 273.723C150.176 328.711 149.69 329.197 139.471 319.951C134.118 315.085 130.225 308.273 130.712 304.866C132.172 298.054 235.821 190.998 240.687 190.998C242.147 190.998 247.5 194.404 252.366 199.27ZM288.863 252.798C305.408 262.531 319.52 265.937 346.284 267.883C381.32 269.83 381.807 270.316 384.726 284.428C389.106 306.813 384.726 309.246 346.77 306.813C312.22 304.38 272.318 290.268 249.447 271.776C240.201 263.99 240.201 263.99 251.393 251.825C257.719 245.012 263.558 239.66 264.532 239.66C265.992 239.66 276.697 245.499 288.863 252.798ZM236.794 286.375C236.794 294.647 226.089 293.188 223.169 284.428C222.196 281.022 224.629 278.589 229.009 278.589C233.388 278.589 236.794 281.995 236.794 286.375ZM216.356 307.299C217.816 311.192 215.87 313.139 211.977 311.679C208.571 310.706 204.678 306.813 203.704 303.406C202.245 299.514 204.191 297.567 208.084 299.027C211.49 300 215.383 303.893 216.356 307.299ZM199.811 328.224C203.704 334.55 210.03 351.095 214.41 364.72C221.223 389.051 221.223 390.511 212.95 394.891C205.651 399.27 202.245 395.864 192.512 375.426C186.186 361.801 176.94 348.662 172.074 345.742C163.315 341.363 163.315 340.389 174.021 329.197C187.646 314.599 191.052 314.599 199.811 328.224ZM132.172 336.983C135.091 341.363 77.6703 478.102 72.8042 478.102C68.4246 478.102 27.5487 452.798 27.5487 450.365C27.5487 441.606 78.157 381.265 87.8893 378.832C94.702 377.372 103.461 367.64 110.76 354.015C122.439 331.63 126.819 328.224 132.172 336.983Z" fill="#F88D2A"/>
<path d="M162.342 277.616C153.583 286.862 151.15 302.92 157.962 302.92C164.775 302.92 188.619 275.669 184.726 272.263C179.374 266.424 170.615 268.37 162.342 277.616Z" fill="#F88D2A"/>
</svg>
