<svg width="501" height="500" viewBox="0 0 501 500" fill="none" xmlns="http://www.w3.org/2000/svg">
<path d="M440.372 201.884C437.761 191.179 433.384 180.984 427.418 171.719C420.225 160.149 407.567 153.116 393.943 153.121C369.265 154.068 348.783 172.505 345.254 196.947C342.908 205.773 338.234 213.807 331.722 220.208C329.696 222.327 327.486 224.26 325.117 225.985L306.618 238.049C302.111 240.744 294.244 244.541 294.244 244.541C294.244 244.541 294.405 234.227 294.3 230.461C292.93 181.224 268.461 151.471 219.48 140.167C159.885 126.417 148.961 130.357 94.1657 103.754C72.0628 93.0219 41.2012 77.417 19.1911 52.587C15.8117 48.7189 9.93708 48.3231 6.06928 51.7025C4.20464 53.3314 3.06659 55.637 2.90757 58.1082C-0.0988955 106.754 1.20818 173.307 20.8593 209.179C54.1298 269.932 90.345 276.193 141.336 296.323C156.089 301.826 167.666 305.778 184.343 312.004C170.324 321.583 157.222 331.38 144.854 338.688C108.535 359.452 68.9716 373.93 27.8309 381.513C25.3789 382.03 23.4424 383.908 22.8511 386.344C21.0809 393.213 22.1372 400.506 25.7829 406.593C30.2895 413.911 37.9824 418.677 46.542 419.452C41.012 433.479 47.9013 449.334 61.9285 454.863C64.3555 455.819 66.9064 456.423 69.5045 456.656C66.137 465.252 67.3451 474.967 72.7163 482.475C77.434 488.734 84.734 492.515 92.567 492.758H93.0645C95.0901 492.761 96.9987 491.805 98.2121 490.182C126.397 451.472 143.851 400.716 193.156 399.304C211.207 398.787 229.258 397.243 247.247 397.243C249.495 397.243 251.749 397.243 253.995 397.323C255.146 397.323 256.305 397.361 257.456 397.361C309.574 397.361 358.189 369.897 378.438 323.195C389.499 297.674 383.255 272.776 388.241 245.219C392.038 224.224 397.989 218.64 417.079 213.101C422.617 211.689 428.365 211.299 434.041 211.949L449.827 217.078C449.827 217.078 453.655 212.552 440.372 201.884ZM280.175 266.184C279.867 269.607 282.39 272.634 285.815 272.944C286.007 272.944 286.195 272.944 286.382 272.944C289.615 272.957 292.319 270.493 292.606 267.273L293.372 258.801L299.684 255.751C300.026 255.59 308.112 251.68 313.035 248.737L313.241 248.612L313.446 248.482L331.958 236.418L332.232 236.244L332.494 236.051C335.408 233.927 338.133 231.551 340.635 228.955C348.667 221.007 354.432 211.06 357.336 200.141L357.497 199.518L357.597 198.896C360.197 180.522 375.426 166.551 393.955 165.539C403.366 165.497 412.107 170.395 416.986 178.443C421.156 184.901 424.443 191.889 426.758 199.219C422.469 199.365 418.207 199.972 414.049 201.032L413.656 201.137C389.38 208.189 380.566 217.944 376.041 242.997C374.272 254.029 373.402 265.188 373.439 276.361C374.132 290.615 371.956 304.862 367.04 318.258C349.48 358.762 306.474 384.93 257.488 384.93C256.435 384.93 255.371 384.93 254.319 384.893C251.972 384.844 249.625 384.812 247.279 384.812C236.156 384.812 224.989 385.385 214.189 385.945C207.167 386.3 199.872 386.673 192.833 386.879C147.934 388.185 126.397 422.795 105.569 456.289C100.621 464.25 95.517 472.473 90.2328 479.943C87.2438 479.239 84.5889 477.524 82.7194 475.088C79.8682 471.022 79.2462 465.796 81.0633 461.175L87.1072 445.733L70.5938 444.239C62.4259 443.483 56.4172 436.25 57.1729 428.082C57.3017 426.683 57.6292 425.31 58.1446 424.002L64.2446 408.534L47.6873 407.034C43.0898 406.622 38.9473 404.09 36.4831 400.186C35.1715 397.985 34.4849 395.467 34.4973 392.904C75.5133 384.867 114.936 370.169 151.202 349.394C160.24 344.054 169.354 337.655 179.001 330.883C183.047 328.044 187.174 325.144 191.382 322.267L198.484 317.418L218.197 324.583C221.45 325.696 224.989 323.962 226.102 320.71C227.185 317.545 225.574 314.091 222.455 312.887L188.712 300.326C179.997 297.077 172.683 294.444 165.582 291.891C159.077 289.551 152.752 287.273 145.924 284.733C139.189 282.076 132.708 279.654 126.46 277.319C85.5328 262.038 58.4932 251.943 31.7959 203.185C17.8404 177.795 11.7714 128.16 14.9085 66.3744C14.9085 66.2997 14.9583 66.281 15.0144 66.3371C39.2032 90.8999 71.0357 106.367 88.7255 114.945C116.458 129.399 146.357 139.245 177.252 144.095C188.195 146.199 200.601 148.589 216.679 152.299C259.934 162.258 280.643 187.224 281.856 230.81C281.938 233.673 281.856 241.554 281.794 244.347L280.175 266.184Z" fill="#F88D2A"/>
<path d="M445.414 193.356L457.576 196.021C460.646 181.548 462.231 166.8 462.307 152.006L449.858 151.882C449.796 165.822 448.307 179.72 445.414 193.356Z" fill="#F88D2A"/>
<path d="M406.143 259.804L409.156 265.244L412.15 270.702C412.922 270.279 431.278 259.99 445.557 231.04L434.39 225.532C428.306 239.337 418.533 251.196 406.143 259.804Z" fill="#F88D2A"/>
<path d="M491.774 159.52C497.447 153.717 499.585 145.325 497.377 137.516C485.235 134.433 472.892 141.776 469.81 153.919C468.823 157.806 468.884 161.887 469.989 165.744C477.841 167.705 486.144 165.333 491.774 159.52Z" fill="#F88D2A"/>
<path d="M472.528 181.299C465.798 185.876 462.061 193.731 462.756 201.84C474.104 207.228 487.67 202.398 493.058 191.05C494.755 187.478 495.49 183.526 495.193 179.582C487.881 176.023 479.22 176.679 472.528 181.299Z" fill="#F88D2A"/>
<path d="M428.29 161.555C431.963 163.055 435.965 163.566 439.898 163.037C444.683 151.462 439.179 138.201 427.605 133.417C423.88 131.878 419.813 131.359 415.822 131.914C411.079 143.542 416.662 156.812 428.29 161.555Z" fill="#F88D2A"/>
<path d="M456.288 142.315C467.43 136.515 471.761 122.781 465.961 111.638C464.134 108.127 461.422 105.154 458.094 103.012C446.955 108.744 442.571 122.421 448.302 133.56C450.141 137.134 452.897 140.155 456.288 142.315Z" fill="#F88D2A"/>
<path d="M215.222 131.807C218.609 132.401 221.834 130.138 222.428 126.751C222.427 126.755 222.429 126.748 222.428 126.751C230.327 81.4366 262.591 50.4832 296.727 24.0348C296.795 23.9788 296.845 24.0037 296.827 24.0909C295.52 31.4297 294.218 40.2748 293.322 46.4994C287.448 89.9513 290.863 134.155 303.344 176.189L305.211 182.724C307.116 189.36 309.843 198.859 312.52 208.868C313.248 211.587 315.711 213.478 318.526 213.481C319.072 213.481 319.616 213.409 320.144 213.268C323.465 212.378 325.435 208.966 324.545 205.645C321.844 195.561 319.099 185.981 317.174 179.289L315.307 172.796C303.305 132.438 300.01 89.9891 305.64 48.261C306.494 42.2792 307.745 33.7639 309.009 26.6492C309.844 22.4793 308.61 18.1632 305.696 15.0652C301.152 10.3907 293.807 9.91456 288.698 13.9635C253.012 42.1733 218.789 75.1196 210.181 124.599C209.584 127.982 211.841 131.207 215.222 131.807Z" fill="#F88D2A"/>
</svg>
