<svg width="651" height="500" viewBox="0 0 651 500" fill="none" xmlns="http://www.w3.org/2000/svg">
<path d="M388.14 133.333H505.326V148.958H388.14V133.333Z" fill="#F88D2A"/>
<path d="M388.14 180.208H505.326V195.833H388.14V180.208Z" fill="#F88D2A"/>
<path d="M388.14 227.083H466.265V242.708H388.14V227.083Z" fill="#F88D2A"/>
<path d="M630.326 70.8332H583.453V36.4582C583.453 33.1215 581.335 30.152 578.178 29.0675C496.266 1.72383 407.736 1.42217 325.64 28.2082C243.545 1.41984 155.015 1.71834 73.1006 29.0597C69.942 30.1448 67.8225 33.1183 67.8271 36.4582V70.8332H20.9521C16.6373 70.8332 13.1396 74.3315 13.1396 78.6465V453.647C13.1396 457.96 16.6373 461.458 20.9521 461.458H271.733C275.011 475.202 287.293 484.897 301.421 484.897H349.858C363.986 484.897 376.268 475.202 379.546 461.458H630.326C634.641 461.458 638.14 457.96 638.14 453.647V78.6465C638.14 74.3315 634.641 70.8332 630.326 70.8332ZM567.826 42.0832V400.677C491.418 377.522 409.861 377.522 333.453 400.677V42.0832C409.708 17.916 491.571 17.916 567.826 42.0832ZM83.4521 42.0832C159.708 17.916 241.571 17.916 317.826 42.0832V400.677C241.418 377.522 159.861 377.522 83.4521 400.677V42.0832ZM622.515 445.833H372.515C368.2 445.833 364.703 449.332 364.703 453.647V454.427C364.703 462.625 358.056 469.27 349.858 469.27H301.421C293.223 469.27 286.576 462.625 286.576 454.427V453.647C286.576 449.332 283.08 445.833 278.765 445.833H28.7646V86.4582H67.8271V411.458C67.8256 415.773 71.3225 419.272 75.6373 419.273C76.5021 419.273 77.3608 419.13 78.1786 418.848C157.666 392.338 243.613 392.338 323.101 418.848C323.23 418.878 323.36 418.898 323.491 418.912C324.068 419.082 324.665 419.182 325.265 419.208C325.39 419.208 325.515 419.27 325.64 419.27C325.765 419.27 325.835 419.232 325.928 419.223C326.523 419.205 327.113 419.117 327.686 418.958C327.811 418.958 327.945 418.912 328.076 418.872H328.178C407.666 392.362 493.613 392.362 573.101 418.872C573.92 419.143 574.776 419.277 575.64 419.27C579.955 419.27 583.453 415.773 583.453 411.458V86.4582H622.515V445.833Z" fill="#F88D2A"/>
</svg>
