<svg width="301" height="899" viewBox="0 0 301 899" fill="none" xmlns="http://www.w3.org/2000/svg">
<g clip-path="url(#clip0_2014_962)">
<mask id="mask0_2014_962" style="mask-type:luminance" maskUnits="userSpaceOnUse" x="0" y="0" width="302" height="899">
<path d="M301.084 0H0.922852V898.687H301.084V0Z" fill="white"/>
</mask>
<g mask="url(#mask0_2014_962)">
<path d="M165.28 318.285C196.464 318.285 221.745 293.138 221.745 262.117C221.745 231.097 196.464 205.949 165.28 205.949C134.095 205.949 108.814 231.097 108.814 262.117C108.851 293.123 134.11 318.248 165.28 318.285ZM165.28 224.672C186.069 224.672 202.923 241.437 202.923 262.117C202.923 282.797 186.069 299.562 165.28 299.562C144.491 299.562 127.636 282.797 127.636 262.117C127.636 241.437 144.491 224.672 165.28 224.672Z" fill="#F88D2A"/>
<path d="M221.744 486.892V449.344C221.744 444.174 217.531 439.983 212.333 439.983C207.136 439.983 202.922 444.174 202.922 449.344V488.662C202.911 489.849 203.125 491.025 203.552 492.134L231.455 561.679H99.2146L126.967 492.134C127.415 491.031 127.643 489.852 127.635 488.662V449.344C127.635 444.174 123.422 439.983 118.224 439.983C113.027 439.983 108.814 444.174 108.814 449.344V486.892L71.4902 580.402H108.814V664.655H221.744V580.402H259.218L221.744 486.892ZM127.635 645.931V580.402H155.867V645.931H127.635ZM202.922 645.931H174.689V580.402H202.922V645.931Z" fill="#F88D2A"/>
<path d="M855.094 481.472L818.063 378.3L815.982 374.004C812.037 365.978 806.14 359.06 798.827 353.877C762.392 331.385 716.288 331.385 679.855 353.877C672.539 359.056 666.643 365.975 662.708 374.004L642.946 428.177L625.065 378.3L622.986 374.004C619.039 365.978 613.142 359.06 605.829 353.877C569.394 331.385 523.292 331.385 486.857 353.877C479.541 359.063 473.644 365.984 469.7 374.014L452.45 421.4L436.98 378.337L434.899 374.041C430.954 366.015 425.057 359.098 417.744 353.914C400.079 342.454 379.352 336.563 358.267 337.008C337.186 336.544 316.454 342.416 298.781 353.857C291.467 359.04 285.573 365.958 281.634 373.985L261.872 428.159L243.991 378.282L241.911 373.985C237.966 365.96 232.069 359.041 224.756 353.857C207.086 342.417 186.357 336.546 165.279 337.008C144.198 336.541 123.466 342.414 105.793 353.857C98.4771 359.037 92.5825 365.957 88.6465 373.985L49.5256 481.481C43.8334 496.719 50.5699 513.778 65.1665 521.089C69.3105 523.032 73.8355 524.039 78.4169 524.037C83.6145 524.037 87.8278 519.846 87.8278 514.677C87.8278 509.506 83.6145 505.315 78.4169 505.315C76.5943 505.313 74.7947 504.911 73.1469 504.135C67.3505 500.91 64.8356 493.924 67.2557 487.772L104.109 385.135L105.501 382.326C108.034 377.111 111.835 372.606 116.559 369.221C131.102 360.031 148.055 355.337 165.279 355.73C182.508 355.342 199.465 360.043 214.008 369.239C218.736 372.624 222.539 377.129 225.076 382.344L251.859 455.84L242.524 481.481C236.822 496.719 243.56 513.784 258.165 521.089C262.306 523.035 266.832 524.042 271.415 524.037C276.612 524.037 280.825 519.846 280.825 514.677C280.825 509.506 276.612 505.315 271.415 505.315C269.591 505.313 267.793 504.911 266.145 504.135C260.349 500.911 257.83 493.927 260.244 487.772L297.097 385.135L298.49 382.326C301.026 377.109 304.829 372.606 309.556 369.221C324.097 360.034 341.047 355.341 358.267 355.73C375.496 355.342 392.453 360.043 406.997 369.239C411.724 372.624 415.527 377.129 418.064 382.344L442.391 449.054L430.59 481.462C424.897 496.7 431.634 513.759 446.231 521.07C450.375 523.013 454.9 524.02 459.481 524.019C464.678 524.019 468.891 519.828 468.891 514.658C468.891 509.487 464.678 505.296 459.481 505.296C457.657 505.295 455.859 504.892 454.211 504.116C448.415 500.891 445.9 493.906 448.32 487.753L485.172 385.125L486.556 382.373C489.09 377.156 492.894 372.651 497.622 369.266C527.587 351.257 565.118 351.257 595.082 369.266C599.812 372.649 603.616 377.155 606.149 382.373L632.913 455.85L623.586 481.481C617.895 496.719 624.632 513.778 639.227 521.089C643.372 523.032 647.898 524.039 652.478 524.037C657.676 524.037 661.889 519.846 661.889 514.677C661.889 509.506 657.676 505.315 652.478 505.315C650.655 505.313 648.856 504.911 647.208 504.135C641.413 500.91 638.896 493.924 641.317 487.772L678.17 385.135L679.562 382.326C682.095 377.111 685.897 372.606 690.62 369.221C720.583 351.21 758.116 351.21 788.079 369.221C792.807 372.606 796.61 377.109 799.147 382.326L837.392 487.735C839.806 493.89 837.288 500.873 831.491 504.098C829.844 504.872 828.044 505.276 826.221 505.278C821.024 505.278 816.811 509.469 816.811 514.638C816.811 519.809 821.024 524 826.221 524C830.804 524.005 835.329 522.999 839.472 521.052C854.05 513.74 860.777 496.697 855.094 481.472Z" fill="#F88D2A"/>
</g>
</g>
<defs>
<clipPath id="clip0_2014_962">
<rect width="300" height="898.687" fill="white" transform="translate(0.588867)"/>
</clipPath>
</defs>
</svg>
