<svg width="480" height="501" viewBox="0 0 480 501" fill="none" xmlns="http://www.w3.org/2000/svg">
<g clip-path="url(#clip0_2014_976)">
<path d="M338.187 375.965C335.377 374.396 332.011 373.481 328.432 373.481C320.736 373.481 314.02 377.762 310.573 384.069L310.524 384.167C285.818 429.086 238.808 459.02 184.805 459.02C105.834 459.02 41.8145 395.001 41.8145 316.03C41.8145 269.412 64.1348 227.991 98.6609 201.896L99.0204 201.635C103.988 197.876 107.174 191.961 107.174 185.311C107.174 174.037 98.0237 164.886 86.7492 164.886C82.125 164.886 77.8439 166.422 74.4289 169.02L74.4779 168.988C29.6413 202.876 0.964844 256.112 0.964844 316.046C0.964844 417.566 83.2688 499.87 184.788 499.87C254.2 499.87 314.641 461.39 345.916 404.592L346.39 403.644C347.958 400.834 348.873 397.468 348.873 393.906C348.873 386.21 344.592 379.494 338.301 376.03L338.203 375.981L338.187 375.965ZM478.579 392.778C476.308 383.808 468.318 377.288 458.792 377.288C457.027 377.288 455.311 377.517 453.677 377.942L453.824 377.909L406.684 389.69L362.55 260.409C359.707 252.305 352.125 246.586 343.203 246.586H198.514L192.223 205.736H262.681C273.955 205.736 283.105 196.586 283.105 185.311C283.105 174.037 273.955 164.886 262.681 164.886H185.932L176.079 100.834C191.88 91.1935 202.288 74.0529 202.288 54.4778C202.288 24.6085 178.073 0.376465 148.187 0.376465C118.301 0.376465 94.0858 24.5922 94.0858 54.4778C94.0858 79.9353 111.667 101.275 135.344 107.043L135.72 107.125L160.785 270.115C162.337 279.984 170.785 287.435 180.965 287.435H328.563L374.037 420.671C376.88 428.775 384.462 434.494 393.383 434.494C395.132 434.494 396.847 434.265 398.465 433.857L398.318 433.89L463.677 417.55C472.632 415.262 479.151 407.256 479.151 397.729C479.151 395.965 478.922 394.265 478.514 392.631L478.547 392.778H478.579Z" fill="#F88D2A"/>
</g>
<defs>
<clipPath id="clip0_2014_976">
<rect width="479.085" height="500" fill="white" transform="translate(0.588867 0.34375)"/>
</clipPath>
</defs>
</svg>
