<svg width="568" height="501" viewBox="0 0 568 501" fill="none" xmlns="http://www.w3.org/2000/svg">
<g clip-path="url(#clip0_2014_978)">
<path d="M0.390734 270.627L-0.372142 271.34L0.372262 272.072L44.6837 315.625L45.3659 316.295L46.0661 315.644L78.1457 285.779V499.719V500.719L79.1453 500.719L249.863 500.787L250.863 500.788V499.787V333.171H317.15V499.814V500.814L318.149 500.814L488.867 500.881L489.867 500.881V499.881V285.495L522.118 315.483L522.818 316.134L523.5 315.464L567.64 272.078L568.385 271.346L567.622 270.634L284.689 6.41855L284.007 5.78119L283.324 6.41854L0.390734 270.627ZM474.21 270.942V485.455L332.808 485.395V318.745V317.745H331.808H236.205H235.205V318.745V485.354L93.8027 485.301V271.203L284.007 94.1319L474.21 270.942ZM284.687 73.547L284.006 72.9136L283.325 73.5475L45.6625 294.799L22.09 271.659L284.007 27.0187L545.923 271.658L522.514 294.639L284.687 73.547Z" fill="#F88D2A" stroke="#F88D2A" stroke-width="2"/>
</g>
<defs>
<clipPath id="clip0_2014_978">
<rect width="566.667" height="500" fill="white" transform="translate(0.673828 0.34375)"/>
</clipPath>
</defs>
</svg>
