<svg width="545" height="501" viewBox="0 0 545 501" fill="none" xmlns="http://www.w3.org/2000/svg">
<g clip-path="url(#clip0_2014_981)">
<path d="M86.9632 230.945L88.466 231.819L98.4184 237.609L86.9632 230.945ZM86.9632 230.945V232.684M86.9632 230.945V232.684M86.9632 232.684V474.663M86.9632 232.684V474.663M50.7539 474.663C67.3042 366.98 48.1919 295.244 32.7801 237.397L32.7687 237.354L32.7686 237.354C24.0137 204.526 16.5061 176.335 16.5061 147.46C16.5061 119.529 31.4129 93.1322 48.6492 71.966C65.3951 51.4019 84.2347 35.9031 93.3694 28.9039C163.423 111.183 208.129 189.244 244.242 252.3L244.294 252.391L244.297 252.396C261.612 282.635 276.557 308.736 290.976 329.252C305.388 349.759 319.353 364.806 334.757 372.831L334.81 372.858L334.865 372.879C349.401 378.389 364.488 382.396 379.877 384.837C404.169 389.956 434.585 396.369 461.976 406.097C489.415 415.841 513.588 428.835 525.607 446.975C527.382 449.803 528.312 453.056 528.293 456.369V456.375C528.293 466.461 519.916 474.676 509.532 474.676H294.137H294.124L294.111 474.677C290.336 474.777 286.628 473.714 283.512 471.639C248.407 445.911 227.245 407.327 204.713 366.225L204.662 366.132C178.322 318.079 150.929 268.105 98.419 237.609L50.7539 474.663ZM50.7539 474.663H86.9632M50.7539 474.663H86.9632M509.532 489.544H509.533C528.243 489.521 543.445 474.706 543.467 456.376C543.517 450.167 541.741 444.076 538.354 438.827L538.347 438.817C524.501 417.907 498.263 403.464 469.319 392.916C440.342 382.357 408.45 375.634 383.101 370.29L383.096 370.289L383.074 370.284L383.051 370.281C368.997 367.978 355.188 364.43 341.793 359.681C328.575 352.773 315.914 338.869 302.329 319.262C288.737 299.643 274.312 274.453 257.531 245.144L257.531 245.144L257.471 245.04C220.296 180.131 173.998 99.295 100.353 13.9555C100.353 13.9554 100.353 13.9554 100.353 13.9553L96.4738 9.45231L95.8902 8.77487L95.152 9.27933L90.2183 12.6506C90.2183 12.6506 90.2183 12.6506 90.2183 12.6507C88.3781 13.9078 66.1931 29.2897 44.4573 53.4776C22.7441 77.6404 1.33203 110.754 1.33203 147.46C1.33203 178.269 9.10816 207.441 18.0652 241.043L18.0835 241.112C33.5796 299.25 52.8264 371.472 34.3799 480.901C34.3798 480.901 34.3798 480.901 34.3798 480.901L33.1152 488.377L32.9178 489.544H34.1012H101.137H102.137V488.544V257.671C143.79 286.521 167.877 330.456 191.333 373.26L191.405 373.391C213.553 413.808 236.597 455.861 274.563 483.649L274.574 483.658L274.586 483.666C280.303 487.606 287.155 489.662 294.146 489.544H509.532Z" fill="#F88D2A" stroke="#F88D2A" stroke-width="2"/>
</g>
<defs>
<clipPath id="clip0_2014_981">
<rect width="544.118" height="500" fill="white" transform="translate(0.34082 0.34375)"/>
</clipPath>
</defs>
</svg>
