<svg width="540" height="501" viewBox="0 0 540 501" fill="none" xmlns="http://www.w3.org/2000/svg">
<path d="M250.694 23.8179C249.285 29.9212 244.121 33.2076 237.548 33.2076C223.464 33.2076 221.116 40.7193 221.116 90.0151V132.269L207.971 122.409C199.52 116.306 191.539 113.959 186.375 115.837C172.76 121.001 179.802 145.414 206.562 186.729C219.238 206.447 228.628 224.757 227.689 226.635C224.403 232.269 211.727 231.33 211.727 225.696C211.727 216.776 189.192 220.532 185.905 230.391C184.027 236.494 178.863 239.78 171.821 239.78C158.675 239.78 156.328 246.353 153.98 289.076C153.041 310.203 152.102 306.447 151.633 274.992C150.694 242.597 153.041 226.165 160.084 205.508C172.29 171.236 173.699 80.1559 162.431 70.7662C158.675 67.4799 152.102 66.0714 148.346 67.9493C143.182 69.8273 141.304 67.4799 141.304 59.0292C141.304 47.7616 127.22 39.3108 117.83 44.9446C115.483 46.3531 113.135 45.8836 113.135 43.5362C113.135 37.4329 100.459 32.7381 92.4779 36.0245C88.722 37.4329 84.9661 43.0667 83.5577 48.231C82.1492 53.3954 78.8629 56.2123 75.5765 54.3343C72.7596 52.4564 67.5952 53.8648 63.8394 56.6817C58.6751 60.9071 56.7971 73.5831 56.7971 104.1C56.7971 145.884 53.9802 152.456 42.7126 138.841C39.4262 134.616 31.9145 131.799 26.7502 132.738C9.84876 135.086 15.4826 160.907 39.8957 197.527L61.492 229.921L62.4309 362.785L63.8394 495.649L107.501 497.057L150.694 498.466V458.09C150.694 436.024 152.572 418.184 155.389 418.184C161.492 418.184 165.717 445.414 162.9 468.888C161.492 484.381 162.431 490.015 168.065 491.893C171.821 493.302 223.464 494.71 282.619 495.179L390.13 495.649V459.499C390.13 409.733 398.581 407.386 400.459 456.682L401.868 495.649L445.53 497.057L488.722 498.466V366.541V234.616L508.44 205.508C529.567 174.522 540.835 147.762 537.079 137.902C533.792 129.452 516.891 130.391 506.562 139.78C498.581 146.823 498.112 145.884 498.112 105.039C498.112 61.3766 492.478 47.7616 477.454 53.3954C473.699 54.8038 469.943 52.4564 468.534 46.8226C465.248 35.0855 453.041 30.8601 443.652 38.3719C439.426 41.6583 431.445 44.4752 426.281 44.9446C419.708 44.9446 415.483 48.7005 413.605 56.6817C412.196 63.2545 407.971 68.4188 404.215 68.8883C400.459 69.3578 394.356 69.8273 391.539 69.8273C382.149 71.2357 383.088 183.442 392.478 205.508C401.398 226.165 402.337 253.865 393.886 245.414C390.6 242.128 384.497 239.78 379.802 239.78C375.577 239.78 369.473 235.555 366.656 230.391C361.023 219.593 351.633 218.654 338.487 226.635C331.445 230.86 328.159 231.33 323.933 227.104C320.177 223.348 321.116 214.428 328.628 193.301C336.609 170.766 338.487 153.395 338.487 111.611C338.487 54.8038 335.201 44.4752 320.647 48.231C312.666 50.5785 310.788 48.7005 309.379 38.3719C308.44 28.5127 305.154 25.6958 292.947 24.7569C284.497 23.8179 277.454 21.4705 277.454 18.6536C277.454 16.3061 271.821 14.4282 265.248 14.4282C257.267 14.4282 252.102 17.2451 250.694 23.8179ZM279.802 120.062C288.253 120.062 289.192 116.306 291.539 77.8085L293.417 35.555L296.234 80.1559C298.581 121.94 299.051 124.757 309.379 126.165C319.238 127.574 319.708 126.165 319.708 93.7709C319.708 74.9916 320.647 60.9071 322.055 62.3155C323.464 63.724 324.872 88.1371 325.342 115.837C325.342 152.456 323.464 173.114 317.83 187.668C313.605 198.935 310.318 218.184 310.318 230.86C310.318 251.987 309.379 253.395 297.642 254.804L284.497 256.212L283.088 318.184C282.149 365.602 283.558 384.381 289.192 397.527C293.417 407.386 296.234 428.982 296.234 449.17V483.912H275.107H253.98V453.395C253.98 434.147 257.267 414.428 263.37 399.405C275.576 368.419 277.454 267.949 265.717 258.56C261.961 255.273 255.858 253.865 252.102 255.273C247.407 257.151 244.591 251.987 242.243 236.024C240.365 221.94 232.853 204.569 221.586 188.137C198.581 155.273 186.844 131.799 190.6 128.043C192.478 126.165 200.929 133.208 209.379 143.536C218.299 153.865 226.281 160.907 227.689 159.499C229.567 158.09 230.976 133.208 230.976 104.1C231.445 75.4611 233.792 50.5785 235.67 49.17C238.018 47.7616 239.896 66.0714 239.896 89.5456C239.896 131.33 240.365 132.269 250.694 130.86C260.553 129.452 261.023 127.104 263.37 75.4611L265.248 21.4705L268.065 70.7662C270.412 116.306 271.351 120.062 279.802 120.062ZM103.745 91.893C103.745 133.208 104.215 136.494 113.135 136.494C121.586 136.494 122.525 133.208 122.525 96.5878C122.525 73.1137 124.403 56.6817 127.22 56.6817C130.037 56.6817 131.914 74.5221 131.914 101.283C131.914 142.597 132.384 145.884 141.304 145.884C149.755 145.884 150.694 142.597 150.694 112.081C150.694 93.7709 152.102 79.6864 153.511 81.0949C159.614 87.1982 155.389 186.729 148.346 203.63C143.652 215.367 141.304 236.963 141.304 273.114C141.304 317.715 140.365 324.757 134.262 322.409C110.318 313.489 107.032 339.311 127.22 373.583C139.896 395.179 141.304 400.813 141.304 440.25V483.912H108.44H75.5765V357.151V230.86L52.1023 194.71C38.9567 174.992 28.6281 155.743 28.6281 152.456C28.6281 141.189 37.0788 144.945 45.999 159.968C61.9614 187.198 66.1868 178.278 66.1868 120.062C66.1868 87.1982 68.0647 66.0714 70.8816 66.0714C73.6985 66.0714 75.5765 83.4423 75.5765 108.325C75.5765 147.292 76.0459 150.578 84.9661 150.578C93.8863 150.578 94.3558 147.292 94.3558 98.9353C94.3558 67.4799 96.2337 47.2921 99.0506 47.2921C101.868 47.2921 103.745 65.1324 103.745 91.893ZM456.797 103.63C458.206 144.475 459.145 148.231 467.595 148.231C476.046 148.231 477.454 144.006 479.802 105.978L482.149 63.724L483.088 118.654C484.027 180.156 486.844 184.851 508.44 159.029C515.013 150.578 522.055 144.945 523.933 146.823C527.689 150.578 515.483 174.522 495.295 203.63L479.332 225.696V354.804V483.912H446.469H413.605V439.78C413.605 399.874 415.013 393.771 428.628 367.01C445.06 335.086 443.182 321.001 423.464 322.879C414.074 324.287 413.605 322.409 413.605 275.931C413.605 239.78 411.257 221.001 404.215 200.813C397.173 181.095 394.825 162.316 394.825 127.104C394.825 98.9353 396.703 80.1559 399.52 80.1559C402.337 80.1559 404.215 94.2404 404.215 113.02C404.215 142.597 405.154 145.884 413.605 145.884C422.525 145.884 422.994 142.597 422.994 101.283C422.994 74.5221 424.872 56.6817 427.689 56.6817C430.506 56.6817 432.384 73.1137 432.384 96.5878C432.384 133.208 433.323 136.494 441.774 136.494C450.694 136.494 451.163 133.208 451.633 90.4846C452.572 35.0855 455.389 42.5972 456.797 103.63ZM214.074 326.635C222.525 326.635 223.933 322.409 226.281 284.381L228.628 242.128L229.567 287.668C230.506 333.208 230.506 333.677 242.243 333.677C253.511 333.677 253.98 332.738 253.98 300.813C253.98 281.095 255.858 267.949 258.675 267.949C265.717 267.949 261.492 374.992 253.511 392.363C250.224 399.874 246.469 423.348 245.06 444.006L242.243 481.564L208.44 482.973L174.168 484.381V453.395C174.168 425.696 172.29 420.532 155.858 395.649C132.384 361.377 121.116 338.372 124.872 334.616C126.75 332.738 135.201 339.78 143.652 350.109C152.572 360.438 161.022 367.48 162.431 365.602C164.309 364.194 165.248 339.311 165.248 310.672C164.778 280.625 166.656 258.09 169.473 256.212C172.29 254.334 174.168 268.888 174.168 296.118C174.168 337.902 174.638 338.841 184.966 337.433C192.008 336.494 195.295 332.738 195.764 325.226C196.234 319.593 197.173 295.179 198.112 271.236L199.52 228.043L201.868 277.339C204.684 322.409 205.623 326.635 214.074 326.635ZM366.656 338.372C375.107 338.372 376.046 335.086 376.046 296.118C376.046 271.236 377.924 253.865 380.741 253.865C383.558 253.865 385.436 275.931 385.436 310.203C385.436 372.644 390.13 380.625 408.91 350.109C414.544 341.189 421.116 333.677 423.464 333.677C432.854 333.677 426.75 350.109 405.623 382.034C385.436 412.55 382.619 419.123 380.741 448.701L378.393 481.564L344.591 482.973L310.318 484.381V451.517C310.318 429.452 307.032 410.672 300.929 394.71C293.417 375.931 291.539 359.968 291.539 319.593C291.539 288.137 293.417 267.949 296.234 267.949C299.051 267.949 300.929 282.034 300.929 300.813C300.929 330.391 301.868 333.677 310.318 333.677C319.238 333.677 319.708 330.391 319.708 289.076C319.708 262.316 321.586 244.475 324.403 244.475C327.22 244.475 329.098 261.846 329.098 286.729C329.098 325.696 329.567 328.982 338.487 328.982C347.407 328.982 347.877 325.696 347.877 282.973C347.877 217.715 354.45 218.654 356.328 283.912C357.267 334.616 358.206 338.372 366.656 338.372Z" fill="#F88D2A"/>
</svg>
