<svg width="488" height="501" viewBox="0 0 488 501" fill="none" xmlns="http://www.w3.org/2000/svg">
<g clip-path="url(#clip0_2014_996)">
<path d="M180.07 183.271C189.657 183.239 199.088 180.824 207.509 176.24V213.759C207.509 217.126 210.239 219.856 213.606 219.856C216.973 219.856 219.704 217.126 219.704 213.759V167.417C224.128 163.311 227.881 158.535 230.826 153.265C232.454 150.315 231.382 146.602 228.432 144.974C225.483 143.346 221.771 144.418 220.143 147.368C207.993 169.511 180.194 177.613 158.051 165.463C135.909 153.313 127.806 125.515 139.956 103.372C143.917 96.1524 149.754 90.1378 156.85 85.9597C157.87 88.5256 159.07 91.0158 160.442 93.4109C162.135 96.3219 165.868 97.3085 168.779 95.6158C171.692 93.9219 172.678 90.189 170.984 87.2768C158.338 65.4146 165.807 37.439 187.67 24.792C205.671 14.3789 228.431 17.4216 243.064 32.1975C241.679 33.478 240.301 34.7646 239.015 36.1609C236.737 38.6414 236.9 42.4987 239.381 44.7768C241.861 47.0548 245.718 46.8914 247.996 44.4109C270.795 19.6263 309.37 18.0164 334.154 40.8152C358.939 63.614 360.549 102.188 337.75 126.973C317.596 148.882 284.57 153.037 259.618 136.801C256.796 134.962 253.018 135.76 251.179 138.582C249.342 141.404 250.138 145.182 252.96 147.021C257.813 150.177 263.024 152.745 268.484 154.673V213.759C268.484 217.126 271.215 219.856 274.582 219.856C277.949 219.856 280.679 217.126 280.679 213.759V157.826C320.507 164.665 358.338 137.919 365.176 98.0914C372.015 58.2634 345.271 20.4327 305.443 13.5945C287.09 10.4438 268.228 14.4078 252.698 24.6792C231.09 1.26973 194.596 -0.190884 171.187 21.4167C156.706 34.7835 150.051 54.6183 153.539 74.0146C125.133 88.6073 113.937 123.465 128.529 151.871C138.45 171.184 158.356 183.311 180.07 183.271Z" fill="#F88D2A"/>
<path d="M483.119 500.344L318.625 232.96C313.988 225.543 304.721 222.487 296.582 225.692C280.21 231.57 262.947 234.574 245.551 234.576H242.637C225.238 234.578 207.97 231.573 191.594 225.692C183.454 222.498 174.194 225.55 169.551 232.96L5.0332 500.344H19.3564L101.167 367.368C105.917 382.594 122.111 391.084 137.336 386.333C149.428 382.561 157.65 371.346 157.612 358.679V332.765C157.612 329.396 160.343 326.667 163.71 326.667C167.078 326.667 169.808 329.396 169.808 332.765V393.74C169.808 410.578 183.458 424.228 200.295 424.228C217.133 424.228 230.783 410.578 230.783 393.74V357.155C230.783 350.42 236.243 344.96 242.978 344.96C249.714 344.96 255.173 350.42 255.173 357.155V363.252C255.173 376.722 266.093 387.643 279.564 387.643C293.034 387.643 303.954 376.722 303.954 363.252V321.685C303.954 315.949 308.605 311.298 314.342 311.298C320.077 311.298 324.728 315.949 324.728 321.685V361.533C324.853 382.057 341.514 398.638 362.039 398.661H362.222C375.616 398.552 387.928 391.287 394.497 379.612L468.771 500.344H483.119ZM384.759 372.076C380.62 380.821 371.836 386.421 362.161 386.484H362.039C348.233 386.471 337.02 375.327 336.923 361.521V321.685C336.923 309.213 326.812 299.102 314.342 299.102C301.87 299.102 291.759 309.213 291.759 321.685V363.234C291.759 369.97 286.299 375.429 279.564 375.429C272.828 375.429 267.369 369.97 267.369 363.234V357.137C267.369 343.667 256.449 332.746 242.978 332.746C229.508 332.746 218.588 343.667 218.588 357.137V393.722C218.588 403.824 210.398 412.015 200.295 412.015C190.192 412.015 182.003 403.824 182.003 393.722V332.746C182.003 322.644 173.812 314.454 163.71 314.454C153.606 314.454 145.417 322.644 145.417 332.746V358.661C145.417 367.922 137.91 375.429 128.649 375.429C119.388 375.429 111.881 367.922 111.881 358.661V349.942L179.881 239.435C181.412 236.996 184.462 235.992 187.143 237.045L187.308 237.112L187.472 237.167C205.169 243.529 223.832 246.779 242.637 246.771H245.551C264.351 246.779 283.012 243.531 300.704 237.167L300.875 237.106L301.039 237.045C301.731 236.767 302.47 236.624 303.216 236.624C305.248 236.611 307.144 237.64 308.241 239.35L386.619 366.807L384.759 372.076Z" fill="#F88D2A"/>
</g>
<defs>
<clipPath id="clip0_2014_996">
<rect width="487.805" height="500" fill="white" transform="translate(0.191406 0.34375)"/>
</clipPath>
</defs>
</svg>
