<svg width="352" height="501" viewBox="0 0 352 501" fill="none" xmlns="http://www.w3.org/2000/svg">
<g clip-path="url(#clip0_2014_988)">
<path d="M95.9918 4.03229L96.042 3.98206L96.0989 3.93942C96.4315 3.68994 96.8908 3.51532 97.3503 3.37808C97.8384 3.23233 98.4422 3.09662 99.1437 2.96866C100.549 2.71243 102.417 2.47458 104.684 2.25592C109.223 1.81824 115.426 1.45105 122.852 1.17599C137.709 0.625732 157.508 0.442596 178.767 0.809082L178.778 0.809418L256.434 3.0072L257.321 3.03232L257.402 3.91626L259.598 28.0722C259.598 28.0753 259.598 28.0785 259.599 28.0816C260.696 37.9608 260.554 44.6189 258.509 49.195C256.405 53.9053 252.385 56.2252 246.397 57.7229C242.962 58.6275 240.436 59.6351 238.515 61.2415C236.616 62.8293 235.215 65.0819 234.199 68.6573C233.178 72.2552 232.564 77.1323 232.21 83.9011C231.857 90.6603 231.765 99.2451 231.765 110.234C231.765 122.329 231.811 131.456 232.21 138.497C232.609 145.548 233.359 150.413 234.722 154.019C237.387 161.068 242.444 163.498 253.125 167.918C269.463 174.603 289.185 191.597 305.978 211.419C322.777 231.247 336.803 254.09 341.621 272.614C365.188 359.158 325.953 434.315 264.995 472.437C204.03 510.563 121.28 511.676 57.9072 450.146C7.82672 401.538 -9.12924 337.416 11.4911 270.389C16.6741 252.257 29.4032 231.258 45.0165 212.614C60.635 193.964 79.2312 177.56 96.2363 168.688L96.2491 168.681L96.262 168.675C109.163 162.409 115.18 159.072 118.213 151.878C119.748 148.238 120.542 143.545 120.941 136.857C121.34 130.175 121.34 121.602 121.34 110.234C121.34 89.6674 120.965 77.925 118.905 70.6719C117.889 67.0916 116.478 64.6776 114.544 62.8493C112.597 61.0084 110.048 59.6927 106.623 58.4301C100.949 56.5356 96.889 53.4691 94.275 48.9189C91.6787 44.3993 90.5707 38.5214 90.5707 31.113C90.5707 25.1958 91.1249 19.2713 92.0539 14.4407C92.5182 12.0262 93.0799 9.86496 93.7219 8.10544C94.3534 6.37488 95.1006 4.92346 95.9918 4.03229ZM104.958 33.6844L104.962 33.6931L104.965 33.7017C105.578 35.3895 106.982 36.8721 109.691 38.14C112.419 39.4165 116.378 40.4298 121.928 41.2032C133.022 42.7491 150.172 43.2998 175.82 43.2998C193.209 43.2998 207.236 42.9336 218.245 42.078C229.272 41.221 237.194 39.8777 242.416 37.9583C247.666 36.0287 249.861 33.6512 250.134 30.9109C250.422 28.0164 248.662 24.2251 244.643 19.2921C241.597 15.5694 235.52 12.8646 224.564 11.13C213.658 9.40314 198.156 8.6698 176.552 8.6698C146.503 8.6698 126.708 10.5092 115.357 14.6531C109.691 16.7216 106.301 19.304 104.705 22.3509C103.124 25.3683 103.185 29.0739 104.958 33.6844ZM215.704 166.824L215.113 166.56V165.912V112.432V59.9519H175.82H136.527V112.432V166.644V167.297L135.929 167.56L105.904 180.741C105.902 180.742 105.9 180.743 105.898 180.744C89.8974 188.019 68.054 204.047 57.9104 216.364L57.9047 216.371L40.2057 237.474L172.167 239.637C209.158 240.003 243.032 240.003 267.93 239.637C280.38 239.454 290.577 239.179 297.793 238.814C301.404 238.631 304.253 238.426 306.26 238.201C307.266 238.088 308.038 237.972 308.581 237.856C308.853 237.798 309.045 237.744 309.169 237.7C309.204 237.687 309.228 237.677 309.244 237.67C309.684 237.25 309.908 236.422 309.377 234.784C308.848 233.156 307.664 231.064 305.883 228.61C302.334 223.72 296.597 217.636 289.706 211.338C275.917 198.737 257.695 185.447 243.552 179.283L243.543 179.279L215.704 166.824ZM19.3106 324.886L19.3106 324.89C18.5829 492.254 241.307 543.347 318.52 394.026C325.389 380.649 329.955 359.011 331.691 336.348C333.426 313.703 332.324 290.198 327.966 273.125C326.857 269.061 326.05 266.383 323.362 264.351C320.604 262.267 315.728 260.77 306.119 259.763C286.955 257.756 249.852 257.754 175.82 257.754C164.688 257.754 154.342 257.732 144.726 257.711C117.777 257.654 96.5591 257.608 79.844 258.097C57.1227 258.762 42.9108 260.415 34.0004 264.265C29.5821 266.175 26.5089 268.609 24.346 271.707C22.175 274.816 20.8701 278.666 20.1112 283.489C19.3513 288.319 19.1475 294.063 19.1375 300.926C19.1327 304.214 19.1722 307.746 19.2148 311.548L19.2202 312.037C19.2648 316.023 19.3106 320.301 19.3106 324.886Z" fill="#F88D2A" stroke="#F88D2A" stroke-width="2"/>
<path d="M230.71 297.163L230.714 297.158C240.748 284.522 252.763 278.438 265.083 279.291C277.377 280.142 289.703 287.883 300.432 302.311L300.437 302.318C303.916 307.079 306.56 310.879 308.391 314.179C310.226 317.487 311.278 320.351 311.523 323.245C312.011 329.008 309.256 334.597 304.166 343.686C300.083 351.109 295.58 356.393 289.615 359.991C283.661 363.582 276.346 365.436 266.744 366.175C245.553 368.033 229.737 359.477 222.645 345.955C215.555 332.437 217.337 314.251 230.71 297.163ZM288.611 305.021L288.605 305.013C274.422 287.994 246.757 291.543 237.538 312.108L237.536 312.113C233.867 320.185 232.362 325.228 233.213 329.737C234.062 334.241 237.308 338.441 243.906 344.672L243.928 344.693L243.95 344.716C249.009 350.136 253.817 353.493 258.64 355.071C263.442 356.643 268.348 356.481 273.672 354.706L273.672 354.706L273.683 354.703C282.417 351.908 289.204 343.093 292.262 333.02C295.321 322.945 294.535 311.99 288.611 305.021Z" fill="#F88D2A" stroke="#F88D2A" stroke-width="2"/>
<path d="M78.9914 344.884L79.026 344.827L79.068 344.774C81.5635 341.655 80.3612 337.202 77.1366 335.267L77.0789 335.233L77.0264 335.191C73.9069 332.695 69.4543 333.897 67.5195 337.122L67.4849 337.18L67.4429 337.232C64.9474 340.352 66.1497 344.804 69.3743 346.739L69.432 346.774L69.4845 346.816C72.604 349.311 77.0566 348.109 78.9914 344.884ZM87.882 355.63C80.355 363.157 71.8633 365.029 65.1483 361.968C58.4555 358.917 53.9404 351.149 53.9404 340.271C53.9404 333.307 54.8344 328.523 57.8048 325.552C60.7751 322.582 65.5597 321.688 72.5228 321.688C83.4011 321.688 91.1692 326.203 94.2203 332.896C97.2816 339.611 95.4089 348.103 87.882 355.63Z" fill="#F88D2A" stroke="#F88D2A" stroke-width="2"/>
<path d="M157.46 353.561L157.469 353.55L157.478 353.539C164.28 345.603 172.766 343.363 179.659 346.022C186.545 348.678 191.472 356.08 191.472 366.644C191.472 373.318 190.365 378.342 187.7 381.896C185.01 385.483 180.87 387.393 175.229 388.147C165.29 389.672 157.543 385.068 153.957 377.994C150.379 370.935 151.001 361.54 157.46 353.561ZM172.157 372.97C175.936 372.97 178.483 369.821 178.483 366.644C178.483 364.673 177.83 363.109 176.761 362.04C175.692 360.97 174.127 360.318 172.157 360.318C168.98 360.318 165.831 362.865 165.831 366.644C165.831 368.15 166.594 369.74 167.827 370.974C169.06 372.207 170.65 372.97 172.157 372.97Z" fill="#F88D2A" stroke="#F88D2A" stroke-width="2"/>
<path d="M103.516 403.146L103.547 403.128L103.578 403.112C108.065 400.869 112.259 399.705 116.138 399.802C120.037 399.899 123.552 401.27 126.65 403.977C137.291 412.726 137.914 424.997 132.716 433.468C130.123 437.693 126.078 440.976 121.124 442.377C116.16 443.782 110.356 443.277 104.292 440.057C95.6426 435.543 91.1271 428.846 91.029 421.878C90.9309 414.918 95.2455 408.033 103.516 403.146ZM113.549 431.578C115.308 431.578 116.859 430.563 118.017 428.745C119.178 426.92 119.875 424.367 119.875 421.589C119.875 418.811 119.178 416.259 118.017 414.434C116.859 412.615 115.308 411.6 113.549 411.6C112.187 411.6 110.621 412.58 109.339 414.46C108.079 416.307 107.223 418.858 107.223 421.589C107.223 424.321 108.079 426.871 109.339 428.718C110.621 430.598 112.187 431.578 113.549 431.578Z" fill="#F88D2A" stroke="#F88D2A" stroke-width="2"/>
<path d="M246.185 436.882L246.178 436.891L246.17 436.9C243.523 439.925 239.951 442.741 236.293 444.805C232.656 446.856 228.816 448.23 225.637 448.23C218.871 448.23 213.638 443.45 210.887 436.904C208.131 430.346 207.762 421.839 210.782 413.91C211.957 410.777 214.282 407.889 216.961 405.785C219.626 403.69 222.769 402.274 225.637 402.274C228.816 402.274 232.656 403.649 236.293 405.7C239.951 407.764 243.523 410.58 246.17 413.605L246.178 413.614L246.185 413.623C249.864 418.037 251.912 421.574 251.912 425.252C251.912 428.931 249.864 432.468 246.185 436.882ZM227.102 431.578C229.833 431.578 232.384 430.722 234.231 429.463C236.111 428.181 237.091 426.615 237.091 425.252C237.091 423.493 236.076 421.942 234.258 420.785C232.433 419.623 229.88 418.926 227.102 418.926C224.324 418.926 221.772 419.623 219.947 420.785C218.128 421.942 217.113 423.493 217.113 425.252C217.113 426.615 218.093 428.181 219.973 429.463C221.82 430.722 224.371 431.578 227.102 431.578Z" fill="#F88D2A" stroke="#F88D2A" stroke-width="2"/>
</g>
<defs>
<clipPath id="clip0_2014_988">
<rect width="351.648" height="500" fill="white" transform="translate(-0.00390625 0.34375)"/>
</clipPath>
</defs>
</svg>
