<svg width="490" height="501" viewBox="0 0 490 501" fill="none" xmlns="http://www.w3.org/2000/svg">
<g clip-path="url(#clip0_2014_1000)">
<path d="M159.027 192.259V191.259H158.027H133.266L93.6662 41.2311L219.307 91.8216C219.544 101.92 225.845 110.945 235.383 114.785L235.397 114.791L235.412 114.796C236.255 115.106 237.113 115.374 237.983 115.598V451.11H195.391C181.099 451.11 169.482 462.49 169.482 476.566V477.566H170.482H182.936H183.936V476.566C183.936 470.383 189.048 465.338 195.391 465.338H295.029C301.372 465.338 306.484 470.383 306.484 476.566V477.566H307.484H319.938H320.938V476.566C320.938 462.49 309.32 451.11 295.029 451.11H252.437V115.597C253.364 115.356 254.277 115.065 255.173 114.725L255.185 114.721L255.198 114.715C258.188 113.488 260.915 111.722 263.239 109.508L399.702 164.463L357.154 325.77H332.393H331.393V326.77V332.885C331.393 345.785 340.289 357.107 354.452 365.149C368.637 373.203 388.276 378.084 410.235 378.084C432.194 378.084 451.833 373.203 466.018 365.149C480.182 357.107 489.077 345.785 489.077 332.885V326.77V325.77H488.077H463.316L423.244 173.933L432.604 177.706L432.604 177.706C436.283 179.187 440.506 177.467 442.027 173.826C443.552 170.175 441.765 166.018 438.077 164.533L270.351 97.0061C273.833 84.3089 266.475 71.1007 253.608 67.1921L253.607 67.192C253.22 67.0745 252.83 66.9663 252.437 66.8675V11.8925C252.437 7.94625 249.185 4.77832 245.21 4.77832C241.235 4.77832 237.983 7.94625 237.983 11.8925V66.8821C231.818 68.6539 226.544 72.6242 223.199 78.0168L62.8352 13.4153C59.2003 11.8468 54.9419 13.4562 53.3248 17.05C51.7011 20.6579 53.3725 24.8595 57.019 26.4412C57.1356 26.4918 57.2519 26.5383 57.3674 26.5815L69.2909 31.3889L27.1046 191.259H2.34277H1.34277V192.259V198.374C1.34277 211.274 10.2383 222.596 24.4023 230.638C38.5873 238.692 58.2262 243.573 80.1854 243.573C102.144 243.573 121.783 238.692 135.967 230.638C150.131 222.596 159.027 211.274 159.027 198.374V192.259ZM410.235 181.222L448.418 325.77H372.064L410.235 181.222ZM249.571 80.8429L249.58 80.8464C255.484 83.0981 258.387 89.6046 256.107 95.3702C253.823 101.144 247.187 104.029 241.277 101.776C241.138 101.723 241.005 101.669 240.873 101.614L240.865 101.61L240.857 101.607C234.999 99.249 232.218 92.7002 234.604 86.9784C236.313 82.9445 240.258 80.2428 244.719 80.0652C244.755 80.0764 244.813 80.0941 244.877 80.1089C244.963 80.1286 245.076 80.1479 245.21 80.1479C245.339 80.1479 245.45 80.1298 245.526 80.1144C245.601 80.0991 245.672 80.0801 245.712 80.0694C245.741 80.0615 245.762 80.0562 245.776 80.0526C247.077 80.0999 248.361 80.3676 249.571 80.8429ZM42.0141 191.259L80.1848 46.7115L118.356 191.259H42.0141ZM347.663 339.998H472.808C469.513 346.35 461.902 352.144 451.367 356.447C440.118 361.041 425.718 363.855 410.235 363.855C394.752 363.855 380.356 361.041 369.108 356.447C358.575 352.144 350.964 346.351 347.663 339.998ZM17.6131 205.487H142.758C139.462 211.84 131.852 217.633 121.317 221.936C110.068 226.53 95.6683 229.345 80.1854 229.345C64.7018 229.345 50.3053 226.53 39.0576 221.936C28.5247 217.633 20.9138 211.84 17.6131 205.487Z" fill="#F88D2A" stroke="#F88D2A" stroke-width="2"/>
<path d="M95.7529 481.681H94.7529V482.681V494.909V495.909H95.7529H394.666H395.666V494.909V482.681V481.681H394.666H95.7529Z" fill="#F88D2A" stroke="#F88D2A" stroke-width="2"/>
</g>
<defs>
<clipPath id="clip0_2014_1000">
<rect width="489.13" height="500" fill="white" transform="translate(0.644531 0.34375)"/>
</clipPath>
</defs>
</svg>
