<svg width="58" height="46" viewBox="0 0 58 46" fill="none" xmlns="http://www.w3.org/2000/svg">
<path d="M33.5536 2.825C33.3393 2.42157 33.2321 1.99293 33.3708 1.61472C33.5536 1.11044 34.2029 0.978062 34.6757 1.12935C35.0791 1.26172 35.4006 1.55168 35.6968 1.84795C35.5708 1.31215 35.7977 0.0577444 36.573 0.00101249C36.7432 -0.0115946 36.8945 0.0955655 37.0143 0.209029C37.7392 0.896115 37.8589 1.86056 37.7455 2.79978C37.7203 2.99519 37.0962 5.29599 37.2349 5.3212C36.1822 4.80431 36.4911 4.79801 35.0476 4.18656C34.5937 3.98485 33.8625 3.39862 33.5536 2.825Z" fill="#F88D2B"/>
<path d="M26.9616 7.87472C26.9994 8.33488 26.9301 8.76352 26.6527 9.05978C26.2871 9.4506 25.6379 9.32453 25.2597 8.99675C24.9382 8.71939 24.7554 8.32227 24.6041 7.93775C24.5158 8.47986 23.8161 9.54516 23.0786 9.29932C22.9147 9.24259 22.8202 9.085 22.7509 8.93371C22.3474 8.0197 22.6185 7.08677 23.0913 6.26101C23.1858 6.09082 24.6608 4.21236 24.5411 4.13672C25.3038 5.02552 25.0201 4.91206 26.1106 6.03409C26.4573 6.39969 26.9049 7.22545 26.9616 7.87472Z" fill="#F88D2B"/>
<path d="M53.3212 6.56914C53.1069 6.16571 52.9997 5.73707 53.1384 5.35886C53.3212 4.85458 53.9705 4.7222 54.4432 4.87349C54.8467 5.00586 55.1681 5.29582 55.4644 5.59209C55.3383 5.05629 55.5653 3.80188 56.3406 3.74515C56.5108 3.73255 56.6621 3.8397 56.7818 3.95317C57.5068 4.64025 57.6265 5.6047 57.5131 6.54392C57.4878 6.73933 56.8638 9.04013 57.0025 9.06534C55.9498 8.54845 56.2587 8.54215 54.8151 7.9307C54.355 7.72899 53.6238 7.14276 53.3212 6.56914Z" fill="#F88D2B"/>
<path d="M13.6589 10.2056C13.722 9.7517 13.8922 9.34827 14.2263 9.12134C14.6738 8.82508 15.279 9.09613 15.5689 9.49956C15.8211 9.84625 15.903 10.2686 15.966 10.6846C16.1804 10.1803 17.1007 9.29784 17.7626 9.71388C17.9075 9.80213 17.9643 9.97862 17.9958 10.1425C18.1786 11.1259 17.7058 11.9705 17.0566 12.6639C16.9242 12.8089 15.0583 14.2965 15.1592 14.3974C14.6171 13.3573 14.8692 13.5338 14.0687 12.1912C13.8166 11.7562 13.5707 10.8485 13.6589 10.2056Z" fill="#C10230"/>
<path d="M40.0793 9.9294C40.4071 9.60792 40.779 9.38099 41.1824 9.40621C41.7182 9.43773 42.0397 10.0177 42.0271 10.5156C42.0208 10.9443 41.8317 11.3351 41.6362 11.7007C42.109 11.4233 43.376 11.2784 43.6597 12.0033C43.7227 12.1609 43.666 12.3437 43.5903 12.4886C43.1428 13.3837 42.254 13.7746 41.3211 13.9385C41.1257 13.97 38.7429 14.0456 38.7618 14.178C38.9509 13.0244 39.0518 13.3144 39.2157 11.7574C39.2724 11.2594 39.6191 10.3896 40.0793 9.9294Z" fill="#C10230"/>
<path d="M9.51747 3.13449C9.26533 2.74998 9.12665 2.33395 9.23381 1.94313C9.37248 1.42624 10.0091 1.23713 10.4945 1.35059C10.9105 1.44515 11.2509 1.70989 11.5724 1.98095C11.4022 1.45775 11.522 0.190742 12.291 0.0646714C12.4612 0.0394572 12.6188 0.134011 12.7512 0.234867C13.5328 0.858918 13.7282 1.80445 13.6967 2.75628C13.6904 2.95169 13.2618 5.29661 13.4005 5.30922C12.3099 4.88057 12.6125 4.84906 11.1249 4.35738C10.6521 4.19979 9.87047 3.6829 9.51747 3.13449Z" fill="#F88D2B"/>
<path d="M1.0525 5.52853C1.33615 5.16923 1.68286 4.90448 2.08629 4.87297C2.62209 4.83514 3.00661 5.37725 3.05704 5.86892C3.10116 6.29126 2.96247 6.7073 2.81119 7.09181C3.25244 6.75772 4.48792 6.46146 4.85353 7.14854C4.93547 7.29983 4.89766 7.48263 4.84093 7.64022C4.50684 8.57945 3.67477 9.07743 2.76706 9.35478C2.57795 9.41151 0.220441 9.77082 0.258263 9.90319C0.308691 8.73073 0.441065 9.00809 0.415851 7.44481C0.409548 6.94683 0.649069 6.03912 1.0525 5.52853Z" fill="#C10230"/>
<path d="M13.9308 31.3933C13.9056 31.3807 13.7795 22.1712 8.97623 22.291L8.67997 22.2784H8.66737L8.62955 22.1523C8.21982 21.15 8.44674 21.4463 8.52869 21.377L9.16535 20.7466L9.14644 18.9501L9.24728 18.6601C9.26619 18.6034 9.29771 18.553 9.32923 18.5025C9.37966 18.4143 9.41749 18.3513 9.39858 18.3134C9.36706 18.2504 9.20946 18.0991 8.33957 17.9289C7.94245 17.8533 7.57054 17.8155 7.23645 17.8155C6.4359 17.8218 6.07661 18.055 6.07031 18.055C5.83078 18.2189 5.69839 18.4521 5.66688 18.7736C5.58493 19.7822 6.5809 21.2572 6.9402 21.585C7.18604 21.8056 7.10409 21.5535 7.01584 21.9758L6.59981 22.1712L5.28866 22.1271C0.529487 18.7673 1.72716 16.0694 0.624044 15.3067C0.497973 15.2184 0.624053 15.3067 0.573624 15.2562C0.409732 15.1049 0.25844 15.0293 0.132369 15.0293C0.0693335 15.0293 0.0252142 15.0545 0 15.0671C0.510587 20.1856 2.28187 22.5431 3.47955 23.5454C4.80329 24.6548 4.95457 28.5819 4.93566 28.7206C4.75286 41.2016 5.76143 44.8576 6.00096 44.9585C7.01583 44.7442 6.94649 43.1242 6.94649 43.1053C6.73217 37.9238 6.35396 33.8012 7.20494 32.9755C7.36883 32.8179 7.52011 32.7422 7.6714 32.7359L7.73444 32.7422C8.27654 32.8305 8.25764 32.7485 8.27655 32.8305C8.57282 33.6941 8.52868 33.9966 8.99514 41.5924C9.21577 45.1917 9.92807 44.8387 9.94698 44.8387C10.01 44.8513 10.0604 44.8576 10.1046 44.8576C10.2559 44.8576 10.5206 44.8135 10.5332 44.6118C10.9808 37.7914 10.7349 32.3892 10.4702 28.8908C10.3189 26.88 10.4576 26.6782 10.3882 26.4639C10.3378 26.3 10.9051 24.4972 11.8065 26.88C12.3801 28.3991 12.6449 30.4856 13.1492 31.4374C13.6156 32.3388 13.956 32.572 13.9308 31.3933Z" fill="#535050"/>
<path d="M25.3523 31.3933C25.3775 31.3807 25.5036 22.1712 30.3069 22.291L30.6032 22.2784H30.6158L30.6536 22.1523C31.0633 21.15 30.8364 21.4463 30.7545 21.377L30.1178 20.7466L30.1367 18.9501L30.0359 18.6601C30.0169 18.6034 29.9854 18.553 29.9539 18.5025C29.9035 18.4143 29.8657 18.3513 29.8846 18.3134C29.9161 18.2504 30.0737 18.0991 30.9436 17.9289C31.3407 17.8533 31.7126 17.8155 32.0467 17.8155C32.8472 17.8218 33.2065 18.055 33.2128 18.055C33.4524 18.2189 33.5847 18.4521 33.6163 18.7736C33.6982 19.7822 32.7023 21.2572 32.3429 21.585C32.0971 21.8056 32.1791 21.5535 32.2673 21.9758L32.677 22.1712L33.9882 22.1271C38.7473 18.7673 37.5497 16.0694 38.6528 15.3067C38.7789 15.2184 38.6528 15.3067 38.7032 15.2562C38.8671 15.1049 39.0184 15.0293 39.1445 15.0293C39.2075 15.0293 39.2516 15.0545 39.2768 15.0671C38.7663 20.1856 36.995 22.5431 35.7973 23.5454C34.4736 24.6548 34.3222 28.5819 34.3412 28.7206C34.524 41.2016 33.5154 44.8576 33.2759 44.9585C32.261 44.7442 32.3303 43.1242 32.3303 43.1053C32.5447 37.9238 32.9229 33.8012 32.0719 32.9755C31.908 32.8179 31.7567 32.7422 31.6054 32.7359L31.5424 32.7422C31.0003 32.8305 31.0192 32.7485 31.0003 32.8305C30.704 33.6941 30.7482 33.9966 30.2817 41.5924C30.0611 45.1917 29.3488 44.8387 29.3299 44.8387C29.2668 44.8513 29.2164 44.8576 29.1723 44.8576C29.021 44.8576 28.7562 44.8135 28.7436 44.6118C28.2961 37.7914 28.5419 32.3892 28.8067 28.8908C28.9579 26.88 28.8193 26.6782 28.8886 26.4639C28.939 26.3 28.3717 24.4972 27.4703 26.88C26.8967 28.3991 26.6319 30.4856 26.1276 31.4374C25.6675 32.3388 25.3334 32.572 25.3523 31.3933Z" fill="#535050"/>
<path d="M20.3045 43.4903C20.3045 43.5092 20.2478 45.2679 21.1303 45.5011C21.269 45.4318 21.9371 40.389 22.0002 35.6172L20.002 35.7811C20.2856 37.5713 20.4117 40.1936 20.3045 43.4903Z" fill="#535050"/>
<path d="M17.5376 36.3301C17.5376 36.3931 17.5439 36.4499 17.5502 36.5129C17.6447 40.9191 18.2751 45.4387 18.4137 45.5018C19.3025 45.2811 19.2458 43.6107 19.2458 43.5918C19.1387 40.4463 19.3025 37.7232 19.6114 35.8447L20.3931 35.7754L17.5312 36.0023C17.5313 36.1095 17.5313 36.2229 17.5376 36.3301Z" fill="#535050"/>
<path d="M28.9604 18.9757C28.8532 18.9757 28.7208 19.0513 28.5758 19.19C28.5317 19.2341 28.4624 19.3098 28.3678 19.4106C25.8023 22.1653 24.7244 22.2914 22.2345 22.7515C22.1462 22.6633 22.0706 22.575 21.9949 22.4805C21.5348 21.7871 21.3142 20.3057 21.2826 19.751C21.2448 19.1081 20.9359 18.5975 20.9359 18.5975H20.9296C20.8603 18.4147 20.7468 18.2634 20.5893 18.1436C20.583 18.1436 20.1921 17.8726 19.3285 17.86C18.9629 17.8537 18.5595 17.8978 18.1309 17.9923C17.1917 18.1941 17.4375 18.1184 17.406 18.1878C17.3807 18.2319 17.1475 18.5407 17.2043 18.6416C17.2358 18.6983 17.1223 18.7866 17.1475 18.8496L17.2547 19.1837L17.2358 21.2765L17.5068 21.6547L18.2632 21.7682C18.3515 21.8501 18.6288 21.7303 18.2695 22.6759C18.2695 22.6759 17.4375 23.1738 16.5424 23.7664C15.641 24.3715 15.4204 24.8695 15.1745 25.2855C15.0421 25.5125 14.2983 27.5674 13.8066 29.9249L14.2038 31.0028C14.9917 29.7737 15.5023 27.2144 16.265 26.1554C16.265 26.1554 17.0088 25.3234 17.3114 25.9159C17.3177 25.9222 17.3177 25.9348 17.324 25.9411C17.3429 25.9789 17.3555 26.0231 17.3744 26.0735C17.406 26.1932 17.5257 26.9623 17.6203 27.7502C17.6518 28.4751 17.6392 29.1244 17.6392 29.1244C17.5888 29.345 17.5572 29.4207 17.2105 30.7444C16.908 31.8034 16.7693 33.2154 16.7378 34.7345C16.7126 35.1947 16.7126 35.6296 16.7252 36.052L19.587 35.844L20.9296 35.7305C20.9296 35.7368 20.9296 35.7368 20.9296 35.7431L22.9279 35.5981C22.9594 33.5495 22.8459 31.5576 22.4488 30.1708C22.4299 30.0384 20.5956 26.3571 23.4384 24.3526C24.5353 23.5773 28.8784 22.0644 29.0864 18.9946C29.0549 19.0009 29.0171 18.9757 28.9604 18.9757Z" fill="#535050"/>
</svg>
