<svg width="61" height="48" viewBox="0 0 61 48" fill="none" xmlns="http://www.w3.org/2000/svg">
<path d="M23.0458 21.9125C22.8029 21.677 22.6115 21.4929 22.4643 21.3678C21.4117 20.4624 19.7186 20.0576 18.8059 19.8883L18.6292 19.8588L18.5924 19.7042C18.1213 18.475 19.5788 18.4014 19.5788 18.4014L19.7923 18.0112L19.4831 15.4275L19.6156 15.0153C19.645 14.9344 19.6818 14.8608 19.726 14.7871C19.7996 14.662 19.8364 14.5737 19.8143 14.5148C19.7775 14.4265 19.5641 14.2056 18.4084 13.9627C17.8858 13.8523 17.3926 13.8008 16.9436 13.8008C15.8836 13.8081 15.4051 14.1467 15.4051 14.1467C15.0813 14.3749 14.912 14.7135 14.8752 15.1699C14.7648 16.6127 16.0823 18.7252 16.5608 19.189C16.8847 19.5055 16.2958 19.719 16.2958 19.719L14.8089 19.6674C11.0548 19.5791 9.67833 19.9692 5.77705 15.7882C5.65191 15.6557 5.56358 15.56 5.5047 15.5012C5.31331 15.3171 5.14402 15.2214 5.00416 15.2214C4.93055 15.2214 4.87905 15.2509 4.84961 15.2656C5.23238 19.5276 11.2462 21.2942 12.5344 22.2658C13.7931 23.208 14.5513 29.4501 14.4924 29.6488C14.2863 30.3628 13.0349 44.6651 14.5292 47.6831C14.6396 47.9113 14.8457 47.9849 15.0297 47.9849C15.0812 47.9849 15.1328 47.9775 15.2137 47.9628C15.2358 47.9554 15.4125 46.4244 15.7732 42.0152C16.3621 34.8972 16.6786 32.9686 17.3116 32.8656L17.3852 32.8582C17.3926 32.8582 17.3926 32.8582 17.4 32.8582C17.4073 32.8582 17.4073 32.8582 17.4147 32.8582L17.4883 32.8656C18.1213 32.9686 18.4378 34.9045 19.0267 42.0152C19.3947 46.4244 19.5714 47.9554 19.5861 47.9628C19.6597 47.9775 19.7186 47.9849 19.7702 47.9849C19.9468 47.9849 20.1603 47.9113 20.2707 47.6831C21.765 44.6651 20.5063 30.3702 20.3075 29.6488C20.2486 29.4427 20.3222 28.8318 20.44 28.103H20.4547C20.6976 26.6161 21.1393 24.5992 21.1761 24.3343C21.4485 22.575 24.2603 30.1788 25.1142 31.1063L25.4381 29.5679C24.1131 25.6739 23.7745 22.6192 23.0458 21.9125Z" fill="#535050"/>
<path d="M35.3753 21.9048C34.8821 20.9332 33.1523 20.8228 31.7758 20.4621H31.6728C31.5697 20.3738 31.5034 20.2413 31.658 20.0941C32.1218 19.6377 33.3952 17.5987 33.2921 16.2001C33.2553 15.7585 33.0934 15.4272 32.7769 15.2064C32.7695 15.2064 32.3058 14.8825 31.2826 14.8678C30.8483 14.8604 30.3699 14.9193 29.862 15.0224C28.7505 15.2579 28.5443 15.4788 28.5002 15.5597C28.4781 15.6186 28.5149 15.6996 28.5812 15.8247C28.618 15.891 28.6547 15.9646 28.6842 16.0456L28.8167 16.443L28.5149 18.9457L28.7946 19.3432C28.7946 19.3432 30.1343 19.3948 29.6779 20.5872V20.5946C28.4266 20.867 27.0648 21.0583 26.6379 21.9048C25.1583 24.8345 24.8639 30.1049 24.8344 30.1196C24.8124 31.5182 25.5926 31.3783 25.8355 30.1932C26.8734 25.151 27.3887 24.4738 27.5727 24.4223C27.9702 26.8735 28.1542 30.127 28.1248 30.2374C27.9261 30.9293 26.7115 44.7826 28.1616 47.7048C28.272 47.9257 28.4707 47.9993 28.6474 47.9993C28.6989 47.9993 28.7504 47.9919 28.824 47.9772C28.8388 47.9698 29.0155 46.4829 29.3688 42.221C29.9429 35.3238 30.2521 33.4541 30.863 33.3511L30.9367 33.3437C30.944 33.3437 30.944 33.3437 30.9514 33.3437C30.9587 33.3437 30.9587 33.3437 30.9661 33.3437L31.0397 33.3511C31.6506 33.4541 31.9598 35.3238 32.5266 42.221C32.8799 46.4903 33.0492 47.9772 33.0713 47.9772C33.1449 47.9919 33.1964 47.9993 33.248 47.9993C33.4246 47.9993 33.6234 47.9257 33.7338 47.7048C35.1765 44.7826 33.9694 30.9293 33.7706 30.2374C33.7117 30.0387 33.7853 29.4498 33.9031 28.7358H33.9178C34.1092 27.558 34.2343 25.0995 34.3668 24.4444C34.3668 24.4444 34.838 23.6862 36.1776 30.1932C36.4205 31.3783 37.2082 31.5182 37.1787 30.1196C37.1566 30.1049 36.8548 24.8345 35.3753 21.9048Z" fill="#535050"/>
<path d="M44.4818 45.5497C44.4818 45.5717 44.4082 47.7138 45.4902 48.0008C45.6595 47.9125 46.4692 41.7809 46.5502 35.9805L44.1211 36.1866C44.4597 38.358 44.6143 41.5453 44.4818 45.5497Z" fill="#535050"/>
<path d="M41.1167 36.8491C41.1167 36.9301 41.1241 36.9963 41.1315 37.0699C41.2493 42.4287 42.0148 47.9273 42.1841 48.0009C43.2588 47.7285 43.1925 45.6969 43.1925 45.6822C43.06 41.8619 43.2661 38.5495 43.6415 36.2602L44.5911 36.1719L41.1094 36.4516C41.1094 36.5841 41.1094 36.7166 41.1167 36.8491Z" fill="#535050"/>
<path d="M55.0074 15.745C54.8749 15.745 54.713 15.8334 54.5364 16.0027C54.4849 16.0542 54.3965 16.1499 54.2787 16.275C51.1577 19.6242 49.8474 19.7788 46.8147 20.3309C46.7117 20.2278 46.616 20.1174 46.5203 20.007C45.9609 19.1679 45.6959 17.3571 45.6591 16.6872C45.615 15.8996 45.2395 15.2887 45.2395 15.2887H45.2322C45.1438 15.0678 45.0113 14.8764 44.8126 14.7366C44.8052 14.7292 44.3341 14.4053 43.2815 14.3906C42.8325 14.3906 42.3467 14.4422 41.8241 14.5526C40.6831 14.7955 40.9775 14.7071 40.9407 14.7955C40.9187 14.8544 40.6316 15.2224 40.6978 15.3475C40.7346 15.4212 40.6021 15.5168 40.6242 15.5978L40.7567 16.01L40.7347 18.5569L41.0659 19.0133L41.986 19.1531C42.0964 19.2488 42.435 19.109 41.9934 20.2646C41.9934 20.2646 40.9776 20.8682 39.8955 21.5896C38.7987 22.3257 38.5337 22.9293 38.2319 23.4372C38.07 23.7095 37.172 26.2123 36.5684 29.0756L37.0542 30.3859C38.0185 28.8916 38.6294 25.778 39.5569 24.4898C39.5569 24.4898 40.4623 23.4814 40.823 24.2027C40.8304 24.2101 40.8303 24.2248 40.8377 24.2322C40.8598 24.2763 40.8819 24.3279 40.8966 24.3941C40.9334 24.534 41.0806 25.4762 41.191 26.4404C41.2278 27.3238 41.2131 28.1114 41.2131 28.1114C41.1468 28.3764 41.1101 28.4721 40.6905 30.0841C40.3225 31.3723 40.1531 33.0874 40.1163 34.9349C40.0869 35.4944 40.0795 36.0244 40.0942 36.5323L43.576 36.2746L45.2101 36.1348C45.2101 36.1421 45.2101 36.1495 45.2101 36.1495L47.6392 35.9728C47.676 33.4775 47.5361 31.0557 47.0577 29.3701C47.0356 29.2155 44.8052 24.7327 48.2575 22.2962C49.5972 21.3541 54.875 19.5138 55.1326 15.7818C55.1253 15.7671 55.0737 15.745 55.0074 15.745Z" fill="#535050"/>
<path d="M1 13.8891L30.2964 0.779297L59.9978 14.0658" stroke="#535050" stroke-width="1.07864" stroke-miterlimit="10"/>
<path d="M10.3105 10.5329V0.5H17.8113V7.05858" fill="#535050"/>
</svg>
