<svg width="66" height="65" viewBox="0 0 66 65" fill="none" xmlns="http://www.w3.org/2000/svg">
<path d="M14.0293 21.1711C11.0583 21.1711 8.64336 18.7561 8.64336 15.7852C8.64336 12.8142 11.0583 10.3992 14.0293 10.3992C17.0002 10.3992 19.4152 12.8142 19.4152 15.7852C19.4152 18.7561 17.0002 21.1711 14.0293 21.1711ZM14.0293 13.0461C12.5193 13.0461 11.2902 14.2752 11.2902 15.7852C11.2902 17.2951 12.5193 18.5242 14.0293 18.5242C15.5393 18.5242 16.7684 17.2951 16.7684 15.7852C16.7684 14.2752 15.5393 13.0461 14.0293 13.0461Z" fill="#F88D2A" stroke="white" stroke-width="0.4"/>
<path d="M59.1047 56.875C59.1047 57.6059 58.5122 58.1984 57.7812 58.1984C57.0503 58.1984 56.4578 57.6059 56.4578 56.875C56.4578 56.1441 57.0503 55.5516 57.7812 55.5516C58.5122 55.5516 59.1047 56.1441 59.1047 56.875Z" fill="#F88D2A" stroke="white" stroke-width="0.4"/>
<path d="M51.0779 50.9442L51.078 50.9443C51.6077 51.4829 51.5941 52.363 51.036 52.8514L51.036 52.8514C46.108 57.1684 39.8519 59.5314 33.2481 59.5314C23.6325 59.5314 14.6885 54.3746 9.85748 46.0581L12.1569 44.7451C16.5166 52.2377 24.5795 56.8845 33.2481 56.8845C39.1807 56.8845 44.8052 54.7729 49.2414 50.9062C49.7875 50.4318 50.5829 50.4405 51.0779 50.9442Z" fill="#F88D2A" stroke="white" stroke-width="0.4"/>
<path d="M54.538 44.3981C56.5635 40.7818 57.6326 36.673 57.6326 32.5008C57.6326 22.262 51.0978 13.0405 41.5719 9.57506C40.8936 9.32807 40.5149 8.62792 40.7143 7.95082L54.538 44.3981ZM54.538 44.3981L56.8374 45.711C59.0902 41.6946 60.2795 37.134 60.2795 32.5008C60.2795 21.1254 53.0021 10.8815 42.4007 7.06072L54.538 44.3981ZM40.7143 7.95077C40.9277 7.22702 41.7036 6.80982 42.4006 7.06069L40.7143 7.95077Z" fill="#F88D2A" stroke="white" stroke-width="0.4"/>
<path d="M6.20977 32.5008C6.20977 27.1763 7.75254 22.219 10.4231 18.0428C10.8935 18.8232 11.6203 19.4186 12.4718 19.7483C10.1777 23.4525 8.85664 27.8389 8.85664 32.5008C8.85664 33.9561 9.00013 35.3896 9.24554 36.8007L9.24557 36.8009C9.37141 37.5199 8.95838 38.2019 8.26118 38.3588L8.26117 38.3588L8.25769 38.3596C7.53195 38.5366 6.79387 38.075 6.65326 37.3594C6.37087 35.7654 6.20977 34.1324 6.20977 32.5008Z" fill="#F88D2A" stroke="white" stroke-width="0.4"/>
<path d="M31.241 8.19062C26.1269 8.61367 21.4685 10.6202 17.7329 13.6839C17.2973 12.9044 16.602 12.2672 15.7752 11.9003C19.9107 8.37252 25.1383 6.07693 30.8695 5.58286L30.8695 5.58288L30.8727 5.58255C31.593 5.50868 32.3132 5.46868 33.0492 5.46255V8.10921C32.4419 8.11303 31.8339 8.13508 31.241 8.19062Z" fill="#F88D2A" stroke="white" stroke-width="0.4"/>
<path d="M32.9326 6.43464C33.1548 6.5719 33.211 6.78214 33.214 6.92538C33.2169 7.0658 33.174 7.27779 32.9617 7.42948L32.9612 7.42978L30.5827 9.11978L30.5826 9.11981C29.9862 9.54326 29.8467 10.369 30.2704 10.9656L30.3084 11.0192C30.7422 11.57 31.5358 11.6885 32.1141 11.2779L32.9326 6.43464ZM32.9326 6.43464C32.9324 6.43453 32.9323 6.43441 32.9321 6.4343L30.459 4.88915L30.4589 4.88909C29.8398 4.50277 29.6508 3.6857 30.0373 3.06636C30.4236 2.44719 31.2407 2.25827 31.86 2.6447L34.334 4.19041L34.334 4.19044C35.2561 4.7663 35.8244 5.759 35.8569 6.84616C35.8894 7.93297 35.3787 8.95833 34.4927 9.58792C34.4927 9.58792 34.4927 9.58792 34.4927 9.58793L32.1141 11.2779L32.9326 6.43464Z" fill="#F88D2A" stroke="white" stroke-width="0.4"/>
<path d="M55.021 41.6679L55.021 41.6678C55.0475 40.9377 54.4761 40.3251 53.7451 40.2986C53.0147 40.2722 52.4025 40.8418 52.3759 41.5724C52.3759 41.5724 52.3759 41.5724 52.3759 41.5724C52.3759 41.5725 52.3759 41.5725 52.3759 41.5726L52.2723 44.4892C52.2723 44.4892 52.2723 44.4893 52.2723 44.4893C52.2341 45.5761 52.7391 46.6034 53.6214 47.2388C54.5035 47.8741 55.6377 48.0252 56.6557 47.6425L56.6558 47.6425L59.3875 46.6168L55.021 41.6679ZM55.021 41.6679L54.9174 44.5848L54.9174 44.5849C54.9083 44.8471 55.0529 45.0088 55.1632 45.0901C55.277 45.174 55.4803 45.259 55.7247 45.1647M55.021 41.6679L55.7247 45.1647M55.7247 45.1647L58.4559 44.1393L58.456 44.1392C59.1404 43.8817 59.9029 44.2291 60.1607 44.9123C60.418 45.5965 60.0708 46.3588 59.3878 46.6167L55.7247 45.1647Z" fill="#F88D2A" stroke="white" stroke-width="0.4"/>
<path d="M15.9194 45.3086L15.9426 45.24C16.131 44.5682 15.761 43.8576 15.0919 43.6305C15.0919 43.6305 15.0919 43.6305 15.0918 43.6305L12.3276 42.6942C12.3275 42.6942 12.3275 42.6942 12.3275 42.6942C11.2959 42.3459 10.1693 42.5334 9.30619 43.1974C8.44324 43.8614 7.97452 44.9038 8.04721 45.989C8.04721 45.9891 8.04721 45.9891 8.04722 45.9891L8.24626 48.8997L8.24627 48.8998C8.29566 49.6283 8.92727 50.179 9.65617 50.1295C10.3847 50.0802 10.9354 49.4486 10.8859 48.7196L10.6869 45.8093C10.6869 45.8092 10.6869 45.8092 10.6869 45.8092L10.6869 45.809L10.8864 45.7953L15.9194 45.3086ZM15.9194 45.3086C15.6846 46.0006 14.9326 46.3727 14.2413 46.1381L14.2412 46.1381M15.9194 45.3086L14.2412 46.1381M14.2412 46.1381L11.4771 45.2018L14.2412 46.1381Z" fill="#F88D2A" stroke="white" stroke-width="0.4"/>
<path d="M33.248 48.0422C24.679 48.0422 17.7059 41.0691 17.7059 32.5C17.7059 23.9309 24.679 16.9578 33.248 16.9578C41.8171 16.9578 48.7902 23.9309 48.7902 32.5C48.7902 41.0691 41.8171 48.0422 33.248 48.0422ZM33.248 19.6047C26.1379 19.6047 20.3527 25.3899 20.3527 32.5C20.3527 39.6101 26.1379 45.3953 33.248 45.3953C40.3582 45.3953 46.1434 39.6101 46.1434 32.5C46.1434 25.3899 40.3582 19.6047 33.248 19.6047Z" fill="#F88D2A" stroke="white" stroke-width="0.4"/>
<path d="M33.248 48.0422C32.2321 48.0422 31.3271 47.5802 30.5328 46.7447C29.7359 45.9064 29.058 44.699 28.509 43.2343C27.4114 40.3056 26.8465 36.3955 26.8465 32.5C26.8465 28.6045 27.4114 24.6944 28.509 21.7657C29.058 20.301 29.7359 19.0936 30.5328 18.2553C31.3271 17.4198 32.2321 16.9578 33.248 16.9578C34.264 16.9578 35.169 17.4198 35.9633 18.2553C36.7602 19.0936 37.4381 20.301 37.9871 21.7657C39.0847 24.6944 39.6496 28.6045 39.6496 32.5C39.6496 36.3955 39.0847 40.3056 37.9871 43.2343C37.4381 44.699 36.7602 45.9064 35.9633 46.7447C35.169 47.5802 34.264 48.0422 33.248 48.0422ZM33.248 19.6047C33.0504 19.6047 32.8518 19.7029 32.6662 19.8498C32.477 19.9996 32.2801 20.2167 32.0818 20.494C31.6847 21.0493 31.2659 21.8691 30.8839 22.944C30.1191 25.0957 29.4934 28.2927 29.4934 32.5C29.4934 36.7073 30.1191 39.9043 30.8839 42.056C31.2659 43.1309 31.6847 43.9507 32.0818 44.506C32.2801 44.7833 32.477 45.0004 32.6662 45.1502C32.8518 45.2971 33.0504 45.3953 33.248 45.3953C33.4457 45.3953 33.6443 45.2971 33.8299 45.1502C34.0191 45.0004 34.216 44.7833 34.4143 44.506C34.8114 43.9507 35.2302 43.1309 35.6122 42.056C36.377 39.9043 37.0027 36.7073 37.0027 32.5C37.0027 28.2927 36.377 25.0957 35.6122 22.944C35.2302 21.8691 34.8114 21.0493 34.4143 20.494C34.216 20.2167 34.0191 19.9996 33.8299 19.8498C33.6443 19.7029 33.4457 19.6047 33.248 19.6047Z" fill="#F88D2A" stroke="white" stroke-width="0.4"/>
<path d="M19.2293 31.1766H47.2668V33.8234H19.2293V31.1766Z" fill="#F88D2A" stroke="white" stroke-width="0.4"/>
</svg>
