<svg width="66" height="65" viewBox="0 0 66 65" fill="none" xmlns="http://www.w3.org/2000/svg">
<path d="M63.291 45.4598C62.2043 43.1644 59.3605 42.0676 56.791 42.9715L45.0504 47.6129C45.2941 47.0238 45.4363 46.3738 45.4363 45.6934C45.4363 42.8902 43.1613 40.6152 40.3582 40.6152H33.7871C32.8832 40.6152 31.9895 40.3715 31.2074 39.9145L27.1855 37.5379C26.0887 36.898 24.8395 36.5527 23.5699 36.5527H13.952C13.3934 36.5527 12.9363 37.0098 12.9363 37.5684C12.9363 38.127 13.3934 38.584 13.952 38.584H23.5699C24.4738 38.584 25.3676 38.8277 26.1496 39.2848L30.1715 41.6613C31.2684 42.3012 32.5176 42.6465 33.7871 42.6465H40.3582C42.034 42.6465 43.4051 44.0176 43.4051 45.6934C43.4051 47.3691 42.0848 48.6895 40.4395 48.7301C40.3785 48.7301 40.3176 48.7301 40.2566 48.7301H29.1863C28.6277 48.7301 28.1707 49.1871 28.1707 49.7457C28.1707 50.3043 28.6277 50.7613 29.1863 50.7613H40.3582C40.3582 50.7613 40.409 50.7613 40.4395 50.7613C41.9121 50.741 43.3645 50.4566 44.7355 49.9184L57.4918 44.8707C59.0355 44.3223 60.8129 44.9824 61.4426 46.323C61.7168 46.902 61.7473 47.552 61.5238 48.1512C61.2801 48.8316 60.7418 49.3801 60.0207 49.7051L40.5004 58.541C36.0824 60.5418 30.7402 60.3184 26.5457 57.9621L20.1066 54.3465C18.248 53.3004 16.1152 52.7519 13.9316 52.7519C13.373 52.7519 12.916 53.209 12.916 53.7676C12.916 54.3262 13.373 54.7832 13.9316 54.7832C15.7598 54.7832 17.5574 55.2402 19.1113 56.1137L25.5504 59.7293C28.1707 61.202 31.1262 61.9434 34.0816 61.9434C36.5496 61.9434 39.0277 61.4254 41.3332 60.3793L60.8535 51.5434C62.0723 50.9949 62.9863 50.0301 63.423 48.8316C63.8293 47.7145 63.7785 46.516 63.2707 45.4395L63.291 45.4598Z" fill="#F88D2A"/>
<path d="M42.3887 35.5469C33.4309 35.5469 26.1387 28.2547 26.1387 19.2969C26.1387 10.3391 33.4309 3.04688 42.3887 3.04688C51.3465 3.04688 58.6387 10.3391 58.6387 19.2969C58.6387 28.2547 51.3465 35.5469 42.3887 35.5469ZM42.3887 5.07812C34.548 5.07812 28.1699 11.4563 28.1699 19.2969C28.1699 27.1375 34.548 33.5156 42.3887 33.5156C50.2293 33.5156 56.6074 27.1375 56.6074 19.2969C56.6074 11.4563 50.2293 5.07812 42.3887 5.07812Z" fill="#F88D2A"/>
<path d="M46.4512 18.2812H38.3262C37.7777 18.2812 37.3105 17.9359 37.3105 17.5195V13.9648C37.3105 13.5484 37.7777 13.2031 38.3262 13.2031H48.4824C49.041 13.2031 49.498 12.7461 49.498 12.1875C49.498 11.6289 49.041 11.1719 48.4824 11.1719H43.4043V9.14062C43.4043 8.58203 42.9473 8.125 42.3887 8.125C41.8301 8.125 41.373 8.58203 41.373 9.14062V11.1719H38.3262C36.6504 11.1719 35.2793 12.4211 35.2793 13.9648V17.5195C35.2793 19.0633 36.6504 20.3125 38.3262 20.3125H46.4512C46.9996 20.3125 47.4668 20.6578 47.4668 21.0742V24.6289C47.4668 25.0453 46.9996 25.3906 46.4512 25.3906H36.2949C35.7363 25.3906 35.2793 25.8477 35.2793 26.4062C35.2793 26.9648 35.7363 27.4219 36.2949 27.4219H41.373V29.4531C41.373 30.0117 41.8301 30.4688 42.3887 30.4688C42.9473 30.4688 43.4043 30.0117 43.4043 29.4531V27.4219H46.4512C48.127 27.4219 49.498 26.1727 49.498 24.6289V21.0742C49.498 19.5305 48.127 18.2812 46.4512 18.2812Z" fill="#F88D2A"/>
<path d="M11.9199 57.8906H5.82617C4.15039 57.8906 2.7793 56.5195 2.7793 54.8438V36.5625C2.7793 34.8867 4.15039 33.5156 5.82617 33.5156H11.9199C13.5957 33.5156 14.9668 34.8867 14.9668 36.5625V54.8438C14.9668 56.5195 13.5957 57.8906 11.9199 57.8906ZM5.82617 35.5469C5.26758 35.5469 4.81055 36.0039 4.81055 36.5625V54.8438C4.81055 55.4023 5.26758 55.8594 5.82617 55.8594H11.9199C12.4785 55.8594 12.9355 55.4023 12.9355 54.8438V36.5625C12.9355 36.0039 12.4785 35.5469 11.9199 35.5469H5.82617Z" fill="#F88D2A"/>
<path d="M9.88867 41.6406C9.33008 41.6406 8.87305 41.1836 8.87305 40.625V38.5938C8.87305 38.0352 9.33008 37.5781 9.88867 37.5781C10.4473 37.5781 10.9043 38.0352 10.9043 38.5938V40.625C10.9043 41.1836 10.4473 41.6406 9.88867 41.6406Z" fill="#F88D2A"/>
</svg>
