<svg width="630" height="636" viewBox="0 0 630 636" fill="none" xmlns="http://www.w3.org/2000/svg">
<g clip-path="url(#clip0_930_12677)">
<path d="M434.046 166.578C419.27 145.94 400.701 131.687 377.173 124.38C321.785 107.175 263.045 138.513 244.516 195.125C233.836 227.747 238.012 259.245 252.546 289.699C256.481 297.95 261.379 305.779 266.137 313.628C269.369 318.948 273.906 320.213 278.061 317.543C282.217 314.873 282.779 310.216 279.366 305.056C267.522 287.069 258.749 267.857 255.397 246.357C247.628 196.691 279.688 148.269 327.667 137.489C364.887 129.117 403.933 146.623 424.269 180.811C425.112 182.216 425.855 183.682 426.678 185.087C430.753 191.953 437.76 191.953 441.634 184.886C449.865 169.91 460.926 157.624 475.541 148.691C524.183 118.959 586.537 141.424 607.294 196.269C618.055 224.715 615.063 252.64 602.998 279.962C591.616 305.719 574.291 327.239 554.396 346.793C519.827 380.76 479.937 407.299 437.238 429.824C435.591 430.687 432.68 430.667 431.074 429.783C419.31 423.279 407.747 416.433 396.104 409.748C391.546 407.139 386.809 408.142 384.52 412.077C382.292 415.932 383.496 420.228 387.652 423.118C387.792 423.219 387.933 423.299 388.073 423.379C401.745 431.169 415.315 439.138 429.167 446.566C431.637 447.891 435.933 448.152 438.362 446.908C493.97 418.461 545.101 383.892 586.015 335.932C605.066 313.608 619.701 288.755 626.446 259.767C638.311 208.876 616.288 156.982 572.524 132.831C526.753 107.577 470.422 119.602 437.98 161.579C436.796 163.105 435.611 164.61 434.066 166.618L434.046 166.578Z" fill="url(#paint0_linear_930_12677)"/>
<path d="M409.514 306.22C409.514 290.461 399.718 276.77 384.842 271.811C369.826 266.813 353.826 271.811 344.19 284.92C322.348 314.652 300.667 344.504 278.925 374.315C268.205 389.01 257.465 403.725 246.745 418.44C245.882 419.625 244.958 420.789 244.175 422.054C241.525 426.27 242.248 430.827 245.902 433.356C249.455 435.805 253.852 435.163 256.843 431.489C259.412 428.297 261.721 424.905 264.15 421.592C294.685 379.735 325.259 337.899 355.713 295.982C360.611 289.237 366.754 285.121 375.246 285.924C390.604 287.37 398.654 304.293 390.182 317.221C387.131 321.879 383.678 326.275 380.405 330.792C339.492 387.003 298.579 443.233 257.686 499.444C257.204 500.106 256.702 500.749 256.241 501.431C252.768 506.39 253.049 511.208 256.983 514.018C261.018 516.889 265.475 515.745 269.129 510.726C313.635 449.617 358.122 388.508 402.589 327.379C407.166 321.096 409.454 314.029 409.535 306.24L409.514 306.22Z" fill="url(#paint1_linear_930_12677)"/>
<path d="M344.773 503.346C344.552 485.459 331.403 470.483 313.817 468.094C308.819 467.412 304.984 469.841 304.121 474.197C303.198 478.895 305.767 482.629 311.047 483.653C319.92 485.359 326.063 490.157 328.332 499.03C330.64 507.984 326.987 514.95 320.302 520.772C302.294 536.531 284.608 552.691 266.219 567.988C260.056 573.108 252.588 577.504 244.98 579.893C221.09 587.401 196.819 593.665 172.789 600.711C160.062 604.425 147.394 608.38 134.968 612.957C129.708 614.904 124.91 618.417 120.333 621.79C116.8 624.38 116.639 628.194 119.269 631.807C121.798 635.28 126.476 636.666 129.688 634.237C141.552 625.283 155.625 621.89 169.477 618.036C192.202 611.712 215.068 605.89 237.773 599.506C255.84 594.407 271.86 585.735 285.692 572.606C300.668 558.393 316.608 545.223 332.086 531.532C340.718 523.903 344.934 514.388 344.793 503.346H344.773Z" fill="url(#paint2_linear_930_12677)"/>
<path d="M134.486 321.325C124.067 321.666 115.053 325.541 108.75 334.193C77.7938 376.752 46.9583 419.412 16.2031 462.112C8.87569 472.29 7.02878 484.395 5.14171 496.42C3.67622 505.816 2.41149 515.251 0.40397 524.526C-0.619864 529.223 -2.88836 533.72 -4.9561 538.117C-6.78294 541.991 -6.22084 546.026 -2.86828 548.656C0.484271 551.306 5.12164 551.326 7.59088 547.572C10.6022 542.995 13.4729 537.916 14.6573 532.656C17.5281 519.888 19.5155 506.92 21.5632 493.971C23.2094 483.592 26.6824 474.197 32.986 465.585C62.1954 425.615 91.1237 385.425 120.233 345.355C127.681 335.096 138.581 334.474 147.394 343.568C151.068 347.362 155.766 347.884 159.138 344.873C162.511 341.862 162.631 336.983 159.239 332.988C152.835 325.42 144.544 321.706 134.486 321.305V321.325Z" fill="url(#paint3_linear_930_12677)"/>
<path d="M575.558 229.518C574.294 200.75 551.99 177.362 524.808 176.339C518.083 176.078 514.389 178.607 514.088 183.626C513.787 188.645 517.3 191.636 523.905 192.017C541.812 193.061 557.029 207.616 559.338 225.924C559.538 227.55 559.639 229.197 559.779 230.823C560.301 236.765 563.252 239.877 568.131 239.636C573.069 239.395 575.86 235.601 575.578 229.498L575.558 229.518Z" fill="url(#paint4_linear_930_12677)"/>
<path d="M237.794 116.734C240.323 114.747 243.475 113.502 244.177 111.415C245.041 108.885 244.479 105.392 243.395 102.802C242.451 100.554 239.942 98.9679 238.075 97.121C224.544 83.5903 211.013 70.0396 197.463 56.5089C196.539 55.5855 195.656 54.6018 194.652 53.7586C191.018 50.7674 186.582 50.8678 183.57 53.9393C180.599 56.9706 180.459 61.5879 183.631 65.0007C187.987 69.6582 192.604 74.0747 197.121 78.5916C208.223 89.6932 219.284 100.855 230.486 111.856C232.353 113.683 234.903 114.827 237.773 116.714L237.794 116.734Z" fill="url(#paint5_linear_930_12677)"/>
<path d="M335.92 42.1343C335.92 53.2559 335.799 64.3976 335.98 75.5193C336.1 82.3448 342.665 86.4603 347.744 82.7263C349.751 81.2608 351.478 77.9283 351.498 75.4189C351.779 53.1756 351.699 30.9122 351.638 8.64887C351.638 3.16834 348.527 -0.0436846 343.769 -0.00353426C339.051 0.0366161 335.98 3.2888 335.92 8.74924C335.819 19.8709 335.9 31.0126 335.9 42.1343H335.92Z" fill="url(#paint6_linear_930_12677)"/>
<path d="M160.102 215.823C170.902 215.823 181.703 215.863 192.503 215.823C198.726 215.803 202.119 212.872 202.019 207.813C201.918 202.975 198.546 200.124 192.644 200.104C170.882 200.064 149.121 200.064 127.339 200.104C121.477 200.104 118.124 203.035 118.084 207.914C118.044 212.812 121.337 215.783 127.198 215.803C138.16 215.863 149.121 215.803 160.102 215.823Z" fill="url(#paint7_linear_930_12677)"/>
<path d="M186.44 338.508C169.316 338.508 154.018 348.746 148.678 362.377C147.153 366.272 148.237 369.584 151.569 371.853C154.942 374.141 158.555 373.84 161.426 370.909C163.574 368.701 165.22 366.011 167.087 363.521C176.221 351.296 191.458 351.095 200.753 363.1C204.407 367.818 209.105 368.922 212.919 365.931C216.573 363.08 216.894 358.302 213.521 353.685C206.294 343.768 196.437 338.769 186.42 338.508H186.44Z" fill="url(#paint8_linear_930_12677)"/>
<path d="M234.319 364.356C223.539 364.717 214.224 368.873 207.097 377.405C204.066 381.038 201.336 384.953 198.666 388.888C195.875 393.023 196.558 397.661 200.091 400.25C203.624 402.84 208.342 402.097 211.373 398.263C213.602 395.452 215.589 392.421 217.737 389.53C226.108 378.288 238.716 376.963 249.195 386.338C252.206 389.028 255.358 390.072 259.052 388.386C263.99 386.158 264.954 379.854 260.919 375.598C253.792 368.07 244.899 364.497 234.279 364.336L234.319 364.356Z" fill="url(#paint9_linear_930_12677)"/>
</g>
<defs>
<linearGradient id="paint0_linear_930_12677" x1="27.8445" y1="673.918" x2="482.889" y2="185.549" gradientUnits="userSpaceOnUse">
<stop offset="0.27" stop-color="white"/>
<stop offset="0.66" stop-color="#F88D2A"/>
<stop offset="0.99" stop-color="#F88D2A"/>
</linearGradient>
<linearGradient id="paint1_linear_930_12677" x1="39.3082" y1="684.597" x2="494.372" y2="196.248" gradientUnits="userSpaceOnUse">
<stop offset="0.27" stop-color="white"/>
<stop offset="0.66" stop-color="#F88D2A"/>
<stop offset="0.99" stop-color="#F88D2A"/>
</linearGradient>
<linearGradient id="paint2_linear_930_12677" x1="85.5225" y1="727.666" x2="540.566" y2="239.298" gradientUnits="userSpaceOnUse">
<stop offset="0.27" stop-color="white"/>
<stop offset="0.66" stop-color="#F88D2A"/>
<stop offset="0.99" stop-color="#F88D2A"/>
</linearGradient>
<linearGradient id="paint3_linear_930_12677" x1="-72.2079" y1="580.696" x2="382.856" y2="92.3473" gradientUnits="userSpaceOnUse">
<stop offset="0.27" stop-color="white"/>
<stop offset="0.66" stop-color="#F88D2A"/>
<stop offset="0.99" stop-color="#F88D2A"/>
</linearGradient>
<linearGradient id="paint4_linear_930_12677" x1="72.1532" y1="715.197" x2="527.197" y2="226.848" gradientUnits="userSpaceOnUse">
<stop offset="0.27" stop-color="white"/>
<stop offset="0.66" stop-color="#F88D2A"/>
<stop offset="0.99" stop-color="#F88D2A"/>
</linearGradient>
<linearGradient id="paint5_linear_930_12677" x1="-167.344" y1="492.04" x2="287.721" y2="3.67104" gradientUnits="userSpaceOnUse">
<stop offset="0.27" stop-color="white"/>
<stop offset="0.66" stop-color="#F88D2A"/>
<stop offset="0.99" stop-color="#F88D2A"/>
</linearGradient>
<linearGradient id="paint6_linear_930_12677" x1="-118.381" y1="537.67" x2="336.683" y2="49.3015" gradientUnits="userSpaceOnUse">
<stop offset="0.27" stop-color="white"/>
<stop offset="0.66" stop-color="#F88D2A"/>
<stop offset="0.99" stop-color="#F88D2A"/>
</linearGradient>
<linearGradient id="paint7_linear_930_12677" x1="-133.779" y1="523.315" x2="321.285" y2="34.9459" gradientUnits="userSpaceOnUse">
<stop offset="0.27" stop-color="white"/>
<stop offset="0.66" stop-color="#F88D2A"/>
<stop offset="0.99" stop-color="#F88D2A"/>
</linearGradient>
<linearGradient id="paint8_linear_930_12677" x1="-45.5892" y1="605.488" x2="409.475" y2="117.139" gradientUnits="userSpaceOnUse">
<stop offset="0.27" stop-color="white"/>
<stop offset="0.66" stop-color="#F88D2A"/>
<stop offset="0.99" stop-color="#F88D2A"/>
</linearGradient>
<linearGradient id="paint9_linear_930_12677" x1="-7.24548" y1="641.213" x2="447.819" y2="152.864" gradientUnits="userSpaceOnUse">
<stop offset="0.27" stop-color="white"/>
<stop offset="0.66" stop-color="#F88D2A"/>
<stop offset="0.99" stop-color="#F88D2A"/>
</linearGradient>
<clipPath id="clip0_930_12677">
<rect width="635.62" height="635.44" fill="white" transform="translate(-6)"/>
</clipPath>
</defs>
</svg>
