<svg width="236" height="83" viewBox="0 0 236 83" fill="none" xmlns="http://www.w3.org/2000/svg">
<g clip-path="url(#clip0_930_6940)">
<path d="M33.4275 51.5806C33.1216 51.3085 32.8794 51.0917 32.6902 50.9427C31.3512 49.8838 29.2021 49.4047 28.0409 49.2127L27.8178 49.1756L27.7675 48.9992C27.1734 47.5615 29.0191 47.4746 29.0191 47.4746L29.2929 47.0192L28.8979 43.9979L29.0667 43.5153C29.1013 43.4219 29.1516 43.3353 29.2026 43.2516C29.2927 43.1025 29.3477 42.9985 29.3141 42.9302C29.264 42.8303 28.9928 42.568 27.5308 42.2825C26.8667 42.1524 26.2412 42.0891 25.6689 42.0935C24.323 42.1061 23.7144 42.4951 23.7084 42.4992C23.3004 42.7698 23.0789 43.1623 23.0346 43.7003C22.8932 45.3909 24.5709 47.8601 25.177 48.4069C25.5865 48.777 24.8355 49.0308 24.8355 49.0308L22.9442 48.9722C18.1749 48.8661 16.4185 49.3213 11.4639 44.4284C11.3089 44.2754 11.1919 44.1605 11.1184 44.0925C10.8795 43.879 10.6602 43.7665 10.4827 43.7681C10.3913 43.7681 10.3249 43.8004 10.2891 43.8228C10.7769 48.8106 18.4168 50.8795 20.0575 52.0104C21.662 53.1164 22.6246 60.4125 22.5504 60.6512C22.2915 61.4893 20.6999 78.2208 22.5965 81.7512C22.7396 82.0174 23.0022 82.1036 23.2305 82.1054C23.2945 82.1061 23.3664 82.0979 23.4602 82.0761C23.4838 82.0713 23.7099 80.2744 24.1734 75.1204C24.9222 66.7922 25.3279 64.5335 26.1284 64.4098L26.2258 64.4034C26.2342 64.4034 26.2379 64.4016 26.2451 64.4009C26.2524 64.4016 26.2561 64.4034 26.2646 64.4034L26.3619 64.4098C27.1624 64.5335 27.5682 66.7922 28.3169 75.1204C28.7804 80.2744 29.0064 82.0713 29.03 82.0761C29.1242 82.0979 29.1959 82.1061 29.2601 82.1054C29.4883 82.1036 29.751 82.0174 29.8938 81.7512C31.7904 78.2208 30.1987 61.4893 29.9399 60.6512C29.866 60.4125 29.9553 59.6992 30.1094 58.8394H30.1261C30.4303 57.0977 30.9968 54.7438 31.0486 54.4342C31.3918 52.3793 34.9723 61.2724 36.0574 62.3611L36.4676 60.5616C34.7884 55.9791 34.358 52.4123 33.4275 51.5806Z" fill="#5F504D"/>
<path d="M49.1096 51.5774C48.4851 50.4366 46.2864 50.3088 44.5347 49.8918H44.4003C44.2699 49.786 44.1882 49.6375 44.3853 49.4592C44.9726 48.9293 46.5978 46.5371 46.4608 44.8994C46.4181 44.3784 46.2032 43.9981 45.8079 43.736C45.8022 43.7319 45.2125 43.355 43.9087 43.3428C43.3543 43.3387 42.7485 43.4001 42.105 43.5261C40.6886 43.8024 40.4257 44.0568 40.3772 44.1534C40.3449 44.2196 40.3981 44.3205 40.4853 44.4648C40.535 44.5459 40.5836 44.6297 40.6172 44.7202L40.7807 45.1876L40.3979 48.1148L40.7516 48.5813C40.7516 48.5813 42.4513 48.6401 41.8757 50.033L41.8723 50.0449C40.2801 50.3604 38.5529 50.5874 38.0107 51.5774C36.1339 55.0056 35.7548 61.1704 35.7234 61.1869C35.6923 62.8202 36.6892 62.6555 36.9986 61.2701C38.3176 55.3676 38.9753 54.5769 39.204 54.5192C39.7069 57.3887 39.9463 61.1938 39.9068 61.3216C39.6561 62.1333 38.114 78.3422 39.9513 81.7622C40.09 82.0204 40.3444 82.1036 40.5654 82.1054C40.6274 82.1061 40.6971 82.0979 40.7882 82.0772C40.8111 82.072 41.0302 80.3312 41.479 75.3386C42.2045 67.2703 42.5973 65.0818 43.3732 64.9629L43.4673 64.9565C43.4756 64.9565 43.4793 64.954 43.4863 64.9535C43.493 64.954 43.4967 64.9565 43.5049 64.9565L43.599 64.9629C44.3749 65.0818 44.7677 67.2703 45.4933 75.3386C45.9424 80.3312 46.1611 82.072 46.1841 82.0772C46.2751 82.0979 46.3446 82.1061 46.4069 82.1054C46.6279 82.1036 46.8823 82.0204 47.0209 81.7622C48.8582 78.3422 47.3161 62.1333 47.0655 61.3216C46.9938 61.09 47.0804 60.399 47.2295 59.5657H47.246C47.4872 58.1858 47.6502 55.3119 47.8192 54.5467C47.8192 54.5467 48.4209 53.6582 50.1218 61.2701C50.4314 62.6555 51.4281 62.8202 51.3969 61.1869C51.3659 61.1704 50.9865 55.0056 49.1096 51.5774Z" fill="#5F504D"/>
<path d="M60.6807 79.8417C60.6807 79.8676 60.5918 82.3746 61.9619 82.707C62.181 82.6067 63.2095 75.4322 63.3085 68.6438L60.2227 68.8814C60.6478 71.4268 60.8489 75.1525 60.6807 79.8417Z" fill="#5F504D"/>
<path d="M56.4003 69.6568C56.4056 69.7488 56.4128 69.8304 56.4192 69.9154C56.5649 76.1853 57.5434 82.6145 57.7562 82.707C59.1265 82.392 59.0376 80.0154 59.0376 79.9909C58.8684 75.5179 59.1295 71.6434 59.6079 68.9687L60.8172 68.8679L56.3906 69.1909C56.3949 69.3454 56.3923 69.5078 56.4003 69.6568Z" fill="#5F504D"/>
<path d="M55.9566 45.2753C55.9566 45.2753 55.1777 44.2875 56.1876 43.8541C57.1977 43.4208 58.752 43.8541 58.752 43.8541L59.1624 45.5892L57.4163 45.7422L55.9566 45.2753Z" fill="#5F504D"/>
<path d="M74.0603 44.9662C73.8933 44.9646 73.6881 45.0702 73.4638 45.2703C73.395 45.334 73.2854 45.4416 73.1401 45.585C69.1733 49.5029 67.5088 49.6841 63.655 50.3351C63.523 50.2125 63.4006 50.0839 63.2829 49.9529C62.5754 48.9682 62.2342 46.8555 62.1836 46.0658C62.1249 45.1479 61.6477 44.4276 61.6477 44.4276L61.6382 44.4312C61.5272 44.1696 61.3569 43.9524 61.1083 43.7875C61.1023 43.7831 60.4981 43.3972 59.1622 43.3844C58.5942 43.3803 57.9733 43.4431 57.314 43.5723C55.8627 43.8557 56.2381 43.7544 56.1881 43.8537C56.155 43.9217 55.7915 44.3525 55.8809 44.5002C55.9319 44.5834 55.7552 44.703 55.7896 44.796L55.9571 45.2748L55.927 48.2568L56.3477 48.792L57.5208 48.954C57.659 49.0669 58.0881 48.9019 57.5313 50.2498C57.5313 50.2498 56.2401 50.955 54.8656 51.8034C53.4719 52.6633 53.1311 53.3738 52.754 53.9683C52.5513 54.2877 51.4038 57.214 50.6406 60.5684L51.2582 62.0986C52.4799 60.3466 53.265 56.7085 54.4419 55.2012C54.4419 55.2012 55.5892 54.0199 56.0549 54.8646C56.0549 54.8648 56.0549 54.8648 56.0549 54.8648C56.0612 54.8742 56.0664 54.888 56.0726 54.8979C56.1002 54.9531 56.1256 55.014 56.1475 55.0857C56.1986 55.2534 56.3827 56.3484 56.5263 57.4761C56.5782 58.5076 56.557 59.4304 56.557 59.4311C56.4763 59.7401 56.4258 59.8518 55.8911 61.7366C55.4232 63.2436 55.2093 65.2517 55.156 67.415C55.1192 68.0659 55.114 68.69 55.1319 69.2871L59.5585 68.9897L61.6318 68.8309C61.6327 68.8374 61.6337 68.8442 61.635 68.8508L64.7209 68.6437C64.77 65.7265 64.5935 62.8905 63.9793 60.9174C63.9534 60.7331 61.1175 55.4899 65.506 52.6429C67.2055 51.5402 73.9188 49.3904 74.2419 45.0175C74.2081 44.9965 74.1457 44.9662 74.0603 44.9662Z" fill="#5F504D"/>
<path d="M88.8937 60.7174C84.8154 61.2347 81.9255 62.0776 80.2241 63.2447C78.9554 64.131 78.322 65.3874 78.322 67.0127C78.322 68.1512 78.6501 69.0409 79.309 69.6837C79.9673 70.3266 80.8263 70.6479 81.886 70.6479C83.7799 70.6479 85.4221 69.9868 86.8106 68.6644C88.1992 67.3422 88.8937 65.683 88.8937 63.6876V60.7174ZM96.793 69.4732L97.6602 70.7143C96.4877 71.8227 95.1871 72.377 93.7584 72.377C92.6662 72.377 91.7479 72.1032 91.0011 71.5565C90.2542 71.0106 89.5998 70.0497 89.0384 68.6754C87.5129 70.1534 86.1727 71.1395 85.0162 71.6344C83.8608 72.1289 82.4717 72.377 80.8499 72.377C78.538 72.377 76.7805 71.919 75.5761 71.0023C74.3717 70.0868 73.7695 68.9118 73.7695 67.4783C73.7695 65.3212 75.1466 63.5293 77.9001 62.1028C80.653 60.6768 84.3184 59.7274 88.8937 59.2545V56.1067C88.8937 54.9838 88.4037 54.0233 87.4249 53.2251C86.4455 52.4274 85.2009 52.0285 83.692 52.0285C82.2951 52.0285 81.0914 52.2942 80.0795 52.8262C79.3568 53.2251 78.9955 53.6172 78.9955 54.0012C78.9955 54.2225 79.1886 54.57 79.5741 55.0431C80.0393 55.6342 80.2719 56.1587 80.2719 56.6169C80.2719 57.2818 80.0393 57.8248 79.5741 58.246C79.1077 58.6668 78.4978 58.8781 77.744 58.8781C76.9404 58.8781 76.2707 58.6267 75.7329 58.1241C75.195 57.6218 74.9261 56.9787 74.9261 56.1954C74.9261 54.7327 75.8208 53.3952 77.6108 52.1836C79.4014 50.972 81.749 50.366 84.6555 50.366C87.3363 50.366 89.3838 50.8978 90.7965 51.9616C92.2087 53.0407 92.9154 54.3487 92.9154 55.8854V67.2343C92.9154 68.2392 93.0925 68.9781 93.4455 69.451C93.7986 69.9387 94.2561 70.1823 94.8182 70.1823C95.4446 70.1823 96.1022 69.9458 96.793 69.4732Z" fill="#5F504D"/>
<path d="M114.666 65.5938L116.231 66.015C114.979 70.2568 112.217 72.377 107.946 72.377C104.816 72.377 102.255 71.4234 100.264 69.5176C98.2734 67.611 97.2773 65.0772 97.2773 61.9145C97.2773 58.2496 98.3696 55.4086 100.553 53.3915C102.737 51.3741 105.305 50.366 108.26 50.366C110.476 50.366 112.307 50.9276 113.75 52.0507C115.196 53.1736 115.918 54.4222 115.918 55.7962C115.918 56.6243 115.649 57.3077 115.11 57.8471C114.574 58.3868 113.934 58.6558 113.197 58.6558C112.475 58.6558 111.864 58.4276 111.367 57.9715C110.868 57.5148 110.619 56.9622 110.619 56.3138C110.619 55.6661 110.893 55.048 111.439 54.4583C111.694 54.1785 111.823 53.9576 111.823 53.7957C111.823 53.3681 111.51 52.9523 110.884 52.547C110.258 52.1423 109.407 51.9393 108.332 51.9393C106.373 51.9393 104.888 52.5967 103.877 53.91C102.431 55.8144 101.709 58.3231 101.709 61.4377C101.709 64.4043 102.351 66.6519 103.636 68.1792C104.92 69.7067 106.557 70.4707 108.548 70.4707C111.293 70.4707 113.333 68.8456 114.666 65.5938Z" fill="#5F504D"/>
<path d="M122.303 42.5207H123.916V50.9881H131.213V53.0275H123.916V66.3493C123.916 67.5022 124.213 68.3849 124.807 68.998C125.401 69.6114 126.156 69.9181 127.071 69.9181C128.162 69.9181 129.094 69.4526 129.864 68.5217C130.635 67.5904 131.085 66.0535 131.213 63.911H132.826C132.731 66.6746 132.048 68.7251 130.779 70.0625C129.511 71.3998 127.865 72.0684 125.843 72.0684C123.98 72.0684 122.523 71.5998 121.472 70.6607C120.42 69.7229 119.893 68.4924 119.893 66.9704V53.0275H115.969V51.4759C117.757 51.1952 119.119 50.5081 120.053 49.4141C121.439 47.7741 122.189 45.4761 122.303 42.5207Z" fill="#5F504D"/>
<path d="M132.154 50.9878L141.137 50.744V68.6098C141.137 69.0978 141.266 69.4445 141.522 69.6521C141.892 69.9471 142.357 70.0949 142.919 70.0949H145.472V71.7578H132.636V70.0949H135.02C135.727 70.0949 136.243 69.9366 136.573 69.6189C136.902 69.3015 137.067 68.8392 137.067 68.2333V55.1551C137.067 54.3278 136.81 53.703 136.297 53.2819C135.782 52.8608 135.02 52.65 134.009 52.65H132.154V50.9878Z" fill="#5F504D"/>
<path d="M151.111 42.5207H152.724V50.9881H160.022V53.0275H152.724V66.3493C152.724 67.5022 153.021 68.3849 153.615 68.998C154.209 69.6114 154.964 69.9181 155.879 69.9181C156.97 69.9181 157.903 69.4526 158.673 68.5217C159.444 67.5904 159.893 66.0535 160.022 63.911H161.635C161.539 66.6746 160.857 68.7251 159.588 70.0625C158.319 71.3998 156.673 72.0684 154.651 72.0684C152.789 72.0684 151.331 71.5998 150.281 70.6607C149.228 69.7229 148.702 68.4924 148.702 66.9704V53.0275H144.777V51.4759C146.566 51.1952 147.928 50.5081 148.862 49.4141C150.248 47.7741 150.997 45.4761 151.111 42.5207Z" fill="#5F504D"/>
<path d="M169.126 50.6114V64.3766C169.126 66.0612 169.586 67.3614 170.507 68.2777C171.429 69.1939 172.618 69.6524 174.077 69.6524C175.87 69.6524 177.396 68.9838 178.655 67.646C179.912 66.3091 180.541 64.6352 180.541 62.6252V54.845C180.541 54.1356 180.264 53.5853 179.71 53.1938C179.156 52.8024 178.093 52.5841 176.52 52.5396V50.9881L184.442 50.6114V67.657C184.442 68.4408 184.683 69.0425 185.165 69.4636C185.646 69.8847 186.321 70.0953 187.188 70.0953H188.609V71.5804L181.022 71.7359L180.541 67.657C179.195 69.1206 177.84 70.2215 176.477 70.9599C175.114 71.6988 173.736 72.0684 172.341 72.0684C170.306 72.0684 168.599 71.4401 167.22 70.1839C165.825 68.9428 165.128 66.837 165.128 63.867V54.845C165.128 54.0472 164.784 53.4412 164.093 53.0274C163.612 52.7319 162.624 52.5692 161.131 52.5396V50.9881L169.126 50.6114Z" fill="#5F504D"/>
<path d="M199.955 52.2074C198.222 52.2074 196.843 52.8647 195.825 54.1801C194.805 55.4955 194.295 57.7119 194.295 60.8299C194.295 64.2141 194.817 66.5971 195.861 67.9785C196.904 69.3605 198.244 70.0513 199.882 70.0513C201.632 70.0513 203.13 69.2794 204.374 67.7345C205.618 66.1907 206.241 63.9332 206.241 60.963C206.241 58.1554 205.575 55.9459 204.242 54.3354C203.086 52.9168 201.656 52.2074 199.955 52.2074ZM201.351 38.974L210.166 38.5969V67.0143C210.166 68.1228 210.395 68.9135 210.852 69.3862C211.31 69.8595 211.996 70.0953 212.911 70.0953H214.477V71.7581H206.77L206.193 67.5239C205.278 69.0312 204.206 70.1656 202.977 70.9269C201.749 71.6878 200.372 72.0684 198.847 72.0684C196.279 72.0684 194.09 71.0784 192.284 69.0982C190.478 67.1182 189.574 64.5021 189.574 61.251C189.574 57.7341 190.731 54.9266 193.043 52.8279C194.857 51.1876 196.945 50.3676 199.304 50.3676C200.749 50.3676 202.046 50.6999 203.194 51.3652C204.342 52.0301 205.341 53.035 206.193 54.3794V42.6536C206.193 42.0327 205.931 41.5417 205.41 41.1795C204.887 40.8175 204.073 40.6365 202.965 40.6365H201.351V38.974Z" fill="#5F504D"/>
<path d="M218.936 59.9414H228.714C229.292 59.9414 229.74 59.7608 230.063 59.3984C230.382 59.0371 230.544 58.4196 230.544 57.5476C230.544 55.9225 229.993 54.541 228.894 53.4025C227.793 52.2647 226.498 51.6956 225.005 51.6956C223.335 51.6956 221.917 52.3827 220.754 53.7573C219.59 55.1316 218.984 57.1927 218.936 59.9414ZM235.095 61.5156H218.936C219.015 64.6776 219.658 66.9101 220.862 68.2099C222.243 69.6725 224.001 70.4046 226.136 70.4046C229.283 70.4046 231.812 68.7563 233.723 65.4607L235.289 66.0818C232.944 70.279 229.556 72.377 225.125 72.377C222.106 72.377 219.566 71.3723 217.503 69.3623C215.439 67.3527 214.408 64.7814 214.408 61.6482C214.408 58.2792 215.423 55.5564 217.455 53.4804C219.485 51.4044 221.986 50.366 224.956 50.366C227.14 50.366 229.026 50.8831 230.616 51.9176C232.206 52.9523 233.4 54.4371 234.204 56.3727C234.765 57.7325 235.063 59.4469 235.095 61.5156Z" fill="#5F504D"/>
<path d="M124.638 82.0273H123.986V77.2659H122.047V76.7117H126.577V77.2659H124.638V82.0273Z" fill="#C10230"/>
<path d="M129.498 77.3805L128.177 80.0913H130.809L129.498 77.3805ZM132.443 82.0273H131.741L131.065 80.6226H127.921L127.237 82.0273H126.568L129.2 76.673H129.811L132.443 82.0273Z" fill="#C10230"/>
<path d="M138.5 82.0273H137.683L135.463 79.4537L134.234 80.6004V82.0273H133.582V76.7117H134.234V79.886L137.551 76.7117H138.393L135.918 79.0356L138.5 82.0273Z" fill="#C10230"/>
<path d="M143.688 77.259H140.166V79.0732H143.317V79.6203H140.166V81.4814H143.73V82.0273H139.514V76.7117H143.688V77.259Z" fill="#C10230"/>
<path d="M149.951 77.3805L148.631 80.0913H151.262L149.951 77.3805ZM152.896 82.0273H152.195L151.518 80.6226H148.375L147.69 82.0273H147.021L149.654 76.673H150.264L152.896 82.0273Z" fill="#C10230"/>
<path d="M158.18 81.5683C158.018 81.6822 157.843 81.78 157.655 81.8605C157.469 81.942 157.268 82.0048 157.054 82.0504C156.839 82.0969 156.6 82.1191 156.336 82.1191C155.918 82.1191 155.532 82.0481 155.181 81.9063C154.829 81.7642 154.523 81.5706 154.265 81.3255C154.007 81.0799 153.804 80.79 153.659 80.4562C153.512 80.1213 153.439 79.7618 153.439 79.3776C153.439 78.9977 153.512 78.6403 153.659 78.3071C153.804 77.9724 154.007 77.6803 154.265 77.4299C154.523 77.1788 154.831 76.9817 155.189 76.8374C155.547 76.6931 155.937 76.6208 156.361 76.6208C156.624 76.6208 156.862 76.6415 157.074 76.6814C157.286 76.7219 157.483 76.7787 157.664 76.8521C157.845 76.9254 158.014 77.0152 158.167 77.1178C158.321 77.2221 158.47 77.3371 158.613 77.4638L158.167 77.9037C157.92 77.692 157.654 77.5165 157.371 77.3806C157.088 77.2434 156.748 77.1753 156.352 77.1753C156.033 77.1753 155.738 77.231 155.465 77.3423C155.193 77.4539 154.957 77.6081 154.756 77.8052C154.555 78.0029 154.398 78.2352 154.285 78.5007C154.172 78.7665 154.117 79.0534 154.117 79.3618C154.117 79.6715 154.172 79.96 154.285 80.228C154.398 80.4961 154.555 80.7296 154.756 80.9266C154.957 81.1239 155.193 81.2797 155.465 81.3935C155.738 81.5079 156.033 81.5642 156.352 81.5642C156.748 81.5642 157.09 81.4973 157.376 81.3638C157.661 81.2293 157.942 81.0405 158.217 80.7976L158.646 81.1848C158.498 81.3266 158.342 81.4545 158.18 81.5683Z" fill="#C10230"/>
<path d="M161.963 82.0273H161.312V77.2659H159.373V76.7117H163.903V77.2659H161.963V82.0273Z" fill="#C10230"/>
<path d="M165.841 76.7117V82.0273H165.189V76.7117H165.841Z" fill="#C10230"/>
<path d="M172.323 78.5191C172.21 78.251 172.052 78.018 171.849 77.821C171.644 77.6232 171.405 77.4661 171.126 77.3495C170.848 77.234 170.545 77.1753 170.214 77.1753C169.885 77.1753 169.581 77.2321 169.303 77.346C169.025 77.4597 168.788 77.6157 168.589 77.8134C168.391 78.0104 168.236 78.2416 168.123 78.5072C168.01 78.7736 167.954 79.0586 167.954 79.3618C167.954 79.6656 168.01 79.9519 168.123 80.22C168.236 80.4885 168.394 80.722 168.598 80.919C168.802 81.1168 169.042 81.2733 169.32 81.3894C169.598 81.5067 169.901 81.5642 170.232 81.5642C170.561 81.5642 170.866 81.5079 171.143 81.3935C171.421 81.2797 171.659 81.1239 171.857 80.9266C172.055 80.7296 172.21 80.4972 172.323 80.2317C172.436 79.9659 172.493 79.6809 172.493 79.3776C172.493 79.0733 172.436 78.7876 172.323 78.5191ZM172.954 80.4134C172.811 80.7461 172.61 81.0382 172.352 81.2916C172.094 81.5443 171.783 81.7461 171.419 81.8951C171.057 82.044 170.655 82.1191 170.214 82.1191C169.775 82.1191 169.374 82.0458 169.014 81.8985C168.654 81.7519 168.345 81.5537 168.087 81.3026C167.827 81.0517 167.628 80.7607 167.488 80.4292C167.347 80.0974 167.277 79.7471 167.277 79.3776C167.277 79.0082 167.349 78.6575 167.492 78.3255C167.635 77.9939 167.836 77.7014 168.094 77.4487C168.352 77.1953 168.664 76.9941 169.027 76.8445C169.39 76.6956 169.791 76.6208 170.232 76.6208C170.671 76.6208 171.071 76.6942 171.432 76.8408C171.792 76.9881 172.101 77.1863 172.361 77.4367C172.619 77.6872 172.818 77.9788 172.958 78.3101C173.099 78.6421 173.169 78.9929 173.169 79.3618C173.169 79.732 173.097 80.0825 172.954 80.4134Z" fill="#C10230"/>
<path d="M178.796 76.7117H179.431V82.0273H178.912L175.182 77.6689V82.0273H174.547V76.7117H175.157L178.796 80.9723V76.7117Z" fill="#C10230"/>
<path d="M186.18 83V75.9676H186.716V83H186.18Z" fill="#5F504D"/>
<path d="M197.693 78.5499C197.581 78.2912 197.421 78.0671 197.214 77.8772C197.008 77.687 196.757 77.5381 196.46 77.4297C196.162 77.3204 195.832 77.2659 195.47 77.2659H194.116V81.4731H195.47C195.832 81.4731 196.162 81.4204 196.46 81.3143C196.757 81.2076 197.008 81.0596 197.214 80.8696C197.421 80.6797 197.581 80.4584 197.693 80.2052C197.806 79.9518 197.862 79.6759 197.862 79.3774C197.862 79.0837 197.806 78.8074 197.693 78.5499ZM198.316 80.4132C198.168 80.74 197.957 81.0227 197.685 81.261C197.413 81.4983 197.088 81.6862 196.711 81.8227C196.335 81.9588 195.92 82.0273 195.47 82.0273H193.465V76.7117H195.47C195.92 76.7117 196.335 76.7786 196.711 76.9129C197.088 77.0466 197.413 77.2338 197.685 77.4712C197.957 77.7088 198.168 77.9904 198.316 78.3136C198.465 78.6378 198.539 78.9875 198.539 79.3616C198.539 79.7364 198.465 80.0872 198.316 80.4132Z" fill="#C10230"/>
<path d="M204.705 78.5191C204.593 78.251 204.434 78.018 204.231 77.821C204.028 77.6232 203.787 77.4661 203.509 77.3495C203.232 77.234 202.927 77.1753 202.598 77.1753C202.268 77.1753 201.964 77.2321 201.686 77.346C201.407 77.4597 201.17 77.6157 200.972 77.8134C200.774 78.0104 200.619 78.2416 200.506 78.5072C200.394 78.7736 200.337 79.0586 200.337 79.3618C200.337 79.6656 200.394 79.9519 200.506 80.22C200.619 80.4885 200.777 80.722 200.981 80.919C201.184 81.1168 201.425 81.2733 201.702 81.3894C201.98 81.5067 202.284 81.5642 202.614 81.5642C202.944 81.5642 203.248 81.5079 203.526 81.3935C203.803 81.2797 204.041 81.1239 204.239 80.9266C204.438 80.7296 204.593 80.4972 204.705 80.2317C204.819 79.9659 204.875 79.6809 204.875 79.3776C204.875 79.0733 204.819 78.7876 204.705 78.5191ZM205.337 80.4134C205.194 80.7461 204.993 81.0382 204.734 81.2916C204.476 81.5443 204.165 81.7461 203.802 81.8951C203.439 82.044 203.038 82.1191 202.598 82.1191C202.157 82.1191 201.757 82.0458 201.397 81.8985C201.037 81.7519 200.728 81.5537 200.469 81.3026C200.211 81.0517 200.011 80.7607 199.87 80.4292C199.731 80.0974 199.66 79.7471 199.66 79.3776C199.66 79.0082 199.732 78.6575 199.875 78.3255C200.018 77.9939 200.218 77.7014 200.477 77.4487C200.736 77.1953 201.046 76.9941 201.409 76.8445C201.773 76.6956 202.174 76.6208 202.614 76.6208C203.054 76.6208 203.454 76.6942 203.815 76.8408C204.174 76.9881 204.485 77.1863 204.743 77.4367C205.001 77.6872 205.201 77.9788 205.341 78.3101C205.481 78.6421 205.551 78.9929 205.551 79.3618C205.551 79.732 205.479 80.0825 205.337 80.4134Z" fill="#C10230"/>
<path d="M213.41 81.8797C213.016 82.0394 212.575 82.1191 212.085 82.1191C211.629 82.1191 211.221 82.0481 210.86 81.9063C210.5 81.7642 210.192 81.5695 209.936 81.3214C209.681 81.0732 209.485 80.7825 209.35 80.448C209.215 80.1144 209.148 79.7572 209.148 79.3776C209.148 79.0128 209.219 78.6632 209.359 78.3296C209.499 77.9951 209.695 77.7014 209.949 77.4487C210.201 77.1953 210.506 76.9941 210.86 76.8445C211.215 76.6956 211.609 76.6208 212.045 76.6208C212.286 76.6208 212.507 76.6355 212.709 76.6667C212.909 76.6967 213.096 76.7423 213.269 76.8028C213.443 76.8637 213.605 76.9382 213.756 77.0268C213.908 77.1153 214.055 77.2152 214.198 77.3272L213.777 77.7822C213.667 77.692 213.551 77.6093 213.431 77.5359C213.31 77.4626 213.179 77.3992 213.038 77.346C212.899 77.2931 212.744 77.2509 212.577 77.2209C212.409 77.19 212.223 77.1753 212.02 77.1753C211.701 77.1753 211.406 77.234 211.137 77.3506C210.867 77.4668 210.636 77.6246 210.443 77.8216C210.251 78.0191 210.1 78.2515 209.99 78.5177C209.879 78.7842 209.825 79.0669 209.825 79.3659C209.825 79.6855 209.878 79.9806 209.986 80.2521C210.093 80.5238 210.246 80.7584 210.443 80.9555C210.642 81.1537 210.881 81.3085 211.161 81.4199C211.443 81.5319 211.759 81.5871 212.11 81.5871C212.44 81.5871 212.751 81.5356 213.043 81.4311C213.334 81.3266 213.579 81.2006 213.777 81.0533V79.7267H212.02V79.1947H214.404V81.3085C214.134 81.5308 213.803 81.7214 213.41 81.8797Z" fill="#C10230"/>
<path d="M220.663 78.5191C220.551 78.251 220.392 78.018 220.189 77.821C219.985 77.6232 219.745 77.4661 219.466 77.3495C219.189 77.234 218.885 77.1753 218.555 77.1753C218.225 77.1753 217.921 77.2321 217.643 77.346C217.366 77.4597 217.127 77.6157 216.929 77.8134C216.731 78.0104 216.576 78.2416 216.463 78.5072C216.351 78.7736 216.295 79.0586 216.295 79.3618C216.295 79.6656 216.351 79.9519 216.463 80.22C216.576 80.4885 216.734 80.722 216.938 80.919C217.141 81.1168 217.382 81.2733 217.66 81.3894C217.937 81.5067 218.242 81.5642 218.571 81.5642C218.902 81.5642 219.205 81.5079 219.483 81.3935C219.761 81.2797 219.999 81.1239 220.197 80.9266C220.395 80.7296 220.551 80.4972 220.663 80.2317C220.776 79.9659 220.832 79.6809 220.832 79.3776C220.832 79.0733 220.776 78.7876 220.663 78.5191ZM221.294 80.4134C221.151 80.7461 220.95 81.0382 220.692 81.2916C220.433 81.5443 220.123 81.7461 219.759 81.8951C219.397 82.044 218.995 82.1191 218.555 82.1191C218.115 82.1191 217.714 82.0458 217.354 81.8985C216.994 81.7519 216.685 81.5537 216.426 81.3026C216.168 81.0517 215.968 80.7607 215.827 80.4292C215.688 80.0974 215.617 79.7471 215.617 79.3776C215.617 79.0082 215.689 78.6575 215.832 78.3255C215.975 77.9939 216.175 77.7014 216.435 77.4487C216.693 77.1953 217.004 76.9941 217.366 76.8445C217.73 76.6956 218.132 76.6208 218.571 76.6208C219.012 76.6208 219.411 76.6942 219.772 76.8408C220.132 76.9881 220.442 77.1863 220.7 77.4367C220.959 77.6872 221.158 77.9788 221.298 78.3101C221.438 78.6421 221.508 78.9929 221.508 79.3618C221.508 79.732 221.437 80.0825 221.294 80.4134Z" fill="#C10230"/>
<path d="M227.676 78.5191C227.563 78.251 227.405 78.018 227.202 77.821C226.998 77.6232 226.758 77.4661 226.48 77.3495C226.203 77.234 225.898 77.1753 225.569 77.1753C225.238 77.1753 224.934 77.2321 224.657 77.346C224.378 77.4597 224.14 77.6157 223.943 77.8134C223.745 78.0104 223.589 78.2416 223.476 78.5072C223.364 78.7736 223.308 79.0586 223.308 79.3618C223.308 79.6656 223.364 79.9519 223.476 80.22C223.589 80.4885 223.747 80.722 223.951 80.919C224.154 81.1168 224.395 81.2733 224.673 81.3894C224.951 81.5067 225.254 81.5642 225.584 81.5642C225.915 81.5642 226.219 81.5079 226.496 81.3935C226.774 81.2797 227.012 81.1239 227.21 80.9266C227.408 80.7296 227.563 80.4972 227.676 80.2317C227.789 79.9659 227.845 79.6809 227.845 79.3776C227.845 79.0733 227.789 78.7876 227.676 78.5191ZM228.307 80.4134C228.165 80.7461 227.963 81.0382 227.705 81.2916C227.446 81.5443 227.136 81.7461 226.773 81.8951C226.41 82.044 226.008 82.1191 225.569 82.1191C225.128 82.1191 224.728 82.0458 224.368 81.8985C224.007 81.7519 223.698 81.5537 223.44 81.3026C223.181 81.0517 222.981 80.7607 222.841 80.4292C222.702 80.0974 222.631 79.7471 222.631 79.3776C222.631 79.0082 222.703 78.6575 222.846 78.3255C222.988 77.9939 223.189 77.7014 223.447 77.4487C223.707 77.1953 224.017 76.9941 224.38 76.8445C224.743 76.6956 225.145 76.6208 225.584 76.6208C226.024 76.6208 226.424 76.6942 226.786 76.8408C227.145 76.9881 227.455 77.1863 227.713 77.4367C227.972 77.6872 228.172 77.9788 228.311 78.3101C228.452 78.6421 228.521 78.9929 228.521 79.3618C228.521 79.732 228.45 80.0825 228.307 80.4134Z" fill="#C10230"/>
<path d="M234.127 78.5499C234.014 78.2912 233.855 78.0671 233.649 77.8772C233.443 77.687 233.191 77.5381 232.894 77.4297C232.597 77.3204 232.267 77.2659 231.904 77.2659H230.551V81.4731H231.904C232.267 81.4731 232.597 81.4204 232.894 81.3143C233.191 81.2076 233.443 81.0596 233.649 80.8696C233.855 80.6797 234.014 80.4584 234.127 80.2052C234.24 79.9518 234.297 79.6759 234.297 79.3774C234.297 79.0837 234.24 78.8074 234.127 78.5499ZM234.75 80.4132C234.602 80.74 234.392 81.0227 234.12 81.261C233.847 81.4983 233.522 81.6862 233.146 81.8227C232.769 81.9588 232.355 82.0273 231.904 82.0273H229.898V76.7117H231.904C232.355 76.7117 232.769 76.7786 233.146 76.9129C233.522 77.0466 233.847 77.2338 234.12 77.4712C234.392 77.7088 234.602 77.9904 234.75 78.3136C234.899 78.6378 234.973 78.9875 234.973 79.3616C234.973 79.7364 234.899 80.0872 234.75 80.4132Z" fill="#C10230"/>
<path d="M12.584 33.719C13.1187 34.0425 13.6954 34.2256 14.2423 34.0934C14.9667 33.9181 15.238 33.1031 15.0874 32.482C14.9574 31.947 14.5925 31.5037 14.2204 31.094C14.9472 31.3208 16.7161 31.1774 16.8976 30.1925C16.9376 29.9743 16.8076 29.7679 16.6653 29.6002C15.808 28.5901 14.4845 28.327 13.161 28.36C12.8859 28.3669 9.61087 28.8911 9.5957 28.7142C10.1806 30.1178 10.2302 29.7292 10.8941 31.6418C11.1061 32.2534 11.8253 33.2601 12.584 33.719Z" fill="#C10230"/>
<path d="M80.3495 35.6597C80.0487 35.1398 79.9041 34.5943 80.0978 34.1054C80.354 33.4577 81.2608 33.2842 81.919 33.4799C82.4855 33.6483 82.9316 34.0238 83.3401 34.4028C83.1623 33.7154 83.4809 32.1077 84.5629 32.0326C84.8032 32.0159 85.0141 32.1542 85.1823 32.3002C86.1962 33.1793 86.358 34.4167 86.2 35.6267C86.1669 35.878 85.297 38.8308 85.4869 38.8613C84.0226 38.1953 84.4476 38.1859 82.4397 37.4007C81.798 37.1496 80.7758 36.3977 80.3495 35.6597Z" fill="#C10230"/>
<path d="M73.925 31.2464C73.2947 31.1426 72.7397 30.9107 72.4415 30.4685C72.0464 29.8827 72.4581 29.1191 73.0316 28.7637C73.5254 28.4576 74.1219 28.3667 74.6979 28.305C74.0008 28.0092 72.8245 26.7855 73.4286 25.9559C73.5624 25.772 73.8109 25.7043 74.0397 25.6727C75.4168 25.4821 76.574 26.1289 77.5101 26.9908C77.7044 27.1698 79.6907 29.6236 79.8335 29.5046C78.3602 30.1533 78.6151 29.8398 76.704 30.8083C76.0929 31.1178 74.8184 31.3934 73.925 31.2464Z" fill="#C10230"/>
<path d="M63.5814 34.6356C63.207 35.1133 62.7392 35.4737 62.1769 35.5296C61.4321 35.6034 60.8631 34.9309 60.7633 34.3013C60.6774 33.759 60.8467 33.2249 61.0358 32.72C60.4444 33.1704 58.7363 33.6167 58.1855 32.7559C58.0632 32.5653 58.1048 32.3298 58.173 32.1264C58.5827 30.9013 59.7176 30.2212 60.9669 29.818C61.2265 29.7341 64.4892 29.1495 64.435 28.9792C64.4318 30.4827 64.2352 30.1358 64.356 32.1405C64.3942 32.7813 64.1126 33.9579 63.5814 34.6356Z" fill="#C10230"/>
<path d="M5.43406 37.1274C6.06483 37.2262 6.67294 37.181 7.11627 36.858C7.70348 36.43 7.59668 35.5832 7.18821 35.07C6.83623 34.628 6.30852 34.3565 5.78902 34.1187C6.55371 34.058 8.11144 33.2735 7.84858 32.3046C7.79008 32.0897 7.58126 31.9485 7.37766 31.8475C6.15195 31.2388 4.82495 31.4865 3.62714 32.0054C3.37822 32.1133 0.60673 33.8025 0.515625 33.6463C1.66315 34.716 1.53919 34.3416 2.98069 35.8488C3.4417 36.3303 4.53894 36.9872 5.43406 37.1274Z" fill="#C10230"/>
<path d="M23.1298 34.6356C23.5042 35.1133 23.9719 35.4737 24.5342 35.5296C25.279 35.6034 25.848 34.9309 25.9479 34.3013C26.0337 33.759 25.8642 33.2249 25.6753 32.72C26.2668 33.1704 27.9748 33.6167 28.5257 32.7559C28.6479 32.5653 28.6064 32.3298 28.5381 32.1264C28.1285 30.9013 26.9936 30.2212 25.7442 29.818C25.4846 29.7341 22.2218 29.1495 22.2761 28.9792C22.2791 30.4827 22.4756 30.1358 22.3552 32.1405C22.3166 32.7813 22.5986 33.9579 23.1298 34.6356Z" fill="#C10230"/>
<path d="M30.4665 39.7557C30.5942 40.3329 30.8594 40.8387 31.3467 41.1024C31.9924 41.4521 32.8119 41.0548 33.1843 40.5187C33.5051 40.057 33.5895 39.5062 33.643 38.9744C33.9808 39.6088 35.3379 40.6628 36.2249 40.087C36.4212 39.9594 36.4887 39.7291 36.5175 39.5182C36.6921 38.2461 35.962 37.1965 35.0036 36.3557C34.8045 36.1809 32.0925 34.4119 32.218 34.2774C31.5483 35.6486 31.8829 35.4069 30.8765 37.1883C30.5546 37.7579 30.2856 38.9368 30.4665 39.7557Z" fill="#C10230"/>
<path d="M16.2468 14.7587C16.5916 15.2549 17.0369 15.6385 17.5948 15.7235C18.3338 15.8355 18.9429 15.1933 19.0808 14.5698C19.1995 14.0325 19.0629 13.4906 18.9048 12.9768C19.4679 13.4572 21.1461 13.9903 21.7485 13.1598C21.8822 12.9756 21.8548 12.7381 21.7993 12.5316C21.4645 11.2876 20.3727 10.5497 19.15 10.0828C18.8959 9.98607 15.6736 9.23413 15.7383 9.06697C15.6497 10.5685 15.8672 10.2318 15.625 12.2272C15.5477 12.8653 15.7577 14.0542 16.2468 14.7587Z" fill="#C10230"/>
<path d="M27.7308 19.5029C27.8794 20.0759 28.1629 20.5727 28.6595 20.8214C29.3177 21.151 30.1222 20.7287 30.4746 20.1815C30.7786 19.7099 30.843 19.1568 30.8769 18.6237C31.2376 19.2471 32.6323 20.2583 33.4978 19.656C33.6894 19.5222 33.7485 19.29 33.7699 19.0782C33.8976 17.8013 33.1296 16.7749 32.1412 15.9643C31.9358 15.796 29.1606 14.1115 29.2814 13.9731C28.6623 15.3643 28.9876 15.1127 28.0467 16.9239C27.746 17.5034 27.52 18.6899 27.7308 19.5029Z" fill="#C10230"/>
<path d="M40.4244 4.79404C40.3689 5.38116 40.4675 5.93484 40.8539 6.3155C41.3654 6.81874 42.2735 6.65158 42.7957 6.23514C43.2458 5.8756 43.4961 5.36943 43.7112 4.87381C43.8397 5.57002 44.8164 6.93488 45.8442 6.61405C46.0722 6.54308 46.2076 6.34014 46.3005 6.14482C46.8593 4.97059 46.4825 3.77347 45.8226 2.71713C45.6854 2.49777 43.6293 0.0935779 43.7911 -0.00261307C42.7267 1.1376 43.122 0.993317 41.6081 2.43912C41.1242 2.9013 40.5031 3.96175 40.4244 4.79404Z" fill="#C10230"/>
<path d="M40.0396 26.3174C39.9843 26.9042 40.0829 27.4582 40.469 27.8386C40.9805 28.3421 41.8888 28.1749 42.4108 27.7581C42.8609 27.3989 43.1115 26.8928 43.3266 26.3967C43.455 27.0932 44.4318 28.4581 45.4596 28.1376C45.6874 28.0663 45.823 27.8631 45.9159 27.6681C46.4747 26.4939 46.0979 25.297 45.4377 24.2408C45.3008 24.0209 43.2444 21.6167 43.4065 21.5205C42.3419 22.6607 42.7371 22.5164 41.2234 23.9622C40.7396 24.4243 40.1183 25.4849 40.0396 26.3174Z" fill="#C10230"/>
<path d="M114.334 27.065C113.855 26.6737 113.513 26.2088 113.51 25.6883C113.506 24.9989 114.29 24.5461 114.981 24.5187C115.576 24.4953 116.136 24.7045 116.662 24.929C116.236 24.3415 115.927 22.7321 116.913 22.3151C117.132 22.223 117.382 22.2846 117.595 22.3679C118.877 22.8676 119.497 23.9755 119.806 25.1606C119.87 25.4069 120.171 28.4539 120.36 28.4216C118.736 28.266 119.131 28.1213 116.952 28.028C116.255 27.998 115.012 27.6204 114.334 27.065Z" fill="#C10230"/>
<path d="M56.2451 39.7557C56.1174 40.3329 55.8523 40.8387 55.3649 41.1024C54.7192 41.4521 53.8998 41.0548 53.5274 40.5187C53.2065 40.057 53.1219 39.5062 53.0686 38.9744C52.7308 39.6088 51.3737 40.6628 50.4868 40.087C50.2904 39.9594 50.2229 39.7291 50.1938 39.5182C50.0196 38.2461 50.7496 37.1965 51.7077 36.3557C51.9069 36.1809 54.6191 34.4119 54.4937 34.2774C55.1633 35.6486 54.8287 35.4069 55.8351 37.1883C56.1569 37.7579 56.426 38.9368 56.2451 39.7557Z" fill="#C10230"/>
<path d="M58.9826 19.5029C58.834 20.0759 58.5505 20.5727 58.0537 20.8214C57.3958 21.151 56.5913 20.7287 56.2386 20.1815C55.9349 19.7099 55.8704 19.1568 55.8365 18.6237C55.4759 19.2471 54.0811 20.2583 53.2156 19.656C53.0237 19.5222 52.9648 19.29 52.9436 19.0782C52.8159 17.8013 53.5838 16.7749 54.572 15.9643C54.7776 15.796 57.5526 14.1115 57.4321 13.9731C58.0512 15.3643 57.7258 15.1127 58.6665 16.9239C58.9675 17.5034 59.1935 18.6899 58.9826 19.5029Z" fill="#C10230"/>
<path d="M136.684 42.9411C136.804 42.3626 137.063 41.8542 137.547 41.5852C138.189 41.2287 139.013 41.6173 139.392 42.1493C139.719 42.6075 139.81 43.1574 139.87 43.6887C140.2 43.0504 141.544 41.9823 142.438 42.5481C142.636 42.6737 142.706 42.9033 142.738 43.1141C142.928 44.384 142.211 45.4414 141.264 46.2926C141.093 46.446 139.044 47.8208 138.589 48.2685C138.54 48.317 138.452 48.2948 138.422 48.2339C137.844 47.0532 138.111 47.1989 137.126 45.504C136.797 44.938 136.513 43.762 136.684 42.9411Z" fill="#C10230"/>
<path d="M20.4609 82.6953H20.4677L20.4913 82.6483C20.4831 82.622 20.4751 82.5968 20.4672 82.5716C20.4652 82.6133 20.4629 82.6543 20.4609 82.6953Z" fill="#F88D2A"/>
<path d="M20.6588 80.1128C20.5851 80.7497 20.5368 81.3979 20.5 82.0078C20.5391 82.0138 20.5737 82.0353 20.5931 82.0699C20.626 82.1274 20.6605 82.1826 20.6961 82.2383C20.8256 81.9844 20.9603 81.728 21.0984 81.4698C21.0282 81.0013 20.915 80.4542 20.6588 80.1128Z" fill="#F88D2A"/>
<path d="M28.3024 82.6953C28.3063 82.6209 28.3116 82.5464 28.3166 82.4719C28.3243 82.3569 28.3322 82.2419 28.3367 82.1264C28.3367 82.1159 28.3374 82.1047 28.3379 82.0937C28.2405 82.2724 28.138 82.4795 28.0332 82.6953H28.3024Z" fill="#F88D2A"/>
<path d="M34.8323 82.6953C34.8472 81.6673 34.892 80.7827 34.9714 79.9721C34.6642 80.9827 34.4305 81.8632 34.248 82.6953H34.8323Z" fill="#F88D2A"/>
<path d="M35.9058 82.232C35.8489 82.3869 35.7846 82.5404 35.7168 82.6953H35.907L35.9058 82.2847C35.9058 82.2671 35.9058 82.2497 35.9058 82.232Z" fill="#F88D2A"/>
<path d="M32.2922 82.1111L32.2561 82.1246V81.9791C32.2561 81.9475 32.2561 81.9152 32.2561 81.8836C32.1528 82.1012 32.0443 82.3129 31.9385 82.5205L31.8496 82.6953H32.3485L32.348 82.6912C32.3284 82.496 32.3088 82.3024 32.2922 82.1111Z" fill="#F88D2A"/>
<path d="M32.9554 82.6953H33.3913C33.2472 82.1716 33.0841 81.6162 32.8906 80.9886C32.9343 81.5035 32.9549 82.0614 32.9554 82.6953Z" fill="#F88D2A"/>
<path d="M37.4297 80.039C37.7538 80.5034 37.8511 81.2343 37.926 81.7956C37.9494 81.9745 37.9708 82.137 37.9967 82.2689C38.0186 82.3787 38.0358 82.4896 38.0525 82.5998L38.0674 82.6953H39.378C39.1657 82.0895 38.9157 81.5979 38.5976 81.1586C38.3828 80.8624 37.9108 80.321 37.4297 80.039Z" fill="#F88D2A"/>
<path d="M37.3555 81.6079C37.2947 81.764 37.2338 81.92 37.1725 82.0753L37.1151 82.2215C37.0714 82.3335 37.0285 82.4456 36.986 82.5576L36.9336 82.6953H37.3156C37.3138 82.6919 37.3121 82.6896 37.3099 82.6866L37.2373 82.5775L37.2408 82.5446C37.2748 82.2162 37.3126 81.9046 37.3555 81.6079Z" fill="#F88D2A"/>
<path d="M15.5304 80.6055L15.5273 80.6211C15.532 80.6202 15.5409 80.6211 15.549 80.6188L15.5304 80.6055Z" fill="#F88D2A"/>
<path d="M15.2278 81.6907C15.1874 81.8659 15.1558 82.005 15.1312 82.0737C15.0737 82.2343 15.0185 82.4073 14.958 82.6167L14.9355 82.6953H15.6664C15.6699 82.6291 15.6739 82.5588 15.6786 82.4848C15.7129 81.9204 15.7598 81.1632 15.5238 80.6954C15.4212 80.85 15.2878 81.4301 15.2278 81.6907Z" fill="#F88D2A"/>
<path d="M23.1348 80.8056C23.2428 81.3369 23.2814 81.9418 23.259 82.6953H23.8673L23.7591 82.3539C23.588 81.8151 23.3752 81.2876 23.1348 80.8056Z" fill="#F88D2A"/>
<path d="M25.6249 82.3418L25.5131 82.2449C25.3486 82.1005 25.2018 81.9896 25.0636 81.9072L25.0109 81.8749L25.0004 81.7938C24.8421 80.5522 24.5767 79.4389 24.1929 78.4079C24.2638 79.2478 24.1665 80.145 24.0722 81.0184C24.0363 81.3522 24.0007 81.6794 23.9766 81.9933L23.9258 82.6953H26.0732C26.1039 81.7165 26.1439 80.8131 26.1952 79.9622C26.0496 80.6143 25.8925 81.2553 25.7382 81.8806L25.6249 82.3418Z" fill="#F88D2A"/>
<path d="M30.7402 82.6953H31.4985C31.4609 81.7058 31.442 80.5955 31.5928 79.5088C31.2433 80.5222 30.963 81.5711 30.7402 82.6953Z" fill="#F88D2A"/>
<path d="M18.7715 80.8086C18.6135 81.1598 18.4495 81.5223 18.3539 81.8925C18.3013 82.0964 18.256 82.3024 18.2122 82.5084L18.1719 82.6953H19.0837C19.0847 81.8238 19.0824 80.9527 19.0772 80.0848C18.9876 80.3315 18.8788 80.5728 18.7715 80.8086Z" fill="#F88D2A"/>
<path d="M17.1414 81.9986L17.0496 82.5881L16.9326 82.0027C16.7203 80.9405 16.4026 79.9134 16.0614 78.8377C16.1811 80.2003 16.1303 81.5339 16.0566 82.6953H18.0049L18.0019 82.49C17.98 80.998 17.9843 79.4137 18.1401 77.8312C17.644 79.4611 17.3396 80.738 17.1414 81.9986Z" fill="#F88D2A"/>
<path d="M42.564 81.1316L42.6241 81.418L42.3706 81.1779C42.3087 81.1192 42.2552 81.0684 42.1956 81.0191C41.878 80.7504 41.1783 80.3458 40.5065 80.1251L40.4841 80.1157C40.1924 79.948 39.8573 79.8062 39.4857 79.693C40.031 80.2619 40.2695 80.842 40.4156 81.2913L40.56 81.7317L40.2187 81.3376C39.8165 80.8718 39.2888 80.5304 38.7695 80.3927C38.8382 80.4594 38.8974 80.5293 38.947 80.6003C39.0908 80.8154 39.2046 81.0384 39.2875 81.2631C39.4607 81.6771 39.5551 82.1035 39.6467 82.5159C39.6594 82.5757 39.6686 82.6337 39.6783 82.6923V82.6953H43.3703C43.0039 81.2666 42.5013 79.6994 41.5679 78.4583C42.0259 79.2378 42.3483 80.107 42.564 81.1316Z" fill="#F88D2A"/>
<path d="M61.9163 81.1898L61.7049 81.1932C61.5483 79.9569 61.2307 78.8625 60.7578 77.9334C60.8232 78.5726 60.7548 79.2543 60.6886 79.9169L60.6356 80.4834C60.6224 80.6447 60.6109 80.8044 60.6047 80.9598C60.5868 81.426 60.5556 81.8989 60.5258 82.3569L60.5039 82.6953H62.3703C62.2137 81.917 62.0671 81.1522 61.9778 80.3927C61.9583 80.6741 61.9364 80.9451 61.9163 81.1898Z" fill="#F88D2A"/>
<path d="M59.5659 81.2256L59.5107 81.0636C59.1953 80.1405 58.7987 79.2859 58.3071 78.4741C58.7027 79.3979 58.9979 80.3955 59.22 81.5475L59.2286 81.5914L59.1983 81.626C59.0768 81.7628 58.9593 81.9012 58.8476 82.0426L58.7739 82.1351L58.6865 82.0538C58.5282 81.9058 58.3492 81.7569 58.1685 81.6226L58.1272 81.5921L58.1294 81.5429C58.16 80.9075 58.2008 80.3228 58.2526 79.7702C58.1028 80.2014 57.94 80.6244 57.7811 81.0372L57.6816 81.2959L57.5701 81.2327C57.4088 81.1428 57.2575 81.07 57.121 81.0173L57.068 80.9962L57.0578 80.9447C56.899 80.1492 56.6337 79.4371 56.2503 78.7779C56.3205 79.3157 56.2239 79.89 56.1294 80.4489C56.0937 80.6624 56.0581 80.8713 56.0338 81.0718L55.9678 81.6554L55.8169 81.1797C55.6454 80.639 55.4318 80.1104 55.1914 79.6291C55.3626 80.4736 55.3398 81.374 55.2892 82.1663L55.2551 82.6953H59.9428C59.9262 82.6174 59.9107 82.5393 59.8945 82.4618C59.8485 82.2403 59.8014 82.0114 59.7397 81.7956L59.7305 81.7633L59.7444 81.7328C59.952 81.2824 60.1853 80.8436 60.4379 80.4285L60.4758 80.3668C60.1795 80.6273 59.9216 80.8688 59.6901 81.1007L59.5659 81.2256Z" fill="#F88D2A"/>
<path d="M62.5898 82.6953H63.6045L63.5878 82.3122C63.5298 80.9955 63.4693 79.6401 63.6522 78.3357C63.1802 79.701 62.8315 81.1339 62.5898 82.6953Z" fill="#F88D2A"/>
<path d="M52.752 81.2777L52.7109 81.2909C52.7119 81.2933 52.7129 81.2965 52.7137 81.2988L52.752 81.2777Z" fill="#F88D2A"/>
<path d="M54.0854 79.9844C53.8719 79.6905 53.3982 79.1468 52.916 78.8648C53.1819 79.2412 53.2946 79.7915 53.3688 80.3006L53.3728 80.3293L53.3665 80.3416L53.4596 80.9511C53.4679 81.0015 53.4766 81.05 53.4851 81.094C53.5881 81.6144 53.6623 82.131 53.7153 82.5223L53.7389 82.6953H55.2106L55.0804 82.1828C54.8623 81.3282 54.5372 80.609 54.0854 79.9844Z" fill="#F88D2A"/>
<path d="M47.5853 80.7368C47.5214 81.1575 47.4213 81.5722 47.324 81.9764C47.2665 82.2156 47.209 82.4543 47.1582 82.6953H47.8288L47.8236 82.6589C47.7292 82.0137 47.6407 81.3779 47.5853 80.7368Z" fill="#F88D2A"/>
<path d="M53.1805 82.0572L53.1615 82.0302L53.1794 81.7768C53.1984 81.5071 53.2181 81.2285 53.2489 80.9545L53.3054 80.4548C53.1518 80.7439 53.0027 81.0301 52.8588 81.314L52.7747 81.4801L52.7655 81.4666L52.773 81.4895L52.6729 81.69C52.6067 81.8219 52.5405 81.9534 52.479 82.0847L52.2493 82.5757L52.2759 82.0419C52.3347 80.8507 52.3939 79.7769 52.5303 78.6964L52.5537 78.5069L52.5549 78.5076C52.5654 78.4324 52.5756 78.3591 52.586 78.2876C52.5136 78.4723 52.4409 78.6565 52.3685 78.8407C52.0053 79.7615 51.6302 80.7142 51.3492 81.6696L51.1398 82.3828L51.1408 81.6444C51.1421 80.7323 51.1398 79.8202 51.1341 78.911C51.0442 79.158 50.9355 79.3984 50.8289 79.6344C50.6701 79.9856 50.506 80.3487 50.4104 80.7181C50.3582 80.9222 50.3131 81.1282 50.2696 81.3346L50.0732 82.252L50.0595 81.3165C50.0376 79.8243 50.0415 78.2395 50.1976 76.657C49.7015 78.2881 49.3971 79.5638 49.199 80.8248L49.1068 81.4139L48.9901 80.8285C48.7778 79.7656 48.4599 78.7392 48.1186 77.6628C48.269 79.3791 48.1562 81.1252 48.0348 82.6532L48.0312 82.6953H53.58L53.515 82.5798C53.4125 82.3968 53.2934 82.2215 53.1805 82.0572Z" fill="#F88D2A"/>
<path d="M69.2031 82.6953H70.1813C70.5005 81.8384 70.8746 81.0583 71.2965 80.3714C70.3578 81.1997 69.6983 81.9317 69.2031 82.6953Z" fill="#F88D2A"/>
<path d="M29.8605 82.364L29.6495 82.3681C29.4934 81.1305 29.1752 80.0355 28.7021 79.1069C28.7678 79.7434 28.6999 80.4237 28.6336 81.086L28.5806 81.6579C28.5669 81.8192 28.5552 81.9786 28.5495 82.1335C28.545 82.2501 28.5375 82.3675 28.5293 82.4843C28.5244 82.5546 28.5196 82.625 28.5156 82.6953H28.5166H30.0965C30.0345 82.3434 29.9716 81.9564 29.9233 81.5568C29.9031 81.8419 29.8812 82.1163 29.8605 82.364Z" fill="#F88D2A"/>
<path d="M27.5076 82.2325L27.4523 81.9798C27.1369 80.5375 26.7412 79.202 26.25 77.9334C26.6421 79.3668 26.9355 80.9135 27.1571 82.6953H27.7961C27.8538 82.5065 27.9073 82.3487 27.9626 82.1791C28.0042 82.0513 28.0477 81.9083 28.0883 81.7899C28.1866 81.5012 28.2832 81.2354 28.38 80.9873L28.4181 80.8894C28.1229 81.2959 27.8645 81.6737 27.632 82.0378L27.5076 82.2325Z" fill="#F88D2A"/>
<path d="M20.8594 80.0378C20.8723 80.0559 20.8808 80.0795 20.8932 80.0988C20.9174 80.1363 20.9375 80.1774 20.9592 80.2179C21.0028 80.2999 21.0426 80.3849 21.0767 80.4766C21.0941 80.5229 21.111 80.568 21.1262 80.6161C21.1575 80.7153 21.1847 80.8161 21.2083 80.9192C21.2181 80.9616 21.2292 81.0019 21.238 81.0448C21.2673 81.188 21.2925 81.3323 21.3134 81.4741L21.3174 81.5042L21.3099 81.5181L21.4038 82.1253C21.4117 82.1757 21.4204 82.2245 21.4289 82.2685C21.4503 82.3746 21.4657 82.4806 21.4819 82.5874C21.4871 82.6231 21.4923 82.6589 21.4981 82.6953H22.8228C22.6192 82.1177 22.3591 81.6139 22.0293 81.1586C21.8157 80.8647 21.342 80.3205 20.8594 80.0378Z" fill="#F88D2A"/>
<path d="M20.5285 79.4607C20.459 79.6396 20.3886 79.8183 20.3184 79.9961C19.9719 80.8759 19.6147 81.7839 19.3379 82.6953H20.2477C20.2602 82.4536 20.2788 82.1862 20.2945 81.9282C20.3064 81.7328 20.3152 81.5511 20.3298 81.35C20.3657 80.8619 20.411 80.3622 20.4727 79.8701L20.4964 79.6811L20.4981 79.6822C20.5078 79.6066 20.5182 79.5333 20.5285 79.4607Z" fill="#F88D2A"/>
<path d="M20.7196 82.6536L20.7091 82.6378L20.7086 82.6373L20.7161 82.6637L20.7012 82.6953H21.1455L21.148 82.6614C21.1599 82.4836 21.1726 82.3058 21.1928 82.1287L21.2495 81.632L21.2498 81.6297C21.0954 81.9177 20.9464 82.205 20.8032 82.4889L20.7196 82.6536Z" fill="#F88D2A"/>
<path d="M69.2155 80.9394L69.1728 81.0473C68.9447 81.6249 68.7427 82.1656 68.5547 82.6953H69.1932L69.1989 82.605C69.2123 82.3757 69.227 82.1464 69.2467 81.9182L69.3022 81.2695L69.3073 81.2899C69.3391 80.9909 69.3748 80.7064 69.4143 80.433C69.3487 80.6021 69.2818 80.771 69.2155 80.9394Z" fill="#F88D2A"/>
<path d="M45.755 81.232L45.6634 81.6396L45.5454 81.2349C45.3871 80.6924 45.238 80.1586 45.1477 79.6291C45.1282 79.8231 45.1064 80.0101 45.0862 80.1792L44.8751 80.1815C44.7186 79.3287 44.4007 78.5738 43.9277 77.9334C43.9934 78.3726 43.9247 78.843 43.8585 79.2998C43.8217 79.5521 43.7874 79.7897 43.7746 80.0195C43.7659 80.1739 43.7567 80.3645 43.747 80.5744C43.7141 81.2466 43.6698 82.1564 43.6094 82.6953H46.8095L46.8117 82.5546C46.8272 82.0284 46.7916 81.4794 46.7569 80.9481C46.6982 80.0419 46.6385 79.1088 46.8202 78.2106C46.346 79.158 45.9963 80.1503 45.755 81.232Z" fill="#F88D2A"/>
<path d="M64.9964 82.6953H65.7547C65.545 81.7294 65.2583 80.7886 64.9492 79.8089C65.0251 80.6695 65.0403 81.605 64.9964 82.6953Z" fill="#F88D2A"/>
<path d="M67.6593 81.7809C67.5249 82.0783 67.3872 82.3844 67.291 82.6953H67.9665V82.5352C67.9658 82.0419 67.9652 81.5486 67.9633 81.0567C67.8734 81.303 67.7651 81.544 67.6593 81.7809Z" fill="#F88D2A"/>
<path d="M66.8836 82.6953C66.8766 81.5245 66.8919 80.1815 67.0276 78.7997C66.5758 80.2894 66.2769 81.5177 66.0781 82.6953H66.8836Z" fill="#F88D2A"/>
<path d="M40.0454 38.6652C39.9902 39.2519 40.0888 39.8059 40.4749 40.1862C40.9864 40.6898 41.8947 40.5228 42.4167 40.1058C42.8667 39.7465 43.1174 39.2404 43.3324 38.7444C43.4609 39.4409 44.4377 40.8058 45.4655 40.4852C45.6932 40.414 45.8289 40.2107 45.9217 40.0158C46.4806 38.8418 46.1037 37.6447 45.4435 36.5883C45.3067 36.3687 43.2503 33.9646 43.4123 33.8682C42.3477 35.0085 42.743 34.8641 41.2293 36.3099C40.7454 36.7722 40.1241 37.8325 40.0454 38.6652Z" fill="#F88D2A"/>
<path d="M17.3692 41.4405C17.8807 41.7985 18.4443 42.0191 19.0016 41.9226C19.7399 41.795 20.072 40.9993 19.967 40.3697C19.8766 39.8271 19.544 39.3607 19.2018 38.9274C19.9127 39.2012 21.6939 39.1735 21.9486 38.2025C22.0051 37.9871 21.8901 37.7727 21.7599 37.596C20.9765 36.5316 19.671 36.1826 18.3435 36.1293C18.0677 36.118 14.7503 36.4274 14.748 36.2497C15.23 37.689 15.3081 37.3044 15.8311 39.2569C15.9984 39.881 16.6436 40.9328 17.3692 41.4405Z" fill="#F88D2A"/>
<path d="M8.80838 25.4123C9.34328 25.7359 9.91979 25.9189 10.4667 25.7867C11.191 25.6115 11.4626 24.7965 11.312 24.1755C11.1821 23.6406 10.8171 23.1971 10.4447 22.7871C11.1719 23.0141 12.9404 22.871 13.1219 21.8857C13.1622 21.6675 13.0323 21.4616 12.89 21.2938C12.0324 20.2832 10.7089 20.0205 9.38534 20.0533C9.11056 20.0604 5.8355 20.5847 5.82031 20.4076C6.40528 21.8112 6.45481 21.4223 7.11842 23.335C7.33075 23.9467 8.04962 24.9534 8.80838 25.4123Z" fill="#F88D2A"/>
<path d="M18.8445 24.5167C19.1893 25.0128 19.6346 25.3968 20.1924 25.4813C20.9315 25.5935 21.5406 24.9513 21.6785 24.328C21.7972 23.7908 21.6606 23.2488 21.5025 22.735C22.0656 23.2154 23.744 23.7485 24.3462 22.9174C24.4799 22.7333 24.4527 22.4963 24.397 22.2898C24.0621 21.0452 22.9706 20.308 21.7477 19.8411C21.4935 19.7443 18.2715 18.9924 18.336 18.8252C18.2476 20.3261 18.4649 19.9901 18.2227 21.9854C18.1453 22.6236 18.3554 23.8125 18.8445 24.5167Z" fill="#F88D2A"/>
<path d="M30.7249 30.0322C30.8735 30.6049 31.1571 31.1024 31.6537 31.3509C32.3118 31.6801 33.1164 31.2579 33.4691 30.7106C33.7728 30.239 33.8369 29.6862 33.8711 29.1528C34.2318 29.7767 35.6264 30.788 36.4919 30.1852C36.6836 30.0516 36.7426 29.8193 36.764 29.6073C36.8917 28.331 36.1238 27.3046 35.1353 26.4937C34.93 26.3251 32.155 24.6411 32.2755 24.5025C31.6564 25.8937 31.9817 25.6419 31.0408 27.4535C30.7402 28.0327 30.5141 29.2192 30.7249 30.0322Z" fill="#F88D2A"/>
<path d="M40.0923 14.8097C40.0371 15.3962 40.1356 15.9505 40.5217 16.3305C41.0333 16.8344 41.9416 16.6672 42.4638 16.2502C42.9136 15.8912 43.1642 15.3851 43.3793 14.8888C43.5078 15.5856 44.4845 16.9505 45.5123 16.6297C45.7401 16.5587 45.8758 16.3552 45.9686 16.1604C46.5274 14.9862 46.1505 13.7891 45.4907 12.7328C45.3535 12.5134 43.2974 10.1092 43.4592 10.013C42.3948 11.1532 42.7899 11.0089 41.2762 12.4547C40.7923 12.9169 40.1709 13.9774 40.0923 14.8097Z" fill="#F88D2A"/>
<path d="M27.0629 7.86064C27.2115 8.43309 27.495 8.93047 27.9916 9.17916C28.6497 9.5082 29.4542 9.0859 29.8067 8.53866C30.1106 8.06768 30.1749 7.51458 30.209 6.98142C30.5696 7.6049 31.9644 8.61609 32.8299 8.01372C33.0215 7.87999 33.0805 7.64773 33.1019 7.4354C33.2296 6.15911 32.4617 5.13268 31.4732 4.32209C31.2679 4.15317 28.4926 2.46924 28.6134 2.33082C27.9943 3.72207 28.3196 3.46986 27.3787 5.28166C27.078 5.86115 26.852 7.04771 27.0629 7.86064Z" fill="#F88D2A"/>
<path d="M96.8713 29.9199C96.9625 29.3368 97.195 28.8179 97.6647 28.5283C98.2873 28.1445 99.1303 28.4971 99.5363 29.0122C99.8861 29.4559 100.005 30.0012 100.093 30.5291C100.389 29.8777 101.677 28.7526 102.599 29.2795C102.803 29.3964 102.885 29.6228 102.928 29.8319C103.183 31.0923 102.52 32.1792 101.617 33.0702C101.429 33.2553 98.834 35.1673 98.9678 35.2949C98.2121 33.9619 98.5613 34.1851 97.4436 32.461C97.0867 31.9098 96.7426 30.747 96.8713 29.9199Z" fill="#F88D2A"/>
<path d="M141.53 20.6336C141.938 20.1796 142.431 19.8488 142.997 19.8277C143.745 19.7996 144.264 20.5058 144.318 21.1398C144.364 21.6864 144.156 22.209 143.931 22.7011C144.554 22.2882 146.291 21.948 146.778 22.8401C146.886 23.0384 146.827 23.2707 146.745 23.4695C146.247 24.6664 145.065 25.2752 143.789 25.601C143.524 25.6686 140.227 26.0514 140.268 26.2246C140.38 24.7248 140.552 25.083 140.576 23.0753C140.585 22.4337 140.951 21.277 141.53 20.6336Z" fill="#F88D2A"/>
<path d="M55.9865 30.0322C55.8379 30.6049 55.5544 31.1024 55.0576 31.3509C54.3997 31.6801 53.5952 31.2579 53.2425 30.7106C52.9388 30.239 52.8743 29.6862 52.8404 29.1528C52.4798 29.7767 51.085 30.788 50.2195 30.1852C50.0277 30.0516 49.9687 29.8193 49.9475 29.6073C49.8198 28.331 50.5877 27.3046 51.5759 26.4937C51.7813 26.3251 54.5565 24.6411 54.436 24.5025C55.0551 25.8937 54.7298 25.6419 55.6707 27.4535C55.9714 28.0327 56.1974 29.2192 55.9865 30.0322Z" fill="#F88D2A"/>
<path d="M69.3405 41.4405C68.8288 41.7985 68.2649 42.0191 67.7079 41.9226C66.9693 41.795 66.6374 40.9993 66.7425 40.3697C66.833 39.8271 67.1656 39.3607 67.5078 38.9274C66.7967 39.2012 65.0156 39.1735 64.7607 38.2025C64.7046 37.9871 64.8193 37.7727 64.9493 37.596C65.7331 36.5316 67.0388 36.1826 68.3662 36.1293C68.6421 36.118 71.9596 36.4274 71.9615 36.2497C71.4797 37.689 71.4013 37.3044 70.8782 39.2569C70.7112 39.881 70.0657 40.9328 69.3405 41.4405Z" fill="#F88D2A"/>
<path d="M81.9687 12.6773C82.3644 12.2146 82.8481 11.872 83.412 11.838C84.1595 11.7922 84.698 12.4861 84.7694 13.1184C84.8312 13.6639 84.6381 14.1912 84.4265 14.6885C85.0376 14.261 86.7639 13.8797 87.2756 14.7607C87.3891 14.956 87.3374 15.1894 87.2603 15.39C86.7958 16.5989 85.6315 17.2347 84.3647 17.5907C84.1015 17.664 80.8153 18.1244 80.8618 18.2969C80.9326 16.7948 81.1135 17.149 81.0829 15.1413C81.0734 14.4991 81.4079 13.3342 81.9687 12.6773Z" fill="#F88D2A"/>
<path d="M67.8677 24.5167C67.5229 25.0128 67.0781 25.3968 66.5199 25.4813C65.7807 25.5935 65.1715 24.9513 65.0339 24.328C64.9153 23.7908 65.0517 23.2488 65.2097 22.735C64.6471 23.2154 62.9684 23.7485 62.3662 22.9174C62.2326 22.7333 62.2597 22.4963 62.3155 22.2898C62.6503 21.0452 63.7418 20.308 64.9644 19.8411C65.2187 19.7443 68.4412 18.9924 68.3762 18.8252C68.4647 20.3261 68.2474 19.9901 68.4896 21.9854C68.5667 22.6236 68.3571 23.8125 67.8677 24.5167Z" fill="#F88D2A"/>
<path d="M59.6487 7.86064C59.5001 8.43309 59.2166 8.93047 58.72 9.17916C58.0618 9.5082 57.2573 9.0859 56.9046 8.53866C56.6009 8.06768 56.5364 7.51458 56.5023 6.98142C56.1419 7.6049 54.7471 8.61609 53.8817 8.01372C53.6897 7.87999 53.6308 7.64773 53.6096 7.4354C53.4819 6.15911 54.2498 5.13268 55.238 4.32209C55.4436 4.15317 58.2186 2.46924 58.0981 2.33082C58.7172 3.72207 58.3918 3.46986 59.3325 5.28166C59.6335 5.86115 59.8595 7.04771 59.6487 7.86064Z" fill="#F88D2A"/>
<path d="M60.9514 82.6953H60.9462L60.9277 82.6747C60.934 82.6632 60.9404 82.6517 60.9466 82.6408C60.9482 82.6591 60.9499 82.677 60.9514 82.6953Z" fill="#F88D2A"/>
<path d="M60.7601 81.2381C60.8339 81.5976 60.8821 81.963 60.9189 82.3074C60.8799 82.3108 60.8453 82.3232 60.8256 82.3424C60.793 82.3747 60.7584 82.4059 60.7225 82.4375C60.5931 82.2938 60.4585 82.1495 60.3203 82.004C60.3905 81.7396 60.504 81.431 60.7601 81.2381Z" fill="#F88D2A"/>
<path d="M53.1137 82.6953C53.1097 82.6532 53.1044 82.6115 53.0992 82.5693C53.0918 82.5042 53.0838 82.4396 53.0791 82.3746C53.0791 82.3686 53.0786 82.3622 53.0781 82.3558C53.1752 82.4566 53.278 82.5739 53.3826 82.6953H53.1137Z" fill="#F88D2A"/>
<path d="M46.5847 82.6953C46.5698 82.1152 46.5247 81.6162 46.4453 81.1593C46.7528 81.7294 46.9865 82.2261 47.169 82.6953H46.5847Z" fill="#F88D2A"/>
<path d="M45.5129 82.4337C45.5698 82.5212 45.6341 82.608 45.7017 82.6953H45.5117L45.5129 82.4637C45.5129 82.4536 45.5129 82.4437 45.5129 82.4337Z" fill="#F88D2A"/>
<path d="M49.1245 82.3656L49.1607 82.3734V82.2912C49.1607 82.2737 49.1607 82.2554 49.1607 82.2373C49.2641 82.3599 49.3726 82.4795 49.4781 82.5968L49.5673 82.6953H49.0684L49.0689 82.693C49.0885 82.5828 49.1078 82.4738 49.1245 82.3656Z" fill="#F88D2A"/>
<path d="M48.4612 82.6953H48.0254C48.1697 82.3998 48.3326 82.0866 48.5263 81.7323C48.4826 82.0231 48.462 82.3377 48.4612 82.6953Z" fill="#F88D2A"/>
<path d="M43.9872 81.1967C43.6633 81.459 43.566 81.8712 43.4911 82.1881C43.4674 82.2884 43.4463 82.3803 43.4203 82.455C43.3985 82.5164 43.3813 82.5792 43.3646 82.6415L43.3497 82.6953H42.0391C42.2515 82.3535 42.5011 82.0765 42.8195 81.8286C43.034 81.6613 43.506 81.3557 43.9872 81.1967Z" fill="#F88D2A"/>
<path d="M44.0605 82.0817C44.1214 82.1697 44.1825 82.2577 44.2439 82.3457L44.3012 82.4279C44.3449 82.4912 44.3879 82.5539 44.4303 82.6174L44.4828 82.6953H44.1008C44.1025 82.6937 44.1043 82.6919 44.1065 82.6907L44.1787 82.6291L44.1756 82.6103C44.1415 82.425 44.1038 82.2497 44.0605 82.0817Z" fill="#F88D2A"/>
<path d="M65.8817 81.5166L65.8852 81.5254C65.8807 81.5248 65.8712 81.5254 65.8633 81.5243L65.8817 81.5166Z" fill="#F88D2A"/>
<path d="M66.1898 82.1287C66.2299 82.2279 66.2618 82.3058 66.2867 82.3445C66.344 82.4355 66.3994 82.5329 66.46 82.6509L66.4823 82.6953H65.7514C65.7475 82.6577 65.7437 82.6179 65.7393 82.5769C65.7049 82.2584 65.6583 81.8313 65.8941 81.5669C65.9967 81.6542 66.1299 81.9816 66.1898 82.1287Z" fill="#F88D2A"/>
<path d="M58.2834 81.6297C58.1751 81.9294 58.1368 82.2701 58.1592 82.6953H57.5508L57.6591 82.5029C57.8298 82.1986 58.0429 81.9012 58.2834 81.6297Z" fill="#F88D2A"/>
<path d="M55.7929 82.5675L55.9044 82.5329C56.0692 82.4806 56.2159 82.4408 56.354 82.411L56.407 82.3991L56.4175 82.3697C56.5755 81.9218 56.8409 81.52 57.225 81.1481C57.1541 81.4508 57.2514 81.7752 57.3457 82.09C57.3813 82.211 57.4171 82.3287 57.4413 82.4419L57.4918 82.6953H55.3446C55.314 82.3422 55.2737 82.0162 55.2227 81.7087C55.3683 81.9445 55.5253 82.1757 55.6797 82.4016L55.7929 82.5675Z" fill="#F88D2A"/>
<path d="M50.6765 82.6953H49.9186C49.9561 82.137 49.9751 81.5106 49.8242 80.8977C50.1737 81.4696 50.454 82.0614 50.6765 82.6953Z" fill="#F88D2A"/>
<path d="M62.6462 81.6308C62.8045 81.829 62.9686 82.0339 63.0641 82.2426C63.1164 82.3576 63.162 82.4738 63.2057 82.5897L63.2458 82.6953H62.3343C62.333 82.2039 62.3355 81.7124 62.3405 81.2226C62.4303 81.3621 62.5392 81.4977 62.6462 81.6308Z" fill="#F88D2A"/>
<path d="M64.2758 82.3024L64.3682 82.6344L64.4848 82.3047C64.697 81.7053 65.015 81.1263 65.3559 80.5194C65.2361 81.2876 65.2871 82.0403 65.361 82.6953H63.4125L63.4155 82.5798C63.4372 81.7381 63.4332 80.8443 63.2773 79.9517C63.7735 80.8713 64.0779 81.591 64.2758 82.3024Z" fill="#F88D2A"/>
<path d="M38.8531 81.4162L38.7934 81.6501L39.0465 81.4542C39.1088 81.4061 39.1623 81.3646 39.2215 81.3234C39.5394 81.1041 40.2391 80.7733 40.9107 80.5927L40.9334 80.5849C41.2251 80.4477 41.5599 80.3315 41.9318 80.239C41.3861 80.7041 41.1479 81.1793 41.0018 81.547L40.8572 81.9065L41.1985 81.5846C41.6009 81.2033 42.1286 80.924 42.6477 80.8113C42.5792 80.8661 42.52 80.9233 42.4705 80.9815C42.3266 81.1575 42.2126 81.3399 42.1299 81.5234C41.9564 81.8625 41.8621 82.2114 41.7707 82.5487C41.758 82.5975 41.7488 82.6449 41.7388 82.693V82.6953H38.0469C38.4135 81.5264 38.9161 80.2443 39.8496 79.2291C39.3913 79.8664 39.0692 80.5774 38.8531 81.4162Z" fill="#F88D2A"/>
<path d="M19.5009 81.846L19.712 81.8485C19.8685 81.1504 20.1862 80.5327 20.6593 80.009C20.5939 80.3698 20.6623 80.754 20.7283 81.1282L20.7813 81.4478C20.7945 81.5387 20.8062 81.629 20.8125 81.7165C20.8304 81.9791 20.8615 82.246 20.8914 82.5042L20.9133 82.6953H19.0469C19.2032 82.2561 19.35 81.8249 19.4392 81.3962C19.4588 81.5552 19.4807 81.7083 19.5009 81.846Z" fill="#F88D2A"/>
<path d="M21.8534 81.8659L21.9086 81.7752C22.2241 81.2542 22.6206 80.7721 23.1119 80.3141C22.7167 80.8349 22.4214 81.3978 22.1992 82.0478L22.1907 82.0724L22.2211 82.0923C22.3425 82.1693 22.4601 82.2472 22.5716 82.3271L22.6452 82.3791L22.7329 82.3335C22.8909 82.2501 23.0701 82.1663 23.2509 82.09L23.2922 82.073L23.2899 82.0449C23.2593 81.6865 23.2185 81.3568 23.1667 81.0455C23.3163 81.2883 23.4794 81.5271 23.6382 81.7598L23.7377 81.9058L23.8492 81.87C24.0106 81.8196 24.1619 81.7786 24.2983 81.7486L24.3511 81.7369L24.3616 81.7076C24.5204 81.259 24.7857 80.8571 25.169 80.4853C25.0989 80.7886 25.1954 81.1128 25.2898 81.4285C25.3256 81.5486 25.3612 81.6666 25.3854 81.7791L25.4516 82.1088L25.6024 81.8403C25.7739 81.5353 25.9875 81.2372 26.228 80.9657C26.0564 81.4418 26.0796 81.9498 26.1301 82.3968L26.1643 82.6953H21.4763C21.493 82.6513 21.5087 82.6073 21.5248 82.5633C21.5709 82.4385 21.6179 82.3095 21.6797 82.1881L21.6886 82.1697L21.6749 82.1523C21.4671 81.8982 21.2341 81.6508 20.9815 81.4166L20.9434 81.3816C21.2398 81.5287 21.4977 81.6648 21.7289 81.7956L21.8534 81.8659Z" fill="#F88D2A"/>
<path d="M18.8283 82.6953H17.8134L17.8301 82.4795C17.8884 81.7365 17.9488 80.9722 17.7656 80.236C18.2376 81.0061 18.5863 81.8144 18.8283 82.6953Z" fill="#F88D2A"/>
<path d="M28.6562 81.8962L28.6971 81.9035C28.6963 81.905 28.6953 81.9068 28.6944 81.9082L28.6562 81.8962Z" fill="#F88D2A"/>
<path d="M27.3321 81.1662C27.5457 81.0003 28.0194 80.6935 28.5016 80.5345C28.2357 80.7469 28.123 81.0572 28.0485 81.3447L28.0446 81.361L28.051 81.3674L27.9577 81.7113C27.9497 81.7399 27.941 81.7669 27.9325 81.7921C27.8295 82.0859 27.7551 82.3768 27.7023 82.5979L27.6786 82.6953H26.207L26.337 82.4062C26.5553 81.9241 26.8803 81.5188 27.3321 81.1662Z" fill="#F88D2A"/>
<path d="M33.8333 81.5903C33.897 81.8279 33.9973 82.0618 34.0944 82.29C34.1521 82.4243 34.2096 82.5592 34.2602 82.6953H33.5898L33.5951 82.6749C33.6894 82.3106 33.778 81.9523 33.8333 81.5903Z" fill="#F88D2A"/>
<path d="M28.2371 82.3351L28.2563 82.3205L28.2384 82.1768C28.2195 82.0249 28.1998 81.8678 28.1687 81.7136L28.1124 81.4313C28.2661 81.5944 28.4151 81.7564 28.559 81.9163L28.6429 82.0098L28.6521 82.002L28.6446 82.0151L28.7449 82.1283C28.8109 82.2027 28.8771 82.2772 28.9388 82.351L29.1684 82.628L29.142 82.3271C29.0832 81.6549 29.024 81.0489 28.8876 80.4395L28.8639 80.3327L28.863 80.3334C28.8525 80.2905 28.8421 80.2495 28.8318 80.209C28.9042 80.3128 28.9767 80.4172 29.0494 80.521C29.4126 81.0402 29.7876 81.5775 30.0687 82.117L30.2781 82.5189L30.2768 82.1024C30.2758 81.588 30.2781 81.0736 30.2838 80.5604C30.3737 80.7 30.4824 80.8354 30.589 80.9687C30.7478 81.1669 30.9118 81.3715 31.0071 81.5804C31.0596 81.6952 31.1045 81.8114 31.1483 81.9276L31.3444 82.4449L31.3584 81.9177C31.3803 81.0759 31.3763 80.1822 31.2202 79.2888C31.7163 80.209 32.0207 80.9286 32.2189 81.6402L32.3107 81.9722L32.4277 81.6425C32.6401 81.0432 32.9577 80.4635 33.299 79.8566C33.1489 80.8248 33.2616 81.8098 33.3831 82.6713L33.3866 82.6953H27.8379L27.9028 82.6302C28.0054 82.5269 28.1244 82.4279 28.2371 82.3351Z" fill="#F88D2A"/>
<path d="M51.558 82.5084L51.7694 82.5106C51.9254 81.8125 52.2435 81.1951 52.7167 80.6713C52.651 81.0301 52.719 81.4139 52.7852 81.7873L52.8382 82.1099C52.8519 82.2009 52.8633 82.2912 52.869 82.378C52.8738 82.4444 52.8813 82.5106 52.8892 82.5762C52.8945 82.6156 52.8992 82.6554 52.9031 82.6953H52.9022H51.3223C51.3843 82.4971 51.447 82.2783 51.4953 82.0531C51.5154 82.2137 51.5373 82.3686 51.558 82.5084Z" fill="#F88D2A"/>
<path d="M53.9104 82.5283L53.9656 82.4373C54.2812 81.9163 54.677 81.4343 55.1679 80.9767C54.7761 81.4941 54.4826 82.0524 54.2608 82.6953H53.6221C53.5641 82.6273 53.5106 82.5704 53.4556 82.5088C53.414 82.463 53.3702 82.4114 53.3298 82.3686C53.2313 82.2643 53.135 82.1686 53.0379 82.079L53 82.0437C53.2952 82.1903 53.5536 82.3264 53.7861 82.4577L53.9104 82.5283Z" fill="#F88D2A"/>
<path d="M60.5595 81.1962C60.5465 81.2068 60.5381 81.2196 60.5256 81.2308C60.5015 81.2519 60.481 81.2748 60.4596 81.2977C60.4161 81.344 60.3763 81.3921 60.3422 81.4437C60.3247 81.4696 60.3078 81.4952 60.2926 81.5223C60.2613 81.5786 60.2341 81.635 60.2102 81.6936C60.2005 81.7177 60.1893 81.7399 60.1806 81.764C60.1515 81.8448 60.1264 81.9264 60.1054 82.0068L60.1014 82.0231L60.1089 82.0313L60.0151 82.3739C60.0071 82.402 59.9984 82.4295 59.9897 82.4543C59.9685 82.5141 59.9528 82.5746 59.9366 82.6344C59.9317 82.655 59.9264 82.6749 59.9207 82.6953H58.5957C58.7996 82.3693 59.0597 82.0854 59.3895 81.8286C59.6031 81.6625 60.0766 81.3557 60.5595 81.1962Z" fill="#F88D2A"/>
<path d="M60.8887 80.8707C60.9581 80.9715 61.0283 81.0725 61.0985 81.1726C61.445 81.6689 61.8025 82.181 62.0792 82.6953H61.1694C61.1568 82.5588 61.1383 82.408 61.1227 82.2625C61.1107 82.1523 61.102 82.0497 61.0873 81.9365C61.0515 81.6606 61.0062 81.3793 60.9444 81.1018L60.9208 80.9951L60.919 80.9955C60.9093 80.9534 60.8989 80.9117 60.8887 80.8707Z" fill="#F88D2A"/>
<path d="M60.698 82.6719L60.7086 82.663L60.7089 82.6625L60.7014 82.6772L60.7164 82.6953H60.2723L60.2698 82.6761C60.2578 82.5757 60.2451 82.4754 60.225 82.3757L60.1682 82.0953L60.168 82.0941C60.3223 82.2566 60.4714 82.4185 60.6145 82.5787L60.698 82.6719Z" fill="#F88D2A"/>
<path d="M12.632 81.7046L12.6745 81.7658C12.9025 82.0911 13.1052 82.3963 13.2926 82.6953H12.6544L12.6487 82.6442C12.635 82.5152 12.6205 82.3856 12.6009 82.2566L12.5451 81.8907L12.5406 81.9023C12.5083 81.7335 12.4727 81.5733 12.4336 81.4191C12.499 81.5147 12.5658 81.6098 12.632 81.7046Z" fill="#F88D2A"/>
<path d="M35.6611 81.4977L35.7527 81.832L35.8704 81.5005C36.0288 81.0567 36.1778 80.6202 36.2682 80.1867C36.2879 80.3458 36.3098 80.4981 36.3297 80.6367L36.5411 80.639C36.6976 79.9409 37.0152 79.3234 37.4884 78.7997C37.4227 79.1592 37.4912 79.5439 37.5574 79.9175C37.5942 80.1235 37.6288 80.3183 37.6415 80.5064C37.6502 80.6326 37.6594 80.7879 37.6692 80.9605C37.702 81.5099 37.7463 82.2543 37.8068 82.6953H34.6067L34.6044 82.5798C34.5888 82.1498 34.6246 81.7005 34.6589 81.2659C34.7177 80.5247 34.7777 79.7611 34.5957 79.0265C35.0699 79.8014 35.4199 80.6131 35.6611 81.4977Z" fill="#F88D2A"/>
<path d="M16.4225 82.6953H15.6641C15.8742 82.1505 16.1607 81.6196 16.4698 81.0672C16.3936 81.5527 16.3787 82.0801 16.4225 82.6953Z" fill="#F88D2A"/>
<path d="M13.7564 82.1798C13.8906 82.3471 14.028 82.52 14.1248 82.6953H13.4492V82.605C13.4497 82.3271 13.4502 82.0485 13.4525 81.7711C13.5423 81.9099 13.6506 82.046 13.7564 82.1798Z" fill="#F88D2A"/>
<path d="M14.5345 82.6953C14.542 82.035 14.5265 81.2771 14.3906 80.4977C14.8424 81.338 15.1419 82.0309 15.3403 82.6953H14.5345Z" fill="#F88D2A"/>
</g>
<defs>
<clipPath id="clip0_930_6940">
<rect width="234.771" height="83" fill="white" transform="translate(0.515625)"/>
</clipPath>
</defs>
</svg>
