<svg width="48" height="45" xmlns="http://www.w3.org/2000/svg" xmlns:xlink="http://www.w3.org/1999/xlink" xml:space="preserve" overflow="hidden"><g transform="translate(-197 -486)"><path d="M40.3125 11.2533 30 11.2533 30 8.4375C29.9985 7.1437 28.95 6.0953 27.6562 6.09375L19.2188 6.09375C17.925 6.0953 16.8765 7.1437 16.875 8.4375L16.875 11.2533 6.5625 11.2533C5.52834 11.2566 4.69083 12.0941 4.6875 13.1283L4.6875 35.6353C4.69083 36.6695 5.52834 37.507 6.5625 37.5103L40.3125 37.5103C41.3467 37.507 42.1842 36.6695 42.1875 35.6353L42.1875 13.1287C42.1844 12.0944 41.3468 11.2566 40.3125 11.2533ZM17.8125 8.4375C17.8125 7.66083 18.4421 7.03125 19.2188 7.03125L27.6562 7.03125C28.4329 7.03125 29.0625 7.66083 29.0625 8.4375L29.0625 11.25 17.8125 11.25ZM6.5625 12.1908 40.3125 12.1908C40.8303 12.1908 41.25 12.6105 41.25 13.1283L41.25 21.5625 26.7188 21.5625 26.7188 19.6875 20.1562 19.6875 20.1562 21.5625 5.625 21.5625 5.625 13.1287C5.62472 12.611 6.04425 12.1911 6.56203 12.1908 6.56217 12.1908 6.56236 12.1908 6.5625 12.1908ZM25.7812 20.625 25.7812 23.9062C25.7812 24.424 25.3615 24.8438 24.8438 24.8438L22.0312 24.8438C21.5135 24.8438 21.0938 24.424 21.0938 23.9062L21.0938 20.625ZM40.3125 36.5733 6.5625 36.5733C6.04472 36.5733 5.625 36.1536 5.625 35.6358L5.625 22.5 20.1562 22.5 20.1562 23.9062C20.1562 24.9418 20.9957 25.7812 22.0312 25.7812L24.8438 25.7812C25.8793 25.7812 26.7188 24.9418 26.7188 23.9062L26.7188 22.5 41.25 22.5 41.25 35.6353C41.2502 36.1531 40.8307 36.573 40.313 36.5733 40.3128 36.5733 40.3126 36.5733 40.3125 36.5733Z" transform="matrix(1.06667 0 0 1 197 486)"/></g></svg>