<?xml version="1.0" standalone="no"?>
<!DOCTYPE svg PUBLIC "-//W3C//DTD SVG 20010904//EN"
 "http://www.w3.org/TR/2001/REC-SVG-20010904/DTD/svg10.dtd">
<svg version="1.0" xmlns="http://www.w3.org/2000/svg"
 width="174.000000pt" height="174.000000pt" viewBox="0 0 174.000000 174.000000"
 preserveAspectRatio="xMidYMid meet">

<g transform="translate(0.000000,174.000000) scale(0.100000,-0.100000)"
fill="#000000" stroke="none">
<path d="M807 1543 c-63 -78 -103 -156 -123 -239 -29 -121 -7 -386 63 -777
l18 -99 -36 -31 c-19 -18 -44 -37 -54 -42 -16 -10 -17 -17 -7 -75 7 -35 15
-67 20 -72 4 -4 31 1 60 12 l53 20 -7 -50 -7 -50 30 0 c17 0 44 5 62 11 25 9
31 17 31 39 0 45 20 54 78 32 28 -11 55 -16 61 -12 6 3 16 35 23 70 10 58 9
65 -7 75 -10 5 -34 24 -54 41 l-35 31 37 229 c75 462 76 618 2 765 -36 70
-124 179 -145 179 -9 0 -38 -26 -63 -57z m92 -29 c30 -38 27 -44 -23 -44 -55
0 -65 14 -35 46 28 30 33 30 58 -2z m-3 -81 l62 5 26 -58 c14 -32 26 -61 26
-64 0 -18 -89 -46 -148 -46 -62 0 -132 22 -132 41 0 14 32 92 48 116 12 19 17
21 35 12 12 -7 46 -9 83 -6z m125 -388 c-11 -128 -41 -346 -62 -457 -11 -56
-13 -58 -53 -69 -26 -7 -54 -8 -75 -3 -42 11 -40 7 -75 234 -34 223 -50 390
-41 455 l6 53 37 -15 c53 -22 158 -20 212 4 l45 19 9 -45 c5 -28 4 -98 -3
-176z m-80 -579 c-20 -24 12 -89 62 -120 19 -13 27 -27 27 -47 0 -38 -10 -41
-64 -23 -41 14 -46 19 -46 45 0 16 -4 29 -9 29 -16 0 -31 -27 -32 -56 0 -79
-4 -99 -23 -102 -17 -4 -18 1 -12 40 15 102 16 156 2 167 -19 16 -32 -5 -35
-59 -1 -25 -6 -48 -9 -51 -13 -12 -74 -29 -83 -23 -21 13 -8 56 27 87 39 33
67 87 59 109 -4 10 13 13 70 15 59 1 74 -2 66 -11z"/>
</g>
</svg>
