<svg width="53" height="53" viewBox="0 0 53 53" fill="none" xmlns="http://www.w3.org/2000/svg">
<path d="M17.3438 36.1113C17.3124 36.0878 17.1554 24.6299 11.1753 24.779L10.8065 24.7633H10.7908L10.7437 24.6064C10.2336 23.3585 10.5161 23.7274 10.6181 23.6411L11.4108 22.8563L11.3872 20.6196L11.5128 20.2586C11.5363 20.188 11.5756 20.1252 11.6148 20.0624C11.6776 19.9526 11.7247 19.8741 11.7011 19.827C11.6619 19.7485 11.4657 19.5602 10.3827 19.3483C9.88829 19.2541 9.42527 19.207 9.00149 19.207C8.00481 19.2149 7.55748 19.5053 7.54963 19.5053C7.25142 19.7093 7.08661 19.9997 7.04737 20.3999C6.94535 21.6556 8.18531 23.492 8.63264 23.9C8.9387 24.1747 8.83668 23.8608 8.72681 24.3866L8.2167 24.6299L6.58435 24.575C0.659222 20.3921 2.15031 17.0332 0.776939 16.0836C0.619982 15.9737 0.776937 16.0836 0.714154 16.0208C0.51011 15.8325 0.321764 15.7383 0.164807 15.7383C0.0863286 15.7383 0.0313914 15.7697 0 15.7854C0.635676 22.1578 2.84092 25.0929 4.33201 26.3407C5.98006 27.722 6.16841 32.6112 6.14487 32.7838C5.91728 48.3226 7.17294 52.8743 7.47115 52.9999C8.73466 52.7331 8.64833 50.7162 8.64833 50.6926C8.38151 44.2417 7.91063 39.1092 8.97009 38.0811C9.17414 37.8849 9.36249 37.7907 9.55084 37.7829L9.62931 37.7907C10.3042 37.9006 10.2807 37.7986 10.3042 37.9006C10.6731 38.9758 10.6181 39.3525 11.1989 48.8091C11.4736 53.2902 12.3604 52.8508 12.3839 52.8508C12.4624 52.8665 12.5252 52.8743 12.5801 52.8743C12.7763 52.8743 13.0981 52.8194 13.1138 52.5682C13.671 44.0769 13.3649 37.3513 13.0353 32.9957C12.8469 30.4922 13.0196 30.2411 12.9333 29.9743C12.8705 29.7702 13.5768 27.5258 14.699 30.4922C15.4132 32.3836 15.7428 34.9812 16.3706 36.1662C16.9514 37.2885 17.3673 37.5788 17.3438 36.1113Z" fill="white"/>
<path d="M46.8597 5.37843C46.5929 4.87616 46.4595 4.34251 46.6322 3.87164C46.8597 3.24381 47.6681 3.079 48.2567 3.26735C48.7589 3.43216 49.1592 3.79316 49.528 4.16201C49.3711 3.49494 49.6536 1.93322 50.6189 1.86259C50.8308 1.84689 51.0191 1.98031 51.1682 2.12157C52.0707 2.97698 52.2198 4.1777 52.0786 5.34703C52.0472 5.59032 51.2702 8.45478 51.4429 8.48617C50.1323 7.84265 50.5168 7.8348 48.7197 7.07356C48.1468 6.82243 47.2364 6.09258 46.8597 5.37843Z" fill="white"/>
<path d="M34.97 0.647026C35.5115 0.827527 35.9666 1.12574 36.1707 1.58877C36.4375 2.2009 35.9666 2.88366 35.4094 3.15049C34.9307 3.37808 34.3892 3.39377 33.8713 3.37808C34.4441 3.75477 35.3153 5.08106 34.6639 5.79522C34.5226 5.95217 34.2872 5.99141 34.0831 5.99141C32.8432 5.99926 31.9093 5.23017 31.203 4.28058C31.0539 4.08438 29.6491 1.47105 29.5 1.56523C30.8969 1.13359 30.6222 1.40042 32.4508 0.717657C33.0394 0.497917 34.2009 0.395895 34.97 0.647026Z" fill="white"/>
<path d="M17.8705 13.1718C17.9489 12.6067 18.1608 12.1045 18.5768 11.822C19.134 11.4531 19.8874 11.7906 20.2484 12.2928C20.5623 12.7245 20.6643 13.2503 20.7428 13.7682C21.0096 13.1404 22.1554 12.0417 22.9794 12.5596C23.1599 12.6695 23.2306 12.8893 23.2698 13.0933C23.4974 14.3176 22.9088 15.3692 22.1005 16.2324C21.9357 16.4129 19.6127 18.265 19.7383 18.3906C19.0633 17.0957 19.3773 17.3154 18.3806 15.6439C18.0667 15.1024 17.7606 13.9723 17.8705 13.1718Z" fill="white"/>
<path d="M12.7131 4.35829C12.3992 3.87957 12.2265 3.36161 12.3599 2.87504C12.5326 2.23152 13.3252 1.99609 13.9295 2.13735C14.4475 2.25506 14.8713 2.58467 15.2715 2.92213C15.0596 2.27076 15.2087 0.693342 16.1662 0.536385C16.378 0.504994 16.5742 0.622712 16.739 0.748277C17.7122 1.52521 17.9555 2.70239 17.9162 3.88742C17.9084 4.1307 17.3747 7.0501 17.5474 7.0658C16.1897 6.53214 16.5664 6.4929 14.7143 5.88077C14.1257 5.69242 13.1526 5.04105 12.7131 4.35829Z" fill="white"/>
<path d="M2.17285 7.34195C2.526 6.89462 2.95763 6.56501 3.4599 6.52577C4.12696 6.47868 4.60568 7.1536 4.66846 7.76573C4.7234 8.29153 4.55075 8.80949 4.3624 9.28821C4.9039 8.87228 6.44993 8.50343 6.9051 9.35884C7.00713 9.54719 6.96004 9.77478 6.88941 9.97097C6.47347 11.1403 5.43755 11.7603 4.30746 12.1056C4.07203 12.1762 1.13693 12.6235 1.17617 12.7884C1.23895 11.3287 1.40376 11.674 1.37237 9.72769C1.37237 9.10771 1.67059 7.97762 2.17285 7.34195Z" fill="white"/>
</svg>
