<svg width="66" height="65" viewBox="0 0 66 65" fill="none" xmlns="http://www.w3.org/2000/svg">
<g clip-path="url(#clip0_1492_311)">
<path d="M56.2291 9.51892C50.0908 3.38056 41.9292 0 33.2481 0C25.8183 0 18.8248 2.44051 13.0239 7.05762C12.613 7.38466 12.5451 7.98271 12.872 8.39354C13.199 8.8045 13.7972 8.87231 14.2079 8.5454C19.6689 4.1988 26.2528 1.9014 33.2481 1.9014C41.4214 1.9014 49.1053 5.08422 54.8846 10.8635C60.6638 16.6427 63.8466 24.3268 63.8466 32.5C63.8466 40.6732 60.6638 48.3573 54.8847 54.1367C49.1055 59.9159 41.4214 63.0987 33.2482 63.0987C25.0749 63.0987 17.3907 59.9158 11.6115 54.1367C5.83226 48.3573 2.64945 40.6734 2.64945 32.5C2.64945 24.6411 5.62349 17.1717 11.0238 11.4673C11.3849 11.0861 11.3684 10.4843 10.9871 10.1233C10.6058 9.7623 10.0041 9.77878 9.64305 10.1601C3.90703 16.2191 0.748047 24.1529 0.748047 32.5C0.748047 41.1812 4.12861 49.3427 10.267 55.4811C16.4053 61.6194 24.5669 65 33.2481 65C41.9292 65 50.0908 61.6194 56.2291 55.4811C62.3675 49.3427 65.7481 41.1812 65.7481 32.5C65.7481 23.8188 62.3675 15.6574 56.2291 9.51892Z" fill="#F88D2A"/>
<path d="M42.5663 54.4788C42.0834 54.6848 41.8587 55.2431 42.0647 55.7262C42.2187 56.0876 42.5701 56.3042 42.9396 56.3042C43.064 56.3042 43.1905 56.2797 43.312 56.2278C47.907 54.2686 51.8193 51.0357 54.6261 46.8784C57.5043 42.6156 59.0257 37.6435 59.0256 32.5C59.0256 27.5816 57.6338 22.798 55.0007 18.6664C54.7212 18.2279 54.2637 17.944 53.7455 17.8873C53.224 17.8303 52.7123 18.0102 52.3414 18.3811L48.6327 22.0898C48.2614 22.4611 48.2614 23.0631 48.6327 23.4342C49.0039 23.8055 49.6059 23.8055 49.9771 23.4342L53.5232 19.8882C55.8798 23.6681 57.1241 28.0233 57.1242 32.5001C57.1242 37.263 55.7155 41.867 53.0503 45.8145C50.449 49.6675 46.8237 52.6636 42.5663 54.4788Z" fill="#F88D2A"/>
<path d="M22.8618 49.2062C22.4905 48.8349 21.8885 48.8349 21.5174 49.2062L19.1292 51.5945C18.7583 51.9653 18.5783 52.477 18.6354 52.9986C18.6922 53.5169 18.9761 53.9744 19.4146 54.2538C23.5462 56.8868 28.3299 58.2787 33.2483 58.2787C35.2016 58.2787 37.1502 58.0573 39.0397 57.6209C39.5513 57.5028 39.8702 56.9923 39.7521 56.4806C39.6338 55.969 39.1236 55.6497 38.6117 55.7682C36.8623 56.1723 35.0578 56.3771 33.2481 56.3771C28.7714 56.3771 24.416 55.1329 20.636 52.7761L22.8616 50.5505C23.2331 50.1793 23.233 49.5773 22.8618 49.2062Z" fill="#F88D2A"/>
<path d="M47.0823 10.7475C42.9508 8.11448 38.1672 6.72266 33.2486 6.72266C33.2482 6.72266 33.249 6.72266 33.2486 6.72266C26.381 6.72266 19.9117 9.40908 15.0343 14.2864C10.1567 19.164 7.47058 25.6327 7.4707 32.5007C7.4707 37.4191 8.8624 42.2028 11.4955 46.3343C11.775 46.7728 12.2323 47.0568 12.7506 47.1135C12.8143 47.1205 12.8777 47.1239 12.9408 47.1239C13.395 47.1239 13.8292 46.9454 14.1549 46.6198L18.7193 42.0554C19.0905 41.6841 19.0905 41.0821 18.7193 40.711C18.348 40.3397 17.746 40.3397 17.3748 40.711L12.9731 45.1126C10.6164 41.3327 9.3721 36.9774 9.3721 32.5006C9.3721 26.1404 11.8604 20.1492 16.3789 15.6308C20.8974 11.1124 26.8884 8.62393 33.2486 8.62393C37.7252 8.62393 42.0809 9.86846 45.8607 12.2249L42.8745 15.2111C42.5032 15.5824 42.5032 16.1844 42.8745 16.5556C43.2458 16.9268 43.8478 16.9268 44.2189 16.5556L47.3678 13.4067C47.7386 13.0359 47.9186 12.5241 47.8615 12.0025C47.8049 11.4844 47.5207 11.0269 47.0823 10.7475Z" fill="#F88D2A"/>
<path d="M44.5072 23.8653C43.8935 23.8653 43.3156 24.0199 42.8095 24.2918V19.47C42.8095 17.4855 41.1949 15.8709 39.2104 15.8709C38.5822 15.8709 37.9912 16.0332 37.4767 16.3172C37.2305 14.5707 35.727 13.2227 33.9137 13.2227C31.9292 13.2227 30.3146 14.8372 30.3146 16.8218V18.5367C29.8086 18.2648 29.2306 18.1101 28.6169 18.1101C26.6324 18.1101 25.0178 19.7247 25.0178 21.7092V29.038C24.0803 27.894 22.5224 27.3806 21.0178 27.8437C20.0691 28.1357 19.2899 28.7922 18.8237 29.6922C18.3548 30.5974 18.2622 31.6664 18.5678 32.6306L20.6482 40.8044C20.651 40.8154 20.654 40.8265 20.6573 40.8374C21.2565 42.8808 22.2903 44.9071 23.5685 46.5432C25.6927 49.2622 29.2477 51.1179 33.322 51.6349C34.0788 51.7308 34.8307 51.7787 35.575 51.7787C36.7202 51.7787 37.8471 51.6653 38.9437 51.4388C39.8726 51.247 40.7607 50.976 41.5836 50.6333C45.6675 48.9325 48.1058 44.9493 48.1058 39.9785V27.4644C48.1063 25.4798 46.4917 23.8653 44.5072 23.8653ZM46.2049 39.9785C46.2049 44.2178 44.2542 47.4615 40.8531 48.8781C40.1418 49.1743 39.3702 49.4093 38.5596 49.5767C36.9558 49.908 35.2744 49.9658 33.5617 49.7486C29.9811 49.2944 26.885 47.6993 25.0673 45.3727C23.9368 43.9256 23.0209 42.1313 22.4869 40.3184C22.4536 40.1875 22.2097 39.229 20.4036 32.1331C20.3984 32.1126 20.3925 32.0921 20.3859 32.072C20.2252 31.5809 20.2713 31.0323 20.5125 30.5668C20.7422 30.1234 21.1205 29.8017 21.5777 29.6609C22.53 29.3676 23.5259 29.867 23.8624 30.7996L25.3961 37.0641C25.5128 37.5413 25.9739 37.8511 26.4602 37.7782C29.3559 37.3445 32.4021 39.3203 33.1118 42.0916C33.2421 42.6002 33.7596 42.9072 34.2686 42.7768C34.7772 42.6464 35.084 42.1285 34.9538 41.6199C34.4916 39.8153 33.3089 38.2228 31.6238 37.1361C30.2179 36.2295 28.6204 35.7749 27.0493 35.8205L26.9196 21.7094C26.9196 20.7732 27.6812 20.0117 28.6173 20.0117C29.5534 20.0117 30.315 20.7732 30.315 21.7094V31.7678C30.315 32.2928 30.7407 32.7185 31.2657 32.7185C31.7907 32.7185 32.2164 32.2928 32.2164 31.7678V21.7094V16.8219C32.2164 15.8858 32.978 15.1242 33.9141 15.1242C34.8502 15.1242 35.6118 15.8858 35.6118 16.8219V31.7675C35.6118 32.2926 36.0375 32.7182 36.5625 32.7182C37.0875 32.7182 37.5132 32.2926 37.5132 31.7675V19.47C37.5132 18.5339 38.2748 17.7723 39.2109 17.7723C40.147 17.7723 40.9086 18.5339 40.9086 19.47V31.7675C40.9086 32.2926 41.3343 32.7182 41.8593 32.7182C42.3843 32.7182 42.81 32.2926 42.81 31.7675V27.4644C42.81 26.5283 43.5716 25.7667 44.5077 25.7667C45.4438 25.7667 46.2054 26.5283 46.2054 27.4644V39.9785H46.2049Z" fill="#F88D2A"/>
</g>
<defs>
<clipPath id="clip0_1492_311">
<rect width="65" height="65" fill="white" transform="translate(0.748047)"/>
</clipPath>
</defs>
</svg>
