<svg width="69" height="65" viewBox="0 0 69 65" fill="none" xmlns="http://www.w3.org/2000/svg">
<g clip-path="url(#clip0_1492_3323)">
<path d="M34.2482 8.125C33.4708 8.125 32.8398 7.51833 32.8398 6.77083V1.35417C32.8398 0.606667 33.4708 0 34.2482 0C35.0256 0 35.6565 0.606667 35.6565 1.35417V6.77083C35.6565 7.51833 35.0256 8.125 34.2482 8.125Z" fill="#F88D2A"/>
<path d="M53.1688 15.6589C52.8083 15.6589 52.4477 15.5262 52.1717 15.2635C51.6225 14.7354 51.6225 13.8768 52.1717 13.3487L56.1545 9.51914C56.7037 8.99102 57.5966 8.99102 58.1459 9.51914C58.6951 10.0473 58.6951 10.9058 58.1459 11.4339L54.1631 15.2635C53.8899 15.5262 53.5293 15.6589 53.1688 15.6589Z" fill="#F88D2A"/>
<path d="M66.6393 33.8548H61.006C60.2286 33.8548 59.5977 33.2482 59.5977 32.5007C59.5977 31.7532 60.2286 31.1465 61.006 31.1465H66.6393C67.4167 31.1465 68.0477 31.7532 68.0477 32.5007C68.0477 33.2482 67.4167 33.8548 66.6393 33.8548Z" fill="#F88D2A"/>
<path d="M57.1516 55.8777C56.791 55.8777 56.4305 55.745 56.1545 55.4823L52.1717 51.6527C51.6225 51.1246 51.6225 50.266 52.1717 49.7379C52.721 49.2098 53.6138 49.2098 54.1631 49.7379L58.1459 53.5675C58.6951 54.0956 58.6951 54.9541 58.1459 55.4823C57.8726 55.745 57.5121 55.8777 57.1516 55.8777Z" fill="#F88D2A"/>
<path d="M34.2482 65C33.4708 65 32.8398 64.3933 32.8398 63.6458V58.2292C32.8398 57.4817 33.4708 56.875 34.2482 56.875C35.0256 56.875 35.6565 57.4817 35.6565 58.2292V63.6458C35.6565 64.3933 35.0256 65 34.2482 65Z" fill="#F88D2A"/>
<path d="M11.3426 55.8777C10.9821 55.8777 10.6216 55.745 10.3455 55.4823C9.79628 54.9541 9.79628 54.0956 10.3455 53.5675L14.3283 49.7379C14.8775 49.2098 15.7704 49.2098 16.3197 49.7379C16.8689 50.266 16.8689 51.1246 16.3197 51.6527L12.3369 55.4823C12.0637 55.745 11.7032 55.8777 11.3426 55.8777Z" fill="#F88D2A"/>
<path d="M7.48893 33.8548H1.8556C1.0782 33.8548 0.447266 33.2482 0.447266 32.5007C0.447266 31.7532 1.0782 31.1465 1.8556 31.1465H7.48893C8.26633 31.1465 8.89727 31.7532 8.89727 32.5007C8.89727 33.2482 8.26633 33.8548 7.48893 33.8548Z" fill="#F88D2A"/>
<path d="M15.3245 15.6589C14.964 15.6589 14.6035 15.5262 14.3274 15.2635L10.3475 11.4339C9.79823 10.9058 9.79823 10.0473 10.3475 9.51914C10.8967 8.99102 11.7896 8.99102 12.3389 9.51914L16.3216 13.3487C16.8709 13.8768 16.8709 14.7354 16.3216 15.2635C16.0456 15.5262 15.6851 15.6589 15.3245 15.6589Z" fill="#F88D2A"/>
<path d="M30.2264 54.1666C30.0602 54.1666 29.8968 54.1395 29.7335 54.0826C29.1166 53.8605 28.742 53.2593 28.8293 52.6364L31.2319 35.2082H21.5708C21.0384 35.2082 20.5511 34.9184 20.3117 34.4607C20.0723 34.003 20.123 33.4532 20.4441 33.0416L37.3441 11.3749C37.7356 10.8712 38.4313 10.6924 39.0256 10.9416C39.6228 11.188 39.9692 11.792 39.8622 12.4095L37.3159 27.0832H46.9208C47.439 27.0832 47.915 27.3568 48.1601 27.7955C48.4051 28.2343 48.3798 28.7651 48.0981 29.1849L31.4037 53.5599C31.1362 53.9472 30.6883 54.1666 30.2264 54.1666ZM24.3874 32.4999H32.8374C33.2458 32.4999 33.6289 32.6705 33.8965 32.963C34.1641 33.2528 34.288 33.6455 34.2345 34.0328L32.429 47.1357L44.3069 29.7916H35.6541C35.24 29.7916 34.8485 29.6182 34.5781 29.3122C34.3105 29.0089 34.1951 28.6053 34.2655 28.2153L36.1329 17.4416L24.3874 32.4999Z" fill="#F88D2A"/>
</g>
<defs>
<clipPath id="clip0_1492_3323">
<rect width="67.6" height="65" fill="white" transform="translate(0.447266)"/>
</clipPath>
</defs>
</svg>
