<svg width="1488" height="760" viewBox="0 0 1488 760" fill="none" xmlns="http://www.w3.org/2000/svg">
<path d="M109.978 517.414C115.579 508.633 118.311 499.4 114.812 491.084C110.185 480.068 93.5287 477.017 81.3947 480.255C70.9522 483.043 62.6979 489.357 55.1346 495.734C58.4952 484.099 52.8459 456.794 32.9528 455.389C28.536 455.076 24.638 457.397 21.5243 459.852C2.76001 474.639 -0.379831 495.605 2.36806 516.145C2.94454 520.411 18.5562 570.596 15.0593 571.09C42.0826 559.971 34.2656 559.761 71.303 546.687C83.1394 542.507 102.039 529.878 109.978 517.414Z" fill="#F88D2A" fill-opacity="0.1"/>
<path d="M318.29 472.326C329.896 470.641 340.136 466.777 345.679 459.313C353.024 449.426 345.552 436.424 335.049 430.328C326.006 425.077 315.046 423.462 304.458 422.347C317.32 417.415 339.119 396.804 328.116 382.661C325.679 379.525 321.116 378.348 316.912 377.784C291.607 374.384 270.236 385.214 252.904 399.718C249.306 402.73 212.448 444.105 209.838 442.07C236.852 453.249 232.205 447.903 267.23 464.559C278.43 469.883 301.837 474.711 318.29 472.326Z" fill="#F88D2A" fill-opacity="0.1"/>
<path d="M585.489 536.989C595.771 532.687 604.265 526.448 607.526 517.569C611.841 505.807 601.717 494.158 590.519 490.246C580.872 486.876 570.366 487.66 560.317 488.871C570.958 480.963 585.957 455.001 572.292 442.958C569.267 440.287 564.764 440.098 560.748 440.457C536.562 442.599 519.534 458.446 507.15 477.154C504.575 481.041 480.859 531.609 477.938 530.112C505.637 535.554 500.03 531.111 536.468 540.386C548.117 543.345 570.9 543.094 585.489 536.989Z" fill="#F88D2A" fill-opacity="0.1"/>
<path d="M643.252 180.582C632.493 177.956 621.769 177.91 613.197 183.002C601.84 189.742 601.516 204.851 607.324 214.488C612.331 222.788 620.838 228.319 629.294 233.243C615.792 233.254 586.582 244.945 588.667 262.431C589.131 266.31 592.416 269.092 595.705 271.158C615.535 283.622 639.335 281.093 661.578 273.593C666.201 272.03 718.938 246.047 720.124 248.935C702.851 228.438 704.049 235.221 682.778 206.594C675.973 197.435 658.514 184.306 643.252 180.582Z" fill="#F88D2A" fill-opacity="0.1"/>
<path d="M923.891 144.584C956.04 90.8749 1002.33 47.558 1067.64 33.562C1154.2 15.0341 1239.15 74.3326 1267.23 136.324C1291.41 189.724 1285.06 246.044 1275.63 299.782C1334.28 245.561 1525.63 175.132 1613.27 253.684C1632.67 271.087 1633.81 295.444 1631 316.969C1613.9 446.55 1496.66 531.991 1358.65 591.26C1329.98 603.591 957.542 711.105 968.352 727.479C929.955 575.897 962.255 607.929 896.224 407.631C875.135 343.597 878.275 220.82 923.891 144.584Z" fill="#F88D2A" fill-opacity="0.1"/>
<path d="M281.304 680.004C290.67 686.136 301.014 689.946 311.271 688.377C324.873 686.302 331.084 672.848 329.233 662.157C327.64 652.944 321.583 644.993 315.345 637.604C328.39 642.334 361.155 642.079 365.972 625.642C367.031 621.996 364.95 618.346 362.582 615.334C348.304 597.186 324.333 591.11 299.924 590.044C294.851 589.82 233.788 594.664 233.777 591.652C242.449 616.12 243.941 609.606 253.308 642.783C256.297 653.388 268.032 671.305 281.304 680.004Z" fill="#F88D2A" fill-opacity="0.1"/>
<path d="M172.825 156.462C165.606 148.566 156.755 142.698 146.386 142.053C132.643 141.186 122.647 152.889 121.251 163.603C120.042 172.847 123.525 181.813 127.351 190.274C116.166 182.948 84.463 176.273 74.9349 191.152C72.8228 194.451 73.7416 198.416 75.1335 201.828C83.5195 222.386 104.851 233.31 128.106 239.501C132.938 240.776 193.324 248.983 192.446 251.902C191.342 226.418 187.967 232.405 188.794 198.359C189.054 187.467 183.053 167.671 172.825 156.462Z" fill="#F88D2A" fill-opacity="0.1"/>
<path d="M430.766 358.932C437.042 367.387 445.173 373.953 455.43 375.454C469.012 377.448 480.302 366.63 482.915 356.076C485.166 346.978 482.729 337.77 479.89 329.037C490.177 337.252 520.984 346.498 532.169 332.476C534.652 329.368 534.184 325.346 533.186 321.838C527.191 300.689 507.21 288.053 484.783 279.987C480.119 278.315 420.942 265.172 422.16 262.344C420.333 287.789 424.375 282.116 419.658 315.927C418.156 326.741 421.856 346.929 430.766 358.932Z" fill="#F88D2A" fill-opacity="0.1"/>
</svg>
