<svg width="420" height="670" viewBox="0 0 420 670" fill="none" xmlns="http://www.w3.org/2000/svg">
<path fill-rule="evenodd" clip-rule="evenodd" d="M240.257 382.251C232.161 381.753 235.229 407.221 235.352 412.871C235.567 422.737 236.661 436.783 237.798 446.582C239.132 458.077 238.413 470.341 239.642 481.24C240.318 487.277 238.837 511.804 243.165 514.306L247.793 446.182C250.05 413.713 248.611 424.747 242.298 398.425C241.511 395.148 241.087 383.973 240.257 382.251ZM194.165 285.844C194.122 281.111 195.647 277.693 200.552 277.533C200.288 281.689 198.745 285.463 194.165 285.844ZM60.0329 340.524C55.9696 339.885 50.6215 331.236 50.3572 327.443C55.0167 327.984 58.3608 336.123 60.0329 340.524ZM320.14 181.409C316.937 179.842 317.607 180.137 317.595 175.92C317.589 173.184 317.503 170.953 318.148 168.482C322.851 168.709 324.007 177.684 320.134 181.409H320.14ZM374.125 382.743C372.717 379.682 374.561 378.237 376.11 375.6C377.905 372.545 378.551 370.99 382.577 371.076C382.842 375.582 378.508 382.626 374.125 382.743ZM136.406 64.5201C135.035 61.8952 133.609 45.6297 137.5 46.435C140.088 46.9698 138.859 53.7625 138.883 56.0677C138.926 59.713 139.99 63.5796 136.406 64.5201ZM250.24 371.678C254.457 371.66 253.596 373.332 255.588 381.557C256.08 383.585 259.842 392.486 256.861 392.954C252.373 393.661 246.976 376.393 250.24 371.678ZM112.438 502.718C115.899 505.798 115.757 523.465 114.178 526.416C110.551 526.01 110.797 521.068 110.293 518.959C109.985 517.662 109.629 517.299 109.395 515.929C108.793 512.339 107.944 503.622 112.438 502.712V502.718ZM139.559 32.9295C138.428 29.9912 143.113 14.2051 150.385 10.7627C153.151 9.45332 157.214 9.79141 157.651 13.4306C154.516 15.2993 152.751 12.1888 147.077 22.2026C145.184 25.5406 144.606 23.7702 143.229 28.2515C142.541 30.4891 141.613 33.1816 139.559 32.9357V32.9295ZM202.87 267.888C202.488 263.991 202.888 257.586 200.915 254.494C198.634 250.916 193.975 251.34 194.079 247.529C212.379 244.314 210.08 269.013 202.87 267.888ZM337.826 489.09C337.309 482.955 337.365 475.941 338.231 470.034C338.723 466.677 338.981 459.971 339.959 457.272C340.912 454.641 340.813 455.114 342.731 454.918C344.588 458.483 343.395 470.027 343.297 474.822C343.198 479.377 342.11 479.199 341.87 483.459C341.692 486.557 341.575 489.121 337.826 489.084V489.09ZM386.432 362.611C385.971 356.12 393.489 346.874 396.47 335.176L401.296 316.949L404.646 316.74C405.832 319.814 402.556 335.262 401.972 337.088L400.583 341.655C400.527 341.772 400.429 341.932 400.367 342.042L399.876 342.792C399.808 342.915 399.691 343.075 399.624 343.198C397.134 347.544 395.954 351.319 391.116 359.396C389.548 362.015 390.022 362.918 386.432 362.605V362.611ZM30.7537 293.639L22.9529 269.302C22.0308 265.977 20.4509 265.971 20.119 261.815C19.8424 258.317 20.0268 254.807 20.1313 251.303C23.1865 252.49 22.3074 254.961 23.42 258.219C24.379 261.034 25.3134 263.948 26.2355 266.659C28.1596 272.327 29.973 277.638 31.8356 283.091C34.2514 290.16 37.5033 294.033 40.9704 306.511C42.5256 312.112 44.3944 311.853 41.8371 313.999C40.2696 313.409 39.0278 309.757 37.9398 307.698L30.7537 293.633V293.639ZM104.766 441.197C112.02 439.783 110.354 457.475 111.129 462.091C112.358 469.437 112.032 466.038 112.118 474.792C112.155 478.431 112.881 485.647 111.743 488.733C105.344 491.352 105.854 471.908 105.455 468.14C105 463.868 103.039 444.043 104.772 441.191L104.766 441.197ZM245.968 300.979C251.666 299.461 249.644 313.458 249.927 320.38C250.05 323.349 250.849 325.113 251.082 327.805C251.826 336.307 252.33 350.864 248.955 358.167C243.478 348.515 245.083 342.215 244.96 331.002C244.904 326.256 244.185 303.647 245.968 300.979ZM212.693 263.764C215.969 246.742 205.888 236.716 188.891 240.871C176 244.025 167.812 263.37 159.507 255.287C151.258 247.252 140.273 235.905 127.044 240.343C111.024 245.715 113.79 261.139 118.161 274.048C121.905 285.101 129.835 294.703 137.961 302.811C144.096 308.927 160.552 322.513 169.085 317.798C192.635 304.79 207.462 290.91 212.693 263.764ZM131.888 233.187C156.231 229.96 159.993 254.93 167.91 245.98C188.135 223.124 230.022 227.962 216.117 274.288C212.422 286.594 203.872 298.538 194.546 307.255C188.688 312.732 183.524 314.318 177.838 318.517C172.601 322.39 165.452 328.217 159.009 324.252C153.667 320.97 147.33 317.3 142.32 313.716C129.214 304.323 135.115 307.397 128.113 300.684C114.602 287.732 102.117 257.211 113.176 241.818C119.716 232.714 127.91 233.71 131.882 233.181L131.888 233.187ZM126.232 204.425C124.284 205.334 124.474 205.236 122.421 204.498C120.116 196.525 121.222 167.935 121.278 157.915L122.888 99.4977C123.22 97.2786 123.823 97.7089 123.982 94.7214C124.886 77.4108 124.818 59.8482 123.257 42.7036C122.396 33.2369 122.157 31.6939 117.7 23.5427C111.331 22.9403 106.948 23.2046 103.727 29.3826C99.5533 37.3863 100.512 40.2386 98.4837 44.8736C94.3774 54.2665 93.9286 68.7371 91.2607 78.9476C89.8592 84.3141 90.271 91.6109 89.4473 97.7458C88.9555 101.397 88.9371 103.739 88.9002 107.385C88.8572 111.134 87.6585 112.456 87.6462 116.618C87.6154 129.349 85.9188 142.928 85.7467 155.917C85.6053 166.459 86.5397 185.307 84.2222 195.026C82.9804 200.232 83.503 208.525 82.6116 214.137L80.2142 242.464C80.1466 247.787 79.1876 247.129 78.5975 251.23C77.0914 261.747 81.5727 261.784 86.2754 268.614C87.431 270.292 87.5478 269.849 89.0047 271.233C92.5455 274.595 101.053 286.029 100.777 290.086C96.3015 291.727 96.6334 290.713 94.5618 287.676C87.4495 277.238 78.1733 268.03 68.8111 260.125C65.9895 257.746 58.951 251.93 55.8405 251.654C54.6541 253.16 55.0967 254.549 54.2729 256.356C53.6705 257.678 52.6439 258.188 51.1932 258.674L49.6195 257.094C49.6502 253.16 52.7792 239.267 52.6808 236.538C52.5087 231.737 47.2958 207.498 45.9926 203.103C41.5298 188.024 33.8519 173.467 23.4631 161.695C18.3793 155.935 13.812 153.876 8.90032 160.872C7.55408 162.79 6.04187 170.812 5.99884 173.879C5.90048 181.213 5.06446 190.839 6.07875 197.872C6.66889 201.96 7.5172 197.65 7.68318 203.804C8.00898 216 10.8859 227.52 11.6358 239.808C11.9801 245.5 12.5456 249.103 13.2095 254.574C14.2238 262.977 24.3298 295.981 28.3317 303.333C32.1061 310.255 35.1428 317.644 38.8004 324.676C40.6937 328.322 51.5559 346.53 54.3406 349.228C56.197 351.03 56.5781 350.864 58.158 353.249C64.3913 362.629 79.5441 379.633 85.6176 389.769C90.3817 397.718 101.434 413.491 100.832 421.956C93.9532 422.165 96.449 417.985 92.2013 415.926C91.9615 425.983 93.6274 436.998 94.6724 447.012C95.7666 457.542 95.195 467.2 96.8609 478.271C99.3136 494.616 97.1252 510.341 98.4345 526.686C99.0247 534.075 99.6455 532.256 99.7685 542.7C99.8791 551.828 101.361 552.929 101.416 557.306C101.477 562.352 100.961 568.623 102.19 573.424C103.291 577.739 102.922 584.679 102.934 589.32C102.947 593.623 104.231 596.679 104.311 605.285C104.416 616.27 105.756 626.087 105.823 637.269C105.854 642.315 107.182 646.606 107.225 652.551C107.243 654.862 107.846 668.779 106.893 669.941C105.442 671.718 100.033 632.775 100.014 628.644C99.9836 619.091 98.7481 604.356 97.494 594.373C96.9531 590.07 97.3158 586.154 97.1621 581.894C97.0268 578.2 96.2154 575.212 95.7605 571.647C95.2503 567.664 95.49 563.963 95.4224 559.992C95.2318 549.038 93.6213 537.044 92.6992 525.992C92.3488 521.805 92.7914 517.65 92.4287 513.47C92.1336 510.064 91.2423 506.757 90.978 503.333C90.6522 499.153 91.0825 494.985 90.7136 490.799C89.3613 475.486 88.0888 460.143 88.0457 444.756C88.0212 437.171 86.5889 429.671 86.5212 421.637C86.2753 390.968 80.54 394.742 63.4938 371.383C60.0083 366.601 56.1294 362.451 52.6747 357.558C45.8451 347.895 39.3782 338.207 33.5937 328.045L18.9387 293.479C17.0331 288.051 14.1746 280.453 12.7055 275.105C11.8141 271.866 11.3838 268.509 10.4125 265.325C9.47816 262.276 8.0766 259.676 7.36352 256.473C3.33709 238.413 -0.658598 207.461 0.0913626 189.917C0.527815 179.651 -0.634009 156.501 9.65643 151.091C15.8713 147.827 23.0389 148.817 27.7354 154.103C31.5958 158.443 35.7268 162.833 38.3271 168.039C47.0991 185.626 53.7812 204.013 56.0495 223.653C59.1846 250.787 57.7277 243.613 63.1249 247.172C66.3092 249.275 70.9258 253.873 74.5219 254.457C74.7739 248.476 75.7698 242.378 75.8497 236.488C75.9357 230.058 76.28 224.108 76.5443 217.826L77.5094 159.913C77.5586 152.229 77.8967 129.232 79.4151 122.654C80.9887 115.843 83.5521 93.246 83.5644 87.3509C83.5767 77.2325 84.6217 80.9454 86.2077 70.2985C87.4864 61.6985 90.3571 44.3449 93.1234 38.0071C95.9818 31.4481 95.238 31.7308 99.3013 24.889C101.145 21.7785 105.707 16.5841 109.038 14.7891C113.268 12.5146 120.03 12.2442 122.267 17.0267C123.54 19.7499 123.853 20.7949 125.679 23.5243C127.923 26.8745 126.337 28.7863 129.078 29.9912C132.17 28.7187 131.654 17.1681 135.447 11.82C138.478 7.54768 142.307 0.890243 148.375 0.152577C155.782 -0.744916 161.259 2.40861 165.949 7.20344C169.134 10.4676 168.722 11.1868 170.486 14.7276C171.353 16.4734 171.654 16.3935 172.545 18.6065C173.148 20.1003 173.67 22.1781 174.347 23.3337C176.861 22.676 176.221 22.2703 177.771 20.2048C185.461 9.98198 193.384 12.3056 203.454 15.7604C204.861 16.246 209.595 21.7293 210.259 23.2661C212.914 29.4133 215.404 39.0522 216.135 46.1092L218.686 65.3254C218.754 69.3395 217.586 73.6549 222.535 71.7861C233.686 67.5691 244.013 77.4108 246.367 87.8365C250.664 106.844 249.189 111.835 249.293 131.943C249.336 139.78 250.738 183.364 252.742 185.362C254.666 186.45 257.85 186.346 260.42 186.223C260.549 174.672 262.621 160.503 267.047 150.63C269.266 145.669 273.095 141.612 278.825 141.256C292.435 140.407 287.812 146.223 293.51 147.895C296.221 145.559 299.774 132.09 311.423 134.051C319.347 135.385 322.488 145.43 326.066 151.485C329.724 150.384 327.978 146.85 333.246 145.172C336.891 144.01 340.34 145.172 343.161 147.557C346.862 150.686 351.515 160.669 352.493 165.421C357.331 188.884 361.603 213.615 361.953 237.792C362.076 246.355 363.085 255.053 363.158 263.751C363.195 268.171 363.177 272.689 363.281 277.097C363.38 281.382 364.443 285.101 364.48 289.699C364.554 298.815 364.88 307.667 365.076 316.716C367.83 316.525 374.549 313.31 375.815 310.741C377.53 306.677 376.565 298.047 377.082 293.147C377.42 289.926 378.44 289.398 378.692 285.746C379.577 272.991 392.665 248.672 403.441 243.306C407.701 241.185 414.137 244.554 415.717 248.672C418.465 255.846 419.688 275.738 418.993 283.601L416.184 308.89C415.791 312.234 414.733 313.107 414.512 317.011C412.729 348.749 390.2 384.145 371.002 407.824L362.667 418.827C358.161 426.161 357.288 423.272 357.06 432.88C356.943 437.902 356.046 445.279 355.622 450.584C353.636 475.621 354.005 496.307 351.645 520.49C351.386 523.17 350.901 526.078 350.698 528.709C350.434 532.207 351.645 535.126 347.655 534.973C345.952 517.22 352.247 435.96 352.081 435.664C351.097 436.107 347.704 444.258 344.157 440.717C342.061 435.738 350.87 424.009 354.14 419.571C358.738 413.326 363.564 407.24 368.211 401.013C373.313 394.177 377.217 389.118 381.52 381.63C390.003 366.883 399.427 355.179 404.277 338.569C410.762 316.341 411.936 304.421 411.592 280.398C411.518 275.302 411.943 268.638 411.352 263.745C411.014 260.93 410.375 260.42 410.277 257.119C410.006 248.26 405.095 248.07 400.269 254.752L395.21 261.618C388.909 269.819 384.151 288.008 382.473 298.299C381.163 306.302 383.395 313.04 382.485 321.468C379.491 321.382 380.241 320.029 378.139 318.578C373.301 319.636 364.72 327.025 360.755 331.027C358.505 333.301 356.021 336.135 353.765 338.68C351.11 341.674 350.962 345.571 346.419 345.282C345.719 338.342 352.991 327.879 358.4 324.037L356.525 253.516C355.812 247.627 355.745 236.163 355.677 229.806C355.542 216.436 352.677 188.559 348.755 176.024C346.856 169.963 346.192 163.251 343.106 157.57C340.524 152.819 340.426 152.591 334.77 153.378C332.225 157.835 332.975 163.177 330.664 167.806C328.679 171.783 329.594 177.414 329.551 181.864C329.441 193.2 329.521 204.486 329.582 215.815C329.644 227.403 332.853 274.06 330.154 281.824C325.605 281.13 327.793 275.634 326.269 265.528C325.888 262.995 325.666 259.086 325.531 256.418C325.353 252.92 324.658 250.867 324.32 247.683C322.519 230.686 324.763 188.786 324.111 167.843C324.062 166.324 320.577 153.403 319.931 152.001C318.966 149.905 317.306 148.005 316.071 145.989C313.974 142.571 314.417 141.366 310.003 141.194C310.901 143.592 314.073 146.524 315.714 148.995C318.056 152.511 319.027 154.663 318.972 159.452C314.546 159.027 314.214 155.585 311.743 151.688C309.481 148.116 307.661 145.381 303.487 144.434C293.99 155.48 297.973 169.877 296.357 180.352L295.385 187.852C295.404 204.732 294.758 221.963 296.486 238.652C297.063 244.24 298.176 266.751 295.803 270.667C289.238 268.565 290.652 202.076 290.345 189.167C290.191 182.682 288.925 179.356 289.982 172.348C290.922 166.109 291.015 162.415 289.047 156.495C285.525 145.879 276.372 143.487 271.276 157.005C269.573 161.517 269.518 166.668 268.012 171.611C267.151 174.432 267.956 176.879 267.409 179.78C265.485 189.954 266.186 194.325 266.112 205.168L266.088 258.428C266.057 262.639 267.342 270.845 262.319 272.351C260.752 266.714 261.68 259.762 261.723 253.768C261.821 241.554 260.592 240.349 260.487 235.161C260.235 222.116 260.789 208.715 260.285 195.739C254.273 191.632 250.4 191.976 248.119 199.187C245.089 208.765 245.267 211.322 244.904 221.858C244.775 225.559 243.792 225.952 243.589 229.106C243.417 231.774 243.509 235.068 243.49 237.798C243.454 243.693 243.331 248.605 242.894 254.463C242.046 265.841 242.39 276.464 241.96 287.744C241.745 293.449 241.21 298.416 241.228 304.378C241.247 309.708 241.837 315.406 241.892 321.007C241.997 330.578 241.185 345.343 242.956 354.232C244.087 359.906 244.437 382.823 247.554 392.843L249.472 399.464C250.093 401.099 250.886 404.142 251.562 406.041C252.189 407.799 253.148 410.307 254.094 412.293L263.143 429.265C264.582 431.675 265.657 432.284 265.799 435.769C256.621 435.812 259.959 431.036 254.887 427.292C253.56 429.37 254.07 432.413 254.033 434.871C253.99 437.521 253.646 439.365 253.228 441.928C252.379 447.166 252.84 452.735 252.588 458.145C252.336 463.579 251.254 465.952 251.187 473.458C251.045 488.709 250.48 482.279 249.865 488.709C249.447 493.098 250.388 501.225 249.484 504.95C247.849 511.712 248.107 513.076 248.039 520.06C247.978 526.195 246.687 529.631 246.638 535.372C246.613 538.046 246.613 540.727 246.582 543.401C246.392 558.806 244.148 583.105 243.029 597.969C242.888 603.188 241.511 606.44 239.347 611.413C234.97 611.739 239.569 550.255 239.439 537.997C239.396 533.793 238.517 534.174 238.161 530.744C237.853 527.75 238.204 524.369 238.038 521.363C237.817 517.379 236.452 518.437 236.292 514.109C236.181 511.097 236.446 507.741 236.212 504.747C235.61 497.087 234.903 500.413 234.872 487.436C234.841 474.779 233.569 476.248 233.225 470.814C232.542 460.112 231.018 438.093 229.506 427.722C228.713 422.288 228.725 405.5 226.272 402.666C224.957 404.553 221.957 411.524 220.758 412.662C219.338 414.002 214.531 420.038 213.031 420.573C211.758 418.225 225.381 392.204 227.538 388.798C233.722 379.049 231.116 381.686 234.626 371.819C237.528 363.644 236.261 358.087 236.329 349.628C236.507 326.422 234.061 303.296 236.065 280.146C237.38 264.975 236.04 248.998 237.417 233.409C237.995 226.856 238.886 217.629 239.021 211.199C239.212 202.064 239.728 200.048 243.785 192.056C246.324 187.053 245.033 175.293 244.874 169.306C244.456 153.55 243.398 138.533 243.398 122.63C243.398 114.54 243.109 107.409 242.71 99.3748C242.206 89.0782 240.466 88.3897 237.933 79.673C232.302 79.1443 233.55 74.7429 224.514 76.9682C219.572 78.1853 218.397 82.9126 217.936 87.4738C216.904 97.6966 218.834 110.993 217.34 121.038C214.605 139.442 218.797 174.992 215.846 188.104C211.875 186.751 212.859 182.608 212.502 178.889C211.371 166.92 212.14 154.62 212.115 142.614C212.097 134.727 213.271 126.994 213.394 119.347C213.584 107.256 214.537 81.3143 213.105 70.4767C212.582 66.5056 212.183 63.4751 212.146 59.4179C212.072 51.5741 210.615 45.0887 209.49 37.3555C208.771 32.3763 207.523 32.5853 205.925 28.4667C199.95 13.0494 185.178 13.8424 178.846 28.6449C175.779 35.8249 176.16 43.1155 176.215 50.7319C176.32 66.9482 177.027 82.9679 176.91 99.3318C176.793 115.45 176.074 131.162 175.318 147.219L172.859 181.305C172.478 184.969 173.541 189.665 168.802 188.577C167.369 185.639 168.255 180.389 167.646 176.707C166.626 170.553 167.609 170.025 167.861 164.603C168.052 160.49 167.732 155.401 168.175 151.436C170.13 133.984 170.781 102.442 170.56 85.3469C170.406 73.87 170.142 42.3655 169.072 32.8619C168.052 23.8317 168.919 18.9938 163.361 11.2114C159.446 5.7281 151.59 0.798035 145.86 6.94525C134.273 19.3688 137.328 25.4545 134.058 35.3208C132.767 39.212 131.47 42.5561 131.488 46.7177C131.525 57.3586 132.613 76.7223 131.058 86.8652C130.652 89.5147 130.824 90.7748 130.824 93.3751C130.824 97.1557 130.13 96.5532 129.748 99.3564L127.843 178.84C126.798 185.952 128.605 198.474 126.22 204.412L126.232 204.425Z" fill="url(#paint0_linear_930_15700)"/>
<defs>
<linearGradient id="paint0_linear_930_15700" x1="471.417" y1="335.993" x2="-43.0928" y2="334.494" gradientUnits="userSpaceOnUse">
<stop offset="0.1" stop-color="white"/>
<stop offset="0.41" stop-color="#F88D2A"/>
<stop offset="0.99" stop-color="#F88D2A"/>
</linearGradient>
</defs>
</svg>
