<svg width="12" height="122" viewBox="0 0 12 122" fill="none" xmlns="http://www.w3.org/2000/svg">
<path d="M0.666667 6C0.666667 8.94552 3.05448 11.3333 6 11.3333C8.94552 11.3333 11.3333 8.94552 11.3333 6C11.3333 3.05448 8.94552 0.666667 6 0.666667C3.05448 0.666667 0.666667 3.05448 0.666667 6ZM0.666667 116C0.666667 118.946 3.05448 121.333 6 121.333C8.94552 121.333 11.3333 118.946 11.3333 116C11.3333 113.054 8.94552 110.667 6 110.667C3.05448 110.667 0.666667 113.054 0.666667 116ZM5 6V116H7V6H5Z" fill="#5F504D"/>
</svg>
