<svg width="385" height="137" viewBox="0 0 385 137" fill="none" xmlns="http://www.w3.org/2000/svg">
<g clip-path="url(#clip0_939_9668)">
<path d="M53.9729 85.4572C53.4713 85.0113 53.0741 84.6561 52.7638 84.4121C50.5681 82.677 47.0437 81.892 45.1394 81.5773L44.7736 81.5165L44.6912 81.2275C43.7168 78.8717 46.7437 78.7294 46.7437 78.7294L47.1926 77.9831L46.5448 73.0325L46.8216 72.2418C46.8784 72.0887 46.9608 71.9468 47.0445 71.8097C47.1923 71.5653 47.2825 71.395 47.2274 71.2831C47.1453 71.1194 46.7004 70.6895 44.303 70.2218C43.2139 70.0085 42.1881 69.9049 41.2496 69.912C39.0424 69.9327 38.0444 70.5702 38.0346 70.5769C37.3655 71.0203 37.0023 71.6634 36.9296 72.5449C36.6977 75.315 39.449 79.3609 40.443 80.257C41.1144 80.8633 39.8829 81.2793 39.8829 81.2793L36.7814 81.1832C28.9602 81.0093 26.0799 81.7553 17.955 73.7379C17.7007 73.4872 17.5089 73.299 17.3884 73.1875C16.9965 72.8377 16.6369 72.6534 16.3459 72.656C16.196 72.656 16.087 72.7089 16.0283 72.7457C16.8284 80.9185 29.357 84.3085 32.0475 86.1615C34.6787 87.9737 36.2573 99.9287 36.1356 100.32C35.7111 101.693 33.1011 129.109 36.2112 134.893C36.4459 135.33 36.8765 135.471 37.2509 135.474C37.3558 135.475 37.4738 135.461 37.6276 135.426C37.6664 135.418 38.037 132.473 38.7972 124.029C40.025 110.382 40.6904 106.681 42.0031 106.479L42.1628 106.468C42.1766 106.468 42.1828 106.465 42.1946 106.464C42.2065 106.465 42.2125 106.468 42.2264 106.468L42.386 106.479C43.6988 106.681 44.3642 110.382 45.5921 124.029C46.3522 132.473 46.7228 135.418 46.7615 135.426C46.9159 135.461 47.0334 135.475 47.1388 135.474C47.5131 135.471 47.9438 135.33 48.178 134.893C51.2882 129.109 48.6781 101.693 48.2536 100.32C48.1324 99.9287 48.2789 98.7601 48.5316 97.3511H48.5589C49.0577 94.4973 49.9868 90.6402 50.0717 90.1331C50.6346 86.7659 56.5062 101.338 58.2856 103.122L58.9583 100.173C56.2046 92.6644 55.4988 86.82 53.9729 85.4572Z" fill="#535050"/>
<path d="M79.6869 85.4518C78.6627 83.5825 75.057 83.3731 72.1845 82.6898H71.964C71.7502 82.5164 71.6162 82.2731 71.9395 81.981C72.9025 81.1127 75.5677 77.193 75.3431 74.5095C75.273 73.6558 74.9206 73.0326 74.2724 72.6031C74.263 72.5964 73.2961 71.9788 71.1579 71.9589C70.2487 71.9522 69.2552 72.0528 68.2 72.2593C65.8773 72.712 65.4462 73.1287 65.3667 73.2871C65.3136 73.3956 65.401 73.5608 65.5438 73.7974C65.6254 73.9303 65.705 74.0676 65.7601 74.2159L66.0284 74.9818L65.4005 79.778L65.9806 80.5425C65.9806 80.5425 68.7678 80.6389 67.824 82.9211L67.8184 82.9406C65.2074 83.4576 62.3749 83.8296 61.4859 85.4518C58.408 91.0691 57.7863 101.17 57.7348 101.197C57.6838 103.874 59.3187 103.604 59.8261 101.334C61.9891 91.6623 63.0677 90.3667 63.4427 90.2721C64.2673 94.9738 64.66 101.209 64.5951 101.418C64.184 102.748 61.6552 129.307 64.6682 134.911C64.8956 135.334 65.3128 135.471 65.6753 135.474C65.7768 135.475 65.8912 135.461 66.0406 135.427C66.0781 135.419 66.4374 132.566 67.1734 124.386C68.3632 111.165 69.0074 107.579 70.2798 107.385L70.4341 107.374C70.4476 107.374 70.4536 107.37 70.4651 107.369C70.4761 107.37 70.4823 107.374 70.4958 107.374L70.65 107.385C71.9224 107.579 72.5665 111.165 73.7565 124.386C74.4929 132.566 74.8516 135.419 74.8893 135.427C75.0386 135.461 75.1525 135.475 75.2546 135.474C75.617 135.471 76.0343 135.334 76.2616 134.911C79.2745 129.307 76.7457 102.748 76.3347 101.418C76.2172 101.039 76.3592 99.9064 76.6037 98.541H76.6307C77.0262 96.2799 77.2935 91.571 77.5707 90.3172C77.5707 90.3172 78.5573 88.8612 81.3467 101.334C81.8544 103.604 83.4889 103.874 83.4378 101.197C83.3868 101.17 82.7647 91.0691 79.6869 85.4518Z" fill="#535050"/>
<path d="M98.6633 131.766C98.6633 131.808 98.5175 135.916 100.764 136.461C101.124 136.296 102.81 124.54 102.973 113.417L97.9121 113.807C98.6093 117.977 98.9391 124.082 98.6633 131.766Z" fill="#535050"/>
<path d="M91.6441 115.077C91.6527 115.228 91.6645 115.361 91.6751 115.501C91.914 125.774 93.5186 136.309 93.8676 136.46C96.1148 135.944 95.969 132.05 95.969 132.01C95.6915 124.681 96.1197 118.332 96.9042 113.949L98.8873 113.784L91.6282 114.314C91.6352 114.567 91.631 114.833 91.6441 115.077Z" fill="#535050"/>
<path d="M90.9174 75.1263C90.9174 75.1263 89.6401 73.5078 91.2962 72.7976C92.9527 72.0877 95.5015 72.7976 95.5015 72.7976L96.1746 75.6406L93.3111 75.8914L90.9174 75.1263Z" fill="#535050"/>
<path d="M120.604 74.6203C120.33 74.6177 119.993 74.7908 119.626 75.1185C119.513 75.2229 119.333 75.3993 119.095 75.6343C112.59 82.0539 109.86 82.3509 103.54 83.4175C103.324 83.2166 103.123 83.006 102.93 82.7913C101.77 81.1777 101.21 77.716 101.127 76.422C101.031 74.918 100.248 73.7378 100.248 73.7378L100.233 73.7437C100.051 73.315 99.7716 72.9591 99.3638 72.6889C99.354 72.6817 98.3633 72.0495 96.1725 72.0285C95.241 72.0217 94.2228 72.1246 93.1416 72.3363C90.7617 72.8007 91.3773 72.6347 91.2953 72.7974C91.2409 72.9088 90.645 73.6146 90.7915 73.8567C90.8752 73.993 90.5854 74.189 90.6417 74.3414L90.9165 75.126L90.867 80.0121L91.5569 80.889L93.4808 81.1545C93.7074 81.3396 94.4111 81.0692 93.4979 83.2778C93.4979 83.2778 91.3805 84.4333 89.1265 85.8235C86.8409 87.2324 86.2821 88.3966 85.6636 89.3708C85.3313 89.8941 83.4496 94.6889 82.198 100.185L83.2107 102.693C85.2142 99.822 86.5017 93.8608 88.4317 91.3908C88.4317 91.3908 90.3131 89.4553 91.0769 90.8394C91.0769 90.8398 91.0769 90.8398 91.0769 90.8398C91.0871 90.8551 91.0957 90.8777 91.1058 90.8939C91.1512 90.9843 91.1928 91.0842 91.2287 91.2017C91.3124 91.4765 91.6144 93.2706 91.85 95.1184C91.9349 96.8085 91.9002 98.3207 91.9002 98.3218C91.7679 98.8282 91.6851 99.0111 90.8083 102.1C90.0409 104.569 89.6901 107.859 89.6028 111.404C89.5424 112.47 89.5338 113.493 89.5633 114.471L96.8223 113.984L100.222 113.724C100.224 113.734 100.226 113.746 100.228 113.757L105.288 113.417C105.369 108.637 105.079 103.99 104.072 100.757C104.03 100.455 99.3789 91.8639 106.576 87.199C109.363 85.3922 120.372 81.8696 120.902 74.7044C120.846 74.6699 120.744 74.6203 120.604 74.6203Z" fill="#535050"/>
<path d="M144.928 100.43C138.24 101.277 133.501 102.658 130.711 104.571C128.63 106.023 127.591 108.082 127.591 110.745C127.591 112.61 128.13 114.068 129.21 115.121C130.29 116.175 131.698 116.701 133.436 116.701C136.542 116.701 139.235 115.618 141.512 113.451C143.789 111.285 144.928 108.566 144.928 105.296V100.43ZM157.882 114.776L159.304 116.81C157.381 118.626 155.249 119.534 152.906 119.534C151.114 119.534 149.609 119.086 148.384 118.19C147.159 117.296 146.086 115.721 145.165 113.469C142.664 115.891 140.466 117.507 138.569 118.318C136.675 119.128 134.397 119.534 131.737 119.534C127.946 119.534 125.064 118.784 123.089 117.282C121.114 115.782 120.126 113.857 120.126 111.508C120.126 107.973 122.384 105.037 126.9 102.7C131.414 100.363 137.425 98.8074 144.928 98.0326V92.8747C144.928 91.0348 144.124 89.461 142.519 88.1531C140.913 86.846 138.872 86.1924 136.398 86.1924C134.107 86.1924 132.133 86.6278 130.474 87.4995C129.289 88.1531 128.696 88.7955 128.696 89.4247C128.696 89.7873 129.013 90.3568 129.645 91.132C130.408 92.1006 130.789 92.96 130.789 93.7108C130.789 94.8002 130.408 95.69 129.645 96.38C128.88 97.0696 127.88 97.4158 126.644 97.4158C125.326 97.4158 124.228 97.0039 123.346 96.1803C122.464 95.3573 122.023 94.3035 122.023 93.02C122.023 90.6233 123.49 88.4317 126.425 86.4465C129.362 84.4613 133.211 83.4683 137.978 83.4683C142.374 83.4683 145.732 84.3396 148.048 86.0827C150.364 87.851 151.523 89.9941 151.523 92.5121V111.108C151.523 112.755 151.814 113.965 152.393 114.74C152.971 115.539 153.722 115.938 154.643 115.938C155.671 115.938 156.749 115.551 157.882 114.776Z" fill="#535050"/>
<path d="M187.194 108.419L189.76 109.109C187.707 116.06 183.177 119.534 176.173 119.534C171.04 119.534 166.84 117.972 163.576 114.849C160.311 111.725 158.678 107.573 158.678 102.391C158.678 96.3855 160.469 91.7304 164.049 88.4252C167.63 85.1196 171.843 83.4678 176.687 83.4678C180.323 83.4678 183.324 84.388 185.691 86.2283C188.062 88.0682 189.247 90.1142 189.247 92.3656C189.247 93.7223 188.805 94.8422 187.922 95.7259C187.042 96.6104 185.993 97.0511 184.785 97.0511C183.6 97.0511 182.599 96.6772 181.784 95.9298C180.965 95.1816 180.557 94.2761 180.557 93.2136C180.557 92.1523 181.006 91.1394 181.901 90.1732C182.32 89.7148 182.531 89.3528 182.531 89.0875C182.531 88.3869 182.018 87.7056 180.991 87.0415C179.964 86.3784 178.569 86.0458 176.806 86.0458C173.593 86.0458 171.158 87.1229 169.5 89.2748C167.13 92.3953 165.946 96.506 165.946 101.609C165.946 106.47 166.998 110.153 169.105 112.656C171.212 115.159 173.896 116.41 177.161 116.41C181.663 116.41 185.008 113.748 187.194 108.419Z" fill="#535050"/>
<path d="M199.715 70.6103H202.36V84.4845H214.328V87.8261H202.36V109.655C202.36 111.544 202.847 112.99 203.821 113.995C204.795 115 206.034 115.502 207.534 115.502C209.323 115.502 210.852 114.74 212.115 113.214C213.38 111.688 214.117 109.17 214.328 105.659H216.973C216.816 110.188 215.697 113.548 213.616 115.739C211.535 117.93 208.836 119.026 205.52 119.026C202.466 119.026 200.076 118.258 198.353 116.719C196.627 115.183 195.764 113.166 195.764 110.672V87.8261H189.328V85.2838C192.261 84.8238 194.495 83.698 196.027 81.9053C198.299 79.2181 199.528 75.4528 199.715 70.6103Z" fill="#535050"/>
<path d="M215.873 84.4847L230.604 84.0853V113.359C230.604 114.159 230.815 114.727 231.236 115.067C231.842 115.551 232.605 115.793 233.525 115.793H237.713V118.518H216.663V115.793H220.573C221.732 115.793 222.579 115.533 223.119 115.013C223.66 114.493 223.929 113.735 223.929 112.743V91.3132C223.929 89.9575 223.508 88.9338 222.667 88.2437C221.822 87.5538 220.573 87.2084 218.914 87.2084H215.873V84.4847Z" fill="#535050"/>
<path d="M246.961 70.6108H249.605V84.4849H261.573V87.8266H249.605V109.655C249.605 111.544 250.092 112.991 251.066 113.995C252.04 115 253.279 115.503 254.779 115.503C256.568 115.503 258.097 114.74 259.361 113.215C260.625 111.689 261.362 109.17 261.573 105.66H264.218C264.061 110.188 262.942 113.548 260.861 115.739C258.781 117.931 256.081 119.026 252.766 119.026C249.711 119.026 247.321 118.258 245.598 116.72C243.873 115.183 243.009 113.167 243.009 110.673V87.8266H236.573V85.2843C239.507 84.8243 241.74 83.6985 243.272 81.9058C245.545 79.2186 246.774 75.4533 246.961 70.6108Z" fill="#535050"/>
<path d="M276.504 83.8675V106.422C276.504 109.183 277.259 111.313 278.769 112.815C280.28 114.316 282.231 115.067 284.623 115.067C287.563 115.067 290.066 113.972 292.13 111.78C294.191 109.589 295.223 106.846 295.223 103.553V90.8045C295.223 89.6421 294.769 88.7404 293.861 88.0989C292.953 87.4576 291.208 87.0998 288.628 87.027V84.4847L301.621 83.8675V111.798C301.621 113.082 302.016 114.068 302.806 114.758C303.595 115.448 304.702 115.793 306.123 115.793H308.454V118.226L296.012 118.481L295.223 111.798C293.015 114.196 290.794 116 288.558 117.21C286.323 118.42 284.064 119.026 281.776 119.026C278.439 119.026 275.64 117.996 273.379 115.938C271.09 113.904 269.948 110.454 269.948 105.588V90.8045C269.948 89.4972 269.383 88.5042 268.25 87.8263C267.461 87.342 265.841 87.0754 263.393 87.027V84.4847L276.504 83.8675Z" fill="#535050"/>
<path d="M327.061 86.4824C324.219 86.4824 321.958 87.5595 320.289 89.7148C318.615 91.87 317.779 95.5018 317.779 100.611C317.779 106.156 318.635 110.061 320.347 112.324C322.059 114.589 324.256 115.721 326.942 115.721C329.812 115.721 332.267 114.456 334.308 111.924C336.348 109.395 337.369 105.696 337.369 100.829C337.369 96.2285 336.277 92.608 334.091 89.9692C332.195 87.6447 329.851 86.4824 327.061 86.4824ZM329.351 64.7988L343.806 64.1808V110.744C343.806 112.561 344.181 113.856 344.932 114.631C345.683 115.406 346.808 115.793 348.308 115.793H350.876V118.517H338.237L337.291 111.579C335.79 114.049 334.032 115.908 332.018 117.155C330.004 118.402 327.745 119.026 325.244 119.026C321.033 119.026 317.444 117.403 314.482 114.159C311.52 110.914 310.038 106.628 310.038 101.301C310.038 95.5382 311.936 90.9379 315.726 87.499C318.701 84.8114 322.125 83.4678 325.994 83.4678C328.363 83.4678 330.491 84.0122 332.373 85.1024C334.255 86.1919 335.894 87.8385 337.291 90.0413V70.8279C337.291 69.8107 336.862 69.0061 336.006 68.4126C335.15 67.8194 333.815 67.5229 331.998 67.5229H329.351V64.7988Z" fill="#535050"/>
<path d="M358.185 99.1578H374.219C375.167 99.1578 375.902 98.862 376.431 98.2681C376.956 97.6761 377.22 96.6643 377.22 95.2354C377.22 92.5726 376.317 90.3089 374.515 88.4435C372.71 86.5791 370.585 85.6466 368.137 85.6466C365.398 85.6466 363.074 86.7725 361.166 89.025C359.257 91.2767 358.263 94.654 358.185 99.1578ZM384.683 101.737H358.185C358.315 106.918 359.368 110.576 361.343 112.706C363.608 115.103 366.491 116.302 369.992 116.302C375.153 116.302 379.3 113.602 382.434 108.202L385.001 109.219C381.156 116.097 375.6 119.534 368.334 119.534C363.383 119.534 359.218 117.888 355.835 114.595C352.45 111.302 350.76 107.088 350.76 101.955C350.76 96.4342 352.424 91.9727 355.756 88.5711C359.085 85.1695 363.186 83.4681 368.057 83.4681C371.638 83.4681 374.732 84.3154 377.339 86.0104C379.945 87.7058 381.905 90.1388 383.223 93.3103C384.143 95.5385 384.631 98.3476 384.683 101.737Z" fill="#535050"/>
<path d="M203.547 135.345H202.478V127.544H199.298V126.635H206.727V127.544H203.547V135.345Z" fill="#C10230"/>
<path d="M211.517 127.731L209.352 132.173H213.668L211.517 127.731ZM216.347 135.345H215.196L214.088 133.044H208.932L207.809 135.345H206.713L211.029 126.572H212.03L216.347 135.345Z" fill="#C10230"/>
<path d="M226.277 135.345H224.939L221.298 131.128L219.282 133.007V135.345H218.213V126.635H219.282V131.837L224.722 126.635H226.102L222.043 130.443L226.277 135.345Z" fill="#C10230"/>
<path d="M234.788 127.532H229.011V130.505H234.18V131.401H229.011V134.451H234.856V135.345H227.942V126.635H234.788V127.532Z" fill="#C10230"/>
<path d="M245.059 127.731L242.894 132.173H247.209L245.059 127.731ZM249.889 135.345H248.738L247.628 133.044H242.474L241.351 135.345H240.255L244.572 126.572H245.573L249.889 135.345Z" fill="#C10230"/>
<path d="M258.554 134.593C258.289 134.78 258.001 134.94 257.694 135.072C257.388 135.206 257.059 135.309 256.708 135.383C256.355 135.459 255.962 135.496 255.53 135.496C254.844 135.496 254.212 135.379 253.636 135.147C253.058 134.914 252.558 134.597 252.134 134.195C251.71 133.793 251.378 133.318 251.14 132.771C250.899 132.222 250.78 131.633 250.78 131.004C250.78 130.381 250.899 129.796 251.14 129.25C251.378 128.701 251.71 128.223 252.134 127.812C252.558 127.401 253.063 127.078 253.649 126.841C254.236 126.605 254.876 126.487 255.571 126.487C256.003 126.487 256.393 126.52 256.741 126.586C257.088 126.652 257.411 126.745 257.709 126.865C258.005 126.986 258.281 127.133 258.533 127.301C258.786 127.472 259.031 127.66 259.264 127.868L258.533 128.589C258.128 128.242 257.692 127.954 257.228 127.732C256.764 127.507 256.206 127.395 255.557 127.395C255.033 127.395 254.55 127.486 254.102 127.669C253.656 127.852 253.268 128.104 252.939 128.427C252.609 128.751 252.352 129.132 252.167 129.567C251.982 130.002 251.891 130.472 251.891 130.978C251.891 131.485 251.982 131.958 252.167 132.397C252.352 132.836 252.609 133.219 252.939 133.542C253.268 133.865 253.656 134.12 254.102 134.307C254.55 134.494 255.033 134.587 255.557 134.587C256.206 134.587 256.766 134.477 257.235 134.258C257.703 134.038 258.164 133.728 258.615 133.33L259.318 133.965C259.076 134.197 258.819 134.407 258.554 134.593Z" fill="#C10230"/>
<path d="M264.758 135.345H263.69V127.544H260.51V126.635H267.938V127.544H264.758V135.345Z" fill="#C10230"/>
<path d="M271.117 126.635V135.345H270.048V126.635H271.117Z" fill="#C10230"/>
<path d="M281.746 129.597C281.561 129.158 281.301 128.776 280.969 128.453C280.633 128.129 280.24 127.872 279.784 127.68C279.328 127.491 278.83 127.395 278.288 127.395C277.748 127.395 277.249 127.488 276.794 127.675C276.338 127.861 275.948 128.117 275.623 128.441C275.298 128.764 275.043 129.142 274.858 129.577C274.673 130.014 274.581 130.481 274.581 130.978C274.581 131.476 274.673 131.945 274.858 132.384C275.043 132.824 275.304 133.207 275.637 133.529C275.971 133.853 276.365 134.11 276.821 134.3C277.277 134.492 277.775 134.587 278.316 134.587C278.857 134.587 279.356 134.494 279.811 134.307C280.266 134.12 280.657 133.865 280.981 133.542C281.306 133.219 281.561 132.838 281.746 132.403C281.931 131.968 282.024 131.501 282.024 131.004C282.024 130.505 281.931 130.037 281.746 129.597ZM282.781 132.701C282.546 133.246 282.217 133.725 281.793 134.14C281.37 134.554 280.86 134.885 280.264 135.129C279.67 135.373 279.01 135.496 278.288 135.496C277.567 135.496 276.911 135.376 276.32 135.134C275.729 134.894 275.222 134.569 274.799 134.158C274.374 133.747 274.047 133.27 273.817 132.727C273.587 132.183 273.472 131.609 273.472 131.004C273.472 130.398 273.589 129.824 273.824 129.28C274.058 128.736 274.387 128.257 274.811 127.843C275.235 127.428 275.746 127.098 276.34 126.853C276.936 126.609 277.594 126.487 278.316 126.487C279.037 126.487 279.694 126.607 280.285 126.847C280.876 127.088 281.382 127.413 281.808 127.823C282.231 128.234 282.557 128.712 282.788 129.255C283.018 129.799 283.133 130.373 283.133 130.978C283.133 131.584 283.016 132.159 282.781 132.701Z" fill="#C10230"/>
<path d="M292.36 126.635H293.402V135.345H292.55L286.433 128.204V135.345H285.392V126.635H286.393L292.36 133.617V126.635Z" fill="#C10230"/>
<path d="M304.469 136.939V125.416H305.349V136.939H304.469Z" fill="#535050"/>
<path d="M323.35 129.647C323.166 129.224 322.903 128.856 322.565 128.545C322.226 128.234 321.815 127.99 321.328 127.812C320.84 127.633 320.298 127.544 319.704 127.544H317.484V134.437H319.704C320.298 134.437 320.84 134.351 321.328 134.177C321.815 134.002 322.226 133.76 322.565 133.448C322.903 133.137 323.166 132.775 323.35 132.36C323.535 131.945 323.628 131.493 323.628 131.003C323.628 130.522 323.535 130.069 323.35 129.647ZM324.372 132.701C324.128 133.236 323.782 133.699 323.337 134.09C322.89 134.479 322.357 134.786 321.739 135.01C321.123 135.233 320.442 135.345 319.704 135.345H316.416V126.635H319.704C320.442 126.635 321.123 126.745 321.739 126.965C322.357 127.184 322.89 127.491 323.337 127.88C323.782 128.269 324.128 128.731 324.372 129.26C324.615 129.792 324.737 130.364 324.737 130.977C324.737 131.592 324.615 132.166 324.372 132.701Z" fill="#C10230"/>
<path d="M334.85 129.597C334.666 129.158 334.406 128.776 334.073 128.453C333.739 128.129 333.344 127.872 332.889 127.68C332.434 127.491 331.935 127.395 331.394 127.395C330.853 127.395 330.355 127.488 329.899 127.675C329.442 127.861 329.053 128.117 328.729 128.441C328.404 128.764 328.149 129.142 327.964 129.577C327.78 130.014 327.687 130.481 327.687 130.978C327.687 131.476 327.78 131.945 327.964 132.384C328.149 132.824 328.408 133.207 328.742 133.529C329.076 133.853 329.471 134.11 329.925 134.3C330.382 134.492 330.879 134.587 331.421 134.587C331.963 134.587 332.46 134.494 332.916 134.307C333.372 134.12 333.761 133.865 334.086 133.542C334.411 133.219 334.666 132.838 334.85 132.403C335.036 131.968 335.128 131.501 335.128 131.004C335.128 130.505 335.036 130.037 334.85 129.597ZM335.887 132.701C335.652 133.246 335.322 133.725 334.898 134.14C334.474 134.554 333.965 134.885 333.369 135.129C332.774 135.373 332.115 135.496 331.394 135.496C330.672 135.496 330.016 135.376 329.426 135.134C328.834 134.894 328.327 134.569 327.903 134.158C327.48 133.747 327.152 133.27 326.922 132.727C326.693 132.183 326.577 131.609 326.577 131.004C326.577 130.398 326.695 129.824 326.929 129.28C327.163 128.736 327.492 128.257 327.917 127.843C328.341 127.428 328.85 127.098 329.445 126.853C330.041 126.609 330.699 126.487 331.421 126.487C332.143 126.487 332.798 126.607 333.39 126.847C333.98 127.088 334.489 127.413 334.912 127.823C335.335 128.234 335.663 128.712 335.892 129.255C336.123 129.799 336.237 130.373 336.237 130.978C336.237 131.584 336.12 132.159 335.887 132.701Z" fill="#C10230"/>
<path d="M349.125 135.104C348.48 135.365 347.756 135.496 346.953 135.496C346.205 135.496 345.535 135.379 344.944 135.147C344.353 134.914 343.848 134.595 343.428 134.189C343.009 133.782 342.688 133.306 342.468 132.758C342.246 132.211 342.137 131.626 342.137 131.004C342.137 130.406 342.252 129.833 342.482 129.286C342.711 128.738 343.033 128.257 343.449 127.843C343.863 127.428 344.363 127.098 344.944 126.853C345.526 126.609 346.173 126.487 346.886 126.487C347.282 126.487 347.645 126.511 347.975 126.562C348.303 126.611 348.611 126.686 348.895 126.785C349.179 126.885 349.445 127.007 349.693 127.152C349.942 127.297 350.182 127.46 350.417 127.644L349.728 128.39C349.547 128.242 349.357 128.106 349.159 127.986C348.961 127.866 348.746 127.762 348.515 127.675C348.287 127.588 348.034 127.519 347.759 127.47C347.483 127.419 347.179 127.395 346.846 127.395C346.322 127.395 345.839 127.491 345.397 127.682C344.955 127.873 344.577 128.131 344.26 128.454C343.945 128.778 343.697 129.158 343.516 129.595C343.335 130.031 343.245 130.495 343.245 130.984C343.245 131.508 343.333 131.992 343.51 132.437C343.685 132.882 343.936 133.266 344.26 133.589C344.586 133.914 344.978 134.168 345.438 134.35C345.899 134.534 346.417 134.624 346.994 134.624C347.535 134.624 348.044 134.54 348.523 134.368C349 134.197 349.403 133.991 349.728 133.749V131.576H346.846V130.704H350.756V134.168C350.313 134.532 349.77 134.844 349.125 135.104Z" fill="#C10230"/>
<path d="M361.018 129.597C360.835 129.158 360.574 128.776 360.241 128.453C359.907 128.129 359.513 127.872 359.056 127.68C358.601 127.491 358.103 127.395 357.562 127.395C357.02 127.395 356.523 127.488 356.066 127.675C355.612 127.861 355.221 128.117 354.896 128.441C354.571 128.764 354.316 129.142 354.131 129.577C353.947 130.014 353.855 130.481 353.855 130.978C353.855 131.476 353.947 131.945 354.131 132.384C354.316 132.824 354.576 133.207 354.91 133.529C355.244 133.853 355.638 134.11 356.093 134.3C356.549 134.492 357.048 134.587 357.589 134.587C358.13 134.587 358.629 134.494 359.084 134.307C359.539 134.12 359.93 133.865 360.255 133.542C360.579 133.219 360.835 132.838 361.018 132.403C361.203 131.968 361.296 131.501 361.296 131.004C361.296 130.505 361.203 130.037 361.018 129.597ZM362.054 132.701C361.819 133.246 361.49 133.725 361.065 134.14C360.642 134.554 360.133 134.885 359.537 135.129C358.942 135.373 358.283 135.496 357.562 135.496C356.839 135.496 356.183 135.376 355.593 135.134C355.002 134.894 354.495 134.569 354.071 134.158C353.647 133.747 353.32 133.27 353.089 132.727C352.86 132.183 352.744 131.609 352.744 131.004C352.744 130.398 352.862 129.824 353.096 129.28C353.331 128.736 353.66 128.257 354.085 127.843C354.508 127.428 355.018 127.098 355.613 126.853C356.209 126.609 356.868 126.487 357.589 126.487C358.311 126.487 358.966 126.607 359.558 126.847C360.148 127.088 360.656 127.413 361.08 127.823C361.503 128.234 361.83 128.712 362.06 129.255C362.29 129.799 362.405 130.373 362.405 130.978C362.405 131.584 362.288 132.159 362.054 132.701Z" fill="#C10230"/>
<path d="M372.518 129.597C372.333 129.158 372.074 128.776 371.741 128.453C371.408 128.129 371.013 127.872 370.557 127.68C370.102 127.491 369.603 127.395 369.063 127.395C368.521 127.395 368.022 127.488 367.567 127.675C367.11 127.861 366.721 128.117 366.397 128.441C366.072 128.764 365.817 129.142 365.632 129.577C365.448 130.014 365.355 130.481 365.355 130.978C365.355 131.476 365.448 131.945 365.632 132.384C365.817 132.824 366.076 133.207 366.409 133.529C366.744 133.853 367.139 134.11 367.593 134.3C368.05 134.492 368.547 134.587 369.089 134.587C369.631 134.587 370.128 134.494 370.584 134.307C371.04 134.12 371.429 133.865 371.754 133.542C372.079 133.219 372.333 132.838 372.518 132.403C372.704 131.968 372.796 131.501 372.796 131.004C372.796 130.505 372.704 130.037 372.518 129.597ZM373.554 132.701C373.32 133.246 372.99 133.725 372.566 134.14C372.142 134.554 371.633 134.885 371.038 135.129C370.442 135.373 369.784 135.496 369.063 135.496C368.34 135.496 367.684 135.376 367.094 135.134C366.502 134.894 365.995 134.569 365.571 134.158C365.147 133.747 364.82 133.27 364.59 132.727C364.361 132.183 364.245 131.609 364.245 131.004C364.245 130.398 364.363 129.824 364.597 129.28C364.831 128.736 365.161 128.257 365.584 127.843C366.009 127.428 366.518 127.098 367.114 126.853C367.709 126.609 368.368 126.487 369.089 126.487C369.81 126.487 370.466 126.607 371.059 126.847C371.648 127.088 372.157 127.413 372.58 127.823C373.003 128.234 373.331 128.712 373.56 129.255C373.791 129.799 373.905 130.373 373.905 130.978C373.905 131.584 373.788 132.159 373.554 132.701Z" fill="#C10230"/>
<path d="M383.099 129.647C382.914 129.224 382.652 128.856 382.314 128.545C381.976 128.234 381.564 127.99 381.077 127.812C380.59 127.633 380.048 127.544 379.453 127.544H377.234V134.437H379.453C380.048 134.437 380.59 134.351 381.077 134.177C381.564 134.002 381.976 133.76 382.314 133.448C382.652 133.137 382.914 132.775 383.099 132.36C383.284 131.945 383.377 131.493 383.377 131.003C383.377 130.522 383.284 130.069 383.099 129.647ZM384.121 132.701C383.877 133.236 383.532 133.699 383.086 134.09C382.64 134.479 382.107 134.786 381.489 135.01C380.871 135.233 380.193 135.345 379.453 135.345H376.164V126.635H379.453C380.193 126.635 380.871 126.745 381.489 126.965C382.107 127.184 382.64 127.491 383.086 127.88C383.532 128.269 383.877 128.731 384.121 129.26C384.364 129.792 384.485 130.364 384.485 130.977C384.485 131.592 384.364 132.166 384.121 132.701Z" fill="#C10230"/>
<path d="M19.7891 56.1893C20.666 56.7194 21.6118 57.0194 22.5086 56.8027C23.6965 56.5156 24.1414 55.1802 23.8944 54.1624C23.6813 53.2858 23.083 52.5595 22.4727 51.8882C23.6646 52.2598 26.5653 52.0248 26.8629 50.4109C26.9287 50.0535 26.7155 49.7153 26.482 49.4404C25.0762 47.7853 22.9057 47.3543 20.7354 47.4084C20.2842 47.4196 14.9135 48.2786 14.8887 47.9887C15.8479 50.2886 15.9292 49.6519 17.0179 52.7858C17.3656 53.7878 18.5449 55.4374 19.7891 56.1893Z" fill="#C10230"/>
<path d="M130.92 59.3709C130.427 58.519 130.19 57.6252 130.508 56.8241C130.928 55.7628 132.415 55.4786 133.494 55.7992C134.423 56.0751 135.155 56.6904 135.825 57.3113C135.533 56.1851 136.056 53.5508 137.83 53.4277C138.224 53.4003 138.57 53.627 138.846 53.8661C140.508 55.3066 140.774 57.3342 140.515 59.3168C140.46 59.7286 139.034 64.567 139.345 64.6169C136.944 63.5256 137.641 63.5102 134.348 62.2236C133.296 61.8122 131.62 60.5801 130.92 59.3709Z" fill="#C10230"/>
<path d="M120.383 52.1391C119.35 51.969 118.44 51.5891 117.951 50.8646C117.303 49.9046 117.978 48.6533 118.918 48.071C119.728 47.5695 120.706 47.4205 121.651 47.3195C120.508 46.8348 118.579 44.8297 119.569 43.4703C119.789 43.1689 120.196 43.0581 120.572 43.0063C122.83 42.694 124.728 43.7538 126.263 45.1661C126.581 45.4593 129.839 49.48 130.073 49.2851C127.657 50.348 128.075 49.8344 124.941 51.4213C123.939 51.9284 121.849 52.38 120.383 52.1391Z" fill="#C10230"/>
<path d="M103.422 57.6923C102.808 58.475 102.041 59.0655 101.119 59.1571C99.8975 59.278 98.9643 58.1762 98.8007 57.1446C98.6598 56.2559 98.9374 55.3808 99.2476 54.5534C98.2777 55.2914 95.4766 56.0228 94.5733 54.6124C94.3729 54.3 94.441 53.9141 94.5529 53.5808C95.2248 51.5734 97.0858 50.4591 99.1345 49.7984C99.5603 49.661 104.911 48.703 104.822 48.424C104.817 50.8875 104.494 50.3191 104.692 53.604C104.755 54.654 104.293 56.5818 103.422 57.6923Z" fill="#C10230"/>
<path d="M8.06571 61.7748C9.1001 61.9366 10.0973 61.8626 10.8244 61.3334C11.7873 60.6321 11.6122 59.2445 10.9423 58.4036C10.3651 57.6794 9.49974 57.2345 8.64781 56.8448C9.90181 56.7453 12.4563 55.4599 12.0253 53.8723C11.9293 53.5202 11.5869 53.2889 11.253 53.1234C9.24297 52.1259 7.06683 52.5318 5.10255 53.382C4.69435 53.5588 0.149403 56.3268 0 56.0708C1.88182 57.8236 1.67854 57.2101 4.04245 59.6797C4.79844 60.4687 6.5978 61.5451 8.06571 61.7748Z" fill="#C10230"/>
<path d="M37.0848 57.6925C37.6987 58.4752 38.4658 59.0658 39.3879 59.1574C40.6093 59.2783 41.5424 58.1764 41.7061 57.1448C41.8469 56.2561 41.5689 55.3811 41.2591 54.5537C42.229 55.2917 45.03 56.0231 45.9335 54.6126C46.1339 54.3003 46.0658 53.9143 45.9538 53.581C45.282 51.5736 43.421 50.4594 41.3721 49.7986C40.9464 49.6612 35.5957 48.7032 35.6847 48.4242C35.6896 50.8877 36.012 50.3193 35.8145 53.6043C35.7512 54.6542 36.2137 56.582 37.0848 57.6925Z" fill="#C10230"/>
<path d="M49.1169 66.0796C49.3263 67.0252 49.7611 67.8542 50.5603 68.2863C51.6192 68.8591 52.963 68.2082 53.5737 67.3297C54.0998 66.5733 54.2382 65.6707 54.326 64.7994C54.8799 65.8389 57.1055 67.5658 58.5599 66.6225C58.882 66.4133 58.9925 66.036 59.0399 65.6903C59.3261 63.606 58.1289 61.8862 56.5573 60.5085C56.2307 60.222 51.7833 57.3234 51.989 57.103C50.891 59.3499 51.4396 58.9539 49.7892 61.8727C49.2614 62.806 48.8202 64.7378 49.1169 66.0796Z" fill="#C10230"/>
<path d="M25.7971 25.1224C26.3624 25.9355 27.0928 26.564 28.0076 26.7034C29.2195 26.8869 30.2184 25.8346 30.4445 24.813C30.6392 23.9326 30.4151 23.0446 30.1559 22.2027C31.0792 22.9898 33.8314 23.8634 34.8192 22.5026C35.0384 22.2008 34.9935 21.8116 34.9025 21.4733C34.3534 19.4349 32.563 18.2258 30.558 17.4608C30.1412 17.3023 24.857 16.0702 24.9632 15.7963C24.8178 18.2566 25.1746 17.7049 24.7774 20.9745C24.6505 22.0201 24.9949 23.9682 25.7971 25.1224Z" fill="#C10230"/>
<path d="M44.6283 32.8976C44.872 33.8366 45.3369 34.6506 46.1513 35.0581C47.2305 35.5982 48.5498 34.9062 49.1278 34.0095C49.6263 33.2368 49.732 32.3306 49.7875 31.4569C50.379 32.4786 52.6662 34.1354 54.0855 33.1484C54.3998 32.9293 54.4965 32.5487 54.5317 32.2018C54.7411 30.1095 53.4817 28.4277 51.8608 27.0995C51.524 26.8237 46.9729 24.0635 47.171 23.8367C46.1557 26.1163 46.6892 25.704 45.1463 28.6718C44.6531 29.6213 44.2825 31.5656 44.6283 32.8976Z" fill="#C10230"/>
<path d="M65.4453 8.79503C65.3543 9.75705 65.516 10.6643 66.1495 11.288C66.9884 12.1126 68.4775 11.8387 69.3339 11.1564C70.072 10.5672 70.4825 9.73783 70.8352 8.92573C71.0459 10.0665 72.6477 12.3029 74.3332 11.7772C74.7071 11.6609 74.9291 11.3284 75.0814 11.0084C75.9979 9.08431 75.3798 7.12277 74.2976 5.3919C74.0728 5.03246 70.701 1.09307 70.9663 0.935451C69.2208 2.80376 69.869 2.56734 67.3864 4.93636C66.5928 5.69367 65.5744 7.43128 65.4453 8.79503Z" fill="#C10230"/>
<path d="M64.815 44.0625C64.7244 45.024 64.8861 45.9318 65.5192 46.555C66.3581 47.3801 67.8476 47.106 68.7036 46.4232C69.4417 45.8346 69.8527 45.0053 70.2053 44.1925C70.416 45.3337 72.0178 47.5701 73.7033 47.0449C74.0768 46.9282 74.2993 46.5951 74.4515 46.2757C75.368 44.3516 74.75 42.3905 73.6673 40.6599C73.4429 40.2995 70.0706 36.3601 70.3364 36.2025C68.5905 38.0708 69.2387 37.8344 66.7564 40.2034C65.9629 40.9605 64.9441 42.6983 64.815 44.0625Z" fill="#C10230"/>
<path d="M186.649 45.2867C185.864 44.6455 185.303 43.8838 185.298 43.0308C185.292 41.9012 186.578 41.1594 187.711 41.1144C188.686 41.076 189.604 41.4189 190.468 41.7868C189.768 40.8242 189.262 38.187 190.879 37.5037C191.238 37.3528 191.648 37.4537 191.997 37.5902C194.1 38.409 195.117 40.2244 195.624 42.1663C195.728 42.5698 196.221 47.5625 196.532 47.5096C193.868 47.2546 194.516 47.0174 190.942 46.8646C189.8 46.8154 187.761 46.1967 186.649 45.2867Z" fill="#C10230"/>
<path d="M91.3894 66.0796C91.1799 67.0252 90.7452 67.8542 89.946 68.2863C88.8871 68.8591 87.5433 68.2082 86.9326 67.3297C86.4065 66.5733 86.2677 65.6707 86.1803 64.7994C85.6264 65.8389 83.4008 67.5658 81.9464 66.6225C81.6243 66.4133 81.5137 66.036 81.4659 65.6903C81.1802 63.606 82.3775 61.8862 83.9486 60.5085C84.2752 60.222 88.723 57.3234 88.5173 57.103C89.6154 59.3499 89.0667 58.9539 90.7171 61.8727C91.2448 62.806 91.6861 64.7378 91.3894 66.0796Z" fill="#C10230"/>
<path d="M95.8784 32.8976C95.6347 33.8366 95.1697 34.6506 94.355 35.0581C93.2761 35.5982 91.9568 34.9062 91.3784 34.0095C90.8803 33.2368 90.7746 32.3306 90.7191 31.4569C90.1276 32.4786 87.8404 34.1354 86.4211 33.1484C86.1063 32.9293 86.0097 32.5487 85.975 32.2018C85.7655 30.1095 87.0248 28.4277 88.6454 27.0995C88.9826 26.8237 93.5333 24.0635 93.3357 23.8367C94.3509 26.1163 93.8173 25.704 95.3599 28.6718C95.8535 29.6213 96.2241 31.5656 95.8784 32.8976Z" fill="#C10230"/>
<path d="M223.3 71.3C223.497 70.352 223.922 69.519 224.716 69.0782C225.767 68.4941 227.119 69.1308 227.741 70.0026C228.276 70.7534 228.427 71.6544 228.525 72.525C229.065 71.4791 231.269 69.7289 232.735 70.6561C233.06 70.8619 233.175 71.238 233.227 71.5834C233.54 73.6643 232.364 75.3969 230.81 76.7915C230.53 77.043 227.17 79.2956 226.424 80.0292C226.343 80.1087 226.199 80.0723 226.15 79.9725C225.203 78.0379 225.641 78.2767 224.025 75.4994C223.486 74.572 223.02 72.6451 223.3 71.3Z" fill="#C10230"/>
<path d="M32.708 136.438H32.7191L32.7577 136.361C32.7443 136.318 32.7313 136.277 32.7182 136.236C32.715 136.304 32.7112 136.371 32.708 136.438Z" fill="#F88D2A"/>
<path d="M33.0312 132.209C32.9104 133.253 32.8312 134.315 32.7708 135.314C32.8348 135.324 32.8916 135.359 32.9234 135.416C32.9773 135.51 33.034 135.6 33.0924 135.692C33.3046 135.276 33.5256 134.856 33.7521 134.433C33.637 133.665 33.4513 132.768 33.0312 132.209Z" fill="#F88D2A"/>
<path d="M45.5665 136.438C45.5729 136.316 45.5815 136.194 45.5897 136.072C45.6023 135.884 45.6154 135.695 45.6227 135.506C45.6227 135.489 45.6239 135.47 45.6246 135.452C45.465 135.745 45.2968 136.085 45.125 136.438H45.5665Z" fill="#F88D2A"/>
<path d="M56.2764 136.438C56.3009 134.754 56.3743 133.304 56.5045 131.976C56.0009 133.632 55.6175 135.075 55.3184 136.438H56.2764Z" fill="#F88D2A"/>
<path d="M58.0355 135.679C57.9422 135.933 57.8367 136.185 57.7256 136.438H58.0375L58.0355 135.766C58.0355 135.737 58.0355 135.708 58.0355 135.679Z" fill="#F88D2A"/>
<path d="M52.1113 135.481L52.0522 135.503V135.265C52.0522 135.213 52.0522 135.16 52.0522 135.108C51.8827 135.465 51.7048 135.812 51.5313 136.152L51.3855 136.438H52.2037L52.2028 136.432C52.1707 136.112 52.1385 135.795 52.1113 135.481Z" fill="#F88D2A"/>
<path d="M53.199 136.438H53.9139C53.6776 135.58 53.4101 134.67 53.0928 133.642C53.1644 134.485 53.1982 135.399 53.199 136.438Z" fill="#F88D2A"/>
<path d="M60.5371 132.086C61.0686 132.847 61.2282 134.044 61.3511 134.964C61.3894 135.257 61.4245 135.523 61.467 135.74C61.5029 135.919 61.531 136.101 61.5584 136.282L61.5829 136.438H63.7321C63.3839 135.446 62.9741 134.64 62.4524 133.92C62.1001 133.435 61.3261 132.548 60.5371 132.086Z" fill="#F88D2A"/>
<path d="M60.4155 134.657C60.3158 134.912 60.216 135.168 60.1155 135.422L60.0213 135.662C59.9497 135.845 59.8792 136.029 59.8095 136.213L59.7236 136.438H60.3501C60.3471 136.433 60.3443 136.429 60.3407 136.424L60.2217 136.245L60.2274 136.191C60.2832 135.653 60.3452 135.143 60.4155 134.657Z" fill="#F88D2A"/>
<path d="M24.6251 133.012L24.6191 133.042C24.6282 133.04 24.6456 133.042 24.6612 133.038L24.6251 133.012Z" fill="#F88D2A"/>
<path d="M24.1257 134.792C24.0596 135.079 24.0077 135.307 23.9673 135.42C23.873 135.683 23.7824 135.966 23.6833 136.309L23.6465 136.438H24.845C24.8507 136.33 24.8572 136.214 24.865 136.093C24.9213 135.169 24.9981 133.928 24.6111 133.161C24.4429 133.415 24.2242 134.365 24.1257 134.792Z" fill="#F88D2A"/>
<path d="M37.0947 133.342C37.2719 134.212 37.3352 135.203 37.2984 136.438H38.2961L38.1185 135.879C37.838 134.996 37.489 134.132 37.0947 133.342Z" fill="#F88D2A"/>
<path d="M41.1758 135.859L40.9925 135.7C40.7227 135.464 40.4819 135.282 40.2554 135.147L40.1688 135.094L40.1516 134.961C39.892 132.927 39.4569 131.103 38.8275 129.413C38.9438 130.79 38.7842 132.26 38.6294 133.691C38.5707 134.238 38.5123 134.774 38.4727 135.288L38.3894 136.438H41.911C41.9612 134.835 42.027 133.354 42.111 131.96C41.8722 133.029 41.6146 134.079 41.3616 135.103L41.1758 135.859Z" fill="#F88D2A"/>
<path d="M49.5667 136.438H50.8101C50.7484 134.817 50.7174 132.998 50.9648 131.217C50.3917 132.878 49.932 134.596 49.5667 136.438Z" fill="#F88D2A"/>
<path d="M29.9374 133.347C29.6783 133.922 29.4093 134.516 29.2526 135.123C29.1663 135.457 29.092 135.795 29.0202 136.132L28.9541 136.438H30.4494C30.451 135.01 30.4473 133.583 30.4387 132.161C30.2918 132.565 30.1134 132.961 29.9374 133.347Z" fill="#F88D2A"/>
<path d="M27.2652 135.297L27.1147 136.263L26.9228 135.304C26.5746 133.563 26.0537 131.88 25.4941 130.118C25.6904 132.35 25.6071 134.535 25.4863 136.438H28.6813L28.6764 136.102C28.6405 133.657 28.6475 131.061 28.903 128.468C28.0894 131.139 27.5902 133.231 27.2652 135.297Z" fill="#F88D2A"/>
<path d="M68.955 133.876L69.0534 134.345L68.6378 133.952C68.5363 133.856 68.4485 133.772 68.3509 133.692C67.8301 133.251 66.6825 132.588 65.5808 132.227L65.5441 132.211C65.0657 131.937 64.5162 131.704 63.9068 131.519C64.8011 132.451 65.1923 133.401 65.4319 134.138L65.6686 134.859L65.109 134.214C64.4493 133.45 63.5839 132.891 62.7324 132.665C62.8451 132.775 62.9422 132.889 63.0235 133.005C63.2593 133.358 63.4459 133.723 63.5818 134.092C63.8659 134.77 64.0207 135.469 64.1709 136.144C64.1917 136.242 64.2068 136.337 64.2227 136.433V136.438H70.2772C69.6764 134.097 68.8522 131.529 67.3214 129.496C68.0725 130.773 68.6012 132.197 68.955 133.876Z" fill="#F88D2A"/>
<path d="M100.691 133.972L100.345 133.977C100.088 131.952 99.5672 130.158 98.7916 128.636C98.8989 129.683 98.7867 130.8 98.6781 131.886L98.5911 132.814C98.5695 133.079 98.5507 133.34 98.5406 133.595C98.5112 134.359 98.4601 135.134 98.4111 135.884L98.3752 136.438H101.436C101.179 135.163 100.939 133.91 100.792 132.666C100.76 133.127 100.724 133.571 100.691 133.972Z" fill="#F88D2A"/>
<path d="M96.8368 134.03L96.7462 133.765C96.2291 132.252 95.5787 130.852 94.7725 129.522C95.4212 131.035 95.9053 132.67 96.2695 134.557L96.2837 134.629L96.234 134.686C96.0347 134.91 95.8421 135.137 95.6588 135.369L95.538 135.52L95.3946 135.387C95.135 135.145 94.8416 134.901 94.5452 134.681L94.4774 134.631L94.4811 134.55C94.5313 133.509 94.5982 132.551 94.6832 131.645C94.4374 132.352 94.1705 133.045 93.91 133.721L93.7467 134.145L93.5639 134.042C93.2994 133.894 93.0512 133.775 92.8275 133.689L92.7405 133.654L92.7238 133.57C92.4634 132.266 92.0282 131.099 91.3996 130.019C91.5147 130.9 91.3563 131.842 91.2012 132.757C91.1428 133.107 91.0844 133.45 91.0445 133.778L90.9362 134.734L90.6889 133.955C90.4076 133.069 90.0574 132.203 89.6631 131.414C89.9439 132.798 89.9064 134.273 89.8235 135.571L89.7676 136.438H97.4548C97.4276 136.311 97.4022 136.183 97.3757 136.056C97.3002 135.693 97.2231 135.318 97.1218 134.964L97.1066 134.911L97.1295 134.861C97.47 134.123 97.8525 133.404 98.2668 132.724L98.3289 132.623C97.8431 133.05 97.4201 133.445 97.0405 133.825L96.8368 134.03Z" fill="#F88D2A"/>
<path d="M101.793 136.438H103.457L103.429 135.811C103.334 133.653 103.235 131.432 103.535 129.295C102.761 131.532 102.189 133.88 101.793 136.438Z" fill="#F88D2A"/>
<path d="M85.6738 134.111L85.594 134.137C85.5959 134.141 85.5978 134.148 85.5993 134.152L85.6738 134.111Z" fill="#F88D2A"/>
<path d="M87.8474 131.997C87.4972 131.515 86.7203 130.624 85.9297 130.162C86.3657 130.779 86.5505 131.68 86.6722 132.515L86.6787 132.562L86.6685 132.582L86.8212 133.58C86.8347 133.663 86.849 133.743 86.8629 133.815C87.0319 134.667 87.1535 135.514 87.2404 136.155L87.2792 136.438H89.6925L89.479 135.599C89.1214 134.198 88.5883 133.02 87.8474 131.997Z" fill="#F88D2A"/>
<path d="M77.1897 133.229C77.0848 133.918 76.9207 134.598 76.7612 135.26C76.6668 135.652 76.5725 136.043 76.4893 136.438H77.589L77.5805 136.379C77.4257 135.321 77.2804 134.28 77.1897 133.229Z" fill="#F88D2A"/>
<path d="M86.3641 135.393L86.333 135.348L86.3624 134.933C86.3934 134.491 86.4257 134.035 86.4763 133.586L86.569 132.767C86.3172 133.241 86.0726 133.71 85.8367 134.175L85.6987 134.447L85.6836 134.425L85.6959 134.462L85.5317 134.791C85.4232 135.007 85.3146 135.223 85.2137 135.438L84.837 136.242L84.8807 135.368C84.977 133.416 85.0741 131.656 85.2979 129.886L85.3362 129.575L85.3383 129.576C85.3554 129.453 85.3722 129.333 85.3893 129.216C85.2705 129.519 85.1513 129.82 85.0325 130.122C84.437 131.631 83.8218 133.192 83.3609 134.758L83.0177 135.926L83.0192 134.716C83.0213 133.222 83.0177 131.727 83.0083 130.237C82.8609 130.642 82.6825 131.036 82.5078 131.423C82.2474 131.998 81.9783 132.593 81.8215 133.198C81.7359 133.533 81.662 133.87 81.5905 134.209L81.2684 135.712L81.246 134.179C81.2101 131.734 81.2166 129.137 81.4725 126.544C80.659 129.217 80.1598 131.307 79.8349 133.373L79.6838 134.339L79.4923 133.379C79.1441 131.638 78.6229 129.956 78.0632 128.192C78.3098 131.004 78.1248 133.866 77.9257 136.369L77.9199 136.438H87.0193L86.9127 136.249C86.7446 135.949 86.5493 135.662 86.3641 135.393Z" fill="#F88D2A"/>
<path d="M112.639 136.438H114.243C114.766 135.034 115.38 133.756 116.072 132.631C114.532 133.988 113.451 135.187 112.639 136.438Z" fill="#F88D2A"/>
<path d="M48.1205 135.895L47.7744 135.902C47.5185 133.874 46.9967 132.08 46.2208 130.558C46.3285 131.601 46.2172 132.716 46.1085 133.801L46.0215 134.738C45.9992 135.003 45.9799 135.264 45.9705 135.518C45.9632 135.709 45.951 135.901 45.9375 136.092C45.9294 136.208 45.9215 136.323 45.915 136.438H45.9167H48.5076C48.4059 135.862 48.3027 135.228 48.2234 134.573C48.1903 135.04 48.1545 135.49 48.1205 135.895Z" fill="#F88D2A"/>
<path d="M44.2645 135.68L44.1739 135.266C43.6566 132.903 43.0076 130.714 42.2021 128.636C42.8451 130.984 43.3264 133.519 43.6897 136.438H44.7375C44.8322 136.129 44.92 135.87 45.0106 135.592C45.0788 135.383 45.1502 135.149 45.2168 134.955C45.378 134.482 45.5364 134.046 45.6952 133.64L45.7577 133.479C45.2735 134.145 44.8498 134.764 44.4685 135.361L44.2645 135.68Z" fill="#F88D2A"/>
<path d="M33.3594 132.084C33.3806 132.114 33.3945 132.152 33.4149 132.184C33.4545 132.245 33.4875 132.313 33.523 132.379C33.5945 132.514 33.6598 132.653 33.7157 132.803C33.7442 132.879 33.772 132.953 33.7969 133.032C33.8483 133.194 33.8929 133.359 33.9316 133.528C33.9476 133.598 33.9659 133.664 33.9802 133.734C34.0284 133.969 34.0697 134.205 34.1039 134.438L34.1104 134.487L34.0982 134.51L34.2521 135.504C34.2652 135.587 34.2794 135.667 34.2933 135.739C34.3284 135.913 34.3537 136.087 34.3802 136.262C34.3888 136.32 34.3974 136.379 34.4068 136.438H36.5792C36.2454 135.492 35.8188 134.667 35.2779 133.921C34.9276 133.439 34.1509 132.547 33.3594 132.084Z" fill="#F88D2A"/>
<path d="M32.8206 131.138C32.7067 131.432 32.5912 131.724 32.4761 132.016C31.9078 133.457 31.3221 134.945 30.8682 136.438H32.3601C32.3806 136.042 32.4112 135.604 32.4369 135.182C32.4565 134.861 32.4708 134.564 32.4948 134.234C32.5537 133.434 32.6279 132.616 32.7292 131.809L32.768 131.5L32.7708 131.501C32.7867 131.378 32.8038 131.257 32.8206 131.138Z" fill="#F88D2A"/>
<path d="M33.1308 136.37L33.1136 136.344L33.1128 136.343L33.125 136.386L33.1006 136.438H33.8293L33.8333 136.383C33.8529 136.091 33.8737 135.8 33.9068 135.51L33.9998 134.696L34.0002 134.692C33.7471 135.164 33.5027 135.635 33.2679 136.1L33.1308 136.37Z" fill="#F88D2A"/>
<path d="M112.662 133.561L112.592 133.738C112.218 134.685 111.886 135.571 111.578 136.438H112.625L112.635 136.291C112.657 135.915 112.681 135.539 112.713 135.165L112.804 134.102L112.812 134.136C112.865 133.646 112.923 133.179 112.988 132.732C112.88 133.009 112.77 133.285 112.662 133.561Z" fill="#F88D2A"/>
<path d="M74.1885 134.04L74.0384 134.708L73.8448 134.045C73.5853 133.156 73.3407 132.282 73.1926 131.414C73.1607 131.732 73.1248 132.038 73.0917 132.315L72.7456 132.319C72.4889 130.922 71.9676 129.685 71.192 128.636C71.2997 129.355 71.1871 130.126 71.0785 130.875C71.0181 131.288 70.9618 131.677 70.9409 132.054C70.9267 132.307 70.9115 132.619 70.8956 132.963C70.8417 134.064 70.7691 135.555 70.6699 136.438H75.9177L75.9214 136.208C75.9468 135.345 75.8884 134.446 75.8316 133.575C75.7353 132.091 75.6373 130.561 75.9353 129.09C75.1577 130.642 74.5842 132.268 74.1885 134.04Z" fill="#F88D2A"/>
<path d="M105.74 136.438H106.984C106.64 134.855 106.17 133.314 105.663 131.709C105.787 133.119 105.813 134.652 105.74 136.438Z" fill="#F88D2A"/>
<path d="M110.11 134.94C109.889 135.427 109.664 135.929 109.506 136.438H110.614V136.176C110.613 135.368 110.611 134.56 110.608 133.754C110.461 134.157 110.283 134.552 110.11 134.94Z" fill="#F88D2A"/>
<path d="M108.837 136.438C108.825 134.52 108.85 132.319 109.073 130.055C108.332 132.496 107.842 134.509 107.516 136.438H108.837Z" fill="#F88D2A"/>
<path d="M64.824 64.2956C64.7334 65.257 64.8951 66.1647 65.5283 66.7879C66.3671 67.613 67.8566 67.3394 68.7126 66.6561C69.4507 66.0675 69.8617 65.2382 70.2144 64.4254C70.425 65.5667 72.0268 67.803 73.7123 67.2778C74.0858 67.1611 74.3083 66.828 74.4605 66.5086C75.377 64.585 74.759 62.6234 73.6764 60.8924C73.4519 60.5327 70.0797 56.5935 70.3454 56.4355C68.5995 58.3039 69.2478 58.0674 66.7655 60.4363C65.972 61.1938 64.9531 62.9312 64.824 64.2956Z" fill="#F88D2A"/>
<path d="M27.6392 68.8426C28.4781 69.429 29.4023 69.7906 30.3162 69.6325C31.527 69.4234 32.0715 68.1196 31.8993 67.0879C31.7511 66.1989 31.2057 65.4346 30.6444 64.7247C31.8103 65.1734 34.7314 65.1279 35.1489 63.5369C35.2416 63.1839 35.053 62.8326 34.8395 62.5431C33.5549 60.799 31.4139 60.2272 29.2369 60.1398C28.7847 60.1213 23.3445 60.6282 23.3408 60.3372C24.1312 62.6955 24.2593 62.0653 25.1169 65.2646C25.3912 66.2871 26.4493 68.0107 27.6392 68.8426Z" fill="#F88D2A"/>
<path d="M13.5993 42.577C14.4765 43.1071 15.4219 43.4071 16.3187 43.1904C17.5066 42.9033 17.952 41.5679 17.705 40.5503C17.492 39.6738 16.8935 38.9473 16.2828 38.2755C17.4752 38.6474 20.3754 38.4129 20.6731 36.7983C20.7392 36.4408 20.5261 36.1035 20.2927 35.8286C18.8863 34.1727 16.7159 33.7421 14.5455 33.796C14.0949 33.8075 8.72412 34.6667 8.69922 34.3764C9.6585 36.6763 9.73973 36.0391 10.828 39.1731C11.1762 40.1755 12.355 41.8251 13.5993 42.577Z" fill="#F88D2A"/>
<path d="M30.0561 41.1106C30.6215 41.9234 31.3518 42.5526 32.2665 42.6911C33.4785 42.875 34.4774 41.8228 34.7036 40.8014C34.8983 39.9211 34.6742 39.0331 34.4149 38.1912C35.3383 38.9783 38.0908 39.8519 39.0783 38.4901C39.2975 38.1883 39.253 37.8 39.1616 37.4617C38.6125 35.4224 36.8225 34.2143 34.8171 33.4493C34.4002 33.2907 29.1165 32.0586 29.2222 31.7847C29.0773 34.2441 29.4336 33.6934 29.0364 36.963C28.9095 38.0086 29.254 39.9567 30.0561 41.1106Z" fill="#F88D2A"/>
<path d="M49.5403 50.149C49.784 51.0875 50.249 51.9026 51.0634 52.3099C52.1427 52.8493 53.462 52.1575 54.0404 51.2606C54.5385 50.488 54.6437 49.5821 54.6997 48.7081C55.2912 49.7304 57.5783 51.3875 58.9976 50.3998C59.3119 50.1809 59.4087 49.8003 59.4438 49.4529C59.6532 47.3616 58.3939 45.6797 56.7729 44.351C56.4362 44.0747 51.8855 41.3155 52.083 41.0883C51.0679 43.3679 51.6014 42.9553 50.0583 45.9237C49.5653 46.8728 49.1946 48.817 49.5403 50.149Z" fill="#F88D2A"/>
<path d="M64.9002 25.2049C64.8096 26.166 64.9713 27.0742 65.6043 27.697C66.4433 28.5225 67.9328 28.2486 68.7892 27.5653C69.5268 26.9771 69.9379 26.1477 70.2905 25.3347C70.5012 26.4764 72.103 28.7128 73.7885 28.1871C74.162 28.0708 74.3844 27.7373 74.5367 27.4183C75.4531 25.4942 74.8351 23.5327 73.753 21.8018C73.528 21.4424 70.1563 17.503 70.4216 17.3454C68.6761 19.2137 69.3239 18.9773 66.8416 21.3463C66.048 22.1036 65.0292 23.8412 64.9002 25.2049Z" fill="#F88D2A"/>
<path d="M43.5357 13.8203C43.7794 14.7583 44.2444 15.5732 45.0587 15.9807C46.138 16.5199 47.4573 15.8279 48.0353 14.9312C48.5338 14.1595 48.6391 13.2532 48.695 12.3796C49.2865 13.4012 51.5737 15.0581 52.993 14.0711C53.3072 13.852 53.404 13.4714 53.4391 13.1235C53.6485 11.0322 52.3892 9.35035 50.7683 8.02216C50.4315 7.74537 45.8804 4.98617 46.0784 4.75936C45.0632 7.039 45.5967 6.62573 44.0537 9.59446C43.5606 10.544 43.1899 12.4882 43.5357 13.8203Z" fill="#F88D2A"/>
<path d="M158.011 49.9659C158.16 49.0105 158.542 48.1602 159.312 47.6857C160.333 47.0569 161.716 47.6346 162.381 48.4786C162.955 49.2057 163.15 50.0992 163.294 50.9642C163.779 49.8968 165.891 48.0532 167.404 48.9166C167.739 49.1081 167.873 49.479 167.943 49.8218C168.361 51.887 167.274 53.6679 165.793 55.1279C165.485 55.4312 161.23 58.5641 161.449 58.7732C160.21 56.589 160.782 56.9547 158.949 54.1296C158.364 53.2264 157.8 51.3212 158.011 49.9659Z" fill="#F88D2A"/>
<path d="M231.248 34.7495C231.916 34.0056 232.725 33.4636 233.652 33.429C234.879 33.3829 235.731 34.54 235.818 35.5789C235.895 36.4746 235.554 37.3309 235.184 38.1372C236.206 37.4607 239.054 36.9032 239.853 38.365C240.03 38.6899 239.934 39.0704 239.799 39.3962C238.982 41.3575 237.044 42.355 234.952 42.8888C234.517 42.9996 229.109 43.6268 229.177 43.9106C229.361 41.4532 229.642 42.04 229.683 38.7504C229.697 37.699 230.298 35.8038 231.248 34.7495Z" fill="#F88D2A"/>
<path d="M90.9662 50.1488C90.7225 51.0873 90.2576 51.9024 89.4428 52.3097C88.364 52.8491 87.0447 52.1572 86.4663 51.2604C85.9682 50.4878 85.8624 49.5819 85.807 48.7079C85.2155 49.7302 82.9283 51.3872 81.509 50.3995C81.1943 50.1807 81.0975 49.8 81.0629 49.4527C80.8534 47.3613 82.1128 45.6795 83.7333 44.3508C84.0701 44.0745 88.6212 41.3153 88.4235 41.0881C89.4388 43.3676 88.9053 42.955 90.4482 45.9235C90.9414 46.8725 91.312 48.8168 90.9662 50.1488Z" fill="#F88D2A"/>
<path d="M112.867 68.8426C112.028 69.429 111.103 69.7906 110.189 69.6325C108.978 69.4234 108.434 68.1196 108.606 67.0879C108.755 66.1989 109.3 65.4346 109.861 64.7247C108.695 65.1734 105.774 65.1279 105.356 63.5369C105.264 63.1839 105.452 62.8326 105.666 62.5431C106.951 60.799 109.092 60.2272 111.269 60.1398C111.721 60.1213 117.162 60.6282 117.165 60.3372C116.375 62.6955 116.246 62.0653 115.388 65.2646C115.114 66.2871 114.056 68.0107 112.867 68.8426Z" fill="#F88D2A"/>
<path d="M133.575 21.7127C134.224 20.9544 135.017 20.3932 135.942 20.3374C137.167 20.2625 138.051 21.3994 138.168 22.4354C138.269 23.3292 137.952 24.1932 137.605 25.0082C138.608 24.3076 141.438 23.6829 142.278 25.1264C142.464 25.4464 142.379 25.8289 142.252 26.1576C141.491 28.1384 139.581 29.1802 137.504 29.7635C137.072 29.8837 131.683 30.6381 131.76 30.9207C131.876 28.4594 132.172 29.0399 132.122 25.7501C132.107 24.6978 132.655 22.7891 133.575 21.7127Z" fill="#F88D2A"/>
<path d="M110.45 41.1106C109.885 41.9234 109.155 42.5526 108.24 42.6911C107.027 42.875 106.028 41.8228 105.803 40.8014C105.608 39.9211 105.832 39.0331 106.091 38.1912C105.168 38.9783 102.416 39.8519 101.428 38.4901C101.209 38.1883 101.253 37.8 101.345 37.4617C101.894 35.4224 103.684 34.2143 105.689 33.4493C106.106 33.2907 111.39 32.0586 111.284 31.7847C111.429 34.2441 111.073 33.6934 111.47 36.963C111.596 38.0086 111.252 39.9567 110.45 41.1106Z" fill="#F88D2A"/>
<path d="M96.9701 13.8205C96.7265 14.7585 96.2615 15.5735 95.4472 15.981C94.3679 16.5201 93.0486 15.8282 92.4702 14.9315C91.9721 14.1598 91.8664 13.2535 91.8104 12.3799C91.2194 13.4015 88.9322 15.0584 87.5129 14.0713C87.1981 13.8522 87.1015 13.4716 87.0668 13.1237C86.8573 11.0325 88.1166 9.35059 89.7372 8.0224C90.0744 7.74562 94.6251 4.98641 94.4274 4.7596C95.4427 7.03924 94.9091 6.62598 96.4517 9.5947C96.9453 10.5442 97.3159 12.4885 96.9701 13.8205Z" fill="#F88D2A"/>
<path d="M99.1144 136.438H99.1043L99.0684 136.398C99.0805 136.376 99.093 136.354 99.1051 136.332C99.1081 136.368 99.1114 136.403 99.1144 136.438Z" fill="#F88D2A"/>
<path d="M98.7965 134.053C98.9174 134.642 98.9965 135.24 99.0569 135.805C98.9928 135.81 98.9361 135.83 98.9039 135.862C98.8504 135.915 98.7936 135.966 98.7348 136.018C98.5226 135.782 98.3018 135.546 98.0752 135.308C98.1903 134.874 98.3765 134.369 98.7965 134.053Z" fill="#F88D2A"/>
<path d="M86.2575 136.438C86.2509 136.369 86.2424 136.301 86.2338 136.232C86.2216 136.125 86.2086 136.02 86.2009 135.913C86.2009 135.903 86.2001 135.893 86.1992 135.882C86.3584 136.047 86.527 136.24 86.6985 136.438H86.2575Z" fill="#F88D2A"/>
<path d="M75.549 136.438C75.5244 135.488 75.4505 134.67 75.3203 133.921C75.8245 134.855 76.2078 135.669 76.507 136.438H75.549Z" fill="#F88D2A"/>
<path d="M73.7898 136.01C73.8831 136.153 73.9886 136.295 74.0994 136.438H73.7878L73.7898 136.059C73.7898 136.042 73.7898 136.026 73.7898 136.01Z" fill="#F88D2A"/>
<path d="M79.7122 135.898L79.7716 135.911V135.776C79.7716 135.747 79.7716 135.717 79.7716 135.688C79.941 135.889 80.119 136.085 80.2921 136.277L80.4384 136.438H79.6201L79.621 136.434C79.6532 136.254 79.6849 136.075 79.7122 135.898Z" fill="#F88D2A"/>
<path d="M78.6251 136.438H77.9104C78.147 135.954 78.4142 135.441 78.7319 134.861C78.6602 135.337 78.6264 135.852 78.6251 136.438Z" fill="#F88D2A"/>
<path d="M71.2882 133.983C70.7571 134.413 70.5974 135.088 70.4747 135.607C70.4359 135.772 70.4012 135.922 70.3587 136.045C70.3228 136.145 70.2946 136.248 70.2672 136.35L70.2428 136.438H68.0935C68.4418 135.878 68.8511 135.424 69.3733 135.018C69.7252 134.744 70.4991 134.243 71.2882 133.983Z" fill="#F88D2A"/>
<path d="M71.4089 135.433C71.5087 135.577 71.6089 135.721 71.7095 135.866L71.8036 136C71.8753 136.104 71.9457 136.207 72.0153 136.311L72.1014 136.438H71.4749C71.4778 136.436 71.4807 136.433 71.4843 136.431L71.6028 136.33L71.5976 136.299C71.5417 135.995 71.4798 135.708 71.4089 135.433Z" fill="#F88D2A"/>
<path d="M107.197 134.505L107.204 134.522C107.195 134.521 107.177 134.522 107.161 134.52L107.197 134.505Z" fill="#F88D2A"/>
<path d="M107.699 135.51C107.765 135.672 107.817 135.8 107.858 135.863C107.952 136.013 108.043 136.172 108.142 136.365L108.179 136.438H106.98C106.974 136.377 106.968 136.311 106.961 136.244C106.904 135.722 106.828 135.023 107.214 134.589C107.383 134.732 107.601 135.269 107.699 135.51Z" fill="#F88D2A"/>
<path d="M94.7316 134.692C94.5541 135.183 94.4913 135.741 94.5279 136.438H93.5303L93.7079 136.123C93.9879 135.624 94.3373 135.137 94.7316 134.692Z" fill="#F88D2A"/>
<path d="M90.649 136.229L90.8319 136.172C91.1022 136.087 91.3426 136.021 91.5692 135.973L91.6561 135.953L91.6732 135.905C91.9324 135.171 92.3675 134.513 92.9975 133.903C92.8812 134.399 93.0407 134.931 93.1954 135.447C93.2538 135.645 93.3125 135.838 93.3521 136.023L93.435 136.438H89.9139C89.8637 135.86 89.7976 135.326 89.7139 134.822C89.9527 135.208 90.2102 135.587 90.4633 135.957L90.649 136.229Z" fill="#F88D2A"/>
<path d="M82.2593 136.438H81.0163C81.0779 135.524 81.1089 134.497 80.8616 133.493C81.4348 134.43 81.8943 135.4 82.2593 136.438Z" fill="#F88D2A"/>
<path d="M101.887 134.694C102.147 135.019 102.416 135.355 102.572 135.697C102.658 135.885 102.733 136.075 102.805 136.265L102.87 136.438H101.376C101.373 135.633 101.378 134.828 101.386 134.025C101.533 134.254 101.712 134.476 101.887 134.694Z" fill="#F88D2A"/>
<path d="M104.56 135.794L104.712 136.338L104.903 135.798C105.251 134.816 105.772 133.867 106.331 132.873C106.135 134.132 106.219 135.365 106.34 136.438H103.145L103.149 136.249C103.185 134.87 103.178 133.405 102.923 131.943C103.736 133.45 104.236 134.629 104.56 135.794Z" fill="#F88D2A"/>
<path d="M62.87 134.342L62.7721 134.726L63.1871 134.405C63.2892 134.326 63.377 134.258 63.4741 134.19C63.9955 133.831 65.1429 133.289 66.2442 132.993L66.2814 132.98C66.7598 132.755 67.3089 132.565 67.9187 132.413C67.0239 133.175 66.6333 133.954 66.3936 134.557L66.1564 135.146L66.7161 134.618C67.3761 133.994 68.2415 133.536 69.0927 133.351C68.9804 133.441 68.8833 133.535 68.8021 133.63C68.5661 133.918 68.3791 134.217 68.2436 134.518C67.9591 135.074 67.8044 135.645 67.6545 136.198C67.6337 136.278 67.6187 136.356 67.6023 136.434V136.438H61.5479C62.1491 134.523 62.9732 132.422 64.5041 130.759C63.7525 131.803 63.2243 132.968 62.87 134.342Z" fill="#F88D2A"/>
<path d="M31.1342 135.047L31.4803 135.051C31.7371 133.907 32.258 132.895 33.0339 132.037C32.9266 132.628 33.0388 133.258 33.147 133.871L33.2339 134.394C33.2556 134.543 33.2748 134.691 33.285 134.835C33.3144 135.265 33.3654 135.702 33.4144 136.125L33.4504 136.438H30.3896C30.646 135.719 30.8868 135.012 31.033 134.31C31.0651 134.57 31.1011 134.821 31.1342 135.047Z" fill="#F88D2A"/>
<path d="M34.9904 135.079L35.081 134.931C35.5983 134.077 36.2485 133.287 37.0543 132.537C36.4061 133.39 35.9219 134.313 35.5574 135.378L35.5435 135.418L35.5934 135.45C35.7926 135.577 35.9853 135.704 36.1681 135.835L36.2889 135.92L36.4326 135.846C36.6918 135.709 36.9857 135.572 37.2821 135.447L37.3498 135.419L37.3462 135.373C37.296 134.786 37.229 134.245 37.1442 133.735C37.3894 134.133 37.6568 134.524 37.9173 134.906L38.0805 135.145L38.2634 135.086C38.528 135.004 38.7761 134.936 38.9998 134.887L39.0863 134.868L39.1035 134.82C39.364 134.085 39.7991 133.427 40.4277 132.817C40.3126 133.314 40.4709 133.845 40.6257 134.363C40.6844 134.56 40.7428 134.753 40.7824 134.937L40.891 135.477L41.1384 135.037C41.4197 134.538 41.7699 134.049 42.1643 133.604C41.8829 134.385 41.9209 135.217 42.0037 135.949L42.0598 136.438H34.372C34.3994 136.366 34.4251 136.294 34.4516 136.222C34.5272 136.018 34.6043 135.806 34.7055 135.607L34.7202 135.577L34.6977 135.549C34.3569 135.132 33.9748 134.727 33.5605 134.343L33.498 134.286C33.9842 134.527 34.4071 134.75 34.7863 134.964L34.9904 135.079Z" fill="#F88D2A"/>
<path d="M30.0317 136.438H28.3674L28.3947 136.085C28.4903 134.867 28.5895 133.615 28.2891 132.409C29.063 133.67 29.6349 134.995 30.0317 136.438Z" fill="#F88D2A"/>
<path d="M46.1465 135.126L46.2259 135.14C46.2244 135.143 46.2225 135.146 46.2206 135.149L46.1465 135.126Z" fill="#F88D2A"/>
<path d="M43.9779 133.933C44.3282 133.661 45.1049 133.158 45.8957 132.898C45.4597 133.246 45.2747 133.754 45.1527 134.225L45.1462 134.252L45.1567 134.262L45.0036 134.826C44.9906 134.873 44.9764 134.917 44.9625 134.958C44.7935 135.44 44.6714 135.916 44.5849 136.279L44.546 136.438H42.1328L42.3459 135.964C42.7039 135.175 43.237 134.51 43.9779 133.933Z" fill="#F88D2A"/>
<path d="M54.6367 134.628C54.7412 135.017 54.9057 135.4 55.065 135.774C55.1597 135.994 55.2539 136.215 55.3368 136.438H54.2375L54.2461 136.405C54.4008 135.808 54.5461 135.221 54.6367 134.628Z" fill="#F88D2A"/>
<path d="M45.4604 135.848L45.4918 135.824L45.4624 135.589C45.4314 135.34 45.3992 135.082 45.3481 134.83L45.2559 134.367C45.5078 134.634 45.7522 134.9 45.9882 135.162L46.1258 135.315L46.1409 135.302L46.1286 135.324L46.2931 135.509C46.4013 135.631 46.5099 135.753 46.6111 135.874L46.9875 136.328L46.9443 135.835C46.8479 134.733 46.7507 133.74 46.527 132.742L46.4882 132.567L46.4867 132.568C46.4695 132.498 46.4524 132.431 46.4356 132.364C46.5544 132.534 46.6732 132.705 46.7924 132.876C47.388 133.726 48.0031 134.607 48.464 135.491L48.8073 136.149L48.8052 135.467C48.8036 134.624 48.8073 133.781 48.8167 132.94C48.964 133.169 49.1424 133.391 49.3172 133.609C49.5776 133.934 49.8465 134.269 50.0029 134.611C50.089 134.8 50.1626 134.99 50.2344 135.18L50.556 136.028L50.5789 135.164C50.6148 133.785 50.6083 132.32 50.3523 130.857C51.1659 132.364 51.6651 133.543 51.9901 134.709L52.1406 135.253L52.3325 134.713C52.6807 133.731 53.2016 132.781 53.7612 131.787C53.5151 133.373 53.7 134.987 53.8992 136.399L53.9049 136.438H44.8057L44.9122 136.332C45.0804 136.162 45.2755 136 45.4604 135.848Z" fill="#F88D2A"/>
<path d="M83.7049 136.132L84.0515 136.136C84.3075 134.992 84.8291 133.98 85.6051 133.122C85.4973 133.71 85.6088 134.339 85.7174 134.95L85.8043 135.479C85.8268 135.628 85.8455 135.776 85.8549 135.918C85.8627 136.027 85.875 136.136 85.888 136.243C85.8966 136.308 85.9043 136.373 85.9108 136.438H85.9092H83.3184C83.42 136.113 83.5229 135.755 83.6021 135.386C83.6351 135.649 83.671 135.903 83.7049 136.132Z" fill="#F88D2A"/>
<path d="M87.5593 136.165L87.6499 136.016C88.1675 135.162 88.8165 134.372 89.6215 133.622C88.979 134.47 88.4977 135.385 88.1341 136.438H87.0865C86.9914 136.327 86.9037 136.234 86.8135 136.133C86.7453 136.058 86.6735 135.973 86.6073 135.903C86.4456 135.732 86.2877 135.575 86.1285 135.429L86.0664 135.371C86.5506 135.611 86.9743 135.834 87.3555 136.049L87.5593 136.165Z" fill="#F88D2A"/>
<path d="M98.4655 133.982C98.4443 133.999 98.4304 134.02 98.4099 134.039C98.3704 134.073 98.3369 134.111 98.3018 134.148C98.2304 134.224 98.1651 134.303 98.1092 134.387C98.0805 134.43 98.0528 134.472 98.0279 134.516C97.9764 134.608 97.9319 134.701 97.8927 134.797C97.8769 134.836 97.8585 134.873 97.8441 134.912C97.7964 135.045 97.7552 135.178 97.7209 135.31L97.7144 135.337L97.7266 135.35L97.5728 135.912C97.5597 135.958 97.5454 136.003 97.5311 136.043C97.4964 136.141 97.4707 136.24 97.4441 136.338C97.436 136.372 97.4274 136.405 97.418 136.438H95.2451C95.5795 135.904 96.0061 135.439 96.5469 135.018C96.8972 134.746 97.6736 134.243 98.4655 133.982Z" fill="#F88D2A"/>
<path d="M99.0049 133.448C99.1188 133.614 99.2338 133.779 99.349 133.943C99.9172 134.756 100.503 135.595 100.957 136.438H99.4653C99.4445 136.214 99.4143 135.967 99.3886 135.729C99.369 135.548 99.3548 135.38 99.3306 135.195C99.2719 134.743 99.1976 134.282 99.0963 133.827L99.0576 133.652L99.0546 133.653C99.0387 133.584 99.0216 133.516 99.0049 133.448Z" fill="#F88D2A"/>
<path d="M98.6933 136.4L98.7108 136.386L98.7112 136.385L98.699 136.409L98.7236 136.438H97.9953L97.9912 136.407C97.9716 136.243 97.9508 136.078 97.9177 135.915L97.8246 135.455L97.8242 135.453C98.0773 135.72 98.3219 135.985 98.5566 136.247L98.6933 136.4Z" fill="#F88D2A"/>
<path d="M19.868 134.815L19.9378 134.915C20.3117 135.449 20.6441 135.949 20.9514 136.438H19.9048L19.8954 136.355C19.8729 136.143 19.8492 135.931 19.817 135.72L19.7256 135.12L19.7182 135.139C19.6652 134.862 19.6068 134.6 19.5427 134.347C19.65 134.504 19.7595 134.66 19.868 134.815Z" fill="#F88D2A"/>
<path d="M57.6368 134.476L57.787 135.024L57.9801 134.48C58.2398 133.753 58.4842 133.038 58.6324 132.328C58.6647 132.588 58.7006 132.838 58.7332 133.065L59.0798 133.069C59.3366 131.925 59.8574 130.913 60.6334 130.055C60.5257 130.644 60.6379 131.274 60.7465 131.887C60.8069 132.224 60.8637 132.543 60.8844 132.852C60.8988 133.058 60.9138 133.313 60.9298 133.596C60.9836 134.496 61.0564 135.716 61.1555 136.438H55.9076L55.904 136.249C55.8783 135.544 55.937 134.808 55.9933 134.096C56.0897 132.882 56.1881 131.63 55.8896 130.427C56.6673 131.696 57.2413 133.026 57.6368 134.476Z" fill="#F88D2A"/>
<path d="M26.0846 136.438H24.8408C25.1854 135.546 25.6552 134.676 26.1621 133.771C26.0372 134.566 26.0128 135.43 26.0846 136.438Z" fill="#F88D2A"/>
<path d="M21.7157 135.594C21.9357 135.868 22.161 136.151 22.3198 136.438H21.2119V136.291C21.2128 135.835 21.2136 135.379 21.2172 134.924C21.3646 135.152 21.5422 135.375 21.7157 135.594Z" fill="#F88D2A"/>
<path d="M22.9879 136.438C23.0001 135.356 22.9749 134.114 22.752 132.837C23.4929 134.214 23.984 135.35 24.3093 136.438H22.9879Z" fill="#F88D2A"/>
</g>
<defs>
<clipPath id="clip0_939_9668">
<rect width="385" height="136" fill="white" transform="translate(0 0.939209)"/>
</clipPath>
</defs>
</svg>
