<svg width="236" height="83" viewBox="0 0 236 83" fill="none" xmlns="http://www.w3.org/2000/svg">
<g clip-path="url(#clip0_939_7118)">
<path d="M33.4275 51.5806C33.1216 51.3085 32.8794 51.0917 32.6902 50.9427C31.3512 49.8838 29.2021 49.4047 28.0409 49.2127L27.8178 49.1756L27.7675 48.9992C27.1734 47.5615 29.0191 47.4746 29.0191 47.4746L29.2929 47.0192L28.8979 43.9979L29.0667 43.5153C29.1013 43.4219 29.1516 43.3353 29.2026 43.2516C29.2927 43.1025 29.3477 42.9985 29.3141 42.9302C29.264 42.8303 28.9928 42.568 27.5308 42.2825C26.8667 42.1524 26.2412 42.0891 25.6689 42.0935C24.323 42.1061 23.7144 42.4951 23.7084 42.4992C23.3004 42.7698 23.0789 43.1623 23.0346 43.7003C22.8932 45.3909 24.5709 47.8601 25.177 48.4069C25.5865 48.777 24.8355 49.0308 24.8355 49.0308L22.9442 48.9722C18.1749 48.8661 16.4185 49.3213 11.4639 44.4284C11.3089 44.2754 11.1919 44.1605 11.1184 44.0925C10.8795 43.879 10.6602 43.7665 10.4827 43.7681C10.3913 43.7681 10.3249 43.8004 10.2891 43.8228C10.7769 48.8106 18.4168 50.8795 20.0575 52.0104C21.662 53.1164 22.6246 60.4125 22.5504 60.6512C22.2915 61.4893 20.6999 78.2208 22.5965 81.7512C22.7396 82.0174 23.0022 82.1036 23.2305 82.1054C23.2945 82.1061 23.3664 82.0979 23.4602 82.0761C23.4838 82.0713 23.7099 80.2744 24.1734 75.1204C24.9222 66.7922 25.3279 64.5335 26.1284 64.4098L26.2258 64.4034C26.2342 64.4034 26.2379 64.4016 26.2451 64.4009C26.2524 64.4016 26.2561 64.4034 26.2646 64.4034L26.3619 64.4098C27.1624 64.5335 27.5682 66.7922 28.3169 75.1204C28.7804 80.2744 29.0064 82.0713 29.03 82.0761C29.1242 82.0979 29.1959 82.1061 29.2601 82.1054C29.4883 82.1036 29.751 82.0174 29.8938 81.7512C31.7904 78.2208 30.1987 61.4893 29.9399 60.6512C29.866 60.4125 29.9553 59.6992 30.1094 58.8394H30.1261C30.4303 57.0977 30.9968 54.7438 31.0486 54.4342C31.3918 52.3793 34.9723 61.2724 36.0574 62.3611L36.4676 60.5616C34.7884 55.9791 34.358 52.4123 33.4275 51.5806Z" fill="#535050"/>
<path d="M49.1077 51.5774C48.4831 50.4366 46.2844 50.3088 44.5328 49.8918H44.3983C44.2679 49.786 44.1862 49.6375 44.3834 49.4592C44.9706 48.9293 46.5958 46.5371 46.4589 44.8994C46.4161 44.3784 46.2012 43.9981 45.806 43.736C45.8002 43.7319 45.2106 43.355 43.9067 43.3428C43.3523 43.3387 42.7465 43.4001 42.103 43.5261C40.6867 43.8024 40.4238 44.0568 40.3753 44.1534C40.3429 44.2196 40.3962 44.3205 40.4833 44.4648C40.5331 44.5459 40.5816 44.6297 40.6152 44.7202L40.7788 45.1876L40.3959 48.1148L40.7497 48.5813C40.7497 48.5813 42.4493 48.6401 41.8738 50.033L41.8703 50.0449C40.2782 50.3604 38.5509 50.5874 38.0088 51.5774C36.1319 55.0056 35.7528 61.1704 35.7214 61.1869C35.6903 62.8202 36.6873 62.6555 36.9967 61.2701C38.3157 55.3676 38.9734 54.5769 39.2021 54.5192C39.7049 57.3887 39.9444 61.1938 39.9048 61.3216C39.6541 62.1333 38.1121 78.3422 39.9494 81.7622C40.088 82.0204 40.3424 82.1036 40.5635 82.1054C40.6254 82.1061 40.6951 82.0979 40.7863 82.0772C40.8091 82.072 41.0282 80.3312 41.477 75.3386C42.2026 67.2703 42.5954 65.0818 43.3713 64.9629L43.4654 64.9565C43.4736 64.9565 43.4773 64.954 43.4843 64.9535C43.491 64.954 43.4948 64.9565 43.503 64.9565L43.597 64.9629C44.3729 65.0818 44.7657 67.2703 45.4914 75.3386C45.9404 80.3312 46.1592 82.072 46.1821 82.0772C46.2732 82.0979 46.3427 82.1061 46.4049 82.1054C46.6259 82.1036 46.8804 82.0204 47.019 81.7622C48.8562 78.3422 47.3142 62.1333 47.0636 61.3216C46.9919 61.09 47.0785 60.399 47.2276 59.5657H47.244C47.4852 58.1858 47.6482 55.3119 47.8173 54.5467C47.8173 54.5467 48.4189 53.6582 50.1198 61.2701C50.4295 62.6555 51.4262 62.8202 51.395 61.1869C51.3639 61.1704 50.9846 55.0056 49.1077 51.5774Z" fill="#535050"/>
<path d="M60.679 79.8425C60.679 79.8684 60.5901 82.3753 61.9602 82.7078C62.1792 82.6074 63.2078 75.4329 63.3068 68.6445L60.2209 68.8821C60.6461 71.4276 60.8472 75.1532 60.679 79.8425Z" fill="#535050"/>
<path d="M56.3984 69.6577C56.4036 69.7498 56.4108 69.8313 56.4173 69.9164C56.563 76.1863 57.5414 82.6154 57.7543 82.708C59.1246 82.393 59.0357 80.0164 59.0357 79.9919C58.8664 75.5189 59.1276 71.6444 59.606 68.9697L60.8152 68.8688L56.3887 69.1919C56.3929 69.3463 56.3904 69.5087 56.3984 69.6577Z" fill="#535050"/>
<path d="M55.9556 45.2757C55.9556 45.2757 55.1767 44.288 56.1866 43.8546C57.1967 43.4213 58.751 43.8546 58.751 43.8546L59.1615 45.5897L57.4153 45.7427L55.9556 45.2757Z" fill="#535050"/>
<path d="M74.0583 44.9672C73.8914 44.9656 73.6862 45.0712 73.4619 45.2712C73.393 45.3349 73.2834 45.4426 73.1381 45.586C69.1713 49.5039 67.5069 49.6851 63.653 50.336C63.5211 50.2135 63.3986 50.0849 63.2809 49.9539C62.5734 48.9691 62.2322 46.8565 62.1817 46.0667C62.1229 45.1489 61.6457 44.4286 61.6457 44.4286L61.6363 44.4322C61.5252 44.1705 61.355 43.9534 61.1063 43.7884C61.1003 43.7841 60.4962 43.3982 59.1603 43.3854C58.5922 43.3813 57.9714 43.4441 57.312 43.5733C55.8608 43.8567 56.2362 43.7554 56.1862 43.8546C56.153 43.9227 55.7896 44.3534 55.8789 44.5012C55.93 44.5843 55.7533 44.7039 55.7876 44.797L55.9552 45.2758L55.925 48.2577L56.3457 48.7929L57.5189 48.9549C57.657 49.0679 58.0861 48.9029 57.5293 50.2508C57.5293 50.2508 56.2381 50.956 54.8636 51.8044C53.4699 52.6643 53.1291 53.3747 52.752 53.9693C52.5494 54.2887 51.4019 57.2149 50.6387 60.5694L51.2562 62.0996C52.4779 60.3476 53.2631 56.7095 54.4399 55.2021C54.4399 55.2021 55.5872 54.0209 56.053 54.8656C56.053 54.8658 56.053 54.8658 56.053 54.8658C56.0592 54.8752 56.0644 54.889 56.0706 54.8988C56.0983 54.954 56.1236 55.015 56.1456 55.0867C56.1966 55.2544 56.3808 56.3493 56.5244 57.4771C56.5762 58.5085 56.555 59.4314 56.555 59.4321C56.4744 59.7411 56.4238 59.8527 55.8892 61.7376C55.4212 63.2445 55.2074 65.2527 55.1541 67.416C55.1172 68.0669 55.112 68.691 55.13 69.2881L59.5565 68.9907L61.6298 68.8319C61.6308 68.8383 61.6318 68.8452 61.633 68.8518L64.719 68.6447C64.768 65.7274 64.5915 62.8914 63.9773 60.9184C63.9515 60.7341 61.1155 55.4908 65.504 52.6439C67.2035 51.5412 73.9168 49.3914 74.2399 45.0185C74.2062 44.9974 74.1437 44.9672 74.0583 44.9672Z" fill="#535050"/>
<path d="M88.8918 60.7183C84.8135 61.2357 81.9236 62.0786 80.2222 63.2457C78.9534 64.1319 78.32 65.3884 78.32 67.0137C78.32 68.1522 78.6482 69.0419 79.3071 69.6847C79.9654 70.3276 80.8244 70.6488 81.8841 70.6488C83.778 70.6488 85.4201 69.9878 86.8087 68.6654C88.1972 67.3432 88.8918 65.684 88.8918 63.6886V60.7183ZM96.791 69.4742L97.6583 70.7153C96.4858 71.8237 95.1852 72.3779 93.7565 72.3779C92.6642 72.3779 91.746 72.1041 90.9991 71.5575C90.2523 71.0115 89.5979 70.0506 89.0364 68.6764C87.5109 70.1544 86.1708 71.1405 85.0142 71.6354C83.8589 72.1298 82.4697 72.3779 80.8479 72.3779C78.536 72.3779 76.7785 71.92 75.5741 71.0033C74.3698 70.0878 73.7676 68.9128 73.7676 67.4793C73.7676 65.3222 75.1446 63.5303 77.8982 62.1038C80.651 60.6778 84.3164 59.7283 88.8918 59.2555V56.1077C88.8918 54.9848 88.4018 54.0243 87.423 53.2261C86.4435 52.4284 85.199 52.0295 83.69 52.0295C82.2932 52.0295 81.0894 52.2952 80.0775 52.8272C79.3549 53.2261 78.9936 53.6181 78.9936 54.0021C78.9936 54.2234 79.1867 54.571 79.5722 55.0441C80.0374 55.6352 80.27 56.1597 80.27 56.6179C80.27 57.2828 80.0374 57.8258 79.5722 58.2469C79.1057 58.6678 78.4959 58.879 77.742 58.879C76.9385 58.879 76.2687 58.6277 75.7309 58.125C75.1931 57.6228 74.9242 56.9797 74.9242 56.1964C74.9242 54.7337 75.8188 53.3961 77.6088 52.1845C79.3995 50.973 81.7471 50.367 84.6535 50.367C87.3344 50.367 89.3818 50.8988 90.7946 51.9625C92.2067 53.0417 92.9134 54.3497 92.9134 55.8864V67.2353C92.9134 68.2402 93.0906 68.979 93.4436 69.452C93.7966 69.9397 94.2542 70.1832 94.8162 70.1832C95.4426 70.1832 96.1002 69.9468 96.791 69.4742Z" fill="#535050"/>
<path d="M114.664 65.5946L116.229 66.0157C114.977 70.2575 112.215 72.3777 107.944 72.3777C104.814 72.3777 102.253 71.4242 100.262 69.5183C98.2714 67.6117 97.2754 65.0779 97.2754 61.9153C97.2754 58.2503 98.3676 55.4093 100.551 53.3922C102.735 51.3748 105.303 50.3668 108.258 50.3668C110.475 50.3668 112.305 50.9283 113.748 52.0515C115.194 53.1743 115.917 54.423 115.917 55.797C115.917 56.625 115.647 57.3085 115.109 57.8478C114.572 58.3876 113.932 58.6566 113.196 58.6566C112.473 58.6566 111.862 58.4283 111.365 57.9722C110.866 57.5156 110.617 56.9629 110.617 56.3145C110.617 55.6668 110.891 55.0487 111.437 54.459C111.692 54.1792 111.821 53.9583 111.821 53.7964C111.821 53.3689 111.508 52.953 110.882 52.5477C110.256 52.1431 109.405 51.9401 108.33 51.9401C106.371 51.9401 104.886 52.5974 103.875 53.9107C102.429 55.8151 101.707 58.3239 101.707 61.4385C101.707 64.405 102.349 66.6526 103.634 68.1799C104.918 69.7074 106.555 70.4715 108.546 70.4715C111.291 70.4715 113.331 68.8464 114.664 65.5946Z" fill="#535050"/>
<path d="M122.301 42.52H123.914V50.9874H131.211V53.0267H123.914V66.3485C123.914 67.5014 124.211 68.3842 124.805 68.9973C125.399 69.6106 126.154 69.9174 127.069 69.9174C128.16 69.9174 129.092 69.4519 129.862 68.521C130.633 67.5896 131.083 66.0528 131.211 63.9103H132.824C132.729 66.6738 132.046 68.7244 130.777 70.0618C129.509 71.3991 127.863 72.0676 125.841 72.0676C123.978 72.0676 122.521 71.5991 121.47 70.66C120.418 69.7222 119.892 68.4917 119.892 66.9696V53.0267H115.967V51.4752C117.756 51.1945 119.117 50.5074 120.051 49.4133C121.437 47.7733 122.187 45.4754 122.301 42.52Z" fill="#535050"/>
<path d="M132.153 50.9873L141.136 50.7435V68.6093C141.136 69.0973 141.265 69.444 141.521 69.6516C141.891 69.9466 142.356 70.0945 142.918 70.0945H145.471V71.7573H132.635V70.0945H135.019C135.726 70.0945 136.242 69.9361 136.572 69.6184C136.901 69.301 137.066 68.8387 137.066 68.2329V55.1546C137.066 54.3273 136.809 53.7025 136.296 53.2814C135.781 52.8603 135.019 52.6495 134.008 52.6495H132.153V50.9873Z" fill="#535050"/>
<path d="M151.11 42.52H152.722V50.9874H160.02V53.0267H152.722V66.3485C152.722 67.5014 153.019 68.3842 153.613 68.9973C154.207 69.6106 154.962 69.9174 155.877 69.9174C156.968 69.9174 157.901 69.4519 158.671 68.521C159.442 67.5896 159.891 66.0528 160.02 63.9103H161.633C161.537 66.6738 160.855 68.7244 159.586 70.0618C158.317 71.3991 156.671 72.0676 154.649 72.0676C152.787 72.0676 151.329 71.5991 150.279 70.66C149.226 69.7222 148.7 68.4917 148.7 66.9696V53.0267H144.775V51.4752C146.564 51.1945 147.926 50.5074 148.86 49.4133C150.246 47.7733 150.995 45.4754 151.11 42.52Z" fill="#535050"/>
<path d="M169.125 50.6107V64.3759C169.125 66.0605 169.585 67.3607 170.506 68.2769C171.428 69.1932 172.617 69.6516 174.076 69.6516C175.869 69.6516 177.395 68.9831 178.654 67.6453C179.911 66.3084 180.54 64.6345 180.54 62.6245V54.8442C180.54 54.1349 180.263 53.5846 179.709 53.193C179.155 52.8017 178.092 52.5833 176.519 52.5389V50.9873L184.441 50.6107V67.6563C184.441 68.4401 184.682 69.0418 185.164 69.4628C185.645 69.884 186.32 70.0945 187.187 70.0945H188.608V71.5796L181.021 71.7352L180.54 67.6563C179.194 69.1199 177.839 70.2208 176.476 70.9592C175.113 71.6981 173.735 72.0676 172.34 72.0676C170.305 72.0676 168.598 71.4394 167.219 70.1832C165.824 68.9421 165.127 66.8363 165.127 63.8663V54.8442C165.127 54.0464 164.783 53.4404 164.092 53.0267C163.611 52.7312 162.623 52.5684 161.13 52.5389V50.9873L169.125 50.6107Z" fill="#535050"/>
<path d="M199.955 52.2067C198.222 52.2067 196.843 52.864 195.825 54.1794C194.805 55.4947 194.295 57.7112 194.295 60.8292C194.295 64.2134 194.817 66.5964 195.861 67.9777C196.904 69.3597 198.244 70.0505 199.882 70.0505C201.632 70.0505 203.13 69.2787 204.374 67.7337C205.618 66.1899 206.241 63.9325 206.241 60.9623C206.241 58.1547 205.575 55.9451 204.242 54.3347C203.086 52.916 201.656 52.2067 199.955 52.2067ZM201.351 38.9733L210.166 38.5962V67.0136C210.166 68.1221 210.395 68.9127 210.852 69.3854C211.31 69.8588 211.996 70.0945 212.911 70.0945H214.477V71.7574H206.77L206.193 67.5232C205.278 69.0305 204.206 70.1649 202.977 70.9262C201.749 71.6871 200.372 72.0676 198.847 72.0676C196.279 72.0676 194.09 71.0776 192.284 69.0974C190.478 67.1174 189.574 64.5014 189.574 61.2503C189.574 57.7334 190.731 54.9258 193.043 52.8271C194.857 51.1869 196.945 50.3669 199.304 50.3669C200.749 50.3669 202.046 50.6991 203.194 51.3645C204.342 52.0294 205.341 53.0343 206.193 54.3787V42.6529C206.193 42.032 205.931 41.541 205.41 41.1788C204.887 40.8168 204.073 40.6358 202.965 40.6358H201.351V38.9733Z" fill="#535050"/>
<path d="M218.935 59.9424H228.712C229.29 59.9424 229.738 59.7618 230.061 59.3993C230.381 59.038 230.542 58.4206 230.542 57.5485C230.542 55.9234 229.991 54.5419 228.892 53.4035C227.792 52.2657 226.496 51.6966 225.003 51.6966C223.333 51.6966 221.916 52.3837 220.752 53.7583C219.589 55.1326 218.982 57.1937 218.935 59.9424ZM235.093 61.5166H218.935C219.014 64.6786 219.656 66.9111 220.86 68.2109C222.241 69.6735 223.999 70.4055 226.134 70.4055C229.282 70.4055 231.81 68.7573 233.721 65.4617L235.287 66.0828C232.942 70.28 229.554 72.3779 225.124 72.3779C222.104 72.3779 219.564 71.3733 217.502 69.3633C215.438 67.3537 214.406 64.7824 214.406 61.6492C214.406 58.2801 215.422 55.5573 217.453 53.4814C219.483 51.4053 221.984 50.367 224.955 50.367C227.138 50.367 229.025 50.8841 230.615 51.9186C232.204 52.9533 233.399 54.4381 234.202 56.3737C234.764 57.7335 235.061 59.4479 235.093 61.5166Z" fill="#535050"/>
<path d="M124.637 82.0273H123.985V77.2659H122.046V76.7117H126.576V77.2659H124.637V82.0273Z" fill="#C10230"/>
<path d="M129.497 77.3805L128.176 80.0913H130.808L129.497 77.3805ZM132.442 82.0273H131.74L131.064 80.6226H127.92L127.236 82.0273H126.567L129.199 76.673H129.81L132.442 82.0273Z" fill="#C10230"/>
<path d="M138.498 82.0273H137.681L135.461 79.4537L134.232 80.6004V82.0273H133.58V76.7117H134.232V79.886L137.549 76.7117H138.391L135.916 79.0356L138.498 82.0273Z" fill="#C10230"/>
<path d="M143.687 77.259H140.165V79.0732H143.316V79.6203H140.165V81.4814H143.729V82.0273H139.513V76.7117H143.687V77.259Z" fill="#C10230"/>
<path d="M149.95 77.3805L148.63 80.0913H151.261L149.95 77.3805ZM152.895 82.0273H152.194L151.517 80.6226H148.374L147.689 82.0273H147.021L149.653 76.673H150.263L152.895 82.0273Z" fill="#C10230"/>
<path d="M158.18 81.5683C158.018 81.6822 157.843 81.78 157.655 81.8605C157.469 81.942 157.268 82.0048 157.054 82.0504C156.839 82.0969 156.6 82.1191 156.336 82.1191C155.918 82.1191 155.532 82.0481 155.181 81.9063C154.829 81.7642 154.523 81.5706 154.265 81.3255C154.007 81.0799 153.804 80.79 153.659 80.4562C153.512 80.1213 153.439 79.7618 153.439 79.3776C153.439 78.9977 153.512 78.6403 153.659 78.3071C153.804 77.9724 154.007 77.6803 154.265 77.4299C154.523 77.1788 154.831 76.9817 155.189 76.8374C155.547 76.6931 155.937 76.6208 156.361 76.6208C156.624 76.6208 156.862 76.6415 157.074 76.6814C157.286 76.7219 157.483 76.7787 157.664 76.8521C157.845 76.9254 158.014 77.0152 158.167 77.1178C158.321 77.2221 158.47 77.3371 158.613 77.4638L158.167 77.9037C157.92 77.692 157.654 77.5165 157.371 77.3806C157.088 77.2434 156.748 77.1753 156.352 77.1753C156.033 77.1753 155.738 77.231 155.465 77.3423C155.193 77.4539 154.957 77.6081 154.756 77.8052C154.555 78.0029 154.398 78.2352 154.285 78.5007C154.172 78.7665 154.117 79.0534 154.117 79.3618C154.117 79.6715 154.172 79.96 154.285 80.228C154.398 80.4961 154.555 80.7296 154.756 80.9266C154.957 81.1239 155.193 81.2797 155.465 81.3935C155.738 81.5079 156.033 81.5642 156.352 81.5642C156.748 81.5642 157.09 81.4973 157.376 81.3638C157.661 81.2293 157.942 81.0405 158.217 80.7976L158.646 81.1848C158.498 81.3266 158.342 81.4545 158.18 81.5683Z" fill="#C10230"/>
<path d="M161.962 82.0273H161.311V77.2659H159.372V76.7117H163.902V77.2659H161.962V82.0273Z" fill="#C10230"/>
<path d="M165.84 76.7117V82.0273H165.188V76.7117H165.84Z" fill="#C10230"/>
<path d="M172.322 78.5191C172.209 78.251 172.051 78.018 171.848 77.821C171.643 77.6232 171.404 77.4661 171.125 77.3495C170.847 77.234 170.544 77.1753 170.213 77.1753C169.884 77.1753 169.58 77.2321 169.302 77.346C169.024 77.4597 168.787 77.6157 168.588 77.8134C168.39 78.0104 168.235 78.2416 168.122 78.5072C168.009 78.7736 167.953 79.0586 167.953 79.3618C167.953 79.6656 168.009 79.9519 168.122 80.22C168.235 80.4885 168.393 80.722 168.597 80.919C168.801 81.1168 169.041 81.2733 169.319 81.3894C169.597 81.5067 169.901 81.5642 170.231 81.5642C170.56 81.5642 170.865 81.5079 171.142 81.3935C171.42 81.2797 171.658 81.1239 171.856 80.9266C172.054 80.7296 172.209 80.4972 172.322 80.2317C172.435 79.9659 172.492 79.6809 172.492 79.3776C172.492 79.0733 172.435 78.7876 172.322 78.5191ZM172.953 80.4134C172.81 80.7461 172.609 81.0382 172.351 81.2916C172.093 81.5443 171.782 81.7461 171.418 81.8951C171.056 82.044 170.654 82.1191 170.213 82.1191C169.774 82.1191 169.374 82.0458 169.013 81.8985C168.653 81.7519 168.344 81.5537 168.086 81.3026C167.826 81.0517 167.627 80.7607 167.487 80.4292C167.346 80.0974 167.276 79.7471 167.276 79.3776C167.276 79.0082 167.348 78.6575 167.491 78.3255C167.634 77.9939 167.835 77.7014 168.093 77.4487C168.351 77.1953 168.663 76.9941 169.026 76.8445C169.389 76.6956 169.79 76.6208 170.231 76.6208C170.67 76.6208 171.07 76.6942 171.431 76.8408C171.791 76.9881 172.1 77.1863 172.36 77.4367C172.618 77.6872 172.817 77.9788 172.957 78.3101C173.098 78.6421 173.168 78.9929 173.168 79.3618C173.168 79.732 173.096 80.0825 172.953 80.4134Z" fill="#C10230"/>
<path d="M178.794 76.7117H179.43V82.0273H178.91L175.18 77.6689V82.0273H174.545V76.7117H175.156L178.794 80.9723V76.7117Z" fill="#C10230"/>
<path d="M186.179 83V75.9676H186.715V83H186.179Z" fill="#535050"/>
<path d="M197.692 78.5499C197.58 78.2912 197.42 78.0671 197.214 77.8772C197.007 77.687 196.756 77.5381 196.459 77.4297C196.162 77.3204 195.831 77.2659 195.469 77.2659H194.115V81.4731H195.469C195.831 81.4731 196.162 81.4204 196.459 81.3143C196.756 81.2076 197.007 81.0596 197.214 80.8696C197.42 80.6797 197.58 80.4584 197.692 80.2052C197.805 79.9518 197.862 79.6759 197.862 79.3774C197.862 79.0837 197.805 78.8074 197.692 78.5499ZM198.315 80.4132C198.167 80.74 197.956 81.0227 197.685 81.261C197.412 81.4983 197.087 81.6862 196.71 81.8227C196.334 81.9588 195.919 82.0273 195.469 82.0273H193.464V76.7117H195.469C195.919 76.7117 196.334 76.7786 196.71 76.9129C197.087 77.0466 197.412 77.2338 197.685 77.4712C197.956 77.7088 198.167 77.9904 198.315 78.3136C198.464 78.6378 198.538 78.9875 198.538 79.3616C198.538 79.7364 198.464 80.0872 198.315 80.4132Z" fill="#C10230"/>
<path d="M204.705 78.5191C204.593 78.251 204.434 78.018 204.231 77.821C204.028 77.6232 203.787 77.4661 203.509 77.3495C203.232 77.234 202.927 77.1753 202.598 77.1753C202.268 77.1753 201.964 77.2321 201.686 77.346C201.407 77.4597 201.17 77.6157 200.972 77.8134C200.774 78.0104 200.619 78.2416 200.506 78.5072C200.394 78.7736 200.337 79.0586 200.337 79.3618C200.337 79.6656 200.394 79.9519 200.506 80.22C200.619 80.4885 200.777 80.722 200.981 80.919C201.184 81.1168 201.425 81.2733 201.702 81.3894C201.98 81.5067 202.284 81.5642 202.614 81.5642C202.944 81.5642 203.248 81.5079 203.526 81.3935C203.803 81.2797 204.041 81.1239 204.239 80.9266C204.438 80.7296 204.593 80.4972 204.705 80.2317C204.819 79.9659 204.875 79.6809 204.875 79.3776C204.875 79.0733 204.819 78.7876 204.705 78.5191ZM205.337 80.4134C205.194 80.7461 204.993 81.0382 204.734 81.2916C204.476 81.5443 204.165 81.7461 203.802 81.8951C203.439 82.044 203.038 82.1191 202.598 82.1191C202.157 82.1191 201.757 82.0458 201.397 81.8985C201.037 81.7519 200.728 81.5537 200.469 81.3026C200.211 81.0517 200.011 80.7607 199.87 80.4292C199.731 80.0974 199.66 79.7471 199.66 79.3776C199.66 79.0082 199.732 78.6575 199.875 78.3255C200.018 77.9939 200.218 77.7014 200.477 77.4487C200.736 77.1953 201.046 76.9941 201.409 76.8445C201.773 76.6956 202.174 76.6208 202.614 76.6208C203.054 76.6208 203.454 76.6942 203.815 76.8408C204.174 76.9881 204.485 77.1863 204.743 77.4367C205.001 77.6872 205.201 77.9788 205.341 78.3101C205.481 78.6421 205.551 78.9929 205.551 79.3618C205.551 79.732 205.479 80.0825 205.337 80.4134Z" fill="#C10230"/>
<path d="M213.41 81.8797C213.016 82.0394 212.575 82.1191 212.085 82.1191C211.629 82.1191 211.221 82.0481 210.86 81.9063C210.5 81.7642 210.192 81.5695 209.936 81.3214C209.681 81.0732 209.485 80.7825 209.35 80.448C209.215 80.1144 209.148 79.7572 209.148 79.3776C209.148 79.0128 209.219 78.6632 209.359 78.3296C209.499 77.9951 209.695 77.7014 209.949 77.4487C210.201 77.1953 210.506 76.9941 210.86 76.8445C211.215 76.6956 211.609 76.6208 212.045 76.6208C212.286 76.6208 212.507 76.6355 212.709 76.6667C212.909 76.6967 213.096 76.7423 213.269 76.8028C213.443 76.8637 213.605 76.9382 213.756 77.0268C213.908 77.1153 214.055 77.2152 214.198 77.3272L213.777 77.7822C213.667 77.692 213.551 77.6093 213.431 77.5359C213.31 77.4626 213.179 77.3992 213.038 77.346C212.899 77.2931 212.744 77.2509 212.577 77.2209C212.409 77.19 212.223 77.1753 212.02 77.1753C211.701 77.1753 211.406 77.234 211.137 77.3506C210.867 77.4668 210.636 77.6246 210.443 77.8216C210.251 78.0191 210.1 78.2515 209.99 78.5177C209.879 78.7842 209.825 79.0669 209.825 79.3659C209.825 79.6855 209.878 79.9806 209.986 80.2521C210.093 80.5238 210.246 80.7584 210.443 80.9555C210.642 81.1537 210.881 81.3085 211.161 81.4199C211.443 81.5319 211.759 81.5871 212.11 81.5871C212.44 81.5871 212.751 81.5356 213.043 81.4311C213.334 81.3266 213.579 81.2006 213.777 81.0533V79.7267H212.02V79.1947H214.404V81.3085C214.134 81.5308 213.803 81.7214 213.41 81.8797Z" fill="#C10230"/>
<path d="M220.662 78.5191C220.55 78.251 220.391 78.018 220.188 77.821C219.984 77.6232 219.744 77.4661 219.465 77.3495C219.188 77.234 218.884 77.1753 218.554 77.1753C218.224 77.1753 217.921 77.2321 217.642 77.346C217.365 77.4597 217.127 77.6157 216.929 77.8134C216.73 78.0104 216.575 78.2416 216.462 78.5072C216.35 78.7736 216.294 79.0586 216.294 79.3618C216.294 79.6656 216.35 79.9519 216.462 80.22C216.575 80.4885 216.734 80.722 216.937 80.919C217.141 81.1168 217.381 81.2733 217.659 81.3894C217.937 81.5067 218.241 81.5642 218.571 81.5642C218.901 81.5642 219.205 81.5079 219.483 81.3935C219.76 81.2797 219.998 81.1239 220.196 80.9266C220.394 80.7296 220.55 80.4972 220.662 80.2317C220.775 79.9659 220.832 79.6809 220.832 79.3776C220.832 79.0733 220.775 78.7876 220.662 78.5191ZM221.294 80.4134C221.15 80.7461 220.949 81.0382 220.691 81.2916C220.433 81.5443 220.122 81.7461 219.759 81.8951C219.396 82.044 218.994 82.1191 218.554 82.1191C218.114 82.1191 217.714 82.0458 217.354 81.8985C216.994 81.7519 216.684 81.5537 216.426 81.3026C216.167 81.0517 215.968 80.7607 215.827 80.4292C215.687 80.0974 215.616 79.7471 215.616 79.3776C215.616 79.0082 215.688 78.6575 215.831 78.3255C215.975 77.9939 216.175 77.7014 216.434 77.4487C216.692 77.1953 217.003 76.9941 217.366 76.8445C217.73 76.6956 218.131 76.6208 218.571 76.6208C219.011 76.6208 219.411 76.6942 219.771 76.8408C220.131 76.9881 220.441 77.1863 220.7 77.4367C220.958 77.6872 221.157 77.9788 221.297 78.3101C221.438 78.6421 221.508 78.9929 221.508 79.3618C221.508 79.732 221.436 80.0825 221.294 80.4134Z" fill="#C10230"/>
<path d="M227.675 78.5191C227.562 78.251 227.404 78.018 227.201 77.821C226.998 77.6232 226.757 77.4661 226.479 77.3495C226.202 77.234 225.897 77.1753 225.568 77.1753C225.237 77.1753 224.933 77.2321 224.656 77.346C224.377 77.4597 224.139 77.6157 223.942 77.8134C223.744 78.0104 223.588 78.2416 223.475 78.5072C223.363 78.7736 223.307 79.0586 223.307 79.3618C223.307 79.6656 223.363 79.9519 223.475 80.22C223.588 80.4885 223.746 80.722 223.95 80.919C224.154 81.1168 224.394 81.2733 224.672 81.3894C224.95 81.5067 225.253 81.5642 225.583 81.5642C225.914 81.5642 226.218 81.5079 226.495 81.3935C226.773 81.2797 227.011 81.1239 227.209 80.9266C227.407 80.7296 227.562 80.4972 227.675 80.2317C227.788 79.9659 227.844 79.6809 227.844 79.3776C227.844 79.0733 227.788 78.7876 227.675 78.5191ZM228.306 80.4134C228.164 80.7461 227.962 81.0382 227.704 81.2916C227.445 81.5443 227.135 81.7461 226.772 81.8951C226.409 82.044 226.007 82.1191 225.568 82.1191C225.127 82.1191 224.727 82.0458 224.367 81.8985C224.006 81.7519 223.697 81.5537 223.439 81.3026C223.18 81.0517 222.98 80.7607 222.84 80.4292C222.701 80.0974 222.63 79.7471 222.63 79.3776C222.63 79.0082 222.702 78.6575 222.845 78.3255C222.987 77.9939 223.188 77.7014 223.446 77.4487C223.706 77.1953 224.016 76.9941 224.379 76.8445C224.742 76.6956 225.144 76.6208 225.583 76.6208C226.023 76.6208 226.423 76.6942 226.785 76.8408C227.144 76.9881 227.454 77.1863 227.712 77.4367C227.971 77.6872 228.171 77.9788 228.31 78.3101C228.451 78.6421 228.521 78.9929 228.521 79.3618C228.521 79.732 228.449 80.0825 228.306 80.4134Z" fill="#C10230"/>
<path d="M234.127 78.5499C234.014 78.2912 233.855 78.0671 233.649 77.8772C233.443 77.687 233.191 77.5381 232.894 77.4297C232.597 77.3204 232.267 77.2659 231.904 77.2659H230.551V81.4731H231.904C232.267 81.4731 232.597 81.4204 232.894 81.3143C233.191 81.2076 233.443 81.0596 233.649 80.8696C233.855 80.6797 234.014 80.4584 234.127 80.2052C234.24 79.9518 234.297 79.6759 234.297 79.3774C234.297 79.0837 234.24 78.8074 234.127 78.5499ZM234.75 80.4132C234.602 80.74 234.392 81.0227 234.12 81.261C233.847 81.4983 233.522 81.6862 233.146 81.8227C232.769 81.9588 232.355 82.0273 231.904 82.0273H229.898V76.7117H231.904C232.355 76.7117 232.769 76.7786 233.146 76.9129C233.522 77.0466 233.847 77.2338 234.12 77.4712C234.392 77.7088 234.602 77.9904 234.75 78.3136C234.899 78.6378 234.973 78.9875 234.973 79.3616C234.973 79.7364 234.899 80.0872 234.75 80.4132Z" fill="#C10230"/>
<path d="M12.5823 33.7187C13.117 34.0423 13.6937 34.2253 14.2406 34.0931C14.965 33.9179 15.2363 33.1029 15.0856 32.4817C14.9557 31.9468 14.5908 31.5035 14.2187 31.0938C14.9455 31.3206 16.7144 31.1772 16.8959 30.1922C16.9359 29.9741 16.8059 29.7677 16.6636 29.5999C15.8063 28.5898 14.4828 28.3268 13.1593 28.3598C12.8842 28.3666 9.60916 28.8909 9.59399 28.714C10.1789 30.1176 10.2285 29.729 10.8924 31.6416C11.1044 32.2531 11.8236 33.2598 12.5823 33.7187Z" fill="#C10230"/>
<path d="M80.3493 35.6607C80.0485 35.1408 79.9038 34.5953 80.0976 34.1064C80.3537 33.4587 81.2605 33.2852 81.9188 33.4809C82.4853 33.6493 82.9314 34.0248 83.3398 34.4037C83.162 33.7164 83.4807 32.1087 84.5627 32.0336C84.8029 32.0168 85.0139 32.1552 85.1821 32.3011C86.1959 33.1803 86.3578 34.4177 86.1998 35.6276C86.1666 35.879 85.2968 38.8318 85.4867 38.8623C84.0223 38.1962 84.4474 38.1869 82.4394 37.4017C81.7977 37.1506 80.7756 36.3986 80.3493 35.6607Z" fill="#C10230"/>
<path d="M73.9238 31.2469C73.2935 31.1431 72.7385 30.9112 72.4403 30.469C72.0452 29.8832 72.4568 29.1195 73.0303 28.7642C73.5242 28.4581 74.1207 28.3671 74.6967 28.3055C73.9996 28.0097 72.8232 26.786 73.4273 25.9564C73.5612 25.7724 73.8097 25.7048 74.0385 25.6732C75.4155 25.4826 76.5728 26.1294 77.5089 26.9913C77.7032 27.1703 79.6895 29.6241 79.8322 29.5051C78.3589 30.1538 78.6138 29.8403 76.7028 30.8088C76.0916 31.1183 74.8172 31.3939 73.9238 31.2469Z" fill="#C10230"/>
<path d="M63.5811 34.6361C63.2067 35.1138 62.739 35.4742 62.1767 35.5301C61.4319 35.6039 60.8628 34.9314 60.763 34.3018C60.6771 33.7595 60.8465 33.2254 61.0356 32.7205C60.4442 33.1709 58.7361 33.6172 58.1852 32.7564C58.063 32.5658 58.1046 32.3303 58.1728 32.1268C58.5825 30.9018 59.7173 30.2217 60.9666 29.8185C61.2263 29.7346 64.4889 29.15 64.4348 28.9797C64.4316 30.4831 64.235 30.1363 64.3557 32.141C64.394 32.7818 64.1123 33.9583 63.5811 34.6361Z" fill="#C10230"/>
<path d="M5.43308 37.1277C6.06385 37.2264 6.67197 37.1813 7.11529 36.8583C7.70251 36.4303 7.59571 35.5834 7.18724 35.0702C6.83526 34.6283 6.30755 34.3568 5.78805 34.1189C6.55273 34.0582 8.11047 33.2737 7.84761 32.3049C7.78911 32.0899 7.58028 31.9488 7.37669 31.8478C6.15097 31.239 4.82397 31.4867 3.62616 32.0056C3.37724 32.1135 0.605754 33.8028 0.514648 33.6465C1.66217 34.7163 1.53821 34.3419 2.97972 35.849C3.44072 36.3306 4.53796 36.9875 5.43308 37.1277Z" fill="#C10230"/>
<path d="M23.1289 34.6361C23.5032 35.1138 23.971 35.4742 24.5333 35.5301C25.2781 35.6039 25.8471 34.9314 25.9469 34.3018C26.0328 33.7595 25.8632 33.2254 25.6743 32.7205C26.2658 33.1709 27.9738 33.6172 28.5247 32.7564C28.647 32.5658 28.6054 32.3303 28.5372 32.1268C28.1275 30.9018 26.9926 30.2217 25.7433 29.8185C25.4836 29.7346 22.2208 29.15 22.2751 28.9797C22.2781 30.4831 22.4747 30.1363 22.3542 32.141C22.3156 32.7818 22.5977 33.9583 23.1289 34.6361Z" fill="#C10230"/>
<path d="M30.4655 39.7547C30.5932 40.3319 30.8584 40.8378 31.3457 41.1015C31.9915 41.4511 32.8109 41.0538 33.1833 40.5177C33.5041 40.056 33.5885 39.5052 33.642 38.9735C33.9798 39.6079 35.337 40.6618 36.2239 40.0861C36.4203 39.9584 36.4877 39.7282 36.5166 39.5172C36.6911 38.2451 35.961 37.1955 35.0027 36.3547C34.8035 36.1799 32.0915 34.4109 32.217 34.2764C31.5474 35.6477 31.8819 35.406 30.8755 37.1873C30.5537 37.7569 30.2846 38.9359 30.4655 39.7547Z" fill="#C10230"/>
<path d="M16.2456 14.7589C16.5904 15.2551 17.0357 15.6387 17.5936 15.7238C18.3326 15.8358 18.9417 15.1935 19.0796 14.5701C19.1983 14.0328 19.0617 13.4908 18.9036 12.977C19.4667 13.4574 21.1449 13.9906 21.7473 13.16C21.881 12.9759 21.8536 12.7383 21.7981 12.5319C21.4633 11.2878 20.3715 10.55 19.1488 10.0831C18.8947 9.98631 15.6723 9.23438 15.7371 9.06722C15.6485 10.5687 15.866 10.2321 15.6238 12.2274C15.5464 12.8656 15.7565 14.0545 16.2456 14.7589Z" fill="#C10230"/>
<path d="M27.7289 19.5039C27.8775 20.0769 28.161 20.5737 28.6576 20.8224C29.3157 21.152 30.1202 20.7297 30.4727 20.1825C30.7767 19.7109 30.8411 19.1578 30.875 18.6246C31.2357 19.2481 32.6304 20.2593 33.4959 19.6569C33.6875 19.5232 33.7465 19.2909 33.7679 19.0792C33.8956 17.8023 33.1277 16.7759 32.1393 15.9653C31.9339 15.797 29.1586 14.1125 29.2794 13.974C28.6603 15.3653 28.9856 15.1137 28.0447 16.9249C27.744 17.5044 27.518 18.6909 27.7289 19.5039Z" fill="#C10230"/>
<path d="M40.4225 4.79429C40.367 5.3814 40.4656 5.93508 40.8519 6.31574C41.3634 6.81899 42.2715 6.65183 42.7937 6.23539C43.2438 5.87585 43.4942 5.36967 43.7092 4.87405C43.8377 5.57026 44.8145 6.93513 45.8423 6.61429C46.0703 6.54332 46.2057 6.34038 46.2985 6.14507C46.8574 4.97083 46.4805 3.77372 45.8206 2.71738C45.6835 2.49801 43.6274 0.093822 43.7892 -0.00236893C42.7248 1.13785 43.1201 0.993561 41.6062 2.43936C41.1222 2.90155 40.5012 3.962 40.4225 4.79429Z" fill="#C10230"/>
<path d="M40.0386 26.3179C39.9834 26.9047 40.0819 27.4587 40.468 27.839C40.9795 28.3426 41.8879 28.1754 42.4098 27.7586C42.8599 27.3994 43.1105 26.8933 43.3256 26.3972C43.4541 27.0937 44.4308 28.4586 45.4586 28.1381C45.6864 28.0668 45.8221 27.8636 45.9149 27.6686C46.4738 26.4944 46.0969 25.2975 45.4367 24.2413C45.2998 24.0214 43.2435 21.6172 43.4055 21.521C42.3409 22.6612 42.7362 22.5169 41.2225 23.9627C40.7386 24.4248 40.1173 25.4854 40.0386 26.3179Z" fill="#C10230"/>
<path d="M114.333 27.065C113.854 26.6737 113.512 26.2088 113.509 25.6883C113.505 24.9989 114.289 24.5461 114.98 24.5187C115.575 24.4953 116.135 24.7045 116.661 24.929C116.235 24.3415 115.926 22.7321 116.912 22.3151C117.131 22.223 117.381 22.2846 117.594 22.3679C118.876 22.8676 119.496 23.9755 119.805 25.1606C119.869 25.4069 120.17 28.4539 120.359 28.4216C118.735 28.266 119.13 28.1213 116.951 28.028C116.254 27.998 115.011 27.6204 114.333 27.065Z" fill="#C10230"/>
<path d="M56.2431 39.7547C56.1154 40.3319 55.8503 40.8378 55.363 41.1015C54.7172 41.4511 53.8978 41.0538 53.5254 40.5177C53.2046 40.056 53.1199 39.5052 53.0667 38.9735C52.7289 39.6079 51.3717 40.6618 50.4848 40.0861C50.2884 39.9584 50.221 39.7282 50.1918 39.5172C50.0176 38.2451 50.7477 37.1955 51.7058 36.3547C51.9049 36.1799 54.6172 34.4109 54.4917 34.2764C55.1613 35.6477 54.8268 35.406 55.8332 37.1873C56.155 37.7569 56.4241 38.9359 56.2431 39.7547Z" fill="#C10230"/>
<path d="M58.9807 19.5039C58.8321 20.0769 58.5486 20.5737 58.0517 20.8224C57.3938 21.152 56.5893 20.7297 56.2366 20.1825C55.9329 19.7109 55.8684 19.1578 55.8346 18.6246C55.4739 19.2481 54.0792 20.2593 53.2137 19.6569C53.0217 19.5232 52.9628 19.2909 52.9416 19.0792C52.8139 17.8023 53.5818 16.7759 54.57 15.9653C54.7757 15.797 57.5507 14.1125 57.4302 13.974C58.0492 15.3653 57.7239 15.1137 58.6646 16.9249C58.9655 17.5044 59.1916 18.6909 58.9807 19.5039Z" fill="#C10230"/>
<path d="M136.682 42.9409C136.803 42.3623 137.061 41.8539 137.546 41.5849C138.187 41.2284 139.011 41.617 139.39 42.1491C139.717 42.6073 139.808 43.1571 139.868 43.6885C140.198 43.0501 141.542 41.982 142.436 42.5479C142.634 42.6735 142.704 42.903 142.736 43.1138C142.926 44.3838 142.209 45.4412 141.262 46.2923C141.091 46.4458 139.042 47.8205 138.587 48.2682C138.538 48.3168 138.45 48.2946 138.42 48.2336C137.842 47.053 138.109 47.1987 137.124 45.5037C136.795 44.9378 136.511 43.7618 136.682 42.9409Z" fill="#C10230"/>
<path d="M20.46 82.6943H20.4667L20.4903 82.6474C20.4821 82.621 20.4741 82.5958 20.4662 82.5706C20.4642 82.6123 20.4619 82.6533 20.46 82.6943Z" fill="#F88D2A"/>
<path d="M20.6568 80.1133C20.5832 80.7502 20.5349 81.3984 20.498 82.0083C20.5371 82.0142 20.5717 82.0358 20.5911 82.0704C20.624 82.1279 20.6586 82.1831 20.6942 82.2388C20.8236 81.9849 20.9583 81.7285 21.0965 81.4703C21.0263 81.0018 20.913 80.4547 20.6568 80.1133Z" fill="#F88D2A"/>
<path d="M28.3007 82.6943C28.3046 82.6199 28.3099 82.5454 28.3149 82.471C28.3226 82.3559 28.3305 82.2409 28.335 82.1254C28.335 82.1149 28.3357 82.1037 28.3362 82.0927C28.2388 82.2714 28.1363 82.4785 28.0315 82.6943H28.3007Z" fill="#F88D2A"/>
<path d="M34.8315 82.6943C34.8464 81.6663 34.8912 80.7817 34.9706 79.9711C34.6635 80.9817 34.4298 81.8622 34.2473 82.6943H34.8315Z" fill="#F88D2A"/>
<path d="M35.9048 82.2311C35.8479 82.3859 35.7836 82.5395 35.7158 82.6943H35.9061L35.9048 82.2838C35.9048 82.2661 35.9048 82.2487 35.9048 82.2311Z" fill="#F88D2A"/>
<path d="M32.292 82.1101L32.2559 82.1236V81.9781C32.2559 81.9465 32.2559 81.9142 32.2559 81.8826C32.1526 82.1002 32.0441 82.3119 31.9383 82.5195L31.8494 82.6943H32.3483L32.3478 82.6902C32.3282 82.495 32.3085 82.3014 32.292 82.1101Z" fill="#F88D2A"/>
<path d="M32.9554 82.6943H33.3913C33.2472 82.1706 33.0841 81.6152 32.8906 80.9877C32.9343 81.5025 32.9549 82.0604 32.9554 82.6943Z" fill="#F88D2A"/>
<path d="M37.4297 80.038C37.7538 80.5024 37.8511 81.2333 37.926 81.7946C37.9494 81.9735 37.9708 82.136 37.9967 82.268C38.0186 82.3777 38.0358 82.4886 38.0525 82.5988L38.0674 82.6943H39.378C39.1657 82.0886 38.9157 81.5969 38.5976 81.1577C38.3828 80.8614 37.9108 80.32 37.4297 80.038Z" fill="#F88D2A"/>
<path d="M37.3555 81.607C37.2947 81.763 37.2338 81.919 37.1725 82.0744L37.1151 82.2205C37.0714 82.3326 37.0285 82.4446 36.986 82.5566L36.9336 82.6943H37.3156C37.3138 82.6909 37.3121 82.6886 37.3099 82.6856L37.2373 82.5766L37.2408 82.5436C37.2748 82.2153 37.3126 81.9037 37.3555 81.607Z" fill="#F88D2A"/>
<path d="M15.5304 80.606L15.5273 80.6216C15.532 80.6207 15.5409 80.6216 15.549 80.6192L15.5304 80.606Z" fill="#F88D2A"/>
<path d="M15.2266 81.6897C15.1862 81.8649 15.1546 82.004 15.13 82.0728C15.0725 82.2334 15.0172 82.4063 14.9568 82.6158L14.9343 82.6943H15.6652C15.6687 82.6281 15.6726 82.5578 15.6773 82.4838C15.7117 81.9195 15.7585 81.1623 15.5226 80.6944C15.42 80.8491 15.2866 81.4292 15.2266 81.6897Z" fill="#F88D2A"/>
<path d="M23.1348 80.8046C23.2428 81.3359 23.2814 81.9408 23.259 82.6943H23.8673L23.7591 82.353C23.588 81.8141 23.3752 81.2867 23.1348 80.8046Z" fill="#F88D2A"/>
<path d="M25.6239 82.3408L25.5122 82.2439C25.3476 82.0996 25.2008 81.9887 25.0627 81.9062L25.0099 81.8739L24.9994 81.7928C24.8411 80.5512 24.5757 79.4379 24.1919 78.4069C24.2629 79.2469 24.1656 80.1441 24.0712 81.0175C24.0354 81.3513 23.9997 81.6784 23.9756 81.9923L23.9248 82.6943H26.0722C26.1029 81.7156 26.143 80.8122 26.1942 79.9612C26.0486 80.6133 25.8915 81.2544 25.7372 81.8796L25.6239 82.3408Z" fill="#F88D2A"/>
<path d="M30.7402 82.6943H31.4985C31.4609 81.7048 31.442 80.5945 31.5928 79.5078C31.2433 80.5212 30.963 81.5701 30.7402 82.6943Z" fill="#F88D2A"/>
<path d="M18.7703 80.8076C18.6123 81.1588 18.4482 81.5213 18.3526 81.8915C18.3001 82.0954 18.2548 82.3014 18.211 82.5074L18.1707 82.6943H19.0825C19.0834 81.8228 19.0812 80.9517 19.076 80.0838C18.9864 80.3306 18.8776 80.5718 18.7703 80.8076Z" fill="#F88D2A"/>
<path d="M17.1404 81.9976L17.0486 82.5871L16.9316 82.0017C16.7193 80.9396 16.4016 79.9124 16.0604 78.8367C16.1801 80.1993 16.1293 81.533 16.0557 82.6943H18.004L18.001 82.4891C17.979 80.9971 17.9833 79.4127 18.1391 77.8303C17.643 79.4602 17.3386 80.737 17.1404 81.9976Z" fill="#F88D2A"/>
<path d="M42.5631 81.1306L42.6231 81.417L42.3697 81.1769C42.3077 81.1183 42.2542 81.0674 42.1947 81.0181C41.8771 80.7494 41.1773 80.3448 40.5055 80.1241L40.4831 80.1147C40.1914 79.947 39.8563 79.8052 39.4847 79.692C40.03 80.2609 40.2686 80.841 40.4147 81.2903L40.559 81.7307L40.2178 81.3366C39.8155 80.8708 39.2878 80.5294 38.7686 80.3917C38.8372 80.4584 38.8965 80.5283 38.946 80.5993C39.0899 80.8145 39.2037 81.0374 39.2865 81.2621C39.4598 81.6762 39.5541 82.1025 39.6457 82.5149C39.6584 82.5747 39.6676 82.6327 39.6773 82.6914V82.6943H43.3694C43.0029 81.2656 42.5004 79.6984 41.5669 78.4573C42.0249 79.2368 42.3473 80.106 42.5631 81.1306Z" fill="#F88D2A"/>
<path d="M61.9163 81.1888L61.7049 81.1923C61.5483 79.956 61.2307 78.8615 60.7578 77.9324C60.8232 78.5717 60.7548 79.2533 60.6886 79.9159L60.6356 80.4825C60.6224 80.6438 60.6109 80.8035 60.6047 80.9588C60.5868 81.425 60.5556 81.8979 60.5258 82.3559L60.5039 82.6943H62.3703C62.2137 81.916 62.0671 81.1513 61.9778 80.3917C61.9583 80.6731 61.9364 80.9441 61.9163 81.1888Z" fill="#F88D2A"/>
<path d="M59.5652 81.2246L59.5099 81.0626C59.1946 80.1395 58.798 79.2849 58.3064 78.4731C58.7019 79.3969 58.9972 80.3945 59.2192 81.5465L59.2279 81.5905L59.1976 81.6251C59.076 81.7618 58.9586 81.9002 58.8468 82.0416L58.7732 82.1342L58.6857 82.0528C58.5274 81.9048 58.3485 81.7559 58.1678 81.6216L58.1264 81.5912L58.1287 81.5419C58.1593 80.9066 58.2001 80.3219 58.2519 79.7692C58.102 80.2004 57.9393 80.6234 57.7804 81.0362L57.6809 81.2949L57.5694 81.2317C57.4081 81.1419 57.2567 81.069 57.1203 81.0163L57.0673 80.9952L57.0571 80.9437C56.8983 80.1482 56.6329 79.4361 56.2496 78.777C56.3198 79.3147 56.2232 79.8891 56.1286 80.4479C56.093 80.6614 56.0574 80.8704 56.033 81.0708L55.967 81.6544L55.8162 81.1787C55.6447 80.638 55.4311 80.1095 55.1907 79.6281C55.3619 80.4726 55.339 81.373 55.2885 82.1653L55.2544 82.6943H59.9421C59.9254 82.6164 59.9099 82.5383 59.8938 82.4609C59.8477 82.2393 59.8007 82.0104 59.739 81.7946L59.7297 81.7623L59.7437 81.7318C59.9513 81.2814 60.1845 80.8426 60.4372 80.4275L60.475 80.3659C60.1788 80.6264 59.9209 80.8678 59.6894 81.0997L59.5652 81.2246Z" fill="#F88D2A"/>
<path d="M62.5879 82.6943H63.6025L63.5858 82.3113C63.5278 80.9945 63.4673 79.6391 63.6503 78.3348C63.1783 79.7001 62.8296 81.1329 62.5879 82.6943Z" fill="#F88D2A"/>
<path d="M52.75 81.2779L52.709 81.2912C52.71 81.2935 52.7109 81.2967 52.7117 81.2991L52.75 81.2779Z" fill="#F88D2A"/>
<path d="M54.0835 79.9835C53.8699 79.6895 53.3962 79.1458 52.9141 78.8638C53.1799 79.2402 53.2926 79.7905 53.3668 80.2996L53.3708 80.3283L53.3646 80.3407L53.4577 80.9501C53.4659 81.0005 53.4746 81.0491 53.4831 81.0931C53.5862 81.6134 53.6603 82.13 53.7134 82.5214L53.737 82.6943H55.2086L55.0784 82.1818C54.8604 81.3272 54.5353 80.608 54.0835 79.9835Z" fill="#F88D2A"/>
<path d="M47.5844 80.7359C47.5204 81.1565 47.4203 81.5712 47.323 81.9754C47.2655 82.2146 47.208 82.4533 47.1572 82.6943H47.8279L47.8226 82.6579C47.7283 82.0127 47.6397 81.3769 47.5844 80.7359Z" fill="#F88D2A"/>
<path d="M53.1792 82.0563L53.1603 82.0292L53.1782 81.7758C53.1971 81.5061 53.2168 81.2275 53.2477 80.9535L53.3042 80.4538C53.1506 80.743 53.0015 81.0291 52.8576 81.313L52.7735 81.4791L52.7643 81.4656L52.7718 81.4885L52.6717 81.689C52.6055 81.821 52.5393 81.9525 52.4778 82.0837L52.248 82.5747L52.2747 82.0409C52.3334 80.8497 52.3926 79.7759 52.5291 78.6954L52.5524 78.5059L52.5537 78.5066C52.5642 78.4314 52.5744 78.3581 52.5848 78.2866C52.5124 78.4713 52.4397 78.6555 52.3673 78.8397C52.0041 79.7605 51.629 80.7132 51.3479 81.6686L51.1386 82.3818L51.1396 81.6434C51.1408 80.7313 51.1386 79.8192 51.1329 78.9101C51.043 79.157 50.9342 79.3974 50.8277 79.6334C50.6689 79.9846 50.5048 80.3477 50.4092 80.7171C50.357 80.9212 50.3119 81.1272 50.2683 81.3336L50.0719 82.251L50.0582 81.3155C50.0364 79.8233 50.0403 78.2385 50.1964 76.6561C49.7003 78.2871 49.3959 79.5628 49.1978 80.8238L49.1056 81.4129L48.9889 80.8275C48.7766 79.7647 48.4587 78.7382 48.1174 77.6619C48.2678 79.3781 48.155 81.1242 48.0335 82.6522L48.03 82.6943H53.5788L53.5138 82.5789C53.4113 82.3958 53.2922 82.2205 53.1792 82.0563Z" fill="#F88D2A"/>
<path d="M69.2012 82.6943H70.1793C70.4986 81.8375 70.8726 81.0573 71.2945 80.3704C70.3558 81.1987 69.6963 81.9307 69.2012 82.6943Z" fill="#F88D2A"/>
<path d="M29.8586 82.363L29.6475 82.3672C29.4915 81.1295 29.1733 80.0346 28.7001 79.106C28.7658 79.7424 28.6979 80.4227 28.6316 81.085L28.5786 81.6569C28.565 81.8182 28.5532 81.9777 28.5475 82.1325C28.543 82.2492 28.5356 82.3665 28.5274 82.4833C28.5224 82.5537 28.5176 82.624 28.5137 82.6943H28.5147H30.0946C30.0326 82.3424 29.9696 81.9554 29.9213 81.5559C29.9011 81.8409 29.8793 82.1154 29.8586 82.363Z" fill="#F88D2A"/>
<path d="M27.5076 82.2315L27.4523 81.9788C27.1369 80.5365 26.7412 79.201 26.25 77.9324C26.6421 79.3658 26.9355 80.9125 27.1571 82.6943H27.7961C27.8538 82.5055 27.9073 82.3477 27.9626 82.1781C28.0042 82.0503 28.0477 81.9073 28.0883 81.7889C28.1866 81.5002 28.2832 81.2344 28.38 80.9863L28.4181 80.8885C28.1229 81.2949 27.8645 81.6727 27.632 82.0368L27.5076 82.2315Z" fill="#F88D2A"/>
<path d="M20.8574 80.0368C20.8704 80.0549 20.8788 80.0785 20.8913 80.0978C20.9154 80.1354 20.9355 80.1764 20.9572 80.2169C21.0008 80.299 21.0406 80.384 21.0747 80.4756C21.0921 80.5219 21.1091 80.567 21.1242 80.6151C21.1556 80.7143 21.1827 80.8151 21.2064 80.9182C21.2161 80.9606 21.2273 81.001 21.236 81.0438C21.2654 81.187 21.2906 81.3313 21.3115 81.4732L21.3154 81.5032L21.3079 81.5171L21.4018 82.1243C21.4098 82.1747 21.4184 82.2235 21.4269 82.2675C21.4483 82.3736 21.4638 82.4797 21.4799 82.5864C21.4852 82.6222 21.4904 82.6579 21.4961 82.6943H22.8209C22.6173 82.1167 22.3572 81.6129 22.0273 81.1577C21.8137 80.8637 21.3401 80.3196 20.8574 80.0368Z" fill="#F88D2A"/>
<path d="M20.5285 79.4597C20.459 79.6386 20.3886 79.8174 20.3184 79.9951C19.9719 80.8749 19.6147 81.7829 19.3379 82.6943H20.2477C20.2602 82.4526 20.2788 82.1852 20.2945 81.9273C20.3064 81.7318 20.3152 81.5501 20.3298 81.349C20.3657 80.861 20.411 80.3613 20.4727 79.8691L20.4964 79.6801L20.4981 79.6813C20.5078 79.6057 20.5182 79.5323 20.5285 79.4597Z" fill="#F88D2A"/>
<path d="M20.7179 82.6526L20.7074 82.6368L20.7069 82.6364L20.7144 82.6627L20.6995 82.6943H21.1438L21.1463 82.6604C21.1582 82.4826 21.1709 82.3048 21.1911 82.1277L21.2478 81.631L21.2481 81.6287C21.0937 81.9167 20.9447 82.204 20.8015 82.4879L20.7179 82.6526Z" fill="#F88D2A"/>
<path d="M69.2153 80.9384L69.1726 81.0463C68.9444 81.6239 68.7424 82.1646 68.5544 82.6943H69.193L69.1987 82.6041C69.2121 82.3747 69.2267 82.1454 69.2465 81.9172L69.3019 81.2686L69.307 81.289C69.3389 80.99 69.3746 80.7054 69.4141 80.4321C69.3484 80.6012 69.2815 80.77 69.2153 80.9384Z" fill="#F88D2A"/>
<path d="M45.7548 81.231L45.6632 81.6386L45.5452 81.234C45.3869 80.6914 45.2378 80.1576 45.1474 79.6281C45.128 79.8222 45.1061 80.0091 45.0859 80.1782L44.8749 80.1805C44.7183 79.3277 44.4005 78.5728 43.9275 77.9324C43.9932 78.3716 43.9245 78.842 43.8583 79.2989C43.8215 79.5511 43.7871 79.7887 43.7744 80.0185C43.7657 80.1729 43.7565 80.3636 43.7468 80.5734C43.7139 81.2456 43.6696 82.1555 43.6091 82.6943H46.8092L46.8114 82.5537C46.8269 82.0274 46.7913 81.4784 46.7567 80.9471C46.698 80.041 46.6382 79.1078 46.8199 78.2097C46.3457 79.1571 45.996 80.1493 45.7548 81.231Z" fill="#F88D2A"/>
<path d="M64.9944 82.6943H65.7527C65.5431 81.7284 65.2563 80.7877 64.9473 79.808C65.0231 80.6685 65.0384 81.604 64.9944 82.6943Z" fill="#F88D2A"/>
<path d="M67.6591 81.7799C67.5246 82.0773 67.387 82.3834 67.2908 82.6943H67.9662V82.5342C67.9656 82.0409 67.965 81.5476 67.9631 81.0557C67.8732 81.302 67.7649 81.543 67.6591 81.7799Z" fill="#F88D2A"/>
<path d="M66.8826 82.6943C66.8756 81.5236 66.8909 80.1805 67.0266 78.7987C66.5748 80.2884 66.276 81.5167 66.0771 82.6943H66.8826Z" fill="#F88D2A"/>
<path d="M40.0445 38.6661C39.9892 39.2529 40.0878 39.8069 40.4739 40.1872C40.9854 40.6908 41.8937 40.5238 42.4157 40.1068C42.8658 39.7475 43.1164 39.2414 43.3315 38.7454C43.4599 39.4419 44.4367 40.8067 45.4645 40.4862C45.6922 40.4149 45.8279 40.2117 45.9208 40.0167C46.4796 38.8428 46.1028 37.6456 45.4426 36.5892C45.3057 36.3697 43.2493 33.9656 43.4114 33.8692C42.3467 35.0095 42.742 34.8651 41.2283 36.3109C40.7445 36.7732 40.1232 37.8335 40.0445 38.6661Z" fill="#F88D2A"/>
<path d="M17.369 41.441C17.8805 41.7989 18.444 42.0196 19.0014 41.9231C19.7397 41.7955 20.0717 40.9998 19.9667 40.3701C19.8764 39.8276 19.5438 39.3611 19.2015 38.9279C19.9124 39.2017 21.6937 39.174 21.9483 38.203C22.0049 37.9876 21.8898 37.7732 21.7597 37.5965C20.9763 36.5321 19.6707 36.1831 18.3432 36.1298C18.0674 36.1185 14.75 36.4278 14.7478 36.2502C15.2297 37.6895 15.3079 37.3049 15.8309 39.2574C15.9981 39.8815 16.6433 40.9333 17.369 41.441Z" fill="#F88D2A"/>
<path d="M8.80716 25.4114C9.34206 25.7349 9.91857 25.918 10.4654 25.7858C11.1898 25.6105 11.4614 24.7955 11.3108 24.1745C11.1809 23.6396 10.8159 23.1962 10.4435 22.7862C11.1707 23.0132 12.9392 22.87 13.1207 21.8847C13.161 21.6665 13.0311 21.4606 12.8887 21.2929C12.0311 20.2823 10.7077 20.0195 9.38412 20.0524C9.10934 20.0594 5.83428 20.5837 5.81909 20.4066C6.40406 21.8102 6.45359 21.4213 7.1172 23.334C7.32953 23.9457 8.0484 24.9525 8.80716 25.4114Z" fill="#F88D2A"/>
<path d="M18.8426 24.5162C19.1873 25.0123 19.6327 25.3963 20.1904 25.4808C20.9295 25.593 21.5386 24.9509 21.6765 24.3275C21.7953 23.7903 21.6586 23.2483 21.5005 22.7345C22.0636 23.2149 23.7421 23.7481 24.3442 22.9169C24.4779 22.7328 24.4508 22.4958 24.395 22.2894C24.0602 21.0447 22.9687 20.3075 21.7457 19.8406C21.4916 19.7438 18.2695 18.9919 18.334 18.8247C18.2457 20.3257 18.4629 19.9896 18.2207 21.9849C18.1433 22.6231 18.3534 23.812 18.8426 24.5162Z" fill="#F88D2A"/>
<path d="M30.7239 30.0324C30.8726 30.6052 31.1561 31.1026 31.6527 31.3512C32.3109 31.6804 33.1154 31.2581 33.4681 30.7108C33.7718 30.2393 33.836 29.6864 33.8701 29.153C34.2308 29.7769 35.6255 30.7882 36.491 30.1854C36.6826 30.0519 36.7416 29.8196 36.7631 29.6076C36.8908 28.3312 36.1228 27.3048 35.1343 26.4939C34.929 26.3253 32.154 24.6414 32.2745 24.5027C31.6555 25.8939 31.9808 25.6421 31.0398 27.4537C30.7392 28.0329 30.5131 29.2195 30.7239 30.0324Z" fill="#F88D2A"/>
<path d="M40.0904 14.8092C40.0351 15.3957 40.1337 15.95 40.5197 16.33C41.0313 16.8339 41.9396 16.6667 42.4618 16.2497C42.9116 15.8907 43.1623 15.3846 43.3774 14.8884C43.5058 15.5852 44.4826 16.95 45.5104 16.6292C45.7381 16.5582 45.8738 16.3547 45.9667 16.16C46.5254 14.9857 46.1486 13.7886 45.4887 12.7323C45.3515 12.5129 43.2955 10.1087 43.4573 10.0125C42.3929 11.1527 42.7879 11.0085 41.2742 12.4543C40.7903 12.9164 40.169 13.9769 40.0904 14.8092Z" fill="#F88D2A"/>
<path d="M27.0629 7.86113C27.2115 8.43358 27.495 8.93096 27.9916 9.17965C28.6497 9.50869 29.4542 9.08639 29.8067 8.53915C30.1106 8.06817 30.1749 7.51507 30.209 6.98191C30.5696 7.60539 31.9644 8.61658 32.8299 8.01421C33.0215 7.88048 33.0805 7.64822 33.1019 7.43589C33.2296 6.1596 32.4617 5.13317 31.4732 4.32258C31.2679 4.15366 28.4926 2.46973 28.6134 2.33131C27.9943 3.72256 28.3196 3.47035 27.3787 5.28215C27.078 5.86164 26.852 7.04819 27.0629 7.86113Z" fill="#F88D2A"/>
<path d="M96.8694 29.9209C96.9605 29.3378 97.1931 28.8188 97.6627 28.5293C98.2853 28.1455 99.1284 28.4981 99.5343 29.0132C99.8841 29.4569 100.003 30.0022 100.091 30.5301C100.387 29.8787 101.675 28.7536 102.597 29.2805C102.801 29.3973 102.883 29.6237 102.926 29.8329C103.181 31.0933 102.518 32.1802 101.615 33.0712C101.427 33.2563 98.8321 35.1683 98.9659 35.2959C98.2101 33.9629 98.5593 34.1861 97.4416 32.462C97.0848 31.9107 96.7407 30.748 96.8694 29.9209Z" fill="#F88D2A"/>
<path d="M141.528 20.6341C141.936 20.1801 142.429 19.8493 142.995 19.8282C143.743 19.8001 144.262 20.5062 144.316 21.1403C144.362 21.6869 144.154 22.2095 143.929 22.7016C144.552 22.2887 146.289 21.9485 146.776 22.8406C146.884 23.0389 146.825 23.2712 146.743 23.47C146.245 24.6669 145.063 25.2757 143.787 25.6015C143.522 25.6691 140.225 26.0519 140.266 26.2251C140.378 24.7253 140.55 25.0835 140.574 23.0758C140.583 22.4342 140.949 21.2775 141.528 20.6341Z" fill="#F88D2A"/>
<path d="M55.9856 30.0324C55.837 30.6052 55.5535 31.1026 55.0566 31.3512C54.3987 31.6804 53.5942 31.2581 53.2415 30.7108C52.9378 30.2393 52.8733 29.6864 52.8395 29.153C52.4788 29.7769 51.0841 30.7882 50.2186 30.1854C50.0267 30.0519 49.9677 29.8196 49.9465 29.6076C49.8188 28.3312 50.5868 27.3048 51.5749 26.4939C51.7803 26.3253 54.5555 24.6414 54.435 24.5027C55.0541 25.8939 54.7288 25.6421 55.6697 27.4537C55.9704 28.0329 56.1964 29.2195 55.9856 30.0324Z" fill="#F88D2A"/>
<path d="M69.3405 41.441C68.8288 41.7989 68.2649 42.0196 67.7079 41.9231C66.9693 41.7955 66.6374 40.9998 66.7425 40.3701C66.833 39.8276 67.1656 39.3611 67.5078 38.9279C66.7967 39.2017 65.0156 39.174 64.7607 38.203C64.7046 37.9876 64.8193 37.7732 64.9493 37.5965C65.7331 36.5321 67.0388 36.1831 68.3662 36.1298C68.6421 36.1185 71.9596 36.4278 71.9615 36.2502C71.4797 37.6895 71.4013 37.3049 70.8782 39.2574C70.7112 39.8815 70.0657 40.9333 69.3405 41.441Z" fill="#F88D2A"/>
<path d="M81.9677 12.6778C82.3634 12.215 82.8471 11.8725 83.4111 11.8385C84.1586 11.7927 84.697 12.4866 84.7684 13.1189C84.8302 13.6644 84.6371 14.1916 84.4256 14.689C85.0367 14.2614 86.7629 13.8802 87.2746 14.7612C87.3881 14.9565 87.3365 15.1899 87.2594 15.3905C86.7948 16.5994 85.6306 17.2352 84.3637 17.5912C84.1006 17.6645 80.8143 18.1249 80.8608 18.2974C80.9316 16.7953 81.1125 17.1495 81.082 15.1418C81.0724 14.4996 81.407 13.3347 81.9677 12.6778Z" fill="#F88D2A"/>
<path d="M67.8667 24.5162C67.5219 25.0123 67.0771 25.3963 66.5189 25.4808C65.7797 25.593 65.1705 24.9509 65.0329 24.3275C64.9144 23.7903 65.0507 23.2483 65.2088 22.7345C64.6461 23.2149 62.9674 23.7481 62.3653 22.9169C62.2316 22.7328 62.2587 22.4958 62.3145 22.2894C62.6493 21.0447 63.7408 20.3075 64.9634 19.8406C65.2177 19.7438 68.4402 18.9919 68.3752 18.8247C68.4638 20.3257 68.2465 19.9896 68.4886 21.9849C68.5657 22.6231 68.3561 23.812 67.8667 24.5162Z" fill="#F88D2A"/>
<path d="M59.6467 7.86113C59.4981 8.43358 59.2146 8.93096 58.718 9.17965C58.0599 9.50869 57.2553 9.08639 56.9026 8.53915C56.5989 8.06817 56.5344 7.51507 56.5003 6.98191C56.1399 7.60539 54.7452 8.61658 53.8797 8.01421C53.6878 7.88048 53.6288 7.64822 53.6077 7.43589C53.48 6.1596 54.2478 5.13317 55.2361 4.32258C55.4417 4.15366 58.2167 2.46973 58.0962 2.33131C58.7153 3.72256 58.3899 3.47035 59.3306 5.28215C59.6315 5.86164 59.8576 7.04819 59.6467 7.86113Z" fill="#F88D2A"/>
<path d="M60.9495 82.6943H60.9443L60.9258 82.6737C60.932 82.6622 60.9384 82.6507 60.9447 82.6398C60.9462 82.6581 60.9479 82.676 60.9495 82.6943Z" fill="#F88D2A"/>
<path d="M60.7601 81.2381C60.8339 81.5976 60.8821 81.963 60.9189 82.3074C60.8799 82.3108 60.8453 82.3232 60.8256 82.3424C60.793 82.3747 60.7584 82.4059 60.7225 82.4375C60.5931 82.2938 60.4585 82.1495 60.3203 82.004C60.3905 81.7396 60.504 81.431 60.7601 81.2381Z" fill="#F88D2A"/>
<path d="M53.1137 82.6943C53.1097 82.6522 53.1044 82.6105 53.0992 82.5683C53.0918 82.5033 53.0838 82.4386 53.0791 82.3736C53.0791 82.3676 53.0786 82.3612 53.0781 82.3548C53.1752 82.4556 53.278 82.5729 53.3826 82.6943H53.1137Z" fill="#F88D2A"/>
<path d="M46.5847 82.6943C46.5698 82.1142 46.5247 81.6152 46.4453 81.1584C46.7528 81.7284 46.9865 82.2251 47.169 82.6943H46.5847Z" fill="#F88D2A"/>
<path d="M45.511 82.4327C45.5679 82.5202 45.6322 82.607 45.6997 82.6943H45.5098L45.511 82.4627C45.511 82.4526 45.511 82.4428 45.511 82.4327Z" fill="#F88D2A"/>
<path d="M49.1226 82.3646L49.1588 82.3724V82.2902C49.1588 82.2728 49.1588 82.2544 49.1588 82.2363C49.2621 82.3589 49.3706 82.4785 49.4762 82.5958L49.5654 82.6943H49.0664L49.0669 82.692C49.0866 82.5818 49.1059 82.4728 49.1226 82.3646Z" fill="#F88D2A"/>
<path d="M48.4603 82.6943H48.0244C48.1687 82.3988 48.3316 82.0856 48.5254 81.7314C48.4816 82.0221 48.461 82.3367 48.4603 82.6943Z" fill="#F88D2A"/>
<path d="M43.9862 81.1957C43.6623 81.458 43.565 81.8702 43.4901 82.1871C43.4665 82.2874 43.4453 82.3793 43.4194 82.454C43.3975 82.5154 43.3803 82.5782 43.3636 82.6405L43.3487 82.6943H42.0381C42.2505 82.3525 42.5001 82.0755 42.8185 81.8276C43.0331 81.6603 43.505 81.3547 43.9862 81.1957Z" fill="#F88D2A"/>
<path d="M44.0596 82.0808C44.1204 82.1687 44.1815 82.2567 44.2429 82.3447L44.3002 82.427C44.344 82.4902 44.3869 82.553 44.4294 82.6164L44.4818 82.6943H44.0998C44.1015 82.6927 44.1033 82.6909 44.1055 82.6898L44.1778 82.6281L44.1746 82.6093C44.1405 82.424 44.1028 82.2487 44.0596 82.0808Z" fill="#F88D2A"/>
<path d="M65.8798 81.5161L65.8832 81.5249C65.8788 81.5244 65.8693 81.5249 65.8613 81.5238L65.8798 81.5161Z" fill="#F88D2A"/>
<path d="M66.1888 82.1277C66.229 82.2269 66.2608 82.3048 66.2857 82.3436C66.343 82.4345 66.3985 82.5319 66.459 82.6499L66.4813 82.6943H65.7504C65.7466 82.6568 65.7427 82.6169 65.7383 82.5759C65.7039 82.2574 65.6574 81.8303 65.8931 81.566C65.9957 81.6532 66.1289 81.9806 66.1888 82.1277Z" fill="#F88D2A"/>
<path d="M58.2814 81.6287C58.1731 81.9284 58.1348 82.2691 58.1572 82.6943H57.5488L57.6572 82.5019C57.8279 82.1976 58.041 81.9002 58.2814 81.6287Z" fill="#F88D2A"/>
<path d="M55.7922 82.5665L55.9037 82.5319C56.0685 82.4797 56.2151 82.4398 56.3533 82.41L56.4063 82.3981L56.4167 82.3688C56.5748 81.9209 56.8401 81.519 57.2243 81.1471C57.1533 81.4498 57.2506 81.7742 57.3449 82.089C57.3806 82.21 57.4164 82.3278 57.4405 82.4409L57.4911 82.6943H55.3439C55.3133 82.3413 55.273 82.0152 55.2219 81.7078C55.3675 81.9435 55.5246 82.1747 55.679 82.4006L55.7922 82.5665Z" fill="#F88D2A"/>
<path d="M50.6755 82.6943H49.9176C49.9552 82.136 49.9741 81.5096 49.8232 80.8967C50.1728 81.4686 50.453 82.0604 50.6755 82.6943Z" fill="#F88D2A"/>
<path d="M62.6452 81.6299C62.8036 81.8281 62.9676 82.0329 63.0632 82.2416C63.1154 82.3566 63.161 82.4728 63.2048 82.5887L63.2448 82.6943H62.3333C62.3321 82.2029 62.3345 81.7114 62.3395 81.2216C62.4294 81.3611 62.5382 81.4968 62.6452 81.6299Z" fill="#F88D2A"/>
<path d="M64.2748 82.3014L64.3672 82.6334L64.4838 82.3037C64.696 81.7043 65.014 81.1254 65.3549 80.5184C65.2351 81.2867 65.2861 82.0393 65.36 82.6943H63.4115L63.4145 82.5789C63.4362 81.7371 63.4322 80.8433 63.2764 79.9507C63.7725 80.8704 64.0769 81.59 64.2748 82.3014Z" fill="#F88D2A"/>
<path d="M38.8531 81.4152L38.7934 81.6491L39.0465 81.4532C39.1088 81.4051 39.1623 81.3636 39.2215 81.3224C39.5394 81.1031 40.2391 80.7723 40.9107 80.5918L40.9334 80.584C41.2251 80.4467 41.5599 80.3306 41.9318 80.238C41.3861 80.7031 41.1479 81.1783 41.0018 81.546L40.8572 81.9055L41.1985 81.5836C41.6009 81.2024 42.1286 80.9231 42.6477 80.8103C42.5792 80.8651 42.52 80.9224 42.4705 80.9806C42.3266 81.1565 42.2126 81.3389 42.1299 81.5224C41.9564 81.8615 41.8621 82.2105 41.7707 82.5477C41.758 82.5965 41.7488 82.6439 41.7388 82.692V82.6943H38.0469C38.4135 81.5254 38.9161 80.2433 39.8496 79.2281C39.3913 79.8655 39.0692 80.5764 38.8531 81.4152Z" fill="#F88D2A"/>
<path d="M19.5002 81.845L19.7112 81.8475C19.8678 81.1494 20.1855 80.5317 20.6586 80.008C20.5932 80.3688 20.6616 80.7531 20.7276 81.1272L20.7806 81.4468C20.7938 81.5378 20.8055 81.628 20.8117 81.7156C20.8296 81.9781 20.8607 82.245 20.8906 82.5033L20.9126 82.6943H19.0461C19.2025 82.2551 19.3493 81.8239 19.4384 81.3953C19.4581 81.5543 19.48 81.7073 19.5002 81.845Z" fill="#F88D2A"/>
<path d="M21.8517 81.8649L21.9069 81.7742C22.2224 81.2532 22.6189 80.7712 23.1102 80.3132C22.715 80.8339 22.4197 81.3969 22.1975 82.0469L22.189 82.0714L22.2194 82.0913C22.3408 82.1683 22.4583 82.2462 22.5699 82.3261L22.6435 82.3782L22.7311 82.3326C22.8892 82.2492 23.0684 82.1653 23.2492 82.089L23.2904 82.0721L23.2882 82.0439C23.2576 81.6855 23.2168 81.3559 23.165 81.0445C23.3146 81.2873 23.4777 81.5261 23.6365 81.7589L23.736 81.9048L23.8475 81.8691C24.0089 81.8187 24.1602 81.7777 24.2966 81.7476L24.3493 81.736L24.3599 81.7066C24.5187 81.258 24.784 80.8562 25.1673 80.4843C25.0971 80.7876 25.1937 81.1118 25.2881 81.4276C25.3239 81.5476 25.3595 81.6656 25.3836 81.7781L25.4499 82.1078L25.6007 81.8393C25.7722 81.5343 25.9858 81.2363 26.2263 80.9648C26.0547 81.4409 26.0779 81.9488 26.1284 82.3958L26.1625 82.6943H21.4746C21.4913 82.6503 21.5069 82.6064 21.5231 82.5624C21.5692 82.4375 21.6162 82.3085 21.678 82.1871L21.6869 82.1687L21.6732 82.1513C21.4654 81.8972 21.2324 81.6498 20.9798 81.4157L20.9417 81.3806C21.2381 81.5277 21.496 81.6638 21.7272 81.7946L21.8517 81.8649Z" fill="#F88D2A"/>
<path d="M18.828 82.6943H17.8132L17.8298 82.4785C17.8881 81.7355 17.9486 80.9712 17.7654 80.235C18.2373 81.0051 18.5861 81.8134 18.828 82.6943Z" fill="#F88D2A"/>
<path d="M28.6545 81.8955L28.6954 81.9028C28.6946 81.9042 28.6936 81.906 28.6927 81.9075L28.6545 81.8955Z" fill="#F88D2A"/>
<path d="M27.3319 81.1652C27.5455 80.9994 28.0192 80.6926 28.5014 80.5336C28.2355 80.746 28.1227 81.0562 28.0483 81.3437L28.0443 81.36L28.0508 81.3664L27.9574 81.7103C27.9494 81.7389 27.9408 81.766 27.9323 81.7912C27.8293 82.0849 27.7548 82.3759 27.7021 82.597L27.6784 82.6943H26.2068L26.3367 82.4052C26.555 81.9231 26.8801 81.5178 27.3319 81.1652Z" fill="#F88D2A"/>
<path d="M33.8323 81.5893C33.896 81.8269 33.9963 82.0608 34.0934 82.289C34.1512 82.4233 34.2086 82.5582 34.2592 82.6943H33.5889L33.5941 82.6739C33.6884 82.3097 33.777 81.9513 33.8323 81.5893Z" fill="#F88D2A"/>
<path d="M28.2359 82.3342L28.2551 82.3195L28.2372 82.1759C28.2182 82.024 28.1986 81.8668 28.1675 81.7126L28.1112 81.4303C28.2648 81.5934 28.4139 81.7554 28.5578 81.9153L28.6417 82.0088L28.6509 82.001L28.6434 82.0141L28.7437 82.1273C28.8097 82.2017 28.8759 82.2762 28.9376 82.35L29.1672 82.627L29.1408 82.3261C29.082 81.6539 29.0228 81.0479 28.8863 80.4385L28.8627 80.3317L28.8617 80.3324C28.8513 80.2896 28.8408 80.2485 28.8306 80.208C28.903 80.3118 28.9755 80.4163 29.0482 80.52C29.4113 81.0392 29.7864 81.5765 30.0675 82.1161L30.2768 82.5179L30.2756 82.1014C30.2746 81.587 30.2768 81.0727 30.2826 80.5595C30.3724 80.699 30.4812 80.8344 30.5878 80.9677C30.7466 81.1659 30.9106 81.3705 31.0059 81.5795C31.0584 81.6943 31.1033 81.8104 31.1471 81.9266L31.3432 82.4439L31.3572 81.9167C31.3791 81.075 31.3751 80.1812 31.219 79.2879C31.7151 80.208 32.0195 80.9276 32.2177 81.6393L32.3095 81.9713L32.4265 81.6416C32.6388 81.0422 32.9565 80.4625 33.2977 79.8556C33.1477 80.8238 33.2604 81.8088 33.3819 82.6703L33.3854 82.6943H27.8367L27.9016 82.6293C28.0042 82.5259 28.1232 82.427 28.2359 82.3342Z" fill="#F88D2A"/>
<path d="M51.5577 82.5074L51.7691 82.5097C51.9252 81.8116 52.2433 81.1941 52.7165 80.6703C52.6507 81.0291 52.7187 81.4129 52.7849 81.7864L52.8379 82.109C52.8516 82.1999 52.8631 82.2902 52.8688 82.377C52.8736 82.4435 52.881 82.5097 52.889 82.5752C52.8942 82.6146 52.8989 82.6545 52.9029 82.6943H52.9019H51.322C51.384 82.4962 51.4467 82.2773 51.495 82.0521C51.5152 82.2127 51.5371 82.3676 51.5577 82.5074Z" fill="#F88D2A"/>
<path d="M53.9084 82.5273L53.9637 82.4364C54.2793 81.9153 54.6751 81.4333 55.1659 80.9758C54.7742 81.4931 54.4806 82.0514 54.2589 82.6943H53.6201C53.5621 82.6263 53.5086 82.5695 53.4536 82.5078C53.4121 82.462 53.3682 82.4105 53.3279 82.3676C53.2293 82.2634 53.133 82.1676 53.0359 82.078L52.998 82.0427C53.2933 82.1894 53.5517 82.3255 53.7841 82.4567L53.9084 82.5273Z" fill="#F88D2A"/>
<path d="M60.5587 81.1952C60.5458 81.2058 60.5373 81.2186 60.5248 81.2298C60.5008 81.2509 60.4803 81.2738 60.4589 81.2967C60.4154 81.343 60.3755 81.3911 60.3414 81.4427C60.324 81.4686 60.3071 81.4942 60.2919 81.5213C60.2605 81.5776 60.2334 81.634 60.2095 81.6926C60.1998 81.7167 60.1886 81.7389 60.1798 81.763C60.1507 81.8439 60.1256 81.9254 60.1047 82.0059L60.1007 82.0221L60.1082 82.0304L60.0144 82.3729C60.0064 82.4011 59.9977 82.4286 59.9889 82.4533C59.9678 82.5131 59.9521 82.5736 59.9359 82.6334C59.9309 82.654 59.9257 82.6739 59.92 82.6943H58.595C58.7989 82.3683 59.059 82.0844 59.3888 81.8276C59.6024 81.6615 60.0759 81.3547 60.5587 81.1952Z" fill="#F88D2A"/>
<path d="M60.8877 80.8697C60.9572 80.9705 61.0273 81.0715 61.0975 81.1716C61.444 81.6679 61.8015 82.18 62.0782 82.6943H61.1685C61.1558 82.5578 61.1374 82.407 61.1217 82.2615C61.1097 82.1513 61.101 82.0487 61.0863 81.9355C61.0505 81.6597 61.0052 81.3783 60.9435 81.1009L60.9198 80.9941L60.918 80.9945C60.9083 80.9524 60.8979 80.9107 60.8877 80.8697Z" fill="#F88D2A"/>
<path d="M60.697 82.671L60.7076 82.662L60.7079 82.6616L60.7004 82.6762L60.7154 82.6943H60.2713L60.2688 82.6751C60.2568 82.5747 60.2442 82.4744 60.224 82.3747L60.1672 82.0943L60.167 82.0931C60.3213 82.2556 60.4704 82.4176 60.6136 82.5777L60.697 82.671Z" fill="#F88D2A"/>
<path d="M12.6303 81.7036L12.6728 81.7648C12.9008 82.0902 13.1035 82.3953 13.2909 82.6943H12.6527L12.647 82.6432C12.6333 82.5143 12.6188 82.3846 12.5992 82.2556L12.5434 81.8897L12.5389 81.9014C12.5066 81.7325 12.4709 81.5724 12.4319 81.4182C12.4973 81.5137 12.564 81.6088 12.6303 81.7036Z" fill="#F88D2A"/>
<path d="M35.6611 81.4968L35.7527 81.831L35.8704 81.4995C36.0288 81.0557 36.1778 80.6193 36.2682 80.1858C36.2879 80.3448 36.3098 80.4971 36.3297 80.6358L36.5411 80.638C36.6976 79.9399 37.0152 79.3225 37.4884 78.7987C37.4227 79.1582 37.4912 79.5429 37.5574 79.9166C37.5942 80.1225 37.6288 80.3173 37.6415 80.5054C37.6502 80.6316 37.6594 80.787 37.6692 80.9595C37.702 81.5089 37.7463 82.2533 37.8068 82.6943H34.6067L34.6044 82.5789C34.5888 82.1488 34.6246 81.6995 34.6589 81.2649C34.7177 80.5237 34.7777 79.7601 34.5957 79.0255C35.0699 79.8004 35.4199 80.6122 35.6611 81.4968Z" fill="#F88D2A"/>
<path d="M16.4206 82.6943H15.6621C15.8722 82.1495 16.1587 81.6186 16.4678 81.0663C16.3917 81.5517 16.3768 82.0792 16.4206 82.6943Z" fill="#F88D2A"/>
<path d="M13.7564 82.1788C13.8906 82.3461 14.028 82.5191 14.1248 82.6943H13.4492V82.6041C13.4497 82.3261 13.4502 82.0475 13.4525 81.7701C13.5423 81.9089 13.6506 82.045 13.7564 82.1788Z" fill="#F88D2A"/>
<path d="M14.5328 82.6943C14.5403 82.034 14.5248 81.2761 14.3889 80.4967C14.8407 81.3371 15.1402 82.0299 15.3386 82.6943H14.5328Z" fill="#F88D2A"/>
</g>
<defs>
<clipPath id="clip0_939_7118">
<rect width="234.771" height="83" fill="white" transform="translate(0.514648)"/>
</clipPath>
</defs>
</svg>
