<svg width="630" height="636" viewBox="0 0 630 636" fill="none" xmlns="http://www.w3.org/2000/svg">
<g clip-path="url(#clip0_939_10188)">
<path d="M434.046 166.579C419.271 145.942 400.701 131.688 377.173 124.381C321.786 107.177 263.046 138.514 244.516 195.126C233.836 227.748 238.012 259.246 252.546 289.7C256.481 297.951 261.38 305.78 266.137 313.63C269.369 318.95 273.906 320.214 278.062 317.544C282.218 314.874 282.78 310.217 279.367 305.058C267.522 287.07 258.75 267.858 255.397 246.358C247.628 196.692 279.688 148.271 327.668 137.49C364.887 129.119 403.933 146.624 424.269 180.812C425.113 182.218 425.855 183.683 426.678 185.088C430.754 191.954 437.76 191.954 441.635 184.888C449.865 169.912 460.927 157.626 475.541 148.692C524.184 118.961 586.537 141.425 607.295 196.27C618.055 224.717 615.064 252.641 602.999 279.964C591.616 305.72 574.291 327.241 554.397 346.794C519.827 380.761 479.938 407.301 437.238 429.825C435.592 430.688 432.681 430.668 431.075 429.785C419.311 423.28 407.748 416.435 396.104 409.75C391.547 407.14 386.809 408.144 384.521 412.078C382.292 415.933 383.497 420.229 387.652 423.12C387.793 423.22 387.933 423.3 388.074 423.381C401.745 431.17 415.316 439.14 429.168 446.568C431.637 447.893 435.933 448.154 438.362 446.909C493.971 418.462 545.102 383.893 586.015 335.933C605.066 313.61 619.701 288.757 626.447 259.768C638.311 208.877 616.289 156.983 572.525 132.833C526.753 107.578 470.422 119.603 437.981 161.58C436.796 163.106 435.612 164.612 434.066 166.619L434.046 166.579Z" fill="url(#paint0_linear_939_10188)"/>
<path d="M409.515 306.221C409.515 290.462 399.718 276.771 384.843 271.812C369.826 266.813 353.826 271.812 344.19 284.921C322.349 314.652 300.667 344.504 278.926 374.316C268.206 389.011 257.466 403.726 246.745 418.441C245.882 419.625 244.959 420.79 244.176 422.055C241.526 426.27 242.249 430.827 245.902 433.357C249.456 435.806 253.852 435.164 256.843 431.49C259.413 428.298 261.722 424.905 264.151 421.593C294.685 379.736 325.259 337.899 355.714 295.982C360.612 289.237 366.755 285.122 375.247 285.925C390.604 287.37 398.654 304.294 390.183 317.222C387.131 321.879 383.678 326.276 380.406 330.793C339.493 387.003 298.58 443.234 257.686 499.444C257.205 500.107 256.703 500.749 256.241 501.432C252.768 506.39 253.049 511.208 256.984 514.019C261.019 516.89 265.476 515.745 269.129 510.727C313.636 449.618 358.123 388.509 402.589 327.38C407.166 321.097 409.455 314.03 409.535 306.241L409.515 306.221Z" fill="url(#paint1_linear_939_10188)"/>
<path d="M344.773 503.348C344.552 485.461 331.403 470.485 313.817 468.096C308.818 467.414 304.984 469.843 304.121 474.199C303.197 478.897 305.767 482.631 311.047 483.654C319.92 485.361 326.063 490.159 328.331 499.032C330.64 507.985 326.986 514.952 320.301 520.773C302.294 536.532 284.608 552.693 266.219 567.99C260.056 573.109 252.588 577.506 244.979 579.895C221.09 587.403 196.819 593.666 172.789 600.713C160.061 604.427 147.394 608.381 134.967 612.959C129.708 614.906 124.91 618.419 120.333 621.792C116.799 624.381 116.639 628.196 119.269 631.809C121.798 635.282 126.476 636.667 129.688 634.238C141.552 625.285 155.625 621.892 169.477 618.038C192.202 611.714 215.067 605.892 237.772 599.508C255.84 594.409 271.86 585.737 285.692 572.607C300.668 558.394 316.608 545.225 332.086 531.534C340.718 523.905 344.934 514.389 344.793 503.348H344.773Z" fill="url(#paint2_linear_939_10188)"/>
<path d="M134.486 321.327C124.067 321.668 115.053 325.542 108.749 334.195C77.7935 376.754 46.9581 419.414 16.2029 462.114C8.87545 472.292 7.02853 484.397 5.14147 496.422C3.67598 505.817 2.41124 515.253 0.403726 524.528C-0.620108 529.225 -2.8886 533.722 -4.95635 538.118C-6.78319 541.993 -6.22108 546.028 -2.86853 548.658C0.484026 551.308 5.12139 551.328 7.59064 547.574C10.6019 542.997 13.4727 537.918 14.6571 532.658C17.5278 519.89 19.5153 506.922 21.563 493.973C23.2091 483.594 26.6821 474.199 32.9857 465.587C62.1951 425.617 91.1234 385.427 120.232 345.357C127.68 335.098 138.581 334.476 147.394 343.57C151.068 347.364 155.766 347.886 159.138 344.875C162.511 341.863 162.631 336.985 159.238 332.99C152.835 325.422 144.543 321.708 134.486 321.307V321.327Z" fill="url(#paint3_linear_939_10188)"/>
<path d="M575.559 229.519C574.294 200.751 551.991 177.364 524.809 176.34C518.084 176.079 514.39 178.608 514.089 183.627C513.788 188.646 517.301 191.637 523.905 192.019C541.812 193.062 557.029 207.617 559.338 225.926C559.539 227.552 559.639 229.198 559.78 230.824C560.302 236.766 563.253 239.878 568.131 239.637C573.07 239.396 575.86 235.602 575.579 229.499L575.559 229.519Z" fill="url(#paint4_linear_939_10188)"/>
<path d="M237.794 116.735C240.324 114.747 243.475 113.503 244.178 111.415C245.041 108.885 244.479 105.392 243.395 102.803C242.451 100.554 239.942 98.9682 238.075 97.1212C224.544 83.5906 211.014 70.0398 197.463 56.5092C196.54 55.5857 195.656 54.602 194.652 53.7589C191.019 50.7677 186.582 50.868 183.571 53.9395C180.6 56.9709 180.459 61.5882 183.631 65.001C187.988 69.6584 192.605 74.0749 197.122 78.5919C208.223 89.6934 219.285 100.855 230.487 111.856C232.354 113.683 234.903 114.828 237.774 116.715L237.794 116.735Z" fill="url(#paint5_linear_939_10188)"/>
<path d="M335.92 42.1361C335.92 53.2577 335.799 64.3995 335.98 75.5211C336.1 82.3467 342.665 86.4621 347.744 82.7281C349.751 81.2626 351.478 77.9301 351.498 75.4207C351.779 53.1774 351.699 30.9141 351.638 8.6507C351.638 3.17017 348.527 -0.0418536 343.769 -0.0017032C339.051 0.0384471 335.98 3.29063 335.92 8.75107C335.819 19.8727 335.9 31.0144 335.9 42.1361H335.92Z" fill="url(#paint6_linear_939_10188)"/>
<path d="M160.102 215.824C170.902 215.824 181.703 215.864 192.503 215.824C198.727 215.804 202.119 212.873 202.019 207.814C201.919 202.976 198.546 200.125 192.644 200.105C170.882 200.065 149.121 200.065 127.339 200.105C121.477 200.105 118.125 203.036 118.085 207.915C118.044 212.813 121.337 215.784 127.199 215.804C138.16 215.864 149.121 215.804 160.102 215.824Z" fill="url(#paint7_linear_939_10188)"/>
<path d="M186.44 338.509C169.316 338.509 154.019 348.747 148.679 362.378C147.153 366.273 148.237 369.585 151.569 371.854C154.942 374.142 158.556 373.841 161.426 370.91C163.574 368.702 165.22 366.012 167.087 363.523C176.222 351.297 191.459 351.096 200.754 363.101C204.407 367.819 209.105 368.923 212.919 365.932C216.573 363.081 216.894 358.303 213.521 353.686C206.294 343.769 196.437 338.77 186.42 338.509H186.44Z" fill="url(#paint8_linear_939_10188)"/>
<path d="M234.319 364.358C223.539 364.719 214.224 368.875 207.097 377.406C204.066 381.04 201.336 384.955 198.666 388.889C195.875 393.025 196.558 397.662 200.091 400.252C203.624 402.842 208.342 402.099 211.373 398.265C213.602 395.454 215.589 392.423 217.737 389.532C226.109 378.29 238.716 376.965 249.195 386.34C252.206 389.03 255.358 390.074 259.052 388.388C263.991 386.159 264.954 379.856 260.919 375.6C253.792 368.072 244.899 364.498 234.279 364.338L234.319 364.358Z" fill="url(#paint9_linear_939_10188)"/>
</g>
<defs>
<linearGradient id="paint0_linear_939_10188" x1="27.845" y1="673.919" x2="482.889" y2="185.55" gradientUnits="userSpaceOnUse">
<stop offset="0.27" stop-color="white"/>
<stop offset="0.66" stop-color="#F88D2A"/>
<stop offset="0.99" stop-color="#F88D2A"/>
</linearGradient>
<linearGradient id="paint1_linear_939_10188" x1="39.3087" y1="684.598" x2="494.373" y2="196.249" gradientUnits="userSpaceOnUse">
<stop offset="0.27" stop-color="white"/>
<stop offset="0.66" stop-color="#F88D2A"/>
<stop offset="0.99" stop-color="#F88D2A"/>
</linearGradient>
<linearGradient id="paint2_linear_939_10188" x1="85.5222" y1="727.668" x2="540.566" y2="239.299" gradientUnits="userSpaceOnUse">
<stop offset="0.27" stop-color="white"/>
<stop offset="0.66" stop-color="#F88D2A"/>
<stop offset="0.99" stop-color="#F88D2A"/>
</linearGradient>
<linearGradient id="paint3_linear_939_10188" x1="-72.2082" y1="580.698" x2="382.856" y2="92.3491" gradientUnits="userSpaceOnUse">
<stop offset="0.27" stop-color="white"/>
<stop offset="0.66" stop-color="#F88D2A"/>
<stop offset="0.99" stop-color="#F88D2A"/>
</linearGradient>
<linearGradient id="paint4_linear_939_10188" x1="72.1537" y1="715.198" x2="527.198" y2="226.849" gradientUnits="userSpaceOnUse">
<stop offset="0.27" stop-color="white"/>
<stop offset="0.66" stop-color="#F88D2A"/>
<stop offset="0.99" stop-color="#F88D2A"/>
</linearGradient>
<linearGradient id="paint5_linear_939_10188" x1="-167.343" y1="492.04" x2="287.721" y2="3.67129" gradientUnits="userSpaceOnUse">
<stop offset="0.27" stop-color="white"/>
<stop offset="0.66" stop-color="#F88D2A"/>
<stop offset="0.99" stop-color="#F88D2A"/>
</linearGradient>
<linearGradient id="paint6_linear_939_10188" x1="-118.381" y1="537.672" x2="336.683" y2="49.3034" gradientUnits="userSpaceOnUse">
<stop offset="0.27" stop-color="white"/>
<stop offset="0.66" stop-color="#F88D2A"/>
<stop offset="0.99" stop-color="#F88D2A"/>
</linearGradient>
<linearGradient id="paint7_linear_939_10188" x1="-133.779" y1="523.316" x2="321.286" y2="34.9469" gradientUnits="userSpaceOnUse">
<stop offset="0.27" stop-color="white"/>
<stop offset="0.66" stop-color="#F88D2A"/>
<stop offset="0.99" stop-color="#F88D2A"/>
</linearGradient>
<linearGradient id="paint8_linear_939_10188" x1="-45.589" y1="605.489" x2="409.475" y2="117.14" gradientUnits="userSpaceOnUse">
<stop offset="0.27" stop-color="white"/>
<stop offset="0.66" stop-color="#F88D2A"/>
<stop offset="0.99" stop-color="#F88D2A"/>
</linearGradient>
<linearGradient id="paint9_linear_939_10188" x1="-7.24523" y1="641.214" x2="447.819" y2="152.865" gradientUnits="userSpaceOnUse">
<stop offset="0.27" stop-color="white"/>
<stop offset="0.66" stop-color="#F88D2A"/>
<stop offset="0.99" stop-color="#F88D2A"/>
</linearGradient>
<clipPath id="clip0_939_10188">
<rect width="635.62" height="635.44" fill="white" transform="translate(-6)"/>
</clipPath>
</defs>
</svg>
