<svg width="12" height="19" viewBox="0 0 12 19" fill="none" xmlns="http://www.w3.org/2000/svg">
<path d="M0.544742 0.886973L8.01648 0.630771L8.12268 15.4946C8.12558 15.9006 8.23474 16.1883 8.44963 16.3594C8.75888 16.6027 9.14677 16.7229 9.61385 16.7196L11.7382 16.7044L11.7481 18.0879L1.06902 18.1642L1.05913 16.7807L3.04247 16.7666C3.63042 16.7624 4.05945 16.6276 4.33166 16.3612C4.60386 16.0952 4.7379 15.7096 4.7343 15.2056L4.65655 4.32489C4.65163 3.63655 4.43426 3.11829 4.00497 2.77097C3.5741 2.42371 2.93877 2.25286 2.0974 2.25888L0.554623 2.2699L0.544742 0.886973Z" fill="#535050"/>
<path d="M0.544742 0.886973L8.01648 0.630771L8.12268 15.4946C8.12558 15.9006 8.23474 16.1883 8.44963 16.3594C8.75888 16.6027 9.14677 16.7229 9.61385 16.7196L11.7382 16.7044L11.7481 18.0879L1.06902 18.1642L1.05913 16.7807L3.04247 16.7666C3.63042 16.7624 4.05945 16.6276 4.33166 16.3612C4.60386 16.0952 4.7379 15.7096 4.7343 15.2056L4.65655 4.32489C4.65163 3.63655 4.43426 3.11829 4.00497 2.77097C3.5741 2.42371 2.93877 2.25286 2.0974 2.25888L0.554623 2.2699L0.544742 0.886973Z" fill="#535050"/>
</svg>
