<svg width="15" height="26" viewBox="0 0 15 26" fill="none" xmlns="http://www.w3.org/2000/svg">
<path d="M5.26507 0.729641L6.60692 0.720053L6.65725 7.76463L12.7287 7.72125L12.7408 9.41794L6.66938 9.46132L6.74857 20.5447C6.75543 21.5038 7.00773 22.2365 7.50549 22.7431C8.00324 23.2498 8.63331 23.5006 9.39463 23.4951C10.3023 23.4886 11.0751 23.0958 11.7106 22.3167C12.3465 21.5373 12.7112 20.256 12.8055 18.4727L14.1473 18.4631C14.0843 20.7629 13.5286 22.473 12.481 23.5932C11.4334 24.7133 10.068 25.2793 8.38578 25.2913C6.83612 25.3024 5.62084 24.9213 4.74102 24.1462C3.86014 23.3723 3.41491 22.3516 3.40586 21.0853L3.32298 9.48523L0.0577067 9.50856L0.0484833 8.21772C1.53498 7.97354 2.66385 7.39383 3.43457 6.47805C4.57793 5.10538 5.18774 3.18909 5.26507 0.729641Z" fill="#535050"/>
<path d="M5.26507 0.729641L6.60692 0.720053L6.65725 7.76463L12.7287 7.72125L12.7408 9.41794L6.66938 9.46132L6.74857 20.5447C6.75543 21.5038 7.00773 22.2365 7.50549 22.7431C8.00324 23.2498 8.63331 23.5006 9.39463 23.4951C10.3023 23.4886 11.0751 23.0958 11.7106 22.3167C12.3465 21.5373 12.7112 20.256 12.8055 18.4727L14.1473 18.4631C14.0843 20.7629 13.5286 22.473 12.481 23.5932C11.4334 24.7133 10.068 25.2793 8.38578 25.2913C6.83612 25.3024 5.62084 24.9213 4.74102 24.1462C3.86014 23.3723 3.41491 22.3516 3.40586 21.0853L3.32298 9.48523L0.0577067 9.50856L0.0484833 8.21772C1.53498 7.97354 2.66385 7.39383 3.43457 6.47805C4.57793 5.10538 5.18774 3.18909 5.26507 0.729641Z" fill="#535050"/>
</svg>
