<svg width="24" height="19" viewBox="0 0 24 19" fill="none" xmlns="http://www.w3.org/2000/svg">
<path d="M7.3059 0.353179L7.38773 11.8054C7.39774 13.207 7.78825 14.286 8.55978 15.0428C9.33184 15.7996 10.3244 16.1739 11.5379 16.1653C13.0298 16.1546 14.2956 15.5893 15.3347 14.4688C16.3722 13.3491 16.8861 11.9527 16.8741 10.2804L16.8279 3.80753C16.8237 3.21738 16.5898 2.76116 16.1267 2.43872C15.6637 2.11644 14.7776 1.94109 13.4683 1.91345L13.4591 0.622605L20.0484 0.26213L20.1497 14.4436C20.1544 15.0957 20.3583 15.5948 20.7617 15.9423C21.1644 16.2898 21.7271 16.461 22.4481 16.4558L23.6309 16.4474L23.6398 17.6829L17.3286 17.8574L16.9041 14.4668C15.7925 15.6925 14.6719 16.6164 13.5423 17.2389C12.4127 17.8617 11.2687 18.1773 10.1081 18.1856C8.41479 18.1977 6.99128 17.6852 5.83654 16.6482C4.6681 15.624 4.07611 13.8762 4.05846 11.4052L4.00482 3.89916C4.00008 3.23541 3.70966 2.73329 3.1325 2.39318C2.73047 2.15014 1.90775 2.02065 0.665402 2.00493L0.656179 0.714086L7.3059 0.353179Z" fill="#535050"/>
<path d="M7.3059 0.353179L7.38773 11.8054C7.39774 13.207 7.78825 14.286 8.55978 15.0428C9.33184 15.7996 10.3244 16.1739 11.5379 16.1653C13.0298 16.1546 14.2956 15.5893 15.3347 14.4688C16.3722 13.3491 16.8861 11.9527 16.8741 10.2804L16.8279 3.80753C16.8237 3.21738 16.5898 2.76116 16.1267 2.43872C15.6637 2.11644 14.7776 1.94109 13.4683 1.91345L13.4591 0.622605L20.0484 0.26213L20.1497 14.4436C20.1544 15.0957 20.3583 15.5948 20.7617 15.9423C21.1644 16.2898 21.7271 16.461 22.4481 16.4558L23.6309 16.4474L23.6398 17.6829L17.3286 17.8574L16.9041 14.4668C15.7925 15.6925 14.6719 16.6164 13.5423 17.2389C12.4127 17.8617 11.2687 18.1773 10.1081 18.1856C8.41479 18.1977 6.99128 17.6852 5.83654 16.6482C4.6681 15.624 4.07611 13.8762 4.05846 11.4052L4.00482 3.89916C4.00008 3.23541 3.70966 2.73329 3.1325 2.39318C2.73047 2.15014 1.90775 2.02065 0.665402 2.00493L0.656179 0.714086L7.3059 0.353179Z" fill="#535050"/>
</svg>
