<svg width="17" height="19" viewBox="0 0 17 19" fill="none" xmlns="http://www.w3.org/2000/svg">
<path d="M15.0779 13.1434L16.3825 13.4845C15.3659 17.021 13.0803 18.8013 9.52712 18.8267C6.92296 18.8453 4.78657 18.0672 3.11901 16.4935C1.45144 14.9191 0.607728 12.8169 0.588927 10.1857C0.567141 7.13658 1.45895 4.76648 3.2633 3.0753C5.06818 1.38392 7.19928 0.529965 9.65712 0.512403C11.5016 0.499224 13.0275 0.955534 14.235 1.88138C15.4446 2.80697 16.0533 3.84153 16.0614 4.98466C16.0664 5.67354 15.8462 6.24378 15.4014 6.69567C14.9582 7.14795 14.4275 7.37554 13.8146 7.37992C13.2134 7.38421 12.7042 7.19797 12.2879 6.82143C11.8696 6.4445 11.6595 5.98621 11.6557 5.44675C11.6518 4.90788 11.8761 4.39197 12.3264 3.89812C12.5374 3.66383 12.6431 3.4793 12.6422 3.34457C12.6396 2.98888 12.3769 2.64477 11.8533 2.3113C11.3303 1.97836 10.6213 1.81453 9.72691 1.82092C8.09666 1.83257 6.86528 2.38827 6.03172 3.48691C4.84063 5.07991 4.25487 7.17143 4.27338 9.76268C4.29102 12.2308 4.83825 14.0969 5.91614 15.3599C6.99403 16.6231 8.36057 17.249 10.0168 17.2372C12.3007 17.2209 13.9881 15.8567 15.0779 13.1434Z" fill="#535050"/>
<path d="M15.0779 13.1434L16.3825 13.4845C15.3659 17.021 13.0803 18.8013 9.52712 18.8267C6.92296 18.8453 4.78657 18.0672 3.11901 16.4935C1.45144 14.9191 0.607728 12.8169 0.588927 10.1857C0.567141 7.13658 1.45895 4.76648 3.2633 3.0753C5.06818 1.38392 7.19928 0.529965 9.65712 0.512403C11.5016 0.499224 13.0275 0.955534 14.235 1.88138C15.4446 2.80697 16.0533 3.84153 16.0614 4.98466C16.0664 5.67354 15.8462 6.24378 15.4014 6.69567C14.9582 7.14795 14.4275 7.37554 13.8146 7.37992C13.2134 7.38421 12.7042 7.19797 12.2879 6.82143C11.8696 6.4445 11.6595 5.98621 11.6557 5.44675C11.6518 4.90788 11.8761 4.39197 12.3264 3.89812C12.5374 3.66383 12.6431 3.4793 12.6422 3.34457C12.6396 2.98888 12.3769 2.64477 11.8533 2.3113C11.3303 1.97836 10.6213 1.81453 9.72691 1.82092C8.09666 1.83257 6.86528 2.38827 6.03172 3.48691C4.84063 5.07991 4.25487 7.17143 4.27338 9.76268C4.29102 12.2308 4.83825 14.0969 5.91614 15.3599C6.99403 16.6231 8.36057 17.249 10.0168 17.2372C12.3007 17.2209 13.9881 15.8567 15.0779 13.1434Z" fill="#535050"/>
</svg>
