<svg width="18" height="20" viewBox="0 0 18 20" fill="none" xmlns="http://www.w3.org/2000/svg">
<path d="M3.79742 8.82102L11.9317 8.7629C12.4126 8.75946 12.7847 8.60659 13.0508 8.30311C13.3148 8.00061 13.4453 7.48596 13.4401 6.76044C13.4305 5.4084 12.9642 4.26229 12.0429 3.32166C11.1205 2.38158 10.0393 1.9158 8.79715 1.92467C7.4076 1.9346 6.23259 2.51469 5.27268 3.66528C4.31277 4.81553 3.82032 6.53393 3.79742 8.82102ZM17.2501 10.0347L3.80678 10.1307C3.89132 12.761 4.439 14.6145 5.44873 15.6887C6.60629 16.8974 8.07336 17.496 9.84941 17.4833C12.4679 17.4646 14.5618 16.0782 16.1321 13.325L17.4385 13.8325C15.5124 17.3383 12.7065 19.1039 9.02029 19.1303C6.50838 19.1482 4.38918 18.3275 2.66109 16.6675C0.931945 15.0078 0.0588508 12.8747 0.0402254 10.268C0.0201972 7.46501 0.848565 5.19369 2.52639 3.45447C4.20315 1.71521 6.27733 0.836476 8.74896 0.818816C10.5653 0.805837 12.1382 1.22482 13.4671 2.07601C14.7955 2.92741 15.7984 4.15567 16.4784 5.76121C16.9536 6.8892 17.2113 8.31379 17.2501 10.0347Z" fill="#535050"/>
<path d="M3.79742 8.82102L11.9317 8.7629C12.4126 8.75946 12.7847 8.60659 13.0508 8.30311C13.3148 8.00061 13.4453 7.48596 13.4401 6.76044C13.4305 5.4084 12.9642 4.26229 12.0429 3.32166C11.1205 2.38158 10.0393 1.9158 8.79715 1.92467C7.4076 1.9346 6.23259 2.51469 5.27268 3.66528C4.31277 4.81553 3.82032 6.53393 3.79742 8.82102ZM17.2501 10.0347L3.80678 10.1307C3.89132 12.761 4.439 14.6145 5.44873 15.6887C6.60629 16.8974 8.07336 17.496 9.84941 17.4833C12.4679 17.4646 14.5618 16.0782 16.1321 13.325L17.4385 13.8325C15.5124 17.3383 12.7065 19.1039 9.02029 19.1303C6.50838 19.1482 4.38918 18.3275 2.66109 16.6675C0.931945 15.0078 0.0588508 12.8747 0.0402254 10.268C0.0201972 7.46501 0.848565 5.19369 2.52639 3.45447C4.20315 1.71521 6.27733 0.836476 8.74896 0.818816C10.5653 0.805837 12.1382 1.22482 13.4671 2.07601C14.7955 2.92741 15.7984 4.15567 16.4784 5.76121C16.9536 6.8892 17.2113 8.31379 17.2501 10.0347Z" fill="#535050"/>
</svg>
