<svg width="20" height="19" viewBox="0 0 20 19" fill="none" xmlns="http://www.w3.org/2000/svg">
<path d="M12.6071 9.23974C9.21713 9.69443 6.81784 10.4129 5.40924 11.394C4.35896 12.1388 3.83944 13.1879 3.84911 14.5401C3.85587 15.4874 4.1342 16.2256 4.68621 16.7565C5.23769 17.2874 5.95426 17.5496 6.83592 17.5433C8.41157 17.532 9.77387 16.9723 10.9212 15.8639C12.0686 14.7556 12.6366 13.371 12.6248 11.7109L12.6071 9.23974ZM19.2311 16.4774L19.96 17.5048C18.9911 18.4339 17.9123 18.9028 16.7237 18.9113C15.815 18.9178 15.0494 18.6954 14.4248 18.2451C13.8002 17.7953 13.25 16.9997 12.7748 15.8598C11.5143 17.0985 10.4053 17.9269 9.44595 18.3455C8.48771 18.7637 7.33342 18.9784 5.98416 18.988C4.06072 19.0017 2.59581 18.6312 1.58835 17.8757C0.580895 17.1212 0.072907 16.1472 0.064385 14.9546C0.0515619 13.1599 1.18659 11.6609 3.46895 10.4577C5.75078 9.25501 8.79464 8.44329 12.5984 8.02268L12.5797 5.40381C12.573 4.46957 12.1596 3.67343 11.3405 3.01516C10.5209 2.35728 9.48315 2.03281 8.22772 2.04178C7.0656 2.05008 6.06571 2.27834 5.22697 2.72695C4.62813 3.06312 4.32986 3.39143 4.33214 3.71091C4.33346 3.89502 4.49616 4.18305 4.81972 4.57436C5.21026 5.06338 5.40688 5.49834 5.40961 5.87955C5.41356 6.43272 5.22328 6.88587 4.83876 7.239C4.45318 7.5919 3.94708 7.7713 3.31989 7.77578C2.65136 7.78055 2.09266 7.57544 1.64221 7.16044C1.19177 6.74578 0.964211 6.21231 0.959554 5.56062C0.950859 4.34371 1.68726 3.2256 3.16929 2.20695C4.65185 1.18834 6.60137 0.670206 9.01945 0.652928C11.2498 0.636992 12.9564 1.06722 14.1381 1.94386C15.3194 2.8333 15.9151 3.91728 15.9242 5.19578L15.9917 14.6377C15.9977 15.4738 16.1495 16.0874 16.446 16.4788C16.7426 16.8825 17.1247 17.0824 17.5923 17.0791C18.1135 17.0753 18.6592 16.8747 19.2311 16.4774Z" fill="#535050"/>
<path d="M12.6071 9.23974C9.21713 9.69443 6.81784 10.4129 5.40924 11.394C4.35896 12.1388 3.83944 13.1879 3.84911 14.5401C3.85587 15.4874 4.1342 16.2256 4.68621 16.7565C5.23769 17.2874 5.95426 17.5496 6.83592 17.5433C8.41157 17.532 9.77387 16.9723 10.9212 15.8639C12.0686 14.7556 12.6366 13.371 12.6248 11.7109L12.6071 9.23974ZM19.2311 16.4774L19.96 17.5048C18.9911 18.4339 17.9123 18.9028 16.7237 18.9113C15.815 18.9178 15.0494 18.6954 14.4248 18.2451C13.8002 17.7953 13.25 16.9997 12.7748 15.8598C11.5143 17.0985 10.4053 17.9269 9.44595 18.3455C8.48771 18.7637 7.33342 18.9784 5.98416 18.988C4.06072 19.0017 2.59581 18.6312 1.58835 17.8757C0.580895 17.1212 0.072907 16.1472 0.064385 14.9546C0.0515619 13.1599 1.18659 11.6609 3.46895 10.4577C5.75078 9.25501 8.79464 8.44329 12.5984 8.02268L12.5797 5.40381C12.573 4.46957 12.1596 3.67343 11.3405 3.01516C10.5209 2.35728 9.48315 2.03281 8.22772 2.04178C7.0656 2.05008 6.06571 2.27834 5.22697 2.72695C4.62813 3.06312 4.32986 3.39143 4.33214 3.71091C4.33346 3.89502 4.49616 4.18305 4.81972 4.57436C5.21026 5.06338 5.40688 5.49834 5.40961 5.87955C5.41356 6.43272 5.22328 6.88587 4.83876 7.239C4.45318 7.5919 3.94708 7.7713 3.31989 7.77578C2.65136 7.78055 2.09266 7.57544 1.64221 7.16044C1.19177 6.74578 0.964211 6.21231 0.959554 5.56062C0.950859 4.34371 1.68726 3.2256 3.16929 2.20695C4.65185 1.18834 6.60137 0.670206 9.01945 0.652928C11.2498 0.636992 12.9564 1.06722 14.1381 1.94386C15.3194 2.8333 15.9151 3.91728 15.9242 5.19578L15.9917 14.6377C15.9977 15.4738 16.1495 16.0874 16.446 16.4788C16.7426 16.8825 17.1247 17.0824 17.5923 17.0791C18.1135 17.0753 18.6592 16.8747 19.2311 16.4774Z" fill="#535050"/>
</svg>
