<svg width="22" height="29" viewBox="0 0 22 29" fill="none" xmlns="http://www.w3.org/2000/svg">
<path d="M8.95904 11.4976C7.51694 11.5079 6.37406 12.063 5.53465 13.1634C4.69364 14.2638 4.28267 16.111 4.30121 18.7051C4.32133 21.5208 4.76972 23.5004 5.64637 24.6435C6.52303 25.7871 7.64212 26.3539 9.00469 26.3441C10.4606 26.3337 11.7019 25.6826 12.7282 24.3898C13.7539 23.098 14.2585 21.2161 14.2408 18.7449C14.2241 16.409 13.657 14.5746 12.5382 13.2426C11.5681 12.0691 10.3746 11.4875 8.95904 11.4976ZM10.042 0.479094L17.3738 0.11291L17.5427 23.7563C17.5493 24.6785 17.7444 25.335 18.1278 25.7255C18.5119 26.1166 19.0837 26.3087 19.8451 26.3033L21.1477 26.294L21.1576 27.6775L14.7456 27.7233L14.2401 24.2038C13.4877 25.4634 12.6027 26.4135 11.585 27.0543C10.5678 27.6946 9.42386 28.0194 8.15513 28.0285C6.01849 28.0438 4.19194 27.2331 2.67763 25.5963C1.16279 23.9597 0.395449 21.7885 0.376122 19.0836C0.355214 16.1575 1.30133 13.8148 3.21183 12.0549C4.71151 10.6794 6.44352 9.98478 8.40679 9.97075C9.60872 9.96217 10.6901 10.2309 11.649 10.7776C12.6078 11.324 13.4451 12.1541 14.1619 13.2676L14.0922 3.5117C14.0885 2.99515 13.8682 2.58816 13.4319 2.28993C12.995 1.99184 12.3168 1.84609 11.3948 1.85267L10.0519 1.86227L10.042 0.479094Z" fill="#535050"/>
<path d="M8.95904 11.4976C7.51694 11.5079 6.37406 12.063 5.53465 13.1634C4.69364 14.2638 4.28267 16.111 4.30121 18.7051C4.32133 21.5208 4.76972 23.5004 5.64637 24.6435C6.52303 25.7871 7.64212 26.3539 9.00469 26.3441C10.4606 26.3337 11.7019 25.6826 12.7282 24.3898C13.7539 23.098 14.2585 21.2161 14.2408 18.7449C14.2241 16.409 13.657 14.5746 12.5382 13.2426C11.5681 12.0691 10.3746 11.4875 8.95904 11.4976ZM10.042 0.479094L17.3738 0.11291L17.5427 23.7563C17.5493 24.6785 17.7444 25.335 18.1278 25.7255C18.5119 26.1166 19.0837 26.3087 19.8451 26.3033L21.1477 26.294L21.1576 27.6775L14.7456 27.7233L14.2401 24.2038C13.4877 25.4634 12.6027 26.4135 11.585 27.0543C10.5678 27.6946 9.42386 28.0194 8.15513 28.0285C6.01849 28.0438 4.19194 27.2331 2.67763 25.5963C1.16279 23.9597 0.395449 21.7885 0.376122 19.0836C0.355214 16.1575 1.30133 13.8148 3.21183 12.0549C4.71151 10.6794 6.44352 9.98478 8.40679 9.97075C9.60872 9.96217 10.6901 10.2309 11.649 10.7776C12.6078 11.324 13.4451 12.1541 14.1619 13.2676L14.0922 3.5117C14.0885 2.99515 13.8682 2.58816 13.4319 2.28993C12.995 1.99184 12.3168 1.84609 11.3948 1.85267L10.0519 1.86227L10.042 0.479094Z" fill="#535050"/>
</svg>
