<svg width="15" height="26" viewBox="0 0 15 26" fill="none" xmlns="http://www.w3.org/2000/svg">
<path d="M5.29682 0.901028L6.63866 0.89144L6.68899 7.93601L12.7604 7.89263L12.7726 9.58933L6.70112 9.63271L6.78031 20.7161C6.78716 21.6752 7.03947 22.4079 7.53722 22.9145C8.03498 23.4212 8.66505 23.6719 9.42637 23.6665C10.334 23.66 11.1069 23.2672 11.7423 22.4881C12.3783 21.7087 12.7429 20.4274 12.8373 18.6441L14.1791 18.6345C14.116 20.9343 13.5604 22.6444 12.5128 23.7645C11.4652 24.8847 10.0997 25.4507 8.41752 25.4627C6.86785 25.4738 5.65259 25.0927 4.77276 24.3176C3.89189 23.5436 3.44666 22.523 3.43761 21.2567L3.35472 9.65662L0.089445 9.67995L0.0802216 8.38911C1.56672 8.14493 2.6956 7.56522 3.46631 6.64944C4.60967 5.27677 5.21949 3.36047 5.29682 0.901028Z" fill="#535050"/>
<path d="M5.29682 0.901028L6.63866 0.89144L6.68899 7.93601L12.7604 7.89263L12.7726 9.58933L6.70112 9.63271L6.78031 20.7161C6.78716 21.6752 7.03947 22.4079 7.53722 22.9145C8.03498 23.4212 8.66505 23.6719 9.42637 23.6665C10.334 23.66 11.1069 23.2672 11.7423 22.4881C12.3783 21.7087 12.7429 20.4274 12.8373 18.6441L14.1791 18.6345C14.116 20.9343 13.5604 22.6444 12.5128 23.7645C11.4652 24.8847 10.0997 25.4507 8.41752 25.4627C6.86785 25.4738 5.65259 25.0927 4.77276 24.3176C3.89189 23.5436 3.44666 22.523 3.43761 21.2567L3.35472 9.65662L0.089445 9.67995L0.0802216 8.38911C1.56672 8.14493 2.6956 7.56522 3.46631 6.64944C4.60967 5.27677 5.21949 3.36047 5.29682 0.901028Z" fill="#535050"/>
</svg>
