<svg width="66" height="55" viewBox="0 0 66 55" fill="none" xmlns="http://www.w3.org/2000/svg">
<path d="M0.51622 54.4989H65.4382C65.6959 54.4989 66 54.1535 66 53.877V50.7097C66 50.4341 65.6959 50.1282 65.4382 50.1282H63.8V23.4892H58.8499V16.7781L51.6998 19.3521V6.55612L51.6464 6.45948C51.5458 6.21578 48.9812 0.499725 32.562 0.499725C17.5358 0.499725 14.4722 6.18049 14.3489 6.42251L14.2986 6.53427V19.353L7.14851 16.779V23.49H2.20003V50.1291H0.51622C0.258503 50.1291 0 50.4341 0 50.7106V53.8779C0 54.1535 0.258503 54.4997 0.51622 54.4997V54.4989ZM61.2864 24.4984H62.8579V50.1291H61.2864V24.4984ZM58.8507 24.4984H60.4221V50.1291H58.8507V24.4984ZM51.7006 43.7769V20.4059L57.9078 18.1647V50.1291H51.7006V43.7769ZM15.243 19.6857V6.80907C15.5573 6.08553 19.2707 1.49806 32.58 1.49806C47.2243 1.49806 50.3649 6.13595 50.7577 6.78806V19.7009C48.872 18.5487 43.6022 15.9445 33.0083 15.8815C33.0004 15.8815 32.9886 15.879 32.98 15.879C32.9729 15.879 32.965 15.8806 32.958 15.8815C32.844 15.8815 32.7466 15.8781 32.6311 15.8781C22.5597 15.8781 17.128 18.5714 15.2423 19.7194V19.6849L15.243 19.6857ZM47.9291 42.3651V35.5448C49.5006 36.0137 50.3649 36.4381 50.7577 36.6415V43.0811C50.1292 42.9012 49.1863 42.6399 47.9291 42.3651ZM50.7577 44.134V50.1291H47.9291V43.3954C49.5006 43.7038 50.3649 43.9861 50.7577 44.134ZM47.9291 34.4893V27.7405C49.5006 28.2934 50.3649 28.7918 50.7577 29.0187V35.533C50.1292 35.265 49.1863 34.886 47.9291 34.4885V34.4893ZM47.9291 26.6682V19.4235C49.5006 20.0622 50.3649 20.6353 50.7577 20.8841V27.8758C50.1292 27.5632 49.1863 27.1262 47.9291 26.669V26.6682ZM42.5862 41.5676V34.3389C44.472 34.6162 45.7291 34.944 47.0648 35.2683V42.1819C45.7291 41.9642 44.472 41.7491 42.5862 41.5676ZM47.0648 43.208V50.1291H42.6884C42.6884 50.1291 42.5862 50.1165 42.5862 50.1114V42.5785C44.472 42.7659 45.7291 42.9878 47.0648 43.208ZM42.5862 33.3196V26.3379C44.472 26.6606 45.7291 27.0422 47.0648 27.4186V34.2204C45.7291 33.9019 44.472 33.586 42.5862 33.3204V33.3196ZM42.5862 25.3144V17.8244C44.472 18.1916 45.7291 18.6269 47.0648 19.0563V26.3573C45.7291 25.9875 44.472 25.6228 42.5862 25.3144ZM33.3147 41.0978V33.6288C36.6933 33.6616 39.5219 33.8851 41.7219 34.2011V41.476C39.5219 41.2659 36.6933 41.1188 33.3147 41.0978ZM37.9505 42.2155V50.1291H33.3147V42.097C35.1218 42.1079 36.379 42.15 37.9505 42.2155ZM41.7219 26.1791V33.1859C39.5219 32.8775 36.6933 32.6616 33.3147 32.6305V25.5144C36.6933 25.5522 39.5219 25.8127 41.7219 26.1791ZM33.3147 24.5152V16.8857C36.6933 16.9294 39.5219 17.2252 41.7219 17.6428V25.1589C39.5219 24.8018 36.6933 24.5514 33.3147 24.5152ZM38.8933 42.2651C39.8362 42.3264 40.7791 42.4004 41.7219 42.4853V50.1114C41.7219 50.1165 41.7573 50.1291 41.7573 50.1291H38.8933V42.2651ZM24.5931 41.4298V34.1339C26.7932 33.8322 29.5432 33.6288 32.3718 33.6246V41.0953C29.5432 41.0987 26.7932 41.2306 24.5931 41.4306V41.4298ZM32.3718 42.0936V50.1299H28.3646V42.1911C29.5432 42.1306 30.8004 42.0953 32.3718 42.0936ZM27.3432 42.239V50.1299H24.5931V42.439C25.536 42.3617 26.4789 42.2937 27.3432 42.239ZM24.5931 33.1179V26.101C26.7932 25.7514 29.5432 25.5144 32.3718 25.5094V32.6263C29.5432 32.6305 26.7932 32.8254 24.5931 33.1179ZM24.5931 25.0799V17.5538C26.7932 17.1554 29.5432 16.8857 32.3718 16.8798V24.5102C29.5432 24.5152 26.7932 24.7404 24.5931 25.0799ZM19.0145 42.1777V35.2625C20.2717 34.912 21.7645 34.5591 23.6503 34.27V41.5205C21.7645 41.7105 20.2717 41.9432 19.0145 42.1785V42.1777ZM23.6503 42.5315V50.1299H19.0145V43.2038C20.2717 42.9659 21.7645 42.7264 23.6503 42.5315ZM19.0145 34.2137V27.4119C20.2717 27.0052 21.7645 26.5942 23.6503 26.2581V33.2498C21.7645 33.5271 20.2717 33.8683 19.0145 34.2137ZM19.0145 26.3489V19.0597C19.0145 19.0597 19.0059 19.0521 19.0059 19.0488C20.2465 18.5857 21.7645 18.1168 23.6503 17.7336V25.2329C21.7645 25.5539 20.2717 25.9497 19.0145 26.3489ZM15.243 20.8925C15.5573 20.6404 16.5002 20.0614 17.9931 19.4177V26.6623C16.8145 27.1304 15.8716 27.5783 15.243 27.8909V20.8916V20.8925ZM15.243 29.0271C15.5573 28.7976 16.5002 28.2943 17.9931 27.7354V34.4843C16.8145 34.8902 15.8716 35.2784 15.243 35.5473V29.0271ZM15.243 36.6499C15.5573 36.4448 16.5002 36.0154 17.9931 35.5414V42.3626C16.8145 42.6441 15.8716 42.9113 15.243 43.0911V36.6499ZM15.243 44.1399C15.5573 43.9912 16.5002 43.7046 17.9931 43.392V50.1291H15.243V44.1399ZM8.09295 23.6161V18.1655L14.3002 20.4068V50.1299H8.09295V23.6161ZM5.57864 24.4993H7.15008V50.1299H5.57864V24.4993ZM3.14289 24.4993H4.63577V50.1299H3.14289V24.4993ZM0.864296 51.1383H65.0579V53.4913H0.864296V51.1383Z" fill="white"/>
</svg>
