<svg width="128" height="131" viewBox="0 0 128 131" fill="none" xmlns="http://www.w3.org/2000/svg">
<g filter="url(#filter0_d_3153_776)">
<circle cx="64" cy="66.5" r="52" fill="#C10230"/>
<circle cx="64" cy="66.5" r="51" stroke="white" stroke-width="2"/>
</g>
<path d="M59.4141 41.1309L57.8421 41.1309L53.7741 35.7909L53.7741 41.1309L51.9501 41.1309L51.9501 32.7309L53.6541 32.7309L57.5901 37.9029L57.5901 32.7309L59.4141 32.7309L59.4141 41.1309ZM69.0626 39.9429C68.6306 40.3109 68.1146 40.6269 67.5146 40.8909C66.9226 41.1469 66.2426 41.2749 65.4746 41.2749C64.8186 41.2749 64.2186 41.1669 63.6746 40.9509C63.1386 40.7349 62.6746 40.4349 62.2826 40.0509C61.8986 39.6669 61.5986 39.2109 61.3826 38.6829C61.1666 38.1549 61.0586 37.5789 61.0586 36.9549L61.0586 36.9309C61.0586 36.3309 61.1666 35.7709 61.3826 35.2509C61.6066 34.7229 61.9146 34.2629 62.3066 33.8709C62.6986 33.4709 63.1626 33.1589 63.6986 32.9349C64.2346 32.7029 64.8226 32.5869 65.4626 32.5869C65.8386 32.5869 66.1786 32.6149 66.4826 32.6709C66.7946 32.7189 67.0826 32.7909 67.3466 32.8869C67.6106 32.9829 67.8586 33.1029 68.0906 33.2469C68.3226 33.3909 68.5466 33.5549 68.7626 33.7389L67.5986 35.1429C67.4386 35.0069 67.2786 34.8869 67.1186 34.7829C66.9586 34.6789 66.7906 34.5909 66.6146 34.5189C66.4466 34.4469 66.2626 34.3909 66.0626 34.3509C65.8626 34.3109 65.6426 34.2909 65.4026 34.2909C65.0666 34.2909 64.7506 34.3629 64.4546 34.5069C64.1666 34.6429 63.9106 34.8309 63.6866 35.0709C63.4706 35.3029 63.2986 35.5789 63.1706 35.8989C63.0506 36.2109 62.9906 36.5469 62.9906 36.9069L62.9906 36.9309C62.9906 37.3149 63.0506 37.6709 63.1706 37.9989C63.2986 38.3189 63.4746 38.5989 63.6986 38.8389C63.9306 39.0789 64.1986 39.2669 64.5026 39.4029C64.8146 39.5309 65.1586 39.5949 65.5346 39.5949C66.2226 39.5949 66.8026 39.4269 67.2746 39.0909L67.2746 37.8909L65.4146 37.8909L65.4146 36.2949L69.0626 36.2949L69.0626 39.9429ZM79.3968 36.9309C79.3968 37.5309 79.2848 38.0949 79.0608 38.6229C78.8368 39.1429 78.5248 39.6029 78.1248 40.0029C77.7328 40.3949 77.2608 40.7069 76.7088 40.9389C76.1648 41.1629 75.5688 41.2749 74.9208 41.2749C74.2728 41.2749 73.6768 41.1629 73.1328 40.9389C72.5888 40.7069 72.1168 40.3989 71.7168 40.0149C71.3248 39.6229 71.0168 39.1669 70.7928 38.6469C70.5768 38.1189 70.4688 37.5549 70.4688 36.9549L70.4688 36.9309C70.4688 36.3309 70.5808 35.7709 70.8048 35.2509C71.0288 34.7229 71.3368 34.2629 71.7288 33.8709C72.1288 33.4709 72.6008 33.1589 73.1448 32.9349C73.6968 32.7029 74.2968 32.5869 74.9448 32.5869C75.5928 32.5869 76.1888 32.7029 76.7328 32.9349C77.2768 33.1589 77.7448 33.4669 78.1368 33.8589C78.5368 34.2429 78.8448 34.6989 79.0608 35.2269C79.2848 35.7469 79.3968 36.3069 79.3968 36.9069L79.3968 36.9309ZM77.4648 36.9549L77.4648 36.9309C77.4648 36.5709 77.4008 36.2309 77.2728 35.9109C77.1528 35.5909 76.9768 35.3109 76.7448 35.0709C76.5208 34.8309 76.2528 34.6429 75.9408 34.5069C75.6288 34.3629 75.2888 34.2909 74.9208 34.2909C74.5448 34.2909 74.2008 34.3589 73.8888 34.4949C73.5848 34.6309 73.3208 34.8189 73.0968 35.0589C72.8808 35.2989 72.7088 35.5789 72.5808 35.8989C72.4608 36.2109 72.4008 36.5469 72.4008 36.9069L72.4008 36.9309C72.4008 37.2909 72.4608 37.6309 72.5808 37.9509C72.7088 38.2709 72.8848 38.5509 73.1088 38.7909C73.3408 39.0309 73.6088 39.2229 73.9128 39.3669C74.2248 39.5029 74.5688 39.5709 74.9448 39.5709C75.3128 39.5709 75.6528 39.5029 75.9648 39.3669C76.2768 39.2309 76.5408 39.0429 76.7568 38.8029C76.9808 38.5629 77.1528 38.2869 77.2728 37.9749C77.4008 37.6549 77.4648 37.3149 77.4648 36.9549Z" fill="white"/>
<path d="M54.5541 79.6704C54.5541 79.4454 54.3717 79.2629 54.1467 79.2629H51.4636C51.2386 79.2629 51.0562 79.4454 51.0562 79.6704V82.3534C51.0562 82.5785 51.2386 82.7609 51.4636 82.7609H54.1467C54.3717 82.7609 54.5541 82.5785 54.5541 82.3534V79.6704ZM53.7309 82.2128H51.8101V80.0862H53.7309V82.2128Z" fill="white"/>
<path d="M54.5541 75.3482C54.5541 75.1232 54.3717 74.9407 54.1467 74.9407H51.4636C51.2386 74.9407 51.0562 75.1232 51.0562 75.3482V78.0312C51.0562 78.2562 51.2386 78.4387 51.4636 78.4387H54.1467C54.3717 78.4387 54.5541 78.2562 54.5541 78.0312V75.3482ZM53.7309 77.6847H51.8101V75.7639H53.7309V77.6847Z" fill="white"/>
<path d="M54.5541 70.958C54.5541 70.733 54.3717 70.5505 54.1467 70.5505H51.4636C51.2386 70.5505 51.0562 70.733 51.0562 70.958V73.641C51.0562 73.866 51.2386 74.0485 51.4636 74.0485H54.1467C54.3717 74.0485 54.5541 73.866 54.5541 73.641V70.958ZM53.7309 73.2945H51.8101V71.3737H53.7309V73.2945Z" fill="white"/>
<path d="M54.5541 66.6365C54.5541 66.4115 54.3717 66.229 54.1467 66.229H51.4636C51.2386 66.229 51.0562 66.4115 51.0562 66.6365V69.3195C51.0562 69.5445 51.2386 69.727 51.4636 69.727H54.1467C54.3717 69.727 54.5541 69.5445 54.5541 69.3195V66.6365ZM53.7309 68.9045H51.8101V66.9836H53.7309V68.9045Z" fill="white"/>
<path d="M54.5541 62.2454C54.5541 62.0204 54.3717 61.838 54.1467 61.838H51.4636C51.2386 61.838 51.0562 62.0204 51.0562 62.2454V64.9285C51.0562 65.1535 51.2386 65.3359 51.4636 65.3359H54.1467C54.3717 65.3359 54.5541 65.1535 54.5541 64.9285V62.2454ZM53.7309 64.582H51.8101V62.7298H53.7309V64.582Z" fill="white"/>
<path d="M49.6149 79.6704C49.6149 79.4454 49.4325 79.2629 49.2074 79.2629H46.5244C46.2994 79.2629 46.1169 79.4454 46.1169 79.6704V82.3534C46.1169 82.5785 46.2994 82.7609 46.5244 82.7609H49.2074C49.4325 82.7609 49.6149 82.5785 49.6149 82.3534V79.6704ZM48.7917 82.2128H46.9395V80.0862H48.7917V82.2128Z" fill="white"/>
<path d="M49.6149 75.3482C49.6149 75.1232 49.4325 74.9407 49.2074 74.9407H46.5244C46.2994 74.9407 46.1169 75.1232 46.1169 75.3482V78.0312C46.1169 78.2562 46.2994 78.4387 46.5244 78.4387H49.2074C49.4325 78.4387 49.6149 78.2562 49.6149 78.0312V75.3482ZM48.7917 77.6847H46.9395V75.7639H48.7917V77.6847Z" fill="white"/>
<path d="M49.6149 70.958C49.6149 70.733 49.4325 70.5505 49.2074 70.5505H46.5244C46.2994 70.5505 46.1169 70.733 46.1169 70.958V73.641C46.1169 73.866 46.2994 74.0485 46.5244 74.0485H49.2074C49.4325 74.0485 49.6149 73.866 49.6149 73.641V70.958ZM48.7917 73.2945H46.9395V71.3737H48.7917V73.2945Z" fill="white"/>
<path d="M49.6149 66.6365C49.6149 66.4115 49.4325 66.229 49.2074 66.229H46.5244C46.2994 66.229 46.1169 66.4115 46.1169 66.6365V69.3195C46.1169 69.5445 46.2994 69.727 46.5244 69.727H49.2074C49.4325 69.727 49.6149 69.5445 49.6149 69.3195V66.6365ZM48.7917 68.9045H46.9395V66.9836H48.7917V68.9045Z" fill="white"/>
<path d="M49.6149 62.2454C49.6149 62.0204 49.4325 61.838 49.2074 61.838H46.5244C46.2994 61.838 46.1169 62.0204 46.1169 62.2454V64.9285C46.1169 65.1535 46.2994 65.3359 46.5244 65.3359H49.2074C49.4325 65.3359 49.6149 65.1535 49.6149 64.9285V62.2454ZM48.7917 64.582H46.9395V62.7298H48.7917V64.582Z" fill="white"/>
<path d="M84.9445 80.2192C84.9445 79.9942 84.762 79.8117 84.537 79.8117H81.854C81.629 79.8117 81.4465 79.9942 81.4465 80.2192V82.9022C81.4465 83.1272 81.629 83.3097 81.854 83.3097H84.537C84.762 83.3097 84.9445 83.1272 84.9445 82.9022V80.2192ZM84.1899 82.8302H82.2691V80.5663H84.1899V82.8302Z" fill="white"/>
<path d="M84.9445 75.8281C84.9445 75.6031 84.762 75.4207 84.537 75.4207H81.854C81.629 75.4207 81.4465 75.6031 81.4465 75.8281V78.5112C81.4465 78.7362 81.629 78.9186 81.854 78.9186H84.537C84.762 78.9186 84.9445 78.7362 84.9445 78.5112V75.8281ZM84.1899 78.1647H82.2691V76.3125H84.1899V78.1647Z" fill="white"/>
<path d="M84.9445 71.3011C84.9445 71.0761 84.762 70.8936 84.537 70.8936H81.854C81.629 70.8936 81.4465 71.0761 81.4465 71.3011V73.9841C81.4465 74.2091 81.629 74.3916 81.854 74.3916H84.537C84.762 74.3916 84.9445 74.2091 84.9445 73.9841V71.3011ZM84.1899 73.5691H82.2691V71.6482H84.1899V73.5691Z" fill="white"/>
<path d="M84.9445 66.6365C84.9445 66.4115 84.762 66.229 84.537 66.229H81.854C81.629 66.229 81.4465 66.4115 81.4465 66.6365V69.3195C81.4465 69.5445 81.629 69.727 81.854 69.727H84.537C84.762 69.727 84.9445 69.5445 84.9445 69.3195V66.6365ZM84.1899 68.9045H82.2691V66.9836H84.1899V68.9045Z" fill="white"/>
<path d="M84.9445 61.9703C84.9445 61.7453 84.762 61.5628 84.537 61.5628H81.854C81.629 61.5628 81.4465 61.7453 81.4465 61.9703V64.6533C81.4465 64.8783 81.629 65.0608 81.854 65.0608H84.537C84.762 65.0608 84.9445 64.8783 84.9445 64.6533V61.9703ZM84.1899 64.5813H82.2691V62.4546H84.1899V64.5813Z" fill="white"/>
<path d="M79.7993 80.2192C79.7993 79.9942 79.6168 79.8117 79.3918 79.8117H76.7088C76.4837 79.8117 76.3013 79.9942 76.3013 80.2192V82.9022C76.3013 83.1272 76.4837 83.3097 76.7088 83.3097H79.3918C79.6168 83.3097 79.7993 83.1272 79.7993 82.9022V80.2192ZM79.0446 82.8302H77.0552V80.5663H79.0446V82.8302Z" fill="white"/>
<path d="M79.7993 75.8281C79.7993 75.6031 79.6168 75.4207 79.3918 75.4207H76.7088C76.4837 75.4207 76.3013 75.6031 76.3013 75.8281V78.5112C76.3013 78.7362 76.4837 78.9186 76.7088 78.9186H79.3918C79.6168 78.9186 79.7993 78.7362 79.7993 78.5112V75.8281ZM79.0446 78.1647H77.0552V76.3125H79.0446V78.1647Z" fill="white"/>
<path d="M79.7993 71.3011C79.7993 71.0761 79.6168 70.8936 79.3918 70.8936H76.7088C76.4837 70.8936 76.3013 71.0761 76.3013 71.3011V73.9841C76.3013 74.2091 76.4837 74.3916 76.7088 74.3916H79.3918C79.6168 74.3916 79.7993 74.2091 79.7993 73.9841V71.3011ZM79.0446 73.5691H77.0552V71.6482H79.0446V73.5691Z" fill="white"/>
<path d="M79.4784 66.229H76.6513C76.4263 66.229 76.3008 66.4033 76.3008 66.629V69.456C76.3008 69.681 76.4263 69.7284 76.6513 69.7284H79.4784C79.7034 69.7284 79.7995 69.6817 79.7995 69.456V66.629C79.7995 66.4039 79.7034 66.229 79.4784 66.229ZM79.0448 68.9045H77.0554V66.9836H79.0448V68.9045Z" fill="white"/>
<path d="M79.7993 61.9703C79.7993 61.7453 79.6168 61.5628 79.3918 61.5628H76.7088C76.4837 61.5628 76.3013 61.7453 76.3013 61.9703V64.6533C76.3013 64.8783 76.4837 65.0608 76.7088 65.0608H79.3918C79.6168 65.0608 79.7993 64.8783 79.7993 64.6533V61.9703ZM79.0446 64.5813H77.0552V62.4546H79.0446V64.5813Z" fill="white"/>
<path d="M89.8151 80.2192C89.8151 79.9942 89.6327 79.8117 89.4076 79.8117H86.7246C86.4996 79.8117 86.3171 79.9942 86.3171 80.2192V82.9022C86.3171 83.1272 86.4996 83.3097 86.7246 83.3097H89.4076C89.6327 83.3097 89.8151 83.1272 89.8151 82.9022V80.2192ZM89.3349 82.8302H87.1397V80.5663H89.3349V82.8302Z" fill="white"/>
<path d="M89.8151 75.8281C89.8151 75.6031 89.6327 75.4207 89.4076 75.4207H86.7246C86.4996 75.4207 86.3171 75.6031 86.3171 75.8281V78.5112C86.3171 78.7362 86.4996 78.9186 86.7246 78.9186H89.4076C89.6327 78.9186 89.8151 78.7362 89.8151 78.5112V75.8281ZM89.3349 78.1647H87.1397V76.3125H89.3349V78.1647Z" fill="white"/>
<path d="M89.8151 71.3011C89.8151 71.0761 89.6327 70.8936 89.4076 70.8936H86.7246C86.4996 70.8936 86.3171 71.0761 86.3171 71.3011V73.9841C86.3171 74.2091 86.4996 74.3916 86.7246 74.3916H89.4076C89.6327 74.3916 89.8151 74.2091 89.8151 73.9841V71.3011ZM89.3349 73.5691H87.1397V71.6482H89.3349V73.5691Z" fill="white"/>
<path d="M89.8151 66.6365C89.8151 66.4115 89.6327 66.229 89.4076 66.229H86.7246C86.4996 66.229 86.3171 66.4115 86.3171 66.6365V69.3195C86.3171 69.5445 86.4996 69.727 86.7246 69.727H89.4076C89.6327 69.727 89.8151 69.5445 89.8151 69.3195V66.6365ZM89.3349 68.9045H87.1397V66.9836H89.3349V68.9045Z" fill="white"/>
<path d="M89.8151 61.9703C89.8151 61.7453 89.6327 61.5628 89.4076 61.5628H86.7246C86.4996 61.5628 86.3171 61.7453 86.3171 61.9703V64.6533C86.3171 64.8783 86.4996 65.0608 86.7246 65.0608H89.4076C89.6327 65.0608 89.8151 64.8783 89.8151 64.6533V61.9703ZM89.3349 64.5813H87.1397V62.4546H89.3349V64.5813Z" fill="white"/>
<path d="M64.5698 79.6704C64.5698 79.4454 64.3873 79.2629 64.1623 79.2629H61.4793C61.2543 79.2629 61.0718 79.4454 61.0718 79.6704V82.3534C61.0718 82.5785 61.2543 82.7609 61.4793 82.7609H64.1623C64.3873 82.7609 64.5698 82.5785 64.5698 82.3534V79.6704ZM63.7466 82.2128H61.8943V80.0862H63.7466V82.2128Z" fill="white"/>
<path d="M64.5698 75.3482C64.5698 75.1232 64.3873 74.9407 64.1623 74.9407H61.4793C61.2543 74.9407 61.0718 75.1232 61.0718 75.3482V78.0312C61.0718 78.2562 61.2543 78.4387 61.4793 78.4387H64.1623C64.3873 78.4387 64.5698 78.2562 64.5698 78.0312V75.3482ZM63.7466 77.6847H61.8943V75.7639H63.7466V77.6847Z" fill="white"/>
<path d="M64.5698 70.958C64.5698 70.733 64.3873 70.5505 64.1623 70.5505H61.4793C61.2543 70.5505 61.0718 70.733 61.0718 70.958V73.641C61.0718 73.866 61.2543 74.0485 61.4793 74.0485H64.1623C64.3873 74.0485 64.5698 73.866 64.5698 73.641V70.958ZM63.7466 73.2945H61.8943V71.3737H63.7466V73.2945Z" fill="white"/>
<path d="M64.5698 66.6365C64.5698 66.4115 64.3873 66.229 64.1623 66.229H61.4793C61.2543 66.229 61.0718 66.4115 61.0718 66.6365V69.3195C61.0718 69.5445 61.2543 69.727 61.4793 69.727H64.1623C64.3873 69.727 64.5698 69.5445 64.5698 69.3195V66.6365ZM63.7466 68.9045H61.8943V66.9836H63.7466V68.9045Z" fill="white"/>
<path d="M64.5698 62.2454C64.5698 62.0204 64.3873 61.838 64.1623 61.838H61.4793C61.2543 61.838 61.0718 62.0204 61.0718 62.2454V64.9285C61.0718 65.1535 61.2543 65.3359 61.4793 65.3359H64.1623C64.3873 65.3359 64.5698 65.1535 64.5698 64.9285V62.2454ZM63.7466 64.582H61.8943V62.7298H63.7466V64.582Z" fill="white"/>
<path d="M59.6992 79.6704C59.6992 79.4454 59.5167 79.2629 59.2917 79.2629H56.6087C56.3837 79.2629 56.2012 79.4454 56.2012 79.6704V82.3534C56.2012 82.5785 56.3837 82.7609 56.6087 82.7609H59.2917C59.5167 82.7609 59.6992 82.5785 59.6992 82.3534V79.6704ZM58.8759 82.2128H56.9551V80.0862H58.8759V82.2128Z" fill="white"/>
<path d="M59.6992 75.3482C59.6992 75.1232 59.5167 74.9407 59.2917 74.9407H56.6087C56.3837 74.9407 56.2012 75.1232 56.2012 75.3482V78.0312C56.2012 78.2562 56.3837 78.4387 56.6087 78.4387H59.2917C59.5167 78.4387 59.6992 78.2562 59.6992 78.0312V75.3482ZM58.8759 77.6847H56.9551V75.7639H58.8759V77.6847Z" fill="white"/>
<path d="M59.6992 70.958C59.6992 70.733 59.5167 70.5505 59.2917 70.5505H56.6087C56.3837 70.5505 56.2012 70.733 56.2012 70.958V73.641C56.2012 73.866 56.3837 74.0485 56.6087 74.0485H59.2917C59.5167 74.0485 59.6992 73.866 59.6992 73.641V70.958ZM58.8759 73.2945H56.9551V71.3737H58.8759V73.2945Z" fill="white"/>
<path d="M59.6992 66.6365C59.6992 66.4115 59.5167 66.229 59.2917 66.229H56.6087C56.3837 66.229 56.2012 66.4115 56.2012 66.6365V69.3195C56.2012 69.5445 56.3837 69.727 56.6087 69.727H59.2917C59.5167 69.727 59.6992 69.5445 59.6992 69.3195V66.6365ZM58.8759 68.9045H56.9551V66.9836H58.8759V68.9045Z" fill="white"/>
<path d="M59.6992 62.2454C59.6992 62.0204 59.5167 61.838 59.2917 61.838H56.6087C56.3837 61.838 56.2012 62.0204 56.2012 62.2454V64.9285C56.2012 65.1535 56.3837 65.3359 56.6087 65.3359H59.2917C59.5167 65.3359 59.6992 65.1535 59.6992 64.9285V62.2454ZM58.8759 64.582H56.9551V62.7298H58.8759V64.582Z" fill="white"/>
<path d="M69.715 79.6704C69.715 79.4454 69.5326 79.2629 69.3075 79.2629H66.6245C66.3995 79.2629 66.217 79.4454 66.217 79.6704V82.3534C66.217 82.5785 66.3995 82.7609 66.6245 82.7609H69.3075C69.5326 82.7609 69.715 82.5785 69.715 82.3534V79.6704ZM68.9604 82.2128H67.0396V80.0862H68.9604V82.2128Z" fill="white"/>
<path d="M69.715 75.3482C69.715 75.1232 69.5326 74.9407 69.3075 74.9407H66.6245C66.3995 74.9407 66.217 75.1232 66.217 75.3482V78.0312C66.217 78.2562 66.3995 78.4387 66.6245 78.4387H69.3075C69.5326 78.4387 69.715 78.2562 69.715 78.0312V75.3482ZM68.9604 77.6847H67.0396V75.7639H68.9604V77.6847Z" fill="white"/>
<path d="M69.715 70.958C69.715 70.733 69.5326 70.5505 69.3075 70.5505H66.6245C66.3995 70.5505 66.217 70.733 66.217 70.958V73.641C66.217 73.866 66.3995 74.0485 66.6245 74.0485H69.3075C69.5326 74.0485 69.715 73.866 69.715 73.641V70.958ZM68.9604 73.2945H67.0396V71.3737H68.9604V73.2945Z" fill="white"/>
<path d="M69.715 66.6365C69.715 66.4115 69.5326 66.229 69.3075 66.229H66.6245C66.3995 66.229 66.217 66.4115 66.217 66.6365V69.3195C66.217 69.5445 66.3995 69.727 66.6245 69.727H69.3075C69.5326 69.727 69.715 69.5445 69.715 69.3195V66.6365ZM68.9604 68.9045H67.0396V66.9836H68.9604V68.9045Z" fill="white"/>
<path d="M69.715 62.2454C69.715 62.0204 69.5326 61.838 69.3075 61.838H66.6245C66.3995 61.838 66.217 62.0204 66.217 62.2454V64.9285C66.217 65.1535 66.3995 65.3359 66.6245 65.3359H69.3075C69.5326 65.3359 69.715 65.1535 69.715 64.9285V62.2454ZM68.9604 64.582H67.0396V62.7298H68.9604V64.582Z" fill="white"/>
<path d="M54.5541 57.9232C54.5541 57.6982 54.3717 57.5157 54.1467 57.5157H51.4636C51.2386 57.5157 51.0562 57.6982 51.0562 57.9232V60.6062C51.0562 60.8313 51.2386 61.0137 51.4636 61.0137H54.1467C54.3717 61.0137 54.5541 60.8313 54.5541 60.6062V57.9232ZM53.7309 60.1912H51.8101V58.339H53.7309V60.1912Z" fill="white"/>
<path d="M54.5541 53.3274C54.5541 53.1023 54.3717 52.9199 54.1467 52.9199H51.4636C51.2386 52.9199 51.0562 53.1023 51.0562 53.3274V56.0104C51.0562 56.2354 51.2386 56.4179 51.4636 56.4179H54.1467C54.3717 56.4179 54.5541 56.2354 54.5541 56.0104V53.3274ZM53.7309 55.5953H51.8101V53.6745H53.7309V55.5953Z" fill="white"/>
<path d="M49.6149 57.9232C49.6149 57.6982 49.4325 57.5157 49.2074 57.5157H46.5244C46.2994 57.5157 46.1169 57.6982 46.1169 57.9232V60.6062C46.1169 60.8313 46.2994 61.0137 46.5244 61.0137H49.2074C49.4325 61.0137 49.6149 60.8313 49.6149 60.6062V57.9232ZM48.7917 60.1912H46.9395V58.339H48.7917V60.1912Z" fill="white"/>
<path d="M49.6149 53.3274C49.6149 53.1023 49.4325 52.9199 49.2074 52.9199H46.5244C46.2994 52.9199 46.1169 53.1023 46.1169 53.3274V56.0104C46.1169 56.2354 46.2994 56.4179 46.5244 56.4179H49.2074C49.4325 56.4179 49.6149 56.2354 49.6149 56.0104V53.3274ZM48.7917 55.5953H46.9395V53.6745H48.7917V55.5953Z" fill="white"/>
<path d="M64.5698 57.9232C64.5698 57.6982 64.3873 57.5157 64.1623 57.5157H61.4793C61.2543 57.5157 61.0718 57.6982 61.0718 57.9232V60.6062C61.0718 60.8313 61.2543 61.0137 61.4793 61.0137H64.1623C64.3873 61.0137 64.5698 60.8313 64.5698 60.6062V57.9232ZM63.7466 60.1912H61.8943V58.339H63.7466V60.1912Z" fill="white"/>
<path d="M64.5698 53.3274C64.5698 53.1023 64.3873 52.9199 64.1623 52.9199H61.4793C61.2543 52.9199 61.0718 53.1023 61.0718 53.3274V56.0104C61.0718 56.2354 61.2543 56.4179 61.4793 56.4179H64.1623C64.3873 56.4179 64.5698 56.2354 64.5698 56.0104V53.3274ZM63.7466 55.5953H61.8943V53.6745H63.7466V55.5953Z" fill="white"/>
<path d="M59.6992 57.9232C59.6992 57.6982 59.5167 57.5157 59.2917 57.5157H56.6087C56.3837 57.5157 56.2012 57.6982 56.2012 57.9232V60.6062C56.2012 60.8313 56.3837 61.0137 56.6087 61.0137H59.2917C59.5167 61.0137 59.6992 60.8313 59.6992 60.6062V57.9232ZM58.8759 60.1912H56.9551V58.339H58.8759V60.1912Z" fill="white"/>
<path d="M59.6992 53.3274C59.6992 53.1023 59.5167 52.9199 59.2917 52.9199H56.6087C56.3837 52.9199 56.2012 53.1023 56.2012 53.3274V56.0104C56.2012 56.2354 56.3837 56.4179 56.6087 56.4179H59.2917C59.5167 56.4179 59.6992 56.2354 59.6992 56.0104V53.3274ZM58.8759 55.5953H56.9551V53.6745H58.8759V55.5953Z" fill="white"/>
<path d="M69.715 57.9232C69.715 57.6982 69.5326 57.5157 69.3075 57.5157H66.6245C66.3995 57.5157 66.217 57.6982 66.217 57.9232V60.6062C66.217 60.8313 66.3995 61.0137 66.6245 61.0137H69.3075C69.5326 61.0137 69.715 60.8313 69.715 60.6062V57.9232ZM68.9604 60.1912H67.0396V58.339H68.9604V60.1912Z" fill="white"/>
<path d="M69.715 53.3274C69.715 53.1023 69.5326 52.9199 69.3075 52.9199H66.6245C66.3995 52.9199 66.217 53.1023 66.217 53.3274V56.0104C66.217 56.2354 66.3995 56.4179 66.6245 56.4179H69.3075C69.5326 56.4179 69.715 56.2354 69.715 56.0104V53.3274ZM68.9604 55.5953H67.0396V53.6745H68.9604V55.5953Z" fill="white"/>
<path d="M93.4409 93.6689H91.7361V87.6244C91.7361 87.3994 91.6312 87.1517 91.4062 87.1517H88.7863V85.2309H91.4062C91.6312 85.2309 91.7361 85.1143 91.7361 84.8885V60.5432C91.7361 60.3182 91.6312 60.1913 91.4062 60.1913H75.0708C74.8458 60.1913 74.6544 60.3182 74.6544 60.5432V68.9037H71.4301V51.4816C71.4301 51.2566 71.1996 50.9987 70.9746 50.9987H68.4116V49.6088C68.4116 49.3838 68.1626 49.1464 67.9376 49.1464H65.3931V47.736C65.3931 47.511 65.2127 47.5 64.9877 47.5H50.6808C50.4558 47.5 50.1636 47.511 50.1636 47.736V49.1464H47.731C47.506 49.1464 47.1451 49.3838 47.1451 49.6088V50.9987H44.9444C44.7194 50.9987 44.4697 51.2559 44.4697 51.4816V84.3075C44.4697 84.5325 44.7194 84.6821 44.9444 84.6821H46.3905V87.1517H44.9444C44.7194 87.1517 44.4697 87.3987 44.4697 87.6244V93.6689H42.4342C42.2092 93.6689 42 93.909 42 94.134V96.5117C42 96.7367 42.2092 96.8931 42.4342 96.8931H93.4409C93.6659 96.8931 94 96.7367 94 96.5117V94.134C94 93.909 93.6659 93.6689 93.4409 93.6689ZM90.9815 87.9749V93.6689H86.591V90.1105C86.591 89.8855 86.4689 89.6214 86.2439 89.6214H80.2337C80.0087 89.6214 79.8002 89.8848 79.8002 90.1105V93.6689H75.4783V87.9749H90.9822H90.9815ZM85.8364 90.376V93.6689H83.5726V90.376H85.8364ZM82.8179 90.376V93.6689H80.6913V90.376H82.8179ZM78.4274 87.1517V85.2309H80.3483V87.1517H78.4274ZM81.1715 87.1517V85.2309H82.8179V87.1517H81.1715ZM83.5726 87.1517V85.2309H85.219V87.1517H83.5726ZM86.1108 87.1517V85.2309H87.9631V87.1517H86.1108ZM75.4776 61.0831H90.9815V84.4077H75.4776V61.0831ZM71.4301 84.3075V69.7269H74.6544V84.8885C74.6544 85.1136 74.8458 85.2309 75.0708 85.2309H77.6728V87.1517H75.0708C74.8458 87.1517 74.6544 87.3987 74.6544 87.6244V93.6689H71.4301V87.6244C71.4301 87.3994 71.1996 87.1517 70.9746 87.1517H69.7836V84.6821H70.9746C71.1996 84.6821 71.4301 84.5325 71.4301 84.3075ZM51.0554 48.2546H64.6385V49.1464H51.0554V48.2546ZM48.0369 49.9011H67.5884V50.9987H48.0369V49.9011ZM45.2929 83.8588V51.8219H70.5383V83.8588H45.2929ZM68.9604 84.6821V87.1517H67.3826V84.6821H68.9604ZM66.4908 84.6821V87.1517H64.8443V84.6821H66.4908ZM64.0897 84.6821V87.1517H62.4433V84.6821H64.0897ZM61.6201 84.6821V87.1517H59.6992V84.6821H61.6201ZM58.876 84.6821V87.1517H57.2982V84.6821H58.876ZM56.4749 84.6821V87.1517H54.8285V84.6821H56.4749ZM54.0053 84.6821V87.1517H52.4274V84.6821H54.0053ZM51.5356 84.6821V87.1517H49.6834V84.6821H51.5356ZM48.7916 84.6821V87.1517H47.1451V84.6821H48.7916ZM45.2929 87.9749H70.5383V93.6689H60.7968V90.1105C60.7968 89.8855 60.6096 89.6214 60.3839 89.6214H54.3737C54.1487 89.6214 54.0053 89.8848 54.0053 90.1105V93.6689H45.2929V87.9749ZM59.9736 90.376V93.6689H57.847V90.376H59.9736ZM56.9551 90.376V93.6689H54.8285V90.376H56.9551ZM93.1082 96.1385H42.8918V94.4921H93.1082V96.1385Z" fill="white"/>
<defs>
<filter id="filter0_d_3153_776" x="0" y="2.5" width="128" height="128" filterUnits="userSpaceOnUse" color-interpolation-filters="sRGB">
<feFlood flood-opacity="0" result="BackgroundImageFix"/>
<feColorMatrix in="SourceAlpha" type="matrix" values="0 0 0 0 0 0 0 0 0 0 0 0 0 0 0 0 0 0 127 0" result="hardAlpha"/>
<feOffset/>
<feGaussianBlur stdDeviation="6"/>
<feComposite in2="hardAlpha" operator="out"/>
<feColorMatrix type="matrix" values="0 0 0 0 0 0 0 0 0 0 0 0 0 0 0 0 0 0 0.25 0"/>
<feBlend mode="normal" in2="BackgroundImageFix" result="effect1_dropShadow_3153_776"/>
<feBlend mode="normal" in="SourceGraphic" in2="effect1_dropShadow_3153_776" result="shape"/>
</filter>
</defs>
</svg>
