<svg width="370" height="371" viewBox="0 0 370 371" fill="none" xmlns="http://www.w3.org/2000/svg">
<g filter="url(#filter0_d_939_9841)">
<g filter="url(#filter1_d_939_9841)">
<circle cx="185.149" cy="185.649" r="96.4621" transform="rotate(-0.409387 185.149 185.649)" fill="white"/>
<circle cx="185.149" cy="185.649" r="97.9621" transform="rotate(-0.409387 185.149 185.649)" stroke="#F88D2A" stroke-width="3"/>
</g>
<path d="M176.501 166.373C176.256 166.158 176.062 165.987 175.91 165.869C174.837 165.033 173.123 164.664 172.197 164.518L172.019 164.49L171.978 164.35C171.496 163.208 172.966 163.128 172.966 163.128L173.182 162.764L172.85 160.36L172.982 159.974C173.009 159.9 173.048 159.83 173.088 159.764C173.159 159.644 173.203 159.561 173.175 159.507C173.135 159.428 172.917 159.22 171.751 159.001C171.222 158.902 170.723 158.855 170.267 158.862C169.195 158.879 168.712 159.193 168.708 159.196C168.384 159.414 168.21 159.728 168.178 160.156C168.075 161.504 169.425 163.461 169.911 163.893C170.239 164.185 169.642 164.392 169.642 164.392L168.136 164.356C164.336 164.299 162.939 164.672 158.965 160.803C158.841 160.682 158.747 160.591 158.688 160.537C158.496 160.369 158.321 160.28 158.18 160.283C158.107 160.283 158.054 160.309 158.026 160.328C158.442 164.297 164.54 165.901 165.853 166.792C167.138 167.664 167.946 173.469 167.888 173.66C167.686 174.329 166.513 187.664 168.044 190.465C168.159 190.676 168.369 190.743 168.551 190.744C168.602 190.744 168.659 190.737 168.734 190.719C168.752 190.715 168.922 189.282 169.262 185.175C169.812 178.537 170.122 176.736 170.759 176.633L170.837 176.627C170.843 176.627 170.846 176.626 170.852 176.625C170.858 176.626 170.861 176.627 170.868 176.627L170.945 176.632C171.584 176.726 171.919 178.522 172.563 185.151C172.961 189.253 173.151 190.683 173.17 190.687C173.245 190.704 173.303 190.71 173.354 190.709C173.536 190.706 173.744 190.636 173.857 190.423C175.347 187.6 173.985 174.283 173.774 173.617C173.714 173.428 173.781 172.859 173.899 172.173L173.912 172.173C174.145 170.784 174.583 168.906 174.622 168.659C174.884 167.021 177.786 174.083 178.657 174.944L178.973 173.508C177.61 169.868 177.247 167.03 176.501 166.373Z" fill="#535050"/>
<path d="M188.989 166.282C188.485 165.377 186.733 165.288 185.335 164.965L185.228 164.966C185.123 164.883 185.057 164.765 185.213 164.622C185.678 164.196 186.959 162.282 186.841 160.978C186.804 160.563 186.631 160.262 186.314 160.055C186.31 160.052 185.838 159.755 184.799 159.753C184.358 159.753 183.875 159.805 183.363 159.909C182.237 160.138 182.029 160.342 181.991 160.419C181.965 160.472 182.008 160.552 182.078 160.666C182.118 160.731 182.158 160.797 182.185 160.869L182.318 161.24L182.029 163.574L182.314 163.943C182.314 163.943 183.668 163.981 183.217 165.093L183.215 165.103C181.948 165.363 180.574 165.554 180.147 166.346C178.672 169.087 178.404 173.999 178.379 174.013C178.364 175.314 179.157 175.177 179.396 174.071C180.413 169.363 180.933 168.729 181.115 168.682C181.531 170.964 181.744 173.994 181.713 174.096C181.518 174.744 180.381 187.663 181.864 190.376C181.976 190.581 182.179 190.646 182.355 190.646C182.404 190.646 182.46 190.639 182.532 190.622C182.55 190.618 182.715 189.23 183.044 185.251C183.577 178.82 183.877 177.075 184.495 176.976L184.57 176.97C184.576 176.97 184.579 176.968 184.585 176.968C184.59 176.968 184.593 176.97 184.6 176.97L184.675 176.975C185.293 177.065 185.619 178.806 186.242 185.228C186.628 189.202 186.812 190.587 186.831 190.591C186.903 190.607 186.959 190.613 187.008 190.612C187.184 190.609 187.386 190.542 187.495 190.335C188.94 187.601 187.62 174.7 187.416 174.054C187.357 173.87 187.422 173.32 187.536 172.655L187.549 172.655C187.734 171.554 187.847 169.265 187.978 168.654C187.978 168.654 188.452 167.943 189.85 173.996C190.104 175.098 190.899 175.223 190.865 173.922C190.84 173.909 190.503 169.001 188.989 166.282Z" fill="#535050"/>
<path d="M198.368 188.729C198.368 188.749 198.312 190.747 199.405 191.004C199.579 190.922 200.358 185.202 200.399 179.795L197.941 180.002C198.294 182.027 198.476 184.993 198.368 188.729Z" fill="#535050"/>
<path d="M194.901 180.641C194.905 180.714 194.911 180.779 194.917 180.847C195.069 185.84 195.884 190.955 196.055 191.027C197.145 190.769 197.06 188.876 197.06 188.857C196.9 185.295 197.086 182.207 197.452 180.074L198.415 179.987L194.89 180.27C194.894 180.393 194.893 180.522 194.901 180.641Z" fill="#535050"/>
<path d="M194.411 161.224C194.411 161.224 193.785 160.442 194.587 160.091C195.389 159.741 196.63 160.076 196.63 160.076L196.967 161.455L195.577 161.587L194.411 161.224Z" fill="#535050"/>
<path d="M208.828 160.876C208.695 160.876 208.532 160.961 208.354 161.122C208.3 161.173 208.213 161.259 208.098 161.374C204.961 164.517 203.636 164.671 200.57 165.212C200.464 165.115 200.366 165.013 200.271 164.909C199.702 164.129 199.418 162.449 199.374 161.82C199.322 161.089 198.937 160.519 198.937 160.519L198.93 160.522C198.84 160.314 198.703 160.142 198.504 160.012C198.499 160.008 198.016 159.705 196.952 159.702C196.499 159.702 196.005 159.756 195.481 159.862C194.326 160.097 194.625 160.014 194.585 160.093C194.559 160.147 194.272 160.493 194.344 160.61C194.385 160.676 194.245 160.772 194.273 160.846L194.409 161.226L194.402 163.601L194.74 164.025L195.676 164.147C195.786 164.236 196.127 164.102 195.691 165.179C195.691 165.179 194.667 165.748 193.577 166.432C192.471 167.124 192.204 167.692 191.907 168.168C191.747 168.423 190.85 170.76 190.261 173.436L190.761 174.651C191.725 173.249 192.329 170.347 193.258 169.14C193.258 169.14 194.166 168.193 194.541 168.863C194.541 168.863 194.541 168.863 194.541 168.863C194.546 168.87 194.551 168.881 194.556 168.889C194.578 168.933 194.599 168.981 194.616 169.038C194.658 169.172 194.811 170.042 194.932 170.94C194.979 171.761 194.967 172.496 194.967 172.496C194.905 172.743 194.865 172.832 194.45 174.336C194.085 175.539 193.926 177.14 193.896 178.863C193.871 179.381 193.87 179.878 193.888 180.354L197.412 180.091L199.063 179.953C199.063 179.958 199.064 179.964 199.065 179.969L201.522 179.786C201.545 177.463 201.388 175.205 200.888 173.637C200.866 173.491 198.578 169.331 202.057 167.039C203.405 166.151 208.74 164.4 208.973 160.916C208.946 160.899 208.896 160.876 208.828 160.876Z" fill="#535050"/>
<path d="M159.799 152.265C160.227 152.519 160.687 152.662 161.122 152.553C161.698 152.409 161.91 151.759 161.786 151.265C161.68 150.84 161.387 150.489 161.088 150.164C161.668 150.341 163.077 150.216 163.216 149.431C163.246 149.257 163.142 149.093 163.027 148.96C162.339 148.161 161.283 147.959 160.229 147.993C160.009 148 157.403 148.436 157.39 148.295C157.864 149.41 157.901 149.1 158.441 150.62C158.614 151.106 159.192 151.903 159.799 152.265Z" fill="#C10230"/>
<path d="M213.786 153.425C213.543 153.013 213.425 152.579 213.576 152.189C213.777 151.672 214.498 151.528 215.024 151.68C215.476 151.811 215.834 152.108 216.162 152.407C216.016 151.861 216.261 150.578 217.123 150.512C217.314 150.498 217.483 150.607 217.618 150.722C218.43 151.416 218.566 152.401 218.447 153.365C218.422 153.566 217.746 155.922 217.897 155.946C216.727 155.423 217.065 155.414 215.461 154.8C214.948 154.604 214.13 154.011 213.786 153.425Z" fill="#C10230"/>
<path d="M208.646 149.947C208.144 149.868 207.7 149.686 207.46 149.336C207.142 148.871 207.466 148.261 207.92 147.974C208.312 147.728 208.787 147.652 209.245 147.599C208.688 147.368 207.744 146.4 208.221 145.736C208.326 145.588 208.524 145.533 208.706 145.506C209.802 145.347 210.728 145.855 211.478 146.536C211.634 146.678 213.23 148.621 213.343 148.525C212.173 149.05 212.375 148.799 210.858 149.582C210.373 149.832 209.359 150.059 208.646 149.947Z" fill="#C10230"/>
<path d="M200.429 152.705C200.133 153.087 199.762 153.377 199.315 153.425C198.722 153.488 198.264 152.955 198.181 152.455C198.11 152.023 198.242 151.597 198.389 151.194C197.921 151.556 196.562 151.921 196.119 151.239C196.02 151.088 196.052 150.9 196.105 150.737C196.425 149.759 197.325 149.211 198.318 148.883C198.525 148.815 201.121 148.33 201.077 148.195C201.083 149.392 200.924 149.117 201.032 150.713C201.066 151.223 200.848 152.162 200.429 152.705Z" fill="#C10230"/>
<path d="M154.12 155.02C154.623 155.095 155.107 155.056 155.459 154.796C155.924 154.451 155.834 153.778 155.506 153.371C155.223 153.021 154.801 152.808 154.386 152.621C154.995 152.569 156.231 151.935 156.016 151.165C155.968 150.994 155.801 150.883 155.638 150.803C154.659 150.325 153.603 150.53 152.651 150.951C152.454 151.038 150.255 152.399 150.182 152.276C151.102 153.121 151.001 152.824 152.158 154.016C152.528 154.397 153.406 154.914 154.12 155.02Z" fill="#C10230"/>
<path d="M168.199 152.936C168.5 153.314 168.875 153.598 169.323 153.64C169.917 153.694 170.366 153.155 170.442 152.653C170.508 152.221 170.37 151.796 170.216 151.395C170.69 151.751 172.054 152.096 172.488 151.408C172.584 151.255 172.55 151.068 172.494 150.906C172.161 149.933 171.253 149.398 170.255 149.084C170.048 149.019 167.444 148.572 167.487 148.436C167.498 149.633 167.652 149.356 167.568 150.953C167.54 151.464 167.772 152.399 168.199 152.936Z" fill="#C10230"/>
<path d="M174.074 156.971C174.179 157.43 174.393 157.831 174.783 158.039C175.3 158.313 175.95 157.992 176.244 157.563C176.497 157.194 176.561 156.754 176.601 156.331C176.874 156.834 177.961 157.665 178.664 157.202C178.82 157.099 178.873 156.915 178.894 156.747C179.026 155.733 178.439 154.901 177.67 154.237C177.511 154.099 175.34 152.706 175.439 152.598C174.913 153.694 175.178 153.499 174.386 154.924C174.133 155.379 173.925 156.32 174.074 156.971Z" fill="#C10230"/>
<path d="M162.607 137.142C162.884 137.535 163.241 137.838 163.686 137.903C164.276 137.988 164.757 137.473 164.864 136.975C164.955 136.547 164.843 136.116 164.714 135.708C165.166 136.087 166.506 136.502 166.981 135.837C167.087 135.69 167.064 135.501 167.018 135.337C166.744 134.348 165.87 133.766 164.893 133.402C164.69 133.326 162.119 132.746 162.169 132.612C162.107 133.809 162.279 133.539 162.097 135.13C162.039 135.638 162.213 136.584 162.607 137.142Z" fill="#C10230"/>
<path d="M171.782 140.856C171.904 141.312 172.133 141.706 172.53 141.901C173.056 142.16 173.695 141.819 173.972 141.381C174.212 141.004 174.26 140.563 174.284 140.138C174.575 140.632 175.692 141.43 176.378 140.945C176.53 140.837 176.576 140.652 176.592 140.483C176.686 139.466 176.069 138.653 175.276 138.013C175.112 137.88 172.891 136.554 172.986 136.443C172.501 137.555 172.759 137.353 172.019 138.801C171.783 139.264 171.61 140.21 171.782 140.856Z" fill="#C10230"/>
<path d="M181.805 129.068C181.764 129.536 181.845 129.977 182.155 130.278C182.566 130.675 183.288 130.537 183.702 130.202C184.059 129.913 184.255 129.509 184.424 129.113C184.53 129.667 185.316 130.748 186.133 130.487C186.315 130.429 186.421 130.266 186.494 130.11C186.933 129.172 186.626 128.221 186.094 127.383C185.984 127.209 184.332 125.306 184.46 125.229C183.618 126.143 183.932 126.026 182.734 127.186C182.351 127.557 181.863 128.405 181.805 129.068Z" fill="#C10230"/>
<path d="M181.62 146.214C181.579 146.682 181.661 147.122 181.97 147.423C182.381 147.821 183.104 147.683 183.517 147.348C183.874 147.059 184.071 146.654 184.239 146.258C184.345 146.812 185.131 147.893 185.949 147.632C186.13 147.574 186.237 147.412 186.31 147.256C186.748 146.317 186.441 145.366 185.909 144.529C185.799 144.355 184.147 142.452 184.275 142.374C183.433 143.288 183.748 143.171 182.55 144.331C182.167 144.702 181.678 145.55 181.62 146.214Z" fill="#C10230"/>
<path d="M240.803 146.386C240.42 146.077 240.144 145.709 240.139 145.294C240.132 144.745 240.754 144.38 241.305 144.354C241.778 144.332 242.226 144.496 242.646 144.671C242.303 144.206 242.048 142.926 242.832 142.588C243.005 142.514 243.205 142.561 243.375 142.626C244.4 143.017 244.9 143.896 245.153 144.838C245.205 145.033 245.462 147.458 245.612 147.431C244.317 147.317 244.631 147.199 242.894 147.138C242.339 147.118 241.346 146.824 240.803 146.386Z" fill="#C10230"/>
<path d="M194.612 156.823C194.513 157.284 194.305 157.688 193.918 157.901C193.406 158.183 192.75 157.872 192.451 157.447C192.192 157.081 192.122 156.643 192.076 156.219C191.811 156.727 190.735 157.574 190.025 157.12C189.868 157.02 189.813 156.837 189.789 156.669C189.643 155.657 190.219 154.817 190.977 154.142C191.135 154.001 193.286 152.577 193.185 152.47C193.727 153.559 193.459 153.368 194.271 154.781C194.53 155.233 194.751 156.17 194.612 156.823Z" fill="#C10230"/>
<path d="M196.674 140.678C196.558 141.136 196.335 141.533 195.941 141.734C195.418 142 194.775 141.668 194.491 141.235C194.246 140.861 194.192 140.421 194.162 139.996C193.878 140.495 192.772 141.308 192.079 140.834C191.926 140.728 191.877 140.544 191.859 140.375C191.75 139.359 192.356 138.537 193.139 137.886C193.302 137.75 195.504 136.393 195.407 136.283C195.908 137.388 195.647 137.189 196.407 138.626C196.65 139.086 196.837 140.03 196.674 140.678Z" fill="#C10230"/>
<path d="M166.354 191.229L166.359 191.229L166.377 191.191C166.371 191.17 166.364 191.15 166.358 191.13C166.356 191.164 166.355 191.196 166.354 191.229Z" fill="#F88D2A"/>
<path d="M166.494 189.172C166.439 189.68 166.404 190.197 166.378 190.683C166.409 190.687 166.437 190.704 166.453 190.732C166.479 190.778 166.507 190.821 166.536 190.865C166.637 190.662 166.743 190.457 166.852 190.251C166.793 189.878 166.7 189.443 166.494 189.172Z" fill="#F88D2A"/>
<path d="M172.598 191.184C172.6 191.125 172.604 191.066 172.608 191.006C172.613 190.915 172.619 190.823 172.622 190.731C172.622 190.723 172.622 190.714 172.623 190.705C172.546 190.848 172.466 191.013 172.383 191.186L172.598 191.184Z" fill="#F88D2A"/>
<path d="M177.796 191.148C177.802 190.329 177.833 189.624 177.891 188.978C177.652 189.784 177.47 190.487 177.33 191.151L177.796 191.148Z" fill="#F88D2A"/>
<path d="M178.65 190.772C178.606 190.896 178.555 191.018 178.502 191.142L178.654 191.141L178.65 190.814C178.65 190.8 178.65 190.786 178.65 190.772Z" fill="#F88D2A"/>
<path d="M175.775 190.696L175.746 190.707L175.746 190.592C175.745 190.566 175.745 190.541 175.745 190.515C175.664 190.689 175.579 190.859 175.496 191.025L175.426 191.164L175.823 191.162L175.823 191.158C175.806 191.003 175.789 190.849 175.775 190.696Z" fill="#F88D2A"/>
<path d="M176.302 191.158L176.65 191.155C176.532 190.739 176.399 190.298 176.241 189.799C176.278 190.209 176.298 190.653 176.302 191.158Z" fill="#F88D2A"/>
<path d="M179.849 189.018C180.11 189.386 180.192 189.967 180.255 190.414C180.274 190.556 180.292 190.685 180.314 190.79C180.332 190.877 180.346 190.966 180.36 191.053L180.372 191.129L181.417 191.122C181.244 190.641 181.042 190.251 180.786 189.903C180.613 189.668 180.234 189.24 179.849 189.018Z" fill="#F88D2A"/>
<path d="M179.799 190.267C179.751 190.392 179.704 190.516 179.656 190.64L179.611 190.757C179.577 190.847 179.543 190.936 179.51 191.026L179.469 191.136L179.773 191.134C179.772 191.131 179.77 191.129 179.769 191.127L179.71 191.04L179.713 191.014C179.738 190.752 179.766 190.504 179.799 190.267Z" fill="#F88D2A"/>
<path d="M162.413 189.589L162.41 189.606C162.415 189.605 162.425 189.606 162.433 189.603L162.413 189.589Z" fill="#F88D2A"/>
<path d="M162.175 190.458C162.144 190.598 162.12 190.709 162.1 190.764C162.055 190.892 162.012 191.03 161.965 191.198L161.948 191.26L162.53 191.256C162.532 191.203 162.535 191.147 162.539 191.088C162.563 190.639 162.596 190.035 162.405 189.664C162.324 189.788 162.221 190.25 162.175 190.458Z" fill="#F88D2A"/>
<path d="M168.473 189.709C168.562 190.131 168.596 190.613 168.582 191.213L169.067 191.21L168.979 190.938C168.84 190.51 168.667 190.091 168.473 189.709Z" fill="#F88D2A"/>
<path d="M170.462 190.918L170.372 190.841C170.24 190.727 170.123 190.64 170.012 190.575L169.97 190.55L169.961 190.485C169.828 189.497 169.61 188.612 169.299 187.793C169.36 188.461 169.287 189.177 169.217 189.873C169.19 190.139 169.164 190.4 169.146 190.65L169.11 191.209L170.821 191.197C170.84 190.417 170.867 189.697 170.903 189.019C170.791 189.539 170.669 190.051 170.55 190.55L170.462 190.918Z" fill="#F88D2A"/>
<path d="M174.536 191.171L175.141 191.166C175.105 190.378 175.084 189.494 175.198 188.628C174.925 189.437 174.707 190.274 174.536 191.171Z" fill="#F88D2A"/>
<path d="M164.997 189.736C164.873 190.017 164.745 190.306 164.67 190.602C164.63 190.765 164.595 190.929 164.561 191.093L164.53 191.242L165.256 191.237C165.252 190.543 165.246 189.849 165.237 189.158C165.167 189.355 165.081 189.548 164.997 189.736Z" fill="#F88D2A"/>
<path d="M163.7 190.693L163.63 191.163L163.533 190.697C163.358 189.853 163.099 189.036 162.821 188.181C162.924 189.266 162.891 190.329 162.839 191.254L164.392 191.243L164.388 191.079C164.362 189.891 164.357 188.629 164.472 187.368C164.086 188.669 163.85 189.688 163.7 190.693Z" fill="#F88D2A"/>
<path d="M183.943 189.858L183.992 190.085L183.789 189.896C183.739 189.849 183.697 189.809 183.649 189.77C183.394 189.558 182.834 189.24 182.298 189.068L182.28 189.061C182.047 188.929 181.779 188.818 181.482 188.73C181.92 189.18 182.113 189.64 182.232 189.997L182.35 190.347L182.075 190.035C181.752 189.667 181.33 189.398 180.915 189.291C180.971 189.344 181.018 189.399 181.058 189.455C181.174 189.626 181.266 189.803 181.333 189.981C181.473 190.31 181.551 190.649 181.626 190.977C181.637 191.025 181.644 191.071 181.653 191.117L181.653 191.12L184.594 191.098C184.294 189.963 183.885 188.718 183.134 187.735C183.504 188.353 183.765 189.043 183.943 189.858Z" fill="#F88D2A"/>
<path d="M199.358 189.794L199.19 189.798C199.058 188.814 198.799 187.944 198.416 187.207C198.472 187.715 198.421 188.259 198.372 188.787L198.333 189.239C198.324 189.367 198.316 189.494 198.312 189.618C198.3 189.99 198.278 190.367 198.256 190.731L198.241 191.001L199.729 190.99C199.599 190.371 199.478 189.763 199.403 189.159C199.389 189.383 199.373 189.599 199.358 189.794Z" fill="#F88D2A"/>
<path d="M197.489 189.836L197.444 189.707C197.188 188.974 196.867 188.296 196.471 187.652C196.791 188.385 197.032 189.178 197.215 190.094L197.223 190.129L197.199 190.157C197.103 190.267 197.01 190.378 196.922 190.491L196.863 190.565L196.793 190.501C196.666 190.384 196.523 190.266 196.378 190.16L196.345 190.136L196.347 190.097C196.367 189.591 196.397 189.125 196.435 188.685C196.318 189.029 196.19 189.367 196.066 189.696L195.988 189.903L195.899 189.853C195.77 189.783 195.649 189.725 195.54 189.684L195.498 189.668L195.489 189.627C195.358 188.994 195.143 188.429 194.834 187.906C194.893 188.334 194.819 188.792 194.747 189.237C194.72 189.407 194.692 189.574 194.674 189.734L194.625 190.199L194.502 189.821C194.362 189.391 194.189 188.972 193.995 188.59C194.136 189.261 194.123 189.979 194.087 190.61L194.063 191.031L197.798 191.004C197.784 190.942 197.771 190.88 197.758 190.819C197.72 190.642 197.681 190.46 197.631 190.289L197.623 190.263L197.634 190.239C197.797 189.879 197.981 189.528 198.18 189.196L198.209 189.147C197.975 189.356 197.771 189.55 197.588 189.736L197.489 189.836Z" fill="#F88D2A"/>
<path d="M199.906 190.989L200.714 190.984L200.699 190.679C200.645 189.63 200.589 188.551 200.728 187.511C200.359 188.601 200.089 189.744 199.906 190.989Z" fill="#F88D2A"/>
<path d="M192.067 189.914L192.028 189.927C192.029 189.929 192.03 189.932 192.031 189.934L192.067 189.914Z" fill="#F88D2A"/>
<path d="M193.115 188.878C192.943 188.645 192.562 188.215 192.177 187.993C192.391 188.291 192.484 188.729 192.546 189.134L192.549 189.157L192.544 189.167L192.622 189.652C192.628 189.692 192.636 189.731 192.643 189.766C192.728 190.179 192.79 190.59 192.834 190.902L192.854 191.039L194.027 191.031L193.92 190.623C193.742 189.944 193.478 189.373 193.115 188.878Z" fill="#F88D2A"/>
<path d="M187.947 189.515C187.898 189.85 187.821 190.181 187.746 190.504C187.701 190.695 187.657 190.885 187.618 191.077L188.152 191.074L188.148 191.045C188.069 190.531 187.995 190.025 187.947 189.515Z" fill="#F88D2A"/>
<path d="M192.41 190.534L192.395 190.513L192.407 190.311C192.421 190.096 192.435 189.874 192.458 189.656L192.5 189.257C192.38 189.488 192.262 189.717 192.149 189.944L192.083 190.077L192.076 190.066L192.082 190.084L192.003 190.245C191.951 190.35 191.899 190.455 191.851 190.56L191.671 190.952L191.689 190.527C191.729 189.578 191.77 188.723 191.873 187.861L191.89 187.71L191.891 187.711C191.899 187.651 191.907 187.592 191.915 187.535C191.858 187.683 191.801 187.83 191.745 187.977C191.461 188.713 191.167 189.473 190.948 190.236L190.786 190.805L190.782 190.217C190.778 189.491 190.771 188.764 190.762 188.04C190.691 188.237 190.606 188.43 190.522 188.618C190.398 188.899 190.269 189.189 190.195 189.484C190.155 189.646 190.12 189.811 190.086 189.975L189.935 190.707L189.919 189.962C189.893 188.774 189.887 187.512 190.003 186.251C189.617 187.552 189.381 188.57 189.23 189.576L189.16 190.045L189.064 189.58C188.889 188.734 188.63 187.919 188.352 187.064C188.481 188.43 188.401 189.821 188.313 191.038L188.311 191.072L192.732 191.04L192.679 190.948C192.597 190.803 192.501 190.664 192.41 190.534Z" fill="#F88D2A"/>
<path d="M205.171 190.952L205.951 190.946C206.2 190.262 206.494 189.638 206.826 189.089C206.083 189.754 205.562 190.341 205.171 190.952Z" fill="#F88D2A"/>
<path d="M173.838 190.912L173.669 190.916C173.538 189.931 173.278 189.061 172.895 188.324C172.951 188.831 172.901 189.373 172.852 189.901L172.813 190.357C172.803 190.485 172.794 190.612 172.791 190.736C172.788 190.829 172.782 190.922 172.777 191.015C172.773 191.071 172.77 191.127 172.767 191.183L172.768 191.183L174.028 191.174C173.976 190.894 173.924 190.586 173.883 190.268C173.869 190.496 173.853 190.714 173.838 190.912Z" fill="#F88D2A"/>
<path d="M171.964 190.82L171.919 190.619C171.659 189.472 171.336 188.411 170.937 187.403C171.258 188.542 171.501 189.773 171.687 191.191L172.197 191.187C172.241 191.036 172.283 190.91 172.326 190.775C172.359 190.673 172.393 190.559 172.424 190.464C172.501 190.233 172.577 190.021 172.652 189.823L172.682 189.745C172.449 190.07 172.245 190.373 172.062 190.664L171.964 190.82Z" fill="#F88D2A"/>
<path d="M166.651 189.111C166.662 189.125 166.669 189.144 166.679 189.159C166.698 189.189 166.714 189.222 166.732 189.254C166.767 189.319 166.799 189.386 166.827 189.459C166.841 189.496 166.855 189.532 166.867 189.57C166.893 189.649 166.915 189.729 166.934 189.811C166.942 189.845 166.952 189.877 166.959 189.911C166.983 190.025 167.004 190.139 167.021 190.252L167.025 190.276L167.019 190.287L167.097 190.77C167.104 190.81 167.111 190.849 167.118 190.884C167.135 190.968 167.148 191.053 167.162 191.138C167.166 191.166 167.171 191.195 167.175 191.224L168.231 191.216C168.066 190.757 167.856 190.357 167.59 189.997C167.418 189.764 167.038 189.333 166.651 189.111Z" fill="#F88D2A"/>
<path d="M166.383 188.652C166.328 188.795 166.273 188.938 166.218 189.08C165.947 189.783 165.667 190.508 165.451 191.235L166.177 191.23C166.186 191.037 166.199 190.824 166.21 190.619C166.218 190.463 166.224 190.318 166.235 190.158C166.261 189.769 166.294 189.371 166.341 188.979L166.358 188.828L166.36 188.829C166.367 188.769 166.375 188.71 166.383 188.652Z" fill="#F88D2A"/>
<path d="M166.554 191.195L166.545 191.182L166.545 191.182L166.551 191.203L166.539 191.228L166.893 191.226L166.895 191.199C166.904 191.057 166.913 190.915 166.928 190.774L166.97 190.378L166.97 190.376C166.849 190.606 166.732 190.836 166.619 191.063L166.554 191.195Z" fill="#F88D2A"/>
<path d="M205.171 189.553L205.138 189.639C204.959 190.1 204.802 190.532 204.655 190.955L205.163 190.952L205.168 190.88C205.177 190.697 205.187 190.514 205.202 190.332L205.242 189.815L205.246 189.832C205.27 189.593 205.297 189.366 205.327 189.148C205.276 189.283 205.223 189.418 205.171 189.553Z" fill="#F88D2A"/>
<path d="M186.487 189.919L186.417 190.244L186.32 189.923C186.191 189.492 186.069 189.067 185.994 188.646C185.98 188.801 185.964 188.95 185.948 189.085L185.78 189.088C185.651 188.409 185.393 187.81 185.013 187.303C185.068 187.652 185.015 188.027 184.965 188.391C184.937 188.592 184.911 188.782 184.902 188.965C184.896 189.088 184.89 189.24 184.884 189.407C184.861 189.943 184.831 190.668 184.786 191.097L187.336 191.079L187.337 190.967C187.346 190.547 187.315 190.11 187.284 189.687C187.232 188.966 187.179 188.223 187.319 187.507C186.947 188.264 186.674 189.056 186.487 189.919Z" fill="#F88D2A"/>
<path d="M201.825 190.976L202.43 190.971C202.258 190.203 202.023 189.456 201.771 188.677C201.837 189.362 201.854 190.107 201.825 190.976Z" fill="#F88D2A"/>
<path d="M203.946 190.232C203.84 190.47 203.732 190.714 203.657 190.963L204.196 190.959L204.195 190.831C204.192 190.438 204.189 190.045 204.184 189.654C204.114 189.85 204.029 190.043 203.946 190.232Z" fill="#F88D2A"/>
<path d="M203.328 190.965C203.315 190.033 203.32 188.963 203.42 187.861C203.069 189.05 202.837 190.031 202.685 190.97L203.328 190.965Z" fill="#F88D2A"/>
<path d="M181.7 156.049C181.659 156.517 181.741 156.958 182.051 157.258C182.461 157.656 183.184 157.518 183.597 157.183C183.954 156.894 184.151 156.49 184.319 156.094C184.426 156.648 185.212 157.729 186.029 157.468C186.21 157.41 186.317 157.247 186.39 157.091C186.828 156.153 186.521 155.202 185.989 154.364C185.879 154.19 184.227 152.287 184.356 152.21C183.514 153.124 183.828 153.007 182.63 154.167C182.247 154.538 181.758 155.386 181.7 156.049Z" fill="#F88D2A"/>
<path d="M163.653 158.389C164.063 158.671 164.513 158.843 164.956 158.763C165.544 158.657 165.804 158.022 165.717 157.521C165.642 157.089 165.374 156.719 165.099 156.376C165.667 156.59 167.086 156.558 167.283 155.783C167.327 155.611 167.234 155.441 167.129 155.301C166.499 154.458 165.457 154.187 164.399 154.152C164.18 154.145 161.538 154.411 161.536 154.269C161.928 155.413 161.988 155.106 162.415 156.658C162.552 157.154 163.072 157.988 163.653 158.389Z" fill="#F88D2A"/>
<path d="M156.743 145.669C157.171 145.923 157.631 146.066 158.066 145.957C158.642 145.814 158.854 145.163 158.73 144.669C158.624 144.244 158.33 143.893 158.031 143.568C158.612 143.745 160.02 143.621 160.159 142.835C160.19 142.661 160.085 142.498 159.971 142.365C159.282 141.565 158.226 141.363 157.172 141.397C156.953 141.404 154.347 141.841 154.334 141.7C154.808 142.814 154.845 142.504 155.385 144.024C155.557 144.51 156.136 145.308 156.743 145.669Z" fill="#F88D2A"/>
<path d="M164.728 144.899C165.006 145.292 165.363 145.596 165.808 145.66C166.397 145.745 166.879 145.23 166.985 144.733C167.077 144.304 166.965 143.873 166.836 143.465C167.287 143.844 168.628 144.259 169.103 143.594C169.208 143.446 169.185 143.258 169.14 143.094C168.866 142.104 167.992 141.524 167.015 141.159C166.812 141.083 164.24 140.503 164.291 140.369C164.229 141.565 164.4 141.296 164.218 142.887C164.16 143.396 164.335 144.341 164.728 144.899Z" fill="#F88D2A"/>
<path d="M174.226 149.225C174.347 149.68 174.576 150.075 174.973 150.27C175.499 150.528 176.138 150.187 176.416 149.749C176.655 149.372 176.703 148.932 176.728 148.507C177.019 149.001 178.136 149.799 178.822 149.314C178.974 149.206 179.019 149.021 179.035 148.852C179.13 147.835 178.512 147.022 177.72 146.381C177.555 146.248 175.335 144.923 175.43 144.812C174.945 145.924 175.202 145.721 174.463 147.169C174.227 147.632 174.053 148.579 174.226 149.225Z" fill="#F88D2A"/>
<path d="M181.598 137.047C181.557 137.514 181.639 137.955 181.949 138.256C182.359 138.654 183.082 138.515 183.496 138.18C183.852 137.892 184.049 137.487 184.217 137.091C184.324 137.645 185.11 138.726 185.927 138.465C186.108 138.407 186.215 138.244 186.288 138.089C186.726 137.15 186.419 136.199 185.888 135.362C185.777 135.188 184.125 133.285 184.254 133.207C183.412 134.121 183.726 134.004 182.528 135.164C182.145 135.535 181.656 136.383 181.598 137.047Z" fill="#F88D2A"/>
<path d="M171.183 131.586C171.305 132.041 171.534 132.436 171.931 132.631C172.457 132.889 173.096 132.548 173.373 132.111C173.613 131.734 173.661 131.293 173.685 130.868C173.976 131.362 175.093 132.16 175.779 131.675C175.931 131.567 175.977 131.382 175.993 131.213C176.087 130.196 175.47 129.383 174.678 128.743C174.513 128.609 172.292 127.284 172.388 127.173C171.902 128.285 172.16 128.082 171.42 129.531C171.184 129.994 171.011 130.94 171.183 131.586Z" fill="#F88D2A"/>
<path d="M226.906 148.76C226.975 148.295 227.158 147.88 227.53 147.647C228.024 147.338 228.698 147.614 229.024 148.021C229.305 148.373 229.404 148.806 229.476 149.226C229.708 148.706 230.728 147.802 231.466 148.217C231.63 148.309 231.696 148.488 231.731 148.655C231.941 149.657 231.419 150.527 230.705 151.241C230.556 151.39 228.499 152.928 228.607 153.028C227.997 151.971 228.277 152.147 227.376 150.78C227.089 150.343 226.808 149.419 226.906 148.76Z" fill="#F88D2A"/>
<path d="M262.426 141.109C262.748 140.745 263.139 140.479 263.59 140.459C264.186 140.432 264.603 140.992 264.65 141.496C264.69 141.931 264.527 142.349 264.35 142.742C264.845 142.41 266.226 142.129 266.62 142.836C266.707 142.994 266.661 143.179 266.597 143.338C266.207 144.294 265.269 144.785 264.254 145.052C264.043 145.108 261.418 145.432 261.452 145.569C261.533 144.374 261.671 144.658 261.68 143.059C261.683 142.548 261.968 141.625 262.426 141.109Z" fill="#F88D2A"/>
<path d="M194.35 149.081C194.235 149.538 194.012 149.936 193.617 150.137C193.095 150.403 192.451 150.071 192.167 149.637C191.923 149.263 191.868 148.824 191.838 148.399C191.554 148.898 190.449 149.711 189.756 149.236C189.602 149.131 189.554 148.946 189.535 148.778C189.427 147.762 190.033 146.94 190.815 146.288C190.978 146.153 193.18 144.796 193.083 144.686C193.584 145.791 193.324 145.592 194.084 147.029C194.326 147.489 194.513 148.433 194.35 149.081Z" fill="#F88D2A"/>
<path d="M205.049 158.092C204.643 158.38 204.195 158.559 203.751 158.485C203.162 158.388 202.893 157.756 202.973 157.254C203.042 156.821 203.305 156.448 203.575 156.101C203.01 156.323 201.591 156.311 201.382 155.539C201.336 155.368 201.426 155.197 201.529 155.055C202.147 154.203 203.186 153.917 204.243 153.867C204.462 153.856 207.107 154.084 207.108 153.942C206.732 155.091 206.667 154.786 206.262 156.344C206.132 156.842 205.624 157.683 205.049 158.092Z" fill="#F88D2A"/>
<path d="M214.947 135.111C215.259 134.74 215.643 134.464 216.092 134.434C216.687 134.393 217.12 134.943 217.181 135.446C217.233 135.88 217.082 136.301 216.916 136.698C217.401 136.354 218.774 136.04 219.187 136.739C219.278 136.894 219.238 137.08 219.178 137.24C218.815 138.206 217.891 138.719 216.883 139.01C216.674 139.07 214.058 139.455 214.096 139.592C214.144 138.396 214.29 138.677 214.255 137.078C214.243 136.567 214.503 135.637 214.947 135.111Z" fill="#F88D2A"/>
<path d="M203.776 144.62C203.504 145.017 203.152 145.326 202.708 145.396C202.119 145.49 201.63 144.982 201.517 144.486C201.42 144.059 201.525 143.627 201.648 143.217C201.203 143.602 199.868 144.037 199.384 143.378C199.276 143.232 199.296 143.044 199.34 142.879C199.599 141.886 200.465 141.292 201.436 140.913C201.638 140.835 204.202 140.217 204.149 140.085C204.228 141.279 204.053 141.013 204.257 142.601C204.322 143.109 204.162 144.057 203.776 144.62Z" fill="#F88D2A"/>
<path d="M197.135 131.401C197.02 131.858 196.797 132.256 196.402 132.457C195.88 132.723 195.236 132.391 194.952 131.957C194.708 131.584 194.653 131.144 194.623 130.719C194.339 131.218 193.234 132.031 192.541 131.556C192.387 131.451 192.339 131.266 192.321 131.097C192.212 130.082 192.818 129.26 193.601 128.608C193.763 128.473 195.965 127.116 195.868 127.006C196.369 128.111 196.109 127.912 196.869 129.349C197.112 129.809 197.298 130.753 197.135 131.401Z" fill="#F88D2A"/>
<path d="M198.604 190.999L198.599 190.999L198.581 190.98C198.587 190.969 198.593 190.957 198.599 190.947C198.6 190.964 198.602 190.982 198.604 190.999Z" fill="#F88D2A"/>
<path d="M198.44 189.839C198.501 190.125 198.541 190.416 198.572 190.69C198.541 190.693 198.514 190.703 198.498 190.719C198.472 190.745 198.445 190.77 198.417 190.795C198.313 190.681 198.205 190.567 198.094 190.452C198.148 190.241 198.237 189.995 198.44 189.839Z" fill="#F88D2A"/>
<path d="M192.359 191.043C192.355 191.01 192.351 190.976 192.347 190.943C192.34 190.891 192.334 190.84 192.33 190.788C192.33 190.783 192.329 190.778 192.329 190.773C192.407 190.853 192.489 190.945 192.573 191.042L192.359 191.043Z" fill="#F88D2A"/>
<path d="M187.159 191.08C187.143 190.618 187.105 190.221 187.039 189.858C187.287 190.31 187.477 190.704 187.625 191.077L187.159 191.08Z" fill="#F88D2A"/>
<path d="M186.301 190.878C186.347 190.947 186.399 191.016 186.453 191.085L186.302 191.086L186.301 190.902C186.301 190.894 186.301 190.886 186.301 190.878Z" fill="#F88D2A"/>
<path d="M189.177 190.804L189.206 190.81L189.206 190.744C189.205 190.73 189.205 190.716 189.205 190.701C189.288 190.798 189.375 190.893 189.46 190.986L189.532 191.064L189.134 191.067L189.135 191.065C189.15 190.977 189.164 190.89 189.177 190.804Z" fill="#F88D2A"/>
<path d="M188.652 191.07L188.305 191.072C188.418 190.836 188.546 190.585 188.698 190.302C188.665 190.534 188.65 190.785 188.652 191.07Z" fill="#F88D2A"/>
<path d="M185.076 189.901C184.819 190.112 184.744 190.441 184.686 190.694C184.668 190.774 184.652 190.847 184.631 190.907C184.614 190.956 184.601 191.006 184.588 191.056L184.576 191.099L183.532 191.106C183.7 190.833 183.897 190.611 184.149 190.411C184.319 190.277 184.693 190.031 185.076 189.901Z" fill="#F88D2A"/>
<path d="M185.144 190.607C185.193 190.676 185.243 190.746 185.292 190.816L185.338 190.881C185.373 190.931 185.408 190.981 185.442 191.031L185.484 191.093L185.18 191.095C185.181 191.094 185.183 191.092 185.185 191.091L185.242 191.042L185.239 191.027C185.211 190.88 185.18 190.74 185.144 190.607Z" fill="#F88D2A"/>
<path d="M202.527 190.03L202.531 190.039C202.526 190.039 202.515 190.039 202.507 190.038L202.527 190.03Z" fill="#F88D2A"/>
<path d="M202.772 190.517C202.804 190.596 202.83 190.658 202.85 190.689C202.896 190.761 202.941 190.838 202.99 190.932L203.008 190.967L202.426 190.971C202.422 190.941 202.419 190.91 202.415 190.877C202.386 190.623 202.347 190.284 202.533 190.072C202.615 190.141 202.723 190.401 202.772 190.517Z" fill="#F88D2A"/>
<path d="M196.467 190.165C196.383 190.404 196.354 190.676 196.375 191.015L195.89 191.018L195.975 190.864C196.109 190.621 196.277 190.383 196.467 190.165Z" fill="#F88D2A"/>
<path d="M194.487 190.926L194.576 190.898C194.707 190.856 194.823 190.823 194.933 190.799L194.976 190.789L194.984 190.765C195.107 190.408 195.316 190.086 195.62 189.788C195.565 190.029 195.645 190.287 195.722 190.537C195.751 190.633 195.78 190.727 195.8 190.817L195.841 191.019L194.131 191.031C194.104 190.75 194.071 190.49 194.028 190.246C194.145 190.433 194.272 190.616 194.396 190.795L194.487 190.926Z" fill="#F88D2A"/>
<path d="M190.418 191.057L189.814 191.062C189.841 190.617 189.853 190.118 189.729 189.63C190.011 190.084 190.237 190.554 190.418 191.057Z" fill="#F88D2A"/>
<path d="M199.945 190.142C200.072 190.299 200.204 190.461 200.282 190.627C200.324 190.718 200.361 190.81 200.397 190.902L200.429 190.986L199.702 190.991C199.698 190.6 199.697 190.209 199.699 189.819C199.771 189.929 199.859 190.037 199.945 190.142Z" fill="#F88D2A"/>
<path d="M201.246 190.667L201.322 190.931L201.413 190.668C201.578 190.189 201.829 189.726 202.097 189.241C202.006 189.854 202.051 190.453 202.113 190.974L200.56 190.985L200.562 190.893C200.574 190.223 200.566 189.511 200.437 188.801C200.838 189.531 201.084 190.102 201.246 190.667Z" fill="#F88D2A"/>
<path d="M180.993 190.106L180.946 190.293L181.147 190.135C181.196 190.097 181.239 190.063 181.286 190.03C181.538 189.854 182.093 189.586 182.627 189.439L182.645 189.432C182.877 189.321 183.143 189.227 183.439 189.151C183.007 189.524 182.82 189.904 182.705 190.198L182.592 190.485L182.862 190.227C183.181 189.921 183.6 189.695 184.012 189.603C183.958 189.647 183.911 189.693 183.872 189.739C183.759 189.88 183.669 190.026 183.604 190.173C183.468 190.444 183.394 190.722 183.324 190.991C183.314 191.03 183.307 191.068 183.299 191.106L183.299 191.108L180.357 191.129C180.643 190.196 181.036 189.173 181.774 188.359C181.413 188.869 181.16 189.437 180.993 190.106Z" fill="#F88D2A"/>
<path d="M165.579 190.558L165.747 190.559C165.868 190.002 166.117 189.508 166.492 189.089C166.442 189.376 166.498 189.682 166.553 189.979L166.597 190.234C166.608 190.306 166.618 190.378 166.623 190.447C166.639 190.656 166.665 190.869 166.691 191.074L166.709 191.226L165.221 191.237C165.344 190.886 165.458 190.542 165.527 190.2C165.543 190.327 165.562 190.449 165.579 190.558Z" fill="#F88D2A"/>
<path d="M167.457 190.561L167.501 190.488C167.749 190.072 168.062 189.686 168.451 189.318C168.139 189.735 167.907 190.185 167.734 190.704L167.727 190.723L167.752 190.739C167.849 190.799 167.943 190.861 168.032 190.924L168.091 190.965L168.161 190.928C168.286 190.861 168.428 190.793 168.572 190.731L168.605 190.717L168.603 190.695C168.576 190.41 168.542 190.148 168.499 189.9C168.62 190.092 168.751 190.282 168.879 190.466L168.959 190.582L169.047 190.553C169.176 190.511 169.296 190.478 169.405 190.453L169.447 190.444L169.455 190.42C169.579 190.062 169.788 189.741 170.091 189.442C170.037 189.684 170.116 189.942 170.193 190.193C170.222 190.288 170.251 190.382 170.271 190.471L170.325 190.733L170.444 190.519C170.579 190.275 170.747 190.036 170.938 189.819C170.804 190.199 170.825 190.603 170.868 190.959L170.897 191.196L167.162 191.223C167.175 191.188 167.187 191.153 167.2 191.118C167.236 191.018 167.272 190.915 167.321 190.818L167.328 190.804L167.317 190.79C167.15 190.589 166.963 190.393 166.76 190.208L166.73 190.18C166.967 190.296 167.173 190.403 167.358 190.505L167.457 190.561Z" fill="#F88D2A"/>
<path d="M165.046 191.238L164.238 191.244L164.25 191.072C164.292 190.48 164.336 189.871 164.186 189.285C164.566 189.896 164.849 190.538 165.046 191.238Z" fill="#F88D2A"/>
<path d="M172.873 190.544L172.912 190.551C172.911 190.552 172.91 190.554 172.909 190.555L172.873 190.544Z" fill="#F88D2A"/>
<path d="M171.813 189.972C171.982 189.839 172.358 189.592 172.741 189.462C172.531 189.633 172.443 189.881 172.385 190.11L172.382 190.123L172.387 190.128L172.315 190.403C172.308 190.426 172.302 190.447 172.295 190.467C172.215 190.702 172.157 190.934 172.116 191.111L172.098 191.188L170.926 191.197L171.027 190.966C171.199 190.58 171.455 190.256 171.813 189.972Z" fill="#F88D2A"/>
<path d="M176.998 190.273C177.05 190.462 177.131 190.648 177.21 190.829C177.257 190.935 177.303 191.043 177.344 191.151L176.81 191.155L176.814 191.138C176.887 190.848 176.956 190.562 176.998 190.273Z" fill="#F88D2A"/>
<path d="M172.545 190.898L172.56 190.886L172.545 190.772C172.529 190.651 172.513 190.526 172.487 190.403L172.441 190.179C172.564 190.308 172.684 190.436 172.799 190.562L172.867 190.636L172.874 190.63L172.868 190.641L172.949 190.73C173.002 190.789 173.055 190.848 173.104 190.906L173.289 191.126L173.266 190.886C173.216 190.351 173.165 189.869 173.053 189.385L173.033 189.3L173.033 189.3C173.024 189.266 173.015 189.234 173.007 189.201C173.065 189.284 173.124 189.366 173.182 189.449C173.474 189.86 173.776 190.285 174.003 190.714L174.172 191.032L174.169 190.701C174.165 190.291 174.164 189.881 174.166 189.473C174.238 189.583 174.326 189.691 174.411 189.796C174.539 189.953 174.671 190.115 174.748 190.281C174.79 190.372 174.827 190.464 174.862 190.556L175.022 190.967L175.03 190.547C175.042 189.877 175.034 189.165 174.905 188.455C175.305 189.185 175.552 189.756 175.714 190.321L175.789 190.585L175.88 190.322C176.046 189.844 176.296 189.38 176.564 188.895C176.45 189.667 176.545 190.45 176.647 191.136L176.65 191.155L172.229 191.187L172.281 191.135C172.362 191.052 172.456 190.972 172.545 190.898Z" fill="#F88D2A"/>
<path d="M191.121 190.903L191.289 190.903C191.41 190.346 191.659 189.853 192.033 189.433C191.983 189.719 192.039 190.024 192.094 190.321L192.138 190.578C192.15 190.65 192.159 190.722 192.164 190.791C192.169 190.844 192.175 190.897 192.182 190.949C192.186 190.981 192.19 191.012 192.193 191.044L192.193 191.044L190.934 191.053C190.982 190.895 191.031 190.72 191.068 190.541C191.085 190.668 191.104 190.792 191.121 190.903Z" fill="#F88D2A"/>
<path d="M192.989 190.906L193.033 190.833C193.281 190.416 193.594 190.03 193.982 189.663C193.673 190.077 193.442 190.524 193.269 191.037L192.76 191.041C192.714 190.987 192.671 190.942 192.627 190.893C192.593 190.857 192.558 190.816 192.526 190.782C192.447 190.7 192.369 190.624 192.292 190.553L192.261 190.525C192.497 190.64 192.704 190.747 192.89 190.85L192.989 190.906Z" fill="#F88D2A"/>
<path d="M198.281 189.807C198.271 189.815 198.264 189.826 198.254 189.835C198.235 189.851 198.219 189.87 198.202 189.888C198.167 189.925 198.136 189.964 198.109 190.005C198.095 190.026 198.082 190.046 198.07 190.068C198.045 190.113 198.024 190.158 198.005 190.205C197.998 190.224 197.989 190.242 197.982 190.261C197.959 190.326 197.94 190.391 197.924 190.455L197.92 190.468L197.926 190.474L197.854 190.748C197.847 190.77 197.841 190.792 197.834 190.812C197.817 190.86 197.805 190.908 197.793 190.956C197.789 190.972 197.785 190.988 197.78 191.004L196.725 191.012C196.885 190.751 197.091 190.524 197.352 190.317C197.521 190.184 197.897 189.937 198.281 189.807Z" fill="#F88D2A"/>
<path d="M198.539 189.546C198.594 189.626 198.651 189.706 198.707 189.785C198.986 190.179 199.274 190.584 199.498 190.992L198.773 190.998C198.762 190.889 198.746 190.769 198.733 190.653C198.723 190.566 198.715 190.484 198.703 190.394C198.673 190.174 198.635 189.95 198.584 189.73L198.565 189.645L198.563 189.645C198.555 189.612 198.547 189.579 198.539 189.546Z" fill="#F88D2A"/>
<path d="M198.4 190.981L198.408 190.974L198.408 190.974L198.403 190.985L198.415 191L198.061 191.002L198.059 190.987C198.049 190.907 198.038 190.827 198.021 190.748L197.975 190.525L197.974 190.524C198.098 190.653 198.218 190.781 198.333 190.907L198.4 190.981Z" fill="#F88D2A"/>
<path d="M160.112 190.485L160.146 190.533C160.33 190.791 160.493 191.033 160.644 191.27L160.135 191.274L160.13 191.233C160.119 191.13 160.106 191.027 160.09 190.925L160.043 190.634L160.04 190.643C160.013 190.509 159.984 190.381 159.952 190.259C160.005 190.335 160.058 190.41 160.112 190.485Z" fill="#F88D2A"/>
<path d="M178.454 190.189L178.529 190.455L178.621 190.19C178.744 189.836 178.861 189.487 178.93 189.142C178.947 189.268 178.965 189.389 178.982 189.5L179.15 189.5C179.271 188.943 179.521 188.45 179.895 188.03C179.844 188.317 179.901 188.623 179.956 188.92C179.987 189.084 180.015 189.239 180.026 189.388C180.034 189.489 180.042 189.612 180.051 189.75C180.08 190.187 180.12 190.78 180.17 191.131L177.621 191.149L177.618 191.057C177.603 190.715 177.629 190.357 177.654 190.01C177.697 189.42 177.74 188.811 177.591 188.227C177.973 188.842 178.257 189.486 178.454 190.189Z" fill="#F88D2A"/>
<path d="M163.136 191.252L162.531 191.257C162.695 190.822 162.921 190.397 163.164 189.956C163.106 190.343 163.097 190.763 163.136 191.252Z" fill="#F88D2A"/>
<path d="M161.004 190.857C161.112 190.989 161.222 191.126 161.301 191.266L160.762 191.269L160.762 191.197C160.761 190.976 160.76 190.754 160.76 190.533C160.832 190.643 160.919 190.751 161.004 190.857Z" fill="#F88D2A"/>
<path d="M161.63 191.263C161.632 190.737 161.615 190.133 161.503 189.513C161.867 190.18 162.11 190.73 162.272 191.259L161.63 191.263Z" fill="#F88D2A"/>
<path d="M130.607 213.24C127.217 213.694 124.818 214.413 123.409 215.394C122.359 216.139 121.839 217.188 121.849 218.54C121.856 219.487 122.134 220.226 122.686 220.756C123.238 221.287 123.954 221.55 124.836 221.543C126.412 221.532 127.774 220.972 128.921 219.864C130.069 218.756 130.637 217.371 130.625 215.711L130.607 213.24ZM137.231 220.477L137.96 221.505C136.991 222.434 135.912 222.903 134.724 222.911C133.815 222.918 133.049 222.695 132.425 222.245C131.8 221.795 131.25 221 130.775 219.86C129.514 221.098 128.405 221.927 127.446 222.345C126.488 222.764 125.333 222.978 123.984 222.988C122.061 223.002 120.596 222.631 119.588 221.876C118.581 221.121 118.073 220.147 118.064 218.955C118.052 217.16 119.187 215.661 121.469 214.458C123.751 213.255 126.795 212.443 130.598 212.023L130.58 209.404C130.573 208.47 130.16 207.673 129.341 207.015C128.521 206.357 127.483 206.033 126.228 206.042C125.066 206.05 124.066 206.278 123.227 206.727C122.628 207.063 122.33 207.391 122.332 207.711C122.333 207.895 122.496 208.183 122.82 208.574C123.21 209.063 123.407 209.498 123.41 209.88C123.414 210.433 123.223 210.886 122.839 211.239C122.453 211.592 121.947 211.771 121.32 211.776C120.651 211.781 120.093 211.575 119.642 211.16C119.192 210.746 118.964 210.212 118.96 209.561C118.951 208.344 119.687 207.226 121.169 206.207C122.652 205.188 124.601 204.67 127.019 204.653C129.25 204.637 130.956 205.067 132.138 205.944C133.319 206.833 133.915 207.917 133.924 209.196L133.992 218.638C133.998 219.474 134.149 220.087 134.446 220.479C134.743 220.883 135.125 221.082 135.592 221.079C136.113 221.075 136.659 220.875 137.231 220.477Z" fill="#535050"/>
<path d="M130.607 213.24C127.217 213.694 124.818 214.413 123.409 215.394C122.359 216.139 121.839 217.188 121.849 218.54C121.856 219.487 122.134 220.226 122.686 220.756C123.238 221.287 123.954 221.55 124.836 221.543C126.412 221.532 127.774 220.972 128.921 219.864C130.069 218.756 130.637 217.371 130.625 215.711L130.607 213.24ZM137.231 220.477L137.96 221.505C136.991 222.434 135.912 222.903 134.724 222.911C133.815 222.918 133.049 222.695 132.425 222.245C131.8 221.795 131.25 221 130.775 219.86C129.514 221.098 128.405 221.927 127.446 222.345C126.488 222.764 125.333 222.978 123.984 222.988C122.061 223.002 120.596 222.631 119.588 221.876C118.581 221.121 118.073 220.147 118.064 218.955C118.052 217.16 119.187 215.661 121.469 214.458C123.751 213.255 126.795 212.443 130.598 212.023L130.58 209.404C130.573 208.47 130.16 207.673 129.341 207.015C128.521 206.357 127.483 206.033 126.228 206.042C125.066 206.05 124.066 206.278 123.227 206.727C122.628 207.063 122.33 207.391 122.332 207.711C122.333 207.895 122.496 208.183 122.82 208.574C123.21 209.063 123.407 209.498 123.41 209.88C123.414 210.433 123.223 210.886 122.839 211.239C122.453 211.592 121.947 211.771 121.32 211.776C120.651 211.781 120.093 211.575 119.642 211.16C119.192 210.746 118.964 210.212 118.96 209.561C118.951 208.344 119.687 207.226 121.169 206.207C122.652 205.188 124.601 204.67 127.019 204.653C129.25 204.637 130.956 205.067 132.138 205.944C133.319 206.833 133.915 207.917 133.924 209.196L133.992 218.638C133.998 219.474 134.149 220.087 134.446 220.479C134.743 220.883 135.125 221.082 135.592 221.079C136.113 221.075 136.659 220.875 137.231 220.477Z" fill="#535050"/>
<path d="M152.078 217.143L153.382 217.484C152.366 221.021 150.08 222.801 146.527 222.827C143.923 222.845 141.787 222.067 140.119 220.493C138.451 218.919 137.608 216.817 137.589 214.186C137.567 211.137 138.459 208.766 140.263 207.075C142.068 205.384 144.199 204.53 146.657 204.512C148.502 204.499 150.028 204.956 151.235 205.881C152.445 206.807 153.053 207.842 153.061 208.985C153.066 209.674 152.846 210.244 152.401 210.696C151.958 211.148 151.428 211.376 150.815 211.38C150.213 211.384 149.704 211.198 149.288 210.821C148.87 210.445 148.66 209.986 148.656 209.447C148.652 208.908 148.876 208.392 149.326 207.898C149.537 207.664 149.643 207.479 149.642 207.345C149.64 206.989 149.377 206.645 148.853 206.311C148.33 205.978 147.621 205.815 146.727 205.821C145.097 205.833 143.865 206.388 143.032 207.487C141.841 209.08 141.255 211.171 141.273 213.763C141.291 216.231 141.838 218.097 142.916 219.36C143.994 220.623 145.361 221.249 147.017 221.237C149.301 221.221 150.988 219.857 152.078 217.143Z" fill="#535050"/>
<path d="M152.078 217.143L153.382 217.484C152.366 221.021 150.08 222.801 146.527 222.827C143.923 222.845 141.787 222.067 140.119 220.493C138.451 218.919 137.608 216.817 137.589 214.186C137.567 211.137 138.459 208.766 140.263 207.075C142.068 205.384 144.199 204.53 146.657 204.512C148.502 204.499 150.028 204.956 151.235 205.881C152.445 206.807 153.053 207.842 153.061 208.985C153.066 209.674 152.846 210.244 152.401 210.696C151.958 211.148 151.428 211.376 150.815 211.38C150.213 211.384 149.704 211.198 149.288 210.821C148.87 210.445 148.66 209.986 148.656 209.447C148.652 208.908 148.876 208.392 149.326 207.898C149.537 207.664 149.643 207.479 149.642 207.345C149.64 206.989 149.377 206.645 148.853 206.311C148.33 205.978 147.621 205.815 146.727 205.821C145.097 205.833 143.865 206.388 143.032 207.487C141.841 209.08 141.255 211.171 141.273 213.763C141.291 216.231 141.838 218.097 142.916 219.36C143.994 220.623 145.361 221.249 147.017 221.237C149.301 221.221 150.988 219.857 152.078 217.143Z" fill="#535050"/>
<path d="M158.297 197.901L159.639 197.891L159.689 204.936L165.76 204.893L165.773 206.589L159.701 206.633L159.78 217.716C159.787 218.675 160.039 219.408 160.537 219.914C161.035 220.421 161.665 220.672 162.426 220.667C163.334 220.66 164.107 220.267 164.742 219.488C165.378 218.709 165.743 217.427 165.837 215.644L167.179 215.635C167.116 217.934 166.56 219.644 165.513 220.765C164.465 221.885 163.1 222.451 161.418 222.463C159.868 222.474 158.653 222.093 157.773 221.318C156.892 220.544 156.447 219.523 156.438 218.257L156.355 206.657L153.089 206.68L153.08 205.389C154.567 205.145 155.696 204.565 156.466 203.649C157.61 202.277 158.219 200.36 158.297 197.901Z" fill="#535050"/>
<path d="M158.297 197.901L159.639 197.891L159.689 204.936L165.76 204.893L165.773 206.589L159.701 206.633L159.78 217.716C159.787 218.675 160.039 219.408 160.537 219.914C161.035 220.421 161.665 220.672 162.426 220.667C163.334 220.66 164.107 220.267 164.742 219.488C165.378 218.709 165.743 217.427 165.837 215.644L167.179 215.635C167.116 217.934 166.56 219.644 165.513 220.765C164.465 221.885 163.1 222.451 161.418 222.463C159.868 222.474 158.653 222.093 157.773 221.318C156.892 220.544 156.447 219.523 156.438 218.257L156.355 206.657L153.089 206.68L153.08 205.389C154.567 205.145 155.696 204.565 156.466 203.649C157.61 202.277 158.219 200.36 158.297 197.901Z" fill="#535050"/>
<path d="M166.545 204.887L174.016 204.631L174.123 219.495C174.126 219.901 174.235 220.188 174.45 220.359C174.759 220.603 175.147 220.723 175.614 220.72L177.738 220.704L177.748 222.088L167.069 222.164L167.059 220.781L169.042 220.767C169.63 220.762 170.059 220.628 170.332 220.361C170.604 220.095 170.738 219.71 170.734 219.206L170.657 208.325C170.652 207.637 170.434 207.118 170.005 206.771C169.574 206.424 168.939 206.253 168.097 206.259L166.555 206.27L166.545 204.887Z" fill="#535050"/>
<path d="M166.545 204.887L174.016 204.631L174.123 219.495C174.126 219.901 174.235 220.188 174.45 220.359C174.759 220.603 175.147 220.723 175.614 220.72L177.738 220.704L177.748 222.088L167.069 222.164L167.059 220.781L169.042 220.767C169.63 220.762 170.059 220.628 170.332 220.361C170.604 220.095 170.738 219.71 170.734 219.206L170.657 208.325C170.652 207.637 170.434 207.118 170.005 206.771C169.574 206.424 168.939 206.253 168.097 206.259L166.555 206.27L166.545 204.887Z" fill="#535050"/>
<path d="M182.265 197.73L183.607 197.72L183.657 204.765L189.729 204.721L189.741 206.418L183.669 206.461L183.749 217.545C183.755 218.504 184.008 219.237 184.505 219.743C185.003 220.25 185.633 220.501 186.395 220.495C187.302 220.489 188.075 220.096 188.711 219.317C189.347 218.537 189.711 217.256 189.806 215.473L191.147 215.463C191.084 217.763 190.529 219.473 189.481 220.593C188.433 221.713 187.068 222.279 185.386 222.291C183.836 222.302 182.621 221.921 181.741 221.146C180.86 220.372 180.415 219.352 180.406 218.085L180.323 206.485L177.058 206.509L177.048 205.218C178.535 204.974 179.664 204.394 180.435 203.478C181.578 202.105 182.188 200.189 182.265 197.73Z" fill="#535050"/>
<path d="M182.265 197.73L183.607 197.72L183.657 204.765L189.729 204.721L189.741 206.418L183.669 206.461L183.749 217.545C183.755 218.504 184.008 219.237 184.505 219.743C185.003 220.25 185.633 220.501 186.395 220.495C187.302 220.489 188.075 220.096 188.711 219.317C189.347 218.537 189.711 217.256 189.806 215.473L191.147 215.463C191.084 217.763 190.529 219.473 189.481 220.593C188.433 221.713 187.068 222.279 185.386 222.291C183.836 222.302 182.621 221.921 181.741 221.146C180.86 220.372 180.415 219.352 180.406 218.085L180.323 206.485L177.058 206.509L177.048 205.218C178.535 204.974 179.664 204.394 180.435 203.478C181.578 202.105 182.188 200.189 182.265 197.73Z" fill="#535050"/>
<path d="M197.306 204.353L197.388 215.805C197.398 217.207 197.788 218.286 198.56 219.043C199.332 219.8 200.324 220.174 201.538 220.165C203.03 220.155 204.296 219.589 205.335 218.469C206.372 217.349 206.886 215.953 206.874 214.28L206.828 207.808C206.824 207.217 206.59 206.761 206.127 206.439C205.664 206.116 204.778 205.941 203.468 205.913L203.459 204.623L210.048 204.262L210.15 218.444C210.154 219.096 210.358 219.595 210.762 219.942C211.164 220.29 211.727 220.461 212.448 220.456L213.631 220.447L213.64 221.683L207.329 221.857L206.904 218.467C205.793 219.692 204.672 220.616 203.542 221.239C202.413 221.862 201.269 222.177 200.108 222.186C198.415 222.198 196.991 221.685 195.837 220.648C194.668 219.624 194.076 217.876 194.058 215.405L194.005 207.899C194 207.235 193.71 206.733 193.133 206.393C192.73 206.15 191.908 206.021 190.665 206.005L190.656 204.714L197.306 204.353Z" fill="#535050"/>
<path d="M197.306 204.353L197.388 215.805C197.398 217.207 197.788 218.286 198.56 219.043C199.332 219.8 200.324 220.174 201.538 220.165C203.03 220.155 204.296 219.589 205.335 218.469C206.372 217.349 206.886 215.953 206.874 214.28L206.828 207.808C206.824 207.217 206.59 206.761 206.127 206.439C205.664 206.116 204.778 205.941 203.468 205.913L203.459 204.623L210.048 204.262L210.15 218.444C210.154 219.096 210.358 219.595 210.762 219.942C211.164 220.29 211.727 220.461 212.448 220.456L213.631 220.447L213.64 221.683L207.329 221.857L206.904 218.467C205.793 219.692 204.672 220.616 203.542 221.239C202.413 221.862 201.269 222.177 200.108 222.186C198.415 222.198 196.991 221.685 195.837 220.648C194.668 219.624 194.076 217.876 194.058 215.405L194.005 207.899C194 207.235 193.71 206.733 193.133 206.393C192.73 206.15 191.908 206.021 190.665 206.005L190.656 204.714L197.306 204.353Z" fill="#535050"/>
<path d="M222.959 205.498C221.517 205.508 220.374 206.063 219.535 207.163C218.694 208.264 218.283 210.111 218.301 212.705C218.321 215.521 218.77 217.5 219.646 218.643C220.523 219.787 221.642 220.354 223.005 220.344C224.461 220.334 225.702 219.683 226.728 218.39C227.754 217.098 228.258 215.216 228.241 212.745C228.224 210.409 227.657 208.575 226.538 207.243C225.568 206.069 224.375 205.487 222.959 205.498ZM224.042 194.479L231.374 194.113L231.543 217.756C231.549 218.679 231.744 219.335 232.128 219.726C232.512 220.117 233.084 220.309 233.845 220.303L235.148 220.294L235.158 221.677L228.746 221.723L228.24 218.204C227.488 219.463 226.603 220.414 225.585 221.054C224.568 221.695 223.424 222.019 222.155 222.028C220.018 222.044 218.192 221.233 216.678 219.596C215.163 217.96 214.395 215.788 214.376 213.084C214.355 210.158 215.301 207.815 217.212 206.055C218.712 204.679 220.444 203.985 222.407 203.971C223.609 203.962 224.69 204.231 225.649 204.778C226.608 205.324 227.445 206.154 228.162 207.268L228.092 197.512C228.089 196.995 227.868 196.588 227.432 196.29C226.995 195.992 226.317 195.846 225.395 195.853L224.052 195.862L224.042 194.479Z" fill="#535050"/>
<path d="M222.959 205.498C221.517 205.508 220.374 206.063 219.535 207.163C218.694 208.264 218.283 210.111 218.301 212.705C218.321 215.521 218.77 217.5 219.646 218.643C220.523 219.787 221.642 220.354 223.005 220.344C224.461 220.334 225.702 219.683 226.728 218.39C227.754 217.098 228.258 215.216 228.241 212.745C228.224 210.409 227.657 208.575 226.538 207.243C225.568 206.069 224.375 205.487 222.959 205.498ZM224.042 194.479L231.374 194.113L231.543 217.756C231.549 218.679 231.744 219.335 232.128 219.726C232.512 220.117 233.084 220.309 233.845 220.303L235.148 220.294L235.158 221.677L228.746 221.723L228.24 218.204C227.488 219.463 226.603 220.414 225.585 221.054C224.568 221.695 223.424 222.019 222.155 222.028C220.018 222.044 218.192 221.233 216.678 219.596C215.163 217.96 214.395 215.788 214.376 213.084C214.355 210.158 215.301 207.815 217.212 206.055C218.712 204.679 220.444 203.985 222.407 203.971C223.609 203.962 224.69 204.231 225.649 204.778C226.608 205.324 227.445 206.154 228.162 207.268L228.092 197.512C228.089 196.995 227.868 196.588 227.432 196.29C226.995 195.992 226.317 195.846 225.395 195.853L224.052 195.862L224.042 194.479Z" fill="#535050"/>
<path d="M238.797 211.821L246.932 211.763C247.413 211.759 247.785 211.607 248.051 211.303C248.315 211.001 248.445 210.486 248.44 209.76C248.43 208.408 247.964 207.262 247.043 206.322C246.121 205.382 245.039 204.916 243.797 204.925C242.408 204.935 241.233 205.515 240.273 206.665C239.313 207.816 238.82 209.534 238.797 211.821ZM252.25 213.035L238.807 213.131C238.891 215.761 239.439 217.614 240.449 218.689C241.606 219.897 243.073 220.496 244.849 220.483C247.468 220.465 249.562 219.078 251.132 216.325L252.438 216.832C250.512 220.338 247.707 222.104 244.02 222.13C241.508 222.148 239.389 221.328 237.661 219.667C235.932 218.008 235.059 215.875 235.04 213.268C235.02 210.465 235.849 208.194 237.526 206.454C239.203 204.715 241.277 203.836 243.749 203.819C245.565 203.806 247.138 204.225 248.467 205.076C249.795 205.927 250.798 207.156 251.478 208.761C251.954 209.889 252.211 211.314 252.25 213.035Z" fill="#535050"/>
<path d="M238.797 211.821L246.932 211.763C247.413 211.759 247.785 211.607 248.051 211.303C248.315 211.001 248.445 210.486 248.44 209.76C248.43 208.408 247.964 207.262 247.043 206.322C246.121 205.382 245.039 204.916 243.797 204.925C242.408 204.935 241.233 205.515 240.273 206.665C239.313 207.816 238.82 209.534 238.797 211.821ZM252.25 213.035L238.807 213.131C238.891 215.761 239.439 217.614 240.449 218.689C241.606 219.897 243.073 220.496 244.849 220.483C247.468 220.465 249.562 219.078 251.132 216.325L252.438 216.832C250.512 220.338 247.707 222.104 244.02 222.13C241.508 222.148 239.389 221.328 237.661 219.667C235.932 218.008 235.059 215.875 235.04 213.268C235.02 210.465 235.849 208.194 237.526 206.454C239.203 204.715 241.277 203.836 243.749 203.819C245.565 203.806 247.138 204.225 248.467 205.076C249.795 205.927 250.798 207.156 251.478 208.761C251.954 209.889 252.211 211.314 252.25 213.035Z" fill="#535050"/>
<circle cx="171.69" cy="199.893" r="2.42821" transform="rotate(-0.409387 171.69 199.893)" fill="#535050"/>
<path d="M140.458 235.832L139.916 235.836L139.887 231.874L138.274 231.886L138.27 231.425L142.04 231.398L142.043 231.859L140.43 231.87L140.458 235.832Z" fill="#C10230"/>
<path d="M144.471 231.937L143.388 234.2L145.578 234.185L144.471 231.937ZM146.949 235.786L146.366 235.79L145.795 234.625L143.178 234.644L142.617 235.817L142.061 235.821L144.219 231.35L144.727 231.346L146.949 235.786Z" fill="#C10230"/>
<path d="M151.986 235.75L151.307 235.754L149.444 233.626L148.428 234.588L148.436 235.775L147.894 235.779L147.862 231.356L148.405 231.352L148.424 233.993L151.165 231.332L151.865 231.327L149.819 233.275L151.986 235.75Z" fill="#C10230"/>
<path d="M156.282 231.751L153.351 231.772L153.362 233.282L155.984 233.263L155.987 233.718L153.365 233.737L153.376 235.286L156.342 235.264L156.345 235.719L152.837 235.744L152.805 231.321L156.279 231.296L156.282 231.751Z" fill="#C10230"/>
<path d="M161.486 231.815L160.404 234.078L162.594 234.063L161.486 231.815ZM163.965 235.664L163.381 235.668L162.81 234.503L160.194 234.522L159.633 235.695L159.076 235.699L161.235 231.228L161.743 231.224L163.965 235.664Z" fill="#C10230"/>
<path d="M168.362 235.252C168.228 235.348 168.083 235.43 167.928 235.498C167.773 235.567 167.606 235.621 167.428 235.66C167.25 235.7 167.051 235.72 166.831 235.721C166.483 235.724 166.162 235.667 165.869 235.551C165.575 235.435 165.32 235.276 165.103 235.073C164.887 234.87 164.717 234.63 164.594 234.353C164.47 234.076 164.407 233.777 164.405 233.457C164.403 233.141 164.461 232.843 164.581 232.565C164.7 232.286 164.867 232.041 165.08 231.832C165.294 231.621 165.549 231.455 165.845 231.333C166.142 231.211 166.467 231.148 166.819 231.146C167.039 231.144 167.237 231.16 167.413 231.192C167.59 231.224 167.754 231.271 167.905 231.331C168.056 231.39 168.197 231.464 168.325 231.549C168.454 231.635 168.579 231.729 168.698 231.834L168.33 232.203C168.123 232.028 167.901 231.883 167.665 231.772C167.428 231.66 167.145 231.605 166.816 231.607C166.55 231.609 166.305 231.657 166.078 231.752C165.853 231.846 165.657 231.976 165.491 232.141C165.325 232.307 165.196 232.501 165.103 232.723C165.011 232.944 164.967 233.183 164.968 233.44C164.97 233.698 165.018 233.937 165.114 234.16C165.209 234.382 165.341 234.576 165.51 234.738C165.678 234.901 165.875 235.03 166.103 235.123C166.33 235.216 166.576 235.261 166.842 235.259C167.171 235.257 167.455 235.199 167.692 235.086C167.929 234.973 168.162 234.814 168.389 234.61L168.748 234.93C168.626 235.049 168.496 235.156 168.362 235.252Z" fill="#C10230"/>
<path d="M171.513 235.61L170.971 235.614L170.943 231.652L169.329 231.663L169.326 231.202L173.095 231.175L173.098 231.636L171.485 231.648L171.513 235.61Z" fill="#C10230"/>
<path d="M174.704 231.164L174.736 235.587L174.193 235.591L174.162 231.168L174.704 231.164Z" fill="#C10230"/>
<path d="M180.11 232.63C180.015 232.408 179.881 232.215 179.711 232.052C179.54 231.889 179.34 231.76 179.107 231.664C178.875 231.57 178.623 231.523 178.347 231.525C178.073 231.527 177.821 231.576 177.59 231.672C177.36 231.768 177.163 231.9 176.999 232.065C176.835 232.23 176.707 232.424 176.615 232.645C176.523 232.868 176.478 233.105 176.48 233.357C176.481 233.61 176.53 233.848 176.625 234.071C176.721 234.293 176.854 234.487 177.024 234.649C177.195 234.813 177.396 234.942 177.628 235.037C177.86 235.133 178.113 235.179 178.388 235.177C178.662 235.175 178.915 235.126 179.145 235.029C179.376 234.933 179.573 234.802 179.736 234.636C179.9 234.471 180.028 234.277 180.12 234.055C180.212 233.834 180.258 233.596 180.256 233.344C180.254 233.09 180.205 232.853 180.11 232.63ZM180.646 234.203C180.529 234.48 180.364 234.725 180.15 234.937C179.937 235.149 179.68 235.319 179.378 235.445C179.077 235.571 178.743 235.636 178.377 235.638C178.011 235.641 177.677 235.582 177.377 235.462C177.076 235.342 176.818 235.179 176.601 234.972C176.384 234.764 176.217 234.523 176.098 234.248C175.979 233.973 175.919 233.682 175.917 233.375C175.914 233.067 175.972 232.775 176.089 232.498C176.206 232.221 176.371 231.977 176.585 231.765C176.798 231.552 177.056 231.383 177.357 231.256C177.658 231.13 177.992 231.066 178.358 231.063C178.724 231.061 179.058 231.119 179.359 231.239C179.659 231.36 179.918 231.523 180.135 231.729C180.351 231.936 180.518 232.178 180.637 232.453C180.756 232.728 180.816 233.02 180.819 233.326C180.821 233.635 180.764 233.927 180.646 234.203Z" fill="#C10230"/>
<path d="M185.484 231.087L186.013 231.083L186.044 235.507L185.612 235.51L182.483 231.905L182.509 235.532L181.98 235.536L181.948 231.112L182.456 231.109L185.509 234.633L185.484 231.087Z" fill="#C10230"/>
<path d="M191.663 236.276L191.622 230.424L192.068 230.421L192.11 236.273L191.663 236.276Z" fill="#535050"/>
<path d="M201.218 232.505C201.123 232.29 200.988 232.105 200.815 231.948C200.642 231.791 200.433 231.668 200.185 231.58C199.937 231.491 199.662 231.447 199.36 231.45L198.234 231.458L198.259 234.959L199.385 234.95C199.687 234.948 199.961 234.903 200.208 234.812C200.454 234.722 200.662 234.597 200.833 234.438C201.004 234.279 201.136 234.094 201.227 233.882C201.32 233.671 201.365 233.441 201.364 233.192C201.362 232.948 201.313 232.718 201.218 232.505ZM201.747 234.052C201.626 234.324 201.452 234.561 201.227 234.761C201.002 234.96 200.732 235.118 200.42 235.234C200.108 235.35 199.763 235.409 199.388 235.412L197.72 235.424L197.688 231L199.357 230.988C199.731 230.986 200.077 231.039 200.391 231.148C200.705 231.258 200.976 231.411 201.205 231.607C201.432 231.803 201.609 232.036 201.735 232.305C201.86 232.573 201.924 232.864 201.927 233.175C201.929 233.487 201.869 233.779 201.747 234.052Z" fill="#C10230"/>
<path d="M207.052 232.437C206.957 232.215 206.824 232.022 206.653 231.859C206.483 231.696 206.282 231.567 206.05 231.471C205.818 231.377 205.564 231.33 205.29 231.332C205.016 231.334 204.763 231.383 204.533 231.479C204.302 231.575 204.105 231.707 203.941 231.872C203.778 232.037 203.65 232.231 203.557 232.452C203.466 232.675 203.42 232.912 203.422 233.165C203.424 233.417 203.473 233.655 203.568 233.878C203.663 234.1 203.796 234.294 203.967 234.457C204.137 234.62 204.338 234.749 204.57 234.844C204.802 234.94 205.055 234.986 205.33 234.984C205.605 234.982 205.857 234.933 206.087 234.836C206.318 234.74 206.515 234.609 206.679 234.443C206.842 234.278 206.97 234.084 207.062 233.862C207.155 233.641 207.2 233.403 207.198 233.151C207.196 232.898 207.148 232.66 207.052 232.437ZM207.589 234.01C207.472 234.288 207.306 234.532 207.093 234.744C206.879 234.956 206.622 235.126 206.321 235.252C206.019 235.378 205.686 235.443 205.32 235.446C204.953 235.448 204.62 235.39 204.319 235.269C204.018 235.149 203.76 234.986 203.543 234.779C203.327 234.572 203.159 234.331 203.04 234.056C202.922 233.78 202.861 233.489 202.859 233.182C202.857 232.874 202.915 232.582 203.031 232.305C203.148 232.028 203.313 231.784 203.527 231.572C203.741 231.359 203.998 231.19 204.299 231.064C204.601 230.937 204.934 230.873 205.3 230.87C205.667 230.868 206 230.926 206.301 231.046C206.601 231.167 206.86 231.33 207.077 231.536C207.293 231.743 207.461 231.985 207.579 232.26C207.698 232.535 207.758 232.827 207.761 233.134C207.763 233.442 207.705 233.734 207.589 234.01Z" fill="#C10230"/>
<path d="M214.314 235.182C213.988 235.317 213.621 235.386 213.214 235.389C212.834 235.392 212.494 235.335 212.193 235.219C211.892 235.103 211.635 234.943 211.42 234.738C211.206 234.533 211.042 234.292 210.928 234.015C210.814 233.738 210.756 233.441 210.753 233.125C210.751 232.822 210.808 232.53 210.922 232.252C211.037 231.973 211.198 231.727 211.408 231.515C211.616 231.303 211.869 231.134 212.163 231.007C212.457 230.881 212.785 230.817 213.147 230.814C213.348 230.813 213.532 230.824 213.7 230.848C213.867 230.872 214.023 230.909 214.167 230.958C214.312 231.008 214.448 231.069 214.574 231.142C214.701 231.214 214.823 231.297 214.943 231.389L214.596 231.77C214.503 231.696 214.406 231.628 214.306 231.567C214.205 231.507 214.096 231.455 213.978 231.412C213.862 231.368 213.733 231.334 213.593 231.31C213.453 231.285 213.299 231.274 213.13 231.276C212.864 231.277 212.619 231.328 212.396 231.427C212.172 231.525 211.981 231.658 211.822 231.823C211.663 231.988 211.538 232.182 211.448 232.405C211.358 232.627 211.314 232.863 211.316 233.111C211.318 233.377 211.364 233.623 211.455 233.848C211.546 234.073 211.675 234.268 211.84 234.43C212.007 234.594 212.207 234.722 212.441 234.813C212.675 234.904 212.939 234.948 213.231 234.946C213.506 234.944 213.764 234.899 214.006 234.811C214.248 234.722 214.451 234.616 214.615 234.492L214.607 233.388L213.145 233.399L213.142 232.956L215.126 232.942L215.139 234.701C214.915 234.887 214.641 235.048 214.314 235.182Z" fill="#C10230"/>
<path d="M220.329 232.343C220.234 232.121 220.1 231.928 219.93 231.765C219.759 231.602 219.558 231.472 219.326 231.377C219.095 231.283 218.841 231.236 218.567 231.238C218.292 231.24 218.04 231.289 217.809 231.385C217.579 231.481 217.382 231.612 217.218 231.778C217.054 231.943 216.926 232.137 216.834 232.358C216.742 232.581 216.697 232.818 216.699 233.07C216.701 233.323 216.749 233.561 216.844 233.784C216.939 234.006 217.073 234.2 217.244 234.362C217.414 234.526 217.615 234.654 217.847 234.749C218.079 234.845 218.332 234.891 218.607 234.89C218.881 234.888 219.134 234.839 219.364 234.742C219.594 234.646 219.792 234.515 219.955 234.349C220.119 234.184 220.247 233.99 220.339 233.768C220.431 233.546 220.477 233.309 220.475 233.057C220.473 232.803 220.424 232.566 220.329 232.343ZM220.866 233.916C220.748 234.193 220.583 234.438 220.369 234.65C220.156 234.862 219.899 235.032 219.597 235.158C219.296 235.284 218.962 235.349 218.596 235.351C218.23 235.354 217.896 235.295 217.596 235.175C217.295 235.055 217.036 234.892 216.82 234.685C216.603 234.477 216.436 234.236 216.317 233.961C216.198 233.686 216.138 233.395 216.135 233.088C216.133 232.78 216.191 232.488 216.308 232.211C216.425 231.934 216.59 231.689 216.804 231.478C217.017 231.265 217.275 231.096 217.576 230.969C217.878 230.843 218.211 230.779 218.577 230.776C218.944 230.773 219.276 230.832 219.577 230.952C219.878 231.072 220.137 231.235 220.354 231.442C220.57 231.649 220.738 231.891 220.856 232.166C220.975 232.441 221.035 232.732 221.037 233.039C221.04 233.347 220.982 233.64 220.866 233.916Z" fill="#C10230"/>
<path d="M226.161 232.301C226.066 232.079 225.933 231.886 225.762 231.723C225.592 231.56 225.391 231.43 225.159 231.335C224.927 231.24 224.674 231.193 224.399 231.195C224.125 231.197 223.872 231.246 223.642 231.343C223.411 231.439 223.214 231.57 223.051 231.736C222.887 231.901 222.759 232.094 222.667 232.316C222.575 232.538 222.529 232.776 222.531 233.028C222.533 233.281 222.582 233.519 222.677 233.741C222.772 233.964 222.905 234.157 223.075 234.32C223.246 234.484 223.448 234.612 223.679 234.707C223.911 234.803 224.164 234.849 224.439 234.847C224.714 234.845 224.966 234.797 225.197 234.7C225.427 234.603 225.624 234.472 225.788 234.307C225.951 234.142 226.079 233.948 226.171 233.726C226.264 233.504 226.309 233.267 226.307 233.014C226.305 232.761 226.257 232.524 226.161 232.301ZM226.698 233.874C226.581 234.151 226.415 234.395 226.202 234.608C225.988 234.82 225.731 234.989 225.43 235.116C225.128 235.242 224.795 235.307 224.429 235.309C224.062 235.312 223.729 235.253 223.429 235.133C223.128 235.013 222.869 234.85 222.652 234.642C222.436 234.435 222.268 234.194 222.149 233.919C222.031 233.644 221.97 233.353 221.968 233.045C221.966 232.738 222.024 232.446 222.141 232.169C222.257 231.892 222.423 231.647 222.636 231.435C222.85 231.223 223.107 231.054 223.409 230.927C223.71 230.801 224.044 230.737 224.409 230.734C224.775 230.731 225.109 230.79 225.41 230.91C225.71 231.03 225.97 231.193 226.186 231.4C226.402 231.607 226.57 231.848 226.688 232.123C226.808 232.399 226.867 232.69 226.87 232.997C226.872 233.305 226.815 233.597 226.698 233.874Z" fill="#C10230"/>
<path d="M231.536 232.288C231.44 232.073 231.306 231.888 231.133 231.731C230.961 231.574 230.751 231.451 230.503 231.363C230.255 231.274 229.98 231.23 229.678 231.232L228.552 231.241L228.577 234.741L229.703 234.733C230.005 234.731 230.28 234.685 230.526 234.595C230.773 234.505 230.981 234.38 231.151 234.221C231.322 234.062 231.453 233.876 231.546 233.665C231.638 233.454 231.683 233.224 231.682 232.975C231.68 232.731 231.631 232.501 231.536 232.288ZM232.065 233.835C231.944 234.107 231.77 234.344 231.545 234.544C231.32 234.743 231.051 234.901 230.739 235.017C230.425 235.132 230.082 235.192 229.706 235.195L228.038 235.206L228.006 230.783L229.675 230.771C230.05 230.769 230.395 230.822 230.709 230.931C231.024 231.04 231.295 231.194 231.523 231.39C231.751 231.586 231.927 231.819 232.053 232.087C232.178 232.356 232.242 232.647 232.244 232.958C232.246 233.27 232.187 233.562 232.065 233.835Z" fill="#C10230"/>
</g>
<defs>
<filter id="filter0_d_939_9841" x="73.6868" y="74.1872" width="222.924" height="222.924" filterUnits="userSpaceOnUse" color-interpolation-filters="sRGB">
<feFlood flood-opacity="0" result="BackgroundImageFix"/>
<feColorMatrix in="SourceAlpha" type="matrix" values="0 0 0 0 0 0 0 0 0 0 0 0 0 0 0 0 0 0 127 0" result="hardAlpha"/>
<feOffset/>
<feGaussianBlur stdDeviation="6"/>
<feComposite in2="hardAlpha" operator="out"/>
<feColorMatrix type="matrix" values="0 0 0 0 0 0 0 0 0 0 0 0 0 0 0 0 0 0 0.25 0"/>
<feBlend mode="normal" in2="BackgroundImageFix" result="effect1_dropShadow_939_9841"/>
<feBlend mode="normal" in="SourceGraphic" in2="effect1_dropShadow_939_9841" result="shape"/>
</filter>
<filter id="filter1_d_939_9841" x="0.430527" y="0.930923" width="369.437" height="369.437" filterUnits="userSpaceOnUse" color-interpolation-filters="sRGB">
<feFlood flood-opacity="0" result="BackgroundImageFix"/>
<feColorMatrix in="SourceAlpha" type="matrix" values="0 0 0 0 0 0 0 0 0 0 0 0 0 0 0 0 0 0 127 0" result="hardAlpha"/>
<feOffset/>
<feGaussianBlur stdDeviation="42.6281"/>
<feComposite in2="hardAlpha" operator="out"/>
<feColorMatrix type="matrix" values="0 0 0 0 0 0 0 0 0 0 0 0 0 0 0 0 0 0 0.08 0"/>
<feBlend mode="normal" in2="BackgroundImageFix" result="effect1_dropShadow_939_9841"/>
<feBlend mode="normal" in="SourceGraphic" in2="effect1_dropShadow_939_9841" result="shape"/>
</filter>
</defs>
</svg>
