<svg width="175" height="174" viewBox="0 0 175 174" fill="none" xmlns="http://www.w3.org/2000/svg">
<circle cx="88.5" cy="87.5" r="65.5" fill="#D9D9D9"/>
<g filter="url(#filter0_d_3155_1209)">
<circle cx="87.4564" cy="87.0821" r="64" transform="rotate(-0.409387 87.4564 87.0821)" fill="#F88D2A"/>
<circle cx="87.4564" cy="87.0821" r="63" transform="rotate(-0.409387 87.4564 87.0821)" stroke="white" stroke-width="2"/>
</g>
<path d="M93.6357 46.5255L92.5568 45.4466L95.786 42.2174C96.3063 41.697 96.5894 41.0083 96.5894 40.2737C96.5894 39.5391 96.3063 38.8504 95.786 38.3301C94.7147 37.2588 92.97 37.2588 91.891 38.3301L88.8072 41.4215L87.7283 40.3426L90.8121 37.2511C92.4802 35.583 95.1968 35.583 96.8649 37.2511C97.676 38.0622 98.1199 39.1335 98.1199 40.2814C98.1199 41.4292 97.676 42.5005 96.8649 43.3116L93.6357 46.5408V46.5255Z" fill="white"/>
<path d="M97.4693 52.5948L96.4133 51.4853L101.448 46.7027C102.504 45.6467 102.504 43.8943 101.433 42.823C100.362 41.7517 98.6171 41.7517 97.5458 42.823L93.4978 46.6185L92.4495 45.5013L96.4821 41.7211C98.135 40.0683 100.852 40.0683 102.52 41.7364C104.188 43.4046 104.188 46.1211 102.52 47.7893L97.4693 52.5872V52.5948Z" fill="white"/>
<path d="M98.0816 61.9296L97.018 60.8277L104.134 53.9637C104.647 53.451 104.93 52.7623 104.93 52.0277C104.93 51.2931 104.647 50.6044 104.127 50.0841C103.086 49.0434 101.273 49.0434 100.24 50.0841L97.5613 52.5098L96.5359 51.3773L99.1835 48.9822C99.964 48.2016 101.043 47.7578 102.183 47.7578C103.323 47.7578 104.402 48.2016 105.213 49.0128C106.025 49.8239 106.468 50.8952 106.468 52.043C106.468 53.1908 106.025 54.2621 105.213 55.0733L98.0893 61.9449L98.0816 61.9296Z" fill="white"/>
<path d="M93.146 56.9238L92.0288 55.8678L92.0518 55.8525L93.146 56.9238Z" fill="white"/>
<path d="M103.063 66.8953L101.984 65.8164L105.367 62.4342C106.438 61.3629 106.438 59.6182 105.367 58.5469C104.295 57.4756 102.551 57.4756 101.479 58.5469L98.097 61.9291L97.0181 60.8502L100.4 57.4679C102.068 55.7998 104.785 55.7998 106.453 57.4679C108.121 59.1361 108.121 61.8526 106.453 63.5208L103.071 66.903L103.063 66.8953Z" fill="white"/>
<path d="M71.8883 95.9669L70.8093 94.888L78.8364 86.8609C80.1755 85.5218 81.6983 84.374 83.3512 83.4481C84.8816 82.591 86.2896 81.5274 87.5292 80.2877L101.984 65.8252L103.063 66.9041L88.6005 81.3667C87.2614 82.7058 85.7386 83.8536 84.0858 84.7795C82.5553 85.6366 81.1474 86.7002 79.9077 87.9399L71.8806 95.9669H71.8883Z" fill="white"/>
<path d="M56.079 81.9783L55 80.8993L63.2337 72.6656C67.6796 68.2198 66.6159 64.6539 66.6083 64.6156L66.7996 64.5544L66.5853 64.5697V64.4473C66.5394 64.057 66.8072 63.705 67.1898 63.6361C67.5725 63.5596 67.9474 63.7815 68.0698 64.1565C68.1311 64.3401 69.4166 68.6483 64.3203 73.7446L56.079 81.9783Z" fill="white"/>
<path d="M86.0295 65.3361L86.0142 65.3132L87.0931 64.2266L86.0295 65.3361Z" fill="white"/>
<path d="M103.637 98.9896L100.576 95.9287C99.3365 94.6891 97.9285 93.6254 96.3981 92.7684C94.7453 91.8425 93.2225 90.6947 91.8834 89.3556L86.9937 84.4276L88.0803 83.3486L92.9623 88.2766C94.202 89.5163 95.61 90.5799 97.1404 91.4369C98.7932 92.3628 100.316 93.5107 101.655 94.8498L104.716 97.9106L103.637 98.9896Z" fill="white"/>
<path d="M120.464 84.4415L115.98 79.9727C112.934 77.149 111.059 73.2311 110.707 68.9306C110.662 68.4103 110.738 67.7522 110.838 66.9181C111.144 64.2858 111.649 59.8705 108.718 55.0497L107.769 53.7641L109.001 52.8535L109.988 54.1926C113.233 59.5262 112.682 64.2628 112.353 67.0865C112.268 67.8058 112.2 68.4256 112.23 68.8006C112.544 72.7108 114.25 76.2767 117.02 78.8402L117.158 78.9626L121.543 83.3473L120.464 84.4262V84.4415Z" fill="white"/>
<path d="M93.3756 55.5782C92.2354 55.5782 91.1565 55.1343 90.3453 54.3232L81.0174 44.9953C80.2751 44.253 79.8772 43.2735 79.8849 42.2252C79.9002 41.1768 80.321 40.205 81.0786 39.4781C82.9228 37.7181 85.8841 37.7563 87.69 39.5546L96.4058 48.2704C97.217 49.0815 97.6608 50.1528 97.6608 51.3006C97.6608 52.4484 97.217 53.5197 96.4058 54.3309C95.5947 55.142 94.5234 55.5858 93.3756 55.5858V55.5782ZM84.3461 39.7076C83.5502 39.7076 82.7544 39.9984 82.1346 40.5876C81.6755 41.0238 81.423 41.613 81.4153 42.2405C81.4153 42.868 81.6525 43.4648 82.0963 43.9087L91.4243 53.2366C92.465 54.2773 94.2785 54.2773 95.3116 53.2366C95.8319 52.7163 96.115 52.0276 96.115 51.293C96.115 50.5584 95.8319 49.8697 95.3116 49.3493L86.5958 40.6335C85.976 40.0137 85.1572 39.7076 84.3308 39.7076H84.3461Z" fill="white"/>
<path d="M91.4547 63.5582C90.3604 63.5582 89.2585 63.1373 88.4244 62.3033L76.3188 50.1976C74.6506 48.5294 74.6506 45.8129 76.3188 44.1371L76.7014 43.7545C78.1553 42.3006 80.5274 42.3006 81.9813 43.7545L94.4773 56.2504C95.2884 57.0615 95.7322 58.1328 95.7322 59.2807C95.7322 60.4285 95.2884 61.4998 94.4773 62.3109C93.6432 63.145 92.5489 63.5659 91.447 63.5659L91.4547 63.5582ZM77.3977 49.1186L89.5034 61.2243C90.5747 62.2956 92.3194 62.2956 93.3907 61.2243C93.911 60.704 94.1941 60.0153 94.1941 59.2807C94.1941 58.5461 93.911 57.8574 93.3907 57.337L80.8947 44.8411C80.0377 43.9841 78.6373 43.9841 77.7803 44.8411L77.3977 45.2237C76.3264 46.295 76.3264 48.0473 77.3977 49.1186Z" fill="white"/>
<path d="M84.1852 66.2466C83.0451 66.2466 81.9661 65.8028 81.155 64.9917L71.2838 55.1204C70.4879 54.3246 70.0518 53.2686 70.0518 52.1437C70.0518 51.0189 70.4956 49.9629 71.2914 49.1747C72.9978 47.4836 75.7602 47.4912 77.459 49.19L87.2078 58.9388C88.019 59.75 88.4628 60.8213 88.4628 61.9691C88.4628 63.1169 88.019 64.1882 87.2078 64.9993C86.3967 65.8104 85.3254 66.2543 84.1776 66.2543L84.1852 66.2466ZM72.3704 54.0415L82.2416 63.9127C83.2823 64.9534 85.0958 64.9534 86.1289 63.9127C86.6492 63.3924 86.9324 62.7037 86.9324 61.9691C86.9324 61.2345 86.6492 60.5458 86.1289 60.0254L76.3801 50.2766C75.2782 49.1747 73.4799 49.1671 72.378 50.269C71.873 50.774 71.5898 51.4397 71.5898 52.159C71.5898 52.8707 71.8653 53.5441 72.3704 54.0491V54.0415Z" fill="white"/>
<path d="M73.151 65.1583C72.0567 65.1583 70.9548 64.7375 70.1207 63.9034L66.2947 60.0773C65.5065 59.2891 65.0703 58.2331 65.0703 57.1159C65.0703 55.9987 65.5065 54.9504 66.2947 54.1546L66.6313 53.8179C68.1541 52.2951 70.6258 52.2951 72.1485 53.8179L76.1812 57.8505C77.8494 59.5187 77.8494 62.2352 76.1812 63.9034C75.3471 64.7375 74.2529 65.1583 73.151 65.1583ZM69.3938 54.2081C68.7892 54.2081 68.1771 54.4377 67.718 54.9045L67.3813 55.2412C66.8762 55.7462 66.6007 56.4119 66.6007 57.1159C66.6007 57.8199 66.8762 58.4933 67.3813 58.9907L71.2073 62.8168C72.2786 63.8881 74.0233 63.8881 75.0946 62.8168C76.1659 61.7455 76.1659 60.0008 75.0946 58.9218L71.0619 54.8892C70.6028 54.43 69.9906 54.1928 69.3861 54.1928L69.3938 54.2081Z" fill="white"/>
<path d="M100.239 76.0472C98.2574 73.5909 98.0431 70.5147 98.0278 70.3846L99.5583 70.2852C99.5583 70.2852 99.7649 73.017 101.433 75.083L100.239 76.0396V76.0472Z" fill="white"/>
<path d="M48.6466 123.267C47.9586 123.272 47.4456 123.132 46.8837 122.864L47.2927 121.885C47.6942 122.09 48.0628 122.184 48.5908 122.18C49.3268 122.175 49.788 121.787 50.2757 120.616L46.4569 112.403L47.8169 112.393L50.8741 119.267L53.4807 112.353L54.7927 112.343L51.3818 120.912C50.6901 122.629 49.8946 123.259 48.6466 123.267ZM60.0938 120.77C57.6138 120.787 55.7919 118.848 55.7753 116.512L55.775 116.48C55.7583 114.144 57.5681 112.147 60.064 112.13C62.544 112.112 64.3819 114.051 64.3986 116.387L64.3988 116.419C64.4155 118.755 62.5897 120.752 60.0938 120.77ZM60.1179 119.665C61.9098 119.653 63.1475 118.204 63.1351 116.46L63.1348 116.428C63.1221 114.652 61.7838 113.205 60.0398 113.218C58.2479 113.231 57.0263 114.695 57.0388 116.439L57.039 116.471C57.0517 118.247 58.3739 119.678 60.1179 119.665ZM69.7012 120.685C67.7012 120.699 66.5237 119.364 66.5096 117.396L66.4729 112.26L67.7049 112.251L67.7394 117.083C67.7504 118.619 68.5892 119.573 70.0452 119.562C71.4531 119.552 72.5177 118.505 72.5066 116.953L72.4727 112.217L73.6887 112.208L73.7478 120.48L72.5318 120.489L72.5216 119.049C71.968 119.949 71.1251 120.675 69.7012 120.685ZM76.5191 120.46L76.46 112.188L77.692 112.18L77.7074 114.34C78.3056 112.959 79.4984 111.959 81.0669 112.011L81.0764 113.339L80.9804 113.34C79.1724 113.353 77.7097 114.66 77.7275 117.155L77.7511 120.451L76.5191 120.46ZM91.5294 120.545C89.1134 120.562 87.2754 118.607 87.2588 116.287L87.2586 116.255C87.2419 113.919 89.0517 111.922 91.4676 111.905C93.0356 111.894 94.0162 112.543 94.7901 113.353L93.9802 114.223C93.3194 113.54 92.5794 112.985 91.4594 112.993C89.7794 113.005 88.5096 114.438 88.5223 116.214L88.5226 116.246C88.5354 118.038 89.8575 119.453 91.5855 119.441C92.6414 119.433 93.4536 118.899 94.1046 118.19L94.8938 118.921C94.0685 119.855 93.0813 120.534 91.5294 120.545ZM99.4057 120.473C97.8537 120.484 96.3115 119.615 96.2993 117.919L96.2991 117.887C96.2864 116.111 97.7198 115.173 99.8157 115.158C100.872 115.15 101.609 115.289 102.346 115.492L102.344 115.236C102.334 113.764 101.432 113.002 99.8804 113.013C98.9044 113.02 98.1381 113.266 97.3727 113.623L96.9975 112.618C97.9065 112.195 98.7844 111.901 100 111.892C101.168 111.884 102.083 112.197 102.679 112.785C103.259 113.357 103.553 114.155 103.56 115.211L103.596 120.267L102.38 120.275L102.372 119.043C101.801 119.784 100.862 120.462 99.4057 120.473ZM99.6386 119.479C101.159 119.468 102.384 118.547 102.375 117.235L102.369 116.467C101.76 116.296 100.959 116.125 99.9507 116.133C98.4147 116.144 97.5395 116.822 97.5466 117.814L97.5468 117.846C97.5543 118.886 98.5186 119.487 99.6386 119.479ZM109.247 120.402C107.247 120.417 106.07 119.081 106.055 117.113L106.019 111.977L107.251 111.968L107.285 116.8C107.296 118.336 108.135 119.29 109.591 119.28C110.999 119.27 112.064 118.222 112.052 116.67L112.019 111.934L113.235 111.926L113.294 120.197L112.078 120.206L112.067 118.766C111.514 119.666 110.671 120.392 109.247 120.402ZM118.802 120.318C117.618 120.327 116.303 119.872 115.369 119.127L115.987 118.242C116.888 118.908 117.883 119.285 118.859 119.278C119.851 119.271 120.567 118.753 120.561 117.953L120.561 117.921C120.555 117.089 119.577 116.776 118.487 116.48C117.188 116.122 115.745 115.684 115.734 114.164L115.734 114.132C115.724 112.708 116.901 111.755 118.533 111.744C119.541 111.737 120.663 112.081 121.515 112.634L120.962 113.566C120.19 113.076 119.308 112.778 118.508 112.784C117.532 112.791 116.912 113.307 116.917 113.995L116.917 114.027C116.923 114.811 117.949 115.108 119.055 115.436C120.338 115.811 121.717 116.297 121.728 117.785L121.728 117.817C121.739 119.385 120.45 120.306 118.802 120.318ZM124.744 116.484C124.932 118.226 126.219 119.225 127.675 119.215C128.811 119.207 129.608 118.737 130.275 118.028L131.048 118.711C130.222 119.644 129.219 120.276 127.651 120.287C125.379 120.303 123.51 118.572 123.492 115.996C123.475 113.597 125.141 111.665 127.429 111.648C129.877 111.631 131.299 113.573 131.316 116.005C131.317 116.117 131.318 116.245 131.303 116.437L124.744 116.484ZM124.736 115.492L130.064 115.453C129.91 113.951 129.036 112.677 127.405 112.688C125.981 112.699 124.901 113.89 124.736 115.492Z" fill="white"/>
<defs>
<filter id="filter0_d_3155_1209" x="0.598463" y="0.224226" width="173.716" height="173.716" filterUnits="userSpaceOnUse" color-interpolation-filters="sRGB">
<feFlood flood-opacity="0" result="BackgroundImageFix"/>
<feColorMatrix in="SourceAlpha" type="matrix" values="0 0 0 0 0 0 0 0 0 0 0 0 0 0 0 0 0 0 127 0" result="hardAlpha"/>
<feOffset/>
<feGaussianBlur stdDeviation="11.4289"/>
<feComposite in2="hardAlpha" operator="out"/>
<feColorMatrix type="matrix" values="0 0 0 0 0 0 0 0 0 0 0 0 0 0 0 0 0 0 0.1 0"/>
<feBlend mode="normal" in2="BackgroundImageFix" result="effect1_dropShadow_3155_1209"/>
<feBlend mode="normal" in="SourceGraphic" in2="effect1_dropShadow_3155_1209" result="shape"/>
</filter>
</defs>
</svg>
