<svg width="128" height="138" viewBox="0 0 128 138" fill="none" xmlns="http://www.w3.org/2000/svg">
<g filter="url(#filter0_d_939_10007)">
<circle cx="64" cy="73.4997" r="52" fill="#535050"/>
<circle cx="64" cy="73.4997" r="51" stroke="white" stroke-width="2"/>
</g>
<path d="M59.4141 41.1306L57.8421 41.1306L53.7741 35.7906L53.7741 41.1306L51.9501 41.1306L51.9501 32.7306L53.6541 32.7306L57.5901 37.9026L57.5901 32.7306L59.4141 32.7306L59.4141 41.1306ZM69.0626 39.9426C68.6306 40.3106 68.1146 40.6266 67.5146 40.8906C66.9226 41.1466 66.2426 41.2746 65.4746 41.2746C64.8186 41.2746 64.2186 41.1666 63.6746 40.9506C63.1386 40.7346 62.6746 40.4346 62.2826 40.0506C61.8986 39.6666 61.5986 39.2106 61.3826 38.6826C61.1666 38.1546 61.0586 37.5786 61.0586 36.9546L61.0586 36.9306C61.0586 36.3306 61.1666 35.7706 61.3826 35.2506C61.6066 34.7226 61.9146 34.2626 62.3066 33.8706C62.6986 33.4706 63.1626 33.1586 63.6986 32.9346C64.2346 32.7026 64.8226 32.5866 65.4626 32.5866C65.8386 32.5866 66.1786 32.6146 66.4826 32.6706C66.7946 32.7186 67.0826 32.7906 67.3466 32.8866C67.6106 32.9826 67.8586 33.1026 68.0906 33.2466C68.3226 33.3906 68.5466 33.5546 68.7626 33.7386L67.5986 35.1426C67.4386 35.0066 67.2786 34.8866 67.1186 34.7826C66.9586 34.6786 66.7906 34.5906 66.6146 34.5186C66.4466 34.4466 66.2626 34.3906 66.0626 34.3506C65.8626 34.3106 65.6426 34.2906 65.4026 34.2906C65.0666 34.2906 64.7506 34.3626 64.4546 34.5066C64.1666 34.6426 63.9106 34.8306 63.6866 35.0706C63.4706 35.3026 63.2986 35.5786 63.1706 35.8986C63.0506 36.2106 62.9906 36.5466 62.9906 36.9066L62.9906 36.9306C62.9906 37.3146 63.0506 37.6706 63.1706 37.9986C63.2986 38.3186 63.4746 38.5986 63.6986 38.8386C63.9306 39.0786 64.1986 39.2666 64.5026 39.4026C64.8146 39.5306 65.1586 39.5946 65.5346 39.5946C66.2226 39.5946 66.8026 39.4266 67.2746 39.0906L67.2746 37.8906L65.4146 37.8906L65.4146 36.2946L69.0626 36.2946L69.0626 39.9426ZM79.3968 36.9306C79.3968 37.5306 79.2848 38.0946 79.0608 38.6226C78.8368 39.1426 78.5248 39.6026 78.1248 40.0026C77.7328 40.3946 77.2608 40.7066 76.7088 40.9386C76.1648 41.1626 75.5688 41.2746 74.9208 41.2746C74.2728 41.2746 73.6768 41.1626 73.1328 40.9386C72.5888 40.7066 72.1168 40.3986 71.7168 40.0146C71.3248 39.6226 71.0168 39.1666 70.7928 38.6466C70.5768 38.1186 70.4688 37.5546 70.4688 36.9546L70.4688 36.9306C70.4688 36.3306 70.5808 35.7706 70.8048 35.2506C71.0288 34.7226 71.3368 34.2626 71.7288 33.8706C72.1288 33.4706 72.6008 33.1586 73.1448 32.9346C73.6968 32.7026 74.2968 32.5866 74.9448 32.5866C75.5928 32.5866 76.1888 32.7026 76.7328 32.9346C77.2768 33.1586 77.7448 33.4666 78.1368 33.8586C78.5368 34.2426 78.8448 34.6986 79.0608 35.2266C79.2848 35.7466 79.3968 36.3066 79.3968 36.9066L79.3968 36.9306ZM77.4648 36.9546L77.4648 36.9306C77.4648 36.5706 77.4008 36.2306 77.2728 35.9106C77.1528 35.5906 76.9768 35.3106 76.7448 35.0706C76.5208 34.8306 76.2528 34.6426 75.9408 34.5066C75.6288 34.3626 75.2888 34.2906 74.9208 34.2906C74.5448 34.2906 74.2008 34.3586 73.8888 34.4946C73.5848 34.6306 73.3208 34.8186 73.0968 35.0586C72.8808 35.2986 72.7088 35.5786 72.5808 35.8986C72.4608 36.2106 72.4008 36.5466 72.4008 36.9066L72.4008 36.9306C72.4008 37.2906 72.4608 37.6306 72.5808 37.9506C72.7088 38.2706 72.8848 38.5506 73.1088 38.7906C73.3408 39.0306 73.6088 39.2226 73.9128 39.3666C74.2248 39.5026 74.5688 39.5706 74.9448 39.5706C75.3128 39.5706 75.6528 39.5026 75.9648 39.3666C76.2768 39.2306 76.5408 39.0426 76.7568 38.8026C76.9808 38.5626 77.1528 38.2866 77.2728 37.9746C77.4008 37.6546 77.4648 37.3146 77.4648 36.9546Z" fill="white"/>
<path d="M76.2552 78.6825C76.2964 78.615 76.3174 78.5273 76.3197 78.4493C76.3219 78.3728 76.3062 78.291 76.2709 78.2227C74.0659 73.9431 69.7105 71.2783 64.9043 71.2783C60.0981 71.2783 55.742 73.9311 53.5369 78.21C53.5009 78.2798 53.4852 78.3593 53.4882 78.4395C53.4912 78.5183 53.5129 78.6173 53.5527 78.6833C53.6337 78.816 53.7777 78.9345 53.9329 78.9345H75.8742C76.0294 78.9345 76.1734 78.816 76.2544 78.6833L76.2552 78.6825ZM54.6897 78.0337C56.8325 74.5086 60.6809 72.2293 64.9035 72.2293C69.1262 72.2293 72.9746 74.5086 75.1174 78.0337H54.6897Z" fill="white"/>
<path d="M79.3769 58.9833H78.0179C76.0115 53.8831 70.9534 50.4997 65.0424 50.4997C59.1314 50.4997 54.0733 53.8831 52.067 58.9833H51.4842C43.2661 58.9833 35.8199 63.4864 32.0495 70.8029C31.9783 70.9409 31.9843 71.1344 32.0653 71.2672C32.1463 71.4 32.2903 71.5087 32.4455 71.5087H35.4689V97.3096H33.1948C32.9488 97.3096 32.7688 97.3823 32.7688 97.6284V100.255C32.7688 100.501 32.948 100.61 33.1948 100.61H96.4992C96.7453 100.61 96.971 100.501 96.971 100.255V97.6284C96.971 97.3823 96.7453 97.3096 96.4992 97.3096H94.8709V71.5087H98.4148C98.5701 71.5087 98.7148 71.3789 98.7951 71.2462C98.8753 71.1134 98.8821 70.9657 98.8108 70.8277C95.0412 63.5112 87.5942 58.9833 79.3761 58.9833H79.3769ZM52.0452 70.9762C52.0452 70.9762 52.0467 70.9694 52.0467 70.9657C52.0467 70.9619 52.0452 70.9589 52.0452 70.9552V63.6334C52.0452 56.8367 57.8099 51.3083 64.9832 51.3083C72.1564 51.3083 77.9211 56.8374 77.9211 63.6334V97.3103H72.8959V81.406C72.8959 81.16 72.7137 80.9598 72.4677 80.9598H57.7687C57.5226 80.9598 57.4454 81.16 57.4454 81.406V97.3103H52.0452V70.9769V70.9762ZM71.9959 81.8591V97.3096H62.1706V81.8591H71.9959ZM61.2705 81.8591V97.3096H58.3454V81.8591H61.2705ZM33.1911 70.5337C36.9052 63.7834 43.8482 59.8833 51.4842 59.8833H51.7429C51.3537 61.0833 51.2202 62.2969 51.2202 63.6327V70.5337H33.1911ZM51.2202 71.5087V97.3096H36.3697V71.5087H51.2202ZM96.0717 98.2096V99.6347H33.6696V98.2096H96.0717ZM78.8211 97.3096V71.5087H93.9717V97.3096H78.8211ZM94.3279 70.5337H78.8211V63.6327C78.8211 62.2969 78.7326 61.0833 78.3426 59.8833H79.3769C87.0129 59.8833 93.9552 63.7834 97.67 70.5337H94.3279Z" fill="white"/>
<path d="M70.4959 84.4213C70.4959 84.1663 70.2994 83.9593 70.0579 83.9593H64.4095C64.1672 83.9593 63.9714 84.1663 63.9714 84.4213V90.9225C63.9714 91.1775 64.1679 91.3845 64.4095 91.3845H70.0579C70.3002 91.3845 70.4959 91.1775 70.4959 90.9225V84.4213ZM64.8707 84.8593H69.5959V90.4845H64.8707V84.8593Z" fill="white"/>
<path d="M38.019 81.2591H39.2948V89.8476C39.2948 90.0936 39.582 90.1844 39.828 90.1844H48.0821C48.3281 90.1844 48.5201 90.0936 48.5201 89.8476V81.2591H49.7216C49.8851 81.2591 50.0359 81.2201 50.1139 81.0761C50.1919 80.9321 50.1844 80.8053 50.0951 80.6688L49.2416 79.3427C48.5606 78.3002 47.4108 77.6589 46.1657 77.6589H41.5756C40.3305 77.6589 39.1807 78.3017 38.5005 79.3435L37.6469 80.6613C37.5577 80.7985 37.5502 80.9275 37.6282 81.0716C37.7062 81.2156 37.8562 81.2591 38.0205 81.2591H38.019ZM43.4949 89.2843H40.1948V85.7592H43.4949V89.2843ZM43.4949 84.8592H40.1948V81.2591H43.4949V84.8592ZM47.62 89.2843H44.3199V85.7592H47.62V89.2843ZM47.62 84.8592H44.3199V81.2591H47.62V84.8592ZM39.246 79.8175C39.7613 79.0277 40.632 78.634 41.5748 78.634H46.165C47.1078 78.634 47.9786 79.0285 48.4946 79.8175L48.8981 80.359H38.8425L39.246 79.8175Z" fill="white"/>
<path d="M91.7614 79.3322C91.0803 78.2897 89.9305 77.6589 88.6862 77.6589H84.0961C82.851 77.6589 81.7013 78.3017 81.021 79.3435L80.1675 80.6613C80.0782 80.7985 80.0707 80.9275 80.1487 81.0716C80.2267 81.2156 80.3767 81.2591 80.541 81.2591H82.1228V89.8476C82.1228 90.0936 82.2113 90.1844 82.4573 90.1844H90.7113C90.9573 90.1844 91.0481 90.0936 91.0481 89.8476V81.2591H92.2436C92.4071 81.2591 92.5579 81.2201 92.6359 81.0761C92.7139 80.9321 92.7064 80.7715 92.6171 80.6343L91.7636 79.3315L91.7614 79.3322ZM86.2464 89.2843H82.9463V85.7592H86.2464V89.2843ZM86.2464 84.8592H82.9463V81.2591H86.2464V84.8592ZM90.1465 89.2843H87.2214V85.7592H90.1465V89.2843ZM90.1465 84.8592H87.2214V81.2591H90.1465V84.8592ZM90.7098 80.359H81.363L81.7665 79.8175C82.2818 79.0277 83.1526 78.634 84.0953 78.634H88.6855C89.6283 78.634 90.4991 79.0285 91.0143 79.8175L91.4178 80.359H90.7091H90.7098Z" fill="white"/>
<defs>
<filter id="filter0_d_939_10007" x="0" y="9.49973" width="128" height="128" filterUnits="userSpaceOnUse" color-interpolation-filters="sRGB">
<feFlood flood-opacity="0" result="BackgroundImageFix"/>
<feColorMatrix in="SourceAlpha" type="matrix" values="0 0 0 0 0 0 0 0 0 0 0 0 0 0 0 0 0 0 127 0" result="hardAlpha"/>
<feOffset/>
<feGaussianBlur stdDeviation="6"/>
<feComposite in2="hardAlpha" operator="out"/>
<feColorMatrix type="matrix" values="0 0 0 0 0 0 0 0 0 0 0 0 0 0 0 0 0 0 0.25 0"/>
<feBlend mode="normal" in2="BackgroundImageFix" result="effect1_dropShadow_939_10007"/>
<feBlend mode="normal" in="SourceGraphic" in2="effect1_dropShadow_939_10007" result="shape"/>
</filter>
</defs>
</svg>
