<svg width="128" height="131" viewBox="0 0 128 131" fill="none" xmlns="http://www.w3.org/2000/svg">
<g filter="url(#filter0_d_939_10017)">
<circle cx="64" cy="66.4998" r="52" fill="#535050"/>
<circle cx="64" cy="66.4998" r="51" stroke="white" stroke-width="2"/>
</g>
<path d="M59.4141 41.1306L57.8421 41.1306L53.7741 35.7906L53.7741 41.1306L51.9501 41.1306L51.9501 32.7306L53.6541 32.7306L57.5901 37.9026L57.5901 32.7306L59.4141 32.7306L59.4141 41.1306ZM69.0626 39.9426C68.6306 40.3106 68.1146 40.6266 67.5146 40.8906C66.9226 41.1466 66.2426 41.2746 65.4746 41.2746C64.8186 41.2746 64.2186 41.1666 63.6746 40.9506C63.1386 40.7346 62.6746 40.4346 62.2826 40.0506C61.8986 39.6666 61.5986 39.2106 61.3826 38.6826C61.1666 38.1546 61.0586 37.5786 61.0586 36.9546L61.0586 36.9306C61.0586 36.3306 61.1666 35.7706 61.3826 35.2506C61.6066 34.7226 61.9146 34.2626 62.3066 33.8706C62.6986 33.4706 63.1626 33.1586 63.6986 32.9346C64.2346 32.7026 64.8226 32.5866 65.4626 32.5866C65.8386 32.5866 66.1786 32.6146 66.4826 32.6706C66.7946 32.7186 67.0826 32.7906 67.3466 32.8866C67.6106 32.9826 67.8586 33.1026 68.0906 33.2466C68.3226 33.3906 68.5466 33.5546 68.7626 33.7386L67.5986 35.1426C67.4386 35.0066 67.2786 34.8866 67.1186 34.7826C66.9586 34.6786 66.7906 34.5906 66.6146 34.5186C66.4466 34.4466 66.2626 34.3906 66.0626 34.3506C65.8626 34.3106 65.6426 34.2906 65.4026 34.2906C65.0666 34.2906 64.7506 34.3626 64.4546 34.5066C64.1666 34.6426 63.9106 34.8306 63.6866 35.0706C63.4706 35.3026 63.2986 35.5786 63.1706 35.8986C63.0506 36.2106 62.9906 36.5466 62.9906 36.9066L62.9906 36.9306C62.9906 37.3146 63.0506 37.6706 63.1706 37.9986C63.2986 38.3186 63.4746 38.5986 63.6986 38.8386C63.9306 39.0786 64.1986 39.2666 64.5026 39.4026C64.8146 39.5306 65.1586 39.5946 65.5346 39.5946C66.2226 39.5946 66.8026 39.4266 67.2746 39.0906L67.2746 37.8906L65.4146 37.8906L65.4146 36.2946L69.0626 36.2946L69.0626 39.9426ZM79.3968 36.9306C79.3968 37.5306 79.2848 38.0946 79.0608 38.6226C78.8368 39.1426 78.5248 39.6026 78.1248 40.0026C77.7328 40.3946 77.2608 40.7066 76.7088 40.9386C76.1648 41.1626 75.5688 41.2746 74.9208 41.2746C74.2728 41.2746 73.6768 41.1626 73.1328 40.9386C72.5888 40.7066 72.1168 40.3986 71.7168 40.0146C71.3248 39.6226 71.0168 39.1666 70.7928 38.6466C70.5768 38.1186 70.4688 37.5546 70.4688 36.9546L70.4688 36.9306C70.4688 36.3306 70.5808 35.7706 70.8048 35.2506C71.0288 34.7226 71.3368 34.2626 71.7288 33.8706C72.1288 33.4706 72.6008 33.1586 73.1448 32.9346C73.6968 32.7026 74.2968 32.5866 74.9448 32.5866C75.5928 32.5866 76.1888 32.7026 76.7328 32.9346C77.2768 33.1586 77.7448 33.4666 78.1368 33.8586C78.5368 34.2426 78.8448 34.6986 79.0608 35.2266C79.2848 35.7466 79.3968 36.3066 79.3968 36.9066L79.3968 36.9306ZM77.4648 36.9546L77.4648 36.9306C77.4648 36.5706 77.4008 36.2306 77.2728 35.9106C77.1528 35.5906 76.9768 35.3106 76.7448 35.0706C76.5208 34.8306 76.2528 34.6426 75.9408 34.5066C75.6288 34.3626 75.2888 34.2906 74.9208 34.2906C74.5448 34.2906 74.2008 34.3586 73.8888 34.4946C73.5848 34.6306 73.3208 34.8186 73.0968 35.0586C72.8808 35.2986 72.7088 35.5786 72.5808 35.8986C72.4608 36.2106 72.4008 36.5466 72.4008 36.9066L72.4008 36.9306C72.4008 37.2906 72.4608 37.6306 72.5808 37.9506C72.7088 38.2706 72.8848 38.5506 73.1088 38.7906C73.3408 39.0306 73.6088 39.2226 73.9128 39.3666C74.2248 39.5026 74.5688 39.5706 74.9448 39.5706C75.3128 39.5706 75.6528 39.5026 75.9648 39.3666C76.2768 39.2306 76.5408 39.0426 76.7568 38.8026C76.9808 38.5626 77.1528 38.2866 77.2728 37.9746C77.4008 37.6546 77.4648 37.3146 77.4648 36.9546Z" fill="white"/>
<path d="M44.3156 66.8907H39.7925C39.5035 66.8907 39.3713 67.2167 39.3713 67.5057V72.0288C39.3713 72.3178 39.6551 72.5522 39.9441 72.5522C40.2331 72.5522 40.5169 72.3178 40.5169 72.0288V67.86H44.3156C44.6046 67.86 44.839 67.6644 44.839 67.3753C44.839 67.0863 44.6046 66.8907 44.3156 66.8907Z" fill="white"/>
<path d="M51.8426 66.8907H47.3195C47.0305 66.8907 46.6851 67.2167 46.6851 67.5057V72.0288C46.6851 72.3178 46.9688 72.5522 47.2578 72.5522C47.5468 72.5522 47.8306 72.3178 47.8306 72.0288V67.86H51.8426C52.1316 67.86 52.366 67.6644 52.366 67.3753C52.366 67.0863 52.1316 66.8907 51.8426 66.8907Z" fill="white"/>
<path d="M44.3156 74.5583H39.7925C39.5035 74.5583 39.3713 74.7451 39.3713 75.0341V79.5572C39.3713 79.8462 39.6551 80.0806 39.9441 80.0806C40.2331 80.0806 40.5169 79.8462 40.5169 79.5572V75.6157H44.3156C44.6046 75.6157 44.839 75.376 44.839 75.087C44.839 74.798 44.6046 74.5583 44.3156 74.5583Z" fill="white"/>
<path d="M51.8426 74.5583H47.3195C47.0305 74.5583 46.6851 74.7451 46.6851 75.0341V79.5572C46.6851 79.8462 46.9688 80.0806 47.2578 80.0806C47.5468 80.0806 47.8306 79.8462 47.8306 79.5572V75.6157H51.8426C52.1316 75.6157 52.366 75.376 52.366 75.087C52.366 74.798 52.1316 74.5583 51.8426 74.5583Z" fill="white"/>
<path d="M44.3156 82.2234H39.7925C39.5035 82.2234 39.3713 82.271 39.3713 82.5609V87.084C39.3713 87.373 39.6551 87.6074 39.9441 87.6074C40.2331 87.6074 40.5169 87.373 40.5169 87.084V83.2809H44.3156C44.6046 83.2809 44.839 83.0412 44.839 82.7522C44.839 82.4631 44.6046 82.2234 44.3156 82.2234Z" fill="white"/>
<path d="M59.3694 66.8907H54.8463C54.5573 66.8907 54.4392 67.2167 54.4392 67.5057V72.0288C54.4392 72.3178 54.6789 72.5522 54.9679 72.5522C55.2569 72.5522 55.4966 72.3178 55.4966 72.0288V67.86H59.3694C59.6584 67.86 59.8928 67.6644 59.8928 67.3753C59.8928 67.0863 59.6584 66.8907 59.3694 66.8907Z" fill="white"/>
<path d="M66.8972 66.8907H62.3742C62.0851 66.8907 61.7529 67.2167 61.7529 67.5057V72.0288C61.7529 72.3178 61.9926 72.5522 62.2816 72.5522C62.5707 72.5522 62.8103 72.3178 62.8103 72.0288V67.86H66.8972C67.1863 67.86 67.4206 67.6644 67.4206 67.3753C67.4206 67.0863 67.1863 66.8907 66.8972 66.8907Z" fill="white"/>
<path d="M59.3694 74.5583H54.8463C54.5573 74.5583 54.4392 74.7451 54.4392 75.0341V79.5572C54.4392 79.8462 54.6789 80.0806 54.9679 80.0806C55.2569 80.0806 55.4966 79.8462 55.4966 79.5572V75.6157H59.3694C59.6584 75.6157 59.8928 75.376 59.8928 75.087C59.8928 74.798 59.6584 74.5583 59.3694 74.5583Z" fill="white"/>
<path d="M51.8426 82.2234H47.3195C47.0305 82.2234 46.6851 82.271 46.6851 82.5609V87.084C46.6851 87.373 46.9688 87.6074 47.2578 87.6074C47.5468 87.6074 47.8306 87.373 47.8306 87.084V83.2809H51.8426C52.1316 83.2809 52.366 83.0412 52.366 82.7522C52.366 82.4631 52.1316 82.2234 51.8426 82.2234Z" fill="white"/>
<path d="M59.3694 82.2234H54.8463C54.5573 82.2234 54.4392 82.271 54.4392 82.5609V87.084C54.4392 87.373 54.6789 87.6074 54.9679 87.6074C55.2569 87.6074 55.4966 87.373 55.4966 87.084V83.2809H59.3694C59.6584 83.2809 59.8928 83.0412 59.8928 82.7522C59.8928 82.4631 59.6584 82.2234 59.3694 82.2234Z" fill="white"/>
<path d="M66.8972 74.5583H62.3742C62.0851 74.5583 61.7529 74.7451 61.7529 75.0341V79.5572C61.7529 79.8462 61.9926 80.0806 62.2816 80.0806C62.5707 80.0806 62.8103 79.8462 62.8103 79.5572V75.6157H66.8972C67.1863 75.6157 67.4206 75.376 67.4206 75.087C67.4206 74.798 67.1863 74.5583 66.8972 74.5583Z" fill="white"/>
<path d="M66.8972 82.2234H62.3742C62.0851 82.2234 61.7529 82.271 61.7529 82.5609V87.084C61.7529 87.373 61.9926 87.6074 62.2816 87.6074C62.5707 87.6074 62.8103 87.373 62.8103 87.084V83.2809H66.8972C67.1863 83.2809 67.4206 83.0412 67.4206 82.7522C67.4206 82.4631 67.1863 82.2234 66.8972 82.2234Z" fill="white"/>
<path d="M74.4243 66.8907H69.9012C69.6122 66.8907 69.4192 67.2167 69.4192 67.5057V72.0288C69.4192 72.3178 69.7029 72.5522 69.992 72.5522C70.281 72.5522 70.5647 72.3178 70.5647 72.0288V67.86H74.4243C74.7133 67.86 74.9477 67.6644 74.9477 67.3753C74.9477 67.0863 74.7133 66.8907 74.4243 66.8907Z" fill="white"/>
<path d="M77.3059 72.553C77.595 72.553 77.7906 72.3186 77.7906 72.0296V67.8608H81.9515C82.2405 67.8608 82.4749 67.6652 82.4749 67.3761C82.4749 67.0871 82.2405 66.8915 81.9515 66.8915H77.4284C77.1394 66.8915 76.8213 67.2175 76.8213 67.5065V72.0296C76.8213 72.3186 77.0169 72.553 77.3059 72.553Z" fill="white"/>
<path d="M74.4243 74.5583H69.9012C69.6122 74.5583 69.4192 74.7451 69.4192 75.0341V79.5572C69.4192 79.8462 69.7029 80.0806 69.992 80.0806C70.281 80.0806 70.5647 79.8462 70.5647 79.5572V75.6157H74.4243C74.7133 75.6157 74.9477 75.376 74.9477 75.087C74.9477 74.798 74.7133 74.5583 74.4243 74.5583Z" fill="white"/>
<path d="M82.4756 75.087C82.4756 74.798 82.2412 74.5583 81.9522 74.5583H77.4292C77.1401 74.5583 76.822 74.7451 76.822 75.0341V79.5572C76.822 79.8462 77.0176 80.0806 77.3067 80.0806C77.5957 80.0806 77.7913 79.8462 77.7913 79.5572V75.6157H81.9522C82.2412 75.6157 82.4756 75.376 82.4756 75.087Z" fill="white"/>
<path d="M74.4243 82.2234H69.9012C69.6122 82.2234 69.4192 82.271 69.4192 82.5609V87.084C69.4192 87.373 69.7029 87.6074 69.992 87.6074C70.281 87.6074 70.5647 87.373 70.5647 87.084V83.2809H74.4243C74.7133 83.2809 74.9477 83.0412 74.9477 82.7522C74.9477 82.4631 74.7133 82.2234 74.4243 82.2234Z" fill="white"/>
<path d="M85.016 72.553C85.305 72.553 85.5447 72.3186 85.5447 72.0296V67.8608H89.4792C89.7682 67.8608 90.0026 67.6652 90.0026 67.3761C90.0026 67.0871 89.7682 66.8915 89.4792 66.8915H84.9561C84.6671 66.8915 84.4873 67.2175 84.4873 67.5065V72.0296C84.4873 72.3186 84.727 72.553 85.016 72.553Z" fill="white"/>
<path d="M85.016 80.0815C85.305 80.0815 85.5447 79.8471 85.5447 79.558V75.6166H89.4792C89.7682 75.6166 90.0026 75.3769 90.0026 75.0878C90.0026 74.7988 89.7682 74.5591 89.4792 74.5591H84.9561C84.6671 74.5591 84.4873 74.746 84.4873 75.035V79.558C84.4873 79.8471 84.727 80.0815 85.016 80.0815Z" fill="white"/>
<path d="M48.6684 55.9057L45.7015 55.4572L48.6684 55.9057ZM58.4433 57.6301L55.7134 57.1429L58.4433 57.6301ZM36.8202 53.8869L34.8983 53.5098C34.7459 53.4833 34.5335 53.5071 34.4146 53.6067C34.2956 53.7063 34.1713 53.8358 34.1713 53.9909V90.9482H31.7261C31.4371 90.9482 31 91.0214 31 91.3104V94.6703C31 94.9594 31.4371 95.0889 31.7261 95.0889H96.6202C96.9092 95.0889 97 94.9594 97 94.6703V91.3104C97 91.0214 96.9092 90.9482 96.6202 90.9482H94.2684V62.7868V56.1004C94.2684 55.9136 94.0666 55.7409 93.9044 55.6475C93.7432 55.5541 93.492 55.5532 93.3299 55.6466L86.2453 59.6568C86.0822 59.7502 85.8963 59.9238 85.8963 60.1115V62.3109H70.1233V60.1662C70.1233 59.9124 69.9153 59.6947 69.6651 59.6507L65.5799 58.8973M86.8656 60.4147L93.2101 57.0045V62.3101H86.8656V60.4147ZM64.5032 58.7078L59.4796 57.8002L64.5032 58.7078ZM57.6106 58.58L69.0659 60.605V62.3109H57.6106V58.5809V58.58ZM54.6525 56.9701L49.7065 56.0828L54.6525 56.9701ZM47.8296 56.8406L56.5532 58.3941V62.3109H47.8296V56.8406ZM44.6397 55.2774L37.8582 54.1063L44.6397 55.2774ZM35.2296 54.6156L46.6849 56.6529V62.3092H35.2296V54.6156ZM35.2296 63.3666H93.2109V90.9474H88.012V84.1456C88.012 83.8566 87.664 83.6336 87.3749 83.6336H79.3668C79.0778 83.6336 78.8469 83.8566 78.8469 84.1456V90.9474H35.2296V63.3666ZM86.8665 84.6029V90.9474H83.7824V84.6029H86.8665ZM82.725 84.6029V90.9474H79.9052V84.6029H82.725ZM95.9426 94.1196H32.1455V92.0048H95.9426V94.1196Z" fill="white"/>
<defs>
<filter id="filter0_d_939_10017" x="0" y="2.49976" width="128" height="128" filterUnits="userSpaceOnUse" color-interpolation-filters="sRGB">
<feFlood flood-opacity="0" result="BackgroundImageFix"/>
<feColorMatrix in="SourceAlpha" type="matrix" values="0 0 0 0 0 0 0 0 0 0 0 0 0 0 0 0 0 0 127 0" result="hardAlpha"/>
<feOffset/>
<feGaussianBlur stdDeviation="6"/>
<feComposite in2="hardAlpha" operator="out"/>
<feColorMatrix type="matrix" values="0 0 0 0 0 0 0 0 0 0 0 0 0 0 0 0 0 0 0.25 0"/>
<feBlend mode="normal" in2="BackgroundImageFix" result="effect1_dropShadow_939_10017"/>
<feBlend mode="normal" in="SourceGraphic" in2="effect1_dropShadow_939_10017" result="shape"/>
</filter>
</defs>
</svg>
