<svg width="136" height="137" viewBox="0 0 136 137" fill="none" xmlns="http://www.w3.org/2000/svg">
<g filter="url(#filter0_d_939_9981)">
<circle cx="68" cy="68.5" r="54" fill="#535050"/>
<circle cx="68" cy="68.5" r="55" stroke="white" stroke-width="2"/>
</g>
<path d="M47.905 57.2421C45.6187 57.2421 43.7571 55.3805 43.7571 53.0942C43.7571 50.8079 45.6187 48.9463 47.905 48.9463C50.1913 48.9463 52.0529 50.8079 52.0529 53.0942C52.0529 55.3805 50.1913 57.2421 47.905 57.2421ZM47.905 49.9951C46.1955 49.9951 44.8059 51.3847 44.8059 53.0942C44.8059 54.8037 46.1955 56.1933 47.905 56.1933C49.6145 56.1933 51.0041 54.8037 51.0041 53.0942C51.0041 51.3847 49.6145 49.9951 47.905 49.9951Z" fill="white"/>
<path d="M53.3746 98.5109C52.4988 98.5109 51.7699 97.8292 51.6965 96.9534L47.9104 81.9979L44.8323 96.9377C44.7641 97.8239 44.0352 98.5056 43.1542 98.5056C42.2733 98.5056 41.5181 97.7977 41.4709 96.8905L42.2208 76.3921L43.2696 76.4288L42.5197 96.88C42.5355 97.1789 42.8134 97.4516 43.1542 97.4516C43.4951 97.4516 43.7678 97.1789 43.7887 96.8328C43.7887 96.8066 43.7887 96.7804 43.7992 96.7542L47.3441 79.5437C47.3756 79.3916 47.4752 79.2605 47.6115 79.1871C47.7479 79.1137 47.9104 79.1032 48.0573 79.1609C48.2146 79.2238 48.33 79.3602 48.3719 79.5227L52.7296 96.7332C52.7401 96.7646 52.7453 96.8014 52.7453 96.8328C52.761 97.1789 53.0442 97.4516 53.3798 97.4516C53.7154 97.4516 53.9829 97.1946 54.0143 96.859L52.5618 76.3869L53.6106 76.3135L55.0631 96.8223C55.0631 96.8223 55.0631 96.8643 55.0631 96.8853C55.0159 97.7872 54.2765 98.5004 53.3798 98.5004L53.3746 98.5109Z" fill="white"/>
<path d="M53.1594 75.3751H42.6558C42.3674 75.3751 42.1315 75.1392 42.1315 74.8507V62.1396C42.1315 61.8616 42.1629 61.5785 42.2206 61.2953C41.9427 60.9125 41.5913 60.4196 41.2085 59.827C40.7366 59.0929 40.2961 58.3535 39.908 57.6403C39.6826 57.2418 39.4623 56.817 39.2421 56.3765C39.0795 56.0724 38.9274 55.7473 38.7754 55.4169L38.6076 55.0603C38.2248 54.2318 37.8524 53.3351 37.4959 52.3912C37.391 52.1132 37.2913 51.8301 37.2022 51.5626L37.0606 51.1484C36.9557 50.8599 36.8666 50.5715 36.7879 50.2936L36.704 50.0104C36.6673 49.8793 36.6306 49.764 36.5939 49.6486C36.5257 49.4284 36.4628 49.2239 36.4156 49.0298L36.0538 47.6612C35.8283 46.7802 36.3317 45.873 37.1917 45.5951C38.0937 45.3014 39.069 45.7996 39.3574 46.7015L39.7665 47.9758C39.7665 47.9758 39.7822 48.0282 39.7874 48.0335C39.8346 48.1908 39.8976 48.3586 39.9657 48.5369C40.0077 48.647 40.0496 48.7624 40.0916 48.8778L40.186 49.14C40.2699 49.3707 40.359 49.6171 40.4691 49.8636C40.5268 49.9999 40.5845 50.1363 40.6369 50.2726C40.7313 50.5034 40.831 50.7393 40.9358 50.9806C41.3134 51.8248 41.6962 52.6167 42.079 53.3298L42.2625 53.6707C42.4094 53.9434 42.5562 54.216 42.7188 54.4782C42.939 54.8663 43.1593 55.2334 43.3847 55.5794C43.7675 56.193 44.1923 56.817 44.6538 57.4463C44.8163 57.6718 44.9684 57.871 45.11 58.0546C45.5242 57.9235 45.9542 57.8553 46.3947 57.8553H49.4047C49.84 57.8553 50.27 57.9182 50.679 58.0493C50.8206 57.871 50.9727 57.6665 51.1352 57.4463C51.5967 56.817 52.0214 56.1877 52.399 55.5847C52.6245 55.2334 52.8447 54.8663 53.0597 54.4887C53.2223 54.216 53.3744 53.9434 53.5212 53.6707L53.71 53.3246C54.0875 52.6114 54.4756 51.8248 54.8531 50.9806C54.9633 50.7393 55.0629 50.4981 55.1573 50.2674C55.215 50.131 55.2674 49.9999 55.3251 49.8689C55.4352 49.6119 55.5243 49.3654 55.6135 49.1347L55.7131 48.8673C55.7498 48.7571 55.7918 48.647 55.8337 48.5369C55.9019 48.3586 55.9648 48.1856 56.012 48.0282L56.4263 46.7487L57.4226 47.0739L57.0136 48.3429C56.9612 48.5159 56.893 48.7047 56.8143 48.9092C56.7776 49.0141 56.7357 49.119 56.6937 49.2291L56.5941 49.4913C56.4997 49.743 56.4053 50.0104 56.2847 50.2831C56.2323 50.4037 56.1798 50.5348 56.1274 50.6659C56.0278 50.9124 55.9229 51.1641 55.8075 51.4158C55.4247 52.2758 55.0262 53.0886 54.6329 53.828L54.4441 54.1741C54.2868 54.4625 54.1295 54.7509 53.9617 55.0288C53.7414 55.4116 53.5159 55.7892 53.2852 56.151C52.8972 56.7751 52.4567 57.4201 51.9795 58.0703C51.712 58.4374 51.4708 58.7468 51.2611 59.009C51.1142 59.1925 50.8625 59.2554 50.6475 59.1663C50.2542 58.9985 49.8295 58.9146 49.3995 58.9146H46.3895C45.9542 58.9146 45.5295 58.9985 45.1362 59.1663C44.9212 59.2607 44.6695 59.1925 44.5227 59.0142C44.3129 58.7572 44.0717 58.4426 43.799 58.0755C43.3271 57.4253 42.8866 56.7751 42.4933 56.151C42.2625 55.7944 42.0371 55.4169 41.8116 55.0236C41.649 54.7562 41.4969 54.4677 41.3396 54.1793L41.1561 53.8385C40.7576 53.0938 40.3643 52.281 39.9762 51.4158C39.8608 51.1693 39.7612 50.9176 39.6616 50.6764C39.6091 50.5453 39.5515 50.4142 39.499 50.2831C39.3837 50.0157 39.2893 49.7535 39.1949 49.5018L39.1005 49.2396C39.0585 49.119 39.0166 49.0089 38.9746 48.904C38.9012 48.7047 38.8278 48.5159 38.7754 48.3376L38.3506 47.0214C38.2352 46.6701 37.8577 46.4761 37.5063 46.5862C37.1707 46.6963 36.9767 47.0529 37.0606 47.3937L37.4172 48.7729C37.4591 48.9564 37.5168 49.14 37.5798 49.3392C37.6165 49.4598 37.6532 49.5804 37.6899 49.7115L37.7738 49.9947C37.8524 50.2517 37.9311 50.5191 38.0307 50.797L38.1776 51.227C38.2667 51.4892 38.3559 51.7514 38.4607 52.0241C38.8121 52.947 39.1739 53.8227 39.541 54.6198L39.7088 54.9764C39.8556 55.291 39.9972 55.6004 40.1597 55.8993C40.3747 56.3293 40.5897 56.7383 40.81 57.1316C41.1876 57.8291 41.6123 58.5422 42.0738 59.2554C42.4566 59.8532 42.8079 60.3461 43.0754 60.7132L43.1593 60.8233C43.2589 60.9544 43.3166 61.1485 43.2746 61.3058C43.2012 61.5837 43.1645 61.8616 43.1645 62.1343V74.3211H52.6192V62.1343C52.6192 61.8616 52.5825 61.5785 52.5039 61.3005C52.4619 61.1432 52.4934 60.9754 52.593 60.8443L52.7031 60.7027C52.9601 60.3514 53.3167 59.8532 53.6942 59.2607C54.1557 58.5422 54.5804 57.8291 54.958 57.1421C55.1783 56.7436 55.3933 56.3346 55.603 55.9151C55.7656 55.6057 55.9124 55.291 56.0592 54.9816L56.227 54.6198C56.5889 53.828 56.9559 52.9575 57.302 52.0293C57.3964 51.7829 57.4803 51.5417 57.559 51.3057L58.5501 51.6465C58.4662 51.893 58.377 52.1447 58.2774 52.4017C57.9208 53.3456 57.5485 54.2423 57.1709 55.0603L57.0031 55.4221C56.8511 55.7473 56.699 56.0776 56.5312 56.3923C56.3214 56.817 56.0959 57.2418 55.8704 57.6508C55.4824 58.3587 55.0472 59.0929 54.57 59.8322C54.1924 60.4248 53.8358 60.9177 53.5684 61.29C53.6261 61.5732 53.6575 61.8616 53.6575 62.1448V74.856C53.6575 75.1444 53.4215 75.3804 53.1331 75.3804L53.1594 75.3751Z" fill="white"/>
<path d="M68.2776 57.2421C65.9912 57.2421 64.1296 55.3805 64.1296 53.0942C64.1296 50.8079 65.9912 48.9463 68.2776 48.9463C70.5639 48.9463 72.4255 50.8079 72.4255 53.0942C72.4255 55.3805 70.5639 57.2421 68.2776 57.2421ZM68.2776 49.9951C66.568 49.9951 65.1784 51.3847 65.1784 53.0942C65.1784 54.8037 66.568 56.1933 68.2776 56.1933C69.9871 56.1933 71.3767 54.8037 71.3767 53.0942C71.3767 51.3847 69.9871 49.9951 68.2776 49.9951Z" fill="white"/>
<path d="M73.7471 98.5115C72.8714 98.5115 72.1425 97.8298 72.0691 96.954L68.283 82.0037L65.2048 96.9436C65.1367 97.8298 64.4078 98.5115 63.5268 98.5115C62.6458 98.5115 61.8907 97.8036 61.8435 96.8964L62.5934 76.398L63.6422 76.4347L62.8923 96.8859C62.908 97.1848 63.1859 97.4575 63.5268 97.4575C63.8676 97.4575 64.1403 97.1848 64.1613 96.8387C64.1613 96.8125 64.1613 96.7862 64.1718 96.76L67.7167 79.5496C67.7481 79.3923 67.8478 79.2612 67.9893 79.1877C68.1309 79.1143 68.2987 79.1091 68.4403 79.1773C68.5871 79.2402 68.6973 79.3713 68.7392 79.5286L73.0969 96.739C73.1074 96.7705 73.1126 96.8072 73.1126 96.8387C73.1284 97.1848 73.4115 97.4575 73.7471 97.4575C74.0827 97.4575 74.3502 97.2005 74.3816 96.8649L72.9291 76.3928L73.9779 76.3193L75.4357 96.8282C75.4357 96.8282 75.4357 96.8701 75.4357 96.8911C75.3885 97.7931 74.6491 98.5062 73.7524 98.5062L73.7471 98.5115Z" fill="white"/>
<path d="M73.5319 75.3738H63.0284C62.74 75.3738 62.504 75.1378 62.504 74.8494V62.1382C62.504 61.8603 62.5354 61.5771 62.5931 61.294C62.3152 60.9164 61.9639 60.4182 61.5811 59.8257C61.1091 59.0863 60.6686 58.3521 60.2806 57.639C60.0551 57.2404 59.8348 56.8157 59.6146 56.3752C59.452 56.071 59.3 55.7407 59.1479 55.4156L58.9801 55.0642C58.6025 54.2409 58.2302 53.3442 57.8684 52.3951C57.7583 52.1119 57.6639 51.834 57.5695 51.5613L57.4279 51.1523C57.323 50.8586 57.2339 50.5702 57.15 50.2923L57.0661 50.0143C57.0294 49.8832 56.9927 49.7679 56.9559 49.6578C56.8878 49.4375 56.8249 49.233 56.7777 49.039L56.4211 47.6651C56.1956 46.7841 56.6938 45.8769 57.559 45.599C58.4609 45.3053 59.4363 45.8035 59.7247 46.7054L60.1495 48.0269C60.2019 48.1947 60.2648 48.3625 60.333 48.5408C60.375 48.6509 60.4169 48.7663 60.4589 48.8817L60.5533 49.1439C60.6372 49.3746 60.7263 49.6211 60.8364 49.8675C60.8941 50.0039 60.9465 50.135 61.0042 50.2713C61.0986 50.502 61.1983 50.7432 61.3084 50.9845C61.6859 51.8287 62.0687 52.6153 62.4515 53.3337L62.6403 53.6798C62.7872 53.9525 62.934 54.2252 63.0913 54.4821C63.3115 54.8702 63.5318 55.2373 63.7573 55.5834C64.1401 56.1969 64.5648 56.8262 65.0263 57.4502C65.1889 57.6757 65.3409 57.8749 65.4825 58.0585C65.8968 57.9274 66.3268 57.8592 66.7673 57.8592H69.7773C70.2125 57.8592 70.6425 57.9221 71.0515 58.0532C71.1931 57.8749 71.3452 57.6704 71.5077 57.4502C71.9692 56.8209 72.394 56.1916 72.7715 55.5886C72.997 55.2373 73.2173 54.8702 73.4323 54.4926C73.5948 54.2199 73.7416 53.9473 73.8885 53.6798L74.0773 53.3285C74.4548 52.6153 74.8429 51.8287 75.2152 50.9845C75.3253 50.738 75.4249 50.502 75.5193 50.2661C75.577 50.1297 75.6294 49.9986 75.6871 49.8675C75.7972 49.6158 75.8864 49.3693 75.9703 49.1386L76.0699 48.8659C76.1066 48.7558 76.1538 48.6404 76.1958 48.5303C76.264 48.352 76.3269 48.1842 76.3741 48.0269L76.8041 46.695L77.8004 47.0201L77.3757 48.3415C77.3232 48.5146 77.255 48.7034 77.1764 48.9026C77.1344 49.0075 77.0977 49.1176 77.0558 49.2278L76.9561 49.5004C76.8618 49.7521 76.7674 50.0143 76.652 50.287C76.5996 50.4076 76.5471 50.5387 76.4947 50.6698C76.3951 50.9163 76.2902 51.168 76.1748 51.4197C75.792 52.2797 75.3935 53.0925 75.0002 53.8319L74.8114 54.1832C74.6541 54.4717 74.502 54.7548 74.3342 55.0327C74.114 55.4156 73.8885 55.7931 73.6577 56.1549C73.2697 56.779 72.8292 57.424 72.352 58.0742C72.0846 58.4413 71.8434 58.7507 71.6336 59.0129C71.4868 59.1964 71.2351 59.2593 71.0201 59.1702C70.6268 59.0024 70.202 58.9185 69.772 58.9185H66.762C66.3268 58.9185 65.902 59.0024 65.5087 59.1702C65.2937 59.2646 65.042 59.1964 64.8952 59.0181C64.6854 58.7612 64.4442 58.4465 64.1715 58.0742C63.6996 57.4292 63.2591 56.779 62.8658 56.1497C62.6351 55.7931 62.4096 55.4156 62.1841 55.0223C62.0215 54.7601 61.8695 54.4717 61.7122 54.1832L61.5234 53.8371C61.1248 53.0925 60.7315 52.2797 60.3435 51.4145C60.2281 51.1628 60.1285 50.911 60.0236 50.6646C59.9712 50.5335 59.9187 50.4024 59.8611 50.2765C59.7457 50.0143 59.6513 49.7469 59.5569 49.4952L59.4625 49.233C59.4206 49.1124 59.3786 49.0023 59.3367 48.8974C59.2633 48.6981 59.1898 48.5093 59.1374 48.3311L58.7127 47.0148C58.655 46.8418 58.5396 46.7054 58.377 46.6215C58.2197 46.5376 58.0362 46.5272 57.8631 46.5796C57.5275 46.6897 57.3335 47.0463 57.4174 47.3872L57.774 48.7663C57.8212 48.9498 57.8736 49.1334 57.9366 49.3326C57.9733 49.4532 58.01 49.5739 58.0467 49.6997L58.1306 49.9776C58.2092 50.2346 58.2879 50.5073 58.3928 50.7852L58.5396 51.21C58.6287 51.4721 58.7231 51.7396 58.8228 52.0123C59.1741 52.9404 59.5359 53.8109 59.903 54.608L60.0708 54.9593C60.2176 55.274 60.3645 55.5834 60.5218 55.8875C60.7368 56.3175 60.9518 56.7265 61.172 57.1198C61.5496 57.812 61.9744 58.5252 62.4358 59.2436C62.8186 59.8414 63.1752 60.3343 63.4374 60.6961L63.5213 60.8063C63.6209 60.9374 63.6786 61.1314 63.6367 61.2887C63.5633 61.5666 63.5265 61.8498 63.5265 62.1172V74.304H72.9813V62.1172C72.9813 61.8446 72.9446 61.5614 72.8659 61.2835C72.824 61.1261 72.8554 60.9583 72.9551 60.8272L73.0652 60.6857C73.3221 60.3343 73.6787 59.8362 74.0563 59.2436C74.5177 58.5252 74.9425 57.812 75.3201 57.1251C75.5403 56.7265 75.7553 56.3175 75.9651 55.898C76.1276 55.5886 76.2744 55.2792 76.416 54.9698L76.5891 54.6027C76.9562 53.8057 77.318 52.9352 77.6641 52.0123C77.7585 51.7606 77.8476 51.5141 77.9263 51.2729L78.9174 51.6137C78.8335 51.8654 78.7391 52.1224 78.6394 52.3846C78.2829 53.3232 77.9105 54.2199 77.533 55.0432L77.3599 55.4103C77.2079 55.7354 77.0558 56.0605 76.8932 56.3752C76.6835 56.7999 76.458 57.2247 76.2325 57.6337C75.8444 58.3416 75.4092 59.0758 74.932 59.8152C74.5544 60.4077 74.1979 60.9007 73.9304 61.273C73.9881 61.5561 74.0196 61.8446 74.0196 62.1277V74.8389C74.0196 75.1273 73.7836 75.3633 73.4952 75.3633L73.5319 75.3738Z" fill="white"/>
<path d="M88.6081 57.2421C86.3218 57.2421 84.4602 55.3805 84.4602 53.0942C84.4602 50.8079 86.3218 48.9463 88.6081 48.9463C90.8945 48.9463 92.756 50.8079 92.756 53.0942C92.756 55.3805 90.8945 57.2421 88.6081 57.2421ZM88.6081 49.9951C86.8986 49.9951 85.509 51.3847 85.509 53.0942C85.509 54.8037 86.8986 56.1933 88.6081 56.1933C90.3176 56.1933 91.7073 54.8037 91.7073 53.0942C91.7073 51.3847 90.3176 49.9951 88.6081 49.9951Z" fill="white"/>
<path d="M94.0828 98.5115C93.2071 98.5115 92.4782 97.8298 92.4048 96.954L88.6187 82.0037L85.5405 96.9436C85.4724 97.8298 84.7435 98.5115 83.8625 98.5115C82.9815 98.5115 82.2264 97.8036 82.1792 96.8964L82.9291 76.398L83.9779 76.4347L83.228 96.8859C83.2437 97.1848 83.5216 97.4575 83.8625 97.4575C84.2033 97.4575 84.476 97.1848 84.497 96.8387C84.497 96.8125 84.497 96.7862 84.5075 96.76L88.0524 79.5496C88.0838 79.3923 88.1835 79.2612 88.325 79.1877C88.4666 79.1143 88.6344 79.1091 88.776 79.1773C88.9228 79.2402 89.033 79.3713 89.0749 79.5286L93.4326 96.739C93.4431 96.7705 93.4483 96.8072 93.4483 96.8387C93.4641 97.1848 93.7472 97.4575 94.0828 97.4575C94.4184 97.4575 94.6859 97.2005 94.7173 96.8649L93.2648 76.3928L94.3136 76.3193L95.7661 96.8282C95.7661 96.8282 95.7661 96.8701 95.7661 96.8911C95.7189 97.7931 94.9795 98.5062 94.0828 98.5062V98.5115Z" fill="white"/>
<path d="M93.8678 75.3749H83.3643C83.0759 75.3749 82.8399 75.1389 82.8399 74.8505V62.1393C82.8399 61.8614 82.8714 61.5782 82.9291 61.295C82.6511 60.9175 82.2998 60.4193 81.917 59.8267C81.445 59.0926 81.0046 58.3532 80.6165 57.64C80.391 57.2415 80.1708 56.8168 79.9505 56.3763C79.788 56.0721 79.6359 55.747 79.4838 55.4166L79.316 55.0601C78.9385 54.2368 78.5662 53.3401 78.2043 52.3909C78.0942 52.1077 77.9998 51.8298 77.9054 51.5571L77.7638 51.1481C77.659 50.8544 77.5698 50.566 77.4859 50.2881L77.402 50.0102C77.3653 49.8791 77.3286 49.7637 77.2919 49.6536C77.2237 49.4334 77.1608 49.2288 77.1136 49.0348L76.757 47.6609C76.5315 46.7799 77.0297 45.8728 77.8949 45.5948C78.3354 45.4532 78.7969 45.4899 79.2059 45.6997C79.6149 45.9095 79.9191 46.266 80.0607 46.7013L80.4854 48.0227C80.5379 48.1906 80.6008 48.3584 80.669 48.5419C80.7109 48.652 80.7529 48.7621 80.7948 48.8775L80.8892 49.1345C80.9731 49.3704 81.0622 49.6169 81.1724 49.8634C81.23 49.9997 81.2825 50.1308 81.3402 50.2671C81.4346 50.4979 81.5342 50.7391 81.6443 50.9803C82.0219 51.8246 82.4047 52.6164 82.7875 53.3296L82.971 53.6704C83.1178 53.9431 83.2647 54.2158 83.4272 54.478C83.6475 54.866 83.8677 55.2331 84.0932 55.5792C84.476 56.1927 84.9008 56.8168 85.3622 57.446C85.5248 57.6715 85.6769 57.8708 85.8185 58.0543C86.2327 57.9232 86.6627 57.855 87.1032 57.855H90.1132C90.5484 57.855 90.9784 57.918 91.3875 58.0491C91.529 57.8708 91.6811 57.6663 91.8437 57.446C92.3051 56.8168 92.7299 56.1875 93.1075 55.5844C93.3329 55.2331 93.5532 54.866 93.7682 54.4885C93.9308 54.2158 94.0828 53.9431 94.2297 53.6704L94.4184 53.3243C94.796 52.6112 95.184 51.8246 95.5616 50.9803C95.6717 50.7391 95.7714 50.4979 95.8657 50.2671C95.9234 50.1308 95.9759 49.9945 96.0336 49.8634C96.1437 49.6116 96.2328 49.3652 96.3167 49.1345L96.4164 48.8618C96.4531 48.7516 96.5003 48.6363 96.5422 48.5262C96.6104 48.3479 96.6733 48.1801 96.7205 48.0227C96.7205 48.0227 96.7362 47.9703 96.7415 47.9651L97.1505 46.6908C97.4442 45.7889 98.4143 45.2907 99.3162 45.5843C100.181 45.8623 100.68 46.7695 100.454 47.6504L100.098 49.0348C100.05 49.2184 99.9874 49.4281 99.9245 49.6431C99.8878 49.7585 99.8511 49.8738 99.8196 49.9997L99.7305 50.2934C99.6466 50.566 99.5627 50.8544 99.4526 51.1481L99.311 51.5571C99.2166 51.8298 99.1222 52.1077 99.0121 52.3909C98.6555 53.3296 98.2832 54.2263 97.9056 55.0496L97.7378 55.4114C97.5857 55.7365 97.4337 56.0669 97.2659 56.3815C97.0561 56.8063 96.8306 57.231 96.6051 57.64C96.2223 58.348 95.7818 59.0821 95.3046 59.8215C94.9271 60.4141 94.5757 60.907 94.3031 61.2793C94.3607 61.5625 94.3922 61.8509 94.3922 62.1341V74.8453C94.3922 75.1337 94.1562 75.3696 93.8678 75.3696V75.3749ZM83.8887 74.3261H93.3434V62.1393C93.3434 61.8666 93.3067 61.5835 93.2281 61.3055C93.1861 61.1482 93.2176 60.9804 93.3172 60.8493L93.4273 60.7077C93.6843 60.3564 94.0409 59.8582 94.4184 59.2657C94.8799 58.5472 95.3046 57.8341 95.6822 57.1471C95.9025 56.7486 96.1175 56.3396 96.3272 55.92C96.4898 55.6107 96.6366 55.296 96.7834 54.9866L96.9512 54.6248C97.3183 53.8277 97.6801 52.9573 98.0262 52.0343C98.1311 51.7616 98.2203 51.4942 98.3094 51.2373L98.4562 50.8125C98.5559 50.5346 98.6398 50.2619 98.7132 50.0102L98.8023 49.7165C98.839 49.5959 98.8757 49.4753 98.9124 49.3547C98.9754 49.1554 99.0331 48.9719 99.075 48.7988L99.4316 47.4092C99.5207 47.0631 99.3267 46.7118 98.9859 46.6017C98.6345 46.4863 98.2517 46.6803 98.1416 47.0369L97.7326 48.3112C97.6644 48.5314 97.5962 48.7202 97.5176 48.9195C97.4756 49.0243 97.4389 49.1345 97.397 49.2446L97.2973 49.5173C97.2029 49.769 97.1085 50.0312 96.9932 50.3038C96.9407 50.4297 96.8883 50.5608 96.8306 50.6919C96.731 50.9331 96.6261 51.1848 96.516 51.4365C96.1332 52.2965 95.7346 53.1093 95.3414 53.8487L95.1526 54.1948C94.9953 54.4832 94.8379 54.7716 94.6701 55.0496C94.4499 55.4324 94.2244 55.8099 93.9937 56.1718C93.6056 56.7958 93.1651 57.4408 92.6879 58.091C92.4205 58.4581 92.1793 58.7675 91.9695 59.0297C91.8227 59.2132 91.571 59.2761 91.356 59.187C90.9627 59.0192 90.538 58.9353 90.108 58.9353H87.098C86.6627 58.9353 86.238 59.0192 85.8447 59.187C85.6297 59.2814 85.378 59.2132 85.2311 59.0349C85.0214 58.778 84.7802 58.4633 84.5075 58.0963C84.0355 57.446 83.595 56.7958 83.2018 56.1718C82.971 55.8152 82.7455 55.4376 82.52 55.0443C82.3575 54.7769 82.2054 54.4885 82.0481 54.2001L81.8646 53.8592C81.466 53.1146 81.0727 52.3018 80.6847 51.4365C80.5693 51.1848 80.4697 50.9331 80.37 50.6919C80.3176 50.5608 80.2652 50.4297 80.2075 50.3038C80.0921 50.0364 79.9925 49.769 79.9033 49.5173L79.809 49.2603C79.767 49.1397 79.725 49.0348 79.6883 48.9299C79.6097 48.7254 79.5415 48.5366 79.4838 48.3584L79.0591 47.0474C79.0014 46.8743 78.886 46.738 78.7235 46.6541C78.5609 46.5702 78.3826 46.5597 78.2096 46.6121C77.874 46.7223 77.6799 47.0788 77.7638 47.4197L78.1204 48.7988C78.1676 48.9824 78.2253 49.1659 78.283 49.3652C78.3197 49.4858 78.3564 49.6064 78.3931 49.7323L78.477 50.0102C78.5557 50.2671 78.6343 50.5398 78.7392 50.8177L78.886 51.2425C78.9752 51.5047 79.0696 51.7721 79.1692 52.0448C79.5205 52.973 79.8824 53.8435 80.2494 54.6405L80.4172 54.9971C80.5641 55.3118 80.7057 55.6211 80.8682 55.92C81.0832 56.35 81.2982 56.7591 81.5185 57.1524C81.896 57.8498 82.3208 58.563 82.7822 59.2761C83.165 59.8739 83.5164 60.3669 83.7838 60.7339L83.8939 60.8755C83.9936 61.0066 84.025 61.1744 83.9831 61.3317C83.9097 61.6097 83.873 61.8876 83.873 62.1603V74.3471L83.8887 74.3261Z" fill="white"/>
<defs>
<filter id="filter0_d_939_9981" x="0" y="0.5" width="136" height="136" filterUnits="userSpaceOnUse" color-interpolation-filters="sRGB">
<feFlood flood-opacity="0" result="BackgroundImageFix"/>
<feColorMatrix in="SourceAlpha" type="matrix" values="0 0 0 0 0 0 0 0 0 0 0 0 0 0 0 0 0 0 127 0" result="hardAlpha"/>
<feOffset/>
<feGaussianBlur stdDeviation="6"/>
<feComposite in2="hardAlpha" operator="out"/>
<feColorMatrix type="matrix" values="0 0 0 0 0 0 0 0 0 0 0 0 0 0 0 0 0 0 0.25 0"/>
<feBlend mode="normal" in2="BackgroundImageFix" result="effect1_dropShadow_939_9981"/>
<feBlend mode="normal" in="SourceGraphic" in2="effect1_dropShadow_939_9981" result="shape"/>
</filter>
</defs>
</svg>
