<svg width="136" height="137" viewBox="0 0 136 137" fill="none" xmlns="http://www.w3.org/2000/svg">
<g filter="url(#filter0_d_939_10139)">
<circle cx="68" cy="68.5" r="54" fill="#535050"/>
<circle cx="68" cy="68.5" r="55" stroke="white" stroke-width="2"/>
</g>
<path d="M58.1469 44.0156C54.8361 44.0156 52.1426 41.3221 52.1426 38.0113C52.1426 34.7005 54.8361 32 58.1469 32C61.4577 32 64.1512 34.6935 64.1512 38.0043C64.1512 41.3151 61.4577 44.0086 58.1469 44.0086V44.0156ZM58.1469 33.4029C55.6077 33.4029 53.5455 35.4651 53.5455 38.0043C53.5455 40.5435 55.6077 42.6057 58.1469 42.6057C60.6861 42.6057 62.7483 40.5435 62.7483 38.0043C62.7483 35.4651 60.6861 33.4029 58.1469 33.4029Z" fill="white"/>
<path d="M61.1211 70.7833H50.5434C50.1647 70.7833 49.856 70.4816 49.842 70.1029L49.7578 67.4164C49.7157 67.4514 49.6666 67.4795 49.6245 67.5075C49.1967 67.7811 48.7057 67.9144 48.2076 67.8863C47.4501 67.8512 46.7487 67.4514 46.3278 66.8271L37.4406 56.6774C37.4406 56.6774 37.3985 56.6212 37.3775 56.5932C37.0127 56.025 36.9075 55.3236 37.0829 54.6642C37.2582 54.0119 37.7071 53.4578 38.3104 53.1491L51.1046 45.756C51.4413 45.5596 51.8691 45.6788 52.0655 46.0155C52.2619 46.3522 52.1427 46.7801 51.806 46.9765L38.9767 54.3837C38.6962 54.531 38.5068 54.7624 38.4366 55.036C38.3665 55.2955 38.4016 55.5691 38.5348 55.8006L47.415 65.9363C47.415 65.9363 47.4571 65.9924 47.4781 66.0205C47.6535 66.2941 47.9551 66.4694 48.2778 66.4834C48.4812 66.4905 48.6916 66.4414 48.867 66.3291C49.0915 66.1818 49.2458 65.9574 49.3089 65.6978C49.365 65.4453 49.3229 65.1928 49.1967 64.9683L42.9328 57.3788C42.8066 57.2245 42.7505 57.0211 42.7785 56.8247C42.8066 56.6283 42.9258 56.4529 43.0942 56.3407L49.6456 52.1601C49.9051 51.9918 50.2488 52.0198 50.4803 52.2232C50.6697 52.3846 50.7539 52.6301 50.7118 52.8686L51.2168 69.3874H61.1141C61.4999 69.3874 61.8155 69.703 61.8155 70.0888C61.8155 70.4746 61.4999 70.7903 61.1141 70.7903L61.1211 70.7833ZM44.5111 57.0982L49.6245 63.2919L49.337 54.0119L44.5041 57.0912L44.5111 57.0982Z" fill="white"/>
<path d="M81.6381 45.6572H51.4763V47.0601H81.6381V45.6572Z" fill="white"/>
<path d="M65.8908 70.7821H60.8054V69.3792H65.2034L65.6523 52.7341C65.6594 52.3553 65.975 52.0537 66.3538 52.0537H69.889V53.4566H67.0342L66.5853 70.1017C66.5782 70.4805 66.2626 70.7821 65.8838 70.7821H65.8908Z" fill="white"/>
<path d="M62.8817 104.466C61.6051 104.466 60.553 103.456 60.4828 102.166L58.147 83.2267L56.2461 102.201C56.183 103.456 55.1308 104.466 53.8542 104.466C52.5776 104.466 51.5255 103.456 51.4553 102.166L49.8911 71.9266L51.294 71.8565L52.8582 102.095C52.8862 102.636 53.3211 103.063 53.8542 103.063C54.3873 103.063 54.8222 102.636 54.8503 102.095L57.3754 76.8507C57.3965 76.6332 57.5227 76.4368 57.7121 76.3176C57.9015 76.2054 58.133 76.1843 58.3364 76.2685C58.5749 76.3667 58.7432 76.5841 58.7783 76.8367L61.8857 102.046C61.9208 102.643 62.3556 103.063 62.8817 103.063C63.4078 103.063 63.8497 102.636 63.8778 102.095L65.0211 71.7793L66.424 71.8354L65.2806 102.159C65.2175 103.456 64.1583 104.466 62.8817 104.466Z" fill="white"/>
<path d="M77.8502 44.0156C74.5395 44.0156 71.8459 41.3221 71.8459 38.0113C71.8459 34.7005 74.5395 32 77.8502 32C81.161 32 83.8545 34.6935 83.8545 38.0043C83.8545 41.3151 81.161 44.0086 77.8502 44.0086V44.0156ZM77.8502 33.4029C75.311 33.4029 73.2488 35.4651 73.2488 38.0043C73.2488 40.5435 75.311 42.6057 77.8502 42.6057C80.3894 42.6057 82.4517 40.5435 82.4517 38.0043C82.4517 35.4651 80.3894 33.4029 77.8502 33.4029Z" fill="white"/>
<path d="M85.4539 70.7829H74.8762C74.4905 70.7829 74.1748 70.4672 74.1748 70.0814C74.1748 69.6957 74.4905 69.38 74.8762 69.38H84.7735L85.2856 52.798C85.2785 52.5876 85.3627 52.3772 85.5241 52.2369C85.7555 52.0335 86.0922 51.9984 86.3517 52.1667L92.9032 56.3473C93.0715 56.4525 93.1908 56.6279 93.2188 56.8313C93.2469 57.0277 93.1978 57.2311 93.0645 57.3854L86.8007 64.975C86.6744 65.1924 86.6323 65.452 86.6884 65.7045C86.7445 65.964 86.9059 66.1885 87.1303 66.3358C87.3057 66.448 87.5021 66.5041 87.7195 66.4901C88.0422 66.4761 88.3438 66.3007 88.5192 66.0271C88.5402 65.9991 88.5613 65.971 88.5823 65.943L97.4625 55.8072C97.5958 55.5757 97.6308 55.3022 97.5607 55.0426C97.4835 54.7691 97.3012 54.5376 97.0487 54.4113L84.1913 46.9831C83.8546 46.7867 83.7424 46.3589 83.9318 46.0222C84.1282 45.6855 84.5561 45.5732 84.8928 45.7626L97.715 53.1698C98.2902 53.4644 98.7321 54.0115 98.9145 54.6709C99.0898 55.3232 98.9846 56.0247 98.6199 56.5998C98.5988 56.6279 98.5778 56.6559 98.5567 56.684L89.6695 66.8268C89.2487 67.4581 88.5472 67.8509 87.7897 67.8859C87.2847 67.907 86.8007 67.7807 86.3728 67.5072C86.3237 67.4791 86.2816 67.444 86.2395 67.416L86.1553 70.1025C86.1413 70.4813 85.8327 70.7829 85.4539 70.7829ZM86.6534 54.0115L86.3658 63.2915L91.4792 57.0978L86.6464 54.0185L86.6534 54.0115Z" fill="white"/>
<path d="M84.5209 45.6572H54.3591V47.0601H84.5209V45.6572Z" fill="white"/>
<path d="M75.192 70.7821H70.1066C69.7278 70.7821 69.4121 70.4805 69.4051 70.1017L68.9562 53.4566H66.1575V52.0537H69.6366C70.0154 52.0537 70.331 52.3553 70.338 52.7341L70.787 69.3792H75.185V70.7821H75.192Z" fill="white"/>
<path d="M82.1362 104.466C80.8595 104.466 79.8074 103.456 79.7372 102.166L77.8434 83.2269L75.5006 102.215C75.4374 103.456 74.3853 104.466 73.1087 104.466C71.832 104.466 70.7799 103.456 70.7097 102.166L69.5664 71.8286L70.9693 71.7725L72.1126 102.096C72.1407 102.629 72.5756 103.057 73.1087 103.057C73.6418 103.057 74.0766 102.629 74.1047 102.089L77.2121 76.8298C77.2401 76.5773 77.4085 76.3599 77.647 76.2617C77.8504 76.1775 78.0818 76.1985 78.2712 76.3108C78.4606 76.423 78.5869 76.6194 78.6079 76.8368L81.1331 102.046C81.1612 102.622 81.6031 103.05 82.1291 103.05C82.6552 103.05 83.0971 102.622 83.1252 102.082L84.6894 71.8426L86.0923 71.9127L84.5281 102.152C84.4649 103.442 83.4058 104.452 82.1291 104.452L82.1362 104.466Z" fill="white"/>
<defs>
<filter id="filter0_d_939_10139" x="0" y="0.5" width="136" height="136" filterUnits="userSpaceOnUse" color-interpolation-filters="sRGB">
<feFlood flood-opacity="0" result="BackgroundImageFix"/>
<feColorMatrix in="SourceAlpha" type="matrix" values="0 0 0 0 0 0 0 0 0 0 0 0 0 0 0 0 0 0 127 0" result="hardAlpha"/>
<feOffset/>
<feGaussianBlur stdDeviation="6"/>
<feComposite in2="hardAlpha" operator="out"/>
<feColorMatrix type="matrix" values="0 0 0 0 0 0 0 0 0 0 0 0 0 0 0 0 0 0 0.25 0"/>
<feBlend mode="normal" in2="BackgroundImageFix" result="effect1_dropShadow_939_10139"/>
<feBlend mode="normal" in="SourceGraphic" in2="effect1_dropShadow_939_10139" result="shape"/>
</filter>
</defs>
</svg>
