<svg width="155" height="155" viewBox="0 0 155 155" fill="none" xmlns="http://www.w3.org/2000/svg">
<g filter="url(#filter0_d_939_9993)">
<circle cx="77.5" cy="77.5" r="65.5" fill="#F88D2A"/>
<circle cx="77.5" cy="77.5" r="64.5" stroke="white" stroke-width="2"/>
</g>
<path d="M55.608 125.695C54.404 125.695 53.508 125.443 52.528 124.967L53.256 123.259C53.956 123.623 54.6 123.791 55.524 123.791C56.812 123.791 57.624 123.119 58.492 121.075L51.912 106.655L54.292 106.655L59.556 118.723L64.204 106.655L66.5 106.655L60.424 121.607C59.192 124.603 57.792 125.695 55.608 125.695ZM75.6713 121.467C71.3313 121.467 68.1673 118.051 68.1673 113.963L68.1673 113.907C68.1673 109.819 71.3593 106.347 75.7273 106.347C80.0673 106.347 83.2593 109.763 83.2593 113.851L83.2593 113.907C83.2593 117.995 80.0393 121.467 75.6713 121.467ZM75.7273 119.535C78.8633 119.535 81.0473 117.015 81.0473 113.963L81.0473 113.907C81.0473 110.799 78.7233 108.251 75.6713 108.251C72.5353 108.251 70.3793 110.799 70.3793 113.851L70.3793 113.907C70.3793 117.015 72.6753 119.535 75.7273 119.535ZM92.4848 121.439C88.9848 121.439 86.9408 119.087 86.9408 115.643L86.9408 106.655L89.0968 106.655L89.0968 115.111C89.0968 117.799 90.5528 119.479 93.1008 119.479C95.5648 119.479 97.4408 117.659 97.4408 114.943L97.4408 106.655L99.5688 106.655L99.5688 121.131L97.4408 121.131L97.4408 118.611C96.4608 120.179 94.9768 121.439 92.4848 121.439Z" fill="white"/>
<path d="M79.1821 56C73.3921 56 68.6821 51.29 68.6821 45.5C68.6821 39.71 73.3921 35 79.1821 35C84.9721 35 89.6821 39.71 89.6821 45.5C89.6821 51.29 84.9721 56 79.1821 56ZM79.1821 37C74.4921 37 70.6821 40.81 70.6821 45.5C70.6821 50.19 74.4921 54 79.1821 54C83.8721 54 87.6821 50.19 87.6821 45.5C87.6821 40.81 83.8621 37 79.1821 37Z" fill="#EDEDED"/>
<path d="M73.6422 89.3704C72.6122 89.3704 71.5822 89.0304 70.7222 88.3404L58.5422 78.5304C55.6722 76.2604 55.1522 72.0604 57.3922 69.1604L62.3122 62.7904C64.4322 60.0404 67.7822 58.4004 71.2622 58.4004H80.7922L80.7422 60.4004H80.5022H71.2722C68.4122 60.4004 65.6522 61.7504 63.9122 64.0204L58.9922 70.3904C57.4222 72.4304 57.7822 75.3804 59.8022 76.9804L71.9822 86.8004C73.0822 87.6904 74.6822 87.5604 75.6222 86.5004C76.1022 85.9604 76.3422 85.2604 76.2822 84.5404C76.2222 83.8204 75.8922 83.1604 75.3322 82.7004L63.9922 73.3304L65.2622 71.7904L76.6022 81.1604C77.5822 81.9704 78.1822 83.1204 78.2822 84.3904C78.3822 85.6604 77.9622 86.8904 77.1222 87.8404C76.2022 88.8704 74.9322 89.4004 73.6522 89.4004L73.6422 89.3704Z" fill="#EDEDED"/>
<path d="M84.9523 92.3604C84.0123 92.3604 83.0623 92.0604 82.2623 91.4504C81.3023 90.7204 80.6923 89.6504 80.5523 88.4504C80.4123 87.2504 80.7523 86.0704 81.5123 85.1304L92.2123 71.9204L93.7623 73.1804L83.0623 86.3904C82.6423 86.9104 82.4523 87.5604 82.5323 88.2204C82.6123 88.8804 82.9423 89.4704 83.4723 89.8704C84.4923 90.6504 85.9523 90.5004 86.7923 89.5404L97.6823 77.1004C99.2923 75.3404 100.382 72.6604 98.6223 70.3904L93.7023 64.0204C91.9523 61.7504 89.2023 60.4004 86.3423 60.4004H76.8623L76.8123 58.4004H77.1123H86.3423C89.8223 58.4004 93.1623 60.0404 95.2923 62.7904L100.212 69.1604C102.282 71.8404 101.872 75.4804 99.1723 78.4304L88.3023 90.8504C87.4323 91.8504 86.1923 92.3604 84.9523 92.3604Z" fill="#EDEDED"/>
<path d="M63.9023 64.0104L62.3223 62.7904C64.4423 60.0404 67.7923 58.4004 71.2723 58.4004H80.8023L80.7523 60.4004H80.5123H71.2823C68.4223 60.4004 65.6623 61.7504 63.9223 64.0204L63.9023 64.0104Z" fill="#EDEDED"/>
<defs>
<filter id="filter0_d_939_9993" x="0" y="0" width="155" height="155" filterUnits="userSpaceOnUse" color-interpolation-filters="sRGB">
<feFlood flood-opacity="0" result="BackgroundImageFix"/>
<feColorMatrix in="SourceAlpha" type="matrix" values="0 0 0 0 0 0 0 0 0 0 0 0 0 0 0 0 0 0 127 0" result="hardAlpha"/>
<feOffset/>
<feGaussianBlur stdDeviation="6"/>
<feComposite in2="hardAlpha" operator="out"/>
<feColorMatrix type="matrix" values="0 0 0 0 0 0 0 0 0 0 0 0 0 0 0 0 0 0 0.25 0"/>
<feBlend mode="normal" in2="BackgroundImageFix" result="effect1_dropShadow_939_9993"/>
<feBlend mode="normal" in="SourceGraphic" in2="effect1_dropShadow_939_9993" result="shape"/>
</filter>
</defs>
</svg>
