<svg width="136" height="137" viewBox="0 0 136 137" fill="none" xmlns="http://www.w3.org/2000/svg">
<g filter="url(#filter0_d_939_10114)">
<circle cx="68" cy="68.5" r="54" fill="#535050"/>
<circle cx="68" cy="68.5" r="55" stroke="white" stroke-width="2"/>
</g>
<path d="M53.6089 104.349C53.6089 104.349 53.5811 104.349 53.5699 104.349H42V103.236H53.0524V93.408C53.0524 93.1019 53.3028 92.8515 53.6089 92.8515H63.4537V83.0067C63.4537 82.7006 63.7041 82.4502 64.0102 82.4502H95.5868V83.5632H64.5667V93.3968C64.5667 93.5694 64.4888 93.7308 64.3496 93.8365C64.2495 93.9144 64.1159 93.9645 63.9935 93.9645H54.1599V103.798C54.1599 104.104 53.9094 104.355 53.6033 104.355L53.6089 104.349Z" fill="white"/>
<path d="M59.4078 61.6742C57.2207 61.6742 55.3063 60.0547 55.0057 57.8286C54.6774 55.4022 56.3859 53.1539 58.8123 52.8256C61.2443 52.4972 63.487 54.2057 63.8154 56.6321C64.1437 59.0585 62.4352 61.3069 60.0088 61.6352C59.8085 61.663 59.6081 61.6742 59.4078 61.6742ZM59.4078 53.8941C59.2575 53.8941 59.1073 53.9052 58.957 53.9219C57.1372 54.1668 55.8572 55.853 56.1021 57.6728C56.3469 59.4926 58.0276 60.7726 59.853 60.5277C61.6728 60.2829 62.9528 58.5966 62.7079 56.7768C62.4797 55.1073 61.0495 53.8941 59.4078 53.8941Z" fill="white"/>
<path d="M45.2611 103.841C45.1776 103.841 45.0942 103.836 45.0107 103.824C44.0535 103.696 43.3634 102.839 43.4469 101.877L44.1314 93.4788C44.1926 92.7275 44.1425 91.9707 43.9923 91.2305L42.2448 82.9162C41.7996 80.8014 42.089 78.5754 43.0462 76.6387L43.2187 76.2881L44.2149 76.7834L44.0423 77.134C43.1909 78.8425 42.9404 80.8181 43.33 82.6824L45.0775 90.9968C45.2555 91.8427 45.3112 92.7053 45.2388 93.5623L44.5543 101.96C44.5265 102.333 44.7881 102.667 45.1609 102.717C45.5338 102.767 45.8844 102.517 45.9512 102.144L47.5261 93.4454C47.6764 92.6107 47.771 91.7648 47.8099 90.9189L48.1661 82.9551C48.1772 82.6546 48.4332 82.4098 48.7338 82.4265L56.9646 82.6268C57.9997 82.6491 58.8234 83.4504 58.8846 84.48L59.3242 91.7369C59.3465 92.1321 59.6748 92.4437 60.07 92.4493H60.0811C60.2814 92.4493 60.4651 92.3714 60.6098 92.2322C60.7545 92.0931 60.838 91.8983 60.838 91.698L60.9047 81.447C60.9103 80.5621 60.2258 79.8387 59.3465 79.7997L52.2676 79.4602L52.3233 78.3472L59.4022 78.6867C60.8825 78.759 62.0345 79.9722 62.0233 81.4525L61.9566 91.7036C61.9566 92.2044 61.7562 92.6775 61.3945 93.0281C61.0439 93.3731 60.582 93.5623 60.0867 93.5623H60.0588C59.0849 93.5512 58.278 92.7776 58.2168 91.8093L57.7771 84.5523C57.7493 84.1016 57.3876 83.7565 56.9424 83.7454L49.2569 83.5617L48.923 90.9801C48.884 91.8761 48.7838 92.7721 48.6225 93.6569L47.0475 102.355C46.8861 103.235 46.1293 103.847 45.2611 103.847V103.841Z" fill="white"/>
<path d="M52.3902 79.4711C52.3067 79.4711 52.2232 79.4544 52.1509 79.4154L44.0926 75.5477C43.8421 75.4252 43.7197 75.1358 43.8032 74.8743C45.6285 69.3147 49.5408 64.8013 52.5015 61.9909C53.6535 60.8946 55.4566 60.839 56.6865 61.8574L57.8886 62.8535C58.306 63.1986 58.8402 63.3377 59.3633 63.2431L63.3814 62.4862C64.6447 62.2469 65.8356 61.7739 66.9152 61.0783L71.206 58.3124C71.9684 57.8227 72.9924 57.9673 73.5378 58.6407C73.8439 59.0247 73.9719 59.52 73.8939 59.9986C73.816 60.4772 73.5322 60.9057 73.1204 61.1673L68.262 64.2671C67.1156 64.9961 65.8746 65.5415 64.5612 65.8866L59.1018 67.3279C58.4173 67.5116 57.8051 67.9178 57.3766 68.4855C55.6013 70.834 53.3919 74.5571 52.9411 78.9702C52.9245 79.1483 52.8187 79.3097 52.6573 79.3987C52.5738 79.4433 52.4792 79.4711 52.3846 79.4711H52.3902ZM45.0164 74.7574L51.9339 78.0742C52.5738 73.7501 54.7331 70.1328 56.4917 67.8121C57.0705 67.0497 57.8997 66.4932 58.8235 66.2483L64.2829 64.8069C65.4794 64.4897 66.6203 63.9944 67.6665 63.3266L72.5249 60.2268C72.6696 60.1322 72.7698 59.9875 72.7976 59.815C72.8254 59.6425 72.7809 59.4755 72.6696 59.3364C72.4804 59.1026 72.0964 59.0637 71.8126 59.2473L67.5218 62.0132C66.3198 62.7868 64.9953 63.3155 63.5928 63.577L59.5748 64.3339C58.7233 64.4953 57.8552 64.2671 57.1929 63.7161L55.9853 62.7144C55.1839 62.0522 54.0208 62.0911 53.2751 62.7979C50.9933 64.9627 46.9419 69.3481 45.0275 74.7574H45.0164Z" fill="white"/>
<path d="M76.0476 83.4515C75.9808 83.4515 75.914 83.4515 75.8528 83.4404C75.3519 83.3847 74.9067 83.1287 74.6006 82.7336C74.3001 82.3385 74.1666 81.8265 74.2445 81.3368L75.6525 72.5717C75.8361 71.6812 76.1311 70.852 76.5651 70.0395C76.6709 69.8392 76.7877 69.6444 76.9046 69.4552L82.275 61.3968C82.3084 61.3412 82.3418 61.2855 82.3752 61.2299L83.3546 61.753C83.3101 61.842 83.2545 61.9255 83.1988 62.009L77.834 70.0562C77.7338 70.2176 77.6336 70.3901 77.539 70.5626C77.1606 71.275 76.899 72.004 76.7377 72.7776L76.2702 75.6714L75.3408 81.5037C75.313 81.6985 75.3631 81.8988 75.4799 82.0547C75.5968 82.2105 75.7749 82.3107 75.9697 82.3329C76.3258 82.3775 76.6653 82.1048 76.7599 81.7263L78.819 73.4788C78.819 73.4788 78.8302 73.4398 78.8357 73.4231C78.8524 73.3563 78.8691 73.2951 78.8802 73.2506C79.0361 72.7275 79.2921 72.1877 79.5926 71.7369C79.6705 71.62 79.754 71.5031 79.8374 71.3918L84.1449 66.0048C85.4249 64.402 86.6214 63.3057 86.6715 63.2556C86.8607 63.0831 87.1389 63.0608 87.3504 63.1999C87.5619 63.3391 87.6565 63.6006 87.573 63.8455L86.1595 68.075C86.037 68.4089 85.8979 68.9376 85.8589 69.3327C85.7643 70.2454 85.9202 71.1859 86.2986 71.9818C86.3876 72.171 86.4878 72.3546 86.6325 72.5772L87.4339 73.796C87.7734 74.3358 88.1017 74.8868 88.4189 75.4433C89.0033 76.4784 89.5264 77.5246 89.9271 78.4763C90.2777 79.2944 90.5726 80.0902 90.7563 80.7135C90.8119 80.8804 90.8564 81.0418 90.8954 81.1754L91.0178 81.6206C91.0679 81.8042 91.2015 81.9656 91.3684 82.0547C91.541 82.1493 91.7413 82.166 91.9361 82.0992C92.2644 81.9935 92.4703 81.6095 92.4036 81.2255L92.3312 80.8415C92.309 80.7023 92.2756 80.5298 92.231 80.335C92.0863 79.6338 91.847 78.7601 91.5577 77.8586C91.2182 76.8179 90.7674 75.6603 90.2498 74.5195C89.9716 73.9017 89.6711 73.2896 89.3706 72.6997L88.6304 71.3251C88.5636 71.1859 88.5191 71.0858 88.4857 70.9745C88.3466 70.5793 88.3243 70.1063 88.4189 69.6611C88.4801 69.4218 88.5191 69.3327 88.6304 69.0712L91.797 61.8253C91.8137 61.7808 91.8359 61.7307 91.8526 61.6807C91.8693 61.6417 92.1754 60.8626 92.1476 59.5047L93.2606 59.4824C93.294 61.0963 92.91 62.0368 92.8933 62.0758C92.8822 62.1147 92.8488 62.1927 92.8209 62.265L89.6711 69.4719C89.5486 69.7557 89.5375 69.778 89.5041 69.9115C89.454 70.1397 89.4652 70.4013 89.5431 70.6239C89.5653 70.7018 89.5987 70.7574 89.621 70.8186L90.3556 72.1821C90.6672 72.7943 90.9733 73.4231 91.2627 74.0576C91.797 75.2374 92.2644 76.4339 92.615 77.5135C92.9211 78.4485 93.1716 79.3667 93.3162 80.0902C93.3663 80.2961 93.3997 80.4853 93.4275 80.6411L93.4943 81.0196C93.6668 81.9545 93.1437 82.8728 92.2811 83.151C91.797 83.3068 91.2905 83.2623 90.8453 83.0286C90.4057 82.7948 90.0773 82.3886 89.9438 81.9155L89.8659 81.6317C89.8547 81.5872 89.838 81.526 89.8158 81.4536C89.7879 81.3423 89.749 81.1976 89.6933 81.0418C89.5876 80.6856 89.3483 79.9566 88.8975 78.9048C88.508 77.9921 88.0071 76.9793 87.445 75.9831C87.1389 75.4433 86.8217 74.9035 86.4934 74.3859L85.6976 73.1783C85.5195 72.9 85.3915 72.6718 85.2857 72.4437C84.8238 71.4698 84.629 70.3178 84.7459 69.2103C84.796 68.6482 84.9963 67.9915 85.1021 67.6966L85.7254 65.8267C85.4916 66.0938 85.2523 66.3832 85.0075 66.6893L80.7056 72.0708C80.6388 72.1543 80.572 72.2489 80.5108 72.3435C80.2771 72.6997 80.0656 73.1449 79.9376 73.5623C79.9321 73.5845 79.9265 73.6012 79.9154 73.6235V73.6624C79.9042 73.6903 79.8931 73.7236 79.8875 73.7459L77.8284 81.9879C77.6114 82.8449 76.8601 83.446 76.0253 83.446L76.0476 83.4515Z" fill="white"/>
<path d="M80.9727 43.3938C78.8913 43.3938 77.027 41.9246 76.6152 39.8043C76.1421 37.4002 77.7171 35.0572 80.1212 34.5842C81.2843 34.356 82.4697 34.5953 83.4547 35.2576C84.4398 35.9198 85.1076 36.9271 85.3358 38.0902C85.5639 39.2533 85.3246 40.4387 84.6624 41.4238C84.0001 42.4088 82.9928 43.0766 81.8297 43.3048C81.5403 43.3604 81.2565 43.3883 80.9727 43.3883V43.3938ZM80.9783 35.6137C80.7612 35.6137 80.5442 35.636 80.3271 35.675C79.4534 35.8475 78.7021 36.3483 78.2012 37.0885C77.7059 37.8287 77.5279 38.7135 77.7004 39.5873C78.0566 41.3904 79.804 42.5702 81.6127 42.214C82.4864 42.0415 83.2377 41.5406 83.7386 40.8005C84.2339 40.0603 84.412 39.1754 84.2394 38.3017C84.0669 37.428 83.5661 36.6767 82.8259 36.1758C82.2694 35.803 81.6294 35.6082 80.9727 35.6082L80.9783 35.6137Z" fill="white"/>
<path d="M73.4932 60.8293L72.7196 60.0279L77.066 55.8095C77.9286 54.9358 78.6576 53.9285 79.2197 52.821L80.2827 50.7286C80.3828 50.5282 80.6054 50.4113 80.828 50.428C81.0562 50.4447 81.2454 50.6006 81.3122 50.8176C82.3807 54.268 83.1598 57.941 83.4381 59.3156L91.886 57.468C91.3851 55.9876 90.0217 51.9696 88.7139 48.3801C88.636 48.1686 88.6916 47.9348 88.8586 47.7846C89.02 47.6343 89.2593 47.5954 89.4652 47.6844L91.1737 48.4524C92.4703 49.1425 93.5722 50.0385 94.4905 51.1348L97.7628 55.0527C97.9798 55.3142 98.3583 55.3921 98.6087 55.2196C98.7534 55.1195 98.848 54.9692 98.8703 54.7967C98.8925 54.6242 98.848 54.4572 98.7311 54.3236L95.0192 49.9216C94.2178 48.9755 93.2829 48.1575 92.231 47.5008L86.9386 44.4455C86.8996 44.4344 86.8607 44.4121 86.8273 44.3898C86.3709 44.1005 85.82 44.0337 85.3191 44.2006L81.8131 45.386C81.1954 45.5919 80.7056 46.0705 80.4663 46.6938C80.4496 46.7272 80.4329 46.7606 80.4162 46.794L78.1512 51.8917C77.6003 53.1995 76.8044 54.3793 75.7972 55.3922L72.1909 59.0039L71.4062 58.2192L75.0125 54.6075C75.9196 53.7003 76.6375 52.6374 77.1328 51.452L79.4368 46.2709C79.4368 46.2709 79.459 46.2319 79.4702 46.2097C79.843 45.3192 80.5665 44.6403 81.4625 44.3398L84.9685 43.1544C85.7532 42.8873 86.6102 42.9763 87.3337 43.3993C87.3615 43.4104 87.3894 43.4215 87.4172 43.4382L92.8098 46.5491C93.9729 47.2782 95.0025 48.1686 95.8762 49.2093L99.5882 53.6113C99.8998 53.9842 100.045 54.4739 99.9777 54.9581C99.911 55.4422 99.6383 55.8763 99.232 56.149C98.5141 56.6332 97.4957 56.4662 96.9113 55.7706L93.639 51.8527C92.8154 50.8677 91.8248 50.0607 90.6895 49.4597L90.2165 49.2482C91.7024 53.3943 93.1326 57.6683 93.1437 57.7128C93.1938 57.8631 93.1771 58.0245 93.0992 58.1636C93.0213 58.3027 92.8877 58.3973 92.7319 58.4307L83.1209 60.5288C82.9762 60.5622 82.8204 60.5288 82.6924 60.4509C82.5644 60.3674 82.4809 60.2394 82.4531 60.0891C82.4475 60.0502 81.7407 56.3271 80.6444 52.4816L80.2103 53.333C79.5926 54.5407 78.7968 55.6426 77.8451 56.6054L73.4876 60.8349L73.4932 60.8293Z" fill="white"/>
<defs>
<filter id="filter0_d_939_10114" x="0" y="0.5" width="136" height="136" filterUnits="userSpaceOnUse" color-interpolation-filters="sRGB">
<feFlood flood-opacity="0" result="BackgroundImageFix"/>
<feColorMatrix in="SourceAlpha" type="matrix" values="0 0 0 0 0 0 0 0 0 0 0 0 0 0 0 0 0 0 127 0" result="hardAlpha"/>
<feOffset/>
<feGaussianBlur stdDeviation="6"/>
<feComposite in2="hardAlpha" operator="out"/>
<feColorMatrix type="matrix" values="0 0 0 0 0 0 0 0 0 0 0 0 0 0 0 0 0 0 0.25 0"/>
<feBlend mode="normal" in2="BackgroundImageFix" result="effect1_dropShadow_939_10114"/>
<feBlend mode="normal" in="SourceGraphic" in2="effect1_dropShadow_939_10114" result="shape"/>
</filter>
</defs>
</svg>
