<svg width="136" height="137" viewBox="0 0 136 137" fill="none" xmlns="http://www.w3.org/2000/svg">
<g filter="url(#filter0_d_939_10124)">
<circle cx="68" cy="68.5" r="54" fill="#C10230"/>
<circle cx="68" cy="68.5" r="55" stroke="white" stroke-width="2"/>
</g>
<path d="M68.5898 74.0739C64.9875 74.0739 62.0635 71.1424 62.0635 67.5476C62.0635 63.9528 64.995 61.0213 68.5898 61.0213C72.1846 61.0213 75.1161 63.9528 75.1161 67.5476C75.1161 71.1424 72.1846 74.0739 68.5898 74.0739ZM68.5898 62.5285C65.824 62.5285 63.5707 64.7818 63.5707 67.5476C63.5707 70.3134 65.824 72.5667 68.5898 72.5667C71.3556 72.5667 73.6089 70.3134 73.6089 67.5476C73.6089 64.7818 71.3556 62.5285 68.5898 62.5285Z" fill="#EDEDED"/>
<path d="M76.8194 89.9828H60.2172C59.8028 89.9828 59.4636 89.6437 59.4636 89.2292V82.1904C59.4636 78.7464 62.2671 75.9429 65.7111 75.9429H71.3256C74.7696 75.9429 77.5731 78.7464 77.5731 82.1904V89.2292C77.5731 89.6437 77.2339 89.9828 76.8194 89.9828ZM60.9709 88.4756H76.0658V82.1904C76.0658 79.5753 73.9406 77.4501 71.3256 77.4501H65.7111C63.0961 77.4501 60.9709 79.5753 60.9709 82.1904V88.4756Z" fill="#EDEDED"/>
<path d="M68.5898 43.5527C64.9875 43.5527 62.0635 40.6211 62.0635 37.0263C62.0635 33.4316 64.9875 30.5 68.5898 30.5C72.1921 30.5 75.1161 33.4316 75.1161 37.0263C75.1161 40.6211 72.1846 43.5527 68.5898 43.5527ZM68.5898 32.0072C65.824 32.0072 63.5707 34.2606 63.5707 37.0263C63.5707 39.7921 65.824 42.0454 68.5898 42.0454C71.3556 42.0454 73.6089 39.7921 73.6089 37.0263C73.6089 34.2606 71.3556 32.0072 68.5898 32.0072Z" fill="#EDEDED"/>
<path d="M76.8194 59.4615H60.2172C59.8028 59.4615 59.4636 59.1224 59.4636 58.7079V51.6691C59.4636 48.2251 62.2671 45.4216 65.7111 45.4216H71.3256C74.7696 45.4216 77.5731 48.2251 77.5731 51.6691V58.7079C77.5731 59.1224 77.2339 59.4615 76.8194 59.4615ZM60.9709 57.9543H76.0658V51.6691C76.0658 49.0541 73.9406 46.9289 71.3256 46.9289H65.7111C63.0961 46.9289 60.9709 49.0541 60.9709 51.6691V57.9543Z" fill="#EDEDED"/>
<path d="M50.1262 59.0022C46.5239 59.0022 43.5999 56.0706 43.5999 52.4759C43.5999 48.8811 46.5314 45.9495 50.1262 45.9495C53.7209 45.9495 56.6525 48.8811 56.6525 52.4759C56.6525 56.0706 53.7209 59.0022 50.1262 59.0022ZM50.1262 47.4568C47.3604 47.4568 45.1071 49.7101 45.1071 52.4759C45.1071 55.2416 47.3604 57.4949 50.1262 57.4949C52.892 57.4949 55.1453 55.2416 55.1453 52.4759C55.1453 49.7101 52.892 47.4568 50.1262 47.4568Z" fill="#EDEDED"/>
<path d="M54.0828 74.9486C52.8393 74.9486 51.4376 74.9486 50.0434 74.9486C45.8985 74.941 41.7536 74.9184 41.7536 74.9184C41.3391 74.9184 41 74.5793 41 74.1648V67.126C41 63.682 43.8035 60.8785 47.2475 60.8785H52.8619C56.306 60.8785 59.1094 63.682 59.1094 67.126V74.1648C59.1094 74.2628 59.0868 74.3608 59.0491 74.4587C58.9135 74.7853 57.8132 74.9511 55.7483 74.9561C55.2434 74.9561 54.6782 74.9561 54.0828 74.9561V74.9486ZM42.5072 73.4112C47.9484 73.4338 55.3338 73.4564 57.6022 73.4338V67.126C57.6022 64.511 55.477 62.3858 52.8619 62.3858H47.2475C44.6324 62.3858 42.5072 64.511 42.5072 67.126V73.4187V73.4112Z" fill="#EDEDED"/>
<path d="M86.6767 59.0022C83.0744 59.0022 80.1504 56.0706 80.1504 52.4759C80.1504 48.8811 83.082 45.9495 86.6767 45.9495C90.2715 45.9495 93.203 48.8811 93.203 52.4759C93.203 56.0706 90.2715 59.0022 86.6767 59.0022ZM86.6767 47.4568C83.9109 47.4568 81.6576 49.7101 81.6576 52.4759C81.6576 55.2416 83.9109 57.4949 86.6767 57.4949C89.4425 57.4949 91.6958 55.2416 91.6958 52.4759C91.6958 49.7101 89.4425 47.4568 86.6767 47.4568Z" fill="#EDEDED"/>
<path d="M94.9061 74.9111H78.3039C77.8894 74.9111 77.5503 74.5719 77.5503 74.1574V67.1186C77.5503 63.6746 80.3538 60.8712 83.7978 60.8712H89.4122C92.8563 60.8712 95.6597 63.6746 95.6597 67.1186V74.1574C95.6597 74.5719 95.3206 74.9111 94.9061 74.9111ZM79.0575 73.4038H94.1525V67.1186C94.1525 64.5036 92.0273 62.3784 89.4122 62.3784H83.7978C81.1827 62.3784 79.0575 64.5036 79.0575 67.1186V73.4038Z" fill="#EDEDED"/>
<path d="M50.1262 89.5911C46.5239 89.5911 43.5999 86.6596 43.5999 83.0648C43.5999 79.4701 46.5314 76.5385 50.1262 76.5385C53.7209 76.5385 56.6525 79.4701 56.6525 83.0648C56.6525 86.6596 53.7209 89.5911 50.1262 89.5911ZM50.1262 78.0457C47.3604 78.0457 45.1071 80.299 45.1071 83.0648C45.1071 85.8306 47.3604 88.0839 50.1262 88.0839C52.892 88.0839 55.1453 85.8306 55.1453 83.0648C55.1453 80.299 52.892 78.0457 50.1262 78.0457Z" fill="#EDEDED"/>
<path d="M58.3558 105.5H41.7536C41.3391 105.5 41 105.161 41 104.746V97.7076C41 94.2636 43.8035 91.4601 47.2475 91.4601H52.8619C56.306 91.4601 59.1094 94.2636 59.1094 97.7076V104.746C59.1094 105.161 58.7703 105.5 58.3558 105.5ZM42.5072 103.993H57.6022V97.7076C57.6022 95.0926 55.477 92.9673 52.8619 92.9673H47.2475C44.6324 92.9673 42.5072 95.0926 42.5072 97.7076V103.993Z" fill="#EDEDED"/>
<path d="M86.6767 89.5911C83.0744 89.5911 80.1504 86.6596 80.1504 83.0648C80.1504 79.4701 83.082 76.5385 86.6767 76.5385C90.2715 76.5385 93.203 79.4701 93.203 83.0648C93.203 86.6596 90.2715 89.5911 86.6767 89.5911ZM86.6767 78.0457C83.9109 78.0457 81.6576 80.299 81.6576 83.0648C81.6576 85.8306 83.9109 88.0839 86.6767 88.0839C89.4425 88.0839 91.6958 85.8306 91.6958 83.0648C91.6958 80.299 89.4425 78.0457 86.6767 78.0457Z" fill="#EDEDED"/>
<path d="M94.9064 105.5C94.8461 105.5 94.7933 105.5 94.7406 105.477C93.8362 105.402 84.4688 105.447 78.3193 105.5C78.1158 105.492 77.9274 105.425 77.7842 105.281C77.641 105.138 77.5581 104.95 77.5581 104.746V97.7076C77.5581 94.2636 80.3616 91.4601 83.8056 91.4601H89.42C92.8641 91.4601 95.6675 94.2636 95.6675 97.7076V104.746C95.6675 105.048 95.4867 105.327 95.2003 105.44C95.1099 105.477 95.0119 105.5 94.9139 105.5H94.9064ZM83.7981 92.9673C81.183 92.9673 79.0578 95.0926 79.0578 97.7076V103.985C88.6514 103.902 92.525 103.895 94.1528 103.97V97.7076C94.1528 95.0926 92.0276 92.9673 89.4125 92.9673H83.7981Z" fill="#EDEDED"/>
<defs>
<filter id="filter0_d_939_10124" x="0" y="0.5" width="136" height="136" filterUnits="userSpaceOnUse" color-interpolation-filters="sRGB">
<feFlood flood-opacity="0" result="BackgroundImageFix"/>
<feColorMatrix in="SourceAlpha" type="matrix" values="0 0 0 0 0 0 0 0 0 0 0 0 0 0 0 0 0 0 127 0" result="hardAlpha"/>
<feOffset/>
<feGaussianBlur stdDeviation="6"/>
<feComposite in2="hardAlpha" operator="out"/>
<feColorMatrix type="matrix" values="0 0 0 0 0 0 0 0 0 0 0 0 0 0 0 0 0 0 0.25 0"/>
<feBlend mode="normal" in2="BackgroundImageFix" result="effect1_dropShadow_939_10124"/>
<feBlend mode="normal" in="SourceGraphic" in2="effect1_dropShadow_939_10124" result="shape"/>
</filter>
</defs>
</svg>
