<svg width="370" height="370" viewBox="0 0 370 370" fill="none" xmlns="http://www.w3.org/2000/svg">
<g filter="url(#filter0_d_3153_1052)">
<circle cx="185.149" cy="185.149" r="96.4621" transform="rotate(-0.409387 185.149 185.149)" fill="white"/>
<circle cx="185.149" cy="185.149" r="97.9621" transform="rotate(-0.409387 185.149 185.149)" stroke="#F88D2A" stroke-width="3"/>
</g>
<path d="M176.501 165.873C176.256 165.658 176.062 165.486 175.91 165.369C174.838 164.533 173.123 164.164 172.197 164.018L172.019 163.989L171.978 163.849C171.497 162.708 172.966 162.628 172.966 162.628L173.182 162.263L172.85 159.859L172.982 159.474C173.009 159.399 173.049 159.33 173.089 159.263C173.16 159.144 173.203 159.061 173.176 159.007C173.135 158.927 172.918 158.72 171.752 158.501C171.222 158.401 170.723 158.354 170.267 158.361C169.195 158.379 168.713 158.692 168.708 158.696C168.384 158.913 168.21 159.227 168.178 159.656C168.075 161.003 169.425 162.96 169.911 163.392C170.239 163.685 169.643 163.891 169.643 163.891L168.136 163.855C164.336 163.798 162.939 164.171 158.965 160.303C158.841 160.182 158.747 160.091 158.688 160.037C158.497 159.868 158.321 159.78 158.18 159.782C158.107 159.783 158.054 159.809 158.026 159.827C158.443 163.797 164.54 165.401 165.853 166.292C167.138 167.163 167.946 172.969 167.888 173.16C167.687 173.829 166.513 187.164 168.044 189.965C168.159 190.176 168.369 190.243 168.551 190.243C168.602 190.243 168.659 190.236 168.734 190.218C168.753 190.214 168.922 188.782 169.263 184.674C169.812 178.037 170.122 176.236 170.759 176.133L170.837 176.127C170.844 176.127 170.847 176.125 170.852 176.125C170.858 176.125 170.861 176.127 170.868 176.127L170.945 176.131C171.584 176.225 171.92 178.022 172.563 184.651C172.962 188.753 173.152 190.183 173.171 190.186C173.246 190.203 173.303 190.209 173.354 190.208C173.536 190.206 173.744 190.135 173.857 189.923C175.348 187.1 173.985 173.783 173.774 173.117C173.714 172.927 173.781 172.359 173.899 171.673L173.912 171.673C174.145 170.284 174.583 168.406 174.622 168.159C174.884 166.52 177.786 173.583 178.657 174.444L178.974 173.008C177.61 169.368 177.247 166.53 176.501 165.873Z" fill="#535050"/>
<path d="M188.989 165.781C188.485 164.876 186.733 164.787 185.335 164.465L185.228 164.466C185.123 164.382 185.057 164.264 185.213 164.121C185.678 163.696 186.959 161.781 186.841 160.478C186.804 160.063 186.631 159.761 186.314 159.555C186.31 159.551 185.838 159.255 184.799 159.253C184.358 159.252 183.875 159.305 183.363 159.409C182.237 159.637 182.029 159.841 181.991 159.918C181.965 159.971 182.008 160.051 182.078 160.166C182.118 160.23 182.158 160.297 182.185 160.369L182.318 160.74L182.029 163.074L182.314 163.443C182.314 163.443 183.668 163.48 183.217 164.593L183.215 164.602C181.948 164.863 180.574 165.054 180.147 165.845C178.672 168.586 178.404 173.499 178.379 173.512C178.364 174.813 179.157 174.676 179.396 173.571C180.413 168.862 180.933 168.229 181.115 168.181C181.531 170.464 181.744 173.493 181.713 173.595C181.518 174.243 180.381 187.162 181.864 189.876C181.976 190.08 182.179 190.145 182.355 190.145C182.404 190.146 182.46 190.139 182.532 190.122C182.55 190.117 182.715 188.73 183.044 184.75C183.577 178.32 183.877 176.575 184.495 176.476L184.57 176.47C184.576 176.47 184.579 176.468 184.585 176.467C184.59 176.468 184.593 176.47 184.6 176.47L184.675 176.474C185.293 176.564 185.619 178.305 186.242 184.727C186.628 188.701 186.812 190.086 186.831 190.091C186.903 190.106 186.959 190.113 187.008 190.112C187.184 190.109 187.386 190.041 187.495 189.835C188.94 187.1 187.62 174.199 187.416 173.554C187.357 173.37 187.422 172.819 187.536 172.155L187.549 172.154C187.734 171.054 187.847 168.764 187.978 168.154C187.978 168.154 188.452 167.442 189.85 173.495C190.104 174.597 190.899 174.723 190.865 173.422C190.84 173.409 190.503 168.501 188.989 165.781Z" fill="#535050"/>
<path d="M198.368 188.228C198.368 188.249 198.312 190.246 199.405 190.503C199.579 190.422 200.358 184.702 200.399 179.294L197.941 179.501C198.295 181.526 198.476 184.492 198.368 188.228Z" fill="#535050"/>
<path d="M194.901 180.14C194.906 180.214 194.912 180.279 194.917 180.346C195.069 185.339 195.885 190.454 196.055 190.527C197.145 190.268 197.061 188.376 197.06 188.356C196.9 184.794 197.087 181.707 197.453 179.574L198.415 179.487L194.89 179.769C194.895 179.892 194.894 180.022 194.901 180.14Z" fill="#535050"/>
<path d="M194.411 160.723C194.411 160.723 193.785 159.942 194.587 159.591C195.389 159.24 196.63 159.576 196.63 159.576L196.967 160.955L195.577 161.086L194.411 160.723Z" fill="#535050"/>
<path d="M208.828 160.376C208.695 160.375 208.532 160.461 208.355 160.621C208.3 160.672 208.214 160.759 208.099 160.874C204.961 164.017 203.636 164.171 200.57 164.711C200.464 164.614 200.366 164.513 200.272 164.409C199.702 163.629 199.419 161.948 199.374 161.32C199.322 160.589 198.938 160.018 198.938 160.018L198.93 160.021C198.84 159.813 198.704 159.641 198.505 159.511C198.5 159.508 198.016 159.204 196.952 159.202C196.5 159.202 196.005 159.255 195.481 159.362C194.327 159.596 194.625 159.513 194.586 159.593C194.56 159.647 194.273 159.992 194.345 160.109C194.386 160.175 194.246 160.271 194.274 160.345L194.41 160.726L194.403 163.101L194.741 163.524L195.676 163.647C195.787 163.736 196.128 163.602 195.692 164.679C195.692 164.679 194.667 165.248 193.577 165.931C192.472 166.624 192.204 167.192 191.907 167.667C191.748 167.923 190.85 170.26 190.261 172.936L190.762 174.151C191.725 172.749 192.33 169.847 193.259 168.64C193.259 168.64 194.166 167.692 194.542 168.362C194.542 168.362 194.542 168.362 194.542 168.362C194.547 168.37 194.551 168.381 194.556 168.389C194.578 168.432 194.599 168.481 194.617 168.538C194.658 168.671 194.811 169.542 194.932 170.439C194.979 171.26 194.968 171.995 194.968 171.996C194.905 172.243 194.865 172.332 194.45 173.836C194.086 175.039 193.927 176.639 193.897 178.362C193.871 178.881 193.87 179.378 193.888 179.853L197.412 179.591L199.063 179.453C199.064 179.458 199.065 179.463 199.066 179.468L201.523 179.286C201.545 176.962 201.389 174.705 200.888 173.137C200.867 172.99 198.578 168.831 202.058 166.538C203.405 165.65 208.741 163.9 208.973 160.415C208.946 160.399 208.896 160.375 208.828 160.376Z" fill="#535050"/>
<path d="M159.799 151.764C160.227 152.019 160.687 152.161 161.122 152.053C161.698 151.909 161.91 151.258 161.786 150.764C161.68 150.339 161.387 149.988 161.088 149.664C161.668 149.84 163.077 149.716 163.216 148.93C163.246 148.756 163.142 148.593 163.027 148.46C162.339 147.66 161.283 147.458 160.229 147.492C160.009 147.499 157.403 147.936 157.39 147.795C157.864 148.91 157.901 148.6 158.441 150.119C158.614 150.605 159.192 151.403 159.799 151.764Z" fill="#C10230"/>
<path d="M213.786 152.925C213.544 152.513 213.425 152.079 213.577 151.688C213.777 151.171 214.499 151.028 215.025 151.18C215.477 151.311 215.834 151.607 216.162 151.907C216.017 151.36 216.261 150.078 217.123 150.012C217.314 149.997 217.483 150.106 217.618 150.221C218.431 150.916 218.567 151.9 218.448 152.865C218.423 153.065 217.746 155.422 217.898 155.445C216.727 154.923 217.066 154.913 215.462 154.299C214.949 154.103 214.13 153.51 213.786 152.925Z" fill="#C10230"/>
<path d="M208.646 149.446C208.144 149.367 207.7 149.186 207.46 148.835C207.142 148.371 207.466 147.76 207.921 147.474C208.312 147.227 208.787 147.151 209.246 147.099C208.689 146.867 207.745 145.899 208.221 145.235C208.327 145.088 208.524 145.033 208.706 145.006C209.802 144.846 210.728 145.355 211.478 146.036C211.634 146.177 213.231 148.12 213.344 148.025C212.174 148.55 212.375 148.299 210.858 149.081C210.373 149.331 209.359 149.558 208.646 149.446Z" fill="#C10230"/>
<path d="M200.429 152.204C200.133 152.587 199.763 152.876 199.315 152.924C198.722 152.987 198.265 152.455 198.181 151.954C198.11 151.523 198.242 151.096 198.39 150.693C197.921 151.055 196.563 151.421 196.119 150.738C196.02 150.587 196.052 150.399 196.105 150.237C196.425 149.259 197.325 148.711 198.318 148.382C198.525 148.314 201.121 147.83 201.077 147.694C201.083 148.892 200.924 148.617 201.032 150.213C201.066 150.723 200.848 151.661 200.429 152.204Z" fill="#C10230"/>
<path d="M154.12 154.52C154.623 154.595 155.107 154.555 155.459 154.295C155.924 153.951 155.834 153.277 155.506 152.871C155.223 152.521 154.801 152.307 154.386 152.121C154.995 152.068 156.231 151.434 156.016 150.664C155.969 150.493 155.801 150.382 155.639 150.303C154.659 149.825 153.603 150.03 152.652 150.45C152.454 150.538 150.256 151.899 150.182 151.775C151.102 152.621 151.002 152.323 152.158 153.515C152.528 153.896 153.406 154.413 154.12 154.52Z" fill="#C10230"/>
<path d="M168.199 152.435C168.5 152.814 168.875 153.098 169.323 153.139C169.917 153.194 170.367 152.655 170.443 152.153C170.508 151.72 170.37 151.296 170.217 150.895C170.69 151.25 172.054 151.596 172.488 150.907C172.584 150.755 172.55 150.567 172.494 150.406C172.161 149.432 171.253 148.897 170.255 148.583C170.048 148.518 167.445 148.071 167.487 147.935C167.498 149.133 167.652 148.855 167.568 150.453C167.541 150.963 167.772 151.899 168.199 152.435Z" fill="#C10230"/>
<path d="M174.074 156.471C174.179 156.93 174.393 157.331 174.783 157.538C175.3 157.813 175.95 157.492 176.244 157.063C176.497 156.693 176.561 156.254 176.601 155.83C176.874 156.333 177.961 157.165 178.664 156.701C178.82 156.599 178.873 156.415 178.894 156.247C179.026 155.233 178.439 154.401 177.67 153.737C177.511 153.599 175.34 152.205 175.439 152.098C174.913 153.193 175.178 152.999 174.386 154.424C174.133 154.879 173.925 155.82 174.074 156.471Z" fill="#C10230"/>
<path d="M162.607 136.642C162.884 137.035 163.241 137.338 163.686 137.402C164.276 137.487 164.758 136.972 164.864 136.475C164.955 136.047 164.844 135.616 164.715 135.207C165.166 135.587 166.506 136.002 166.982 135.337C167.087 135.189 167.064 135 167.018 134.836C166.745 133.847 165.871 133.266 164.894 132.901C164.691 132.826 162.119 132.245 162.17 132.112C162.107 133.308 162.279 133.039 162.097 134.629C162.039 135.138 162.213 136.084 162.607 136.642Z" fill="#C10230"/>
<path d="M171.782 140.356C171.904 140.812 172.133 141.206 172.53 141.401C173.056 141.659 173.695 141.318 173.972 140.881C174.212 140.503 174.26 140.062 174.284 139.638C174.575 140.132 175.692 140.929 176.378 140.445C176.53 140.337 176.576 140.152 176.592 139.983C176.686 138.965 176.069 138.152 175.276 137.512C175.112 137.379 172.891 136.054 172.986 135.943C172.501 137.055 172.759 136.852 172.019 138.3C171.783 138.763 171.61 139.71 171.782 140.356Z" fill="#C10230"/>
<path d="M181.805 128.568C181.764 129.036 181.845 129.476 182.155 129.777C182.566 130.175 183.288 130.037 183.702 129.702C184.059 129.413 184.255 129.008 184.424 128.613C184.53 129.166 185.316 130.248 186.133 129.986C186.315 129.928 186.421 129.766 186.494 129.61C186.933 128.671 186.626 127.72 186.094 126.883C185.984 126.709 184.332 124.806 184.46 124.728C183.618 125.643 183.932 125.525 182.734 126.686C182.351 127.056 181.863 127.905 181.805 128.568Z" fill="#C10230"/>
<path d="M181.62 145.713C181.579 146.181 181.661 146.622 181.971 146.922C182.381 147.321 183.104 147.182 183.517 146.847C183.874 146.558 184.071 146.154 184.239 145.758C184.346 146.312 185.132 147.393 185.949 147.132C186.13 147.074 186.237 146.911 186.31 146.755C186.748 145.817 186.441 144.866 185.909 144.028C185.799 143.854 184.147 141.951 184.276 141.874C183.434 142.788 183.748 142.671 182.55 143.831C182.167 144.202 181.678 145.05 181.62 145.713Z" fill="#C10230"/>
<path d="M240.803 145.885C240.42 145.577 240.144 145.208 240.139 144.794C240.132 144.245 240.754 143.88 241.305 143.854C241.778 143.832 242.226 143.995 242.646 144.171C242.303 143.706 242.048 142.426 242.832 142.088C243.005 142.013 243.205 142.061 243.375 142.126C244.4 142.517 244.9 143.395 245.153 144.337C245.205 144.533 245.462 146.958 245.612 146.931C244.317 146.817 244.631 146.699 242.894 146.637C242.339 146.617 241.347 146.324 240.803 145.885Z" fill="#C10230"/>
<path d="M194.612 156.323C194.513 156.783 194.305 157.188 193.918 157.401C193.406 157.683 192.75 157.371 192.451 156.946C192.192 156.58 192.122 156.142 192.076 155.719C191.811 156.226 190.735 157.073 190.025 156.62C189.868 156.52 189.813 156.337 189.789 156.169C189.643 155.157 190.219 154.316 190.977 153.641C191.135 153.501 193.286 152.076 193.185 151.97C193.727 153.058 193.459 152.868 194.271 154.281C194.53 154.732 194.751 155.67 194.612 156.323Z" fill="#C10230"/>
<path d="M196.674 140.178C196.559 140.635 196.336 141.033 195.941 141.233C195.419 141.5 194.775 141.168 194.491 140.734C194.247 140.36 194.192 139.92 194.162 139.496C193.878 139.995 192.773 140.808 192.079 140.333C191.926 140.228 191.878 140.043 191.859 139.875C191.751 138.858 192.357 138.037 193.139 137.385C193.302 137.25 195.504 135.892 195.407 135.783C195.908 136.887 195.648 136.689 196.407 138.126C196.65 138.586 196.837 139.529 196.674 140.178Z" fill="#C10230"/>
<path d="M166.354 190.729L166.359 190.729L166.377 190.691C166.371 190.67 166.364 190.65 166.358 190.63C166.356 190.663 166.355 190.696 166.354 190.729Z" fill="#F88D2A"/>
<path d="M166.494 188.672C166.439 189.18 166.404 189.696 166.378 190.183C166.409 190.187 166.437 190.204 166.453 190.231C166.479 190.277 166.507 190.321 166.536 190.365C166.637 190.162 166.743 189.957 166.852 189.751C166.793 189.378 166.7 188.943 166.494 188.672Z" fill="#F88D2A"/>
<path d="M172.598 190.684C172.601 190.625 172.605 190.565 172.608 190.506C172.614 190.414 172.619 190.323 172.622 190.231C172.622 190.222 172.623 190.213 172.623 190.205C172.547 190.347 172.466 190.513 172.384 190.686L172.598 190.684Z" fill="#F88D2A"/>
<path d="M177.796 190.647C177.802 189.828 177.833 189.123 177.891 188.477C177.652 189.284 177.47 189.987 177.33 190.651L177.796 190.647Z" fill="#F88D2A"/>
<path d="M178.65 190.271C178.606 190.395 178.556 190.518 178.502 190.642L178.654 190.64L178.651 190.313C178.651 190.299 178.65 190.285 178.65 190.271Z" fill="#F88D2A"/>
<path d="M175.776 190.196L175.747 190.207L175.746 190.091C175.746 190.066 175.746 190.04 175.746 190.015C175.664 190.189 175.579 190.358 175.496 190.524L175.426 190.664L175.824 190.661L175.823 190.658C175.807 190.502 175.79 190.348 175.776 190.196Z" fill="#F88D2A"/>
<path d="M176.302 190.657L176.651 190.655C176.533 190.239 176.399 189.797 176.241 189.299C176.279 189.708 176.298 190.152 176.302 190.657Z" fill="#F88D2A"/>
<path d="M179.849 188.517C180.11 188.885 180.192 189.467 180.255 189.913C180.274 190.056 180.292 190.185 180.314 190.29C180.332 190.377 180.346 190.465 180.36 190.553L180.373 190.629L181.417 190.621C181.245 190.14 181.043 189.75 180.787 189.402C180.614 189.168 180.234 188.739 179.849 188.517Z" fill="#F88D2A"/>
<path d="M179.799 189.767C179.752 189.891 179.704 190.016 179.656 190.14L179.611 190.257C179.577 190.346 179.543 190.436 179.51 190.525L179.469 190.635L179.774 190.633C179.772 190.63 179.771 190.629 179.769 190.626L179.711 190.54L179.713 190.513C179.738 190.252 179.767 190.003 179.799 189.767Z" fill="#F88D2A"/>
<path d="M162.413 189.088L162.41 189.106C162.415 189.105 162.425 189.106 162.434 189.103L162.413 189.088Z" fill="#F88D2A"/>
<path d="M162.175 189.958C162.144 190.098 162.12 190.209 162.101 190.264C162.056 190.392 162.013 190.53 161.966 190.697L161.948 190.76L162.53 190.756C162.533 190.703 162.535 190.647 162.539 190.588C162.563 190.138 162.596 189.535 162.405 189.163C162.325 189.287 162.222 189.75 162.175 189.958Z" fill="#F88D2A"/>
<path d="M168.473 189.208C168.562 189.631 168.597 190.112 168.583 190.713L169.068 190.709L168.98 190.438C168.84 190.01 168.668 189.591 168.473 189.208Z" fill="#F88D2A"/>
<path d="M170.462 190.417L170.373 190.341C170.241 190.227 170.123 190.139 170.013 190.075L169.97 190.049L169.962 189.985C169.828 188.997 169.611 188.111 169.299 187.292C169.36 187.961 169.288 188.676 169.218 189.372C169.191 189.638 169.164 189.899 169.147 190.149L169.11 190.709L170.822 190.696C170.841 189.917 170.867 189.197 170.903 188.519C170.791 189.039 170.67 189.551 170.55 190.049L170.462 190.417Z" fill="#F88D2A"/>
<path d="M174.536 190.67L175.141 190.666C175.106 189.878 175.084 188.994 175.198 188.127C174.925 188.936 174.708 189.774 174.536 190.67Z" fill="#F88D2A"/>
<path d="M164.997 189.236C164.873 189.516 164.745 189.806 164.671 190.101C164.63 190.264 164.595 190.429 164.561 190.593L164.53 190.742L165.257 190.737C165.253 190.043 165.246 189.349 165.237 188.657C165.167 188.854 165.082 189.047 164.997 189.236Z" fill="#F88D2A"/>
<path d="M163.7 190.193L163.63 190.663L163.533 190.197C163.358 189.352 163.099 188.536 162.821 187.681C162.924 188.766 162.891 189.828 162.839 190.754L164.392 190.742L164.388 190.579C164.362 189.391 164.357 188.129 164.472 186.867C164.086 188.168 163.85 189.187 163.7 190.193Z" fill="#F88D2A"/>
<path d="M183.943 189.357L183.993 189.585L183.789 189.395C183.74 189.349 183.697 189.309 183.649 189.27C183.394 189.058 182.835 188.739 182.298 188.568L182.28 188.56C182.047 188.428 181.779 188.317 181.482 188.229C181.92 188.679 182.113 189.14 182.232 189.497L182.35 189.847L182.076 189.535C181.753 189.166 181.33 188.897 180.916 188.791C180.971 188.843 181.018 188.899 181.058 188.955C181.174 189.126 181.266 189.302 181.333 189.481C181.474 189.81 181.551 190.149 181.627 190.477C181.637 190.524 181.645 190.57 181.653 190.617L181.653 190.619L184.594 190.598C184.294 189.462 183.885 188.217 183.134 187.234C183.504 187.852 183.766 188.543 183.943 189.357Z" fill="#F88D2A"/>
<path d="M199.358 189.293L199.19 189.297C199.058 188.314 198.799 187.444 198.417 186.706C198.472 187.215 198.422 187.758 198.373 188.287L198.334 188.738C198.324 188.867 198.316 188.994 198.312 189.118C198.3 189.489 198.278 189.866 198.257 190.231L198.241 190.501L199.729 190.49C199.6 189.871 199.478 189.263 199.403 188.658C199.389 188.882 199.373 189.098 199.358 189.293Z" fill="#F88D2A"/>
<path d="M197.489 189.336L197.444 189.207C197.188 188.474 196.867 187.795 196.471 187.152C196.791 187.885 197.032 188.678 197.215 189.594L197.223 189.629L197.199 189.657C197.103 189.766 197.01 189.877 196.922 189.99L196.863 190.064L196.793 190C196.666 189.883 196.523 189.766 196.378 189.66L196.345 189.636L196.347 189.597C196.367 189.09 196.397 188.625 196.435 188.184C196.318 188.528 196.19 188.866 196.066 189.196L195.988 189.402L195.899 189.353C195.77 189.282 195.649 189.225 195.54 189.184L195.498 189.167L195.489 189.126C195.358 188.494 195.143 187.928 194.834 187.405C194.893 187.833 194.819 188.291 194.747 188.737C194.72 188.907 194.692 189.074 194.674 189.233L194.625 189.699L194.502 189.321C194.362 188.891 194.189 188.471 193.995 188.089C194.136 188.761 194.123 189.478 194.087 190.109L194.063 190.531L197.798 190.504C197.784 190.442 197.771 190.38 197.758 190.318C197.72 190.142 197.681 189.96 197.631 189.788L197.623 189.763L197.634 189.738C197.797 189.379 197.981 189.028 198.18 188.696L198.209 188.646C197.975 188.856 197.771 189.049 197.588 189.235L197.489 189.336Z" fill="#F88D2A"/>
<path d="M199.906 190.489L200.715 190.483L200.699 190.178C200.646 189.13 200.59 188.05 200.728 187.01C200.36 188.1 200.09 189.244 199.906 190.489Z" fill="#F88D2A"/>
<path d="M192.067 189.414L192.028 189.427C192.029 189.429 192.03 189.432 192.031 189.434L192.067 189.414Z" fill="#F88D2A"/>
<path d="M193.115 188.378C192.943 188.145 192.563 187.715 192.177 187.493C192.391 187.791 192.484 188.229 192.546 188.634L192.549 188.657L192.544 188.666L192.622 189.151C192.629 189.191 192.636 189.23 192.643 189.265C192.728 189.679 192.79 190.09 192.835 190.401L192.855 190.539L194.027 190.531L193.921 190.123C193.742 189.444 193.479 188.873 193.115 188.378Z" fill="#F88D2A"/>
<path d="M187.948 189.015C187.899 189.35 187.822 189.681 187.746 190.003C187.702 190.194 187.657 190.385 187.618 190.577L188.153 190.573L188.148 190.544C188.069 190.031 187.995 189.525 187.948 189.015Z" fill="#F88D2A"/>
<path d="M192.41 190.034L192.395 190.012L192.407 189.81C192.421 189.596 192.435 189.374 192.458 189.155L192.5 188.757C192.38 188.988 192.262 189.217 192.149 189.444L192.083 189.576L192.076 189.566L192.082 189.584L192.003 189.744C191.951 189.85 191.899 189.955 191.851 190.06L191.671 190.452L191.689 190.027C191.729 189.078 191.77 188.222 191.873 187.361L191.89 187.21L191.891 187.21C191.899 187.15 191.907 187.092 191.915 187.035C191.858 187.182 191.801 187.33 191.745 187.477C191.461 188.212 191.167 188.973 190.948 189.736L190.786 190.305L190.782 189.717C190.778 188.99 190.771 188.264 190.762 187.54C190.691 187.737 190.606 187.929 190.522 188.118C190.398 188.398 190.269 188.688 190.195 188.983C190.155 189.146 190.12 189.31 190.086 189.475L189.935 190.207L189.919 189.462C189.893 188.273 189.887 187.011 190.003 185.75C189.617 187.052 189.381 188.07 189.23 189.075L189.16 189.545L189.064 189.079C188.889 188.234 188.63 187.418 188.352 186.563C188.481 187.929 188.401 189.32 188.313 190.538L188.311 190.572L192.732 190.54L192.679 190.448C192.597 190.303 192.501 190.164 192.41 190.034Z" fill="#F88D2A"/>
<path d="M205.172 190.451L205.951 190.446C206.201 189.761 206.494 189.138 206.826 188.588C206.083 189.253 205.562 189.84 205.172 190.451Z" fill="#F88D2A"/>
<path d="M173.838 190.411L173.67 190.416C173.538 189.431 173.278 188.561 172.896 187.824C172.952 188.33 172.901 188.873 172.852 189.401L172.813 189.856C172.803 189.985 172.795 190.112 172.791 190.235C172.788 190.328 172.783 190.422 172.777 190.515C172.773 190.571 172.77 190.627 172.767 190.683L172.768 190.683L174.028 190.674C173.977 190.394 173.924 190.086 173.883 189.768C173.869 189.995 173.853 190.214 173.838 190.411Z" fill="#F88D2A"/>
<path d="M171.964 190.319L171.919 190.119C171.659 188.972 171.336 187.91 170.937 186.902C171.258 188.042 171.501 189.272 171.687 190.69L172.197 190.686C172.241 190.536 172.283 190.41 172.326 190.274C172.359 190.172 172.393 190.058 172.424 189.964C172.501 189.733 172.577 189.521 172.652 189.323L172.682 189.244C172.449 189.57 172.245 189.872 172.062 190.164L171.964 190.319Z" fill="#F88D2A"/>
<path d="M166.651 188.611C166.662 188.625 166.669 188.644 166.679 188.659C166.698 188.689 166.715 188.721 166.732 188.753C166.767 188.819 166.799 188.886 166.827 188.959C166.841 188.996 166.855 189.031 166.867 189.07C166.893 189.148 166.915 189.229 166.935 189.31C166.943 189.344 166.952 189.376 166.959 189.41C166.983 189.524 167.004 189.639 167.022 189.752L167.025 189.776L167.019 189.787L167.097 190.27C167.104 190.31 167.111 190.349 167.118 190.384C167.136 190.468 167.149 190.552 167.162 190.637C167.167 190.666 167.171 190.694 167.176 190.723L168.232 190.715C168.066 190.257 167.856 189.857 167.59 189.496C167.418 189.264 167.038 188.833 166.651 188.611Z" fill="#F88D2A"/>
<path d="M166.383 188.152C166.329 188.295 166.274 188.437 166.219 188.579C165.947 189.282 165.667 190.007 165.452 190.735L166.177 190.73C166.186 190.537 166.199 190.324 166.211 190.118C166.219 189.963 166.225 189.818 166.235 189.658C166.261 189.269 166.295 188.87 166.341 188.478L166.359 188.328L166.36 188.328C166.368 188.268 166.375 188.21 166.383 188.152Z" fill="#F88D2A"/>
<path d="M166.554 190.694L166.546 190.682L166.545 190.681L166.551 190.702L166.54 190.728L166.894 190.725L166.895 190.698C166.904 190.556 166.913 190.415 166.928 190.273L166.97 189.877L166.971 189.876C166.849 190.106 166.732 190.336 166.62 190.563L166.554 190.694Z" fill="#F88D2A"/>
<path d="M205.171 189.052L205.138 189.139C204.959 189.6 204.802 190.032 204.655 190.455L205.163 190.451L205.168 190.379C205.177 190.197 205.187 190.014 205.202 189.832L205.242 189.315L205.246 189.331C205.27 189.093 205.297 188.866 205.327 188.648C205.276 188.783 205.223 188.918 205.171 189.052Z" fill="#F88D2A"/>
<path d="M186.488 189.419L186.417 189.744L186.321 189.422C186.191 188.991 186.07 188.567 185.995 188.146C185.98 188.3 185.964 188.449 185.949 188.584L185.781 188.587C185.651 187.909 185.393 187.309 185.013 186.802C185.068 187.152 185.016 187.527 184.965 187.891C184.938 188.092 184.912 188.281 184.903 188.465C184.897 188.588 184.89 188.739 184.884 188.907C184.861 189.442 184.831 190.167 184.786 190.597L187.336 190.578L187.337 190.466C187.347 190.047 187.315 189.61 187.284 189.187C187.233 188.466 187.18 187.723 187.319 187.006C186.947 187.764 186.674 188.556 186.488 189.419Z" fill="#F88D2A"/>
<path d="M201.825 190.475L202.43 190.471C202.258 189.703 202.023 188.955 201.771 188.177C201.837 188.862 201.854 189.607 201.825 190.475Z" fill="#F88D2A"/>
<path d="M203.946 189.732C203.84 189.969 203.732 190.214 203.657 190.462L204.196 190.458L204.195 190.331C204.192 189.938 204.189 189.545 204.184 189.153C204.114 189.35 204.029 189.543 203.946 189.732Z" fill="#F88D2A"/>
<path d="M203.328 190.465C203.316 189.532 203.32 188.462 203.421 187.361C203.069 188.55 202.837 189.53 202.686 190.469L203.328 190.465Z" fill="#F88D2A"/>
<path d="M181.7 155.549C181.659 156.017 181.741 156.457 182.051 156.758C182.461 157.156 183.184 157.018 183.597 156.683C183.954 156.394 184.151 155.989 184.319 155.593C184.426 156.147 185.212 157.228 186.029 156.967C186.21 156.909 186.317 156.747 186.39 156.591C186.828 155.653 186.521 154.701 185.989 153.864C185.879 153.69 184.227 151.787 184.356 151.709C183.514 152.623 183.828 152.506 182.63 153.666C182.247 154.037 181.758 154.885 181.7 155.549Z" fill="#F88D2A"/>
<path d="M163.653 157.888C164.063 158.17 164.513 158.343 164.956 158.263C165.544 158.157 165.804 157.521 165.717 157.02C165.642 156.589 165.374 156.219 165.099 155.876C165.667 156.09 167.086 156.058 167.283 155.283C167.327 155.111 167.234 154.941 167.129 154.801C166.499 153.957 165.457 153.687 164.399 153.652C164.18 153.645 161.538 153.91 161.536 153.769C161.928 154.912 161.988 154.606 162.415 156.158C162.552 156.654 163.072 157.488 163.653 157.888Z" fill="#F88D2A"/>
<path d="M156.743 145.168C157.171 145.423 157.631 145.565 158.066 145.457C158.642 145.313 158.854 144.662 158.73 144.169C158.624 143.743 158.331 143.392 158.032 143.068C158.612 143.244 160.02 143.12 160.159 142.334C160.19 142.16 160.085 141.997 159.971 141.864C159.282 141.064 158.226 140.863 157.172 140.896C156.953 140.904 154.347 141.34 154.334 141.199C154.808 142.314 154.845 142.004 155.385 143.523C155.557 144.009 156.136 144.807 156.743 145.168Z" fill="#F88D2A"/>
<path d="M164.728 144.399C165.006 144.792 165.363 145.095 165.808 145.159C166.397 145.244 166.879 144.729 166.986 144.232C167.077 143.804 166.965 143.373 166.836 142.965C167.288 143.344 168.628 143.759 169.103 143.093C169.209 142.946 169.186 142.757 169.14 142.593C168.866 141.604 167.992 141.023 167.015 140.658C166.812 140.583 164.241 140.002 164.291 139.869C164.229 141.065 164.4 140.796 164.219 142.386C164.161 142.895 164.335 143.841 164.728 144.399Z" fill="#F88D2A"/>
<path d="M174.226 148.725C174.348 149.18 174.576 149.574 174.973 149.77C175.5 150.028 176.138 149.687 176.416 149.249C176.656 148.872 176.704 148.431 176.728 148.006C177.019 148.501 178.136 149.298 178.822 148.813C178.974 148.706 179.02 148.52 179.036 148.351C179.13 147.334 178.512 146.521 177.72 145.881C177.556 145.748 175.335 144.423 175.43 144.312C174.945 145.423 175.203 145.221 174.463 146.669C174.227 147.132 174.053 148.078 174.226 148.725Z" fill="#F88D2A"/>
<path d="M181.598 136.546C181.558 137.014 181.639 137.455 181.949 137.755C182.36 138.153 183.082 138.015 183.496 137.68C183.852 137.391 184.049 136.987 184.218 136.59C184.324 137.145 185.11 138.226 185.927 137.965C186.108 137.907 186.215 137.744 186.288 137.588C186.727 136.65 186.42 135.699 185.888 134.861C185.778 134.687 184.126 132.784 184.254 132.707C183.412 133.621 183.726 133.504 182.528 134.664C182.145 135.035 181.656 135.883 181.598 136.546Z" fill="#F88D2A"/>
<path d="M171.184 131.086C171.305 131.541 171.534 131.935 171.931 132.131C172.457 132.389 173.096 132.048 173.374 131.61C173.613 131.233 173.661 130.792 173.685 130.368C173.976 130.862 175.093 131.659 175.78 131.175C175.932 131.067 175.977 130.882 175.993 130.712C176.088 129.695 175.47 128.882 174.678 128.242C174.513 128.109 172.292 126.784 172.388 126.673C171.902 127.784 172.16 127.582 171.421 129.03C171.184 129.493 171.011 130.44 171.184 131.086Z" fill="#F88D2A"/>
<path d="M226.906 148.259C226.975 147.794 227.158 147.38 227.53 147.146C228.024 146.837 228.698 147.113 229.024 147.521C229.306 147.872 229.404 148.306 229.476 148.726C229.709 148.205 230.729 147.302 231.466 147.716C231.63 147.808 231.696 147.988 231.731 148.154C231.942 149.157 231.42 150.026 230.705 150.741C230.556 150.889 228.5 152.427 228.607 152.528C227.997 151.471 228.277 151.646 227.376 150.28C227.089 149.843 226.808 148.919 226.906 148.259Z" fill="#F88D2A"/>
<path d="M262.426 140.609C262.749 140.245 263.14 139.979 263.59 139.959C264.186 139.932 264.604 140.491 264.65 140.996C264.69 141.431 264.528 141.848 264.351 142.242C264.845 141.909 266.226 141.628 266.62 142.336C266.707 142.493 266.661 142.678 266.597 142.837C266.207 143.793 265.269 144.285 264.254 144.552C264.043 144.607 261.418 144.931 261.452 145.069C261.533 143.874 261.671 144.158 261.68 142.559C261.683 142.048 261.968 141.125 262.426 140.609Z" fill="#F88D2A"/>
<path d="M194.35 148.581C194.235 149.038 194.012 149.436 193.617 149.636C193.095 149.902 192.452 149.571 192.167 149.137C191.923 148.763 191.868 148.323 191.838 147.898C191.554 148.397 190.449 149.211 189.756 148.736C189.602 148.631 189.554 148.446 189.536 148.277C189.427 147.261 190.033 146.439 190.816 145.788C190.978 145.653 193.18 144.295 193.083 144.186C193.585 145.29 193.324 145.091 194.084 146.529C194.327 146.988 194.514 147.932 194.35 148.581Z" fill="#F88D2A"/>
<path d="M205.049 157.592C204.643 157.88 204.195 158.059 203.751 157.985C203.162 157.888 202.893 157.256 202.973 156.754C203.042 156.321 203.305 155.947 203.575 155.6C203.01 155.823 201.591 155.811 201.382 155.039C201.336 154.868 201.426 154.696 201.529 154.555C202.147 153.702 203.186 153.417 204.243 153.367C204.462 153.356 207.107 153.583 207.108 153.442C206.732 154.591 206.667 154.285 206.262 155.843C206.132 156.341 205.624 157.183 205.049 157.592Z" fill="#F88D2A"/>
<path d="M214.947 134.61C215.259 134.239 215.643 133.964 216.092 133.933C216.687 133.893 217.12 134.442 217.181 134.945C217.233 135.379 217.082 135.8 216.917 136.198C217.401 135.854 218.774 135.54 219.187 136.239C219.279 136.394 219.239 136.58 219.178 136.74C218.815 137.705 217.891 138.218 216.884 138.509C216.674 138.569 214.059 138.955 214.097 139.092C214.144 137.895 214.291 138.176 214.255 136.578C214.244 136.066 214.504 135.137 214.947 134.61Z" fill="#F88D2A"/>
<path d="M203.776 144.12C203.504 144.517 203.152 144.825 202.708 144.896C202.12 144.99 201.631 144.482 201.517 143.986C201.42 143.559 201.525 143.126 201.648 142.716C201.203 143.102 199.868 143.536 199.384 142.878C199.276 142.732 199.297 142.543 199.34 142.378C199.6 141.385 200.465 140.792 201.437 140.413C201.639 140.334 204.202 139.717 204.149 139.584C204.228 140.779 204.053 140.513 204.258 142.1C204.323 142.608 204.162 143.556 203.776 144.12Z" fill="#F88D2A"/>
<path d="M197.135 130.901C197.02 131.358 196.797 131.755 196.403 131.956C195.88 132.222 195.237 131.89 194.953 131.457C194.708 131.083 194.653 130.643 194.623 130.219C194.34 130.717 193.234 131.531 192.541 131.056C192.387 130.951 192.339 130.766 192.321 130.597C192.212 129.581 192.818 128.759 193.601 128.108C193.764 127.972 195.965 126.615 195.869 126.506C196.37 127.61 196.109 127.411 196.869 128.849C197.112 129.308 197.299 130.252 197.135 130.901Z" fill="#F88D2A"/>
<path d="M198.604 190.499L198.599 190.499L198.581 190.479C198.587 190.468 198.593 190.457 198.599 190.446C198.6 190.464 198.602 190.481 198.604 190.499Z" fill="#F88D2A"/>
<path d="M198.44 189.339C198.501 189.625 198.541 189.916 198.572 190.19C198.541 190.193 198.514 190.203 198.498 190.218C198.472 190.244 198.445 190.269 198.417 190.295C198.313 190.181 198.205 190.067 198.094 189.952C198.148 189.741 198.237 189.494 198.44 189.339Z" fill="#F88D2A"/>
<path d="M192.359 190.543C192.356 190.509 192.352 190.476 192.347 190.442C192.341 190.391 192.334 190.339 192.33 190.287C192.33 190.283 192.33 190.277 192.329 190.272C192.407 190.352 192.49 190.445 192.574 190.541L192.359 190.543Z" fill="#F88D2A"/>
<path d="M187.159 190.58C187.144 190.118 187.105 189.721 187.039 189.358C187.288 189.81 187.477 190.204 187.625 190.576L187.159 190.58Z" fill="#F88D2A"/>
<path d="M186.301 190.377C186.347 190.447 186.399 190.516 186.453 190.585L186.302 190.586L186.301 190.401C186.301 190.393 186.301 190.386 186.301 190.377Z" fill="#F88D2A"/>
<path d="M189.178 190.303L189.207 190.309L189.206 190.244C189.206 190.23 189.206 190.215 189.206 190.201C189.289 190.298 189.376 190.393 189.461 190.485L189.532 190.563L189.135 190.566L189.135 190.564C189.15 190.476 189.165 190.39 189.178 190.303Z" fill="#F88D2A"/>
<path d="M188.652 190.569L188.305 190.572C188.418 190.335 188.546 190.085 188.698 189.802C188.665 190.033 188.65 190.284 188.652 190.569Z" fill="#F88D2A"/>
<path d="M185.076 189.401C184.819 189.612 184.744 189.941 184.686 190.193C184.668 190.273 184.652 190.347 184.631 190.406C184.614 190.455 184.601 190.505 184.588 190.555L184.576 190.598L183.532 190.606C183.7 190.332 183.897 190.11 184.149 189.911C184.319 189.777 184.693 189.53 185.076 189.401Z" fill="#F88D2A"/>
<path d="M185.145 190.106C185.194 190.176 185.243 190.246 185.292 190.315L185.339 190.381C185.374 190.431 185.408 190.48 185.443 190.531L185.485 190.592L185.181 190.595C185.182 190.593 185.183 190.592 185.185 190.591L185.242 190.541L185.24 190.527C185.211 190.379 185.18 190.24 185.145 190.106Z" fill="#F88D2A"/>
<path d="M202.527 189.529L202.531 189.539C202.526 189.538 202.516 189.539 202.507 189.538L202.527 189.529Z" fill="#F88D2A"/>
<path d="M202.772 190.017C202.804 190.096 202.83 190.158 202.85 190.188C202.896 190.26 202.941 190.338 202.99 190.431L203.008 190.467L202.426 190.471C202.423 190.441 202.419 190.409 202.415 190.377C202.386 190.123 202.347 189.783 202.533 189.571C202.615 189.64 202.723 189.9 202.772 190.017Z" fill="#F88D2A"/>
<path d="M196.468 189.665C196.383 189.904 196.355 190.176 196.375 190.514L195.89 190.518L195.975 190.364C196.11 190.12 196.278 189.882 196.468 189.665Z" fill="#F88D2A"/>
<path d="M194.488 190.426L194.576 190.398C194.707 190.355 194.824 190.323 194.934 190.298L194.976 190.288L194.984 190.265C195.108 189.907 195.317 189.586 195.621 189.287C195.566 189.529 195.645 189.787 195.722 190.037C195.751 190.133 195.78 190.227 195.8 190.317L195.842 190.518L194.131 190.53C194.105 190.249 194.071 189.99 194.029 189.745C194.146 189.932 194.272 190.116 194.397 190.295L194.488 190.426Z" fill="#F88D2A"/>
<path d="M190.419 190.557L189.814 190.561C189.841 190.116 189.853 189.617 189.729 189.13C190.011 189.583 190.238 190.053 190.419 190.557Z" fill="#F88D2A"/>
<path d="M199.945 189.642C200.072 189.798 200.204 189.961 200.282 190.126C200.324 190.217 200.361 190.31 200.397 190.402L200.429 190.486L199.702 190.491C199.698 190.1 199.697 189.708 199.699 189.318C199.771 189.429 199.859 189.536 199.945 189.642Z" fill="#F88D2A"/>
<path d="M201.246 190.167L201.322 190.431L201.413 190.167C201.579 189.689 201.829 189.226 202.097 188.741C202.006 189.353 202.051 189.952 202.113 190.473L200.56 190.485L200.562 190.393C200.575 189.722 200.566 189.011 200.437 188.301C200.838 189.03 201.085 189.601 201.246 190.167Z" fill="#F88D2A"/>
<path d="M180.993 189.606L180.946 189.792L181.147 189.635C181.196 189.596 181.239 189.563 181.286 189.53C181.538 189.353 182.093 189.086 182.627 188.938L182.645 188.932C182.877 188.821 183.143 188.726 183.439 188.651C183.007 189.024 182.82 189.404 182.705 189.697L182.592 189.985L182.862 189.726C183.181 189.42 183.6 189.195 184.012 189.102C183.958 189.146 183.911 189.192 183.872 189.239C183.759 189.38 183.669 189.526 183.604 189.672C183.468 189.943 183.394 190.222 183.324 190.491C183.314 190.53 183.307 190.567 183.299 190.606L183.299 190.608L180.357 190.629C180.643 189.696 181.036 188.672 181.774 187.858C181.413 188.368 181.16 188.936 180.993 189.606Z" fill="#F88D2A"/>
<path d="M165.579 190.058L165.747 190.058C165.868 189.502 166.118 189.008 166.492 188.588C166.442 188.876 166.499 189.181 166.553 189.479L166.597 189.733C166.608 189.806 166.618 189.877 166.624 189.947C166.639 190.156 166.666 190.368 166.691 190.574L166.71 190.726L165.222 190.737C165.344 190.386 165.458 190.042 165.527 189.7C165.544 189.826 165.562 189.948 165.579 190.058Z" fill="#F88D2A"/>
<path d="M167.458 190.06L167.501 189.988C167.75 189.571 168.063 189.185 168.452 188.818C168.14 189.235 167.908 189.684 167.734 190.203L167.728 190.223L167.752 190.238C167.849 190.299 167.943 190.36 168.032 190.423L168.091 190.464L168.161 190.428C168.286 190.36 168.429 190.292 168.572 190.231L168.605 190.217L168.603 190.195C168.577 189.909 168.542 189.647 168.499 189.4C168.62 189.592 168.751 189.781 168.879 189.966L168.959 190.081L169.048 190.052C169.176 190.011 169.296 189.978 169.405 189.953L169.447 189.943L169.455 189.92C169.579 189.562 169.788 189.24 170.091 188.942C170.037 189.184 170.116 189.441 170.193 189.692C170.222 189.788 170.251 189.881 170.271 189.971L170.326 190.233L170.444 190.018C170.579 189.775 170.748 189.536 170.938 189.318C170.804 189.698 170.825 190.103 170.868 190.458L170.897 190.696L167.162 190.723C167.175 190.688 167.187 190.653 167.2 190.617C167.236 190.518 167.273 190.415 167.321 190.318L167.328 190.303L167.317 190.289C167.15 190.088 166.963 189.893 166.76 189.708L166.73 189.68C166.967 189.795 167.173 189.902 167.358 190.005L167.458 190.06Z" fill="#F88D2A"/>
<path d="M165.047 190.738L164.238 190.744L164.25 190.572C164.293 189.979 164.336 189.37 164.186 188.785C164.567 189.395 164.849 190.037 165.047 190.738Z" fill="#F88D2A"/>
<path d="M172.873 190.043L172.912 190.05C172.911 190.051 172.91 190.053 172.909 190.055L172.873 190.043Z" fill="#F88D2A"/>
<path d="M171.813 189.472C171.983 189.338 172.358 189.091 172.742 188.962C172.531 189.133 172.443 189.38 172.385 189.61L172.382 189.623L172.387 189.628L172.315 189.902C172.309 189.925 172.302 189.947 172.295 189.967C172.215 190.201 172.157 190.434 172.116 190.61L172.098 190.688L170.926 190.696L171.028 190.465C171.199 190.08 171.456 189.755 171.813 189.472Z" fill="#F88D2A"/>
<path d="M176.998 189.772C177.05 189.961 177.132 190.147 177.21 190.328C177.257 190.435 177.304 190.542 177.345 190.65L176.811 190.654L176.815 190.638C176.888 190.347 176.956 190.061 176.998 189.772Z" fill="#F88D2A"/>
<path d="M172.546 190.397L172.561 190.386L172.546 190.271C172.53 190.15 172.513 190.025 172.487 189.903L172.441 189.678C172.564 189.807 172.684 189.935 172.8 190.062L172.867 190.136L172.874 190.13L172.868 190.14L172.949 190.23C173.002 190.289 173.055 190.347 173.105 190.406L173.289 190.625L173.266 190.386C173.216 189.851 173.165 189.369 173.053 188.884L173.034 188.799L173.033 188.8C173.024 188.766 173.016 188.733 173.007 188.701C173.066 188.783 173.124 188.866 173.182 188.948C173.475 189.359 173.777 189.785 174.004 190.213L174.173 190.532L174.169 190.2C174.166 189.791 174.164 189.381 174.166 188.972C174.239 189.083 174.326 189.19 174.412 189.296C174.539 189.453 174.671 189.615 174.748 189.78C174.791 189.871 174.827 189.964 174.863 190.056L175.022 190.467L175.03 190.047C175.043 189.377 175.034 188.665 174.905 187.954C175.305 188.684 175.552 189.256 175.714 189.821L175.789 190.085L175.88 189.822C176.046 189.343 176.296 188.88 176.564 188.395C176.45 189.166 176.546 189.95 176.647 190.635L176.65 190.654L172.229 190.686L172.281 190.634C172.362 190.551 172.456 190.472 172.546 190.397Z" fill="#F88D2A"/>
<path d="M191.121 190.402L191.29 190.403C191.41 189.846 191.66 189.352 192.034 188.932C191.984 189.219 192.04 189.524 192.095 189.821L192.139 190.078C192.15 190.15 192.16 190.222 192.165 190.291C192.169 190.344 192.175 190.397 192.182 190.449C192.187 190.48 192.191 190.512 192.194 190.544L192.193 190.544L190.935 190.553C190.983 190.395 191.032 190.22 191.069 190.04C191.086 190.168 191.104 190.291 191.121 190.402Z" fill="#F88D2A"/>
<path d="M192.989 190.405L193.033 190.333C193.281 189.916 193.594 189.53 193.982 189.162C193.673 189.577 193.443 190.023 193.27 190.536L192.761 190.54C192.714 190.486 192.671 190.441 192.627 190.393C192.594 190.356 192.558 190.315 192.526 190.282C192.447 190.199 192.37 190.123 192.292 190.053L192.261 190.025C192.497 190.14 192.704 190.247 192.89 190.35L192.989 190.405Z" fill="#F88D2A"/>
<path d="M198.281 189.306C198.271 189.315 198.264 189.325 198.254 189.334C198.235 189.351 198.219 189.369 198.202 189.388C198.168 189.425 198.136 189.463 198.11 189.505C198.096 189.525 198.082 189.546 198.07 189.568C198.046 189.613 198.024 189.658 198.006 189.704C197.998 189.724 197.989 189.741 197.983 189.761C197.96 189.825 197.94 189.89 197.924 189.955L197.921 189.967L197.927 189.974L197.854 190.247C197.848 190.27 197.841 190.292 197.834 190.312C197.818 190.359 197.806 190.408 197.793 190.455C197.789 190.472 197.785 190.488 197.781 190.504L196.725 190.511C196.886 190.251 197.091 190.023 197.353 189.817C197.522 189.683 197.897 189.436 198.281 189.306Z" fill="#F88D2A"/>
<path d="M198.539 189.046C198.594 189.125 198.651 189.206 198.707 189.285C198.986 189.678 199.274 190.084 199.498 190.492L198.773 190.497C198.762 190.389 198.746 190.269 198.733 190.153C198.723 190.065 198.715 189.983 198.703 189.893C198.673 189.674 198.635 189.45 198.584 189.229L198.565 189.145L198.563 189.145C198.555 189.111 198.547 189.078 198.539 189.046Z" fill="#F88D2A"/>
<path d="M198.4 190.481L198.409 190.474L198.409 190.473L198.403 190.485L198.415 190.499L198.061 190.502L198.059 190.487C198.049 190.407 198.038 190.327 198.022 190.248L197.975 190.024L197.975 190.024C198.098 190.152 198.218 190.28 198.333 190.407L198.4 190.481Z" fill="#F88D2A"/>
<path d="M160.112 189.985L160.146 190.033C160.33 190.291 160.493 190.532 160.644 190.769L160.135 190.773L160.13 190.732C160.119 190.63 160.106 190.527 160.09 190.424L160.043 190.133L160.04 190.142C160.013 190.008 159.984 189.881 159.952 189.758C160.005 189.834 160.058 189.909 160.112 189.985Z" fill="#F88D2A"/>
<path d="M178.454 189.689L178.529 189.955L178.621 189.69C178.745 189.335 178.861 188.987 178.931 188.641C178.947 188.768 178.966 188.889 178.982 188.999L179.151 189C179.272 188.443 179.521 187.949 179.895 187.529C179.845 187.816 179.902 188.122 179.957 188.419C179.987 188.583 180.016 188.738 180.027 188.888C180.035 188.988 180.043 189.112 180.052 189.249C180.081 189.687 180.12 190.279 180.171 190.63L177.621 190.649L177.619 190.557C177.604 190.214 177.63 189.856 177.655 189.51C177.697 188.919 177.741 188.311 177.592 187.727C177.974 188.341 178.257 188.986 178.454 189.689Z" fill="#F88D2A"/>
<path d="M163.136 190.752L162.531 190.756C162.695 190.321 162.921 189.897 163.165 189.455C163.107 189.842 163.098 190.262 163.136 190.752Z" fill="#F88D2A"/>
<path d="M161.005 190.357C161.112 190.489 161.223 190.626 161.301 190.765L160.763 190.769L160.762 190.697C160.761 190.476 160.76 190.254 160.76 190.033C160.832 190.143 160.919 190.251 161.005 190.357Z" fill="#F88D2A"/>
<path d="M161.63 190.763C161.632 190.237 161.616 189.633 161.503 189.013C161.868 189.68 162.11 190.23 162.272 190.758L161.63 190.763Z" fill="#F88D2A"/>
<path d="M130.607 212.739C127.217 213.194 124.818 213.913 123.409 214.894C122.359 215.638 121.839 216.688 121.849 218.04C121.856 218.987 122.134 219.725 122.686 220.256C123.237 220.787 123.954 221.049 124.836 221.043C126.411 221.032 127.774 220.472 128.921 219.364C130.068 218.255 130.636 216.871 130.625 215.211L130.607 212.739ZM137.231 219.977L137.96 221.004C136.991 221.934 135.912 222.402 134.723 222.411C133.815 222.417 133.049 222.195 132.425 221.745C131.8 221.295 131.25 220.499 130.775 219.359C129.514 220.598 128.405 221.427 127.446 221.845C126.487 222.263 125.333 222.478 123.984 222.488C122.06 222.501 120.596 222.131 119.588 221.375C118.581 220.621 118.073 219.647 118.064 218.454C118.051 216.66 119.186 215.161 121.469 213.957C123.751 212.755 126.794 211.943 130.598 211.522L130.579 208.903C130.573 207.969 130.159 207.173 129.34 206.515C128.521 205.857 127.483 205.532 126.227 205.541C125.065 205.55 124.065 205.778 123.227 206.227C122.628 206.563 122.33 206.891 122.332 207.211C122.333 207.395 122.496 207.683 122.819 208.074C123.21 208.563 123.407 208.998 123.409 209.379C123.413 209.932 123.223 210.386 122.839 210.739C122.453 211.092 121.947 211.271 121.32 211.275C120.651 211.28 120.092 211.075 119.642 210.66C119.192 210.245 118.964 209.712 118.959 209.06C118.951 207.843 119.687 206.725 121.169 205.707C122.652 204.688 124.601 204.17 127.019 204.153C129.25 204.137 130.956 204.567 132.138 205.443C133.319 206.333 133.915 207.417 133.924 208.695L133.991 218.137C133.997 218.973 134.149 219.587 134.446 219.978C134.742 220.382 135.124 220.582 135.592 220.579C136.113 220.575 136.659 220.374 137.231 219.977Z" fill="#535050"/>
<path d="M130.607 212.739C127.217 213.194 124.818 213.913 123.409 214.894C122.359 215.638 121.839 216.688 121.849 218.04C121.856 218.987 122.134 219.725 122.686 220.256C123.237 220.787 123.954 221.049 124.836 221.043C126.411 221.032 127.774 220.472 128.921 219.364C130.068 218.255 130.636 216.871 130.625 215.211L130.607 212.739ZM137.231 219.977L137.96 221.004C136.991 221.934 135.912 222.402 134.723 222.411C133.815 222.417 133.049 222.195 132.425 221.745C131.8 221.295 131.25 220.499 130.775 219.359C129.514 220.598 128.405 221.427 127.446 221.845C126.487 222.263 125.333 222.478 123.984 222.488C122.06 222.501 120.596 222.131 119.588 221.375C118.581 220.621 118.073 219.647 118.064 218.454C118.051 216.66 119.186 215.161 121.469 213.957C123.751 212.755 126.794 211.943 130.598 211.522L130.579 208.903C130.573 207.969 130.159 207.173 129.34 206.515C128.521 205.857 127.483 205.532 126.227 205.541C125.065 205.55 124.065 205.778 123.227 206.227C122.628 206.563 122.33 206.891 122.332 207.211C122.333 207.395 122.496 207.683 122.819 208.074C123.21 208.563 123.407 208.998 123.409 209.379C123.413 209.932 123.223 210.386 122.839 210.739C122.453 211.092 121.947 211.271 121.32 211.275C120.651 211.28 120.092 211.075 119.642 210.66C119.192 210.245 118.964 209.712 118.959 209.06C118.951 207.843 119.687 206.725 121.169 205.707C122.652 204.688 124.601 204.17 127.019 204.153C129.25 204.137 130.956 204.567 132.138 205.443C133.319 206.333 133.915 207.417 133.924 208.695L133.991 218.137C133.997 218.973 134.149 219.587 134.446 219.978C134.742 220.382 135.124 220.582 135.592 220.579C136.113 220.575 136.659 220.374 137.231 219.977Z" fill="#535050"/>
<path d="M152.078 216.643L153.382 216.984C152.366 220.521 150.08 222.301 146.527 222.326C143.923 222.345 141.786 221.567 140.119 219.993C138.451 218.419 137.607 216.317 137.589 213.685C137.567 210.636 138.459 208.266 140.263 206.575C142.068 204.884 144.199 204.03 146.657 204.012C148.501 203.999 150.027 204.455 151.235 205.381C152.444 206.307 153.053 207.341 153.061 208.484C153.066 209.173 152.846 209.743 152.401 210.195C151.958 210.648 151.427 210.875 150.814 210.88C150.213 210.884 149.704 210.698 149.288 210.321C148.869 209.944 148.659 209.486 148.655 208.946C148.652 208.408 148.876 207.892 149.326 207.398C149.537 207.163 149.643 206.979 149.642 206.844C149.639 206.489 149.377 206.144 148.853 205.811C148.33 205.478 147.621 205.314 146.727 205.321C145.096 205.332 143.865 205.888 143.031 206.987C141.84 208.58 141.255 210.671 141.273 213.262C141.291 215.73 141.838 217.597 142.916 218.86C143.994 220.123 145.36 220.749 147.017 220.737C149.301 220.721 150.988 219.356 152.078 216.643Z" fill="#535050"/>
<path d="M152.078 216.643L153.382 216.984C152.366 220.521 150.08 222.301 146.527 222.326C143.923 222.345 141.786 221.567 140.119 219.993C138.451 218.419 137.607 216.317 137.589 213.685C137.567 210.636 138.459 208.266 140.263 206.575C142.068 204.884 144.199 204.03 146.657 204.012C148.501 203.999 150.027 204.455 151.235 205.381C152.444 206.307 153.053 207.341 153.061 208.484C153.066 209.173 152.846 209.743 152.401 210.195C151.958 210.648 151.427 210.875 150.814 210.88C150.213 210.884 149.704 210.698 149.288 210.321C148.869 209.944 148.659 209.486 148.655 208.946C148.652 208.408 148.876 207.892 149.326 207.398C149.537 207.163 149.643 206.979 149.642 206.844C149.639 206.489 149.377 206.144 148.853 205.811C148.33 205.478 147.621 205.314 146.727 205.321C145.096 205.332 143.865 205.888 143.031 206.987C141.84 208.58 141.255 210.671 141.273 213.262C141.291 215.73 141.838 217.597 142.916 218.86C143.994 220.123 145.36 220.749 147.017 220.737C149.301 220.721 150.988 219.356 152.078 216.643Z" fill="#535050"/>
<path d="M158.297 197.401L159.639 197.391L159.689 204.436L165.76 204.392L165.773 206.089L159.701 206.132L159.78 217.216C159.787 218.175 160.039 218.908 160.537 219.414C161.035 219.921 161.665 220.172 162.426 220.166C163.334 220.16 164.107 219.767 164.742 218.988C165.378 218.208 165.743 216.927 165.837 215.144L167.179 215.134C167.116 217.434 166.56 219.144 165.513 220.264C164.465 221.384 163.1 221.95 161.418 221.962C159.868 221.973 158.653 221.592 157.773 220.817C156.892 220.043 156.447 219.023 156.438 217.756L156.355 206.156L153.089 206.18L153.08 204.889C154.567 204.645 155.696 204.065 156.466 203.149C157.61 201.776 158.219 199.86 158.297 197.401Z" fill="#535050"/>
<path d="M158.297 197.401L159.639 197.391L159.689 204.436L165.76 204.392L165.773 206.089L159.701 206.132L159.78 217.216C159.787 218.175 160.039 218.908 160.537 219.414C161.035 219.921 161.665 220.172 162.426 220.166C163.334 220.16 164.107 219.767 164.742 218.988C165.378 218.208 165.743 216.927 165.837 215.144L167.179 215.134C167.116 217.434 166.56 219.144 165.513 220.264C164.465 221.384 163.1 221.95 161.418 221.962C159.868 221.973 158.653 221.592 157.773 220.817C156.892 220.043 156.447 219.023 156.438 217.756L156.355 206.156L153.089 206.18L153.08 204.889C154.567 204.645 155.696 204.065 156.466 203.149C157.61 201.776 158.219 199.86 158.297 197.401Z" fill="#535050"/>
<path d="M166.544 204.387L174.016 204.13L174.122 218.994C174.125 219.4 174.234 219.688 174.449 219.859C174.759 220.102 175.147 220.223 175.614 220.219L177.738 220.204L177.748 221.588L167.069 221.664L167.059 220.28L169.042 220.266C169.63 220.262 170.059 220.127 170.331 219.861C170.604 219.595 170.738 219.209 170.734 218.705L170.656 207.825C170.651 207.136 170.434 206.618 170.005 206.271C169.574 205.923 168.939 205.752 168.097 205.759L166.554 205.77L166.544 204.387Z" fill="#535050"/>
<path d="M166.544 204.387L174.016 204.13L174.122 218.994C174.125 219.4 174.234 219.688 174.449 219.859C174.759 220.102 175.147 220.223 175.614 220.219L177.738 220.204L177.748 221.588L167.069 221.664L167.059 220.28L169.042 220.266C169.63 220.262 170.059 220.127 170.331 219.861C170.604 219.595 170.738 219.209 170.734 218.705L170.656 207.825C170.651 207.136 170.434 206.618 170.005 206.271C169.574 205.923 168.939 205.752 168.097 205.759L166.554 205.77L166.544 204.387Z" fill="#535050"/>
<path d="M182.265 197.229L183.606 197.22L183.657 204.264L189.728 204.221L189.74 205.918L183.669 205.961L183.748 217.044C183.755 218.003 184.007 218.736 184.505 219.243C185.003 219.749 185.633 220 186.394 219.995C187.302 219.988 188.075 219.595 188.71 218.816C189.346 218.037 189.711 216.756 189.805 214.972L191.147 214.963C191.084 217.263 190.528 218.973 189.481 220.093C188.433 221.213 187.068 221.779 185.385 221.791C183.836 221.802 182.62 221.421 181.741 220.646C180.86 219.872 180.414 218.851 180.405 217.585L180.322 205.985L177.057 206.008L177.048 204.717C178.534 204.473 179.663 203.893 180.434 202.978C181.577 201.605 182.187 199.689 182.265 197.229Z" fill="#535050"/>
<path d="M182.265 197.229L183.606 197.22L183.657 204.264L189.728 204.221L189.74 205.918L183.669 205.961L183.748 217.044C183.755 218.003 184.007 218.736 184.505 219.243C185.003 219.749 185.633 220 186.394 219.995C187.302 219.988 188.075 219.595 188.71 218.816C189.346 218.037 189.711 216.756 189.805 214.972L191.147 214.963C191.084 217.263 190.528 218.973 189.481 220.093C188.433 221.213 187.068 221.779 185.385 221.791C183.836 221.802 182.62 221.421 181.741 220.646C180.86 219.872 180.414 218.851 180.405 217.585L180.322 205.985L177.057 206.008L177.048 204.717C178.534 204.473 179.663 203.893 180.434 202.978C181.577 201.605 182.187 199.689 182.265 197.229Z" fill="#535050"/>
<path d="M197.306 203.853L197.387 215.305C197.398 216.707 197.788 217.786 198.56 218.542C199.332 219.299 200.324 219.674 201.538 219.665C203.03 219.654 204.295 219.089 205.334 217.968C206.372 216.849 206.886 215.452 206.874 213.78L206.828 207.307C206.823 206.717 206.59 206.261 206.126 205.938C205.663 205.616 204.777 205.441 203.468 205.413L203.459 204.122L210.048 203.762L210.149 217.943C210.154 218.595 210.358 219.094 210.761 219.442C211.164 219.789 211.727 219.961 212.448 219.955L213.631 219.947L213.64 221.183L207.328 221.357L206.904 217.966C205.792 219.192 204.672 220.116 203.542 220.738C202.412 221.361 201.268 221.677 200.108 221.685C198.415 221.697 196.991 221.185 195.836 220.148C194.668 219.124 194.076 217.376 194.058 214.905L194.005 207.399C194 206.735 193.709 206.233 193.132 205.893C192.73 205.65 191.908 205.52 190.665 205.505L190.656 204.214L197.306 203.853Z" fill="#535050"/>
<path d="M197.306 203.853L197.387 215.305C197.398 216.707 197.788 217.786 198.56 218.542C199.332 219.299 200.324 219.674 201.538 219.665C203.03 219.654 204.295 219.089 205.334 217.968C206.372 216.849 206.886 215.452 206.874 213.78L206.828 207.307C206.823 206.717 206.59 206.261 206.126 205.938C205.663 205.616 204.777 205.441 203.468 205.413L203.459 204.122L210.048 203.762L210.149 217.943C210.154 218.595 210.358 219.094 210.761 219.442C211.164 219.789 211.727 219.961 212.448 219.955L213.631 219.947L213.64 221.183L207.328 221.357L206.904 217.966C205.792 219.192 204.672 220.116 203.542 220.738C202.412 221.361 201.268 221.677 200.108 221.685C198.415 221.697 196.991 221.185 195.836 220.148C194.668 219.124 194.076 217.376 194.058 214.905L194.005 207.399C194 206.735 193.709 206.233 193.132 205.893C192.73 205.65 191.908 205.52 190.665 205.505L190.656 204.214L197.306 203.853Z" fill="#535050"/>
<path d="M222.959 204.997C221.516 205.008 220.374 205.563 219.534 206.663C218.693 207.763 218.282 209.611 218.301 212.205C218.321 215.02 218.769 217 219.646 218.143C220.523 219.287 221.642 219.853 223.004 219.844C224.46 219.833 225.701 219.182 226.728 217.889C227.753 216.598 228.258 214.716 228.24 212.245C228.224 209.909 227.656 208.074 226.538 206.742C225.568 205.569 224.374 204.987 222.959 204.997ZM224.042 193.979L231.373 193.613L231.542 217.256C231.549 218.178 231.744 218.835 232.127 219.225C232.511 219.616 233.083 219.808 233.845 219.803L235.147 219.794L235.157 221.177L228.745 221.223L228.24 217.703C227.487 218.963 226.602 219.913 225.584 220.554C224.567 221.194 223.423 221.519 222.155 221.528C220.018 221.543 218.191 220.733 216.677 219.096C215.162 217.459 214.395 215.288 214.376 212.583C214.355 209.657 215.301 207.314 217.211 205.555C218.711 204.179 220.443 203.484 222.406 203.47C223.608 203.462 224.69 203.73 225.648 204.277C226.607 204.824 227.445 205.654 228.161 206.767L228.092 197.011C228.088 196.495 227.868 196.088 227.431 195.79C226.994 195.491 226.316 195.346 225.394 195.352L224.051 195.362L224.042 193.979Z" fill="#535050"/>
<path d="M222.959 204.997C221.516 205.008 220.374 205.563 219.534 206.663C218.693 207.763 218.282 209.611 218.301 212.205C218.321 215.02 218.769 217 219.646 218.143C220.523 219.287 221.642 219.853 223.004 219.844C224.46 219.833 225.701 219.182 226.728 217.889C227.753 216.598 228.258 214.716 228.24 212.245C228.224 209.909 227.656 208.074 226.538 206.742C225.568 205.569 224.374 204.987 222.959 204.997ZM224.042 193.979L231.373 193.613L231.542 217.256C231.549 218.178 231.744 218.835 232.127 219.225C232.511 219.616 233.083 219.808 233.845 219.803L235.147 219.794L235.157 221.177L228.745 221.223L228.24 217.703C227.487 218.963 226.602 219.913 225.584 220.554C224.567 221.194 223.423 221.519 222.155 221.528C220.018 221.543 218.191 220.733 216.677 219.096C215.162 217.459 214.395 215.288 214.376 212.583C214.355 209.657 215.301 207.314 217.211 205.555C218.711 204.179 220.443 203.484 222.406 203.47C223.608 203.462 224.69 203.73 225.648 204.277C226.607 204.824 227.445 205.654 228.161 206.767L228.092 197.011C228.088 196.495 227.868 196.088 227.431 195.79C226.994 195.491 226.316 195.346 225.394 195.352L224.051 195.362L224.042 193.979Z" fill="#535050"/>
<path d="M238.797 211.321L246.932 211.263C247.413 211.259 247.785 211.106 248.051 210.803C248.315 210.5 248.445 209.986 248.44 209.26C248.43 207.908 247.964 206.762 247.043 205.821C246.121 204.881 245.039 204.415 243.797 204.424C242.408 204.434 241.233 205.014 240.273 206.165C239.313 207.315 238.82 209.034 238.797 211.321ZM252.25 212.534L238.807 212.63C238.891 215.261 239.439 217.114 240.449 218.188C241.606 219.397 243.073 219.996 244.849 219.983C247.468 219.964 249.562 218.578 251.132 215.825L252.438 216.332C250.512 219.838 247.707 221.604 244.02 221.63C241.508 221.648 239.389 220.827 237.661 219.167C235.932 217.507 235.059 215.374 235.04 212.768C235.02 209.965 235.849 207.693 237.526 205.954C239.203 204.215 241.277 203.336 243.749 203.318C245.565 203.305 247.138 203.724 248.467 204.576C249.795 205.427 250.798 206.655 251.478 208.261C251.954 209.389 252.211 210.813 252.25 212.534Z" fill="#535050"/>
<path d="M238.797 211.321L246.932 211.263C247.413 211.259 247.785 211.106 248.051 210.803C248.315 210.5 248.445 209.986 248.44 209.26C248.43 207.908 247.964 206.762 247.043 205.821C246.121 204.881 245.039 204.415 243.797 204.424C242.408 204.434 241.233 205.014 240.273 206.165C239.313 207.315 238.82 209.034 238.797 211.321ZM252.25 212.534L238.807 212.63C238.891 215.261 239.439 217.114 240.449 218.188C241.606 219.397 243.073 219.996 244.849 219.983C247.468 219.964 249.562 218.578 251.132 215.825L252.438 216.332C250.512 219.838 247.707 221.604 244.02 221.63C241.508 221.648 239.389 220.827 237.661 219.167C235.932 217.507 235.059 215.374 235.04 212.768C235.02 209.965 235.849 207.693 237.526 205.954C239.203 204.215 241.277 203.336 243.749 203.318C245.565 203.305 247.138 203.724 248.467 204.576C249.795 205.427 250.798 206.655 251.478 208.261C251.954 209.389 252.211 210.813 252.25 212.534Z" fill="#535050"/>
<circle cx="171.69" cy="199.392" r="2.42821" transform="rotate(-0.409387 171.69 199.392)" fill="#535050"/>
<path d="M140.458 235.332L139.916 235.336L139.887 231.374L138.274 231.385L138.271 230.924L142.04 230.897L142.044 231.359L140.43 231.37L140.458 235.332Z" fill="#C10230"/>
<path d="M144.471 231.436L143.389 233.7L145.579 233.684L144.471 231.436ZM146.95 235.286L146.366 235.29L145.795 234.125L143.179 234.144L142.618 235.317L142.062 235.321L144.22 230.85L144.728 230.846L146.95 235.286Z" fill="#C10230"/>
<path d="M151.986 235.249L151.307 235.254L149.444 233.126L148.428 234.087L148.436 235.275L147.894 235.279L147.862 230.855L148.405 230.851L148.424 233.493L151.165 230.832L151.865 230.827L149.82 232.775L151.986 235.249Z" fill="#C10230"/>
<path d="M156.282 231.251L153.351 231.272L153.362 232.781L155.984 232.763L155.988 233.218L153.365 233.237L153.376 234.785L156.342 234.764L156.345 235.218L152.837 235.243L152.805 230.82L156.279 230.795L156.282 231.251Z" fill="#C10230"/>
<path d="M161.487 231.314L160.404 233.578L162.594 233.562L161.487 231.314ZM163.965 235.164L163.381 235.168L162.81 234.003L160.195 234.022L159.633 235.195L159.077 235.199L161.235 230.727L161.743 230.724L163.965 235.164Z" fill="#C10230"/>
<path d="M168.363 234.752C168.229 234.847 168.083 234.93 167.928 234.998C167.773 235.067 167.606 235.12 167.429 235.159C167.25 235.199 167.051 235.219 166.831 235.221C166.484 235.223 166.162 235.167 165.869 235.051C165.575 234.935 165.32 234.775 165.103 234.573C164.887 234.37 164.717 234.13 164.594 233.853C164.47 233.575 164.407 233.277 164.405 232.957C164.403 232.641 164.461 232.343 164.581 232.065C164.7 231.785 164.867 231.541 165.08 231.331C165.294 231.121 165.549 230.955 165.846 230.833C166.143 230.71 166.467 230.648 166.819 230.646C167.039 230.644 167.237 230.66 167.414 230.692C167.59 230.724 167.754 230.77 167.906 230.83C168.057 230.89 168.197 230.964 168.326 231.048C168.455 231.134 168.579 231.229 168.698 231.334L168.33 231.702C168.123 231.528 167.901 231.383 167.665 231.272C167.429 231.159 167.145 231.105 166.816 231.107C166.55 231.109 166.305 231.157 166.079 231.251C165.853 231.346 165.657 231.475 165.491 231.641C165.325 231.806 165.196 232.001 165.104 232.222C165.011 232.444 164.967 232.683 164.969 232.94C164.97 233.197 165.018 233.437 165.114 233.659C165.209 233.882 165.341 234.075 165.51 234.238C165.678 234.401 165.876 234.529 166.103 234.622C166.33 234.716 166.576 234.761 166.842 234.759C167.171 234.757 167.455 234.699 167.692 234.586C167.929 234.473 168.162 234.314 168.389 234.11L168.748 234.43C168.626 234.549 168.497 234.656 168.363 234.752Z" fill="#C10230"/>
<path d="M171.513 235.11L170.971 235.114L170.943 231.151L169.33 231.163L169.326 230.702L173.095 230.675L173.099 231.136L171.485 231.148L171.513 235.11Z" fill="#C10230"/>
<path d="M174.704 230.664L174.736 235.087L174.193 235.091L174.162 230.668L174.704 230.664Z" fill="#C10230"/>
<path d="M180.11 232.13C180.015 231.908 179.881 231.715 179.712 231.552C179.54 231.389 179.34 231.259 179.107 231.164C178.876 231.069 178.623 231.022 178.348 231.024C178.074 231.026 177.821 231.075 177.59 231.172C177.36 231.268 177.163 231.399 176.999 231.565C176.836 231.73 176.708 231.923 176.615 232.145C176.523 232.367 176.478 232.605 176.48 232.857C176.482 233.11 176.53 233.348 176.625 233.57C176.721 233.793 176.854 233.986 177.025 234.149C177.196 234.312 177.396 234.441 177.628 234.536C177.86 234.632 178.113 234.678 178.388 234.676C178.662 234.674 178.915 234.626 179.145 234.529C179.376 234.432 179.573 234.301 179.736 234.136C179.9 233.971 180.028 233.777 180.12 233.555C180.213 233.333 180.258 233.096 180.256 232.843C180.255 232.59 180.206 232.353 180.11 232.13ZM180.646 233.702C180.53 233.98 180.364 234.224 180.151 234.437C179.937 234.649 179.68 234.818 179.378 234.944C179.078 235.071 178.743 235.135 178.377 235.138C178.011 235.141 177.678 235.082 177.377 234.962C177.076 234.842 176.818 234.679 176.602 234.471C176.384 234.264 176.217 234.023 176.098 233.748C175.979 233.473 175.919 233.182 175.917 232.874C175.915 232.567 175.972 232.275 176.089 231.998C176.206 231.721 176.371 231.476 176.585 231.264C176.798 231.052 177.056 230.883 177.357 230.756C177.659 230.63 177.992 230.565 178.359 230.563C178.725 230.56 179.058 230.619 179.359 230.739C179.659 230.859 179.918 231.022 180.135 231.229C180.351 231.436 180.519 231.677 180.638 231.952C180.756 232.228 180.817 232.519 180.819 232.826C180.821 233.134 180.764 233.426 180.646 233.702Z" fill="#C10230"/>
<path d="M185.484 230.587L186.013 230.583L186.044 235.006L185.612 235.009L182.483 231.405L182.509 235.032L181.98 235.035L181.948 230.612L182.456 230.608L185.509 234.132L185.484 230.587Z" fill="#C10230"/>
<path d="M191.664 235.776L191.622 229.924L192.068 229.921L192.11 235.772L191.664 235.776Z" fill="#535050"/>
<path d="M201.218 232.004C201.123 231.79 200.988 231.604 200.816 231.448C200.643 231.291 200.433 231.168 200.185 231.08C199.937 230.99 199.662 230.947 199.36 230.949L198.234 230.957L198.259 234.458L199.385 234.45C199.687 234.448 199.961 234.402 200.208 234.312C200.455 234.222 200.663 234.097 200.833 233.938C201.004 233.778 201.136 233.593 201.228 233.382C201.32 233.17 201.366 232.94 201.364 232.692C201.362 232.448 201.313 232.218 201.218 232.004ZM201.747 233.551C201.626 233.824 201.452 234.061 201.228 234.26C201.002 234.46 200.733 234.618 200.42 234.734C200.108 234.849 199.763 234.909 199.388 234.911L197.72 234.923L197.689 230.5L199.357 230.488C199.732 230.485 200.077 230.539 200.391 230.648C200.705 230.757 200.977 230.911 201.205 231.107C201.432 231.303 201.61 231.536 201.735 231.804C201.86 232.073 201.925 232.364 201.927 232.675C201.929 232.987 201.869 233.279 201.747 233.551Z" fill="#C10230"/>
<path d="M207.052 231.937C206.957 231.715 206.824 231.522 206.653 231.359C206.483 231.196 206.282 231.066 206.05 230.971C205.819 230.876 205.565 230.829 205.291 230.831C205.016 230.833 204.763 230.882 204.533 230.979C204.302 231.075 204.105 231.206 203.942 231.372C203.778 231.537 203.65 231.73 203.558 231.952C203.466 232.174 203.42 232.412 203.422 232.664C203.424 232.917 203.473 233.155 203.568 233.377C203.663 233.6 203.796 233.793 203.967 233.956C204.137 234.119 204.339 234.248 204.57 234.343C204.803 234.439 205.055 234.485 205.33 234.483C205.605 234.481 205.857 234.433 206.088 234.336C206.318 234.239 206.515 234.108 206.679 233.943C206.843 233.778 206.971 233.584 207.062 233.362C207.155 233.14 207.2 232.903 207.198 232.65C207.196 232.397 207.148 232.16 207.052 231.937ZM207.589 233.51C207.472 233.787 207.306 234.031 207.093 234.244C206.879 234.456 206.622 234.625 206.321 234.752C206.019 234.878 205.686 234.943 205.32 234.945C204.954 234.948 204.62 234.889 204.32 234.769C204.019 234.649 203.76 234.486 203.544 234.278C203.327 234.071 203.159 233.83 203.04 233.555C202.922 233.28 202.861 232.989 202.859 232.681C202.857 232.374 202.915 232.082 203.032 231.805C203.148 231.528 203.314 231.283 203.528 231.071C203.741 230.859 203.998 230.69 204.3 230.563C204.601 230.437 204.935 230.372 205.301 230.37C205.667 230.367 206 230.426 206.301 230.546C206.601 230.666 206.861 230.829 207.077 231.036C207.293 231.243 207.461 231.484 207.58 231.759C207.699 232.035 207.759 232.326 207.761 232.633C207.763 232.941 207.706 233.233 207.589 233.51Z" fill="#C10230"/>
<path d="M214.314 234.682C213.988 234.817 213.621 234.886 213.214 234.889C212.834 234.891 212.494 234.835 212.193 234.719C211.893 234.603 211.635 234.443 211.421 234.238C211.207 234.033 211.042 233.792 210.928 233.514C210.814 233.238 210.756 232.941 210.754 232.625C210.752 232.321 210.808 232.03 210.922 231.752C211.037 231.472 211.199 231.227 211.408 231.015C211.617 230.803 211.869 230.633 212.163 230.507C212.457 230.381 212.785 230.316 213.147 230.314C213.348 230.312 213.532 230.323 213.7 230.348C213.867 230.372 214.023 230.409 214.168 230.458C214.312 230.507 214.448 230.568 214.574 230.641C214.701 230.714 214.823 230.796 214.943 230.889L214.596 231.27C214.504 231.195 214.407 231.127 214.306 231.067C214.205 231.007 214.096 230.955 213.978 230.911C213.862 230.868 213.733 230.834 213.594 230.81C213.454 230.785 213.299 230.774 213.13 230.775C212.864 230.777 212.62 230.828 212.396 230.926C212.172 231.025 211.981 231.157 211.822 231.322C211.663 231.488 211.539 231.682 211.449 231.904C211.358 232.127 211.314 232.362 211.316 232.611C211.318 232.877 211.364 233.122 211.456 233.348C211.546 233.573 211.675 233.767 211.841 233.93C212.007 234.094 212.207 234.221 212.441 234.312C212.675 234.404 212.939 234.448 213.231 234.446C213.506 234.444 213.764 234.399 214.006 234.31C214.248 234.222 214.451 234.115 214.615 233.992L214.608 232.888L213.145 232.898L213.142 232.456L215.126 232.441L215.139 234.2C214.915 234.387 214.641 234.547 214.314 234.682Z" fill="#C10230"/>
<path d="M220.329 231.843C220.234 231.62 220.101 231.427 219.93 231.265C219.759 231.101 219.559 230.972 219.326 230.877C219.095 230.782 218.842 230.735 218.567 230.737C218.292 230.739 218.04 230.788 217.809 230.885C217.579 230.981 217.382 231.112 217.218 231.278C217.054 231.443 216.926 231.636 216.834 231.858C216.742 232.08 216.697 232.318 216.699 232.57C216.701 232.823 216.749 233.061 216.844 233.283C216.94 233.506 217.073 233.699 217.244 233.862C217.414 234.025 217.615 234.154 217.847 234.249C218.079 234.345 218.333 234.391 218.607 234.389C218.881 234.387 219.134 234.338 219.365 234.242C219.595 234.145 219.792 234.014 219.956 233.849C220.119 233.684 220.247 233.49 220.339 233.268C220.431 233.046 220.477 232.809 220.475 232.556C220.473 232.303 220.424 232.066 220.329 231.843ZM220.866 233.415C220.748 233.693 220.583 233.937 220.369 234.15C220.156 234.361 219.899 234.531 219.597 234.657C219.296 234.783 218.962 234.848 218.596 234.851C218.23 234.854 217.896 234.795 217.596 234.675C217.296 234.555 217.037 234.392 216.82 234.184C216.604 233.977 216.436 233.736 216.317 233.461C216.199 233.186 216.138 232.895 216.136 232.587C216.133 232.28 216.191 231.988 216.308 231.71C216.425 231.434 216.59 231.189 216.804 230.977C217.018 230.765 217.275 230.596 217.576 230.469C217.878 230.343 218.212 230.278 218.577 230.276C218.944 230.273 219.277 230.332 219.578 230.452C219.878 230.572 220.137 230.735 220.354 230.942C220.57 231.149 220.738 231.39 220.856 231.665C220.975 231.941 221.035 232.232 221.038 232.539C221.04 232.847 220.983 233.139 220.866 233.415Z" fill="#C10230"/>
<path d="M226.161 231.801C226.066 231.578 225.933 231.385 225.763 231.223C225.593 231.059 225.391 230.93 225.159 230.834C224.928 230.74 224.674 230.693 224.4 230.695C224.125 230.697 223.872 230.746 223.642 230.842C223.411 230.939 223.214 231.07 223.051 231.236C222.887 231.401 222.759 231.594 222.667 231.816C222.575 232.038 222.53 232.276 222.532 232.528C222.533 232.781 222.582 233.019 222.677 233.241C222.773 233.464 222.906 233.657 223.076 233.82C223.247 233.983 223.448 234.112 223.679 234.207C223.912 234.303 224.165 234.349 224.439 234.347C224.714 234.345 224.967 234.296 225.197 234.2C225.428 234.103 225.624 233.972 225.788 233.807C225.952 233.642 226.079 233.447 226.172 233.226C226.264 233.004 226.309 232.766 226.308 232.514C226.306 232.261 226.257 232.023 226.161 231.801ZM226.698 233.373C226.581 233.651 226.416 233.895 226.202 234.107C225.989 234.319 225.732 234.489 225.43 234.615C225.129 234.741 224.795 234.806 224.429 234.809C224.063 234.811 223.729 234.753 223.429 234.632C223.128 234.512 222.87 234.349 222.653 234.142C222.436 233.935 222.268 233.694 222.15 233.419C222.032 233.144 221.971 232.853 221.969 232.545C221.966 232.238 222.024 231.945 222.141 231.668C222.258 231.392 222.423 231.147 222.636 230.935C222.851 230.723 223.108 230.553 223.409 230.427C223.71 230.301 224.044 230.236 224.41 230.234C224.776 230.231 225.109 230.29 225.411 230.409C225.711 230.53 225.97 230.693 226.186 230.9C226.403 231.107 226.571 231.348 226.689 231.623C226.808 231.898 226.868 232.19 226.87 232.497C226.872 232.805 226.815 233.097 226.698 233.373Z" fill="#C10230"/>
<path d="M231.536 231.787C231.44 231.573 231.306 231.387 231.133 231.23C230.961 231.073 230.751 230.951 230.503 230.863C230.255 230.773 229.98 230.73 229.678 230.732L228.552 230.74L228.577 234.241L229.703 234.233C230.005 234.231 230.28 234.185 230.526 234.095C230.773 234.004 230.981 233.88 231.151 233.72C231.322 233.561 231.453 233.376 231.546 233.165C231.638 232.953 231.683 232.723 231.682 232.475C231.68 232.231 231.631 232.001 231.536 231.787ZM232.065 233.334C231.944 233.607 231.77 233.843 231.545 234.043C231.32 234.242 231.051 234.401 230.739 234.517C230.425 234.632 230.082 234.692 229.706 234.694L228.038 234.706L228.006 230.283L229.675 230.271C230.05 230.268 230.395 230.321 230.709 230.431C231.024 230.54 231.295 230.694 231.523 230.89C231.751 231.086 231.927 231.319 232.053 231.587C232.178 231.856 232.242 232.146 232.244 232.458C232.246 232.77 232.187 233.062 232.065 233.334Z" fill="#C10230"/>
<defs>
<filter id="filter0_d_3153_1052" x="0.430283" y="0.430466" width="369.437" height="369.437" filterUnits="userSpaceOnUse" color-interpolation-filters="sRGB">
<feFlood flood-opacity="0" result="BackgroundImageFix"/>
<feColorMatrix in="SourceAlpha" type="matrix" values="0 0 0 0 0 0 0 0 0 0 0 0 0 0 0 0 0 0 127 0" result="hardAlpha"/>
<feOffset/>
<feGaussianBlur stdDeviation="42.6281"/>
<feComposite in2="hardAlpha" operator="out"/>
<feColorMatrix type="matrix" values="0 0 0 0 0 0 0 0 0 0 0 0 0 0 0 0 0 0 0.08 0"/>
<feBlend mode="normal" in2="BackgroundImageFix" result="effect1_dropShadow_3153_1052"/>
<feBlend mode="normal" in="SourceGraphic" in2="effect1_dropShadow_3153_1052" result="shape"/>
</filter>
</defs>
</svg>
