<svg width="128" height="138" viewBox="0 0 128 138" fill="none" xmlns="http://www.w3.org/2000/svg">
<g filter="url(#filter0_d_1351_4338)">
<circle cx="64" cy="73.4997" r="52" fill="#535050"/>
<circle cx="64" cy="73.4997" r="51" stroke="white" stroke-width="2"/>
</g>
<path d="M63.4139 41.1306L61.8419 41.1306L57.7739 35.7906L57.7739 41.1306L55.9499 41.1306L55.9499 32.7306L57.6539 32.7306L61.5899 37.9026L61.5899 32.7306L63.4139 32.7306L63.4139 41.1306ZM73.0624 39.9426C72.6304 40.3106 72.1144 40.6266 71.5144 40.8906C70.9224 41.1466 70.2424 41.2746 69.4744 41.2746C68.8184 41.2746 68.2184 41.1666 67.6744 40.9506C67.1384 40.7346 66.6744 40.4346 66.2824 40.0506C65.8984 39.6666 65.5984 39.2106 65.3824 38.6826C65.1664 38.1546 65.0584 37.5786 65.0584 36.9546L65.0584 36.9306C65.0584 36.3306 65.1664 35.7706 65.3824 35.2506C65.6064 34.7226 65.9144 34.2626 66.3064 33.8706C66.6984 33.4706 67.1624 33.1586 67.6984 32.9346C68.2344 32.7026 68.8224 32.5866 69.4624 32.5866C69.8384 32.5866 70.1784 32.6146 70.4824 32.6706C70.7944 32.7186 71.0824 32.7906 71.3464 32.8866C71.6104 32.9826 71.8584 33.1026 72.0904 33.2466C72.3224 33.3906 72.5464 33.5546 72.7624 33.7386L71.5984 35.1426C71.4384 35.0066 71.2784 34.8866 71.1184 34.7826C70.9584 34.6786 70.7904 34.5906 70.6144 34.5186C70.4464 34.4466 70.2624 34.3906 70.0624 34.3506C69.8624 34.3106 69.6424 34.2906 69.4024 34.2906C69.0664 34.2906 68.7504 34.3626 68.4544 34.5066C68.1664 34.6426 67.9104 34.8306 67.6864 35.0706C67.4704 35.3026 67.2984 35.5786 67.1704 35.8986C67.0504 36.2106 66.9904 36.5466 66.9904 36.9066L66.9904 36.9306C66.9904 37.3146 67.0504 37.6706 67.1704 37.9986C67.2984 38.3186 67.4744 38.5986 67.6984 38.8386C67.9304 39.0786 68.1984 39.2666 68.5024 39.4026C68.8144 39.5306 69.1584 39.5946 69.5344 39.5946C70.2224 39.5946 70.8024 39.4266 71.2744 39.0906L71.2744 37.8906L69.4144 37.8906L69.4144 36.2946L73.0624 36.2946L73.0624 39.9426ZM83.3965 36.9306C83.3965 37.5306 83.2845 38.0946 83.0605 38.6226C82.8365 39.1426 82.5245 39.6026 82.1245 40.0026C81.7325 40.3946 81.2605 40.7066 80.7085 40.9386C80.1645 41.1626 79.5685 41.2746 78.9205 41.2746C78.2725 41.2746 77.6765 41.1626 77.1325 40.9386C76.5885 40.7066 76.1165 40.3986 75.7165 40.0146C75.3245 39.6226 75.0165 39.1666 74.7925 38.6466C74.5765 38.1186 74.4685 37.5546 74.4685 36.9546L74.4685 36.9306C74.4685 36.3306 74.5805 35.7706 74.8045 35.2506C75.0285 34.7226 75.3365 34.2626 75.7285 33.8706C76.1285 33.4706 76.6005 33.1586 77.1445 32.9346C77.6965 32.7026 78.2965 32.5866 78.9445 32.5866C79.5925 32.5866 80.1885 32.7026 80.7325 32.9346C81.2765 33.1586 81.7445 33.4666 82.1365 33.8586C82.5365 34.2426 82.8445 34.6986 83.0605 35.2266C83.2845 35.7466 83.3965 36.3066 83.3965 36.9066L83.3965 36.9306ZM81.4645 36.9546L81.4645 36.9306C81.4645 36.5706 81.4005 36.2306 81.2725 35.9106C81.1525 35.5906 80.9765 35.3106 80.7445 35.0706C80.5205 34.8306 80.2525 34.6426 79.9405 34.5066C79.6285 34.3626 79.2885 34.2906 78.9205 34.2906C78.5445 34.2906 78.2005 34.3586 77.8885 34.4946C77.5845 34.6306 77.3205 34.8186 77.0965 35.0586C76.8805 35.2986 76.7085 35.5786 76.5805 35.8986C76.4605 36.2106 76.4005 36.5466 76.4005 36.9066L76.4005 36.9306C76.4005 37.2906 76.4605 37.6306 76.5805 37.9506C76.7085 38.2706 76.8845 38.5506 77.1085 38.7906C77.3405 39.0306 77.6085 39.2226 77.9125 39.3666C78.2245 39.5026 78.5685 39.5706 78.9445 39.5706C79.3125 39.5706 79.6525 39.5026 79.9645 39.3666C80.2765 39.2306 80.5405 39.0426 80.7565 38.8026C80.9805 38.5626 81.1525 38.2866 81.2725 37.9746C81.4005 37.6546 81.4645 37.3146 81.4645 36.9546Z" fill="white"/>
<path d="M32.5162 103.499H97.4382C97.6959 103.499 98 103.154 98 102.877V99.7098C98 99.4341 97.6959 99.1283 97.4382 99.1283H95.8V72.4892H90.8499V65.7782L83.6998 68.3521V55.5562L83.6464 55.4595C83.5458 55.2158 80.9812 49.4998 64.562 49.4998C49.5358 49.4998 46.4722 55.1805 46.3489 55.4225L46.2986 55.5343V68.353L39.1485 65.779V72.49H34.2V99.1291H32.5162C32.2585 99.1291 32 99.4341 32 99.7106V102.878C32 103.154 32.2585 103.5 32.5162 103.5V103.499ZM93.2864 73.4984H94.8579V99.1291H93.2864V73.4984ZM90.8507 73.4984H92.4221V99.1291H90.8507V73.4984ZM83.7006 92.7769V69.4059L89.9078 67.1647V99.1291H83.7006V92.7769ZM47.243 68.6858V55.8091C47.5573 55.0856 51.2707 50.4981 64.58 50.4981C79.2243 50.4981 82.3649 55.136 82.7577 55.7881V68.7009C80.872 67.5488 75.6022 64.9445 65.0083 64.8815C65.0004 64.8815 64.9886 64.879 64.98 64.879C64.9729 64.879 64.965 64.8807 64.958 64.8815C64.844 64.8815 64.7466 64.8781 64.6311 64.8781C54.5597 64.8781 49.128 67.5715 47.2423 68.7194V68.6849L47.243 68.6858ZM79.9291 91.3651V84.5448C81.5006 85.0138 82.3649 85.4381 82.7577 85.6415V92.0811C82.1292 91.9013 81.1863 91.6399 79.9291 91.3651ZM82.7577 93.134V99.1291H79.9291V92.3954C81.5006 92.7038 82.3649 92.9861 82.7577 93.134ZM79.9291 83.4894V76.7405C81.5006 77.2935 82.3649 77.7918 82.7577 78.0187V84.5331C82.1292 84.265 81.1863 83.886 79.9291 83.4885V83.4894ZM79.9291 75.6682V68.4236C81.5006 69.0622 82.3649 69.6354 82.7577 69.8841V76.8758C82.1292 76.5632 81.1863 76.1262 79.9291 75.6691V75.6682ZM74.5862 90.5676V83.3389C76.472 83.6163 77.7291 83.944 79.0648 84.2684V91.1819C77.7291 90.9643 76.472 90.7491 74.5862 90.5676ZM79.0648 92.208V99.1291H74.6884C74.6884 99.1291 74.5862 99.1165 74.5862 99.1115V91.5786C76.472 91.766 77.7291 91.9878 79.0648 92.208ZM74.5862 82.3196V75.338C76.472 75.6607 77.7291 76.0422 79.0648 76.4187V83.2204C77.7291 82.902 76.472 82.586 74.5862 82.3204V82.3196ZM74.5862 74.3144V66.8244C76.472 67.1916 77.7291 67.6269 79.0648 68.0563V75.3573C77.7291 74.9875 76.472 74.6228 74.5862 74.3144ZM65.3147 90.0979V82.6288C68.6933 82.6616 71.5219 82.8852 73.7219 83.2011V90.476C71.5219 90.2659 68.6933 90.1189 65.3147 90.0979ZM69.9505 91.2155V99.1291H65.3147V91.097C67.1218 91.108 68.379 91.15 69.9505 91.2155ZM73.7219 75.1791V82.186C71.5219 81.8776 68.6933 81.6616 65.3147 81.6305V74.5144C68.6933 74.5522 71.5219 74.8128 73.7219 75.1791ZM65.3147 73.5153V65.8857C68.6933 65.9294 71.5219 66.2252 73.7219 66.6429V74.159C71.5219 73.8018 68.6933 73.5514 65.3147 73.5153ZM70.8933 91.2651C71.8362 91.3265 72.7791 91.4004 73.7219 91.4853V99.1115C73.7219 99.1165 73.7573 99.1291 73.7573 99.1291H70.8933V91.2651ZM56.5931 90.4298V83.1339C58.7932 82.8322 61.5432 82.6288 64.3718 82.6246V90.0953C61.5432 90.0987 58.7932 90.2306 56.5931 90.4306V90.4298ZM64.3718 91.0937V99.1299H60.3646V91.1912C61.5432 91.1307 62.8004 91.0954 64.3718 91.0937ZM59.3432 91.2391V99.1299H56.5931V91.4391C57.536 91.3618 58.4789 91.2937 59.3432 91.2391ZM56.5931 82.1179V75.101C58.7932 74.7514 61.5432 74.5144 64.3718 74.5094V81.6263C61.5432 81.6305 58.7932 81.8255 56.5931 82.1179ZM56.5931 74.08V66.5538C58.7932 66.1555 61.5432 65.8857 64.3718 65.8798V73.5102C61.5432 73.5153 58.7932 73.7405 56.5931 74.08ZM51.0145 91.1777V84.2625C52.2717 83.9121 53.7645 83.5591 55.6503 83.27V90.5206C53.7645 90.7105 52.2717 90.9433 51.0145 91.1786V91.1777ZM55.6503 91.5315V99.1299H51.0145V92.2038C52.2717 91.966 53.7645 91.7265 55.6503 91.5315ZM51.0145 83.2137V76.4119C52.2717 76.0052 53.7645 75.5943 55.6503 75.2581V82.2498C53.7645 82.5272 52.2717 82.8683 51.0145 83.2137ZM51.0145 75.3489V68.0597C51.0145 68.0597 51.0059 68.0521 51.0059 68.0488C52.2465 67.5858 53.7645 67.1168 55.6503 66.7336V74.2329C53.7645 74.5539 52.2717 74.9497 51.0145 75.3489ZM47.243 69.8925C47.5573 69.6404 48.5002 69.0614 49.9931 68.4177V75.6623C48.8145 76.1304 47.8716 76.5783 47.243 76.8909V69.8917V69.8925ZM47.243 78.0271C47.5573 77.7977 48.5002 77.2943 49.9931 76.7355V83.4843C48.8145 83.8902 47.8716 84.2784 47.243 84.5474V78.0271ZM47.243 85.6499C47.5573 85.4449 48.5002 85.0154 49.9931 84.5415V91.3626C48.8145 91.6441 47.8716 91.9113 47.243 92.0912V85.6499ZM47.243 93.1399C47.5573 92.9912 48.5002 92.7046 49.9931 92.392V99.1291H47.243V93.1399ZM40.093 72.6161V67.1656L46.3002 69.4068V99.1299H40.093V72.6161ZM37.5786 73.4993H39.1501V99.1299H37.5786V73.4993ZM35.1429 73.4993H36.6358V99.1299H35.1429V73.4993ZM32.8643 100.138H97.0579V102.491H32.8643V100.138Z" fill="white"/>
<defs>
<filter id="filter0_d_1351_4338" x="0" y="9.49973" width="128" height="128" filterUnits="userSpaceOnUse" color-interpolation-filters="sRGB">
<feFlood flood-opacity="0" result="BackgroundImageFix"/>
<feColorMatrix in="SourceAlpha" type="matrix" values="0 0 0 0 0 0 0 0 0 0 0 0 0 0 0 0 0 0 127 0" result="hardAlpha"/>
<feOffset/>
<feGaussianBlur stdDeviation="6"/>
<feComposite in2="hardAlpha" operator="out"/>
<feColorMatrix type="matrix" values="0 0 0 0 0 0 0 0 0 0 0 0 0 0 0 0 0 0 0.25 0"/>
<feBlend mode="normal" in2="BackgroundImageFix" result="effect1_dropShadow_1351_4338"/>
<feBlend mode="normal" in="SourceGraphic" in2="effect1_dropShadow_1351_4338" result="shape"/>
</filter>
</defs>
</svg>
