<svg width="226" height="35" viewBox="0 0 226 35" fill="none" xmlns="http://www.w3.org/2000/svg">
<path d="M223 12L20.9995 19" stroke="#F88D2A" stroke-width="5" stroke-linecap="round"/>
<path d="M21.3037 6.05565C23.7758 5.62841 26.1129 5.85751 27.7223 7.34437C29.8551 9.31226 29.1679 13.1609 27.4194 15.4817C25.9145 17.4791 23.7856 18.6945 21.6996 19.7558C24.6379 20.0623 30.4078 23.6896 29.0756 28.0881C28.78 29.0648 27.9256 29.6972 27.1059 30.1492C22.1673 32.8739 17.1152 31.6952 12.6499 29.2892C11.7229 28.7882 1.55249 20.9979 1.1489 21.7055C5.93569 16.8821 5.33415 18.5803 11.3999 11.7779C13.339 9.60423 17.7956 6.65961 21.3037 6.05565Z" fill="#F88D2A"/>
</svg>
