<svg width="759" height="959" viewBox="0 0 759 959" fill="none" xmlns="http://www.w3.org/2000/svg">
<path d="M11.9801 683.777C11.2417 683.198 11.0348 682.154 11.5363 681.332C13.4382 678.174 15.5867 675.067 17.9124 672.099L18.0743 671.892C18.7107 671.08 19.8959 670.936 20.7081 671.573C21.5203 672.209 21.6642 673.394 21.0278 674.206L20.8543 674.428C18.6443 677.248 16.5883 680.237 14.7643 683.265C14.2313 684.158 13.0768 684.445 12.1836 683.912C12.1245 683.866 12.0655 683.82 12.0064 683.773L11.9801 683.777ZM34.2485 658.611C34.1304 658.518 34.027 658.437 33.9436 658.3C33.285 657.498 33.4225 656.319 34.2245 655.66C40.5198 650.607 47.5387 646.12 55.0685 642.32C55.9867 641.847 57.1157 642.232 57.588 643.15C58.0487 644.083 57.6761 645.197 56.7579 645.669C49.4523 649.335 42.6693 653.673 36.5834 658.581C35.8887 659.133 34.9246 659.116 34.2601 658.596L34.2485 658.611ZM63.28 641.604C63.029 641.407 62.8242 641.151 62.7069 640.845C62.3104 639.891 62.7652 638.793 63.7193 638.397C69.5609 635.991 75.6412 634.01 81.8022 632.474C82.8134 632.217 83.8247 632.843 84.0663 633.842C84.3227 634.854 83.6971 635.865 82.6975 636.107C76.7177 637.594 70.8185 639.526 65.1549 641.857C64.5073 642.136 63.7969 642.009 63.28 641.604ZM92.1267 633.532C91.7722 633.255 91.5072 632.832 91.4349 632.347C91.2839 631.323 91.9685 630.358 92.9925 630.207C100.297 629.066 107.918 628.435 115.67 628.336C116.698 628.332 117.559 629.149 117.578 630.189C117.598 631.229 116.765 632.078 115.725 632.098C108.146 632.189 100.699 632.813 93.5781 633.931C93.0398 634.009 92.5286 633.871 92.1299 633.559L92.1267 633.532Z" fill="url(#paint0_linear_939_6845)"/>
<path d="M244.057 664.202C243.422 663.705 243.155 662.829 243.46 662.043C243.837 661.075 244.928 660.595 245.885 660.987L246.279 661.153C250.28 662.739 254.292 664.31 258.29 665.869C259.258 666.246 259.738 667.337 259.361 668.305C258.984 669.273 257.893 669.752 256.925 669.375C252.912 667.805 248.9 666.234 244.899 664.648L244.493 664.497C244.311 664.425 244.166 664.336 244.019 664.22L244.057 664.202ZM265.225 672.471C264.59 671.973 264.338 671.108 264.617 670.326C264.994 669.358 266.07 668.867 267.038 669.244C273.512 671.719 279.262 673.84 284.596 675.732C285.572 676.068 286.09 677.141 285.743 678.132C285.407 679.108 284.334 679.626 283.343 679.278C277.982 677.39 272.218 675.256 265.703 672.773C265.52 672.702 265.361 672.601 265.213 672.485L265.225 672.471ZM293.488 682.604C292.883 682.129 292.611 681.32 292.864 680.541C293.185 679.553 294.243 679.024 295.231 679.345C300.978 681.227 306.348 682.86 311.631 684.33C313.317 684.794 315.004 685.257 316.702 685.706C317.695 685.959 318.315 686.993 318.035 687.989C317.77 688.997 316.759 689.588 315.751 689.322C314.027 688.877 312.314 688.417 310.613 687.942C305.274 686.451 299.863 684.81 294.06 682.908C293.851 682.84 293.651 682.731 293.488 682.604Z" fill="url(#paint1_linear_939_6845)"/>
<path d="M440.151 696.031C439.782 695.741 439.517 695.319 439.456 694.819C439.305 693.795 440.019 692.853 441.043 692.702C443.776 692.317 446.502 691.879 449.225 691.415C450.246 691.237 451.211 691.922 451.389 692.943C451.566 693.963 450.881 694.929 449.86 695.106C447.111 695.573 444.358 696.014 441.588 696.417C441.049 696.496 440.55 696.343 440.166 696.042L440.151 696.031ZM466.76 690.997C466.436 690.742 466.192 690.384 466.099 689.955C465.869 688.94 466.483 687.944 467.495 687.687C471.119 686.833 474.775 685.908 478.331 684.929C479.328 684.661 480.374 685.242 480.642 686.238C480.91 687.235 480.328 688.281 479.332 688.549C475.723 689.535 472.029 690.478 468.367 691.35C467.782 691.487 467.203 691.344 466.775 691.008L466.76 690.997ZM499.111 681.404C498.845 681.196 498.622 680.902 498.502 680.57C498.143 679.598 498.654 678.52 499.626 678.161C507.231 675.421 514.779 672.327 522.03 668.975C522.966 668.54 524.098 668.951 524.521 669.902C524.955 670.838 524.556 671.955 523.594 672.393C516.241 675.784 508.59 678.917 500.883 681.697C500.256 681.92 499.586 681.801 499.084 681.408L499.111 681.404ZM530.113 668.087C529.907 667.925 529.72 667.707 529.597 667.468C529.137 666.535 529.509 665.421 530.427 664.949C535.969 662.165 541.471 659.158 546.754 656.005C547.651 655.468 548.797 655.77 549.318 656.656C549.84 657.541 549.553 658.699 548.667 659.22C543.294 662.398 537.731 665.452 532.102 668.287C531.434 668.621 530.66 668.515 530.099 668.075L530.113 668.087ZM556.118 653.118C555.956 652.99 555.831 652.845 555.704 652.674C555.144 651.806 555.39 650.64 556.243 650.069C559.797 647.754 563.323 645.321 566.738 642.849C569.292 640.989 571.874 639.032 574.4 637.055C575.217 636.408 576.396 636.545 577.043 637.362C577.69 638.179 577.553 639.358 576.736 640.005C574.175 642.026 571.555 644.001 568.952 645.894C565.488 648.399 561.912 650.864 558.323 653.224C557.63 653.683 556.753 653.615 556.133 653.129L556.118 653.118Z" fill="url(#paint2_linear_939_6845)"/>
<path d="M586.773 629.593C586.685 629.523 586.596 629.454 586.534 629.381C585.852 628.609 585.896 627.428 586.68 626.731C589.438 624.245 592.172 621.668 594.824 619.075C595.564 618.343 596.753 618.346 597.473 619.1C598.204 619.84 598.187 621.018 597.447 621.749C594.772 624.373 592.003 626.994 589.196 629.513C588.511 630.144 587.482 630.148 586.788 629.604L586.773 629.593ZM610.297 605.41C610.297 605.41 610.253 605.376 610.238 605.364C609.449 604.698 609.358 603.507 610.024 602.717C612.34 600.004 614.632 597.2 616.831 594.395C619.585 590.88 622.296 587.237 624.846 583.587C625.438 582.74 626.617 582.543 627.464 583.135C628.323 583.712 628.519 584.891 627.916 585.753C625.304 589.451 622.573 593.15 619.773 596.723C617.54 599.574 615.224 602.407 612.873 605.164C612.219 605.939 611.083 606.05 610.285 605.425L610.297 605.41ZM630.481 578.373C629.728 577.782 629.529 576.697 630.057 575.872C633.424 570.692 636.66 565.315 639.652 559.914C640.156 558.998 641.292 558.673 642.209 559.176C643.11 559.668 643.45 560.816 642.947 561.733C639.911 567.219 636.643 572.667 633.219 577.92C632.656 578.79 631.484 579.039 630.625 578.462C630.581 578.427 630.537 578.392 630.492 578.358L630.481 578.373ZM645.374 552.338C644.695 551.805 644.457 550.832 644.853 550.022C648.172 543.352 651.241 536.485 653.949 529.622C654.326 528.654 655.417 528.174 656.373 528.566C657.341 528.943 657.809 530.049 657.429 530.99C654.681 537.965 651.584 544.929 648.21 551.7C647.748 552.624 646.617 553.002 645.693 552.54C645.578 552.473 645.463 552.407 645.374 552.338ZM662.381 508.701C661.805 508.25 661.521 507.456 661.725 506.71C662.58 503.733 663.387 500.695 664.121 497.719C664.36 496.715 665.394 496.095 666.387 496.349C667.406 496.599 668.011 497.621 667.758 498.614C667.015 501.631 666.199 504.71 665.325 507.743C665.045 508.739 664.004 509.306 663.008 509.026C662.773 508.961 662.558 508.84 662.366 508.69L662.381 508.701ZM668.578 481.263C668.061 480.858 667.764 480.172 667.88 479.477C668.491 475.808 669.016 472.096 669.439 468.424C669.554 467.394 670.493 466.652 671.511 466.782C672.541 466.898 673.283 467.837 673.167 468.866C672.725 472.595 672.194 476.374 671.579 480.11C671.422 481.132 670.45 481.824 669.414 481.656C669.1 481.601 668.803 481.463 668.567 481.278L668.578 481.263ZM671.69 447.665C671.247 447.318 670.966 446.764 670.971 446.149C671.127 438.072 670.848 429.941 670.123 421.984C670.025 420.954 670.795 420.032 671.813 419.948C672.844 419.85 673.766 420.62 673.849 421.639C674.576 429.715 674.87 437.978 674.719 446.201C674.697 447.233 673.836 448.059 672.804 448.037C672.376 448.036 671.997 447.882 671.687 447.639L671.69 447.665ZM669.793 413.98C669.424 413.69 669.159 413.268 669.083 412.756L668.839 410.969C668.072 405.529 667.075 399.958 665.882 394.423C665.667 393.42 666.307 392.421 667.322 392.191C668.325 391.975 669.324 392.616 669.554 393.63C670.757 399.244 671.764 404.894 672.555 410.424L672.802 412.238C672.941 413.277 672.212 414.207 671.2 414.343C670.673 414.407 670.174 414.254 669.79 413.953L669.793 413.98ZM663.974 384.539C663.664 384.296 663.435 383.95 663.317 383.523C661.509 376.553 659.338 369.347 656.867 362.096C656.535 361.121 657.061 360.055 658.036 359.723C659.011 359.391 660.077 359.916 660.409 360.892C662.915 368.218 665.111 375.515 666.943 382.575C667.2 383.586 666.6 384.594 665.604 384.862C665.008 385.015 664.429 384.871 663.986 384.524L663.974 384.539Z" fill="url(#paint3_linear_939_6845)"/>
<path d="M604.821 232.847C604.585 232.662 604.41 232.429 604.269 232.152C602.986 229.288 601.703 226.424 600.47 223.527C600.073 222.572 600.502 221.478 601.453 221.055C602.392 220.647 603.501 221.087 603.924 222.038C605.154 224.909 606.408 227.75 607.688 230.588C608.11 231.539 607.697 232.645 606.746 233.068C606.087 233.361 605.338 233.252 604.807 232.835L604.821 232.847ZM593.999 206.873C593.733 206.665 593.525 206.383 593.404 206.05C592.061 202.471 590.771 198.886 589.572 195.397C589.24 194.422 589.765 193.356 590.741 193.024C591.716 192.691 592.782 193.217 593.114 194.192C594.295 197.643 595.567 201.191 596.919 204.728C597.277 205.7 596.793 206.775 595.836 207.145C595.196 207.383 594.512 207.252 594.01 206.858L593.999 206.873ZM583.632 174.751C583.322 174.508 583.093 174.161 582.977 173.761C580.829 165.643 579.086 157.556 577.806 149.761C577.629 148.74 578.34 147.772 579.349 147.609C580.37 147.432 581.349 148.128 581.5 149.152C582.768 156.842 584.48 164.786 586.604 172.813C586.872 173.809 586.276 174.844 585.265 175.1C584.668 175.253 584.063 175.112 583.62 174.765L583.632 174.751ZM577.155 141.648C576.771 141.347 576.518 140.91 576.442 140.398C575.657 134.039 575.168 127.698 574.968 121.535C574.937 120.51 575.74 119.637 576.777 119.592C577.802 119.561 578.674 120.363 578.72 121.4C578.919 127.443 579.41 133.691 580.179 139.918C580.304 140.945 579.575 141.876 578.548 142C578.021 142.064 577.548 141.908 577.164 141.607L577.155 141.648ZM575.645 111.698C575.187 111.339 574.906 110.785 574.926 110.181C575.122 102.541 575.8 94.9217 576.936 87.5411C577.092 86.5199 578.049 85.8157 579.07 85.9724C580.092 86.1291 580.796 87.0859 580.639 88.1072C579.537 95.3233 578.88 102.793 578.681 110.287C578.659 111.319 577.797 112.145 576.751 112.111C576.335 112.095 575.943 111.956 575.633 111.713L575.645 111.698Z" fill="url(#paint4_linear_939_6845)"/>
<path d="M191.929 552.88C190.113 551.457 188.667 549.561 187.845 547.415C185.429 541.161 187.671 533.98 193.549 529.124C194.203 528.564 198.435 526.66 202.892 527.816C205.486 528.49 209.01 530.441 211.07 535.964C213.666 542.932 210.914 550.976 204.791 554.258C201.892 555.8 198.547 555.992 195.371 554.814C194.139 554.349 192.963 553.69 191.929 552.88ZM195.862 532.104C192.37 535.04 189.16 540.414 191.356 546.067C192.286 548.44 194.26 550.392 196.695 551.299C198.862 552.092 201.12 551.978 203.041 550.956C207.558 548.537 209.542 542.537 207.582 537.283C206.473 534.317 204.802 532.435 202.608 531.646C199.647 530.589 196.526 531.743 195.873 532.089L195.862 532.104Z" fill="url(#paint5_linear_939_6845)"/>
<path d="M218.938 558.099C217.225 556.757 214.162 553.761 212.88 548.705C211.944 545.064 212.129 541.086 213.438 537.226C213.716 535.775 214.096 534.5 214.609 533.328C216.637 528.459 220.845 525.583 225.591 525.822C229.651 526.024 233.55 528.531 235.786 532.308C237.778 535.728 238.617 539.889 238.373 545.037C238.141 549.956 236.303 554.188 233.208 556.982L232.764 557.397C230.578 559.426 226.912 562.797 220.133 558.916C220.133 558.916 220.118 558.905 220.104 558.893C219.959 558.804 219.526 558.536 218.95 558.084L218.938 558.099ZM230.11 531.46C228.707 530.361 227.048 529.681 225.38 529.589C221.654 529.387 219.144 532.163 218.049 534.808C217.631 535.768 217.319 536.835 217.08 538.053C217.063 538.135 217.035 538.232 217.018 538.314C215.911 541.522 215.744 544.776 216.507 547.757C217.898 553.161 221.81 555.559 222.011 555.668C226.39 558.17 228.17 556.538 230.21 554.633L230.692 554.2C233.706 551.509 234.493 547.646 234.612 544.878C234.825 540.469 234.148 536.984 232.529 534.214C231.903 533.127 231.055 532.201 230.11 531.46Z" fill="url(#paint6_linear_939_6845)"/>
<path d="M242.856 569.191C239.032 566.194 237.64 561.338 237.147 558.378C236.327 553.493 236.988 548.696 239.009 544.869C239.314 544.298 239.66 543.735 240.02 543.183C240.529 542.199 241.272 541.16 242.15 540.252C245.74 536.582 251.266 534.763 256.924 535.359C262.485 535.927 266.968 539.177 268.303 543.679C269.702 548.374 268.014 553.295 266.677 557.253C264.746 563.033 262.028 566.957 258.366 569.259C254.22 571.874 249.438 572.441 245.521 570.778C244.521 570.352 243.627 569.819 242.845 569.206L242.856 569.191ZM262.281 541.296C260.598 539.977 258.402 539.282 256.537 539.107C252.002 538.629 247.619 540.056 244.837 542.906C244.22 543.542 243.694 544.274 243.26 545.102C242.868 545.724 242.576 546.187 242.326 546.658C240.705 549.701 240.169 553.762 240.857 557.781C241.33 560.583 242.761 565.541 247.016 567.35C249.779 568.538 253.291 568.071 256.379 566.106C259.274 564.298 261.482 561.024 263.129 556.093C264.372 552.468 265.758 548.358 264.711 544.797C264.28 543.339 263.38 542.205 262.288 541.349L262.281 541.296Z" fill="url(#paint7_linear_939_6845)"/>
<path d="M167.87 554.599C166.157 553.256 164.855 551.45 164.196 549.432C163.177 546.322 163.393 543.035 164.796 540.393C164.917 540.178 165.006 540.033 165.11 539.9L165.18 539.812C165.707 538.318 166.552 537.026 167.672 535.901C170.056 533.527 173.307 532.451 176.573 532.937C179.906 533.427 182.747 535.581 184.33 538.824C187.405 545.118 185.097 552.962 179.27 555.928C176.626 557.264 173.468 557.34 170.555 556.13C169.584 555.727 168.691 555.194 167.878 554.558L167.87 554.599ZM178.903 537.932C178.061 537.273 177.072 536.831 175.998 536.681C173.915 536.359 171.836 537.066 170.298 538.602C169.535 539.363 168.973 540.233 168.628 541.25C168.589 541.362 168.537 541.489 168.471 541.604C168.382 541.748 168.292 541.893 168.203 542.037L168.052 542.229C167.188 543.911 167.058 546.145 167.771 548.277C168.406 550.204 169.969 551.858 171.997 552.708C173.883 553.495 175.91 553.462 177.572 552.619C182.026 550.342 182.922 544.513 180.965 540.501C180.447 539.428 179.741 538.565 178.929 537.929L178.903 537.932Z" fill="url(#paint8_linear_939_6845)"/>
<path d="M267.586 597.98C266.227 596.916 264.99 595.636 263.888 594.153C259.655 588.453 258.04 580.324 259.685 572.962C262.216 561.55 271.696 552.795 283.283 551.149C286.94 550.344 290.706 550.435 294.206 551.413C299.586 552.911 303.731 556.35 306.193 561.33C309.05 567.144 309.215 574.447 306.602 580.884C302.103 592.04 290.674 602.795 277.549 601.782C273.813 601.501 270.448 600.199 267.612 597.977L267.586 597.98ZM298.58 557.724C297.029 556.509 295.221 555.593 293.187 555.024C290.27 554.216 287.093 554.134 284.023 554.827C283.971 554.834 283.918 554.84 283.88 554.858C273.812 556.24 265.567 563.842 263.365 573.771C261.983 580.006 263.368 587.12 266.93 591.913C268.831 594.475 272.259 597.614 277.856 598.043C289.067 598.914 299.238 589.127 303.131 579.475C305.34 574.008 305.222 567.862 302.826 562.982C301.779 560.85 300.349 559.086 298.591 557.709L298.58 557.724Z" fill="url(#paint9_linear_939_6845)"/>
<path d="M95.5617 769.833C87.5873 763.585 81.3448 754.761 78.0245 744.581C73.2609 729.885 74.6242 712.601 81.7874 697.193C86.6907 686.616 93.9654 677.301 101.012 668.307C108.556 658.679 116.325 648.703 120.963 637.369C123.559 631.014 125.232 624.103 126.852 617.412C129.279 607.349 131.796 596.927 137.513 587.989C146.039 574.673 161.872 565.295 179.891 562.921C194.621 560.972 211.223 563.327 229.263 569.93C238.901 573.478 252.727 579.497 261.52 591.058C272.014 604.857 273.104 624.73 264.14 639.394C259.747 646.582 252.848 652.498 244.682 656.014C244.633 656.047 244.569 656.068 244.516 656.075C244.516 656.075 244.364 656.146 244.262 656.186C240.821 657.779 237.138 658.921 233.414 659.507C225.694 660.751 217.651 659.883 209.851 659.039C198.502 657.798 187.778 656.64 178.577 661.753C169.74 666.674 163.615 677.533 162.197 690.841C161.33 699.004 162.037 707.471 162.735 715.644C163.043 719.389 163.378 723.25 163.548 727.078C164.278 742.998 161.76 754.515 155.652 763.315C146.518 776.463 127.986 782.655 111.564 778.033C105.781 776.41 100.346 773.582 95.5469 769.821L95.5617 769.833ZM250.456 585.224C244.726 580.735 237.365 576.898 227.965 573.442C210.499 567.05 194.493 564.756 180.368 566.631C163.44 568.859 148.6 577.609 140.657 589.999C135.262 598.404 132.934 608.068 130.486 618.28C128.829 625.109 127.134 632.17 124.435 638.779C119.588 650.592 111.642 660.763 103.962 670.595C97.0429 679.426 89.9218 688.575 85.1845 698.758C78.4258 713.316 77.1139 729.591 81.596 743.399C86.4411 758.325 98.6214 770.491 112.593 774.407C127.535 778.607 144.338 773.04 152.598 761.16C158.218 753.074 160.517 742.292 159.826 727.236C159.653 723.502 159.333 719.652 159.017 715.949C158.311 707.602 157.582 698.951 158.486 690.436C160.051 675.694 166.722 664.047 176.774 658.457C187.016 652.777 198.837 654.055 210.265 655.287C217.794 656.111 225.594 656.955 232.828 655.783C236.21 655.239 239.572 654.203 242.797 652.702C242.937 652.645 243.013 652.609 243.077 652.588C243.089 652.573 243.115 652.57 243.141 652.567C250.621 649.347 256.931 643.971 260.92 637.42C269.091 624.041 268.093 605.908 258.519 593.306C256.306 590.381 253.616 587.701 250.456 585.224Z" fill="url(#paint10_linear_939_6845)"/>
<path d="M233.506 644.541C233.359 644.425 233.219 644.269 233.106 644.109C232.535 643.256 232.766 642.078 233.619 641.507C240.057 637.185 246.718 632.728 251.45 626.568C256.536 619.924 258.307 612.159 256.197 605.787C255.876 604.797 256.402 603.731 257.392 603.41C258.367 603.078 259.433 603.604 259.768 604.605C262.288 612.157 260.288 621.219 254.453 628.849C249.354 635.508 242.125 640.355 235.734 644.618C235.041 645.076 234.153 645.024 233.533 644.538L233.506 644.541Z" fill="url(#paint11_linear_939_6845)"/>
<path d="M227.338 640.83C227.042 640.598 226.831 640.29 226.704 639.904C226.398 638.926 226.95 637.857 227.943 637.562C232.696 636.09 237.032 633.172 240.19 629.354C240.841 628.554 242.018 628.451 242.818 629.102C243.619 629.753 243.737 630.942 243.059 631.746C239.447 636.113 234.467 639.456 229.046 641.143C228.441 641.337 227.795 641.188 227.338 640.83Z" fill="url(#paint12_linear_939_6845)"/>
<path d="M86.0042 744.284C85.7974 744.122 85.6402 743.927 85.5176 743.688C79.8395 733.018 80.0181 719.407 85.9574 708.998C86.4757 708.093 87.6154 707.794 88.5054 708.301C89.4069 708.793 89.7088 709.959 89.2021 710.849C83.8789 720.167 83.73 732.373 88.8049 741.926C89.2887 742.829 88.9457 743.967 88.0307 744.465C87.3515 744.815 86.5538 744.738 85.9778 744.287L86.0042 744.284Z" fill="url(#paint13_linear_939_6845)"/>
<path d="M92.5537 741.979C92.3765 741.84 92.2225 741.671 92.1031 741.459C88.6159 735.628 87.7799 728.3 89.9007 721.882C90.2218 720.894 91.2801 720.365 92.2678 720.686C93.2555 721.007 93.7849 722.065 93.4638 723.053C91.6872 728.454 92.3826 734.623 95.3301 739.53C95.8666 740.427 95.5646 741.573 94.6792 742.095C93.9949 742.512 93.156 742.427 92.5653 741.964L92.5537 741.979Z" fill="url(#paint14_linear_939_6845)"/>
<path d="M317.771 447.33C298.633 432.334 289.592 404.968 296.644 381.823C300.096 370.513 306.808 360.638 313.278 351.074C318.72 343.063 324.329 334.779 327.889 325.795C330.917 318.157 332.541 309.849 334.115 301.787C335.828 293 337.611 283.911 341.223 275.468C349.482 256.198 367.38 241.598 387.964 237.349C390.505 236.814 393.2 236.446 395.967 236.231C404.691 235.56 413.824 236.709 422.347 239.55C426.966 240.834 431.707 242.57 436.425 244.67C454.895 252.945 468.525 265.602 474.804 280.341C482.385 298.103 477.939 319.382 464.467 329.823C455.661 336.652 444.371 338.65 433.473 340.574C421.791 342.647 410.75 344.601 402.721 351.99C391.407 362.383 390.319 380.168 390.768 396.203L390.787 396.909C391.22 413.025 391.727 431.298 381.388 444.432C374.816 452.82 363.992 458.21 352.445 458.863C341.958 459.441 330.862 456.204 321.18 449.762C320.003 448.983 318.846 448.148 317.739 447.28L317.771 447.33ZM300.239 382.923C293.243 405.875 303.146 433.296 323.279 446.688C332.291 452.677 342.586 455.69 352.249 455.158C362.736 454.581 372.529 449.717 378.453 442.156C387.959 430.085 387.51 413.288 387.05 397.055L387.031 396.349C386.573 379.474 387.78 360.686 400.2 349.276C409.048 341.147 421.148 338.996 432.83 336.924C443.294 335.066 454.113 333.151 462.187 326.893C474.365 317.464 478.295 298.091 471.364 281.841C465.446 267.981 452.5 256.002 434.907 248.128C430.331 246.091 425.746 244.429 421.291 243.179C421.235 243.16 421.179 243.14 421.138 243.131C413.089 240.447 404.472 239.368 396.251 240.005C393.642 240.201 391.12 240.561 388.734 241.051C369.337 245.062 352.459 258.817 344.682 276.986C341.224 285.049 339.497 293.945 337.815 302.541C336.219 310.752 334.55 319.24 331.387 327.201C327.672 336.565 321.936 345.011 316.393 353.181C310.068 362.501 303.529 372.154 300.251 382.909L300.239 382.923Z" fill="url(#paint15_linear_939_6845)"/>
<path d="M379.46 231.47C378.633 230.822 377.887 230.071 377.29 229.221C375.135 226.222 374.613 222.143 375.916 218.564C377.257 214.967 380.587 212.238 384.623 211.467C384.988 211.396 385.386 211.374 385.821 211.429C387.921 211.334 390.05 211.811 391.841 212.809C395.15 214.639 397.334 217.661 397.817 221.091C398.263 224.324 397.206 227.833 395.042 230.26C392.605 232.975 389.29 234.286 385.668 233.95C383.439 233.753 381.244 232.844 379.457 231.444L379.46 231.47ZM391.256 216.903C390.872 216.602 390.465 216.33 390.034 216.089C388.803 215.41 387.335 215.093 385.862 215.179C385.715 215.183 385.569 215.187 385.419 215.166C382.582 215.684 380.315 217.482 379.442 219.873C378.547 222.294 378.894 225.044 380.338 227.034C381.625 228.829 383.806 230.061 386.02 230.246C388.425 230.462 390.631 229.593 392.257 227.792C393.679 226.19 394.413 223.762 394.117 221.647C393.855 219.821 392.839 218.167 391.259 216.929L391.256 216.903Z" fill="url(#paint16_linear_939_6845)"/>
<path d="M405.027 232.057C402.132 229.789 400.127 226.143 399.776 222.484C399.318 218.05 401.078 213.614 404.481 210.608C406.385 208.453 408.973 207.097 411.771 206.81C415.345 206.417 418.731 207.783 421.086 210.557C423.663 213.625 424.093 217.609 424.12 219.703C424.199 223.436 423.297 226.685 421.44 229.329C419.606 231.944 416.726 233.763 413.521 234.326C410.616 234.839 407.637 234.078 405.148 232.175C405.104 232.141 405.06 232.106 405.015 232.071L405.027 232.057ZM417.153 211.957C415.75 210.857 413.99 210.336 412.158 210.545C410.258 210.749 408.501 211.684 407.212 213.177C407.154 213.25 407.108 213.31 407.02 213.36C404.482 215.566 403.155 218.84 403.484 222.101C403.746 224.809 405.295 227.547 407.415 229.161C408.578 230.049 410.487 231.02 412.882 230.609C415.067 230.223 417.117 228.945 418.356 227.151C419.745 225.165 420.417 222.665 420.355 219.733C420.304 217 419.523 214.529 418.194 212.939C417.868 212.565 417.519 212.22 417.135 211.919L417.153 211.957Z" fill="url(#paint17_linear_939_6845)"/>
<path d="M431.288 235.134C429.117 233.433 427.539 231.005 426.878 228.199C426.688 227.407 426.578 226.605 426.543 225.767C426.458 225.176 426.43 224.511 426.474 223.878C426.611 220.387 428.423 216.706 431.816 212.954C432.88 211.809 433.916 210.881 434.975 210.138C435.452 209.773 436.93 208.738 438.132 208.512C439.569 208.017 440.95 207.836 442.34 207.948C446.128 208.223 449.6 211.062 450.976 215.024C452.349 218.96 451.481 222.928 450.55 225.94C449.185 230.329 447.207 233.402 444.486 235.322C441.167 237.703 436.947 238.162 433.499 236.509C432.704 236.124 431.967 235.666 431.288 235.134ZM438.805 212.185C438.434 212.324 437.526 212.875 437.27 213.08C437.247 213.11 437.16 213.16 437.125 213.205C436.287 213.787 435.445 214.558 434.581 215.478C431.788 218.556 430.323 221.46 430.208 224.04C430.208 224.04 430.208 224.04 430.197 224.054C430.166 224.459 430.194 224.91 430.258 225.437C430.294 226.181 430.362 226.734 430.508 227.277C431.129 229.861 432.803 231.983 435.129 233.09C437.328 234.146 440.082 233.826 442.307 232.233C444.323 230.785 445.846 228.355 446.964 224.799C447.77 222.189 448.439 219.114 447.434 216.229C446.553 213.704 444.333 211.822 442.055 211.657C441.137 211.582 440.207 211.735 439.22 212.082C439.092 212.124 438.948 212.155 438.805 212.185Z" fill="url(#paint18_linear_939_6845)"/>
<path d="M455.429 246.115C454.839 245.652 454.283 245.145 453.747 244.582C451.196 241.845 449.928 238.11 450.171 234.059C450.617 225.399 460.678 217.576 466.99 216.73C467.069 216.72 467.148 216.711 467.215 216.716C471.299 216.675 474.974 218.433 477.05 221.442C479.485 224.995 479.354 229.087 478.799 231.893C477.412 239.291 472.943 247.611 464.583 248.759C461.377 249.202 458.135 248.259 455.418 246.13L455.429 246.115ZM467.376 220.465C462.482 221.206 454.246 227.885 453.909 234.246C453.728 237.275 454.65 240.023 456.481 242.005C458.628 244.284 461.397 245.404 464.077 245.026C470.479 244.155 473.975 237.29 475.118 231.178C475.515 229.058 475.654 226.021 473.965 223.554C472.621 221.619 470.154 220.448 467.376 220.465Z" fill="url(#paint19_linear_939_6845)"/>
<path d="M479.602 277.499C477.387 275.763 475.598 273.575 474.268 270.984C470.69 263.962 471.706 256.154 472.094 254.504C472.356 252.922 472.768 251.362 473.333 249.85C475.884 243.126 481.55 238.056 488.894 235.921C493.882 233.966 499.382 233.7 504.668 235.196C510.745 236.931 515.609 241.004 518.356 246.684C521.421 252.994 521.593 260.803 518.808 267.582C513.781 279.778 500.225 285.459 486.562 281.117C483.893 280.266 481.569 279.064 479.591 277.514L479.602 277.499ZM476.859 251.159C476.378 252.474 476.019 253.814 475.799 255.19C475.785 255.299 475.768 255.381 475.714 255.481C475.689 255.604 472.498 272.695 487.704 277.531C499.462 281.262 511.081 276.471 515.345 266.132C517.715 260.339 517.601 253.671 514.986 248.309C513.378 244.976 510.085 240.632 503.635 238.796C499.151 237.523 494.462 237.758 490.099 239.463C483.736 241.318 478.974 245.571 476.848 251.174L476.859 251.159Z" fill="url(#paint20_linear_939_6845)"/>
<path d="M270.506 460.2C270.196 459.957 269.871 459.703 269.543 459.422C261.32 452.335 256.736 441.212 257.581 430.339C257.31 422.929 259.036 415.797 262.611 409.684C264.687 406.091 267.021 403.63 269.716 402.167C273.338 400.19 277.646 400.229 280.673 402.267C285.128 405.281 285.662 411.443 285.956 414.748C286.983 426.516 287.996 438.273 289.024 450.042C289.355 453.877 289.469 457.898 286.869 460.913C284.749 463.376 281.176 464.437 277.559 463.7C275.231 463.235 272.902 462.101 270.48 460.203L270.506 460.2ZM278.884 405.584C278.795 405.515 278.692 405.434 278.588 405.353C276.45 403.915 273.498 404.367 271.516 405.436C269.436 406.57 267.592 408.558 265.856 411.535C262.639 417.07 261.072 423.541 261.339 430.257C261.349 430.336 261.344 430.403 261.327 430.486C260.544 440.215 264.615 450.198 271.972 456.534C274.224 458.466 276.298 459.591 278.283 459.978C280.555 460.424 282.794 459.818 284.013 458.414C285.652 456.504 285.527 453.379 285.276 450.323C284.249 438.554 283.221 426.786 282.208 415.029C281.894 411.446 281.347 407.49 278.866 405.546L278.884 405.584Z" fill="url(#paint21_linear_939_6845)"/>
<path d="M269.185 485.547C267.796 484.46 266.753 483.023 266.198 481.42C265.413 479.136 265.668 476.5 266.925 474.196C267.96 472.266 269.586 470.799 271.483 470.021C271.749 469.682 272.133 469.434 272.563 469.342C276.858 468.393 281.601 470.704 283.384 474.603C284.388 476.82 284.43 479.474 283.455 481.904C282.489 484.293 280.659 486.172 278.441 487.056C276.212 487.955 273.565 487.835 271.189 486.761C270.468 486.434 269.79 486.022 269.185 485.547ZM274.278 472.902C274.06 473.089 273.798 473.241 273.511 473.303C272.176 473.639 270.984 474.612 270.231 475.999C269.489 477.372 269.314 478.904 269.766 480.212C270.222 481.546 271.309 482.684 272.766 483.349C274.209 484.002 275.771 484.106 277.044 483.578C278.319 483.076 279.386 481.957 279.972 480.51C280.555 479.036 280.55 477.46 279.966 476.168C279.037 474.129 276.615 472.779 274.289 472.888L274.278 472.902Z" fill="url(#paint22_linear_939_6845)"/>
<path d="M293.08 485.133C289.876 482.622 287.728 478.794 287.563 474.684C287.421 471.428 288.51 468.062 290.623 465.213C291.306 464.128 292.236 463.093 293.347 462.223C293.347 462.223 293.556 462.077 293.568 462.063C293.667 461.997 293.777 461.917 293.876 461.851C298.778 458.423 306.082 458.927 310.821 463.069C315.516 467.176 317.043 474.474 314.418 480.044C311.739 485.714 305.101 489.046 298.953 487.828C296.804 487.407 294.79 486.449 293.092 485.118L293.08 485.133ZM307.946 465.582C304.52 462.898 299.366 462.602 295.965 464.965C295.732 465.141 295.633 465.206 295.522 465.286C294.889 465.791 294.228 466.512 293.7 467.338C292.004 469.656 291.179 472.108 291.285 474.527C291.486 479.046 295.154 483.278 299.631 484.164C304.056 485.057 309.044 482.554 310.98 478.47C312.925 474.346 311.777 468.966 308.307 465.913C308.174 465.809 308.041 465.705 307.908 465.6L307.946 465.582Z" fill="url(#paint23_linear_939_6845)"/>
<path d="M447.448 328.33C447.271 328.191 447.117 328.022 447 327.836C446.452 326.954 446.74 325.796 447.637 325.26C453.982 321.39 459.026 315.499 461.855 308.634C464.683 301.77 465.249 293.991 463.488 286.748C463.246 285.748 463.857 284.725 464.857 284.484C465.856 284.242 466.879 284.853 467.121 285.853C469.083 293.873 468.455 302.461 465.315 310.059C462.201 317.653 456.606 324.185 449.588 328.457C448.904 328.875 448.053 328.804 447.448 328.33Z" fill="url(#paint24_linear_939_6845)"/>
<path d="M440.905 322.66C440.58 322.405 440.336 322.047 440.244 321.617C440.002 320.618 440.628 319.606 441.639 319.35C445.562 318.42 449.1 315.972 451.313 312.63C451.891 311.772 453.051 311.537 453.91 312.115C454.78 312.677 455.003 313.853 454.426 314.711C451.681 318.853 447.317 321.868 442.485 323.016C441.9 323.154 441.322 323.01 440.893 322.674L440.905 322.66Z" fill="url(#paint25_linear_939_6845)"/>
<path d="M494.747 275.299C494.407 275.033 494.175 274.66 494.068 274.219C493.853 273.216 494.493 272.216 495.507 271.986C504.22 270.114 511.293 262.333 512.332 253.495C512.447 252.465 513.386 251.723 514.404 251.853C515.434 251.969 516.176 252.908 516.046 253.926C514.821 264.31 506.521 273.442 496.3 275.659C495.727 275.782 495.175 275.635 494.747 275.299Z" fill="url(#paint26_linear_939_6845)"/>
<path d="M493.848 270.57C493.686 270.443 493.547 270.286 493.431 270.099C492.871 269.232 493.117 268.066 493.984 267.507L502.165 262.238C503.032 261.678 504.198 261.924 504.757 262.791C505.317 263.659 505.071 264.825 504.203 265.384L496.023 270.653C495.342 271.097 494.466 271.029 493.86 270.555L493.848 270.57Z" fill="url(#paint27_linear_939_6845)"/>
<path d="M314.072 428.507C313.954 428.415 313.833 428.296 313.738 428.174C302.812 413.798 299.778 393.641 305.983 376.839C306.346 375.859 307.422 375.368 308.401 375.73C309.366 376.081 309.872 377.168 309.51 378.148C303.723 393.777 306.547 412.53 316.724 425.914C317.345 426.734 317.181 427.916 316.361 428.537C315.663 429.062 314.725 429.043 314.06 428.522L314.072 428.507Z" fill="url(#paint28_linear_939_6845)"/>
<path d="M319.454 427.294C319.277 427.155 319.108 426.975 318.989 426.763C315.897 421.432 313.945 415.375 313.362 409.245C313.263 408.215 314.007 407.296 315.038 407.198C316.068 407.099 316.975 407.858 317.073 408.888C317.605 414.476 319.398 420.005 322.222 424.887C322.733 425.787 322.431 426.933 321.545 427.455C320.858 427.845 320.034 427.772 319.443 427.309L319.454 427.294Z" fill="url(#paint29_linear_939_6845)"/>
<path d="M471.815 604.941C469.202 602.893 467.469 600.177 466.855 597.098C466.187 593.691 467.236 589.889 469.67 586.934C472.66 583.27 477.111 581.3 482.884 581.081C487.356 580.271 491.873 581.593 494.989 584.703C497.739 587.429 499.205 591.033 499.113 594.893C499.017 598.726 497.4 602.25 494.542 604.802C488.999 609.777 479.776 609.534 474.078 606.404C473.261 605.955 472.521 605.47 471.827 604.926L471.815 604.941ZM491.54 586.672C489.325 584.936 486.367 584.239 483.443 584.808C483.352 584.832 483.247 584.845 483.153 584.843C478.44 584.988 474.884 586.515 472.58 589.334C470.858 591.44 470.097 594.085 470.551 596.395C471.101 599.161 473.009 601.562 475.888 603.15C480.34 605.59 487.802 605.86 492.056 602.043C494.129 600.188 495.313 597.612 495.376 594.825C495.45 592.023 494.38 589.374 492.362 587.387C492.104 587.138 491.835 586.903 491.555 586.683L491.54 586.672Z" fill="url(#paint30_linear_939_6845)"/>
<path d="M252.145 775.738C244.835 770.011 239.11 762.26 236.248 753.32C229.522 732.368 239.442 707.966 258.824 697.77C271.059 691.34 285.146 690.699 298.538 690.611L301.582 690.589C313.653 690.513 326.111 690.431 337.321 686.344C345.862 683.17 352.203 675.959 354.407 667.032C355.581 662.28 356.18 657.196 356.205 651.901C356.229 642.41 354.608 632.799 353.037 623.488C352.19 618.486 351.32 613.3 350.711 608.176C348.479 589.458 350.709 575.022 357.557 564.062C367.799 547.705 389.443 539.306 410.203 543.654C428.358 547.464 445.533 560.707 456.13 579.091C466.318 596.75 470.199 617.499 467.082 637.508C463.956 657.558 453.955 676.01 438.918 689.514C426.025 701.101 410.065 708.544 394.623 715.75C381.546 721.854 368.027 728.159 356.556 736.927C349.709 742.168 343.449 748.394 337.419 754.417C333.543 758.268 329.549 762.241 325.405 765.978C312.054 777.968 299.513 784.515 287.052 786C274.567 787.516 261.912 783.439 252.121 775.768L252.145 775.738ZM434.137 559.19C426.591 553.278 418.126 549.147 409.431 547.316C390.495 543.347 370.003 551.22 360.736 566.028C354.373 576.248 352.313 589.888 354.436 607.71C355.035 612.756 355.899 617.889 356.729 622.853C358.319 632.321 359.959 642.091 359.932 651.89C359.915 657.477 359.273 662.861 358.04 667.901C355.529 678.041 348.331 686.224 338.754 689.779C326.791 694.157 313.984 694.228 301.594 694.316L298.55 694.338C285.626 694.436 272.054 695.028 260.559 701.06C243.037 710.282 233.738 733.193 239.819 752.139C245.889 771.099 266.89 784.599 286.632 782.216C298.303 780.826 310.186 774.573 322.947 763.122C327.021 759.474 330.978 755.52 334.819 751.713C340.96 745.609 347.289 739.295 354.331 733.897C366.118 724.876 379.828 718.481 393.082 712.303C408.258 705.222 423.965 697.89 436.448 686.674C450.836 673.756 460.422 656.076 463.398 636.886C466.378 617.723 462.654 597.836 452.905 580.926C447.945 572.321 441.485 564.9 434.161 559.161L434.137 559.19Z" fill="url(#paint31_linear_939_6845)"/>
<path d="M445.801 556.41C445.609 556.26 445.417 556.109 445.225 555.959C441.705 552.939 439.811 548.785 439.917 544.269C440.156 535.113 448.105 529.044 455.9 527.095C456.379 526.97 456.868 526.924 457.348 526.92C459.121 526.664 460.871 526.652 462.532 526.905C471.167 528.142 477.572 536.211 476.499 544.546C475.273 554.263 465.865 559.761 457.648 559.997C453.108 560.133 448.92 558.878 445.789 556.425L445.801 556.41ZM468.08 533.207C466.367 531.865 464.289 530.928 462.003 530.591C460.642 530.382 459.227 530.393 457.758 530.625C457.626 530.641 457.506 530.642 457.386 530.643C457.184 530.628 456.999 530.65 456.818 530.699C450.412 532.305 443.865 537.162 443.68 544.333C443.594 547.698 445.041 550.81 447.684 553.095C450.134 555.229 453.65 556.339 457.537 556.215C464.315 556.021 471.866 551.402 472.79 544.047C473.325 539.867 471.373 535.787 468.066 533.196L468.08 533.207Z" fill="url(#paint32_linear_939_6845)"/>
<path d="M461.908 578.47C460.992 577.752 460.225 576.937 459.63 575.993C457.525 572.748 457.178 568.567 458.702 564.828C460.503 560.4 464.156 557.471 469.86 555.91C473.244 554.176 476.934 553.635 480.314 554.401C484.366 555.312 487.509 557.75 489.161 561.238C490.626 564.387 490.602 568.372 489.117 571.88C485.916 579.525 477.539 581.851 470.784 581.468C467.231 581.258 464.149 580.202 461.919 578.455L461.908 578.47ZM462.177 566.263C461.116 568.864 461.344 571.736 462.791 573.966C464.797 577.063 469.183 577.64 470.986 577.742C476.463 578.053 483.184 576.288 485.653 570.43C486.732 567.867 486.777 565.042 485.761 562.84C484.626 560.425 482.391 558.745 479.478 558.083C476.935 557.497 474.077 557.95 471.439 559.34C471.314 559.408 471.185 559.451 471.057 559.493C466.448 560.72 463.564 562.941 462.203 566.26L462.177 566.263Z" fill="url(#paint33_linear_939_6845)"/>
<path d="M477.821 628.332C477.821 628.332 477.718 628.251 477.659 628.205C475.139 626.159 473.841 623.283 473.976 620.099C474.048 617.725 475.148 615.226 476.879 613.413C479.648 610.578 483.618 609.374 488.014 610.03C490.286 610.142 492.318 610.924 493.926 612.279C496.211 614.26 497.509 617.136 497.478 620.187C497.486 623.219 496.085 626.102 493.52 628.311C489.331 631.893 482.328 631.887 477.78 628.324L477.821 628.332ZM491.328 614.986C490.147 614.061 488.767 613.814 487.788 613.786C487.721 613.781 487.653 613.775 487.571 613.759C485.693 613.479 482.167 613.386 479.589 616.037C478.496 617.159 477.786 618.795 477.736 620.258C477.645 622.26 478.445 624.007 480.032 625.297C480.061 625.321 480.106 625.355 480.135 625.378C483.281 627.843 488.271 627.892 491.103 625.464C492.808 623.987 493.756 622.108 493.751 620.198C493.751 620.198 493.751 620.198 493.763 620.183C493.781 618.243 492.957 616.406 491.509 615.152C491.45 615.105 491.39 615.059 491.331 615.013L491.328 614.986Z" fill="url(#paint34_linear_939_6845)"/>
<path d="M404.105 535.95C398.804 531.796 395.664 525.308 395.622 518.244C395.534 506.95 402.158 497.34 414.749 490.426C417.052 488.703 419.354 487.408 421.802 486.443C429.177 483.57 436.803 484.302 442.758 488.443C448.524 492.46 452.362 499.424 452.819 506.598C453.741 521.025 442.479 536.129 427.692 540.249C419.987 542.387 412.208 541.273 405.761 537.152C405.195 536.779 404.64 536.392 404.108 535.976L404.105 535.95ZM441.338 492.05C441.102 491.864 440.865 491.679 440.603 491.497C435.71 488.069 429.361 487.503 423.174 489.925C421.005 490.776 418.954 491.933 416.898 493.493C416.826 493.555 416.75 493.591 416.663 493.641C408.716 497.973 399.29 505.746 399.372 518.203C399.415 524.719 402.574 530.603 407.78 533.967C413.315 537.518 420.017 538.455 426.676 536.618C439.836 532.962 449.865 519.585 449.05 506.815C448.697 501.152 445.694 495.463 441.323 492.038L441.338 492.05Z" fill="url(#paint35_linear_939_6845)"/>
<path d="M273.66 777.536C273.202 777.177 272.918 776.597 272.935 775.967C272.983 774.932 273.874 774.129 274.898 774.192C291.048 775.025 307.499 767.108 316.816 754.031C317.423 753.196 318.587 752.987 319.422 753.594C320.269 754.186 320.466 755.365 319.859 756.201C309.811 770.302 292.082 778.815 274.695 777.918C274.305 777.899 273.926 777.744 273.645 777.525L273.66 777.536Z" fill="url(#paint36_linear_939_6845)"/>
<path d="M272.214 771.351C271.8 771.027 271.529 770.553 271.5 769.982C271.428 768.948 272.227 768.049 273.264 768.003C280.163 767.594 286.961 765.579 292.936 762.182C293.836 761.671 294.97 761.988 295.495 762.9C296.006 763.8 295.689 764.934 294.777 765.459C288.301 769.132 280.948 771.307 273.478 771.746C273 771.777 272.553 771.618 272.214 771.351Z" fill="url(#paint37_linear_939_6845)"/>
<path d="M363.788 577.31C363.212 576.859 362.935 576.117 363.124 575.359C366.582 562.124 377.379 551.446 390.689 548.147C391.701 547.891 392.712 548.516 392.953 549.516C393.21 550.527 392.584 551.538 391.585 551.78C379.78 554.71 369.818 564.565 366.752 576.295C366.487 577.303 365.464 577.908 364.456 577.643C364.195 577.581 363.98 577.46 363.773 577.298L363.788 577.31Z" fill="url(#paint38_linear_939_6845)"/>
<path d="M362.327 600.498C362.031 600.267 361.805 599.947 361.693 599.573C360.26 594.923 360.196 589.772 361.488 585.112C361.768 584.116 362.794 583.537 363.801 583.802C364.797 584.082 365.376 585.108 365.111 586.116C364.006 590.112 364.071 594.5 365.289 598.481C365.583 599.475 365.028 600.518 364.05 600.823C363.445 601.017 362.814 600.88 362.341 600.51L362.327 600.498Z" fill="url(#paint39_linear_939_6845)"/>
<path d="M410.239 508.719C410.239 508.719 410.121 508.627 410.062 508.581C409.33 507.841 409.333 506.651 410.061 505.935C413.78 502.223 417.644 498.386 422.532 495.829C428.25 492.85 434.317 492.407 439.221 494.605C440.168 495.038 440.584 496.15 440.163 497.083C439.73 498.031 438.633 498.458 437.685 498.025C433.911 496.332 428.896 496.74 424.285 499.157C419.899 501.44 416.238 505.078 412.722 508.592C412.044 509.275 410.98 509.324 410.242 508.746L410.239 508.719Z" fill="url(#paint40_linear_939_6845)"/>
<path d="M403.66 524.63C403.35 524.387 403.124 524.067 403.009 523.667C401.881 519.661 402.72 515.123 405.177 511.805C405.799 510.981 406.966 510.799 407.801 511.406L407.846 511.441C408.643 512.066 408.795 513.21 408.2 514.03C406.408 516.439 405.805 519.733 406.626 522.64C406.909 523.648 406.324 524.668 405.331 524.962C404.723 525.129 404.118 524.989 403.66 524.63Z" fill="url(#paint41_linear_939_6845)"/>
<path d="M338.109 798.886C336.676 797.763 335.417 796.419 334.376 794.889C333.954 794.272 333.566 793.611 333.166 792.844C332.278 791.362 331.572 789.617 331.126 787.813C329.681 781.748 331.535 775.336 336.126 770.663C340.703 765.978 347.087 763.974 353.207 765.289C359.711 766.691 365.195 771.251 367.479 777.187C369.7 782.931 368.896 789.737 365.371 794.935C362.031 799.897 356.271 802.868 349.951 802.874C345.542 802.874 341.372 801.443 338.109 798.886ZM359.154 772.118C357.219 770.602 354.908 769.506 352.424 768.966C347.567 767.925 342.485 769.544 338.825 773.302C335.166 777.06 333.658 782.147 334.803 786.953C335.151 788.394 335.719 789.768 336.462 791.041C336.844 791.77 337.163 792.306 337.487 792.774C340.188 796.749 344.833 799.125 349.948 799.106C355.011 799.093 359.617 796.743 362.267 792.813C365.11 788.606 365.77 783.141 363.98 778.521C363.005 775.993 361.321 773.792 359.15 772.091L359.154 772.118Z" fill="url(#paint42_linear_939_6845)"/>
<path d="M282.256 822.9C278.801 820.193 276.547 816.711 275.683 812.674C274.283 806.095 278.003 799.858 284.966 797.115L285.53 796.913L288.289 795.643C291.662 794.044 295.04 792.471 298.428 790.884L299.554 790.36C300.49 789.925 301.446 789.435 302.429 788.942C307.224 786.502 312.66 783.731 318.297 784.811C324.793 786.04 329.98 792.106 330.632 799.243C331.9 813.106 319.992 824.868 308.243 827.817C300.436 829.781 290.803 828.357 284.242 824.29C283.535 823.854 282.876 823.386 282.256 822.9ZM322.053 790.542C320.783 789.547 319.278 788.821 317.581 788.493C313.204 787.661 308.371 790.118 304.103 792.28C303.083 792.791 302.089 793.299 301.115 793.752L299.989 794.276C296.612 795.848 293.223 797.436 289.861 799.02L286.285 800.603C282.319 802.167 278.086 806.048 279.34 811.869C280.161 815.658 282.475 818.758 286.231 821.082C291.884 824.605 300.561 825.85 307.333 824.173C317.588 821.579 327.984 811.444 326.902 799.562C326.6 796.298 324.914 792.761 322.064 790.527L322.053 790.542Z" fill="url(#paint43_linear_939_6845)"/>
<path d="M333.794 820.456C331.638 818.766 330.25 816.249 330.179 813.572C330.146 811.758 330.656 810.013 331.657 808.461C332.561 806 334.519 804.078 336.96 803.274C341.122 801.887 345.636 803.304 347.924 806.741C350.209 810.152 350.254 814.596 348.019 818.088C345.838 821.479 341.455 823.241 337.628 822.316C336.209 821.967 334.902 821.324 333.809 820.467L333.794 820.456ZM343.75 807.688C342.273 806.531 340.131 806.163 338.154 806.831C336.74 807.296 335.624 808.448 335.132 809.897C335.072 810.065 334.997 810.221 334.908 810.365C334.261 811.312 333.926 812.409 333.952 813.501C334.008 815.833 335.961 818.055 338.508 818.668C340.767 819.222 343.553 818.069 344.86 816.066C346.288 813.848 346.251 811.006 344.799 808.844C344.519 808.41 344.152 808.027 343.753 807.715L343.75 807.688Z" fill="url(#paint44_linear_939_6845)"/>
<path d="M513.271 411.105C508.737 407.553 504.856 403.321 501.887 398.563C493.225 384.674 492.644 366.344 500.452 352.942C508.856 338.506 525.021 331.318 537.108 327.847C544.505 325.706 552.191 324.293 559.628 322.922C566.477 321.663 573.561 320.349 580.337 318.484C597.07 313.888 608.898 306.305 615.497 295.936C623.815 282.886 623.468 266.265 623.121 250.191L623.066 247.646C622.754 230.432 624.047 211.139 636.179 198.575C650.39 183.875 674.543 184.471 691.066 192.675C702.189 198.22 712.122 206.837 722.333 219.842C722.333 219.842 722.398 219.941 722.431 219.991C722.431 219.991 722.431 219.991 722.446 220.002C730.288 231.772 734.998 245.138 736.04 258.682C737.998 283.954 727.234 309.768 707.949 326.047C695.451 336.584 680.083 342.966 665.211 349.14C650.809 355.111 635.937 361.286 623.977 371.196C617.59 376.488 611.968 382.903 606.546 389.094C600.208 396.331 593.659 403.807 585.755 409.698C572.744 419.428 556.553 424.093 541.38 422.5C531.079 421.412 521.201 417.319 513.271 411.105ZM505.066 396.573C512.643 408.683 526.691 417.187 541.782 418.763C556.034 420.254 571.229 415.857 583.518 406.682C591.102 401.017 597.536 393.689 603.731 386.603C609.272 380.291 614.987 373.757 621.592 368.279C633.99 358.021 649.143 351.732 663.799 345.65C678.405 339.601 693.504 333.319 705.556 323.17C723.931 307.657 734.189 283.067 732.319 258.96C731.315 246.066 726.814 233.316 719.346 222.102C709.515 209.585 699.997 201.293 689.416 196.029C674.117 188.452 651.854 187.786 638.901 201.185C627.755 212.733 626.521 230.309 626.839 247.575L626.894 250.121C627.256 266.754 627.606 283.95 618.671 297.97C611.541 309.138 598.977 317.264 581.337 322.105C574.406 324.015 567.244 325.338 560.316 326.607C552.984 327.965 545.389 329.354 538.173 331.446C526.747 334.744 511.488 341.473 503.715 354.831C496.592 367.054 497.131 383.826 505.093 396.57L505.066 396.573Z" fill="url(#paint45_linear_939_6845)"/>
<path d="M744.677 286.226C742.639 284.629 741.144 282.553 740.379 280.213C739.311 276.922 739.493 273.466 740.875 270.759C742.602 267.369 745.916 265.056 749.77 264.548C750.064 264.445 750.257 264.382 750.453 264.345C754.098 263.435 757.978 264.14 761.303 266.315C764.075 268.13 766.001 271.117 766.601 274.518C767.191 277.841 766.429 281.248 764.509 283.819C760.558 289.136 752.499 290.782 746.553 287.482C745.893 287.108 745.268 286.689 744.677 286.226ZM759.239 269.465C756.8 267.864 753.985 267.35 751.314 268.022C751.17 268.053 751.068 268.092 750.978 268.116L750.759 268.183C750.63 268.225 750.513 268.253 750.381 268.269C747.692 268.569 745.384 270.145 744.209 272.466C743.27 274.303 743.174 276.707 743.942 279.073C744.816 281.759 746.839 283.345 748.375 284.214C752.659 286.594 758.663 285.411 761.487 281.594C762.796 279.831 763.314 277.496 762.887 275.183C762.464 272.802 761.13 270.732 759.213 269.469L759.239 269.465Z" fill="url(#paint46_linear_939_6845)"/>
<path d="M726.584 208.177C725.786 207.553 725.047 206.854 724.368 206.108C720.963 202.272 719.693 196.987 721.087 192.288C722.362 187.924 726 184.101 730.828 182.045C734.014 180.322 737.846 179.202 741.469 178.99C746.868 178.669 751.97 180.401 755.443 183.695C759.177 187.264 760.886 192.321 759.99 197.268C758.128 207.796 747.592 212.817 738.167 212.344C733.811 212.124 729.741 210.627 726.595 208.163L726.584 208.177ZM751.982 185.678C749.294 183.572 745.612 182.523 741.697 182.744C738.62 182.93 735.342 183.889 732.468 185.428C728.503 187.111 725.653 190.05 724.702 193.332C723.679 196.797 724.636 200.717 727.176 203.589C729.819 206.542 733.89 208.373 738.352 208.58C746.138 208.984 754.806 204.979 756.3 196.593C756.975 192.903 755.682 189.078 752.871 186.399C752.599 186.138 752.301 185.88 752.005 185.649L751.982 185.678Z" fill="url(#paint47_linear_939_6845)"/>
<path d="M746.681 257.844C745.515 256.93 744.513 255.835 743.751 254.618C741.464 250.967 741.181 246.765 743.001 243.377C744.842 239.933 748.35 237.463 752.613 236.585C754.479 236.211 756.506 236.179 758.973 236.468C763.363 236.523 767.031 237.895 769.567 240.407C772.66 243.426 773.975 247.435 773.139 251.118C771.212 259.356 761.59 262.542 753.422 260.861C750.817 260.322 748.512 259.278 746.667 257.832L746.681 257.844ZM766.233 242.442C763.944 240.648 761.007 240.23 758.853 240.21C758.785 240.205 758.718 240.2 758.651 240.195C756.535 239.944 754.854 239.961 753.365 240.248C750.222 240.884 747.644 242.653 746.327 245.125C745.151 247.326 745.396 250.115 746.942 252.614C748.851 255.683 752.299 256.788 754.19 257.173C759.452 258.245 767.949 256.799 769.491 250.238C770.056 247.844 769.103 245.167 766.948 243.05C766.72 242.823 766.481 242.612 766.23 242.415L766.233 242.442Z" fill="url(#paint48_linear_939_6845)"/>
<path d="M739.784 233.157C739.606 233.019 739.429 232.88 739.252 232.741C735.793 229.673 734.446 225.4 735.643 221.286C736.68 217.712 739.786 214.569 743.694 213.079C743.694 213.079 743.694 213.079 743.706 213.065C745.268 212.501 746.987 212.132 748.942 211.948C752.522 211.273 755.835 211.485 758.75 212.602C763.053 214.257 766.249 217.905 767.071 222.148C767.934 226.614 765.943 231.132 762.101 233.389C759.206 235.076 755.324 236.015 750.521 236.184C746.198 236.348 742.475 235.29 739.743 233.149L739.784 233.157ZM745.042 216.59C742.208 217.683 739.989 219.876 739.273 222.342C738.488 225.016 739.419 227.843 741.755 229.912C743.845 231.716 746.743 232.58 750.427 232.44C754.525 232.29 757.93 231.503 760.252 230.152C762.684 228.721 764.004 225.728 763.43 222.871C762.855 219.894 760.549 217.301 757.452 216.113C755.155 215.243 752.516 215.082 749.592 215.651C749.528 215.672 749.46 215.667 749.408 215.673C747.742 215.822 746.321 216.115 745.028 216.579L745.042 216.59Z" fill="url(#paint49_linear_939_6845)"/>
<path d="M682.391 185.495C680.147 183.736 678.259 181.614 676.854 179.178C673.117 172.723 673.387 165.261 677.643 158.156C677.733 158.012 677.868 157.808 677.992 157.619L679.651 158.514L678.004 157.604C679.195 155.415 680.838 153.318 682.91 151.343C688.046 146.096 694.736 142.424 702.206 140.769C707.18 139.257 711.796 138.75 716.172 139.248C724.342 140.167 731.207 144.76 734.539 151.518C737.719 158.014 737.471 166.208 733.903 172.922C730.393 179.562 724.133 184.905 716.296 187.941C708.705 190.907 700.748 191.846 693.926 190.576C689.563 189.756 685.607 187.991 682.403 185.48L682.391 185.495ZM726.232 147.154C723.352 144.898 719.739 143.425 715.73 142.977C711.881 142.535 707.754 142.996 703.153 144.396C696.257 145.928 690.22 149.253 685.545 154.003C683.725 155.747 682.302 157.564 681.31 159.408C681.275 159.452 681.24 159.497 681.22 159.553L681.047 159.774C681.004 159.86 680.946 159.933 680.903 160.019C677.373 165.953 677.087 172.068 680.125 177.285C682.979 182.19 688.256 185.705 694.627 186.883C700.765 188.022 707.996 187.158 714.963 184.442C722.058 181.683 727.461 177.098 730.615 171.156C733.643 165.497 733.875 158.6 731.198 153.166C730.043 150.807 728.352 148.767 726.27 147.136L726.232 147.154Z" fill="url(#paint50_linear_939_6845)"/>
<path d="M524.611 478.88C521.923 476.775 520.454 473.144 521.234 469.776C521.398 469.141 521.617 468.527 521.922 467.955C522.667 465.393 524.726 463.312 527.299 462.492C530.118 461.602 533.462 462.292 535.814 464.278C539.148 467.08 540.158 472.21 538.127 475.957C536.08 479.787 531.112 481.686 527.033 480.23C526.154 479.923 525.349 479.459 524.626 478.892L524.611 478.88ZM525.311 469.562C525.112 469.906 524.969 470.271 524.879 470.63C524.326 473.009 525.925 475.835 528.287 476.684C530.648 477.533 533.622 476.384 534.81 474.168C536.012 471.964 535.377 468.821 533.397 467.15C532.014 465.995 530.038 465.567 528.44 466.055C527.038 466.506 525.895 467.66 525.517 469.056C525.472 469.235 525.412 469.402 525.311 469.562Z" fill="url(#paint51_linear_939_6845)"/>
<path d="M505.147 460.438C502.341 458.239 500.272 455.069 499.674 451.574C498.904 447.204 500.32 442.689 503.368 439.834C504.964 438.344 507.034 437.344 509.234 436.97C512.526 435.689 516.147 435.69 519.243 436.972C525.248 439.436 528.921 446.581 527.43 452.896C525.911 459.213 519.609 463.88 513.098 463.521C510.219 463.363 507.447 462.216 505.158 460.423L505.147 460.438ZM519.92 441.673C519.271 441.164 518.551 440.744 517.819 440.432C515.568 439.502 512.873 439.535 510.454 440.524C510.313 440.581 510.17 440.612 510.027 440.643C508.491 440.869 507.05 441.552 505.944 442.568C503.858 444.532 502.839 447.809 503.389 450.909C504.201 455.621 508.563 459.515 513.312 459.781C518.02 460.038 522.717 456.568 523.796 452.027C524.667 448.3 522.974 444.042 519.947 441.67L519.92 441.673Z" fill="url(#paint52_linear_939_6845)"/>
<path d="M544.627 464.012C541.821 461.814 539.6 458.93 538.361 455.766C536.734 451.607 536.818 447.241 538.632 443.132C539.365 441.466 540.361 439.982 541.602 438.762C546.592 433.854 552.741 434.31 558.148 434.71C559.482 434.802 560.805 434.908 562.118 434.936C562.962 434.954 563.837 434.901 564.733 434.792C567.548 434.424 569.873 433.434 571.277 432.007C573.777 429.485 576.69 428.049 579.7 427.858C581.331 427.753 582.895 427.978 584.362 428.508C590.414 430.7 592.984 437.885 591.963 443.568C591.105 448.282 588.227 452.867 583.171 457.557C578.178 462.225 572.957 465.451 567.686 467.16C561.261 469.276 554.652 469.103 549.108 466.689C547.513 465.987 545.986 465.077 544.612 464.001L544.627 464.012ZM584.956 433.073C584.395 432.633 583.779 432.294 583.094 432.043C582.1 431.669 581.082 431.539 579.955 431.609C577.328 431.767 575.249 433.356 573.976 434.646C571.989 436.665 568.894 438.029 565.251 438.511C564.171 438.642 563.097 438.706 562.065 438.684C560.685 438.651 559.283 438.554 557.882 438.457C552.595 438.056 548.023 437.716 544.252 441.434C543.37 442.316 542.608 443.411 542.075 444.638C540.683 447.814 540.612 451.19 541.869 454.392C543.361 458.206 546.635 461.51 550.629 463.257C555.341 465.304 560.994 465.42 566.545 463.597C571.303 462.057 576.034 459.091 580.632 454.805C585.149 450.622 587.574 446.826 588.299 442.89C588.904 439.502 587.774 435.256 584.968 433.058L584.956 433.073Z" fill="url(#paint53_linear_939_6845)"/>
<path d="M505.713 377.438C505.24 377.067 504.953 376.461 504.996 375.827C506.21 359.738 516.978 344.627 531.798 338.245C532.737 337.837 533.846 338.277 534.269 339.228C534.677 340.167 534.237 341.276 533.286 341.699C519.723 347.541 509.857 361.38 508.747 376.121C508.672 377.159 507.763 377.924 506.725 377.849C506.347 377.815 505.997 377.684 505.716 377.464L505.713 377.438Z" fill="url(#paint54_linear_939_6845)"/>
<path d="M508.956 394.805C508.823 394.7 508.701 394.581 508.603 394.433C505.656 390.408 504.256 385.259 504.792 380.317C504.907 379.287 505.831 378.533 506.861 378.649C507.891 378.765 508.63 379.677 508.529 380.718C508.095 384.74 509.218 388.933 511.634 392.208C512.243 393.042 512.064 394.213 511.229 394.823C510.543 395.333 509.602 395.287 508.967 394.79L508.956 394.805Z" fill="url(#paint55_linear_939_6845)"/>
<path d="M512.988 386.643C512.693 386.411 512.467 386.091 512.354 385.717C510.954 381.117 510.87 376.236 512.112 371.609C512.377 370.601 513.414 370.007 514.41 370.287C515.418 370.552 516.012 371.59 515.732 372.586C514.693 376.467 514.771 380.747 515.95 384.626C516.245 385.619 515.69 386.662 514.711 386.968C514.092 387.15 513.475 387.024 513.003 386.654L512.988 386.643Z" fill="url(#paint56_linear_939_6845)"/>
<path d="M681.024 332.64C680.758 332.432 680.536 332.138 680.415 331.805C680.056 330.833 680.567 329.756 681.554 329.409C702.066 322.028 718.134 303.468 722.465 282.122C722.663 281.109 723.652 280.455 724.68 280.664C725.708 280.874 726.347 281.852 726.138 282.879C721.532 305.487 704.541 325.135 682.812 332.944C682.184 333.167 681.515 333.048 681.012 332.655L681.024 332.64Z" fill="url(#paint57_linear_939_6845)"/>
<path d="M658.938 344.034C658.702 343.849 658.512 343.605 658.383 343.313C657.96 342.362 658.4 341.253 659.339 340.845L674.193 334.298C675.144 333.875 676.253 334.315 676.661 335.255C677.083 336.206 676.643 337.315 675.704 337.723L660.851 344.269C660.191 344.563 659.455 344.439 658.938 344.034Z" fill="url(#paint58_linear_939_6845)"/>
<defs>
<linearGradient id="paint0_linear_939_6845" x1="901.318" y1="233.928" x2="6.87601" y2="676.846" gradientUnits="userSpaceOnUse">
<stop offset="0.27" stop-color="white"/>
<stop offset="0.66" stop-color="#F88D2A"/>
<stop offset="0.99" stop-color="#F88D2A"/>
</linearGradient>
<linearGradient id="paint1_linear_939_6845" x1="954.563" y1="341.453" x2="60.1059" y2="784.36" gradientUnits="userSpaceOnUse">
<stop offset="0.27" stop-color="white"/>
<stop offset="0.66" stop-color="#F88D2A"/>
<stop offset="0.99" stop-color="#F88D2A"/>
</linearGradient>
<linearGradient id="paint2_linear_939_6845" x1="997.224" y1="427.57" x2="102.771" y2="870.503" gradientUnits="userSpaceOnUse">
<stop offset="0.27" stop-color="white"/>
<stop offset="0.66" stop-color="#F88D2A"/>
<stop offset="0.99" stop-color="#F88D2A"/>
</linearGradient>
<linearGradient id="paint3_linear_939_6845" x1="950.315" y1="332.88" x2="55.8731" y2="775.799" gradientUnits="userSpaceOnUse">
<stop offset="0.27" stop-color="white"/>
<stop offset="0.66" stop-color="#F88D2A"/>
<stop offset="0.99" stop-color="#F88D2A"/>
</linearGradient>
<linearGradient id="paint4_linear_939_6845" x1="810.929" y1="51.3764" x2="-83.5271" y2="494.283" gradientUnits="userSpaceOnUse">
<stop offset="0.27" stop-color="white"/>
<stop offset="0.66" stop-color="#F88D2A"/>
<stop offset="0.99" stop-color="#F88D2A"/>
</linearGradient>
<linearGradient id="paint5_linear_939_6845" x1="885.439" y1="201.845" x2="-9.00373" y2="644.763" gradientUnits="userSpaceOnUse">
<stop offset="0.27" stop-color="white"/>
<stop offset="0.66" stop-color="#F88D2A"/>
<stop offset="0.99" stop-color="#F88D2A"/>
</linearGradient>
<linearGradient id="paint6_linear_939_6845" x1="891.188" y1="213.454" x2="-3.2545" y2="656.372" gradientUnits="userSpaceOnUse">
<stop offset="0.27" stop-color="white"/>
<stop offset="0.66" stop-color="#F88D2A"/>
<stop offset="0.99" stop-color="#F88D2A"/>
</linearGradient>
<linearGradient id="paint7_linear_939_6845" x1="900.522" y1="232.33" x2="6.08101" y2="675.248" gradientUnits="userSpaceOnUse">
<stop offset="0.27" stop-color="white"/>
<stop offset="0.66" stop-color="#F88D2A"/>
<stop offset="0.99" stop-color="#F88D2A"/>
</linearGradient>
<linearGradient id="paint8_linear_939_6845" x1="881.95" y1="194.801" x2="-12.4908" y2="637.72" gradientUnits="userSpaceOnUse">
<stop offset="0.27" stop-color="white"/>
<stop offset="0.66" stop-color="#F88D2A"/>
<stop offset="0.99" stop-color="#F88D2A"/>
</linearGradient>
<linearGradient id="paint9_linear_939_6845" x1="915.689" y1="262.921" x2="21.2327" y2="705.828" gradientUnits="userSpaceOnUse">
<stop offset="0.27" stop-color="white"/>
<stop offset="0.66" stop-color="#F88D2A"/>
<stop offset="0.99" stop-color="#F88D2A"/>
</linearGradient>
<linearGradient id="paint10_linear_939_6845" x1="927.713" y1="287.237" x2="33.2714" y2="730.155" gradientUnits="userSpaceOnUse">
<stop offset="0.27" stop-color="white"/>
<stop offset="0.66" stop-color="#F88D2A"/>
<stop offset="0.99" stop-color="#F88D2A"/>
</linearGradient>
<linearGradient id="paint11_linear_939_6845" x1="927.513" y1="286.819" x2="33.0721" y2="729.737" gradientUnits="userSpaceOnUse">
<stop offset="0.27" stop-color="white"/>
<stop offset="0.66" stop-color="#F88D2A"/>
<stop offset="0.99" stop-color="#F88D2A"/>
</linearGradient>
<linearGradient id="paint12_linear_939_6845" x1="929.674" y1="291.185" x2="35.2193" y2="734.091" gradientUnits="userSpaceOnUse">
<stop offset="0.27" stop-color="white"/>
<stop offset="0.66" stop-color="#F88D2A"/>
<stop offset="0.99" stop-color="#F88D2A"/>
</linearGradient>
<linearGradient id="paint13_linear_939_6845" x1="936.861" y1="305.707" x2="42.4199" y2="748.625" gradientUnits="userSpaceOnUse">
<stop offset="0.27" stop-color="white"/>
<stop offset="0.66" stop-color="#F88D2A"/>
<stop offset="0.99" stop-color="#F88D2A"/>
</linearGradient>
<linearGradient id="paint14_linear_939_6845" x1="939.943" y1="311.934" x2="45.5016" y2="754.852" gradientUnits="userSpaceOnUse">
<stop offset="0.27" stop-color="white"/>
<stop offset="0.66" stop-color="#F88D2A"/>
<stop offset="0.99" stop-color="#F88D2A"/>
</linearGradient>
<linearGradient id="paint15_linear_939_6845" x1="842.457" y1="115.05" x2="-51.9998" y2="557.956" gradientUnits="userSpaceOnUse">
<stop offset="0.27" stop-color="white"/>
<stop offset="0.66" stop-color="#F88D2A"/>
<stop offset="0.99" stop-color="#F88D2A"/>
</linearGradient>
<linearGradient id="paint16_linear_939_6845" x1="795.495" y1="20.2169" x2="-98.9623" y2="463.124" gradientUnits="userSpaceOnUse">
<stop offset="0.27" stop-color="white"/>
<stop offset="0.66" stop-color="#F88D2A"/>
<stop offset="0.99" stop-color="#F88D2A"/>
</linearGradient>
<linearGradient id="paint17_linear_939_6845" x1="799.741" y1="28.79" x2="-94.7153" y2="471.697" gradientUnits="userSpaceOnUse">
<stop offset="0.27" stop-color="white"/>
<stop offset="0.66" stop-color="#F88D2A"/>
<stop offset="0.99" stop-color="#F88D2A"/>
</linearGradient>
<linearGradient id="paint18_linear_939_6845" x1="805.959" y1="41.3552" x2="-88.4824" y2="484.273" gradientUnits="userSpaceOnUse">
<stop offset="0.27" stop-color="white"/>
<stop offset="0.66" stop-color="#F88D2A"/>
<stop offset="0.99" stop-color="#F88D2A"/>
</linearGradient>
<linearGradient id="paint19_linear_939_6845" x1="815.09" y1="59.7847" x2="-79.3516" y2="502.703" gradientUnits="userSpaceOnUse">
<stop offset="0.27" stop-color="white"/>
<stop offset="0.66" stop-color="#F88D2A"/>
<stop offset="0.99" stop-color="#F88D2A"/>
</linearGradient>
<linearGradient id="paint20_linear_939_6845" x1="831.358" y1="92.6492" x2="-63.0839" y2="535.567" gradientUnits="userSpaceOnUse">
<stop offset="0.27" stop-color="white"/>
<stop offset="0.66" stop-color="#F88D2A"/>
<stop offset="0.99" stop-color="#F88D2A"/>
</linearGradient>
<linearGradient id="paint21_linear_939_6845" x1="857.363" y1="145.149" x2="-37.0786" y2="588.068" gradientUnits="userSpaceOnUse">
<stop offset="0.27" stop-color="white"/>
<stop offset="0.66" stop-color="#F88D2A"/>
<stop offset="0.99" stop-color="#F88D2A"/>
</linearGradient>
<linearGradient id="paint22_linear_939_6845" x1="875.224" y1="181.238" x2="-19.2309" y2="624.145" gradientUnits="userSpaceOnUse">
<stop offset="0.27" stop-color="white"/>
<stop offset="0.66" stop-color="#F88D2A"/>
<stop offset="0.99" stop-color="#F88D2A"/>
</linearGradient>
<linearGradient id="paint23_linear_939_6845" x1="878.619" y1="188.068" x2="-15.8371" y2="630.975" gradientUnits="userSpaceOnUse">
<stop offset="0.27" stop-color="white"/>
<stop offset="0.66" stop-color="#F88D2A"/>
<stop offset="0.99" stop-color="#F88D2A"/>
</linearGradient>
<linearGradient id="paint24_linear_939_6845" x1="842.704" y1="115.55" x2="-51.737" y2="558.468" gradientUnits="userSpaceOnUse">
<stop offset="0.27" stop-color="white"/>
<stop offset="0.66" stop-color="#F88D2A"/>
<stop offset="0.99" stop-color="#F88D2A"/>
</linearGradient>
<linearGradient id="paint25_linear_939_6845" x1="845.251" y1="120.696" x2="-49.1897" y2="563.614" gradientUnits="userSpaceOnUse">
<stop offset="0.27" stop-color="white"/>
<stop offset="0.66" stop-color="#F88D2A"/>
<stop offset="0.99" stop-color="#F88D2A"/>
</linearGradient>
<linearGradient id="paint26_linear_939_6845" x1="835.292" y1="100.59" x2="-59.1491" y2="543.508" gradientUnits="userSpaceOnUse">
<stop offset="0.27" stop-color="white"/>
<stop offset="0.66" stop-color="#F88D2A"/>
<stop offset="0.99" stop-color="#F88D2A"/>
</linearGradient>
<linearGradient id="paint27_linear_939_6845" x1="835.055" y1="100.096" x2="-59.3859" y2="543.014" gradientUnits="userSpaceOnUse">
<stop offset="0.27" stop-color="white"/>
<stop offset="0.66" stop-color="#F88D2A"/>
<stop offset="0.99" stop-color="#F88D2A"/>
</linearGradient>
<linearGradient id="paint28_linear_939_6845" x1="852.108" y1="134.549" x2="-42.3334" y2="577.467" gradientUnits="userSpaceOnUse">
<stop offset="0.27" stop-color="white"/>
<stop offset="0.66" stop-color="#F88D2A"/>
<stop offset="0.99" stop-color="#F88D2A"/>
</linearGradient>
<linearGradient id="paint29_linear_939_6845" x1="859.413" y1="149.285" x2="-35.0288" y2="592.203" gradientUnits="userSpaceOnUse">
<stop offset="0.27" stop-color="white"/>
<stop offset="0.66" stop-color="#F88D2A"/>
<stop offset="0.99" stop-color="#F88D2A"/>
</linearGradient>
<linearGradient id="paint30_linear_939_6845" x1="962.528" y1="357.51" x2="68.0707" y2="800.417" gradientUnits="userSpaceOnUse">
<stop offset="0.27" stop-color="white"/>
<stop offset="0.66" stop-color="#F88D2A"/>
<stop offset="0.99" stop-color="#F88D2A"/>
</linearGradient>
<linearGradient id="paint31_linear_939_6845" x1="961.944" y1="356.34" x2="67.488" y2="799.247" gradientUnits="userSpaceOnUse">
<stop offset="0.27" stop-color="white"/>
<stop offset="0.66" stop-color="#F88D2A"/>
<stop offset="0.99" stop-color="#F88D2A"/>
</linearGradient>
<linearGradient id="paint32_linear_939_6845" x1="937.202" y1="306.397" x2="42.7598" y2="749.315" gradientUnits="userSpaceOnUse">
<stop offset="0.27" stop-color="white"/>
<stop offset="0.66" stop-color="#F88D2A"/>
<stop offset="0.99" stop-color="#F88D2A"/>
</linearGradient>
<linearGradient id="paint33_linear_939_6845" x1="950.156" y1="332.541" x2="55.7149" y2="775.459" gradientUnits="userSpaceOnUse">
<stop offset="0.27" stop-color="white"/>
<stop offset="0.66" stop-color="#F88D2A"/>
<stop offset="0.99" stop-color="#F88D2A"/>
</linearGradient>
<linearGradient id="paint34_linear_939_6845" x1="973.185" y1="379.04" x2="78.743" y2="821.959" gradientUnits="userSpaceOnUse">
<stop offset="0.27" stop-color="white"/>
<stop offset="0.66" stop-color="#F88D2A"/>
<stop offset="0.99" stop-color="#F88D2A"/>
</linearGradient>
<linearGradient id="paint35_linear_939_6845" x1="918.678" y1="268.986" x2="24.2364" y2="711.904" gradientUnits="userSpaceOnUse">
<stop offset="0.27" stop-color="white"/>
<stop offset="0.66" stop-color="#F88D2A"/>
<stop offset="0.99" stop-color="#F88D2A"/>
</linearGradient>
<linearGradient id="paint36_linear_939_6845" x1="994.94" y1="422.998" x2="100.484" y2="865.905" gradientUnits="userSpaceOnUse">
<stop offset="0.27" stop-color="white"/>
<stop offset="0.66" stop-color="#F88D2A"/>
<stop offset="0.99" stop-color="#F88D2A"/>
</linearGradient>
<linearGradient id="paint37_linear_939_6845" x1="991.614" y1="416.293" x2="97.1714" y2="859.211" gradientUnits="userSpaceOnUse">
<stop offset="0.27" stop-color="white"/>
<stop offset="0.66" stop-color="#F88D2A"/>
<stop offset="0.99" stop-color="#F88D2A"/>
</linearGradient>
<linearGradient id="paint38_linear_939_6845" x1="928.929" y1="289.669" x2="34.4728" y2="732.576" gradientUnits="userSpaceOnUse">
<stop offset="0.27" stop-color="white"/>
<stop offset="0.66" stop-color="#F88D2A"/>
<stop offset="0.99" stop-color="#F88D2A"/>
</linearGradient>
<linearGradient id="paint39_linear_939_6845" x1="937.922" y1="307.82" x2="43.4633" y2="750.726" gradientUnits="userSpaceOnUse">
<stop offset="0.27" stop-color="white"/>
<stop offset="0.66" stop-color="#F88D2A"/>
<stop offset="0.99" stop-color="#F88D2A"/>
</linearGradient>
<linearGradient id="paint40_linear_939_6845" x1="913.266" y1="258.044" x2="18.8236" y2="700.962" gradientUnits="userSpaceOnUse">
<stop offset="0.27" stop-color="white"/>
<stop offset="0.66" stop-color="#F88D2A"/>
<stop offset="0.99" stop-color="#F88D2A"/>
</linearGradient>
<linearGradient id="paint41_linear_939_6845" x1="916.72" y1="265.013" x2="22.263" y2="707.919" gradientUnits="userSpaceOnUse">
<stop offset="0.27" stop-color="white"/>
<stop offset="0.66" stop-color="#F88D2A"/>
<stop offset="0.99" stop-color="#F88D2A"/>
</linearGradient>
<linearGradient id="paint42_linear_939_6845" x1="1011.44" y1="456.302" x2="116.995" y2="899.22" gradientUnits="userSpaceOnUse">
<stop offset="0.27" stop-color="white"/>
<stop offset="0.66" stop-color="#F88D2A"/>
<stop offset="0.99" stop-color="#F88D2A"/>
</linearGradient>
<linearGradient id="paint43_linear_939_6845" x1="1012.43" y1="458.316" x2="117.991" y2="901.235" gradientUnits="userSpaceOnUse">
<stop offset="0.27" stop-color="white"/>
<stop offset="0.66" stop-color="#F88D2A"/>
<stop offset="0.99" stop-color="#F88D2A"/>
</linearGradient>
<linearGradient id="paint44_linear_939_6845" x1="1020.91" y1="475.423" x2="126.468" y2="918.342" gradientUnits="userSpaceOnUse">
<stop offset="0.27" stop-color="white"/>
<stop offset="0.66" stop-color="#F88D2A"/>
<stop offset="0.99" stop-color="#F88D2A"/>
</linearGradient>
<linearGradient id="paint45_linear_939_6845" x1="871.844" y1="174.421" x2="-22.5972" y2="617.34" gradientUnits="userSpaceOnUse">
<stop offset="0.27" stop-color="white"/>
<stop offset="0.66" stop-color="#F88D2A"/>
<stop offset="0.99" stop-color="#F88D2A"/>
</linearGradient>
<linearGradient id="paint46_linear_939_6845" x1="889.116" y1="209.256" x2="-5.33995" y2="652.163" gradientUnits="userSpaceOnUse">
<stop offset="0.27" stop-color="white"/>
<stop offset="0.66" stop-color="#F88D2A"/>
<stop offset="0.99" stop-color="#F88D2A"/>
</linearGradient>
<linearGradient id="paint47_linear_939_6845" x1="854.549" y1="139.488" x2="-39.8921" y2="582.406" gradientUnits="userSpaceOnUse">
<stop offset="0.27" stop-color="white"/>
<stop offset="0.66" stop-color="#F88D2A"/>
<stop offset="0.99" stop-color="#F88D2A"/>
</linearGradient>
<linearGradient id="paint48_linear_939_6845" x1="878.852" y1="188.563" x2="-15.5901" y2="631.482" gradientUnits="userSpaceOnUse">
<stop offset="0.27" stop-color="white"/>
<stop offset="0.66" stop-color="#F88D2A"/>
<stop offset="0.99" stop-color="#F88D2A"/>
</linearGradient>
<linearGradient id="paint49_linear_939_6845" x1="867.841" y1="166.327" x2="-26.6148" y2="609.234" gradientUnits="userSpaceOnUse">
<stop offset="0.27" stop-color="white"/>
<stop offset="0.66" stop-color="#F88D2A"/>
<stop offset="0.99" stop-color="#F88D2A"/>
</linearGradient>
<linearGradient id="paint50_linear_939_6845" x1="835.606" y1="101.22" x2="-58.8359" y2="544.138" gradientUnits="userSpaceOnUse">
<stop offset="0.27" stop-color="white"/>
<stop offset="0.66" stop-color="#F88D2A"/>
<stop offset="0.99" stop-color="#F88D2A"/>
</linearGradient>
<linearGradient id="paint51_linear_939_6845" x1="922.644" y1="276.975" x2="28.1879" y2="719.882" gradientUnits="userSpaceOnUse">
<stop offset="0.27" stop-color="white"/>
<stop offset="0.66" stop-color="#F88D2A"/>
<stop offset="0.99" stop-color="#F88D2A"/>
</linearGradient>
<linearGradient id="paint52_linear_939_6845" x1="910.786" y1="253.052" x2="16.3441" y2="695.97" gradientUnits="userSpaceOnUse">
<stop offset="0.27" stop-color="white"/>
<stop offset="0.66" stop-color="#F88D2A"/>
<stop offset="0.99" stop-color="#F88D2A"/>
</linearGradient>
<linearGradient id="paint53_linear_939_6845" x1="920.062" y1="271.785" x2="25.6203" y2="714.703" gradientUnits="userSpaceOnUse">
<stop offset="0.27" stop-color="white"/>
<stop offset="0.66" stop-color="#F88D2A"/>
<stop offset="0.99" stop-color="#F88D2A"/>
</linearGradient>
<linearGradient id="paint54_linear_939_6845" x1="875.49" y1="181.754" x2="-18.9519" y2="624.673" gradientUnits="userSpaceOnUse">
<stop offset="0.27" stop-color="white"/>
<stop offset="0.66" stop-color="#F88D2A"/>
<stop offset="0.99" stop-color="#F88D2A"/>
</linearGradient>
<linearGradient id="paint55_linear_939_6845" x1="884.782" y1="200.525" x2="-9.65838" y2="643.443" gradientUnits="userSpaceOnUse">
<stop offset="0.27" stop-color="white"/>
<stop offset="0.66" stop-color="#F88D2A"/>
<stop offset="0.99" stop-color="#F88D2A"/>
</linearGradient>
<linearGradient id="paint56_linear_939_6845" x1="882.603" y1="196.124" x2="-11.8384" y2="639.042" gradientUnits="userSpaceOnUse">
<stop offset="0.27" stop-color="white"/>
<stop offset="0.66" stop-color="#F88D2A"/>
<stop offset="0.99" stop-color="#F88D2A"/>
</linearGradient>
<linearGradient id="paint57_linear_939_6845" x1="891.388" y1="213.873" x2="-3.05301" y2="656.792" gradientUnits="userSpaceOnUse">
<stop offset="0.27" stop-color="white"/>
<stop offset="0.66" stop-color="#F88D2A"/>
<stop offset="0.99" stop-color="#F88D2A"/>
</linearGradient>
<linearGradient id="paint58_linear_939_6845" x1="897.173" y1="225.559" x2="2.73098" y2="668.477" gradientUnits="userSpaceOnUse">
<stop offset="0.27" stop-color="white"/>
<stop offset="0.66" stop-color="#F88D2A"/>
<stop offset="0.99" stop-color="#F88D2A"/>
</linearGradient>
</defs>
</svg>
