<svg width="193" height="92" viewBox="0 0 193 92" fill="none" xmlns="http://www.w3.org/2000/svg">
<path d="M3 89.0005L175 16.0005" stroke="#F88D2A" stroke-width="5" stroke-linecap="round"/>
<path d="M179.491 26.2173C177.468 27.7011 175.273 28.5372 173.17 27.923C170.384 27.1113 169.285 23.3596 169.816 20.5028C170.274 18.0442 171.638 16.0076 173.033 14.1282C170.266 15.1628 163.484 14.4857 162.717 9.95428C162.547 8.94821 163.03 8.00142 163.563 7.23156C166.77 2.59207 171.819 1.39664 176.888 1.56145C177.941 1.597 190.517 4.04076 190.563 3.22739C188.426 9.67826 188.208 7.8899 185.808 16.6822C185.041 19.4921 182.362 24.1138 179.491 26.2173Z" fill="#F88D2A"/>
</svg>
