<svg width="1844" height="2082" viewBox="0 0 1844 2082" fill="none" xmlns="http://www.w3.org/2000/svg">
<mask id="mask0_2243_833" style="mask-type:alpha" maskUnits="userSpaceOnUse" x="0" y="0" width="1844" height="2082">
<path d="M1844 0H0V2082H1844V0Z" fill="#C10230"/>
</mask>
<g mask="url(#mask0_2243_833)">
<g opacity="0.05">
<path d="M841.819 1369.31C837.592 1365.73 834.245 1362.89 831.63 1360.93C813.127 1347.03 783.428 1340.74 767.382 1338.22L764.299 1337.73L763.605 1335.41C755.394 1316.54 780.9 1315.4 780.9 1315.4L784.683 1309.42L779.225 1269.74L781.557 1263.41C782.035 1262.18 782.73 1261.04 783.436 1259.95C784.681 1257.99 785.441 1256.62 784.977 1255.73C784.284 1254.41 780.536 1250.97 760.333 1247.22C751.156 1245.51 742.512 1244.68 734.603 1244.74C716.004 1244.9 707.595 1250.01 707.512 1250.07C701.874 1253.62 698.813 1258.77 698.201 1265.84C696.247 1288.04 719.431 1320.46 727.807 1327.64C733.465 1332.5 723.087 1335.83 723.087 1335.83L696.952 1335.06C631.045 1333.67 606.774 1339.64 538.308 1275.4C536.165 1273.39 534.548 1271.88 533.533 1270.99C530.231 1268.18 527.201 1266.71 524.748 1266.73C523.486 1266.73 522.567 1267.15 522.072 1267.45C528.814 1332.94 634.389 1360.1 657.06 1374.95C679.233 1389.47 692.535 1485.27 691.51 1488.41C687.932 1499.41 665.939 1719.1 692.147 1765.46C694.124 1768.95 697.753 1770.09 700.908 1770.11C701.792 1770.12 702.786 1770.01 704.082 1769.72C704.409 1769.66 707.532 1746.07 713.938 1678.39C724.285 1569.04 729.891 1539.38 740.953 1537.76L742.299 1537.68C742.415 1537.68 742.467 1537.65 742.567 1537.64C742.667 1537.65 742.718 1537.68 742.835 1537.68L744.18 1537.76C755.243 1539.38 760.849 1569.04 771.196 1678.39C777.602 1746.07 780.724 1769.66 781.051 1769.72C782.352 1770.01 783.342 1770.12 784.23 1770.11C787.384 1770.09 791.013 1768.95 792.987 1765.46C819.195 1719.1 797.201 1499.41 793.624 1488.41C792.602 1485.27 793.837 1475.91 795.966 1464.62H796.197C800.4 1441.75 808.229 1410.84 808.944 1406.78C813.688 1379.8 863.166 1496.56 878.161 1510.86L883.829 1487.23C860.624 1427.06 854.677 1380.23 841.819 1369.31Z" fill="#535050"/>
<path d="M1058.5 1369.27C1049.87 1354.29 1019.49 1352.61 995.28 1347.13H993.422C991.621 1345.74 990.492 1343.79 993.216 1341.45C1001.33 1334.5 1023.79 1303.09 1021.9 1281.58C1021.31 1274.74 1018.34 1269.75 1012.87 1266.31C1012.8 1266.25 1004.65 1261.3 986.629 1261.14C978.968 1261.09 970.596 1261.9 961.704 1263.55C942.131 1267.18 938.499 1270.52 937.829 1271.79C937.382 1272.66 938.118 1273.98 939.321 1275.88C940.009 1276.94 940.68 1278.04 941.144 1279.23L943.405 1285.37L938.114 1323.8L943.002 1329.93C943.002 1329.93 966.489 1330.7 958.536 1348.99L958.488 1349.14C936.487 1353.29 912.618 1356.27 905.126 1369.27C879.19 1414.28 873.952 1495.23 873.518 1495.44C873.088 1516.89 886.865 1514.73 891.14 1496.53C909.367 1419.03 918.456 1408.65 921.616 1407.89C928.565 1445.57 931.874 1495.53 931.327 1497.21C927.863 1507.87 906.554 1720.7 931.943 1765.6C933.859 1768.99 937.374 1770.09 940.429 1770.11C941.285 1770.12 942.249 1770.01 943.508 1769.74C943.824 1769.67 946.851 1746.81 953.053 1681.26C963.08 1575.32 968.508 1546.58 979.23 1545.02L980.53 1544.94C980.644 1544.94 980.695 1544.91 980.792 1544.9C980.884 1544.91 980.936 1544.94 981.05 1544.94L982.35 1545.02C993.072 1546.58 998.5 1575.32 1008.53 1681.26C1014.73 1746.81 1017.76 1769.67 1018.07 1769.74C1019.33 1770.01 1020.29 1770.12 1021.15 1770.11C1024.21 1770.09 1027.72 1768.99 1029.64 1765.6C1055.03 1720.7 1033.72 1507.87 1030.25 1497.21C1029.26 1494.17 1030.46 1485.1 1032.52 1474.16H1032.75C1036.08 1456.04 1038.33 1418.3 1040.67 1408.25C1040.67 1408.25 1048.98 1396.59 1072.49 1496.53C1076.77 1514.73 1090.54 1516.89 1090.11 1495.44C1089.68 1495.23 1084.44 1414.28 1058.5 1369.27Z" fill="#535050"/>
<path d="M1218.4 1740.39C1218.4 1740.73 1217.17 1773.65 1236.1 1778.01C1239.13 1776.69 1253.34 1682.49 1254.71 1593.36L1212.07 1596.48C1217.94 1629.9 1220.72 1678.82 1218.4 1740.39Z" fill="#535050"/>
<path d="M1159.25 1606.66C1159.32 1607.87 1159.42 1608.94 1159.51 1610.05C1161.52 1692.38 1175.04 1776.8 1177.99 1778.01C1196.92 1773.87 1195.69 1742.67 1195.69 1742.35C1193.35 1683.61 1196.96 1632.74 1203.57 1597.62L1220.28 1596.3L1159.11 1600.54C1159.17 1602.57 1159.14 1604.7 1159.25 1606.66Z" fill="#535050"/>
<path d="M1153.13 1286.52C1153.13 1286.52 1142.37 1273.55 1156.32 1267.86C1170.28 1262.17 1191.76 1267.86 1191.76 1267.86L1197.43 1290.64L1173.3 1292.65L1153.13 1286.52Z" fill="#535050"/>
<path d="M1403.29 1282.46C1400.98 1282.44 1398.14 1283.82 1395.05 1286.45C1394.09 1287.29 1392.58 1288.7 1390.57 1290.58C1335.76 1342.03 1312.75 1344.41 1259.5 1352.95C1257.68 1351.34 1255.98 1349.66 1254.36 1347.93C1244.58 1335 1239.86 1307.26 1239.17 1296.9C1238.35 1284.84 1231.76 1275.39 1231.76 1275.39L1231.63 1275.43C1230.1 1272 1227.74 1269.15 1224.31 1266.98C1224.22 1266.92 1215.87 1261.86 1197.41 1261.69C1189.56 1261.63 1180.98 1262.46 1171.87 1264.16C1151.82 1267.88 1157.01 1266.55 1156.31 1267.85C1155.86 1268.74 1150.84 1274.4 1152.07 1276.34C1152.77 1277.43 1150.33 1279 1150.81 1280.22L1153.12 1286.51L1152.71 1325.66L1158.52 1332.69L1174.73 1334.82C1176.64 1336.3 1182.57 1334.14 1174.88 1351.83C1174.88 1351.83 1157.03 1361.09 1138.04 1372.23C1118.78 1383.52 1114.07 1392.85 1108.86 1400.66C1106.06 1404.85 1090.2 1443.28 1079.66 1487.32L1088.19 1507.41C1105.07 1484.41 1115.92 1436.64 1132.18 1416.85C1132.18 1416.85 1148.04 1401.34 1154.47 1412.43C1154.47 1412.43 1154.47 1412.43 1154.47 1412.43C1154.56 1412.55 1154.63 1412.73 1154.72 1412.86C1155.1 1413.59 1155.45 1414.39 1155.75 1415.33C1156.46 1417.53 1159 1431.91 1160.99 1446.72C1161.71 1460.26 1161.41 1472.38 1161.41 1472.39C1160.3 1476.44 1159.6 1477.91 1152.21 1502.66C1145.74 1522.45 1142.79 1548.81 1142.05 1577.22C1141.54 1585.76 1141.47 1593.96 1141.72 1601.8L1202.89 1597.89L1231.54 1595.81C1231.55 1595.89 1231.57 1595.98 1231.58 1596.07L1274.23 1593.35C1274.91 1555.05 1272.47 1517.81 1263.98 1491.9C1263.62 1489.48 1224.43 1420.64 1285.08 1383.26C1308.56 1368.78 1401.33 1340.55 1405.8 1283.13C1405.33 1282.86 1404.47 1282.46 1403.29 1282.46Z" fill="#535050"/>
<path d="M553.757 1134.78C561.146 1139.03 569.116 1141.43 576.673 1139.7C586.683 1137.4 590.432 1126.69 588.351 1118.54C586.555 1111.51 581.513 1105.69 576.37 1100.31C586.414 1103.29 610.858 1101.41 613.366 1088.48C613.919 1085.61 612.123 1082.9 610.156 1080.7C598.309 1067.44 580.019 1063.98 561.73 1064.42C557.929 1064.51 512.672 1071.39 512.462 1069.07C520.545 1087.5 521.23 1082.39 530.404 1107.51C533.335 1115.54 543.272 1128.76 553.757 1134.78Z" fill="#C10230"/>
<path d="M1490.23 1160.26C1486.07 1153.43 1484.07 1146.27 1486.75 1139.85C1490.29 1131.35 1502.82 1129.07 1511.92 1131.64C1519.74 1133.85 1525.91 1138.78 1531.55 1143.75C1529.1 1134.73 1533.5 1113.62 1548.45 1112.63C1551.77 1112.41 1554.69 1114.23 1557.01 1116.15C1571.02 1127.69 1573.26 1143.94 1571.07 1159.83C1570.62 1163.13 1558.6 1201.9 1561.22 1202.3C1540.98 1193.55 1546.86 1193.43 1519.11 1183.12C1510.24 1179.82 1496.12 1169.95 1490.23 1160.26Z" fill="#C10230"/>
<path d="M1401.43 1102.31C1392.72 1100.95 1385.05 1097.9 1380.93 1092.1C1375.47 1084.41 1381.16 1074.38 1389.09 1069.71C1395.91 1065.69 1404.15 1064.5 1412.11 1063.69C1402.48 1059.81 1386.22 1043.74 1394.57 1032.85C1396.42 1030.43 1399.86 1029.54 1403.02 1029.13C1422.05 1026.62 1438.04 1035.12 1450.97 1046.44C1453.66 1048.78 1481.11 1081 1483.08 1079.44C1462.72 1087.96 1466.24 1083.84 1439.83 1096.56C1431.39 1100.62 1413.78 1104.24 1401.43 1102.31Z" fill="#C10230"/>
<path d="M1258.51 1146.81C1253.33 1153.08 1246.87 1157.82 1239.1 1158.55C1228.81 1159.52 1220.94 1150.69 1219.57 1142.42C1218.38 1135.3 1220.72 1128.29 1223.33 1121.66C1215.16 1127.57 1191.55 1133.43 1183.94 1122.13C1182.25 1119.63 1182.83 1116.54 1183.77 1113.86C1189.43 1097.78 1205.11 1088.85 1222.38 1083.55C1225.97 1082.45 1271.05 1074.78 1270.3 1072.54C1270.26 1092.28 1267.54 1087.73 1269.21 1114.05C1269.74 1122.46 1265.85 1137.91 1258.51 1146.81Z" fill="#C10230"/>
<path d="M454.967 1179.53C463.683 1180.83 472.087 1180.24 478.213 1175.99C486.328 1170.37 484.852 1159.26 479.207 1152.52C474.343 1146.71 467.051 1143.15 459.872 1140.03C470.439 1139.23 491.965 1128.93 488.333 1116.21C487.525 1113.38 484.639 1111.53 481.825 1110.2C464.887 1102.21 446.55 1105.46 429.998 1112.28C426.558 1113.69 388.259 1135.87 387 1133.82C402.857 1147.87 401.144 1142.95 421.064 1162.74C427.435 1169.07 442.598 1177.69 454.967 1179.53Z" fill="#C10230"/>
<path d="M699.502 1146.81C704.675 1153.08 711.139 1157.82 718.909 1158.55C729.201 1159.52 737.064 1150.69 738.444 1142.42C739.63 1135.3 737.288 1128.29 734.677 1121.66C742.851 1127.57 766.454 1133.43 774.066 1122.13C775.755 1119.63 775.181 1116.54 774.238 1113.86C768.577 1097.78 752.895 1088.85 735.63 1083.55C732.042 1082.45 686.953 1074.78 687.704 1072.54C687.745 1092.28 690.462 1087.73 688.797 1114.05C688.264 1122.46 692.161 1137.91 699.502 1146.81Z" fill="#C10230"/>
<path d="M800.887 1214.04C802.651 1221.62 806.316 1228.26 813.05 1231.72C821.973 1236.31 833.297 1231.1 838.443 1224.06C842.877 1218 844.043 1210.76 844.782 1203.78C849.45 1212.11 868.204 1225.95 880.46 1218.39C883.174 1216.72 884.106 1213.69 884.505 1210.92C886.917 1194.22 876.828 1180.44 863.585 1169.4C860.833 1167.1 823.356 1143.87 825.09 1142.11C815.837 1160.11 820.46 1156.94 806.552 1180.33C802.105 1187.81 798.387 1203.29 800.887 1214.04Z" fill="#C10230"/>
<path d="M604.387 885.825C609.151 892.34 615.305 897.377 623.014 898.494C633.226 899.965 641.644 891.532 643.549 883.345C645.19 876.291 643.302 869.175 641.117 862.428C648.898 868.736 672.089 875.736 680.414 864.831C682.261 862.413 681.882 859.294 681.115 856.583C676.489 840.249 661.402 830.56 644.506 824.43C640.994 823.159 596.465 813.286 597.36 811.091C596.135 830.807 599.141 826.386 595.794 852.586C594.725 860.965 597.628 876.576 604.387 885.825Z" fill="#C10230"/>
<path d="M763.07 948.117C765.124 955.641 769.041 962.164 775.904 965.429C784.999 969.757 796.116 964.212 800.987 957.027C805.187 950.835 806.077 943.573 806.546 936.572C811.53 944.759 830.803 958.036 842.763 950.127C845.411 948.371 846.227 945.321 846.523 942.541C848.287 925.775 837.675 912.298 824.017 901.654C821.178 899.444 782.828 877.326 784.497 875.508C775.942 893.776 780.437 890.472 767.435 914.254C763.28 921.863 760.156 937.443 763.07 948.117Z" fill="#C10230"/>
<path d="M938.481 754.982C937.714 762.691 939.076 769.961 944.415 774.96C951.484 781.567 964.032 779.373 971.248 773.905C977.468 769.184 980.928 762.537 983.9 756.03C985.675 765.171 999.173 783.092 1013.38 778.88C1016.53 777.948 1018.4 775.283 1019.68 772.719C1027.4 757.3 1022.2 741.582 1013.08 727.712C1011.18 724.832 982.768 693.264 985.004 692.001C970.296 706.972 975.758 705.078 954.838 724.061C948.15 730.13 939.568 744.054 938.481 754.982Z" fill="#C10230"/>
<path d="M933.176 1037.59C932.412 1045.3 933.774 1052.57 939.11 1057.57C946.178 1064.18 958.73 1061.98 965.943 1056.51C972.163 1051.79 975.626 1045.15 978.598 1038.63C980.373 1047.78 993.871 1065.7 1008.07 1061.49C1011.22 1060.56 1013.1 1057.89 1014.38 1055.33C1022.1 1039.91 1016.89 1024.19 1007.77 1010.33C1005.88 1007.44 977.463 975.87 979.702 974.607C964.99 989.579 970.453 987.684 949.535 1006.67C942.849 1012.74 934.263 1026.66 933.176 1037.59Z" fill="#C10230"/>
<path d="M1157.1 1214.04C1155.34 1221.62 1151.68 1228.26 1144.94 1231.72C1136.02 1236.31 1124.69 1231.1 1119.55 1224.06C1115.11 1218 1113.94 1210.76 1113.21 1203.78C1108.54 1212.11 1089.79 1225.95 1077.53 1218.39C1074.82 1216.72 1073.88 1213.69 1073.48 1210.92C1071.07 1194.22 1081.16 1180.44 1094.4 1169.4C1097.15 1167.1 1134.64 1143.87 1132.9 1142.11C1142.15 1160.11 1137.53 1156.94 1151.44 1180.33C1155.89 1187.81 1159.6 1203.29 1157.1 1214.04Z" fill="#C10230"/>
<path d="M1194.93 948.117C1192.88 955.641 1188.96 962.164 1182.1 965.429C1173 969.757 1161.89 964.212 1157.01 957.027C1152.82 950.835 1151.92 943.573 1151.46 936.572C1146.47 944.759 1127.2 958.036 1115.24 950.127C1112.59 948.371 1111.77 945.321 1111.48 942.541C1109.72 925.775 1120.33 912.298 1133.98 901.654C1136.82 899.444 1175.17 877.326 1173.51 875.508C1182.06 893.776 1177.57 890.472 1190.56 914.254C1194.72 921.863 1197.85 937.443 1194.93 948.117Z" fill="#C10230"/>
<path d="M662.621 1777.85H662.714L663.04 1777.24C662.926 1776.89 662.817 1776.56 662.707 1776.23C662.679 1776.78 662.648 1777.32 662.621 1777.85Z" fill="#F88D2A"/>
<path d="M665.342 1743.94C664.324 1752.31 663.656 1760.82 663.147 1768.83C663.687 1768.9 664.165 1769.19 664.434 1769.64C664.888 1770.4 665.366 1771.12 665.858 1771.85C667.646 1768.52 669.508 1765.15 671.417 1761.76C670.447 1755.61 668.882 1748.43 665.342 1743.94Z" fill="#F88D2A"/>
<path d="M770.969 1777.85C771.023 1776.88 771.095 1775.9 771.165 1774.92C771.271 1773.41 771.381 1771.9 771.442 1770.38C771.442 1770.25 771.453 1770.1 771.459 1769.95C770.114 1772.3 768.696 1775.02 767.249 1777.85H770.969Z" fill="#F88D2A"/>
<path d="M861.215 1777.85C861.421 1764.36 862.04 1752.74 863.138 1742.1C858.893 1755.37 855.663 1766.93 853.142 1777.85H861.215Z" fill="#F88D2A"/>
<path d="M876.05 1771.77C875.265 1773.81 874.376 1775.82 873.439 1777.85H876.068L876.05 1772.46C876.05 1772.23 876.05 1772 876.05 1771.77Z" fill="#F88D2A"/>
<path d="M826.129 1770.18L825.631 1770.36V1768.45C825.631 1768.04 825.631 1767.61 825.631 1767.2C824.203 1770.05 822.703 1772.83 821.241 1775.56L820.013 1777.85H826.907L826.9 1777.8C826.63 1775.24 826.358 1772.7 826.129 1770.18Z" fill="#F88D2A"/>
<path d="M835.295 1777.85H841.318C839.328 1770.98 837.073 1763.69 834.399 1755.45C835.003 1762.21 835.288 1769.53 835.295 1777.85Z" fill="#F88D2A"/>
<path d="M897.123 1742.98C901.602 1749.07 902.946 1758.67 903.982 1766.04C904.305 1768.39 904.601 1770.52 904.959 1772.26C905.261 1773.7 905.498 1775.15 905.729 1776.6L905.936 1777.85H924.046C921.112 1769.9 917.658 1763.44 913.262 1757.68C910.294 1753.79 903.771 1746.68 897.123 1742.98Z" fill="#F88D2A"/>
<path d="M896.098 1763.58C895.257 1765.63 894.416 1767.67 893.569 1769.71L892.776 1771.63C892.172 1773.1 891.578 1774.58 890.991 1776.05L890.267 1777.85H895.546C895.521 1777.81 895.497 1777.78 895.467 1777.74L894.464 1776.31L894.513 1775.88C894.983 1771.56 895.504 1767.47 896.098 1763.58Z" fill="#F88D2A"/>
<path d="M594.501 1750.42L594.458 1750.62C594.523 1750.61 594.646 1750.62 594.757 1750.59L594.501 1750.42Z" fill="#F88D2A"/>
<path d="M590.306 1764.66C589.749 1766.96 589.312 1768.79 588.971 1769.69C588.177 1771.8 587.414 1774.07 586.578 1776.82L586.268 1777.85H596.368C596.416 1776.99 596.471 1776.06 596.536 1775.09C597.01 1767.68 597.658 1757.74 594.397 1751.59C592.979 1753.63 591.136 1761.24 590.306 1764.66Z" fill="#F88D2A"/>
<path d="M699.584 1753.04C701.077 1760.02 701.61 1767.96 701.3 1777.85H709.707L708.211 1773.37C705.848 1766.3 702.906 1759.37 699.584 1753.04Z" fill="#F88D2A"/>
<path d="M733.982 1773.21L732.437 1771.94C730.164 1770.04 728.135 1768.59 726.226 1767.51L725.497 1767.08L725.351 1766.02C723.164 1749.71 719.497 1735.1 714.193 1721.56C715.173 1732.59 713.829 1744.37 712.525 1755.84C712.03 1760.22 711.538 1764.52 711.204 1768.64L710.502 1777.85H740.177C740.6 1765 741.154 1753.14 741.862 1741.97C739.85 1750.53 737.68 1758.95 735.548 1767.16L733.982 1773.21Z" fill="#F88D2A"/>
<path d="M804.684 1777.85H815.162C814.642 1764.86 814.381 1750.28 816.465 1736.01C811.636 1749.32 807.762 1763.09 804.684 1777.85Z" fill="#F88D2A"/>
<path d="M639.277 1753.08C637.093 1757.69 634.826 1762.45 633.505 1767.31C632.779 1769.99 632.153 1772.7 631.548 1775.4L630.99 1777.85H643.591C643.604 1766.41 643.573 1754.97 643.501 1743.58C642.263 1746.82 640.759 1749.99 639.277 1753.08Z" fill="#F88D2A"/>
<path d="M616.749 1768.71L615.48 1776.45L613.863 1768.76C610.929 1754.81 606.54 1741.33 601.824 1727.2C603.479 1745.09 602.777 1762.61 601.759 1777.85H628.682L628.641 1775.16C628.338 1755.57 628.397 1734.77 630.55 1713.99C623.694 1735.39 619.488 1752.15 616.749 1768.71Z" fill="#F88D2A"/>
<path d="M968.06 1757.32L968.89 1761.08L965.388 1757.93C964.532 1757.16 963.792 1756.49 962.969 1755.85C958.581 1752.32 948.911 1747 939.627 1744.11L939.318 1743.98C935.286 1741.78 930.656 1739.92 925.521 1738.43C933.057 1745.9 936.353 1753.52 938.372 1759.42L940.366 1765.2L935.651 1760.03C930.092 1753.91 922.8 1749.43 915.625 1747.62C916.574 1748.5 917.392 1749.41 918.077 1750.35C920.064 1753.17 921.637 1756.1 922.782 1759.05C925.176 1764.49 926.48 1770.08 927.746 1775.5C927.921 1776.28 928.049 1777.05 928.183 1777.82V1777.85H979.202C974.139 1759.09 967.194 1738.52 954.295 1722.22C960.624 1732.46 965.078 1743.87 968.06 1757.32Z" fill="#F88D2A"/>
<path d="M1235.5 1758.09L1232.58 1758.13C1230.42 1741.9 1226.03 1727.53 1219.49 1715.33C1220.4 1723.72 1219.45 1732.67 1218.53 1741.37L1217.8 1748.81C1217.62 1750.93 1217.46 1753.03 1217.38 1755.07C1217.13 1761.19 1216.7 1767.4 1216.28 1773.41L1215.98 1777.85H1241.77C1239.61 1767.64 1237.58 1757.59 1236.35 1747.62C1236.08 1751.31 1235.78 1754.87 1235.5 1758.09Z" fill="#F88D2A"/>
<path d="M1203.01 1758.56L1202.24 1756.43C1197.89 1744.31 1192.41 1733.09 1185.61 1722.43C1191.08 1734.56 1195.16 1747.66 1198.23 1762.78L1198.35 1763.36L1197.93 1763.81C1196.25 1765.61 1194.62 1767.43 1193.08 1769.28L1192.06 1770.5L1190.85 1769.43C1188.67 1767.49 1186.19 1765.53 1183.7 1763.77L1183.12 1763.37L1183.16 1762.72C1183.58 1754.38 1184.14 1746.7 1184.86 1739.45C1182.79 1745.11 1180.54 1750.66 1178.34 1756.08L1176.97 1759.48L1175.43 1758.65C1173.2 1757.47 1171.11 1756.51 1169.22 1755.82L1168.49 1755.54L1168.35 1754.87C1166.15 1744.42 1162.49 1735.07 1157.19 1726.42C1158.16 1733.48 1156.82 1741.02 1155.52 1748.36C1155.03 1751.16 1154.53 1753.91 1154.2 1756.54L1153.28 1764.2L1151.2 1757.95C1148.83 1750.85 1145.88 1743.91 1142.56 1737.59C1144.92 1748.68 1144.61 1760.51 1143.91 1770.91L1143.44 1777.85H1208.21C1207.98 1776.83 1207.77 1775.81 1207.55 1774.79C1206.91 1771.88 1206.26 1768.87 1205.41 1766.04L1205.28 1765.62L1205.47 1765.22C1208.34 1759.3 1211.57 1753.54 1215.06 1748.09L1215.58 1747.28C1211.49 1750.7 1207.92 1753.87 1204.72 1756.92L1203.01 1758.56Z" fill="#F88D2A"/>
<path d="M1244.78 1777.85H1258.8L1258.57 1772.82C1257.77 1755.54 1256.93 1737.74 1259.46 1720.61C1252.94 1738.54 1248.12 1757.35 1244.78 1777.85Z" fill="#F88D2A"/>
<path d="M1108.83 1759.24L1108.26 1759.41C1108.28 1759.44 1108.29 1759.49 1108.3 1759.52L1108.83 1759.24Z" fill="#F88D2A"/>
<path d="M1127.26 1742.26C1124.31 1738.4 1117.76 1731.26 1111.1 1727.56C1114.77 1732.5 1116.33 1739.73 1117.36 1746.41L1117.41 1746.79L1117.33 1746.95L1118.61 1754.95C1118.73 1755.61 1118.85 1756.25 1118.96 1756.83C1120.39 1763.66 1121.41 1770.44 1122.15 1775.58L1122.47 1777.85H1142.81L1141.01 1771.12C1138 1759.9 1133.5 1750.46 1127.26 1742.26Z" fill="#F88D2A"/>
<path d="M1037.45 1752.14C1036.56 1757.66 1035.18 1763.11 1033.84 1768.41C1033.04 1771.56 1032.25 1774.69 1031.55 1777.85H1040.81L1040.74 1777.38C1039.44 1768.9 1038.21 1760.56 1037.45 1752.14Z" fill="#F88D2A"/>
<path d="M1114.77 1769.48L1114.5 1769.12L1114.75 1765.79C1115.01 1762.25 1115.29 1758.6 1115.71 1755L1116.49 1748.44C1114.37 1752.23 1112.31 1755.99 1110.32 1759.72L1109.16 1761.9L1109.03 1761.72L1109.14 1762.02L1107.75 1764.65C1106.84 1766.39 1105.92 1768.11 1105.07 1769.84L1101.9 1776.28L1102.27 1769.27C1103.08 1753.63 1103.9 1739.53 1105.78 1725.35L1106.1 1722.86L1106.12 1722.87C1106.27 1721.88 1106.41 1720.92 1106.55 1719.98C1105.55 1722.4 1104.55 1724.82 1103.55 1727.24C1098.53 1739.33 1093.34 1751.84 1089.46 1764.39L1086.57 1773.75L1086.58 1764.06C1086.6 1752.08 1086.57 1740.1 1086.49 1728.17C1085.25 1731.41 1083.74 1734.56 1082.27 1737.66C1080.08 1742.27 1077.81 1747.04 1076.49 1751.89C1075.77 1754.57 1075.14 1757.28 1074.54 1759.99L1071.83 1772.03L1071.64 1759.75C1071.34 1740.16 1071.39 1719.35 1073.55 1698.57C1066.69 1719.99 1062.48 1736.74 1059.75 1753.29L1058.47 1761.03L1056.86 1753.34C1053.93 1739.39 1049.53 1725.91 1044.82 1711.78C1046.9 1734.31 1045.34 1757.24 1043.66 1777.3L1043.61 1777.85H1120.29L1119.39 1776.34C1117.97 1773.93 1116.33 1771.63 1114.77 1769.48Z" fill="#F88D2A"/>
<path d="M1336.17 1777.85H1349.68C1354.1 1766.6 1359.27 1756.36 1365.1 1747.34C1352.12 1758.22 1343.01 1767.83 1336.17 1777.85Z" fill="#F88D2A"/>
<path d="M792.498 1773.5L789.582 1773.56C787.425 1757.31 783.029 1742.93 776.49 1730.74C777.398 1739.1 776.459 1748.03 775.544 1756.72L774.811 1764.23C774.622 1766.35 774.46 1768.44 774.381 1770.48C774.32 1772.01 774.216 1773.55 774.103 1775.08C774.034 1776.01 773.968 1776.93 773.914 1777.85H773.928H795.76C794.903 1773.23 794.033 1768.15 793.366 1762.91C793.087 1766.65 792.785 1770.25 792.498 1773.5Z" fill="#F88D2A"/>
<path d="M760.011 1771.78L759.248 1768.46C754.889 1749.52 749.42 1731.99 742.633 1715.33C748.051 1734.15 752.106 1754.46 755.168 1777.85H763.998C764.795 1775.38 765.535 1773.3 766.299 1771.08C766.874 1769.4 767.475 1767.52 768.036 1765.97C769.395 1762.18 770.73 1758.69 772.067 1755.43L772.594 1754.14C768.514 1759.48 764.943 1764.44 761.731 1769.22L760.011 1771.78Z" fill="#F88D2A"/>
<path d="M668.112 1742.96C668.291 1743.2 668.408 1743.51 668.58 1743.76C668.914 1744.25 669.192 1744.79 669.491 1745.33C670.094 1746.4 670.644 1747.52 671.115 1748.72C671.356 1749.33 671.59 1749.92 671.799 1750.55C672.233 1751.86 672.608 1753.18 672.934 1754.53C673.069 1755.09 673.223 1755.62 673.344 1756.18C673.75 1758.06 674.098 1759.96 674.387 1761.82L674.441 1762.21L674.338 1762.4L675.635 1770.37C675.745 1771.03 675.865 1771.67 675.982 1772.25C676.278 1773.64 676.491 1775.04 676.715 1776.44C676.787 1776.91 676.859 1777.38 676.938 1777.85H695.245C692.432 1770.27 688.837 1763.66 684.279 1757.68C681.327 1753.82 674.782 1746.67 668.112 1742.96Z" fill="#F88D2A"/>
<path d="M663.569 1735.38C662.609 1737.73 661.635 1740.08 660.666 1742.41C655.877 1753.97 650.941 1765.89 647.116 1777.85H659.688C659.861 1774.68 660.119 1771.17 660.336 1767.78C660.5 1765.22 660.621 1762.83 660.823 1760.19C661.319 1753.78 661.945 1747.22 662.799 1740.76L663.125 1738.28L663.149 1738.29C663.283 1737.3 663.427 1736.34 663.569 1735.38Z" fill="#F88D2A"/>
<path d="M666.182 1777.31L666.038 1777.1L666.031 1777.09L666.134 1777.44L665.928 1777.85H672.068L672.102 1777.41C672.267 1775.07 672.442 1772.74 672.721 1770.41L673.505 1763.89L673.509 1763.86C671.376 1767.64 669.316 1771.42 667.338 1775.14L666.182 1777.31Z" fill="#F88D2A"/>
<path d="M1336.37 1754.8L1335.78 1756.22C1332.62 1763.8 1329.83 1770.9 1327.23 1777.85H1336.06L1336.14 1776.67C1336.32 1773.66 1336.52 1770.65 1336.8 1767.65L1337.56 1759.13L1337.63 1759.4C1338.07 1755.48 1338.57 1751.74 1339.11 1748.15C1338.21 1750.37 1337.28 1752.59 1336.37 1754.8Z" fill="#F88D2A"/>
<path d="M1012.17 1758.64L1010.9 1763.99L1009.27 1758.68C1007.09 1751.56 1005.02 1744.55 1003.78 1737.59C1003.51 1740.14 1003.21 1742.6 1002.93 1744.82L1000.01 1744.85C997.846 1733.65 993.454 1723.74 986.918 1715.33C987.826 1721.1 986.877 1727.27 985.962 1733.27C985.453 1736.58 984.978 1739.7 984.802 1742.72C984.682 1744.75 984.554 1747.25 984.421 1750.01C983.966 1758.83 983.354 1770.78 982.519 1777.85H1026.74L1026.77 1776.01C1026.98 1769.1 1026.49 1761.89 1026.01 1754.91C1025.2 1743.01 1024.38 1730.76 1026.89 1718.97C1020.34 1731.41 1015.5 1744.44 1012.17 1758.64Z" fill="#F88D2A"/>
<path d="M1278.04 1777.85H1288.52C1285.62 1765.17 1281.66 1752.82 1277.38 1739.96C1278.43 1751.25 1278.64 1763.54 1278.04 1777.85Z" fill="#F88D2A"/>
<path d="M1314.86 1765.85C1313 1769.75 1311.1 1773.77 1309.77 1777.85H1319.11V1775.75C1319.1 1769.27 1319.09 1762.8 1319.06 1756.34C1317.82 1759.57 1316.32 1762.74 1314.86 1765.85Z" fill="#F88D2A"/>
<path d="M1304.13 1777.85C1304.03 1762.48 1304.24 1744.85 1306.12 1726.7C1299.87 1746.26 1295.74 1762.39 1293 1777.85H1304.13Z" fill="#F88D2A"/>
<path d="M933.255 1199.72C932.492 1207.43 933.854 1214.7 939.189 1219.7C946.258 1226.31 958.81 1224.12 966.023 1218.64C972.242 1213.92 975.706 1207.28 978.678 1200.76C980.453 1209.91 993.951 1227.83 1008.15 1223.62C1011.3 1222.69 1013.18 1220.02 1014.46 1217.46C1022.18 1202.04 1016.97 1186.32 1007.85 1172.45C1005.96 1169.57 977.543 1138.01 979.782 1136.74C965.07 1151.71 970.532 1149.82 949.615 1168.8C942.928 1174.87 934.343 1188.79 933.255 1199.72Z" fill="#F88D2A"/>
<path d="M619.91 1236.16C626.978 1240.86 634.766 1243.76 642.468 1242.49C652.67 1240.82 657.259 1230.37 655.808 1222.1C654.559 1214.98 649.963 1208.85 645.234 1203.17C655.058 1206.76 679.673 1206.4 683.192 1193.65C683.973 1190.82 682.383 1188 680.584 1185.68C669.759 1171.71 651.718 1167.13 633.373 1166.42C629.562 1166.28 583.719 1170.34 583.688 1168.01C590.348 1186.9 591.428 1181.85 598.655 1207.49C600.967 1215.69 609.882 1229.5 619.91 1236.16Z" fill="#F88D2A"/>
<path d="M501.596 1025.71C508.988 1029.96 516.955 1032.36 524.512 1030.62C534.522 1028.32 538.275 1017.62 536.194 1009.47C534.398 1002.44 529.355 996.622 524.209 991.239C534.257 994.22 558.696 992.34 561.204 979.402C561.762 976.537 559.966 973.834 557.999 971.632C546.148 958.362 527.859 954.912 509.569 955.343C505.772 955.436 460.515 962.32 460.305 959.995C468.388 978.424 469.073 973.318 478.243 998.432C481.177 1006.46 491.111 1019.68 501.596 1025.71Z" fill="#F88D2A"/>
<path d="M640.271 1013.95C645.035 1020.46 651.189 1025.51 658.897 1026.62C669.11 1028.09 677.527 1019.66 679.433 1011.47C681.074 1004.42 679.186 997.304 677.001 990.557C684.782 996.865 707.976 1003.87 716.297 992.953C718.145 990.534 717.769 987.423 716.999 984.712C712.372 968.37 697.289 958.689 680.389 952.559C676.877 951.288 632.352 941.415 633.243 939.22C632.022 958.928 635.025 954.515 631.678 980.715C630.608 989.094 633.511 1004.7 640.271 1013.95Z" fill="#F88D2A"/>
<path d="M804.458 1086.37C806.511 1093.89 810.43 1100.42 817.292 1103.69C826.387 1108.01 837.505 1102.46 842.379 1095.28C846.575 1089.09 847.462 1081.83 847.934 1074.82C852.918 1083.02 872.191 1096.29 884.151 1088.38C886.8 1086.63 887.615 1083.58 887.911 1080.79C889.676 1064.03 879.064 1050.56 865.404 1039.91C862.567 1037.69 824.22 1015.58 825.884 1013.76C817.33 1032.03 821.826 1028.72 808.823 1052.51C804.668 1060.12 801.545 1075.7 804.458 1086.37Z" fill="#F88D2A"/>
<path d="M933.89 886.493C933.127 894.194 934.489 901.472 939.824 906.462C946.893 913.078 959.445 910.883 966.661 905.407C972.877 900.694 976.341 894.048 979.313 887.532C981.088 896.681 994.586 914.603 1008.79 910.39C1011.94 909.458 1013.81 906.786 1015.09 904.229C1022.82 888.811 1017.61 873.092 1008.49 859.222C1006.59 856.342 978.181 824.774 980.417 823.511C965.709 838.482 971.167 836.588 950.25 855.572C943.563 861.64 934.977 875.564 933.89 886.493Z" fill="#F88D2A"/>
<path d="M753.865 795.249C755.919 802.765 759.837 809.296 766.699 812.562C775.794 816.882 786.911 811.337 791.782 804.152C795.982 797.967 796.87 790.705 797.341 783.704C802.325 791.891 821.599 805.168 833.559 797.259C836.207 795.503 837.022 792.453 837.318 789.665C839.083 772.907 828.471 759.43 814.812 748.787C811.974 746.569 773.623 724.458 775.292 722.641C766.737 740.908 771.232 737.597 758.231 761.386C754.075 768.995 750.952 784.575 753.865 795.249Z" fill="#F88D2A"/>
<path d="M1718.51 1084.9C1719.77 1077.24 1722.98 1070.43 1729.47 1066.62C1738.08 1061.59 1749.73 1066.22 1755.34 1072.98C1760.17 1078.81 1761.82 1085.97 1763.02 1092.9C1767.12 1084.34 1784.92 1069.57 1797.66 1076.49C1800.48 1078.02 1801.61 1081 1802.2 1083.74C1805.72 1100.29 1796.57 1114.56 1784.09 1126.26C1781.49 1128.69 1745.63 1153.8 1747.48 1155.47C1737.04 1137.97 1741.86 1140.9 1726.42 1118.26C1721.49 1111.02 1716.73 1095.76 1718.51 1084.9Z" fill="#F88D2A"/>
<path d="M1153.54 1086.37C1151.49 1093.89 1147.57 1100.42 1140.71 1103.69C1131.62 1108.01 1120.5 1102.46 1115.62 1095.28C1111.43 1089.09 1110.54 1081.83 1110.07 1074.82C1105.09 1083.02 1085.81 1096.29 1073.85 1088.38C1071.2 1086.63 1070.38 1083.58 1070.09 1080.79C1068.33 1064.03 1078.94 1050.56 1092.59 1039.91C1095.43 1037.69 1133.78 1015.58 1132.12 1013.76C1140.67 1032.03 1136.18 1028.72 1149.18 1052.51C1153.34 1060.12 1156.46 1075.7 1153.54 1086.37Z" fill="#F88D2A"/>
<path d="M1338.09 1236.16C1331.02 1240.86 1323.23 1243.76 1315.53 1242.49C1305.33 1240.82 1300.74 1230.37 1302.19 1222.1C1303.44 1214.98 1308.04 1208.85 1312.77 1203.17C1302.94 1206.76 1278.33 1206.4 1274.81 1193.65C1274.03 1190.82 1275.62 1188 1277.41 1185.68C1288.24 1171.71 1306.29 1167.13 1324.63 1166.42C1328.44 1166.28 1374.29 1170.34 1374.31 1168.01C1367.66 1186.9 1366.57 1181.85 1359.34 1207.49C1357.04 1215.69 1348.12 1229.5 1338.09 1236.16Z" fill="#F88D2A"/>
<path d="M1512.59 858.496C1518.05 852.419 1524.74 847.922 1532.53 847.475C1542.86 846.874 1550.3 855.985 1551.29 864.287C1552.14 871.449 1549.47 878.373 1546.55 884.903C1555 879.289 1578.85 874.283 1585.92 885.851C1587.49 888.415 1586.78 891.48 1585.71 894.114C1579.29 909.987 1563.2 918.335 1545.7 923.01C1542.06 923.972 1496.65 930.018 1497.29 932.282C1498.27 912.559 1500.77 917.211 1500.35 890.849C1500.21 882.416 1504.84 867.121 1512.59 858.496Z" fill="#F88D2A"/>
<path d="M1317.73 1013.95C1312.96 1020.46 1306.82 1025.51 1299.1 1026.62C1288.89 1028.09 1280.47 1019.66 1278.57 1011.47C1276.93 1004.42 1278.81 997.304 1281 990.557C1273.22 996.865 1250.03 1003.87 1241.7 992.953C1239.86 990.534 1240.23 987.423 1241 984.712C1245.63 968.37 1260.71 958.689 1277.61 952.559C1281.12 951.288 1325.65 941.415 1324.75 939.22C1325.98 958.928 1322.98 954.515 1326.32 980.715C1327.39 989.094 1324.49 1004.7 1317.73 1013.95Z" fill="#F88D2A"/>
<path d="M1204.14 795.249C1202.08 802.765 1198.17 809.296 1191.3 812.562C1182.21 816.882 1171.09 811.337 1166.22 804.152C1162.02 797.967 1161.13 790.705 1160.66 783.704C1155.68 791.891 1136.4 805.168 1124.44 797.259C1121.79 795.503 1120.98 792.453 1120.68 789.665C1118.92 772.907 1129.53 759.43 1143.19 748.787C1146.03 746.569 1184.38 724.458 1182.71 722.641C1191.27 740.908 1186.77 737.597 1199.77 761.386C1203.93 768.995 1207.05 784.575 1204.14 795.249Z" fill="#F88D2A"/>
<path d="M1222.14 1777.85H1222.07L1221.81 1777.58C1221.9 1777.43 1221.99 1777.28 1222.07 1777.14C1222.09 1777.38 1222.12 1777.61 1222.14 1777.85Z" fill="#F88D2A"/>
<path d="M1219.52 1758.72C1220.54 1763.44 1221.21 1768.24 1221.72 1772.76C1221.18 1772.8 1220.7 1772.97 1220.43 1773.22C1219.98 1773.64 1219.5 1774.05 1219 1774.47C1217.22 1772.58 1215.35 1770.69 1213.45 1768.78C1214.42 1765.3 1215.98 1761.25 1219.52 1758.72Z" fill="#F88D2A"/>
<path d="M1113.86 1777.85C1113.8 1777.3 1113.73 1776.75 1113.66 1776.2C1113.56 1775.35 1113.45 1774.5 1113.38 1773.64C1113.38 1773.56 1113.37 1773.48 1113.37 1773.4C1114.71 1774.72 1116.13 1776.26 1117.57 1777.85H1113.86Z" fill="#F88D2A"/>
<path d="M1023.64 1777.85C1023.43 1770.24 1022.81 1763.69 1021.71 1757.69C1025.96 1765.17 1029.19 1771.69 1031.71 1777.85H1023.64Z" fill="#F88D2A"/>
<path d="M1008.8 1774.42C1009.58 1775.57 1010.47 1776.71 1011.41 1777.85H1008.78L1008.8 1774.81C1008.8 1774.68 1008.8 1774.55 1008.8 1774.42Z" fill="#F88D2A"/>
<path d="M1058.7 1773.53L1059.2 1773.63V1772.55C1059.2 1772.32 1059.2 1772.08 1059.2 1771.84C1060.63 1773.45 1062.13 1775.02 1063.59 1776.56L1064.82 1777.85H1057.93L1057.94 1777.82C1058.21 1776.38 1058.47 1774.95 1058.7 1773.53Z" fill="#F88D2A"/>
<path d="M1049.55 1777.85H1043.53C1045.52 1773.97 1047.78 1769.86 1050.45 1765.21C1049.85 1769.03 1049.56 1773.16 1049.55 1777.85Z" fill="#F88D2A"/>
<path d="M987.725 1758.18C983.25 1761.62 981.905 1767.03 980.87 1771.19C980.543 1772.51 980.251 1773.72 979.892 1774.7C979.59 1775.5 979.353 1776.33 979.122 1777.15L978.916 1777.85H960.805C963.74 1773.37 967.189 1769.73 971.589 1766.47C974.554 1764.28 981.076 1760.26 987.725 1758.18Z" fill="#F88D2A"/>
<path d="M988.741 1769.8C989.582 1770.95 990.426 1772.11 991.274 1773.26L992.067 1774.34C992.671 1775.17 993.264 1776 993.851 1776.83L994.576 1777.85H989.297C989.321 1777.83 989.346 1777.81 989.376 1777.79L990.375 1776.99L990.331 1776.74C989.86 1774.3 989.339 1772 988.741 1769.8Z" fill="#F88D2A"/>
<path d="M1290.27 1762.38L1290.32 1762.49C1290.26 1762.49 1290.13 1762.49 1290.02 1762.48L1290.27 1762.38Z" fill="#F88D2A"/>
<path d="M1294.54 1770.41C1295.1 1771.72 1295.54 1772.74 1295.88 1773.25C1296.67 1774.44 1297.44 1775.72 1298.27 1777.27L1298.58 1777.85H1288.48C1288.43 1777.36 1288.38 1776.84 1288.32 1776.3C1287.84 1772.12 1287.2 1766.51 1290.46 1763.04C1291.87 1764.18 1293.71 1768.48 1294.54 1770.41Z" fill="#F88D2A"/>
<path d="M1185.27 1763.86C1183.77 1767.8 1183.24 1772.27 1183.55 1777.85H1175.15L1176.64 1775.33C1179 1771.33 1181.95 1767.43 1185.27 1763.86Z" fill="#F88D2A"/>
<path d="M1150.87 1776.18L1152.41 1775.72C1154.69 1775.04 1156.71 1774.51 1158.62 1774.12L1159.35 1773.96L1159.5 1773.58C1161.68 1767.7 1165.35 1762.42 1170.66 1757.54C1169.68 1761.51 1171.02 1765.77 1172.33 1769.91C1172.82 1771.49 1173.31 1773.04 1173.65 1774.53L1174.34 1777.85H1144.67C1144.25 1773.22 1143.69 1768.94 1142.99 1764.9C1145 1768 1147.17 1771.03 1149.3 1774L1150.87 1776.18Z" fill="#F88D2A"/>
<path d="M1080.17 1777.85H1069.69C1070.21 1770.52 1070.47 1762.3 1068.39 1754.25C1073.22 1761.76 1077.09 1769.53 1080.17 1777.85Z" fill="#F88D2A"/>
<path d="M1245.57 1763.88C1247.76 1766.48 1250.03 1769.17 1251.35 1771.91C1252.07 1773.42 1252.7 1774.95 1253.3 1776.47L1253.86 1777.85H1241.26C1241.24 1771.4 1241.28 1764.95 1241.35 1758.52C1242.59 1760.35 1244.09 1762.13 1245.57 1763.88Z" fill="#F88D2A"/>
<path d="M1268.09 1772.7L1269.37 1777.05L1270.98 1772.73C1273.91 1764.86 1278.31 1757.25 1283.02 1749.28C1281.36 1759.37 1282.07 1769.25 1283.09 1777.85H1256.16L1256.2 1776.34C1256.5 1765.29 1256.45 1753.55 1254.29 1741.83C1261.15 1753.91 1265.36 1763.35 1268.09 1772.7Z" fill="#F88D2A"/>
<path d="M916.793 1761.06L915.968 1764.13L919.466 1761.56C920.326 1760.93 921.066 1760.38 921.884 1759.84C926.277 1756.96 935.946 1752.62 945.226 1750.25L945.54 1750.14C949.571 1748.34 954.198 1746.82 959.337 1745.6C951.797 1751.71 948.505 1757.95 946.486 1762.78L944.487 1767.5L949.203 1763.27C954.765 1758.26 962.057 1754.6 969.23 1753.12C968.284 1753.84 967.465 1754.59 966.781 1755.35C964.792 1757.66 963.217 1760.06 962.075 1762.47C959.677 1766.92 958.374 1771.5 957.111 1775.93C956.936 1776.57 956.809 1777.19 956.671 1777.82V1777.85H905.652C910.719 1762.51 917.663 1745.67 930.563 1732.34C924.23 1740.71 919.779 1750.05 916.793 1761.06Z" fill="#F88D2A"/>
<path d="M649.355 1766.7L652.272 1766.74C654.435 1757.57 658.825 1749.46 665.364 1742.58C664.459 1747.32 665.405 1752.36 666.316 1757.28L667.049 1761.47C667.231 1762.67 667.393 1763.85 667.48 1765C667.727 1768.45 668.157 1771.96 668.57 1775.35L668.873 1777.85H643.081C645.241 1772.09 647.27 1766.43 648.502 1760.8C648.773 1762.89 649.076 1764.89 649.355 1766.7Z" fill="#F88D2A"/>
<path d="M681.851 1766.96L682.614 1765.77C686.973 1758.93 692.452 1752.6 699.242 1746.59C693.78 1753.43 689.7 1760.82 686.629 1769.35L686.512 1769.67L686.932 1769.94C688.61 1770.95 690.234 1771.97 691.775 1773.02L692.793 1773.7L694.004 1773.1C696.187 1772.01 698.665 1770.91 701.162 1769.91L701.733 1769.68L701.702 1769.31C701.279 1764.61 700.715 1760.28 700 1756.19C702.066 1759.38 704.32 1762.51 706.514 1765.57L707.89 1767.49L709.431 1767.02C711.66 1766.36 713.752 1765.82 715.636 1765.42L716.365 1765.27L716.511 1764.89C718.705 1759 722.372 1753.72 727.669 1748.84C726.699 1752.82 728.033 1757.08 729.337 1761.22C729.832 1762.8 730.324 1764.35 730.658 1765.82L731.573 1770.15L733.657 1766.63C736.028 1762.62 738.979 1758.71 742.302 1755.14C739.932 1761.4 740.251 1768.07 740.95 1773.93L741.422 1777.85H676.639C676.87 1777.28 677.087 1776.7 677.31 1776.12C677.947 1774.48 678.597 1772.79 679.45 1771.19L679.573 1770.95L679.384 1770.72C676.512 1767.39 673.292 1764.14 669.801 1761.06L669.275 1760.6C673.371 1762.54 676.935 1764.32 680.131 1766.04L681.851 1766.96Z" fill="#F88D2A"/>
<path d="M640.074 1777.85H626.05L626.28 1775.02C627.086 1765.26 627.921 1755.23 625.39 1745.56C631.911 1755.67 636.731 1766.29 640.074 1777.85Z" fill="#F88D2A"/>
<path d="M775.857 1767.36L776.422 1767.46C776.411 1767.48 776.398 1767.5 776.384 1767.52L775.857 1767.36Z" fill="#F88D2A"/>
<path d="M757.587 1757.78C760.539 1755.6 767.084 1751.57 773.748 1749.48C770.074 1752.27 768.515 1756.34 767.487 1760.12L767.432 1760.33L767.521 1760.42L766.231 1764.93C766.121 1765.31 766.001 1765.66 765.884 1766C764.46 1769.85 763.432 1773.67 762.703 1776.58L762.375 1777.85H742.04L743.835 1774.06C746.852 1767.73 751.344 1762.41 757.587 1757.78Z" fill="#F88D2A"/>
<path d="M847.41 1763.35C848.29 1766.46 849.676 1769.54 851.018 1772.53C851.816 1774.3 852.61 1776.07 853.309 1777.85H844.046L844.118 1777.59C845.421 1772.8 846.646 1768.1 847.41 1763.35Z" fill="#F88D2A"/>
<path d="M770.078 1773.13L770.343 1772.93L770.096 1771.05C769.834 1769.05 769.563 1766.99 769.132 1764.96L768.355 1761.26C770.478 1763.4 772.537 1765.53 774.526 1767.63L775.686 1768.85L775.812 1768.75L775.709 1768.92L777.095 1770.41C778.007 1771.39 778.922 1772.36 779.775 1773.33L782.947 1776.97L782.582 1773.02C781.77 1764.19 780.951 1756.24 779.066 1748.23L778.739 1746.83L778.726 1746.84C778.582 1746.28 778.437 1745.74 778.296 1745.21C779.297 1746.57 780.298 1747.94 781.303 1749.31C786.321 1756.12 791.504 1763.18 795.389 1770.26L798.281 1775.54L798.264 1770.07C798.251 1763.32 798.281 1756.56 798.361 1749.82C799.602 1751.65 801.105 1753.43 802.578 1755.18C804.772 1757.79 807.039 1760.47 808.356 1763.22C809.082 1764.72 809.702 1766.25 810.307 1767.77L813.017 1774.57L813.21 1767.64C813.513 1756.59 813.458 1744.86 811.301 1733.13C818.156 1745.21 822.363 1754.66 825.102 1764L826.37 1768.36L827.987 1764.03C830.921 1756.16 835.311 1748.55 840.027 1740.58C837.953 1753.29 839.511 1766.23 841.189 1777.54L841.237 1777.85H764.561L765.458 1777C766.876 1775.64 768.52 1774.34 770.078 1773.13Z" fill="#F88D2A"/>
<path d="M1092.36 1775.4L1095.28 1775.43C1097.44 1766.26 1101.83 1758.16 1108.37 1751.28C1107.46 1755.99 1108.4 1761.03 1109.32 1765.93L1110.05 1770.17C1110.24 1771.36 1110.4 1772.55 1110.48 1773.69C1110.54 1774.56 1110.65 1775.43 1110.76 1776.29C1110.83 1776.81 1110.89 1777.33 1110.95 1777.85H1110.94H1089.1C1089.96 1775.25 1090.83 1772.38 1091.49 1769.42C1091.77 1771.53 1092.08 1773.56 1092.36 1775.4Z" fill="#F88D2A"/>
<path d="M1124.84 1775.66L1125.6 1774.47C1129.97 1767.63 1135.43 1761.3 1142.22 1755.29C1136.8 1762.08 1132.75 1769.41 1129.68 1777.85H1120.86C1120.06 1776.96 1119.32 1776.21 1118.56 1775.41C1117.98 1774.8 1117.38 1774.13 1116.82 1773.56C1115.46 1772.2 1114.13 1770.94 1112.78 1769.76L1112.26 1769.3C1116.34 1771.22 1119.91 1773.01 1123.12 1774.73L1124.84 1775.66Z" fill="#F88D2A"/>
<path d="M1216.74 1758.17C1216.56 1758.31 1216.44 1758.48 1216.27 1758.63C1215.94 1758.9 1215.65 1759.2 1215.36 1759.5C1214.76 1760.11 1214.21 1760.74 1213.73 1761.42C1213.49 1761.76 1213.26 1762.1 1213.05 1762.45C1212.62 1763.19 1212.24 1763.93 1211.91 1764.7C1211.78 1765.02 1211.62 1765.31 1211.5 1765.63C1211.1 1766.69 1210.75 1767.76 1210.46 1768.81L1210.41 1769.03L1210.51 1769.14L1209.21 1773.63C1209.1 1774 1208.98 1774.36 1208.86 1774.69C1208.57 1775.47 1208.35 1776.27 1208.13 1777.05C1208.06 1777.33 1207.99 1777.59 1207.91 1777.85H1189.6C1192.42 1773.57 1196.01 1769.85 1200.57 1766.47C1203.52 1764.29 1210.06 1760.26 1216.74 1758.17Z" fill="#F88D2A"/>
<path d="M1221.29 1753.9C1222.25 1755.22 1223.22 1756.55 1224.19 1757.86C1228.97 1764.38 1233.91 1771.1 1237.74 1777.85H1225.17C1224.99 1776.06 1224.74 1774.08 1224.52 1772.17C1224.35 1770.72 1224.23 1769.38 1224.03 1767.89C1223.54 1764.27 1222.91 1760.57 1222.06 1756.93L1221.73 1755.53L1221.71 1755.54C1221.57 1754.98 1221.43 1754.43 1221.29 1753.9Z" fill="#F88D2A"/>
<path d="M1218.65 1777.55L1218.8 1777.43L1218.8 1777.42L1218.7 1777.62L1218.9 1777.85H1212.77L1212.73 1777.6C1212.57 1776.28 1212.39 1774.97 1212.11 1773.66L1211.33 1769.98L1211.32 1769.96C1213.46 1772.09 1215.52 1774.22 1217.5 1776.32L1218.65 1777.55Z" fill="#F88D2A"/>
<path d="M554.421 1764.85L555.009 1765.65C558.16 1769.92 560.96 1773.93 563.55 1777.85H554.731L554.652 1777.18C554.462 1775.49 554.262 1773.79 553.991 1772.09L553.221 1767.29L553.158 1767.44C552.712 1765.23 552.219 1763.12 551.68 1761.1C552.584 1762.35 553.506 1763.6 554.421 1764.85Z" fill="#F88D2A"/>
<path d="M872.684 1762.13L873.949 1766.52L875.577 1762.17C877.765 1756.34 879.825 1750.61 881.073 1744.92C881.345 1747 881.648 1749 881.923 1750.82L884.844 1750.85C887.008 1741.69 891.397 1733.58 897.936 1726.7C897.028 1731.42 897.974 1736.47 898.889 1741.38C899.398 1744.09 899.876 1746.64 900.051 1749.11C900.172 1750.77 900.298 1752.81 900.433 1755.08C900.887 1762.29 901.5 1772.06 902.335 1777.85H858.113L858.082 1776.34C857.865 1770.69 858.36 1764.79 858.835 1759.09C859.647 1749.35 860.476 1739.33 857.961 1729.68C864.515 1739.86 869.351 1750.51 872.684 1762.13Z" fill="#F88D2A"/>
<path d="M606.801 1777.85H596.32C599.223 1770.7 603.182 1763.73 607.454 1756.48C606.402 1762.85 606.196 1769.78 606.801 1777.85Z" fill="#F88D2A"/>
<path d="M569.986 1771.09C571.84 1773.28 573.738 1775.55 575.077 1777.85H565.741V1776.67C565.748 1773.02 565.755 1769.36 565.786 1765.72C567.027 1767.54 568.524 1769.33 569.986 1771.09Z" fill="#F88D2A"/>
<path d="M580.712 1777.85C580.815 1769.18 580.602 1759.23 578.724 1749C584.967 1760.03 589.106 1769.13 591.847 1777.85H580.712Z" fill="#F88D2A"/>
</g>
</g>
</svg>
